<?xml version="1.0" encoding="UTF-8"?>
<svg id="Layer_2" data-name="Layer 2" xmlns="http://www.w3.org/2000/svg" viewBox="0 0 183.41 186.21">
  <g id="Elements">
    <g id="Element">
      <path d="M15.11,1c.33.28-1.57,1.78-1,3,1.75.54.57-2.63,1.5-2,2.51,1.7.69,1.82.5,2.5-.27,1,2.65,4.13,0,6,.99,1.08,2.42-2.15,3-1.5.22.24-.5,3.19,1.5,4l-.5-3.5c-2.63-1.36,1-4.17,1-5,0-.25-1.5-1.09-1-1.5.35-.28,3.35.19,4.5,0,3.05-.51,5.74.18,10-1,1.11-.31,3.77,2,4,2,.95,0-.07-2.59,5-1,1.75.55,3.26-1.28,3.5-1,.77.88-1.38,2.34-.5,3,2.04-2.13,3.84-4.87,5.5-1-2.62-1.08-2.42,2.56-2,3,1.95,2.04,1.99-2.26,2.5-2,1.55.78,1.69,2.45,1.5,4l2-3.5c-.39-2.32.04-3.18,2.5-2.5,1.98.55,9.31,2.39,11,2,5.44-1.25,16.4-2.01,23,0,1.14.35,4.9-1.52,8-1,2.72.45,11.84.84,15,0,2.83-.75,2.85-.69,5,0,4.83,1.56,14.5-1.08,21,0,3.1.52,2.37-1,3-1,.43,0,6.48,2.14,7,2,4.4-1.21,3.93-.04,6,0,.2,0,2.5-3.09,3.5-2,.23.25-.55,2.05.5,2,1.55-2.39,2.66.39,4,0,.4-.11.6-.88,1-1,3.84-1.16,4.79.35,8,1,.95.19,3.26-.24,3.5,0,.7.7-1.54,4.64,2,2-.76,1.82.86,2.95,1,3.5.24.95-1.66,2.59-1,5,.22.79,3,4.65,3,5,0,.33-.94.62-1,1-1.23,7.42.45,14.65,1,22,.32,4.2-1.25,14.08-1,15,1.38,5.01-.38,11.99,1,17,.37,1.34-1.37,1.66-1,3,.08.29,1.84,1.49.5,1.5-.25,0-1.09-1.5-1.5-1-.83,1.01.91,2.2,1,2.5.9,2.9-.09,5.67,0,6,.86,3.13.94,6.73,0,10-.32,1.12,1.67,2.33,1,4l-2-.5c-.98,2.86,1.8,1.74,2,2,1.03,1.36-1,3.3-1,3.5,0,.22,1.59,1.45,1,4-.46,1.96-1.62,15.22-1,18,.09.4,1.36.68,1,2-2.23,8.09-.58,18.43-2,27-.06.38-1,.67-1,1,0,.36,4.79,3.82,0,3.5-.4,1.79,1.74.72,2,1,.52.57.29,14.15,0,15.5-.07.32-2.04,3.37-2.5,3.5-.63.18-1.41-.19-2,0-.4.13-.6.88-1,1-1.97.6-2.83-1-3-1-.25,0-.69,1.36-2,1-.63-.17-1.4-2.08-2.5-2,.95,2.47-2,2.65-2,1.5,0-2.57-1.15-1.34-3-1.5l2,2c-1.74.2-3.86-.29-5.5,0-.14.03-1.6,1.82-2.5,1-.28-.26.79-2.4-1-2,.73,3.33-2.17,1.61-4.5,2-.38.06-.67,1-1,1-.38,0-1.62-2-2-2-.41,0-.97,1.83-4,1-.45-.13-5.9,1.51-9,1-.48-.08-4.7-1.08-5-1-1.67.46.09,2.28-4,1-1.84-.58-3.12,1.55-5,1-.65-.19-1.4-2.08-2.5-2,.48,2.06-.41,2.56-2.5,2-.44-.12-2.54-1.86-3-2-1.98-.58-2.71.95-3,1-3.92.72-4.99-1.8-8-1-3.68.98-5.19.65-9,0-.24-.04-1.49-1.85-1.5-.5,0,.25,1.5,1.09,1,1.5-1.17.96-2.9-.75-3.5-1-.54-.22-1.33.17-1.5,0-.16-.16.1-4.39-2-.5-.4.74.86,2.2-2.5,1.5-.39-.08-.67-1-1-1-.17,0-1,1.58-3,1-2.3-.66-2.08.25-3,0-.55-.15-1.61-2-2-2-.32,0-3.01,3.02-2.5-1-1.8-.38-.7,1.65-1,2-.48.55-2.15-2-2.5-2-.39,0-1.45,1.85-2,2-4.63,1.27-3.17-1.6-3.5-2-.44-.54-2.56,2.54-3,2v-7c-3.07.97-.78,2.28-1,4.5-.28,2.8-4.28,3.22-5,2.5-.18-.18.68-2.91-1.5-2-1.97.82-2.1.62-4,1-.39.08-.68,1.36-2,1-.56-.15-1.98-2.57-2.5-2-.19.21.19,1.81,0,2-.16.16-3.69.13-4.5,0-.38-.06-.67-1-1-1s-.62.94-1,1c-.8.13-4.33.15-4.5,0-.33-.28,1.57-1.78,1-3-2.93-.78-1.5,2.02-3.5,3s-1.39-1.88-1.5-2c-.5-.52-1.9,1.71-2.5,2-3.07.63.19-2.09-1-2-.16.01-.77,1.01-3,1-1.36,0-2.18.27-3-1l-1,2-3.5-4-2,5-1.5-4-1,2c-.55-.47-2.11-2.44-2.5-2-.27.31.84,4.1-1.5,3-1.54-.72-1.51-3.97-2.5-3-.1.1.56,3.01-1.5,2-2.51-1.23-3.08-4.91-2.5-7.5.08-.38.87-.59,1-1,.99-3.05,2.46-5.87,2-9.5l3,3,1-3.5c-1.81-1.09-1.92-3.44-3.5-4.5-.93-.63.25,2.54-1.5,2,.69-1.93-1.78-2.68-2-3.5-.69-2.56.99-4.73,1-5,0-.13-1.83-1.57-1-2.5.14-.16,2.27,1.97,4,0,.25,2.68.04,1.62-1.5,2-.9.22-.62,1.88-.5,2s2.15.15,3,1c-.55-1.6.93-2.11,1-2.5.18-1.03.24-7.21,0-7.5-.4-.47-1.54,1.43-2,1l-3-3.5c1.85-3.1,4.2.31,5-.5.24-.24-.16-3.04,0-4l3,3c.51-1.88-.97-4.28-2.5-5-2.34-1.1-.86,4.07-3.5,4l-1-6.5,4,1c-1.2-1.02-1.01-2.54-2.5-3.5-.51-.33-2.49-.29-2.5-2,10.57,1.05,2-4.72,2-5.5,0-.68,4.06-2.13.5-4.5l-1.5,4-1-6c2.88,2.54,4.53-1.05,6.5-2,2.32-1.12,1.24,2.7,1.5,3,.3.34,2-1.3,2-1.5,0-.34-1-.66-1-1,0-.25,1.5-1.09,1-1.5-.68-.56-3.94,1.32-3-2l-3,3v-6l-2,4v-6.5c-.21-1.43-1.51.95-2,.5-1.81-1.68,2.12-2.23,2.5-3,.54-.23,1.32.18,1.5,0,.5-.5-2.42-5.83-3-7.5-.48-1.38-1.52,1.06-2,.5-.1-.11-.11-2.89,0-3,.21-.21,1.78.21,2.5,0,.17-.05,2.45-2.33,2.5-2.5.36-1.32-.92-1.61-1-2-.67-3.33.38-5.77,0-8-.55-3.19-.89-7.84-2-12-.85-3.19-.99-8.61-2-13-.09-.39-.93-.62-1-1-.14-.78-.16-4.34,0-4.5.33-.33,4.83.92,2.5-2-.56,1.62-2.5.14-2.5-.5,0-.33.94-.62,1-1,.53-3.21-.67-5.56,0-8,.37-1.34-1.37-1.66-1-3,.27-.97,2.83-1.43,2-5-1.04-4.46-.47-7.82-1-11-.5-3,.88-4.87,1-6,.29-2.76-1.04-10.77,1.5-11.5.62-.18,1.38.18,2,0,.56-.16,1.45-1.85,2-2,1.1-.3,3.16-.83,4-1,.65-.13,3.37-.11,3.5,0ZM14.11,8c.64-.76-.33-2.8-1-2-.64.76.33,2.8,1,2ZM65.11,8c.64-.76-.33-2.8-1-2-.64.76.33,2.8,1,2ZM26.11,7c-1.09-1.09-3.09.91-2,2s3.09-.91,2-2ZM37.61,7c-.65,0-.65,1,0,1s.65-1,0-1ZM123.11,9c.64-.76-.33-2.8-1-2-.64.76.33,2.8,1,2ZM165.11,9l-2-2c-.26,2.11-.11,2.26,2,2ZM167.11,9c.64-.76-.33-2.8-1-2-.64.76.33,2.8,1,2ZM176.11,10c.16-.2-.2-.94,0-1.5.13-.37,1.85-1.5.5-1.5-1.79,0-1.7,4.43-.5,3ZM105.11,8c-.76-.64-2.8.33-2,1,.76.64,2.8-.33,2-1ZM39.11,12c.94-1.13-2-3.93-2-2.5,0,.32.85.57,1,1,.1.27.1,2.57,1,1.5ZM71.61,9c-.65,0-.65,1,0,1s.65-1,0-1ZM94.11,9c-.76-.64-2.8.33-2,1,.76.64,2.8-.33,2-1ZM62.61,10c-.65,0-.65,1,0,1s.65-1,0-1ZM27.11,16c.17-.21-.22-.96,0-1.5s1.36-.7,1-2c-.11-.39-1.75-1.81-2-1.5-.39.49-.16,6.39,1,5ZM57.11,11c-.13-.13-1.36.07-2,0,.45,1.2-1.7,3.32-1,4,1.37,1.33,4.22-2.78,3-4ZM69.11,13c.64-.76-.33-2.8-1-2-.64.76.33,2.8,1,2ZM18.11,12c-1.31-1.31-2.54.52-2,2.5.1.37.82.58,1,1,.21.49.12,3.38,2,1.5.99-.99-.77-2.95-1-3.5s.17-1.33,0-1.5ZM42.61,12c-.65,0-.65,1,0,1s.65-1,0-1ZM48.11,15c.1-.12.1-2.88,0-3-1.31-1.57-1.31,4.57,0,3ZM30.11,15c.64-.76-.33-2.8-1-2-.64.76.33,2.8,1,2ZM38.61,14c-.65,0-.65,1,0,1s.65-1,0-1ZM61.61,14c-.65,0-.65,1,0,1s.65-1,0-1ZM68.11,14c-.76-.64-2.8.33-2,1,.76.64,2.8-.33,2-1ZM75.11,18c.13-.16.13-3.85,0-4-.9-1.07-.9,1.23-1,1.5-.15.43-1,.68-1,1,0,.21,1.72,1.84,2,1.5ZM82.61,14c-.65,0-.65,1,0,1s.65-1,0-1ZM90.61,14c-.65,0-.65,1,0,1s.65-1,0-1ZM143.11,14c-1.09-1.09-3.09.91-2,2s3.09-.91,2-2ZM46.61,16c-.65,0-.65,1,0,1s.65-1,0-1ZM64.11,18c.64-.76-.33-2.8-1-2-.64.76.33,2.8,1,2ZM68.11,18c.64-.76-.33-2.8-1-2-.64.76.33,2.8,1,2ZM102.61,17c-.65,0-.65,1,0,1s.65-1,0-1ZM114.61,17c-.65,0-.65,1,0,1s.65-1,0-1ZM56.11,18c-1.03-1.03-3.39.32-.5,2,.73.42.68-1.82.5-2ZM77.61,18c-.65,0-.65,1,0,1s.65-1,0-1ZM13.11,22c.1-.12.1-2.88,0-3-1.31-1.57-1.31,4.57,0,3ZM37.11,19c-1.02-1.02-4.02,1.98-3,3s4.02-1.98,3-3ZM51.11,19c-2.34-2.34-2.48,4.52-2,5,2.34,2.34,2.48-4.52,2-5ZM62.11,22c.42.52,2.81-2,2-3-.42-.52-2.81,2-2,3ZM71.11,19c-2.66-2.66-2.66,5.66,0,3,.11-.11.11-2.89,0-3ZM81.61,19c-.65,0-.65,1,0,1s.65-1,0-1ZM92.61,19c-.65,0-.65,1,0,1s.65-1,0-1ZM20.11,24c.7-.82-1.48-2.77-1-4-2.45-.05.27,2.31,0,4,.33-.08.89.13,1,0ZM23.11,23c.64-.76-.33-2.8-1-2-.64.76.33,2.8,1,2ZM90.61,21c-.65,0-.65,1,0,1s.65-1,0-1ZM60.11,24c.64-.76-.33-2.8-1-2-.64.76.33,2.8,1,2ZM35.11,25c.64-.76-.33-2.8-1-2-.64.76.33,2.8,1,2ZM39.11,23c-2.11-.26-2.26-.11-2,2l2-2ZM102.11,25c.64-.76-.33-2.8-1-2-.64.76.33,2.8,1,2ZM16.61,24c-.65,0-.65,1,0,1s.65-1,0-1ZM29.61,24c-.65,0-.65,1,0,1s.65-1,0-1ZM86.61,24c-.65,0-.65,1,0,1s.65-1,0-1ZM5.61,25c-.65,0-.65,1,0,1s.65-1,0-1ZM48.11,30c.82-1.02-.92-2.22-1-2.5-.16-.56.09-3.81-1-2.5s1.18,6.01,2,5ZM50.61,25c-.65,0-.65,1,0,1s.65-1,0-1ZM74.11,25c-.76-.64-2.8.33-2,1,.76.64,2.8-.33,2-1ZM11.11,28c.64-.76-.33-2.8-1-2-.64.76.33,2.8,1,2ZM23.11,29c.1-.12.1-2.88,0-3-1.31-1.57-1.31,4.57,0,3ZM70.61,26c-.65,0-.65,1,0,1s.65-1,0-1ZM67.61,27c-.65,0-.65,1,0,1s.65-1,0-1ZM102.61,27c-.65,0-.65,1,0,1s.65-1,0-1ZM115.61,28c-.65,0-.65,1,0,1s.65-1,0-1ZM42.61,29c-.65,0-.65,1,0,1s.65-1,0-1ZM67.11,29c-1.09-1.09-3.09.91-2,2s3.09-.91,2-2ZM83.11,32c1.84-2.57-.6-3.29-3-3l-1,5c-4.31-.9-2.59,1.59-3,2-.07.07-1.93.07-2,0-.97-.96,2.76-3.53-.5-3l-5,6-1-2c-2.06,1.74-1.17,4.82-4,2-.64.39-3.37.87-3.5,1-1.13,1.17,2.85,5.01,3,5.5.15.51.35,2.51-.5,2.5l-2.5-4,1,9c3.63.86,1.34-3.26,2-4,.27-.3,1.89,1.12,2,1.5.78,2.83-1.45,5.4-1,7,.12.41.98.66,1,1,.01.18-2.09,2.44-1,3.5.14.14,3.85.14,4,0,.84-.8-1.01-2.37-1-2.5.01-.34.93-.62,1-1,.23-1.34.31-3.07-1-4-.13-.88,1.93-.57,2-.5.38.39-.38,5.62,0,6,.55.55.79-1.4,2,1.5.28.67,1.58,1.09,1,3-.14.47-1.36.69-1,2,.5,1.82,4.45,1.16,5,3,.21.72-.21,2.29,0,2.5.16.16.92-.17,1.5,0,4.42,1.31,1.44,1.81.5,3.5-.26.47.19,1.31,0,1.5-.11.11-2.89.11-3,0-.16-.16.62-3.01-1.5-4-1.75-.81-1.32.72-1.5,1.5-.21.9-1.89.61-2,.5-.25-.25.59-2.76-1-3.5,1.89-1.3.23-1.22,0-2-.46-1.56,1.91-4.59,1-5.5-.76-.76-2.47,1.29-3.5,1-.42-.12-.67-1-1-1-.25,0-3.5,3.25-3.5,3.5,0,.33.89.59,1,1,.42,1.57,1.32,4.58,1,6-.03.14-1.2,1.62-1.5,2.5-.49,1.43-.67,2.52-.5,4-2.01-.53-2.24-2.15-2-4l-4-1c.09,1.4-2.71,7-3.5,7-.18,0-2.5-1.94-2.5.5,0,.33,1,.67,1,1,0,.37-1.69,1.35-2,2-.54,1.14.36,2.04,1.5,1.5.44-.21.7-1,1-1,.18,0,2.63,1.91,3,2,.94.21,3.24-.25,3.5,0,.87.86-1.23,3.74-1,5l-2,.5c1.28.51.9,2.41,1,2.5.44.41,6.59-.41,7,0,.19.19.18,4.84,0,5.5-.27.99-3.93,2.03.5,4.5.47.26,1.31-.19,1.5,0,.24.24-.16,3.04,0,4l2-3,2.5,3c.99-.98,4.13-2.15,4.5-3.5.23-.84-.22-2.12,0-3,.1-.39.89-.6,1-1,1.06-3.81-1.56-1.97-3.5-2.5-2.77-.76-.87-8.37-1.5-9-.14-.14-4.13.13-2-2,.13-.13.9.11,1.5,0,.89-.16.61-2.89.5-3-.91-.92-4.44,1.56-5,1,.73-1.45-1.59-4.41-1-5,.78-.78,2.68,1.85,3.5,0,1.43,1.89,2.6,2.33,5,2,.99-1.68,5.02-2.89,5.5-4.5.21-.72-.21-2.29,0-2.5.35-.35,4.02.94,3-1.5-.23-.56-1.36-.7-1-2,.05-.17,2.11-2.27,2.5-2.5,1.14-.68,2.88-.68,4-1,.41-.12.63-.93,1-1,.94-.17,4.22-.22,5,0s1.46,2.42,3,2c.17-.05,2.45-2.33,2.5-2.5.59-2.07,1.67-3.81,2-5,.23-.85-.23-2.15,0-3,.15-.56,2.57-1.98,2-2.5-.28-.26-2.75.25-3,0-.19-.19.27-1.03,0-1.5-1.25-2.19-3.81-1.31-4-1.5-.25-.25.25-2.73,0-3-.09-.1-1.99.28-2.5-1-.51,1.28-2.41.9-2.5,1-.19.2.26,1.03,0,1.5-.39.69-1.61,1.31-2,2-.26.47.19,1.31,0,1.5-.75.75-6.24-1.66-5,2-1.49-.55-2.32,1.01-2.5,1-.37-.01-2.5-3.28-2.5-3.5,0-.91,3.16-2.47,4-3,4.03-2.55-2.3-4.76-3-6-.26-.47.19-1.31,0-1.5-.25-.25-2.75.25-3,0-.21-.21.21-1.78,0-2.5-.19-.65-2.08-1.4-2-2.5,1.75.19,3.84-.28,5.5,0,.38.06.67,1,1,1s.67-1,1-1c1.7,0,1.34,3.84,1.5,4,.54.54.49-1.21,2,1.5.24.43,3.26,3.43,3.5,3.5,2.14.62,3.83-1.74,5-2,3.42-.76,3.35,1.08,5,2,.47.26,1.29-.18,1.5,0,.48.41-1.37,1.22-1,2.5.17.58,2.01,1.72,2.5,2.5.65-1.34,2.17-.54,2.5-1.5.47-1.37.65-2.76,1-4,.82-2.87,3.27-.5,3.5-.5,1.75,0,1.26-3.62,1.5-4.5.12-.44,1.92-2.62,2-3,.57-2.62.65-5.41-2.5-4.5-1.71.49-1.23,2.6-1.5,3.5-.21.72-3.27,3.29-4,2.5-.14-2.01-1.38-3.59-2-5.5-.32-.98-.2-3.37-2-1.5-.27.28,1.53,1.7,1,3.5-1.8.91-.6,4.03-1,4.5s-2.84.21-2-1.5c.22-.45,1-.71,1-1,0-.32-.88-.58-1-1-.4-1.35,2.1-1.87-.5-3.5-3.13,1.66,1.18,4.58-2,6-2.05.92-1.3-2.51-3-3-1.99-.57-2.46.82-3,1-.61.2-1.41-.21-2,0-.39.14-.59.83-1,1-2.18.91-1.32-1.82-1.5-2-.13-.13-2.55.12-3-1.5-.15-.55-.12-3.37,0-3.5.8-.84,2.37,1.01,2.5,1,.11,0,1.5-1.39,1.5-1.5,0-.34-.92-.18-.5-1.5.56-1.77.62-3.2.5-5l-3,3ZM26.11,33c.64-.76-.33-2.8-1-2-.64.76.33,2.8,1,2ZM43.11,31c-2.09-2.09-2.62,3.38-2,4,2.09,2.09,2.62-3.38,2-4ZM52.61,31c-.65,0-.65,1,0,1s.65-1,0-1ZM132.11,33c.64-.76-.33-2.8-1-2-.64.76.33,2.8,1,2ZM5.61,32c-.65,0-.65,1,0,1s.65-1,0-1ZM12.61,32c-.65,0-.65,1,0,1s.65-1,0-1ZM33.11,32c-1.09-1.09-3.09.91-2,2s3.09-.91,2-2ZM48.11,34c.64-.76-.33-2.8-1-2-.64.76.33,2.8,1,2ZM61.11,34c.64-.76-.33-2.8-1-2-.64.76.33,2.8,1,2ZM18.11,39c.33-.39.25-7.49-1-6-.33.39-.25,7.49,1,6ZM21.11,35c.64-.76-.33-2.8-1-2-.64.76.33,2.8,1,2ZM120.61,33c-.65,0-.65,1,0,1s.65-1,0-1ZM159.61,33c-.65,0-.65,1,0,1s.65-1,0-1ZM38.61,34c-.65,0-.65,1,0,1s.65-1,0-1ZM24.11,35c-.76-.64-2.8.33-2,1,.76.64,2.8-.33,2-1ZM54.11,35c-.07-.07-1.92-.07-2,0-.49.4.81,1.07,1,1.5.08.18.09,2.59,1,1.5.1-.12.11-2.89,0-3ZM139.11,35c-1.08-.87-4.63.37-3,2,.83.83,3.57-1.54,3-2ZM29.61,37c-.65,0-.65,1,0,1s.65-1,0-1ZM63.61,37c-.65,0-.65,1,0,1s.65-1,0-1ZM10.61,38c-.65,0-.65,1,0,1s.65-1,0-1ZM160.11,40c.64-.76-.33-2.8-1-2-.64.76.33,2.8,1,2ZM41.11,42c.1-.12.1-2.88,0-3-1.31-1.57-1.31,4.57,0,3ZM58.11,42c.64-.76-.33-2.8-1-2-.64.76.33,2.8,1,2ZM24.11,43c.64-.76-.33-2.8-1-2-.64.76.33,2.8,1,2ZM32.61,41c-.65,0-.65,1,0,1s.65-1,0-1ZM11.61,42c-.65,0-.65,1,0,1s.65-1,0-1ZM18.11,45c.29.36,3.3-1.36.5-3-.74-.44-.69,2.76-.5,3ZM39.11,48c.41.51,3.75-2.1.5-4-.75-.44-.68,3.78-.5,4ZM58.11,44c-1.43-1.36-5.62,2.43-6,4,1.46.14,2.71-.86,4-1.5.83-.41,3.64-.94,2-2.5ZM181.61,44c-.65,0-.65,1,0,1s.65-1,0-1ZM124.61,45c-.65,0-.65,1,0,1s.65-1,0-1ZM129.61,45c-.65,0-.65,1,0,1s.65-1,0-1ZM122.11,49c.64-.76-.33-2.8-1-2-.64.76.33,2.8,1,2ZM36.11,52c.16-.16.26-4.44-.5-4-2.99,1.75-1.24,5.74.5,4ZM144.11,50c.64-.76-.33-2.8-1-2-.64.76.33,2.8,1,2ZM21.11,52c.1-.12.1-2.88,0-3-1.31-1.57-1.31,4.57,0,3ZM125.61,49c-.65,0-.65,1,0,1s.65-1,0-1ZM9.11,52c.64-.76-.33-2.8-1-2-.64.76.33,2.8,1,2ZM157.11,110c0-1.12.33-2.39-.5-3-.89-.67,1.27-2.1.5-3-2.27-2.68-1.86,2.86-2,3-.22.22-4.4-.68-5,1.5-.36,1.31.87,1.54,1,2,.38,1.29-1.48,2.08-1,2.5.26.23,2.05-.54,2,.5-.39.61-1.98,1.66-2,2-.01.21,2.31,1.47,0,3,.63.86,2.25-1.26,3-.5,1.05,1.06-.75,5.74-3,6,0-3.19.69-5.6-2-2.5.87,3.57-2.94,4.99-3,8.5-1.84-1.62-2.21.02-2.5,0-.18-.01-2.5-2.32-2.5-2.5,0-.33,1-.67,1-1s-3.14-2.32-2-4.5c1.76-.53.56,2.62,1.5,2,.84-.55.91-1.43,2.5-1-.39-1.33-.87-.83-.5-2,.71-2.24-.66-1.99-.5-4l2,2c1-3.36-1.46-3.82-4.5-3-.84.23-1.98,3.06-4.5,2-.09-2.16,2.05.46,2-2.5-.03-1.69-.93-2.74-2-1.5-.28.32.61,2.74-1,3.5,1.72,2.11-.78,4.91-2,7-.54.92,1.78.28,2,.5.26.26-.18,3.38,0,4.5.06.38.99.66,1,1,0,.47-2.73,1.71-2,3.5l-2-3.5,1-3.5c-2.12-.07-1.46,3.92-3.5,3-1.93-.87-.88-3.86-3-3-1.92.77-.81,3.31-4.5,0,.8,4.3-5.51,2.51-6,3-.19.19.19,1.81,0,2-.35.35-2.78-1.26-2,2.5.08.39,1,.67,1,1,0,.2-1.7,1.84-2,1.5s.8-2.38-1-2l-1,4c-1.69-1.08-5.56-1.53-7.5-1-.55.15-1.6,2-2,2-.18,0-2.37-1.65-3-2-.38-.21-2.16-.28-2.5-1.5-.42-1.53-.17-2-1-4-.22-.54.17-1.32,0-1.5-.14-.15-3.86-.85-4-1-.16-.17.49-3.41-1.5-4-1.08-.32-3.42.7-2.5-1.5.63-1.51,1.35-3.91,2-5,.78-1.31,4.44-3.79,5.5-3.5.4.11.62.91,1,1,1.4.31,6.13-.37,6.5,0,.22.22-.23,1.8,0,2.5.92,2.78,3.01,4.49,4,8,.19.68,3.28,3.31,4,2.5.91-1.02-1.5-4.03-1-5.5-.75-1.96-3.82-1.32-4-1.5-.82-.82.85-2.15,1-2.5.23-.54-.18-1.32,0-1.5.19-.19,1.81.19,2,0,.31-.31,2.69-7.69,3-8,.19-.19,1.03.26,1.5,0,.37-.2,2.45-2.33,2.5-2.5.36-1.32-.9-1.59-1-2-1.07-4.56.67-2.96,2.5-3.5,1.55-.46,2.15-4.95,4-6,.47-.27,1.31.19,1.5,0,.23-.23.18-5.68,0-6.5-.64-2.87-.19-7.59,1-11,.09-.27,1.82-1.71,1-2.5-.24-.23-2.05.55-2-.5l2-3,1-3.5c1.8-.38.7,1.66,1,2,.28.31,1.21-.52,1.5-1,.58-.96-1.18-2.26-.5-3,.56-.6,3.02.9,3,1.5,0,.34-.93.62-1,1-.16.95.22,2.18,0,3-.46,1.69-1.35,3.65-2,6-.23.84-2.76,1.5-2,4,.12.41.93.63,1,1,.21,1.12-.27,4.22,0,4.5.77.78,5.67-1.36,6-2.5.39-1.37.45-1.68,1-3,.22-.54-.17-1.33,0-1.5s.96.23,1.5,0c.42-.18.63-.9,1-1,1.35-.37,1.61.94,2.5,1.5.94.6,2.25-1.19,3-.5,1.77,1.64-4,3.73-4,4.5,0,.33.93.62,1,1,.16.94-.18,2.1,0,3,.08.39.93.62,1,1,.21,1.15-.29,4.14,0,4.5.41.5,1.25-1,1.5-1,.34,0,.61.93,1,1,4.28.75,2.89-.4,3.5-1.5.38-.69,1.86-1.5,2-2,.29-1.07-.32-4.18,0-4.5.13-.13,2.53.13,3-1.5.57-1.99-.95-2.71-1-3-.27-1.5.35-3.67,0-5-.24-.91-3.16-1.61-1-3-.98-1.08-2.44,2.16-3,1.5-.36-.42.25-4.73,0-6-1.79-.18-1.98,3.32-2.5,3-3.12-1.9.64-4.68-.5-6-.42-.49-1.79,1.92-2,.5.23-4.18-2.93-5.17-5.5-7.5-2.01-.57-2.83,1-3,1-.11,0-1.5-1.39-1.5-1.5,0-.07.41-.21.5-.5.56-1.77.62-3.2.5-5-1.98-.32-.59,2.54-1,3s-1.21-1.38-2.5-1c-.77.22-1.63.63-3,1-.31.08-1.82,1.87-2.5-.5-1.41-4.91-2.42-2.54-4-5-.17-.26-.51-2.5-1.5-2.5-1.2,0-2,4.44-2.5,5.5-.43.9-1.67,2.97-2.5,3.5-.22.14-.72-.15-1,0-.69.38-3.26,2.26-3.5,2-.3-.33.8-2.38-1-2,1.05,2.8-2.5,1.68-3,3.5-.47,1.69-.24,5.79-1,7.5,1.42-1.42,3.51,1.24.5,3-.77.45-.65-2.85-.5-3-.05.11-1.39.52-2,1.5-1.39,2.24,0,2.81,0,3,.01.39-2.67,1.48-2,4,.56,2.08,2.31.73,3.5.5,1.03-1.27,4.57-4.41,6-4,.53.15,3.1,1.87,3.5,2.5,1.05,1.66.62,3.6,1,5,.47,1.69,2.61,1.24,3.5,1.5.69.2,3.5,4.14,3.5,4.5,0,.22-1.87,3.1-2.5,3.5-.1.07-1.89.96-2,1-.7.23-2.27-.22-2.5,0s.55,2.05-.5,2c-.99-.72-3.5-4.02-3.5-4.5,0-.41,2.71-1.53,2-4-.51-1.79-2.9-1.23-3.5-1.5s-2.82-2-3-2c-.3,0-3.33,3.48-5,3-.17-.05-2.45-2.33-2.5-2.5-.59-1.98,1.01-2.84,1-3-.08-1.55-2.01,1.36-2.5,1.5-2,.57-2.83-1-3-1-1.3-.03-1.38,2.89-1.5,3-.16.15-1.67.38-2-.5-1.9-5.1-2.42-.17-5,2,.23,2.45-2.14,4.54-3.5,6.5-.42.61-2.44,2.13-1.5,3,.32.29,3.07.07,4-.5,3.01-1.84,2.44-.99,5.5-1.5.38-.06.67-1,1-1,.43,0,1.47,2.12,2.5,2-.65-4.69.97-2.3,3.5-3,.63-.17,1.4-2.08,2.5-2-.92,5.52,2.02.99,3,2,.11.11.39,2.84-.5,3-.6.11-1.37-.13-1.5,0-.8.8,1.62,3.59,2,4.5.23.54-.17,1.33,0,1.5.25.25,2.75-.25,3,0s-.25,2.75,0,3,2.75-.25,3,0c.19.19.14,4.58,0,5.5-.06.37-.91.6-1,1-.39,1.7.36,5.64-3.5,4.5-1.98-.59-1.34-3.84-1.5-4-.3-.3-3.7.3-4,0-1.02-1.02,1.26-6.74,1-7-.19-.19-1.81.19-2,0-.75-.75,1.7-2.42-1.5-3-1.09-.2-.24-1.74-.5-2-2.6-2.6-1.8,3.8-2,4s-1.81-.19-2,0c1.09-1.09-.91-3.09-2-2s.91,3.09,2,2c-.17.17.22.96,0,1.5-.18.43-.94.65-1,1-.33,1.82.97,5.49-1.5,4.5-.44-.18-.69-1-1-1-.18,0-2.28,2.11-2.5,2.5-.26.47.19,1.31,0,1.5-.18.18-2.91-.68-2,1.5.18.43.94.65,1,1,.48,2.7.19,4.01,1,7,.2.74-.21,2.29,0,2.5.25.25,2.68-.26,3,0,.5.41-1,1.25-1,1.5,0,.34,1,.66,1,1,0,.73-2.91,3.7-3,4-.37,1.29,1.48,2.09,1,2.5-.23.19-1.81-.19-2,0-.27.27.2,3.39,0,4.5-.4,2.19-1.72,5.32-2,7-.15.89-.19,5.3,0,5.5,1,1.06,4-3.06,5-2,.61.64-1.67,3.87,2.5,3,.39-.08.67-1,1-1,.25,0,1.09,1.5,1.5,1,.28-.35-.25-2.58,0-3.5.14-.53,2.81-2.19,3.5-2.5.51-.23,1.34.19,2,0,1.13-.32,1.01-2.49,5-2,1.62.2-.81,2.41,0,3,1.47-.54,1.24-2.92,2-3,.68-.07,1.4.13,2,0,.4-.09.67-1,1-1s.67,1,1,1c.67,0-.26-1.36,3,0,2.18.91,1.32-1.82,1.5-2,1.07-1.07,4.27,1.2,5,2.5.26.47-.19,1.31,0,1.5.23.23,2.55-.17,3.5,0,.39.07.67,1,1,1s.59-.89,1-1c.63-.17,1.39.17,2,0,.81-.23,2.05-2.36,1.5-3-.45-.52-1.38,1.66-2,.5,1.63-1.43.42-3.16,2.5-4.5,1.48.15,5.55-3,6-3,.33,0,.67,1,1,1s.67-1,1-1c.51,0,2.27,3,3.5,3l-1-5c1.25.78,4.52,3.44,5,4.5,1.06,2.31-2.46.7-2,2.5l4-1,.5-5,2.5,4,.5-3c-.93-.45-.31-1.78-.5-2-.41-.46-3.89,1.35-3-2l3,1.5c3.75,4.88,4.26,1.06,7.5-1.5.2-.16.78.17,1,0,3.46-2.62,2.25-5.75,2.5-6,.19-.19,1.03.26,1.5,0,2.62-1.46,3.22-5.43,8-4,.67-1.57,3.26-.75,3.5-1,1.11-1.15-.13-4.85-3-2l-1-5c1.75-.54.57,2.63,1.5,2,3.01-2.03.5-3.21.5-3.5,0-.25,1.5-1.09,1-1.5-.14-.11-3-.19-3-1.5,0-.23,2.38-2.64-.5-3.5-4.44-1.32-.8,2.22-1.5,3-.24.27-2.27-1.75-3-1-.11.11-.39,2.78.5,3,1.14.28,3.34.37,1.5,2-1.36,1.21-3.81-1.45-5-2-.02,3.2-1.35,2.84,0,5.5.86,1.7-1.62,1.95-2,1.5-.28-.33.19-3.35,0-4.5-.03-.18-2.02-2.36-1-3.5.29-.33,1.76,1.57,3,1ZM32.11,52c-.22-.17-.98.23-1.5,0-.57-.25-2.62-2.26-1.5.5s3.53-.07,3-.5ZM52.11,60c-1.31-.34-2.01-1.67-3-2.5-.05-1.05,1.78-.27,2-.5.96-.98-1.08-2.33-1.5-3-.83-1.34.03-2.65-1-3-2.81,1.36-.34,3.86-.5,4-.31.26-2.75-.25-3,0-.13.13.34,1.95-1.5,3-.46.26-1.28-.18-1.5,0-.26.22,1.5,1.73,1,3.5-.31,1.08-5.42,3.29-6.5,4.5-3.44-.41-2.02.36-2.5,1.5-.78,1.86-3.11,3.31-3,5.5-.73-.07-1.78.47-2-.5-.58-2.55,1.83-.83,2-2,.38-2.59-1.36-1.03-2-1.5-.14-.1,2.06-2.38-1-3,.99,5.47-1.48,3.48-2,4-.55.55,1.09,3.13,1.5,4l-.5,3,3-2-1,6,3-2,1,4c2.91.93,1.65-1.65,2-2,2.13-2.13,1.86,1.86,2,2,.71.71,5.31-1.71,4,2.5l1.5,2.5c3.32-2.02,1.96-3.9,2.5-6.5.25-1.23,2.23-5.35,3-7,1.43-3.08,1.21-1.77,2.5-2.5,2.05-1.15,2.9-5.33,2.5-7.5-.18-.98-1.12-1.74-1-4.5.6.16,1.84-.16,2,0,.48.48-.69,5.07.5,6l-.5,3c.85-.85,2.89-.89,3-1,.84-.88-1.11-.55,1.5-2,.39-.22,2.5-2.32,2.5-2.5,0-.5-1.96-.76,0-2l-1-4.5c-3.15,1-.98,2.34-1,2.5-.23,1.51-2.13-1.5-2.5-1.5-.33,0-.58.88-1,1-1.62.46-3.31-3.44-3.5,1ZM7.11,55c.1-.12.1-2.88,0-3-1.31-1.57-1.31,4.57,0,3ZM12.11,54c.64-.76-.33-2.8-1-2-.64.76.33,2.8,1,2ZM16.61,52c-.65,0-.65,1,0,1s.65-1,0-1ZM55.11,54c.64-.76-.33-2.8-1-2-.64.76.33,2.8,1,2ZM24.11,55c.64-.76-.33-2.8-1-2-.64.76.33,2.8,1,2ZM41.11,56c.16-.2-.2-.94,0-1.5.13-.37,1.85-1.5.5-1.5-1.79,0-1.7,4.43-.5,3ZM128.61,53c-.65,0-.65,1,0,1s.65-1,0-1ZM58.61,54c-.65,0-.65,1,0,1s.65-1,0-1ZM62.61,54c-.65,0-.65,1,0,1s.65-1,0-1ZM9.61,55c-.65,0-.65,1,0,1s.65-1,0-1ZM12.11,59c.1-.12.1-2.88,0-3-1.31-1.57-1.31,4.57,0,3ZM172.61,56c-.65,0-.65,1,0,1s.65-1,0-1ZM7.11,60c.64-.76-.33-2.8-1-2-.64.76.33,2.8,1,2ZM13.11,63c.64-.76-.33-2.8-1-2-.64.76.33,2.8,1,2ZM22.61,61c-.65,0-.65,1,0,1s.65-1,0-1ZM26.61,61c-.65,0-.65,1,0,1s.65-1,0-1ZM10.11,62c-1.03-1.03-3.39.32-.5,2,.73.42.68-1.82.5-2ZM28.11,63c-1.09-1.09-3.09.91-2,2s3.09-.91,2-2ZM31.11,65c.64-.76-.33-2.8-1-2-.64.76.33,2.8,1,2ZM147.61,63c-.65,0-.65,1,0,1s.65-1,0-1ZM17.11,65c-.15-.15-3.45-.27-3,.5,1.76,3.01,4.42.92,3-.5ZM154.11,67c.64-.76-.33-2.8-1-2-.64.76.33,2.8,1,2ZM20.11,70c.16-.2-.2-.94,0-1.5.15-.43,1-.68,1-1,0-.21-1.72-1.84-2-1.5-.46.57-.05,5.26,1,4ZM12.11,70c.1-.12.1-2.88,0-3-1.31-1.57-1.31,4.57,0,3ZM24.11,71c.64-.76-.33-2.8-1-2-.64.76.33,2.8,1,2ZM143.61,69c-.65,0-.65,1,0,1s.65-1,0-1ZM4.61,70c-.65,0-.65,1,0,1s.65-1,0-1ZM21.11,74c.83-.83-1.54-3.57-2-3-.87,1.08.37,4.63,2,3ZM12.11,75c.64-.76-.33-2.8-1-2-.64.76.33,2.8,1,2ZM51.11,75c.64-.76-.33-2.8-1-2-.64.76.33,2.8,1,2ZM9.11,77c.64-.76-.33-2.8-1-2-.64.76.33,2.8,1,2ZM123.61,75c-.65,0-.65,1,0,1s.65-1,0-1ZM12.11,78c.64-.76-.33-2.8-1-2-.64.76.33,2.8,1,2ZM149.11,81c.41.51,3.75-2.1.5-4-.75-.44-.68,3.78-.5,4ZM11.11,82c.64-.76-.33-2.8-1-2-.64.76.33,2.8,1,2ZM23.11,84c.64-.76-.33-2.8-1-2-.64.76.33,2.8,1,2ZM29.11,84c-.09.18-3.35,1.62-2,3,.22.23,2.05-.55,2,.5-1.77,1.13-.66,3.25-1,5-.46,2.37-2.73,6.01-3,7-.23.82.19,2.08,0,3-.08.39-1.36.68-1,2s4.41,2.58,2,4l1,6.5,1-6c3.56-.97,1.38,3.38,2,4,.19.19,1.81-.19,2,0s-.19,1.81,0,2c.17.17.94-.2,1.5,0,.43.16.68,1,1,1,.18,0,2.4-1.55,3-2,1.06.96-1.33,1.86-1.5,2.5-.15.55-.11,3.36,0,3.5.41.5,1.25-1,1.5-1,1.99.02,1.2,4.4,1.5,5.5.23.85,3.74,3.12,4,4,.21.72-.21,2.29,0,2.5.53.53,5.19,1.24,7,4.5.26.47-.19,1.31,0,1.5.26.26,3.38-.19,4.5,0,.37.06.6.89,1,1,.74.2,2.29-.21,2.5,0,.18.18-.68,2.91,1.5,2,.56-.23.7-1.36,2-1,.25.07,2.93,2.46,4,3,.48.24,1.33-.19,2,0,.77.22,1.46,2.42,3,2,.41-.11.67-1,1-1,.25,0,.69,1.36,2,1,.63-.17,1.4-2.08,2.5-2-.28,2.02-.2,4.27,2,2.5v-7c-1.11-.73-1.22-3.12-2.5-3.5-1.16-.35-4.16,3.01-5,3-.25,0-3.5-3.25-3.5-3.5s2.68-2.89,3-4c.72-3.36-1.29-6.16-1-9.5-.85.85-2.89.89-3,1-.17.18.22.96,0,1.5-.18.43-.94.65-1,1-.29,1.64.2,3.76,0,5.5l-1-4c-2.04.03-1.88,2.87-2,3-.18.19-3.87-2.13-5-1-.49.49,1.33,5.09-2.5,2-3.1-2.51-.08-3.02-.5-4.5-2.07-2.33-4.66-5.07-4-8.5,3.01.5,1.59,4.52,2,5,.26.31,2.89-2.09,3-2.5.68-2.46-1-3.78-1-4,0-.12.62-.94,1-2,.4-1.11,1.72-.23,2-.5,2.11-1.98-4.79-4.21-6-3-.41.41,1.31,2.9-3,2-.05,1.12,1.71,1.78,2,2.5.8,2.02-1.14,1.29-1.5,1.5-2.45,1.39-1.15,4.64-1.5,5-.57.6-3.59-.28-4-1.5-.96-2.87.87-2.78,3-2.5-.77-3.36-3.16-.32-4-1-.57-.47,1.86-2,2-2.5.22-.8.16-4.02,0-5-.06-.38-.99-.66-1-1,0-.11.61-.88,1-2,.48-1.37,1.51,1.05,2,.5.58-.65-2.55-6.25-2-7l3,2c-.84-2.28,1.49-4.81,1-6.5-.53-1.85-3.58-1.03-4.5-2.5-1.68,2.3-2.29.2-3,0s-2.29.21-2.5,0c-.25-.25.96-3.9-2.5-6-.22-.13-.71.15-1,0-1.82-.91-.99-1.44-3.5,0,.1-.11.11-2.89,0-3-2.1-2.1-1.82,1.64-2,2ZM19.11,86c.1-.12.1-2.88,0-3-1.31-1.57-1.31,4.57,0,3ZM10.11,88c.49-.4-.81-1.07-1-1.5-.23-.53.17-1.29,0-1.5-1.3-1.55-1.73,5.24,1,3ZM67.61,85c-.65,0-.65,1,0,1s.65-1,0-1ZM24.61,87c-.65,0-.65,1,0,1s.65-1,0-1ZM150.61,87c-.65,0-.65,1,0,1s.65-1,0-1ZM153.11,90c.64-.76-.33-2.8-1-2-.64.76.33,2.8,1,2ZM48.11,89c-.76-.64-2.8.33-2,1,.76.64,2.8-.33,2-1ZM17.11,99c.48-2.37,1.67-5.01,1-7.5-.22-.83-2.49-2.06-3-1.5-.36.39.25,5.19,0,6.5l2,2.5ZM54.61,90c-.65,0-.65,1,0,1s.65-1,0-1ZM152.61,91c-.65,0-.65,1,0,1s.65-1,0-1ZM153.11,96c-.28-.26.79-2.4-1-2-.35,6.1.27,3,1.5,3,1.84,0,.75,4.33,2.5,4v-7c-1.79-.4-.72,1.74-1,2-.07.07-1.93.07-2,0ZM10.11,95c-.76-.64-2.8.33-2,1,.76.64,2.8-.33,2-1ZM25.11,97c.64-.76-.33-2.8-1-2-.64.76.33,2.8,1,2ZM10.61,97c-.65,0-.65,1,0,1s.65-1,0-1ZM163.11,103l-4-6c-.67,2.44.73,2.71,1.5,4,.46.76.85,3.66,2.5,2ZM22.61,98c-.65,0-.65,1,0,1s.65-1,0-1ZM128.11,98c-.71-.71-5.68,2.35-6,3.5-.39,1.42-.48,2.38-1,4-.27.83.21,3.03-1.5,3.5-1.94.53-4.56-1.31-3.5,2.5.11.41.94.63,1,1,.2,1.3-.3,5.15,0,5.5.19.22,2.31-1.72,3.5-1,1.12-1.48,7.63-4.42,9-4,.84.26,1.67,1.64,4,1,1.31-.36,1.91-3.34,2.5-4.5,1.59-3.15,0-2.3,0-3,0-.18,1.92-2.64,2-3,.28-1.28-.18-3.09,0-4.5-1.62.23-3.52,3.73-4.5,4-1.05.29-2.58-1.73-4.5-1l-1-4ZM152.11,99c-.07-.07-1.93-.07-2,0-.2.2-.48,4.86,1,4-.45-1.2,1.7-3.32,1-4ZM17.61,100c-.65,0-.65,1,0,1s.65-1,0-1ZM16.11,103c.64-.76-.33-2.8-1-2-.64.76.33,2.8,1,2ZM154.61,102c-.65,0-.65,1,0,1s.65-1,0-1ZM158.61,102c-.65,0-.65,1,0,1s.65-1,0-1ZM81.11,104c-.94,1.13,2,3.93,2,2.5,0-.32-.85-.57-1-1-.1-.27-.1-2.57-1-1.5ZM17.11,109c.7-.85-1.49-2.75-1-4-2.81-.12.26,4.89,1,4ZM21.11,109c.5-.41-.91-1.13-1-1.5-.22-.86.4-3.03-.5-2.5-2.46,1.44-.74,1.84-.5,2.5s.02,3.12,2,1.5ZM11.11,112c1.55-1.81-2.32-6.83-3-6-.32.39-.24,3.95,1,4.5-.78,1.77,1.62,1.94,2,1.5ZM149.11,108c-1.09-1.09-3.09.91-2,2s3.09-.91,2-2ZM25.11,111c.64-.76-.33-2.8-1-2-.64.76.33,2.8,1,2ZM80.61,110c-.65,0-.65,1,0,1s.65-1,0-1ZM149.11,112c-1.03-1.03-3.39.32-.5,2,.73.42.68-1.82.5-2ZM173.61,114c-.65,0-.65,1,0,1s.65-1,0-1ZM19.61,116c-.65,0-.65,1,0,1s.65-1,0-1ZM30.61,117c-.65,0-.65,1,0,1s.65-1,0-1ZM8.61,118c-.11,0-1.5,1.39-1.5,1.5,0,1.42,2.92-1.5,1.5-1.5ZM17.11,123c.19-.19,1.02.26,1.5,0,2.12-1.14,2.08-3.62,0-5-1.13.79-.05,2.45-1,4-.62,1.01-1.83,2.31-2.5,3.5,1.14,1.56,2,.84,2-1,0-.55-.08-1.42,0-1.5ZM24.61,121c-.65,0-.65,1,0,1s.65-1,0-1ZM64.11,123l-2-2c-.26,2.11-.11,2.26,2,2ZM9.11,125c-.76-.64-2.8.33-2,1,.76.64,2.8-.33,2-1ZM22.11,125c-.74-.74-4.6.1-3,2,.39.46,1.61-1.46,2-1,.1.11-.05,3.25,1,2,.1-.12.11-2.89,0-3ZM180.11,127c.64-.76-.33-2.8-1-2-.64.76.33,2.8,1,2ZM11.11,128c.64-.76-.33-2.8-1-2-.64.76.33,2.8,1,2ZM13.61,128c-.65,0-.65,1,0,1s.65-1,0-1ZM172.11,130c.64-.76-.33-2.8-1-2-.64.76.33,2.8,1,2ZM12.11,129c-2.11-.26-2.26-.11-2,2l2-2ZM28.11,129c-1.02-1.02-4.02,1.98-3,3s4.02-1.98,3-3ZM76.61,129c-.65,0-.65,1,0,1s.65-1,0-1ZM16.11,135c.82,1.01,3.1-3.68,2-5-.91-1.09-.92,1.29-1,1.5-.24.59-1.96,2.31-1,3.5ZM23.11,135c.54-.54-.17-5-1.5-5-.11,0-1.5,1.39-1.5,1.5,0,.33.92.61,1,1,.19.89-.13,4.63,2,2.5ZM27.11,147c-1.02-1.59-1.41-3.68-1-5.5.14-.62,2.31-1.33,0-3l-1-5.5c.87,3.08-2.76,3.91-2,6.5.13.46,1.91,2.62,2,3,.43,1.87-1.44,5.22,2,4.5ZM34.61,134c-.65,0-.65,1,0,1s.65-1,0-1ZM14.11,139c.2-.25-.16-1.73,0-2.5.05-.26,1.85-1.5.5-1.5-.18,0-2.5,2.32-2.5,2.5,0,.21,1.72,1.84,2,1.5ZM180.61,135c-.65,0-.65,1,0,1s.65-1,0-1ZM30.61,136c-.65,0-.65,1,0,1s.65-1,0-1ZM21.61,137c-.65,0-.65,1,0,1s.65-1,0-1ZM37.61,138c-.65,0-.65,1,0,1s.65-1,0-1ZM56.61,139c-.65,0-.65,1,0,1s.65-1,0-1ZM33.61,140c-.65,0-.65,1,0,1s.65-1,0-1ZM143.61,140c-.65,0-.65,1,0,1s.65-1,0-1ZM160.61,141c-.65,0-.65,1,0,1s.65-1,0-1ZM32.61,143c-.65,0-.65,1,0,1s.65-1,0-1ZM50.11,143c-.76-.64-2.8.33-2,1,.76.64,2.8-.33,2-1ZM18.11,144c-2.73-.39-1.94.44-2,2.5-.16,5.65,1.24,2.74,2,3.5.82.82-2,4.24-2,4.5,0,.34.94.62,1,1,.25,1.51-.35,3.71,0,5,.15.55,1.83,1.44,2,2,.58,1.97-1.96,3.27-.5,4.5,1.57-1.06,1.91-2.79,1.5-4.5-.09-.39-.89-.6-1-1-1.1-4.1,1.43-8.91-1-13v-4.5ZM53.11,147c.64-.76-.33-2.8-1-2-.64.76.33,2.8,1,2ZM10.11,150c.13-.15.13-3.85,0-4-1.37-1.64-1.37,5.64,0,4ZM23.61,146c-.65,0-.65,1,0,1s.65-1,0-1ZM135.11,146c-1.03-1.03-3.39.32-.5,2,.73.42.68-1.82.5-2ZM107.61,148c-.65,0-.65,1,0,1s.65-1,0-1ZM136.11,152c.41.51,3.75-2.1.5-4-.75-.44-.68,3.78-.5,4ZM168.61,148c-.65,0-.65,1,0,1s.65-1,0-1ZM28.11,150l-4-1,2,1.5c-.77,1.63,2.7,7.34-.5,4.5-2.33,2.92,2.17,1.67,2.5,2,.43.43-.85,4.96,2,5-.36-3.18,0-4.65,2-7-4.37.47-2.39-.38-3-2.5-.11-.38-.82-.58-1-1-.22-.54.17-1.32,0-1.5ZM133.11,153c.14-.14.13-3.85,0-4-1.08-1.29-.84,1.89-1,2.5-.09.37-1.5,1.09-1,1.5.08.07,1.93.07,2,0ZM151.11,151c.64-.76-.33-2.8-1-2-.64.76.33,2.8,1,2ZM32.11,150c-2.73-2.24-2.3,4.55-1,3,.17-.21-.23-.97,0-1.5.19-.43,1.49-1.1,1-1.5ZM34.11,152c.64-.76-.33-2.8-1-2-.64.76.33,2.8,1,2ZM115.61,150c-.65,0-.65,1,0,1s.65-1,0-1ZM24.61,151c-.65,0-.65,1,0,1s.65-1,0-1ZM59.61,151c-.65,0-.65,1,0,1s.65-1,0-1ZM12.61,153c-.65,0-.65,1,0,1s.65-1,0-1ZM34.11,155c.64-.76-.33-2.8-1-2-.64.76.33,2.8,1,2ZM80.61,153c-.65,0-.65,1,0,1s.65-1,0-1ZM9.11,157c.1-.12.1-2.88,0-3-1.31-1.57-1.31,4.57,0,3ZM55.11,156c.64-.76-.33-2.8-1-2-.64.76.33,2.8,1,2ZM88.61,154c-.65,0-.65,1,0,1s.65-1,0-1ZM23.11,159c1.04-1.29-1.41-4.73-2-4-1.04,1.29,1.41,4.73,2,4ZM62.11,157c.64-.76-.33-2.8-1-2-.64.76.33,2.8,1,2ZM106.11,155c-.76-.64-2.8.33-2,1,.76.64,2.8-.33,2-1ZM42.61,156c-.65,0-.65,1,0,1s.65-1,0-1ZM78.61,156c-.65,0-.65,1,0,1s.65-1,0-1ZM119.11,156c-.76-.64-2.8.33-2,1,.76.64,2.8-.33,2-1ZM141.61,156c-.65,0-.65,1,0,1s.65-1,0-1ZM153.61,156c-.65,0-.65,1,0,1s.65-1,0-1ZM10.11,160c.42.52,2.81-2,2-3-.42-.52-2.81,2-2,3ZM82.11,159c.64-.76-.33-2.8-1-2-.64.76.33,2.8,1,2ZM138.61,157c-.65,0-.65,1,0,1s.65-1,0-1ZM34.11,171c-.18-4.18-1.53-4.41-2-6.5-.51-2.31.75-3.34,1-5,.32-2.09-1.59-1.98-2-1.5-.44.52.42,6.58,0,7-.13.13-2.31-.24-3,1.5-.88,2.21,1.81,1.31,2,1.5.16.16-.2,4,1.5,4,.15,0,.6-.85,2.5-1,.03.66-.11,1.89,0,2,1.41,1.41,4.24-2.34,0-2ZM112.61,158c-.65,0-.65,1,0,1s.65-1,0-1ZM166.61,158c-.65,0-.65,1,0,1s.65-1,0-1ZM39.11,162c.1-.12.1-2.88,0-3-1.31-1.57-1.31,4.57,0,3ZM50.61,159c-.65,0-.65,1,0,1s.65-1,0-1ZM71.61,159c-.65,0-.65,1,0,1s.65-1,0-1ZM61.61,160c-.65,0-.65,1,0,1s.65-1,0-1ZM88.61,160c-.65,0-.65,1,0,1s.65-1,0-1ZM94.11,162c.64-.76-.33-2.8-1-2-.64.76.33,2.8,1,2ZM56.61,161c-.65,0-.65,1,0,1s.65-1,0-1ZM45.11,164c.64-.76-.33-2.8-1-2-.64.76.33,2.8,1,2ZM114.61,162c-.65,0-.65,1,0,1s.65-1,0-1ZM172.11,162c-.76-.64-2.8.33-2,1,.76.64,2.8-.33,2-1ZM109.11,163c-1.09-1.09-3.09.91-2,2,.17.17.94-.2,1.5,0,.43.16.68,1,1,1,1.35,0-.36-1.12-.5-1.5-.2-.56.17-1.33,0-1.5ZM155.61,163c-.65,0-.65,1,0,1s.65-1,0-1ZM25.11,166c.64-.76-.33-2.8-1-2-.64.76.33,2.8,1,2ZM88.11,164c-1.09-1.09-3.09.91-2,2s3.09-.91,2-2ZM15.11,167c.64-.76-.33-2.8-1-2-.64.76.33,2.8,1,2ZM23.11,169c.49-.4-.81-1.07-1-1.5-.23-.53.17-1.29,0-1.5-1.3-1.55-1.73,5.24,1,3ZM67.61,166c-.65,0-.65,1,0,1s.65-1,0-1ZM125.11,170c.2-.17-2.33-4.81-3-4-.7.85,1.49,2.75,1,4,.63-.08,1.83.14,2,0ZM60.11,170c.1-.12.1-2.88,0-3-1.31-1.57-1.31,4.57,0,3ZM70.11,169c.64-.76-.33-2.8-1-2-.64.76.33,2.8,1,2ZM73.61,167c-.65,0-.65,1,0,1s.65-1,0-1ZM89.11,169c.64-.76-.33-2.8-1-2-.64.76.33,2.8,1,2ZM35.61,168c-.65,0-.65,1,0,1s.65-1,0-1ZM104.11,170c.64-.76-.33-2.8-1-2-.64.76.33,2.8,1,2ZM121.11,170c.64-.76-.33-2.8-1-2-.64.76.33,2.8,1,2ZM161.61,168c-.65,0-.65,1,0,1s.65-1,0-1ZM11.61,169c-.65,0-.65,1,0,1s.65-1,0-1ZM80.61,169c-.65,0-.65,1,0,1s.65-1,0-1ZM20.11,172c.64-.76-.33-2.8-1-2-.64.76.33,2.8,1,2ZM62.61,170c-.65,0-.65,1,0,1s.65-1,0-1ZM69.11,170c-.76-.64-2.8.33-2,1,.76.64,2.8-.33,2-1ZM90.11,172c.64-.76-.33-2.8-1-2-.64.76.33,2.8,1,2ZM45.61,171c-.65,0-.65,1,0,1s.65-1,0-1ZM83.11,174c.42.52,2.81-2,2-3-.42-.52-2.81,2-2,3ZM7.11,172c-.07-.07-1.92-.07-2,0-.49.4.81,1.07,1,1.5.08.18.09,2.59,1,1.5.1-.12.11-2.89,0-3ZM16.61,172c-.65,0-.65,1,0,1s.65-1,0-1ZM71.11,179c.31-.36.25-3.96-1-4.5l-1-2.5c.06,1.82-.09,3.67,0,5.5.08,1.62.84,2.86,2,1.5ZM78.61,172c-.65,0-.65,1,0,1s.65-1,0-1ZM179.11,172c-.76-.64-2.8.33-2,1,.76.64,2.8-.33,2-1ZM13.61,173c-.65,0-.65,1,0,1s.65-1,0-1ZM23.11,175c.64-.76-.33-2.8-1-2-.64.76.33,2.8,1,2ZM31.11,177c.13-.15.13-3.85,0-4-1.37-1.64-1.37,5.64,0,4ZM65.11,173c-1.09-1.09-3.09.91-2,2s3.09-.91,2-2ZM12.11,174c-.07-.07-1.93-.07-2,0-.82.82.95,2.31,1,2.5.36,1.29-1.48,2.11-1,2.5,2.53,2.08,2.41-4.59,2-5ZM27.11,174c-.07-.07-1.93-.07-2,0-.2.2-.48,4.86,1,4-.45-1.2,1.7-3.32,1-4ZM93.11,176c1.03-1.03-.32-3.39-2-.5-.42.73,1.82.68,2,.5ZM3.61,175c-.65,0-.65,1,0,1s.65-1,0-1ZM171.11,175c-1.03-1.03-3.39.32-.5,2,.73.42.68-1.82.5-2ZM41.61,177c-.65,0-.65,1,0,1s.65-1,0-1ZM3.11,180c.64-.76-.33-2.8-1-2-.64.76.33,2.8,1,2ZM65.61,178c-.65,0-.65,1,0,1s.65-1,0-1ZM85.11,180c.64-.76-.33-2.8-1-2-.64.76.33,2.8,1,2ZM25.61,179c-.65,0-.65,1,0,1s.65-1,0-1ZM90.11,183c.41.51,3.75-2.1.5-4-.75-.44-.68,3.78-.5,4ZM87.61,180c-.65,0-.65,1,0,1s.65-1,0-1ZM129.11,180c-.76-.64-2.8.33-2,1,.76.64,2.8-.33,2-1ZM80.11,183c.64-.76-.33-2.8-1-2-.64.76.33,2.8,1,2ZM106.61,182c-.65,0-.65,1,0,1s.65-1,0-1ZM124.61,183c-.65,0-.65,1,0,1s.65-1,0-1Z"/>
      <path d="M31.11,85s.2.74-.5,1c-1.63.62-2.13-1.25-1.5-2,.39-.46,1.61,1.46,2,1Z"/>
      <path d="M1.11,105c-1.11-1.37,1.19-6,2-5,1.11,1.37-1.19,6-2,5Z"/>
      <path d="M5.11,115c1.09,1.09-.91,3.09-2,2s.91-3.09,2-2Z"/>
      <path d="M3.11,138c-.67.8-1.64-1.24-1-2,.67-.8,1.64,1.24,1,2Z"/>
      <path d="M2.61,77c.65,0,.65,1,0,1s-.65-1,0-1Z"/>
      <path d="M3.61,146c.65,0,.65,1,0,1s-.65-1,0-1Z"/>
      <path d="M4.61,149c.65,0,.65,1,0,1s-.65-1,0-1Z"/>
      <path d="M.61,34c.65,0,.65,1,0,1s-.65-1,0-1Z"/>
      <path d="M182.61,10c.65,0,.65,1,0,1s-.65-1,0-1Z"/>
      <path d="M50.61,0c.65,0,.65,1,0,1s-.65-1,0-1Z"/>
      <polygon points="116.11 68 115.11 73.5 113.61 76 114.11 70.5 116.11 68"/>
      <path d="M120.11,61c-.24,1.03.61,3.6-.5,4-.87.32-3.08,1.36-3.5,1-.5-.42,1.48-5.84,4-5Z"/>
      <path d="M92.11,114c-2.88-.9-2.8-5.31-.5-7v3l.5,4Z"/>
      <path d="M86.11,113c-1.31,1.57-1.31-4.57,0-3,.1.12.1,2.88,0,3Z"/>
      <path d="M121.11,79l-2,2c-.26-2.11-.11-2.26,2-2Z"/>
      <path d="M126.11,62c-.67.8-1.64-1.24-1-2,.67-.8,1.64,1.24,1,2Z"/>
      <path d="M123.11,65c-.67.8-1.64-1.24-1-2,.67-.8,1.64,1.24,1,2Z"/>
      <path d="M121.11,73c-.67.8-1.64-1.24-1-2,.67-.8,1.64,1.24,1,2Z"/>
      <path d="M104.11,94c-.67.8-1.64-1.24-1-2,.67-.8,1.64,1.24,1,2Z"/>
      <path d="M113.61,95c.65,0,.65,1,0,1s-.65-1,0-1Z"/>
      <path d="M122.61,132c.65,0,.65,1,0,1s-.65-1,0-1Z"/>
      <path d="M85.61,85c.65,0,.65,1,0,1s-.65-1,0-1Z"/>
      <path d="M83.61,140c.65,0,.65,1,0,1s-.65-1,0-1Z"/>
      <path d="M127.61,66c.65,0,.65,1,0,1s-.65-1,0-1Z"/>
      <path d="M73.11,56c.83.83-1.54,3.57-2,3-.87-1.08.37-4.63,2-3Z"/>
      <path d="M45.11,95c.89,3.34-2.6,1.54-3,2-.29.33.21,3.36,0,4.5-.06.35-.82.57-1,1-.22.54.17,1.33,0,1.5-.42.42-4.1-.02-3,4-1.46-.73-4.4,1.59-5,1-.71-.7.27-2.55,1-3.5,1.1-1.42,5.75-5.16,6-6,.28-.94-.52-2.15,1-3l-1-3.5c1.52-.26.74.79,1.5,2,1.15,1.82,1.83-.47,3.5,0Z"/>
      <path d="M41.11,108c-.07.07-1.92.07-2,0-.49-.4.81-1.07,1-1.5.08-.18.09-2.59,1-1.5.1.12.11,2.89,0,3Z"/>
      <path d="M35.11,89c-.67.8-1.64-1.24-1-2,.67-.8,1.64,1.24,1,2Z"/>
      <path d="M37.11,98c-.67.8-1.64-1.24-1-2,.67-.8,1.64,1.24,1,2Z"/>
      <path d="M28.61,103c.65,0,.65,1,0,1s-.65-1,0-1Z"/>
      <polygon points="65.11 81 64.11 77.5 66.11 74 65.11 81"/>
      <path d="M66.61,81c.65,0,.65,1,0,1s-.65-1,0-1Z"/>
      <path d="M67.61,66c.65,0,.65,1,0,1s-.65-1,0-1Z"/>
      <path d="M50.61,67c.65,0,.65,1,0,1s-.65-1,0-1Z"/>
      <path d="M58.61,62c.65,0,.65,1,0,1s-.65-1,0-1Z"/>
    </g>
  </g>
</svg>