<?xml version="1.0" encoding="UTF-8"?>
<svg id="Layer_2" data-name="Layer 2" xmlns="http://www.w3.org/2000/svg" viewBox="0 0 169.06 182.14">
  <g id="Layer_1-2" data-name="Layer 1">
    <g id="Element">
      <path d="M136.03,103.12c-.49.08-1.07-.17-1.5,0-.3.12-4.4,4.2-4.5,4.5-.44,1.39,3.05,3.82,4,5,.16.2-.17.79,0,1,1.49,1.93,4.95,3.29,1.5,5.5-1.07.69-3.94,1.31-5,2-3.16,2.04.9,4.17-1,7-.48.33.41,2.36.5,2.5.96,1.5,2.85,1.96,4.5,1.5.98-.27,2.14-3.9,4-5,.22-.13.69.14,1,0,1.22-.55,1.72-1.51,4-1,.35.08,2.66,1.93,3,2,2.5.54,6-.09,8,2,2.42.23,4.76,1.17,7,2,1.81.67-.71,4.63-2,5-2.19.63-3.02.98-5,2-1.12.58-4.23,2.83-5,3-1.96.42-4.86-.31-7,0-.4.06-1.52,1.58-4,1s-3.75-.48-6-1c-2.55-.59-5.05,1.77-8,1-.73,1.6-4.18,2.33-4.5,3.5-.22.8-.16,4.02,0,5,.32,1.93.22,3.42,1,6,.6,1.97-1,2.83-1,3s2.32,2.49,2.5,2.5c.16,0,1.58-1.74,3-1,2.56-3.45,4.4-3.38,8-4,.38-.07.67-1,1-1s.67,1,1,1,.62-.94,1-1c1.28-.21,4.74-.22,6,0,3.53.63,3.5,3.01,8,2,3.33-.75,6.61.49,5.5,4.5-.51,1.83-3.59,1.03-4.5,2.5-1.69-.66-2.51.85-3,1-1.72.52-4.55-1.6-6-2-1.01-.28-8.87,5.01-11,6-4.02,1.86-6.82,1.12-10,2-.55.15-1.45,1.85-2,2-.92.25-3.17-.28-3.5,0-.47.4,3.06,2.91,2,4-.14.14-2.93.27-3.5,2-1.95-.79-4.09,1.25-5,1-1.53-.42-3.5-5.52-5.5-6.5,1.76-5.48-5.43-4.93-6-5.5-1.17-1.17,1.44-.68-3.5-3-2.56-1.2-6.57-3.83-7.5-5.5-.46-.83-13.9-8.83-15.5-9.5-2.33-.98-5.73-4.53-9-7-1.74-1.31-12.71-8.64-14-9s-3.56.31-5,0c-2.35-.51-9.46-5.58-11-6-1.45-.4-4.85.76-5.5-1.5-1.42-4.95-2.13-2.63-3-3.5-.47-.47-.74-6.74-1-7-.55-.55-.79,1.4-2-1.5-1.85-4.43-8.14-10.17-9-14-.23-1-.63-5.59,1.5-4.5,2.55,1.3,4.5,6.89,8.5,6,1.11-2.68-3-2.06-3-3.5,0-.39,1.85-1.45,2-2,.64-2.34-.79-5.56-.5-6.5.73-2.35-.51-2.3-.5-2.5.11-2.06,5.48-2.09,5,1l3,4.5c.45-1.2-1.7-3.32-1-4,.26-.26,2.68.27,3,0,.5-.41-1-1.25-1-1.5,0-.47,2.81-2.32,3-3,.31-1.13-1.59-3.01-2-4-1.23-3-1.36-6.05-2-9-.3-1.39-3.7-5.61-4-7s.32-3.57,0-5c-.6-2.7-2.74-2.68-2-7s-4.23-6.32-5-9c-.38-1.33,1.38-1.68,1-3-.16-.56-1.84-1.44-2-2-.59-2.04,2-4.62,2-5s-4.4-4.77-5-6c-.03-1.12-.79-6.22-1-6.5-.13-.17-3.79-.07-3-3,1,.13,3.05,3.03,4,2,.16-.17-.02-2.59,0-3.5.02-.85-.46-3.49,1.5-2.5s2.77,5.95,4.5,7.5l-3,2.5c3.37-.73,1.57,2.21,2,4.5.61,3.24,2.06,9.57,3,13,.27.99,3.46,2.32,3,4-.15.56-1,3.74-1,4,0,.32,1.6,1.35,2,2,.45.75.86,3.36,1,3.5.34.34,3.01-1.41,2,3.5-.08.38-.88.59-1,1-.76,2.5,1.77,3.16,2,4s-.23,2.15,0,3c.47,1.72,1.96-.27,1,4-.63,2.83.63,4.4,1,6,.21.89-.23,2.16,0,3s2.48,2.06,3,1.5c.27-.28-.61-1.6.5-2,3.82-1.37,1.66-1.51,1.5-2.5-.3-1.8.21-4.09,0-6l3,.5c.98-2.86-1.8-1.74-2-2-.17-.22.22-.97,0-1.5-.9-2.17-2.91-3.6-4-6-.2-.43-.92-.64-1-1-.75-3.26,1.45-4.42,3.5-6.5l1.5,2.5c.56,1.87-1.55,3.12-1,5,.12.41,2.72,2.8,3,2.5.24-.26-.61-4.66,3-4,.75,1.82-1.29,3.47-1,4.5.2.71,2.81,2.3,3,3s.18,4.18,0,5c-.08.37-.83.57-1,1-.87,2.19-3.43,5.58-3,7,.12.41.93.63,1,1,.34,1.88-.44,5.26-1,7-.13.4-1.48,1.06-1,1.5.13.12,2.56-.11,3,1.5.36,1.31-.86,1.53-1,2-.59,1.96.88,2.55,1,3,.86,3.07-.6,2.12-1.5,2.5-.69.29-3.72,2.79-4.5,2l-2-8c-1.2.45-3.31-1.7-4-1-.28.29-.07,3.06.5,4,1.15,1.87,2.17,2.4,1.5,5.5-.24,1.1-2.91,3.68-3,4-.28,1.04,2.53,5.2,2,7-.14.47-1.88,2.56-2,3-.35,1.3.77,1.44,1,2s-.18,1.32,0,1.5.96-.22,1.5,0c2.43,1.01,5.37,2.59,8,4,.69.37,1.49,1.86,2,2,1.07.3,2.82-.25,4,0,.34.07,2.66,1.93,3,2,1.31.28,8.71.29,10,0,1.78-.4,3.54-3.02,5-4,.19-.13,3.77-1.95,4-2,.71-.15,4.33-.15,4.5,0,.76.68-2.52,4.63-3,5.5-.54.97-1.95,2.82-2,3-.18.63.19,1.41,0,2-.13.41-.91.62-1,1-.91,3.89,1.85,3.94,3,6,.72,1.3-.57,1.07,2.5,2.5,2.31,1.08,6.01,2.68,8,4,1.14.76,4.51,4.98,5,5,.17,0,1.02-1.55,2.5-1v-4.5c-1.49-2.55-2.45.09-4.5-.5-2.96-.86-.42-3.96.5-5.5.16-.26-.14-.79,0-1,.61-.91,2.84-2.4,3-3s.16-4.34,0-4.5c-.13-.13-2.53.13-3-1.5-1.25-4.35-3.32-6.36-5-10-.67-1.45-.6-1.62-1-3-.66-2.3-4.66-1.18-6.5-1.5-.35-.06-.57-.82-1-1-.54-.22-1.33.17-1.5,0s.23-.96,0-1.5c-.27-.64-1.84-2.48-2-3-.37-1.21.7-3.53,1.5-3.5.71.03,1.95,3.83,6,3,.83-.17,1.69-2.82,1.5,1,1.27-.23,4.13,1.87,5,1,.78-.78-1.85-2.68,0-3.5-3.05-2.01-1-5.55-4.5-7.5-.72-.4-1.91.87-1.5-1.5.21-1.42,1.57.99,2,.5,1.03-1.15-.97-3.32-1-3.5-.31-2.15.22-4.76,0-7,1.81-1.88,1.91.44,3,2,2.18,3.14,3.45,5.82,4,10,.18,1.34.61,3.16,2,1.5.33-.39-.23-4.19,0-5.5.05-.29,1.57-1.01,1-3-.05-.17-2.33-2.45-2.5-2.5-1.29-.37-2.09,1.48-2.5,1-.2-.23.16-1.73,0-2.5-.08-.39-1-.67-1-1s.94-.62,1-1c.42-2.55-.54-4.17-1-6.5-.56-.56-4.08,1.92-5,1-.46-.46,1.67-4.42-3.5-3-.18.05-2.23,2.08-2.5,2.5-.25.4-2.91,5.67-3,6-.23.83.19,2.08,0,3-.08.39-1.36.68-1,2,.05.17,2.13,2.3,2.5,2.5.47.26,1.31-.19,1.5,0,.11.11.09,2.88,0,3-.13.16-3.32-2.32-4,.5-.16.67-.14,4.33,0,4.5.26.31,2.89-2.61,3,0-1.33-.46-4.77,2.27-5,2-.18-.21.26-1.03,0-1.5-.22-.39-2.32-2.5-2.5-2.5s-2.25,2.08-2.5,2.5c-.13.22.14.69,0,1-1.32,2.9-.55,3.45-1,6-.25,1.42-2.64,4.73-3,6s1.38,1.67,1,3c-.43,1.51-2.41,2.18-1.5,4.5.61,1.55-.22,3.04-1,3-.18,0-2.43-1.54-3-2-.79-.63-3.12-2.82-3.5-3.5-.26-.47.19-1.31,0-1.5s-1.03.26-1.5,0-4.41-4.19-4.5-4.5c-.19-.66.24-1.51,0-2-.31-.65-2.29-3.25-2-3.5.17-.14,3.9-.17,4.5,0,1.81.5.64,3.95,3.5,3l-1-4.5c-2.27-1.95-3.6-3.24-3-6.5,1.63.52,2.25-1.36,3.5-1,.77.22,1.46,2.42,3,2,2.02-.56,1.18-3.32,1.5-4.5.42-1.56,1.38-3.9,2-6,.26-.88,3.73-3.11,4-4,.64-2.13-2.57-3.52.5-5.5l1.5,5c1.91-.99,2.45-2.63,5-2-.04-2.3,2.02-4.45,3-6.5.55-1.15-.29-1.96-1.5-1.5-.7.27-1.9,1.74-2.5-.5-.65-2.41,1.43-4.13,1-6.5,2.05.03,1.86,2.88,2,3,.45.39,3.99-.98,3,1.5s0,1.43,0,2c0,.33-.99.66-1,1-.02.6,2.43,2.1,3,1.5.12-.13.59-2.76,1-3.5-1.49-1.77-.11-2.15-1-5-.56-1.79,1.66-3.42,1-5.5,3.12.83,1.51,3.73,2,5.5.13.48,3.28,2.5,3.5,2.5.33,0,.61-.92,1-1,4.17-.87,1.91,2.41,2.5,3,.18.18,3.41.49,4,2.5l1,5c3.47,3.67,5.72.72,3-3-.86-7.01,2.75-13.14-2-19-.42-.74-.87-3.37-1-3.5-1.71-1.7-1.78.52-2,1.5-.2.89-2.89.61-3,.5-.59-.59,1.73-3.55,1-5,.81-.12,2.79.2,3,0,.83-.78-.98-2.37-1-2.5-.33-1.94.23-4.45,0-6.5,1.79-.4.72,1.74,1,2,.35.32,3.41-.29,4.5,0,3.09.82-.89,3.68-.5,4,.23.18,1.03-.26,1.5,0,.39.22,2.5,2.32,2.5,2.5,0,.42-3,2.58-3,3,0,.33.89.59,1,1,.17.63-.17,1.39,0,2,.16.56,1.85,1.45,2,2,.91,3.31-.34,11.71,0,16,.13,1.67-.16,2.38,1.5,3.5l2.5-4.5c-.03-1.39,4.94-8.33,5.5-8.5.72-.21,2.26.22,2.5,0,.12-.11-.29-2.16,1.5-3,2.2-1.03,1.19,1.15,1,2-.04.19-.45.3-.5.5-.18.75.2,2.3,0,2.5-.25.25-2.69-.26-3,0-.24.2,2.24,3.8,2,4-.32.27-3.01-.18-4,0,.51,1.63-1.35,2.24-1,3.5.91,3.22,4.17.04,5.5-.5.58-.24,1.45.24,2,0,.4-.18.59-.81,1-1,.31-.15.8.13,1,0,2.24-1.44,2.98-5.8,2.5-8.5-.03-.17-.7-1.87-1-3-.11-.41-1-.67-1-1,0-.39,1.94-.81,0-2-1.34-.82-2.85-.36-3-.5-.88-.84,2.82-4.8,3.5-5,3.72-1.12,4.93,5.68,5.5,8,1.44-.72,3.86,1.15,4,1,.52-.58-.82-2.34-1-3.5-.51-3.32-1.37-6.78-1-9,.8-4.83-.58-11.44,0-16.5.8.15,2.88,2.08,3,2.5.38,1.33-1.38,1.68-1,3,.16.56,1.85,1.45,2,2,.62,2.26-.55,6.53,0,9,.59,2.65-.14,3.51,0,4,.1.35,2.76,2.89,3,4,.53,2.48-.62,6.74,0,9,.19.7,2.81,2.3,3,3,.29,1.06-.22,2.78,0,4,.06.35.82.57,1,1,.22.54-.17,1.33,0,1.5.14.14,3.86.14,4,0,.25-.24-.57-2.83,1-3.5.17-4.22.93-9.12,2-13,.47-1.72,1.96.27,1-4-.2-.9-.22-5.19,0-6,.12-.46,1.07-1.55,2-1,1.93,1.15.17,1.4,0,2-.11.4,1.7,5.98,2,7.5-.77.05-1.64-.48-2,.5-.87,2.36-.88,1.51,0,3,1.02,1.72,1.31,2.38,1,4.5l2-3.5c-.78-1.46-.67-2.85-1-4.5,4.33.17,7.8,5.08,5,8.5,2.15,2.13-.41,4.82,3,2.5-.55,1.62.9,2.06,1,2.5.74,3.36-.98,3.3-2,5-.85,1.42-2.74,8.26-3,10-.53,3.58-.11,7.79,4.5,6.5.61-.17,2.08-2.39,3-3,.35-.23,5.67-2.93,6-3,1.11-.24,8.03-.26,9,0,.53.14,2.78,2.52,2.5,3.5-.57,2-3.31,1.22-4.5,1.5-1.6.37-3.66.63-5,1-.55.15-4.43,3.84-5,4-3.69,1.06-7.22,2.79-10,3-1.94-.37-7.52,4.98-8,5-1,.03-1.62-2.29-1.5-3.5.08-.82.68-2.5,1-3.5,1.97-.32,3.02.32,4.5-2,1.19-1.87-.9-2.09-.5-4l-4,4.5c-.19.48.13,1.1,0,1.5ZM137.03,90.12c-.53-2.67,1.72-4.18,3-6.5l-4-5.5c-.18,1.41.28,3.22,0,4.5-.07.33-1.99,2.82-2,3s2.05,2.22,1,3.5c-.47.57-2.13-1.98-2.5-2-1-.04-2.11,3.42-1.5,4,.91.87,4.62-.96,6-1ZM108.53,79.12c-.65,0-.65,1,0,1s.65-1,0-1ZM109.03,84.12c-.13-.13.12-2.55-1.5-3-4.91-1.35-8.17,7-9,7-.31,0-.56-.82-1-1-2.02-.81-1.29,1.13-1.5,1.5-.38.69-1.86,1.5-2,2-.23.82.19,2.08,0,3-.08.38-.89.6-1,1-.36,1.3.97.58,0,3-.89,2.23,1.42,1.18,2.5,1.5,2.66.79.92,6.39,1.5,8.5.32,1.17,2.94,1.65,2,6-.07.34-1.93,2.66-2,3-.71,3.28-1.25,5.83-2,9-.19.8-1.91,4.37-2,5-.45,3,.48,4.09,1,6,.2.74-.21,2.29,0,2.5.2.2,2.58-.72,4,1.5.16.25-.15.79,0,1,.74,1.05,2.4,2,3,3,1.92,3.22.31,6.79,1,10,.08.36,1.72,2.38,2,3,.23.51-.19,1.34,0,2,.13.47,3.03,2.36,3.5,2.5,2.97.91,3.77-2.47,4.5-4.5.15-.42.92-.63,1-1,1.35-5.92-4.58-4.08-5-4.5-.25-.25.22-2.57,0-3.5-.67-2.86.18-3.36,0-4-.11-.39-.88-.6-1-1-.65-2.13,2.25-4.33,2-6.5,1.64.54,1.98-.85,2.5-1,2.28-.66,4.08,4.96,5,5,1.68.08,1.31-3.67,1.5-4.5.09-.4.95-.63,1-1,.21-1.44.21-4.56,0-6-.05-.37-.91-.6-1-1-.21-.89.23-2.16,0-3-.15-.55-1.84-1.44-2-2-1.13-3.95-3.67-4.89-4-6-.97-3.28-2.53-7.82-2-11s-.64-2.98-1-5c-.41-2.31.23-5.48,0-8-.14-1.56-1.3-1.9-1-3.5,2.86-.97,1.73,1.79,2,2,.24.19,3.86.85,4,1,.27.28-.25,2.59,0,3.5.07.27,3,3.28,3,4,0,.33-.94.62-1,1-.25,1.51-.13,4.36,0,6,.09,1.2.02,3.09,1.5,3.5.6.17,2.9-1.06,3.5-1.5,3.08-2.26,3.44-6.44,3-10-.05-.37-.95-.63-1-1-.24-1.86.37-4.35,0-6-.08-.35-.8-.57-1-1-.15-.32.13-.8,0-1-1.02-1.6-5.01-2.99-6.5-4.5-1.15.57-6.22-1.72-6.5-2ZM93.53,86.12c-.65,0-.65,1,0,1s.65-1,0-1ZM62.03,96.12c-1.03-1.03-3.39.32-.5,2,.73.42.68-1.82.5-2ZM26.03,101.12c.1-.12.1-2.88,0-3-1.31-1.57-1.31,4.57,0,3ZM142.53,101.12c-.65,0-.65,1,0,1s.65-1,0-1ZM23.03,107.12c-2.73-2.24-2.3,4.55-1,3,.17-.21-.23-.97,0-1.5.19-.43,1.49-1.1,1-1.5ZM87.03,119.12c1.71,1.85,3.69-2.93,3-5.5-.22-.82-2.69-1.57-2-3.5-1.19,1.15-6.03.88-6,2.5.03,1.5,3.68,1.17,4.5,2.5.94,1.52.26,3.74.5,4ZM121.03,121.12c-.11-.11-2.89-.11-3,0-2.66,2.66,5.66,2.66,3,0ZM138.53,134.12c-.65,0-.65,1,0,1s.65-1,0-1Z"/>
      <path d="M137.03,3.12c.21.21-.21,1.78,0,2.5.34,1.14,2.99,3.82,4,7,.6,1.9,2.59,5.47,3,7,1.24,4.61-2.81,1.29-3,1.5-.62.65.64,2.52,1.5,3,.63.36,2.38-.71,1.5,2.5-.1.37-.83.58-1,1-.22.54.17,1.29,0,1.5-.15.18-3.15-2.38-4,.5-1.04,3.53,1.75,2.25,2,2.5.67.67-1.5,2.77-1,4.5.4,1.41,1.85.04,1,3-.57,2,.91,2.62,1,3,.59,2.55-1,3.78-1,4,0,.37,2,1.63,2,2,0,.33-3.14,2.33-2,4.5-1.79.4-.72-1.74-1-2-.16-.15-1.66.32-3-.5-.52-.32-3.92-3.73-4-4-.18-.63.19-1.41,0-2-.15-.48-1.36-.69-1-2,.45-1.62,2.87-1.37,3-1.5.17-.17-.2-.94,0-1.5.16-.43,1-.68,1-1,0-.39-1.85-1.45-2-2-.8-2.92.2-11.23,1-14,.12-.4.91-.62,1-1,.44-1.86-.8-5.42-2.5-6.5-1.16-.73-3.76-2.48-5-3-.54-.23-1.33.17-1.5,0s.22-.96,0-1.5c-.17-.42-.88-.62-1-1-.76-2.5,1.75-3.13,2-4,.2-.68-2.6-4.59.5-5.5,2.79-.82,3.85,2.68,5,3,.91.25,3.23-.27,3.5,0ZM138.53,25.12c-.65,0-.65,1,0,1s.65-1,0-1Z"/>
      <path d="M2.03,41.12c.27.31-.7,2.42,1,3.5,1.05.67,2.26.73,3,2,.54.92-1.78.28-2,.5-.25.25.25,2.74,0,3s-2-.56-2,.5.91.1,1.5.5c.55.38,2.19,1.98,2.5,2.5,1.04,1.74.61,3.57,1,5,.2.72,3.25,2.87,4,4,1.11,1.66,2.28,6.86,4.5,7.5,1.37.39,1.71.47,3,1,.23.09,2.53.05,1.5,1-.34.31-2.36-.82-2,1,1.88-.37,5.28-2.12,6,.5.35,1.27-1.5,1.84-1,3.5l4,1c-.76,1.81.96,3.21,1,3.5.15,1.01.21,6.25,0,6.5-.15.18-3.43-1.6-4-2.5-.16-.26.14-.8,0-1-1.33-1.87-4.58-6.36-6.5-7.5-3.24-1.93-4.41,0-5,0-.51,0-5-6.81-4.5-8-3.29.92-2.46-4.99-3-7.5-.07-.34-1.93-2.66-2-3-.25-1.17.25-2.83,0-4-.68-3.15-3.28-4.58-2-9,.28-.97-.78-1.52-1-3-.3-2.06,1.54-2.04,2-1.5Z"/>
      <path d="M80.03,19.12c1.01,1.17-.96,3.29-1,3.5-.39,2.16-.34,2.83-1,5-.76,2.5,1.77,3.16,2,4,.3,1.09-.3,2.91,0,4,.24.87,3.54,2.23,1.5,4.5-.89.67,1.27,2.1.5,3-2.08,2.46-1.88-2.16-2-2.5-.82-2.28-4.73-1.23-5-1.5-1.52-1.5,1.87-4.03,2-4.5.79-2.77-4.79-6.23-4-9,.06-.21,2.03-2.17,2.5-2.5.22-.15,2.03-.18,2.5-1.5.12-.34-.1-4.93,2-2.5Z"/>
      <path d="M102.03,46.12c.17.19-.26,3.71,2,4.5-2.62,1.76.63,3.98,0,6-.13.4-.89.61-1,1-.2.74.21,2.29,0,2.5-.19.19-1.76-.2-2,0-.5.41.93,1.16,1,1.5,1.14,5.42-2.32,2.88-3,3.5-.28.26.79,2.4-1,2l1-6.5c2.52-2.42,1.38-3.32,1-5s-.1-5.95,0-8c.08-1.62.83-2.85,2-1.5Z"/>
      <path d="M73.03,15.12c.11.11,2.89.1,3,0,.28-.26-.79-2.4,1-2,2.08,3.3-4.85,8.16-6,7-.68-.69,1.69-3.33,1-4-.19-.19-1.81.19-2,0-.31-.31.21-4.77,0-6l3,3.5c.23.54-.17,1.33,0,1.5Z"/>
      <path d="M71.03,58.12c-.89-.84-2.35,1-2.5,1-.11,0-1.5-1.39-1.5-1.5,0-.32.88-.58,1-1,.54-1.83-1.65-3.4-1-5.5l6,6.5-.5,4.5c-1.96-.76-1.34-3.85-1.5-4Z"/>
      <path d="M61.03,62.12l-1,4.5c-.45.58-1.93,2.71-2,3-.29,1.25.92,3.7-1,3.5-.06-3.18-.28-5.86,1-8.5l3-2.5Z"/>
      <path d="M30.03,52.12c-.24,1.34,1.89,3.99,1,5-.14.16-2.56-1.72-4-1-.07-3.52-.92-4.56,3-4Z"/>
      <path d="M44.03,48.12c.35.41-.24,4.3,0,5.5l-3,4.5c.21-1.69.81-2.61,1-4.5.13-1.29-.06-2.68,0-4,.08-1.63.85-2.87,2-1.5Z"/>
      <path d="M60.03,46.12c.56-3.04-1.64-8.45,2-10,.56,1.96-.87,2.94-1,4.5-.21,2.46,2.58,4.2-1,5.5Z"/>
      <path d="M34.03,48.12c-.18.18-.97-.23-1.5,0-.43.19-1.1,1.48-1.5,1-.17-.21.22-.96,0-1.5s-1.36-.7-1-2c1.03-3.74,5.83.67,4,2.5Z"/>
      <path d="M31.53,29.12c1.72,0,1.72,4,0,4s-1.72-4,0-4Z"/>
      <path d="M86.03,31.12c.48.4-.81,1.07-1,1.5-.58,1.3.89,1.92-3,1.5.31-1.37,3.04-3.79,4-3Z"/>
      <path d="M31.03,20.12c.16.16.26,4.44-.5,4-2.99-1.75-1.24-5.74.5-4Z"/>
      <path d="M37.03,53.12c-1.63,1.63-2.87-1.92-2-3,.46-.57,2.83,2.17,2,3Z"/>
      <path d="M58.03,75.12c.83.83-1.54,3.57-2,3-.87-1.08.37-4.63,2-3Z"/>
      <path d="M53.03,78.12c-.07.07-1.93.07-2,0-.18-.16,1.93-4,2.5-4,1.35,0-.45,1.24-.5,1.5-.16.77.19,2.31,0,2.5Z"/>
      <path d="M38.03,110.12c-1.37,1.64-1.37-5.64,0-4,.13.15.13,3.85,0,4Z"/>
      <path d="M67.03,49.12c-1.37,1.64-1.37-5.64,0-4,.13.15.13,3.85,0,4Z"/>
      <path d="M53.03,39.12c-2.11.26-2.26.11-2-2l2,2Z"/>
      <path d="M71.03,51.12c.18.18.23,2.42-.5,2-2.89-1.68-.53-3.03.5-2Z"/>
      <path d="M59.03,82.12l-2,2c-.26-2.11-.11-2.26,2-2Z"/>
      <path d="M69.03,101.12c.8.67-1.24,1.64-2,1-.8-.67,1.24-1.64,2-1Z"/>
      <path d="M28.03,49.12c-.67.8-1.64-1.24-1-2,.67-.8,1.64,1.24,1,2Z"/>
      <path d="M48.03,37.12c-.67.8-1.64-1.24-1-2,.67-.8,1.64,1.24,1,2Z"/>
      <path d="M51.53,33.12c.65,0,.65,1,0,1s-.65-1,0-1Z"/>
      <path d="M52.53,52.12c.65,0,.65,1,0,1s-.65-1,0-1Z"/>
      <path d="M67.53,62.12c.65,0,.65,1,0,1s-.65-1,0-1Z"/>
      <path d="M61.53,68.12c.65,0,.65,1,0,1s-.65-1,0-1Z"/>
      <path d="M65.53,72.12c.65,0,.65,1,0,1s-.65-1,0-1Z"/>
      <path d="M107.53,74.12c.65,0,.65,1,0,1s-.65-1,0-1Z"/>
      <path d="M97.03,95.12c-.11-.14-.13-2.86,0-3.5.08-.36.82-.57,1-1,.08-.21.09-2.59,1-1.5.14.17.17,3.9,0,4.5-.11.39-1.75,1.81-2,1.5Z"/>
      <path d="M98.03,99.12c-.9,1.07-.9-1.23-1-1.5-.15-.43-1-.68-1-1,0-1.43,2.94,1.37,2,2.5Z"/>
    </g>
  </g>
</svg>