<?xml version="1.0" encoding="UTF-8"?>
<svg id="Layer_2" data-name="Layer 2" xmlns="http://www.w3.org/2000/svg" viewBox="0 0 145.95 166.27">
  <g id="Elements">
    <g id="Element">
      <path d="M81.88,58.11c-.32.29.91,2.92-2,2-.76-1.84.93-3.13,1-3.5.38-2.06.51-3.09,1-5,.22-.84.74-4.24,1-4.5.19-.19,1.03.26,1.5,0,1.65-.92,1.37-3.59,3.5-4l-1,5.5c-.57,1.95-3.51,5.34-3,7,.14.47,1.36.69,1,2-.66,2.4-2.85.36-3,.5Z"/>
      <path d="M87.88,40.11l1-7.5,3-2.5c-.3,1.73,1.58,2.66,1,4.5-.12.38-.83.58-1,1-.71,1.75-1.05,4.81-4,4.5Z"/>
      <path d="M131.88,15.11c.19.19-.27,1.03,0,1.5.15.26,3.89,3.16,4.5,3.5.47.26,1.31-.19,1.5,0,.25.25-.22,2.57,0,3.5.32,1.38,1.43,3.86,2,6,1.18,4.42,2,11.18,3,17,.57,3.35,2.65,8.23,2,12-.13.76-.13,2.24,0,3,.94,5.46,1.84,14.24,0,21-.12.44-1.92,2.62-2,3-.71,3.28.08,7.04-1,11-.98,3.6-4.4,8.61-5,12-1.18,6.63-.22,16.33-4,22-.69,1.04-2.45,2.02-3,3-.26.47.18,1.28,0,1.5-.15.18-3.15-2.38-4,.5-1.04,3.53,1.75,2.25,2,2.5,1.66,1.66-2.24,4.35-3,5.5-.27.41-.73,2.59-1,3-2.17,3.27-5.8,4.66-8.5,6.5-1.56,1.07-6.3,3.63-8,4-1.18.25-2.93-.3-4,0-.44.12-3.41,4.16-4.5.5-.57-1.91,1.14-3.45-3.5-2.5-.37.08-.59.87-1,1-1.11.35-2.39-.45-3.5,1.5-.27.47.19,1.31,0,1.5-.49.49-11.63,4.86-12.5,5-1.51.25-3.71-.35-5,0-.55.15-1.45,1.85-2,2-.69.19-6.27.23-6.5,0-.25-.25.25-2.75,0-3-.17-.17-.96.22-1.5,0-.69-.29-1.05-1.56-3-1-2.3.66-.06,2.8-6,1-1.97-.6-2.83,1-3,1-.37,0-1.63-2-2-2-.59,0,.3,1.06-2,0-2.04-.94-6.64-4.62-8-5-1.27-.35-3.48.23-5,0-2.02-.3-1.14-1.62-5,0-2.64,1.1-1.01-3.51-1.5-4-.19-.19-1.03.27-1.5,0-2.13-1.21-1.37-6.58-4-4-1.69-.88-3.79,1.01-4,1-1.73-.1-1.89-6.09-1.5-7.5.22-.81,3.36-2.85,4-4,.26-.47-.19-1.31,0-1.5.13-.13,2.55.12,3-1.5.18-.65.19-5.3,0-5.5-.6-.66-2.46.65-3,1.5-.13.21-.46,2.43-1.5,2.5-.18.01-1.75-1.78-3.5-1-.98,2.86,1.8,1.74,2,2,.45.59-1.52,4.71-2.5,5-2.05.6-5.23-1.96-6.5-3.5.39-.6,2-1.69,2-2s-1.54-1.79-2.5-1.5c-.63.19-2.03,2.64-2.5,3.5-1.84,3.32-2.61,2.11-3,2.5-.29.29.79,2.39-1,2l-1-3.5c-1.93-1.28-.11-1.34,0-2,.3-1.82-.38-4.32,0-6,.28-1.23.83-2.96,1-4,.3-1.79-.42-4.48,0-6,.07-.25,2.29-2.84,3-4,2.69-4.4,5.4-12.74,8.5-14.5,1.55-.88,7.08-10.27,8.5-12.5,1.17-1.83,2.83-1.36,3-1.5.5-.41-.91-1.13-1-1.5-.84-3.26.86-2.14,1.5-2.5.55-.31,4.05-5.43,4.5-6.5,1.35-3.24,4.45-5.36,6-11,.84-3.05,8.1-7.34,10-14,.11-.39,1.73-1.8,2-1.5.3.34-.8,2.38,1,2-.98-3.38,1.11-3.84,2-5.5.96-1.79,1.78-5.52,3.5-6.5,2.89-1.64,4.14-6.03,6.5-9.5,1.2-1.77,4.18-4.52,5-6,1.51-2.71,1.43-.95,2-1.5.15-.14.86-3.25,1-4,1.27.23,4.13-1.87,5-1s-.95,4.64-1,6c1.17-.59,3.44-2.5,4-3.5.26-.47-.19-1.31,0-1.5.68-.7,2.8,1.45,4,1-.21,1.23.31,5.69,0,6-1.65,1.65-.77-2-2,2.5-.61,2.22-2.67,5.06-3.5,7.5-.6,1.76-.6,3.2-.5,5l3-4.5c-2.1-2.13-.64-1.1.5-1.5.43-.15.68-1,1-1,.25,0,1.09,1.5,1.5,1,.59-.72-1.06-5.21,1-6.5,1.33-.83,2.85-.35,3-.5,1.72-1.7-.52-1.79-1.5-2-1.05-.23-.34-2.01-.5-3h4c-.14,1.11.23,2.51,0,3.5-.21.9-2.52,3.82-3,5-1.23,3.01-2.08,6.81-3,10-.16.56-1.84,1.44-2,2-.38,1.32,1.38,1.68,1,3-.66,2.3-2.12,5.58-3,8-.78,2.15-1.56,5.39-4.5,4.5-.22-.07-1.68-1.82-2.5-1-.49.49,1.26,4.02-2,3-.33,1.98,2.62.6,3,1,.82.86-.97,2.36-1,2.5-.22,1.22.29,2.94,0,4-.59,2.15-5.02,3.86-5,0,0-1.79,1.86-2.63,3-4-3.01-3.39-3.04-.76-4,2-.84,2.42-1.95,5.73-3,8-.88,1.9-2.99,4.06-3,6.5l4.5-6c1.09-.56,1.5.86,2,1,.87.25,3.41-1.96,4.5-1,.15.14-1.72,2.56-1,4-.59.68-2.37-4.14-2,3.5.08,1.63.85,2.87,2,1.5.34-.4-.3-3.4,0-4.5.42-1.52,4.07-5.87,3-9,1.99-1.82,3.52-4.75,4-7.5l4.5,7c2.12-1.6,1.06-4.1,3.5-5.5l-2-1c1.85-2.71,2.59-.62,5-.5-.13,1.12.21,2.48,0,3.5-.08.38-.89.6-1,1-.87,3.27-1.51,7.73-2,11-.13.89-.69,4.76,1,4.5l1-5.5c2.42-1.67,2.38-3.72,3-6,.37-1.34,2.69-1.77,4-1.5l-2.5-2c-2.49,2.68-1.11-1.18-1.5-3.5-.06-.38-1-.67-1-1,0-.18,2.33-2.45,2.5-2.5.72-.21,2.29.21,2.5,0,.19-.19-.19-1.81,0-2,.21-.21,5.79-.21,6,0,.57.56-1.19,5.07,1,5l4-5.5c-1.19-1.25-4.03-.09-5.5-.5-.2-.06-2.71-2.54-3-3-.68-1.07.98-1.4.5-3-1.17.59-3.44,2.5-4,3.5-.35.62.65,2.44-2.5,1.5-1.5-.44-1.76-3.01-1.5-4.5.07-.38,1-.67,1-1s-1-.67-1-1c0-1.2,2.91-4.68,3-5,.21-.72-.21-2.29,0-2.5.16-.16,4,.2,4-1.5,0-.33-1-.66-1-1,0-.18,1.92-2.64,2-3,1.3-6.02,1.41-13.01,3-19,.44-1.65,2.74-5.53,3-7s-.57-6.5,1.5-6.5c.25,0,.69,1.36,2,1,1.69-.47,1.24-2.61,1.5-3.5.49-1.69,3.69-3,5.5-2.5.57.16,6.6,6.12,8,7,2.54,1.77,11.21,6.71,12.5,8ZM72.88,25.11c-1.11-1.15-4.23,1.28-5,2.5-.39.62-1.73,3.35-2,4-.29.7-.6,3.98-1,4.5-.2.26-2.98-.86-2,2,2.83.29,3.8-3.11,4-5,1.78.24,3.85-2,5-3.5.92-1.2,1.62-3.86,1-4.5ZM61.88,40.11c-1.89-1.89-1.8,1.05-2,1.5s-1.48,1.1-1,1.5c1.22,1,3.95-2.05,3-3ZM58.88,56.11c.24-.24.72-5.46,1-6.5.2-.72,2.33-2.84,2-4-.16-.56-1.62-1.77-2.5-1.5-2.05.62-1.17,3.31-1.5,4.5-.15.55-1.85,1.45-2,2-.23.85.23,2.15,0,3-.15.56-7.54,6.32-8,8-.67,2.43-.51,4.67-3,7l.5,4.5c1.83-1.02,1.16-2.67,2-4,.71-1.12,3.16-1.25,3.5-2.5.25-.91-.27-3.23,0-3.5.25-.25,2.75.25,3,0,.21-.21-.21-1.78,0-2.5.74-2.48,4.64-4.14,5-4.5ZM73.88,49.11c.64-.76-.33-2.8-1-2-.64.76.33,2.8,1,2ZM95.88,51.11c.64-.76-.33-2.8-1-2-.64.76.33,2.8,1,2ZM100.38,49.11c-.65,0-.65,1,0,1s.65-1,0-1ZM73.88,50.11c-1.63-1.63-2.87,1.92-2,3,.46.57,2.83-2.17,2-3ZM110.38,51.11c-.65,0-.65,1,0,1s.65-1,0-1ZM71.88,56.11c.64-.76-.33-2.8-1-2-.64.76.33,2.8,1,2ZM65.38,55.11c-.65,0-.65,1,0,1s.65-1,0-1ZM101.88,55.11c-.76-.64-2.8.33-2,1,.76.64,2.8-.33,2-1ZM114.88,61.11c.1-.12.1-2.88,0-3-1.31-1.57-1.31,4.57,0,3ZM107.88,66.11l2-7-4,4.5,2,2.5ZM63.88,62.11c.64-.76-.33-2.8-1-2-.64.76.33,2.8,1,2ZM42.88,61.11c-3.38-.73-1.07,2.21-3,3.5,1.9.87-.79,2.52,0,3.5.43.53,1.92-1.68,2.5-2,.47-.26,1.31.19,1.5,0,.87-.86-1.22-3.74-1-5ZM114.38,62.11c-.65,0-.65,1,0,1s.65-1,0-1ZM135.88,62.11c-2.19-2.19-1.79,1.78-2,2.5-.06.2-1.82,1.68-1,2.5.11.11,2.89.11,3,0,.18-.18.18-4.82,0-5ZM101.38,66.11c-.65,0-.65,1,0,1s.65-1,0-1ZM113.88,67.11c-.76-.87-3.47,1.67-4,2.5-1.51,2.38-1.52,4.63-2,7-.08.39-1.36.68-1,2,.54,1.97,3.84,1.34,4,1.5.19.19-.26,1.02,0,1.5.46.84,3.22,3.32,4,2.5.53-.56-.84-2.34-1-3.5-.38-2.76,1.22-5.32,1-5.5-.24-.2-1.81.19-2,0-.21-.21.2-1.76,0-2.5-.1-.38-1.48-1.06-1-1.5.21-.19,1.81.19,2,0,.14-.14.13-3.85,0-4ZM129.88,71.11c.59.73,3.04-2.71,2-4-.59-.73-3.04,2.71-2,4ZM96.38,68.11c-.65,0-.65,1,0,1s.65-1,0-1ZM106.88,68.11c-.11-.1-2.89-.1-3,0-.27.23,1.51,1.72,1,3.5-.15.52-3.46,2.83-2,4.5,1.62,1.85,2.27-2.14,3-2.5.11-.97-.16-2.09,0-3,.19-1.09,1.15-2.37,1-2.5ZM38.88,71.11c.07-.07.38-2.13-.5-2-.57,1.73-3.37,1.85-3.5,2s-.13,3.85,0,4c2.45,2.92,1.82-3.82,2-4,.19-.19,1.81.19,2,0ZM100.38,69.11c-.65,0-.65,1,0,1s.65-1,0-1ZM120.88,72.11c.64-.76-.33-2.8-1-2-.64.76.33,2.8,1,2ZM76.88,71.11c-3.87-.21-2.47,2.77-3,4.5-.28.92-3.2,4.16-2,5.5.78.87,4.01-2.09,4-2.5,0-.34-1-.67-1-1,0-.29,1.16-.95,1.5-1.5.93-1.53.37-3.33.5-5ZM81.88,74.11c1.03-1.03-.32-3.39-2-.5-.42.73,1.82.68,2,.5ZM91.38,73.11c-.65,0-.65,1,0,1s.65-1,0-1ZM50.88,74.11c-1.09-1.09-3.09.91-2,2s3.09-.91,2-2ZM101.88,77.11c.64-.76-.33-2.8-1-2-.64.76.33,2.8,1,2ZM36.88,77.11c-.76-.64-2.8.33-2,1,.76.64,2.8-.33,2-1ZM118.38,78.11c-.65,0-.65,1,0,1s.65-1,0-1ZM35.88,80.11c-.76-.64-2.8.33-2,1,.76.64,2.8-.33,2-1ZM41.88,80.11c-3.45-.67-.89,2.35-3.5,4-.6.38-2.6,1.02-3.5,1,.83,1.56-1.43,5.52-1,6,1.09,1.21,5.08-3.74,6-4.5l2-6.5ZM63.38,80.11c-.65,0-.65,1,0,1s.65-1,0-1ZM94.88,85.11c.85-1.56-1.73-5.02-2.5-5-.25,0-3.43,3.26-3.5,3.5-.36,1.18.42,3.2,1.5,3.5,1.64.46,2.42-2.66,4.5-2ZM128.88,80.11c-2.64-.42-3.28,3.12-5.5,3l-4.5,6c2.6,1.39,5.19-2,5.5-2,.43,0,1.47,2.12,2.5,2-.35-3.31.6-6.04,2-9ZM109.88,81.11c-.76-.64-2.8.33-2,1,.76.64,2.8-.33,2-1ZM31.88,84.11c.64-.76-.33-2.8-1-2-.64.76.33,2.8,1,2ZM57.88,82.11c-2.27-2.68-1.86,2.86-2,3-.18.18-2.73.24-4,2.5-.26.47.18,1.28,0,1.5-.41.5-1.25-1-1.5-1-1.71.02-1.34,3.84-1.5,4-.19.19-1.03-.26-1.5,0-.37.2-2.45,2.33-2.5,2.5-.36,1.31.85,1.52,1,2,.29.92.63,3.1.5,3.5-.56,1.77-.62,3.2-.5,5,2.04.07.64-3.19,1-4.5.2-.71,2.81-2.3,3-3,.25-.91-.27-3.23,0-3.5.31-.31,3.63.32,4,0,.14-.12-.05-2.97,2-3l-1,4.5c-2.07,1.55-.41,4.82-1,7-.12.44-3.52,3.01-2,4.5.28.28,3.07.08,4-.5,1.81-1.13.62-3.3,1-5,.69-3.08,0-2.32,0-3,0-.37,2-1.63,2-2,0-.33-1-.67-1-1s1.63-1.34,2-2c.26-.47-.19-1.31,0-1.5s1.81.19,2,0c.18-.18-.23-.96,0-1.5.18-.42.89-.62,1-1,.38-1.32-1.38-1.68-1-3,.12-.42,1-.68,1-1,0-1.12-3.49-2.52-4.5-.5-1.16-.2-.17-2.61-.5-3ZM105.38,82.11c-.65,0-.65,1,0,1s.65-1,0-1ZM98.88,88.11c-.76-.64-2.8.33-2,1,.76.64,2.8-.33,2-1ZM120.38,90.11c-.65,0-.65,1,0,1s.65-1,0-1ZM98.88,93.11c.64-.76-.33-2.8-1-2-.64.76.33,2.8,1,2ZM125.38,91.11c-.65,0-.65,1,0,1s.65-1,0-1ZM29.88,96.11c.42.52,2.81-2,2-3-.42-.52-2.81,2-2,3ZM124.88,95.11c.64-.76-.33-2.8-1-2-.64.76.33,2.8,1,2ZM135.88,93.11c-2.86-.98-1.74,1.8-2,2-.48.37-4.65-.64-4,3l7-1-1-4ZM108.88,109.11c.26-.22-3.01-3.97-3-4.5,0-.34,1-.67,1-1s-1-.67-1-1c0-1,3.64-1.77,4-3,.48-1.66.03-4.07-2-4.5-.72,3.08-1.43,6.36-4,8.5-.66.97.98,1.63,1,2,0,.17-1.55,1.02-1,2.5,1.53-.74,4.29,1.59,5,1ZM80.88,96.11c-2.66-2.66-2.66,5.66,0,3,.11-.11.11-2.89,0-3ZM85.88,100.11c.07-.07.38-2.13-.5-2l-6.5,3.5c2.67,3.57,3.69-.49,5.5-1.5.47-.26,1.31.19,1.5,0ZM98.88,98.11c-2.88-.93-1.66,2.45-3.5,3-.78.23-2.39-.58-2.5.5,1.6.73,2.33,4.18,3.5,4.5.83.23,2.08-.19,3,0,.38.08.6.89,1,1,1.63.45,3.17-2.38,2.5-3-.57-.53-4.32,2.41-5-.5-.21-.89,1.87-3.6,1-5.5ZM114.38,98.11c-.65,0-.65,1,0,1s.65-1,0-1ZM120.88,101.11c.64-.76-.33-2.8-1-2-.64.76.33,2.8,1,2ZM126.38,100.11c-.65,0-.65,1,0,1s.65-1,0-1ZM135.88,100.11c-.76-.64-2.8.33-2,1,.76.64,2.8-.33,2-1ZM102.38,102.11c-.65,0-.65,1,0,1s.65-1,0-1ZM120.88,105.11c.1-.12.1-2.88,0-3-1.31-1.57-1.31,4.57,0,3ZM87.88,106.11c.1-.12.1-2.88,0-3-1.31-1.57-1.31,4.57,0,3ZM90.38,105.11c-.65,0-.65,1,0,1s.65-1,0-1ZM133.88,106.11c-.76-.64-2.8.33-2,1,.76.64,2.8-.33,2-1ZM117.38,107.11c-.65,0-.65,1,0,1s.65-1,0-1ZM87.88,108.11c-.15-.13-3.85-.13-4,0-1.64,1.37,5.64,1.37,4,0ZM101.88,108.11l-4.5,5,.5-4c-5.51-1.11-5.32,1.8-8.5,5-1.17-.2-.17-2.61-.5-3-2.08-2.46-2.69,2.95.5,4,.51-1.28,2.41-.9,2.5-1,.19-.2-.2-1.77,0-2,.93-1.11,1.08,2.59,2.5,3,1.99.57,2.46-.83,3-1,.62-.2,3.5-.06,3.5-1.5,0-.33-.99-.66-1-1,0-.2,1.94-2.6,2-3.5ZM61.88,111.11c.52-.42-2-2.81-3-2-.52.42,2,2.81,3,2ZM49.88,113.11c.93.76,4.49-1.25,1.5-3-.86-.5-.27.97-.5,1.5-.19.43-1.48,1.1-1,1.5ZM54.88,112.11c.64-.76-.33-2.8-1-2-.64.76.33,2.8,1,2ZM85.38,110.11c-.65,0-.65,1,0,1s.65-1,0-1ZM110.88,121.11c1.75-.78,3.32,1.01,3.5,1,1.5-.1,1.27-2.79,1.5-3.5.73-2.26.12-2.71,1-4l1-4.5c-1.75-.33-.66,4.02-2.5,4-.35,0-2.04-2.57-2.5-2-.92,1.14,1.49,3.84,1,5.5-.54,1.83-3.93.62-3,3.5ZM78.88,113.11c.64-.76-.33-2.8-1-2-.64.76.33,2.8,1,2ZM129.88,114.11c.64-.76-.33-2.8-1-2-.64.76.33,2.8,1,2ZM84.88,120.11c-1.12-2.17,2.01-4.22,2-4.5,0-.18-2.33-2.47-2.5-2.5-.15-.02-1.48,2.29-3,0-.82,1.37,2.27,2.66,2.5,3.5.34,1.21-.96,3.7,1,3.5ZM105.38,113.11c-.65,0-.65,1,0,1s.65-1,0-1ZM76.88,118.11c1.81-.73,2.99,1.99,3.5,2,.83.02,1.85-2.29,1.5-3.5-.73-2.53-5.65-1.83-5,1.5ZM100.88,121.11c-.6-.9-3.42-5.72-4-5-1.18,1.46,1.83,5.64,4,5ZM105.88,116.11c-.16.2.2.94,0,1.5-.13.37-1.85,1.5-.5,1.5,1.79,0,1.7-4.43.5-3ZM91.88,119.11c-.58.58.88,3,1.5,3,2.07,0,1.82-6.57.5-5-.2.23.19,1.81,0,2s-1.81-.19-2,0ZM123.38,117.11c-.65,0-.65,1,0,1s.65-1,0-1ZM118.38,118.11c-.65,0-.65,1,0,1s.65-1,0-1ZM125.88,122.11c.49-.4-.81-1.07-1-1.5-.23-.53.17-1.29,0-1.5-1.3-1.55-1.73,5.24,1,3ZM89.88,120.11c-1.03-.42-3.01.95-3,1.5,0,.22,1.87,3.1,2.5,3.5.22.14,2.38.42,2.5,1.5.02.18-2.33,2.37-.5,3.5l2-3c-.98-.6-.27-1.71-.5-2.5-.32-1.1-3.72-2.34-3-4.5ZM131.88,125.11c.54-.52-1.75-5-2.5-5-1.17,0-2.07,4.49-2.5,5.5,2.07,3.03,2.46-1,5-.5ZM24.88,128.11c.18-.23.24-5.43-.5-5-3.45,2.01-.09,5.74.5,5ZM46.88,123.11c-1.09-1.09-3.09.91-2,2s3.09-.91,2-2ZM79.88,130.11c.27-.25-1.53-1.73-1-3.5.35-1.17,2.43-2.09-1-3.5.83,2.15-5.5,5.62-4,7,.29.26,2.75-.6,3.5,1,.54-1.3,2.36-.87,2.5-1ZM109.38,124.11c-.65,0-.65,1,0,1s.65-1,0-1ZM114.38,124.11c-.65,0-.65,1,0,1s.65-1,0-1ZM32.88,127.11c.64-.76-.33-2.8-1-2-.64.76.33,2.8,1,2ZM88.88,127.11l-2-2c-.26,2.11-.11,2.26,2,2ZM103.88,126.11c-7.66.45,2.37,9.68,4,8,.16-.16.17-3.88,0-4.5-.07-.26-1.5-1.99-2-1-2.38,1.54-2.18-.17-2-2.5ZM40.88,129.11c.64-.76-.33-2.8-1-2-.64.76.33,2.8,1,2ZM89.38,128.11c-.65,0-.65,1,0,1s.65-1,0-1ZM113.88,141.11c-.28-.28-.76-3.71-1-4.5-.12-.4-.89-.61-1-1-.08-.3.83-2.66,1-4,.13-.98.64-3.8-1-3.5l-1,6c-2.78-1.06-2.33,3.03-2,5.5.05.37.94.62,1,1,.22,1.38-.14,3.05,0,4.5,1.38-.09,2.66-2.76,3.5-3,1.29-.37,2.08,1.48,2.5,1,1.94-2.21-1.87-1.87-2-2ZM99.88,132.11c.15-.15.27-3.45-.5-3-3.01,1.76-.92,4.42.5,3ZM125.38,129.11c-1.42,0,1.5,2.92,1.5,1.5,0-.11-1.39-1.5-1.5-1.5ZM34.38,130.11c-.65,0-.65,1,0,1s.65-1,0-1ZM69.88,139.11c.22-.22-.23-1.8,0-2.5.41-1.25,2.6-2.92,2-5-.24-.84-1.92-1.82-3-1.5,1.09,1.58.62,1.84,0,3.5-.15.41-.87.61-1,1-.23.7.22,2.28,0,2.5-.25.25-2.75-.25-3,0-.14.14-.14,3.86,0,4,.11.11,2.84.39,3-.5.54-2.94,1.5-1,2-1.5ZM79.88,132.11c-2.11-.26-2.26-.11-2,2l2-2ZM75.88,133.11c-1.42-1.42-3.51,1.24-.5,3,.77.45.65-2.85.5-3ZM118.88,133.11c-1.03-1.03-3.39.32-.5,2,.73.42.68-1.82.5-2ZM65.38,134.11c-.65,0-.65,1,0,1s.65-1,0-1ZM87.88,135.11c-1.42-1.42-3.51,1.24-.5,3,.77.45.65-2.85.5-3ZM91.88,140.11c.22-.26-.21-1.77,0-2.5.08-.28,1.82-1.48,1-2.5-.25-.31-1.89,1.11-2,1.5-.4,1.47.11,4.57,1,3.5ZM103.88,140.11c.91-.23,4-3.23,4-3.5,0-.11-1.39-1.5-1.5-1.5-.32,0-.57.84-1,1-.56.2-1.33-.17-1.5,0-.24.24.16,3.04,0,4ZM95.88,140.11c.18-.22.25-4.44-.5-4-3.25,1.9.09,4.51.5,4ZM119.88,138.11c-.29-.29.79-2.39-1-2-.65,2.1,1.54,3.67,1,5.5-.12.39-.86.59-1,1-.71,2.14,4.01,4.56,4-1,0-4.32-2.51-3.01-3-3.5ZM74.88,139.11c-1.48.55-2.33-1.01-2.5-1s-2.45,2.33-2.5,2.5c-.6,2.16,1.42,4.86-3.5,3.5-.67-.18-2.87-4.14-4.5-.5-.91,2.03,3,1.59,3,3,0,.33-.89.59-1,1-.17.65.21,1.45,0,2-.15.4-.85.6-1,1-.43,1.17-1.39,3.01.5,3.5,1.2.31,4.42-4.14,5.5-.5.59,2-.8,4.4,3.5,1.5,1.18.59-1.47,1.84,0,2,1.77.19,2.44-.12,3.5-1.5-.86-.86-2.06-.53-3-2-.29-.45-.72-2.33-1-3s-1.6-1.23-1-3l3,.5-2-3c.96.16,2.88-.53,3,.5.1.85.14,4.28,0,4.5-.29.44-2.59-2.88-2,1l3-1,.5,5,2.5-5,1,2c1.87-2.12,3.48,1.6,4,1,.97-1.11-1.26-4.93-1-6.5l-2.5,1.5c-1.83-1.02-1.16-2.66-2-4-.35-.56-1.24-.99-1.5-1.5-.47-.94,2.89.35,2-2-1.18-3.13-3.34,1.23-5,.5l1-2ZM86.38,141.11c-.65,0-.65,1,0,1s.65-1,0-1ZM117.38,142.11c-.65,0-.65,1,0,1s.65-1,0-1ZM57.88,143.11c-2.11-.26-2.26-.11-2,2l2-2ZM85.38,143.11c-.65,0-.65,1,0,1s.65-1,0-1ZM91.88,143.11c-.76-.64-2.8.33-2,1,.76.64,2.8-.33,2-1ZM96.38,143.11c-.65,0-.65,1,0,1s.65-1,0-1ZM27.88,145.11l-4-1c-.98,2.86,1.8,1.74,2,2,.29.38-.19,3,0,4,2.21-.07,2.47-4.54,2-5ZM103.38,144.11c-.65,0-.65,1,0,1s.65-1,0-1ZM29.88,147.11c.64-.76-.33-2.8-1-2-.64.76.33,2.8,1,2ZM108.88,145.11c-2.11-.26-2.26-.11-2,2l2-2ZM40.88,149.11c.83-.83-1.54-3.57-2-3-.87,1.08.37,4.63,2,3ZM94.38,146.11c-.65,0-.65,1,0,1s.65-1,0-1ZM97.38,146.11c-.65,0-.65,1,0,1s.65-1,0-1ZM91.88,148.11c-.55-.55-5.93-.26-4,2,.41.48,1.21-1.37,2.5-1,.38.11,1.09,1.5,1.5,1,.07-.08.07-1.93,0-2ZM93.88,152.11c.64-.76-.33-2.8-1-2-.64.76.33,2.8,1,2ZM99.88,154.11c1.23-1.5-1.67-5.84-3-2.5-.79,1.99,1.01,1.28,1.5,1.5.43.19,1.1,1.48,1.5,1ZM105.88,150.11c-1.49-.28-2.8.9-3.5,2-.55.87,1.12,2.41.5,4,3.36-.79.32-3.12,1-4,.21-.27,2.97.86,2-2ZM88.88,151.11c-.11-.11-2.89-.11-3,0-2.66,2.66,5.66,2.66,3,0ZM40.38,154.11c-.65,0-.65,1,0,1s.65-1,0-1ZM65.88,157.11c-.18-.18-.97.23-1.5,0-.43-.19-1.1-1.48-1.5-1-1.66,2.02.97,1.76,1.5,2,.43.19,1.1,1.48,1.5,1,.07-.08.07-1.93,0-2ZM77.38,156.11c-1.42,0,1.5,2.92,1.5,1.5,0-.11-1.39-1.5-1.5-1.5ZM58.88,159.11c-.76-.64-2.8.33-2,1,.76.64,2.8-.33,2-1Z"/>
      <path d="M69.88,149.11c-1.79.39-.71-1.73-1-2-.43-.41-3.32.98-3-1l3.5-1,.5,4Z"/>
      <path d="M57.88,87.11l-2,2c-.26-2.11-.11-2.26,2-2Z"/>
      <path d="M111.88,77.11c-.67.8-1.64-1.24-1-2,.67-.8,1.64,1.24,1,2Z"/>
    </g>
  </g>
</svg>