<?xml version="1.0" encoding="UTF-8"?>
<svg id="Layer_2" data-name="Layer 2" xmlns="http://www.w3.org/2000/svg" viewBox="0 0 182.11 183.26">
  <g id="Layer_1-2" data-name="Layer 1">
    <g id="Element">
      <path d="M63.99,116.21c-.13-.13.34-1.96-1.5-3s-1.22-1.01-3-2c-4.29-2.39-3.55-6.08-7-8-.45-.25-6.5-5.03-6.5-5.5,0-.33,1-.67,1-1,0-.47-6.25-3.5-7.5-4.5-.84-.67-5.5-5.11-5.5-5.5,0-.33.93-.62,1-1,.16-.95-.22-2.19,0-3,.51-1.85,5.61-1.83,7.5-1.5.37.07.59.87,1,1,1.85.58,3.15-1.58,5-1,2.31.72,4.64,4.21,7,5,.7.23,2.28-.22,2.5,0,.21.21-.2,1.76,0,2.5.45,1.68.79,5.29,1,5.5s1.94-.99,3,2.5c.6,1.97-1,2.83-1,3,0,.59,4.72,4.07,5,5,1.33,4.47.26.76,2,2.5.25.25-.25,2.75,0,3,.19.19,1.03-.26,1.5,0,1.26.7,2.66,3.05,4,4,1.17-.2.17-2.59.5-3,.28-.35,1.75,1.07,2,1.5,1.45,2.46.59,4.52,1,7,.06.37.91.61,1,1,.2.91-.23,2.17,0,3,.1.37.8.57,1,1,.25.54,1.47,4.05,3,2.5.6-.61-3.32-6.48-2-8.5l3-2.5,1,7.5c1.41.98,1.55,1.75,2,3,.41,1.11,2.97.26,4,.5.95-2.86-2.5-1.69-3-3.5-.17-.61-.16-4.34,0-4.5.59-.61,5.28,1.61,7.5,1,.23-.06,2.12-2,2.5-2.5.47-.62,1.51-3.23,2-4,2.09-3.31,4.58-5.38,8.5-6.5,1.85-.53.71-4.07,3.5-3,.2,1.89,1.17,5.29,4,5,.98-2.86-1.8-1.74-2-2-.53-.7-.12-5.54,1.5-6,1.78-.51,3.09-.13,4.5-2.5.68-1.14.68-3.14,1-4,.28-.74,1.92-3.55,2-4,.82-4.62-.7-11.2,0-16,.08-.54,1.9-4.42,2-5,.25-1.51-.35-3.71,0-5,.15-.55,1.85-1.45,2-2,.71-2.58-.26-4.02,2-7,1.41-1.86,3.95-2.62,4.5-3.5.83-1.33.35-2.83.5-3,.51-.56,2.77.67,3,1.5.5,1.81-1.49,5.23,2,4.5.09-2.48-1.12-3.8-1-6.5.2-4.49,3.5-4.62,4-1,.21,1.5-.03,3.39,0,5,.02,1.22-.75,3.73,1,3.5-1.05-2.55,1.78-3.67,2-4.5.48-1.83.27-3.46,1-6,.38-1.32-1.38-1.68-1-3,.25-.88,3.05-1.96,2-4.5l4,3.5c.66,2.38-.95,3.64-1,4-.42,2.9.3,6.49,0,9.5,2.04.07.64-3.19,1-4.5.14-.51,1.62-1.31,2-2,.26-.47-.19-1.31,0-1.5.57-.57,3.62.25,4,1.5.6,1.99-2.05,2.95.5,4.5.99-.69,4.59-5,5-5,.18,0,2.11,1.99,2.5,2.5.25.33,2.94,4.71,3,5,.25,1.18-.3,2.93,0,4,.14.52,2.87,2.24,3.5,2.5.54.23,1.32-.18,1.5,0,.19.19.18,4.84,0,5.5-.15.55-1.85,1.45-2,2-.49,1.77.36,4.96,0,7-.07.37-.87.59-1,1-.19.59.18,1.37,0,2-.05.17-2.33,2.45-2.5,2.5-2,.58-2.83-1-3-1-.3,0-.56.79-1,1-.51.24-2.17.32-2.5,1.5-.68,2.46,1,3.78,1,4,0,.98-2.2,1.34-2.5,1.5-4.4,2.42-5.43,2.75-10,4-.45.12-3.23,1.94-3.5,2.5-.67,1.39.73,2.27,2,1,.95-.95,1.39.72,2.5,1.5.21.15.74-.16,1,0,4.44,2.81-1.83,7.62-5.5,7l1,3c-3.88.59-.56-1.71-1-2-.27-.18-5.44-.12-6.5,0-.37.04-.64.97-1,1-5.31.45-11.13-.33-16.5,0-.08,1.1,1.83,1.87,2,2.5.67,2.43-.47,7.14,0,10,.06.38,1,.66,1,1,0,.18-2,2.82-2,3,0,.34,1,.67,1,1,0,2.11-5.77,1.27-6,1.5-.19.19.26,1.03,0,1.5-1.18,2.11-4.16,3.4-6,6-1.64,2.33-6.12,3.85-2.5,6.5.46-1.1,1.73-.82,2-1,1.36-.87,2.62-3.09,4-4,4.48-2.97,9.93-4.3,14-7,.62-.41,3.2-2.95,3.5-3.5.2-.35-.48-2.33,1.5-1.5.42.18.63.9,1,1,1.56.43,2.75-2.24,4-3,.75-.45,3.36-.86,3.5-1,.19-.19-.19-1.81,0-2,.14-.14,2.72-.56,3.5-1,1.62-.9,1.62-2.79,5-2,.38.09.59.87,1,1,.62.2,3.5.06,3.5,1.5,0,.33-.88.58-1,1-.29,1.02,1.76,2.76,1,3.5-.2.19-1.76-.2-2,0-.5.41.9,1.13,1,1.5.52,1.97-.64,2.23-1,3-.14.31.13.78,0,1-.28.47-3.26,3.43-3.5,3.5-2.9.83-2.11.95-4,2-1.64.91-3.39,2.55-6,4-.78.44-3.36.86-3.5,1-.25.25.25,2.74,0,3-.14.15-3.85.85-4,1s-.85,3.86-1,4c-.21.21-1.76-.2-2.5,0-2.71.74-4.77,3.07-7,4-2.9,1.22-.95,1.45-1.5,2-.83.83-7.69,1.51-9.5,2-.77.21-3.65,2.85-4.5,2-.46-.46,1.67-4.42-3.5-3-.24.07-3.16,2.99-3.5,3.5-1.1,1.65-5.79,10.88-6,12s.27,4.23,0,4.5c-.13.13-2.55-.12-3,1.5-.62,2.25,1.4,6.63-2.5,3.5-1.87-1.51-1.65-4.48-4.5-4,1.07-3.64,4.7-4.44,4-8.5-.61-3.55,2.33-5.63,1-10-.76-2.5,1.75-3.14,2-4,.55-1.92-.65-2.25-1-3-.14-.31.13-.78,0-1-1.14-1.92-4.96-4.14-6-6-.26-.47.19-1.31,0-1.5-.21-.21-1.76.2-2.5,0-.44-.12-1.04-1.59-3-1-.4.12-.61.89-1,1-2.52.69-9.09-7.47-11.5-9.5.4-1.14,2.47-.26,3.5-.5.39-.09.6-.89,1-1,.26-.07,3.06.96,5,1,5.46.1,1-2.58-.5-4.5-1.88-2.41-7.71-7.48-8-8-1.53-2.69-1.47-.97-2-1.5.1.05,1.1,1.91,1,2-1.78,1.5-4.63-3.74-1-2ZM154.49,54.21c-.65,0-.65,1,0,1s.65-1,0-1ZM148.99,58.21c-1.02-1.02-4.02,1.98-3,3,.11.11,2.89.11,3,0s.11-2.89,0-3ZM149.49,62.21c-.65,0-.65,1,0,1s.65-1,0-1ZM114.49,116.21c-.65,0-.65,1,0,1s.65-1,0-1ZM106.99,120.21l-3,2.5c.6,1.77-.72,2.32-1,3-.22.54.17,1.33,0,1.5-.57.57-4.81.81-5,1-.54.54,1.21.49-1.5,2-.37.2-2.45,2.33-2.5,2.5-.36,1.31,1,1.75,1,2,0,.24-2.49,2.41,0,4l1,6.5c2.48-1.12,3.01-4.33,4-6.5.49-1.08,2.85-5.29,3-6,.78-3.6-1.53-3.75,3-6l1-6.5ZM136.49,125.21c-.65,0-.65,1,0,1s.65-1,0-1ZM109.99,142.21l-8,2c-.42.34,2.08,1.37-.5,3-.95.6.27-2.53-1.5-2l1,4c1.71.41,1.98-.65,3-1.5,1.95-1.62,4.28-3.66,6-5.5Z"/>
      <path d="M93.99,108.21c.9.89-1.48,4.1-1,5.5-1.85,2.71-6.98,3.43-8,0-.72-2.42,1.33-2.78,2-4,.26-.48-.19-1.31,0-1.5.25-.25,6.75-.25,7,0Z"/>
      <path d="M100.99,101.21c1.45,1.5-4.82,4.78-4,7-2.06-.05-1.86-2.86-2-3-.13-.13-2.51.14-3-1.5-1.36-4.59,2.58-1.24,3.5-1.5.74-.21.21-1.41,2.5-.5s2.61-.9,3-.5Z"/>
      <path d="M179.99,54.21c.28.32-.61,2.74,1,3.5-1.89,1.3-.21,1.23,0,2,.36,1.32-.91,1.59-1,2-.45,1.96,1.54,6.27-2,5.5,1.21-1.63.93-2.66,1-4.5.06-1.71.29-4.52,0-6-.07-.34-.78-.56-1-1-.86-1.68,1.6-1.96,2-1.5Z"/>
      <path d="M176.99,27.21l1,6c-3.16.59-1.75-1.56-2-3.5-.12-.94-1.17-.43-2-.5l3-2Z"/>
      <path d="M16.99,89.21c-1.07-1.07,3.09-5.81,4-2.5.55,2.01-3.24,3.26-4,2.5Z"/>
      <path d="M177.99,39.21c.56.52-.67,2.77-1.5,3-1.33.37-1.6-1.7-3.5,0,.05-.76-.48-1.65.5-2,1.06-.38,3.87-1.59,4.5-1Z"/>
      <path d="M6.99,43.21c.46.42-1.95,1.44,0,2.5l-3,2.5c1.7-1.9-.37-2.17,0-3.5.22-.8,2.4-2.06,3-1.5Z"/>
      <path d="M143.99,41.21c-.19.19-4.92.79-4-1.5,1.37-3.42,5.27.23,4,1.5Z"/>
      <path d="M16.99,118.21c-7.27.71.5-4.56,1-4,.7.8-1.48,2.78-1,4Z"/>
      <path d="M173.99,44.21c.68-.68,3.44.89,3,2.5-.93,3.39-4.46-1.04-3-2.5Z"/>
      <path d="M23.99,24.21c.11.11.11,2.89,0,3-1.02,1.02-4.02-1.98-3-3,.11-.11,2.89-.11,3,0Z"/>
      <polygon points="137.99 157.21 136.99 153.71 138.99 151.21 137.99 157.21"/>
      <path d="M17.99,5.21c-.83-.83,1.67-3.78,3-4,.96,2.01-1.81,5.19-3,4Z"/>
      <path d="M174.99,1.21c.62.62.09,6.09-2,4-.62-.62-.09-6.09,2-4Z"/>
      <path d="M39.99,29.21c1,.81-3.63,3.11-5,2-1-.81,3.63-3.11,5-2Z"/>
      <path d="M38.99,57.21c1.43,1.19-4.67,1.33-5,1-1.31-1.31.52-2.54,2.5-2,.38.1.58.83,1,1,.54.22,1.3-.17,1.5,0Z"/>
      <path d="M125.99,10.21c.5.41-.93,1.16-1,1.5-.2.93.38,5.88-2,3.5-.82-.82.94-2.3,1-2.5.26-.89-.32-4.4,2-2.5Z"/>
      <path d="M11.99,105.21c1.05,1.05-1.36,4.8-2,4-.71-.88,0-6,2-4Z"/>
      <path d="M64.99.21c1.02,1.02-1.98,4.02-3,3s1.98-4.02,3-3Z"/>
      <path d="M17.99,62.21c.11.11.11,2.89,0,3-2.66,2.66-2.66-5.66,0-3Z"/>
      <path d="M35.99,171.21c-1.89,1.89-1.8-1.05-2-1.5s-1.48-1.1-1-1.5c1.22-1,3.95,2.05,3,3Z"/>
      <path d="M180.99,48.21c.11.11.11,2.89,0,3-2.66,2.66-2.66-5.66,0-3Z"/>
      <path d="M39.99,113.21c.11.11.11,2.89,0,3-2.66,2.66-2.66-5.66,0-3Z"/>
      <path d="M40.99,15.21c-1.25-.49-3.15,1.7-4,1-.8-.66,3.82-3.2,4-3,.14.15-.08,1.37,0,2Z"/>
      <path d="M27.99,65.21c-1.42,1.42-3.51-1.24-.5-3,.77-.45.65,2.85.5,3Z"/>
      <path d="M29.99,79.21c1.63,1.63-1.92,2.87-3,2-.57-.46,2.17-2.83,3-2Z"/>
      <path d="M170.99,85.21c.83.83-1.54,3.57-2,3-.87-1.08.37-4.63,2-3Z"/>
      <path d="M101.49,31.21c1.48,0,1.48,3,0,3s-1.48-3,0-3Z"/>
      <path d="M28.99,115.21c.83.83-1.54,3.57-2,3-.87-1.08.37-4.63,2-3Z"/>
      <path d="M56.99,140.21c.15.15.27,3.45-.5,3-3.01-1.76-.92-4.42.5-3Z"/>
      <path d="M50.99,123.21l-3,3c-.29-1.9,1.1-3.29,3-3Z"/>
      <path d="M48.99,183.21c-.28.34-2-1.29-2-1.5,0-.32.85-.57,1-1,.1-.27.1-2.57,1-1.5.13.15.13,3.84,0,4Z"/>
      <path d="M32.99,135.21c.83.83-1.54,3.57-2,3-.87-1.08.37-4.63,2-3Z"/>
      <path d="M81.99,48.21c1.09,1.09-.91,3.09-2,2s.91-3.09,2-2Z"/>
      <path d="M122.99,48.21c.58.5.55,2.26-1.5,2-1.25-.16.78-3.41-2.5-1l4-1Z"/>
      <path d="M181.99,45.21c-.29.36-3.3-1.36-.5-3,.74-.44.69,2.76.5,3Z"/>
      <path d="M113.99,54.21c1.09,1.09-.91,3.09-2,2s.91-3.09,2-2Z"/>
      <path d="M71.99,58.21c-.81-1,1.58-3.52,2-3,.81,1-1.58,3.52-2,3Z"/>
      <path d="M165.99,38.21c1.09,1.09-.91,3.09-2,2s.91-3.09,2-2Z"/>
      <path d="M110.99,64.21c-.29.36-3.3-1.36-.5-3,.74-.44.69,2.76.5,3Z"/>
      <path d="M25.99,152.21c1.09,1.09-.91,3.09-2,2s.91-3.09,2-2Z"/>
      <path d="M4.99,62.21c1.09,1.09-.91,3.09-2,2s.91-3.09,2-2Z"/>
      <path d="M78.99,171.21c.49.4-.81,1.07-1,1.5-.23.53.17,1.29,0,1.5-1.3,1.55-1.73-5.24,1-3Z"/>
      <path d="M67.99,9.21c-.19-.24-.24-3.44.5-3,2.8,1.64-.21,3.36-.5,3Z"/>
      <path d="M42.99,35.21c-.42.52-2.81-2-2-3,.42-.52,2.81,2,2,3Z"/>
      <path d="M115.99,35.21c1.09,1.09-.91,3.09-2,2s.91-3.09,2-2Z"/>
      <path d="M38.99,77.21c1.09,1.09-.91,3.09-2,2s.91-3.09,2-2Z"/>
      <path d="M17.99,81.21c1.09,1.09-.91,3.09-2,2s.91-3.09,2-2Z"/>
      <path d="M9.99,22.21c.52.42-2,2.81-3,2-.52-.42,2-2.81,3-2Z"/>
      <path d="M17.99,102.21c-.42.52-2.81-2-2-3,.42-.52,2.81,2,2,3Z"/>
      <path d="M42.99,97.21c1.09,1.09-.91,3.09-2,2s.91-3.09,2-2Z"/>
      <path d="M134.99,148.21c.35.25,3.72-.47,1.5,2l-2.5-5c3.06.62.86,2.9,1,3Z"/>
      <path d="M164.99,91.21l-2,2c-.26-2.11-.11-2.26,2-2Z"/>
      <path d="M106.99,90.21l-2,2c-.26-2.11-.11-2.26,2-2Z"/>
      <path d="M15.99,37.21c-1.31,1.57-1.31-4.57,0-3,.1.12.1,2.88,0,3Z"/>
      <path d="M12.99,89.21c.18.18.23,2.42-.5,2-2.89-1.68-.53-3.03.5-2Z"/>
      <path d="M125.99,34.21c.18.18.23,2.42-.5,2-2.89-1.68-.53-3.03.5-2Z"/>
      <path d="M68.99,167.21l-2,2c-.26-2.11-.11-2.26,2-2Z"/>
      <path d="M29.99,99.21c-.18.18-2.42.23-2-.5,1.68-2.89,3.03-.53,2,.5Z"/>
      <path d="M8.99,90.21c-.18.18-2.42.23-2-.5,1.68-2.89,3.03-.53,2,.5Z"/>
      <path d="M180.99,85.21l-2,2c-.26-2.11-.11-2.26,2-2Z"/>
      <path d="M29.99,85.21l-2,2c-.26-2.11-.11-2.26,2-2Z"/>
      <path d="M40.99,105.21c-1.31,1.57-1.31-4.57,0-3,.1.12.1,2.88,0,3Z"/>
      <path d="M47.99,104.21c-2.11.26-2.26.11-2-2l2,2Z"/>
      <path d="M23.99,81.21c-.18.18-2.42.23-2-.5,1.68-2.89,3.03-.53,2,.5Z"/>
      <path d="M48.99,65.21c.18.18.23,2.42-.5,2-2.89-1.68-.53-3.03.5-2Z"/>
      <path d="M75.99,149.21c.18.18.23,2.42-.5,2-2.89-1.68-.53-3.03.5-2Z"/>
      <path d="M34.99,7.21c-.18.18-2.42.23-2-.5,1.68-2.89,3.03-.53,2,.5Z"/>
      <path d="M71.99,143.21c-.18.18-2.42.23-2-.5,1.68-2.89,3.03-.53,2,.5Z"/>
      <path d="M72.99,61.21c.18.18.23,2.42-.5,2-2.89-1.68-.53-3.03.5-2Z"/>
      <path d="M45.99,122.21c.18.18.23,2.42-.5,2-2.89-1.68-.53-3.03.5-2Z"/>
      <path d="M41.99,125.21c-.17.17-.94-.2-1.5,0-.38.14-1.5,1.85-1.5.5,0-.2,2.69-2.84,3-2.5.07.07.07,1.93,0,2Z"/>
      <path d="M109.99,57.21c-2.11.26-2.26.11-2-2l2,2Z"/>
      <path d="M21.99,160.21c.18.18.23,2.42-.5,2-2.89-1.68-.53-3.03.5-2Z"/>
      <path d="M71.99,2.21l-2,2c-.26-2.11-.11-2.26,2-2Z"/>
      <path d="M28.99,26.21c-2.11.26-2.26.11-2-2l2,2Z"/>
      <path d="M17.99,51.21l-2,2c-.26-2.11-.11-2.26,2-2Z"/>
      <path d="M174.99,125.21c.18.18.23,2.42-.5,2-2.89-1.68-.53-3.03.5-2Z"/>
      <path d="M10.99,52.21c-2.11.26-2.26.11-2-2l2,2Z"/>
      <path d="M130.99.21l-2,2c-.26-2.11-.11-2.26,2-2Z"/>
      <path d="M24.99,46.21l-2,2c-.26-2.11-.11-2.26,2-2Z"/>
      <path d="M33.99,18.21c-.18.18-2.42.23-2-.5,1.68-2.89,3.03-.53,2,.5Z"/>
      <path d="M40.99,18.21l-2,2c-.26-2.11-.11-2.26,2-2Z"/>
      <path d="M86.99,47.21c-.18.18-2.42.23-2-.5,1.68-2.89,3.03-.53,2,.5Z"/>
      <path d="M66.99,157.21l-2,2c-.26-2.11-.11-2.26,2-2Z"/>
      <path d="M106.99,44.21c.18.18.23,2.42-.5,2-2.89-1.68-.53-3.03.5-2Z"/>
      <path d="M57.99,2.21c.8.67-1.24,1.64-2,1-.8-.67,1.24-1.64,2-1Z"/>
      <path d="M37.99,6.21c.8.67-1.24,1.64-2,1-.8-.67,1.24-1.64,2-1Z"/>
      <path d="M15.99,7.21c.8.67-1.24,1.64-2,1-.8-.67,1.24-1.64,2-1Z"/>
      <path d="M18.99,8.21c.8.67-1.24,1.64-2,1-.8-.67,1.24-1.64,2-1Z"/>
      <path d="M100.99,11.21c.8.67-1.24,1.64-2,1-.8-.67,1.24-1.64,2-1Z"/>
      <path d="M93.99,18.21c.8.67-1.24,1.64-2,1-.8-.67,1.24-1.64,2-1Z"/>
      <path d="M135.99,24.21c-.67.8-1.64-1.24-1-2,.67-.8,1.64,1.24,1,2Z"/>
      <path d="M153.99,24.21c-.67.8-1.64-1.24-1-2,.67-.8,1.64,1.24,1,2Z"/>
      <path d="M168.99,30.21c-.67.8-1.64-1.24-1-2,.67-.8,1.64,1.24,1,2Z"/>
      <path d="M5.99,29.21c.8.67-1.24,1.64-2,1-.8-.67,1.24-1.64,2-1Z"/>
      <path d="M150.99,29.21c.8.67-1.24,1.64-2,1-.8-.67,1.24-1.64,2-1Z"/>
      <path d="M141.99,32.21c.8.67-1.24,1.64-2,1-.8-.67,1.24-1.64,2-1Z"/>
      <path d="M4.99,37.21c-.67.8-1.64-1.24-1-2,.67-.8,1.64,1.24,1,2Z"/>
      <path d="M27.99,40.21c-.67.8-1.64-1.24-1-2,.67-.8,1.64,1.24,1,2Z"/>
      <path d="M42.99,40.21c-.67.8-1.64-1.24-1-2,.67-.8,1.64,1.24,1,2Z"/>
      <path d="M13.99,44.21c.8.67-1.24,1.64-2,1-.8-.67,1.24-1.64,2-1Z"/>
      <path d="M125.99,52.21c.8.67-1.24,1.64-2,1-.8-.67,1.24-1.64,2-1Z"/>
      <path d="M118.99,55.21c-.67.8-1.64-1.24-1-2,.67-.8,1.64,1.24,1,2Z"/>
      <path d="M102.99,54.21c.8.67-1.24,1.64-2,1-.8-.67,1.24-1.64,2-1Z"/>
      <path d="M57.99,73.21c-.67.8-1.64-1.24-1-2,.67-.8,1.64,1.24,1,2Z"/>
      <path d="M63.99,81.21c.8.67-1.24,1.64-2,1-.8-.67,1.24-1.64,2-1Z"/>
      <path d="M61.99,85.21c-.67.8-1.64-1.24-1-2,.67-.8,1.64,1.24,1,2Z"/>
      <path d="M169.99,91.21c.8.67-1.24,1.64-2,1-.8-.67,1.24-1.64,2-1Z"/>
      <path d="M169.99,101.21c-.67.8-1.64-1.24-1-2,.67-.8,1.64,1.24,1,2Z"/>
      <path d="M69.99,179.21c-.9,1.07-.9-1.23-1-1.5-.15-.43-1-.68-1-1,0-1.43,2.94,1.37,2,2.5Z"/>
      <path d="M46.99,108.21c-.67.8-1.64-1.24-1-2,.67-.8,1.64,1.24,1,2Z"/>
      <path d="M37.99,109.21c-.67.8-1.64-1.24-1-2,.67-.8,1.64,1.24,1,2Z"/>
      <path d="M64.99,124.21c-.67.8-1.64-1.24-1-2,.67-.8,1.64,1.24,1,2Z"/>
      <path d="M179.99,125.21c-.67.8-1.64-1.24-1-2,.67-.8,1.64,1.24,1,2Z"/>
      <path d="M177.99,126.21c-.67.8-1.64-1.24-1-2,.67-.8,1.64,1.24,1,2Z"/>
      <path d="M22.99,127.21c.8.67-1.24,1.64-2,1-.8-.67,1.24-1.64,2-1Z"/>
      <path d="M15.99,132.21c.8.67-1.24,1.64-2,1-.8-.67,1.24-1.64,2-1Z"/>
      <path d="M135.99,169.21c-.11.13-.67-.08-1,0,.27-1.69-2.45-4.05,0-4-.48,1.23,1.7,3.18,1,4Z"/>
      <path d="M170.99,137.21c-.67.8-1.64-1.24-1-2,.67-.8,1.64,1.24,1,2Z"/>
      <path d="M20.99,141.21c-.67.8-1.64-1.24-1-2,.67-.8,1.64,1.24,1,2Z"/>
      <path d="M144.99,145.21c.8.67-1.24,1.64-2,1-.8-.67,1.24-1.64,2-1Z"/>
      <path d="M20.99,164.21c.8.67-1.24,1.64-2,1-.8-.67,1.24-1.64,2-1Z"/>
      <path d="M155.99,147.21c-.67.8-1.64-1.24-1-2,.67-.8,1.64,1.24,1,2Z"/>
      <path d="M21.99,150.21c.8.67-1.24,1.64-2,1-.8-.67,1.24-1.64,2-1Z"/>
      <path d="M81.99,156.21c-.67.8-1.64-1.24-1-2,.67-.8,1.64,1.24,1,2Z"/>
      <path d="M164.49,158.21c.65,0,.65,1,0,1s-.65-1,0-1Z"/>
      <path d="M37.49,156.21c.65,0,.65,1,0,1s-.65-1,0-1Z"/>
      <path d="M130.49,155.21c.65,0,.65,1,0,1s-.65-1,0-1Z"/>
      <path d="M20.49,153.21c.65,0,.65,1,0,1s-.65-1,0-1Z"/>
      <path d="M128.49,149.21c.65,0,.65,1,0,1s-.65-1,0-1Z"/>
      <path d="M11.49,149.21c.65,0,.65,1,0,1s-.65-1,0-1Z"/>
      <path d="M168.49,147.21c.65,0,.65,1,0,1s-.65-1,0-1Z"/>
      <path d="M152.49,146.21c.65,0,.65,1,0,1s-.65-1,0-1Z"/>
      <path d="M24.49,164.21c.65,0,.65,1,0,1s-.65-1,0-1Z"/>
      <path d="M159.49,140.21c.65,0,.65,1,0,1s-.65-1,0-1Z"/>
      <path d="M170.49,139.21c.65,0,.65,1,0,1s-.65-1,0-1Z"/>
      <path d="M156.49,131.21c.65,0,.65,1,0,1s-.65-1,0-1Z"/>
      <path d="M170.49,130.21c.65,0,.65,1,0,1s-.65-1,0-1Z"/>
      <path d="M24.49,125.21c.65,0,.65,1,0,1s-.65-1,0-1Z"/>
      <path d="M8.49,125.21c.65,0,.65,1,0,1s-.65-1,0-1Z"/>
      <path d="M22.49,123.21c.65,0,.65,1,0,1s-.65-1,0-1Z"/>
      <path d="M18.49,123.21c.65,0,.65,1,0,1s-.65-1,0-1Z"/>
      <path d="M37.49,122.21c.65,0,.65,1,0,1s-.65-1,0-1Z"/>
      <path d="M164.49,119.21c1.42,0-1.5,2.92-1.5,1.5,0-.11,1.39-1.5,1.5-1.5Z"/>
      <path d="M65.49,120.21c.65,0,.65,1,0,1s-.65-1,0-1Z"/>
      <path d="M32.49,119.21c.65,0,.65,1,0,1s-.65-1,0-1Z"/>
      <path d="M177.49,116.21c.65,0,.65,1,0,1s-.65-1,0-1Z"/>
      <path d="M128.49,115.21c.65,0,.65,1,0,1s-.65-1,0-1Z"/>
      <path d="M171.49,113.21c.65,0,.65,1,0,1s-.65-1,0-1Z"/>
      <path d="M146.49,112.21c.65,0,.65,1,0,1s-.65-1,0-1Z"/>
      <path d="M56.99,14.21c.67-.73-1.31-8.11,1.5-9,1.55-.49,2.63,1.91,3,3,.54,1.57.37,3.85.5,4,2.48,2.94,1.75-4.95,2.5-5l4.5,4.5c.56,1.84,1.08,5.02,3,3l3-9c1.82-1.89,1.91.44,3,2,.72,1.03,2.66,2.74,3,4,.5,1.83.5,5.18,1,7,.15.55,1.84,1.44,2,2,.35,1.22.82,2.33,1,3s-2.19,6.31-2,7c.11.4.91.62,1,1,.58,2.58-.55,3.59-1,5-.19.59.18,1.37,0,2-.15.51-1.62,1.31-2,2-.26.47.19,1.31,0,1.5-.14.15-3.86.85-4,1-.22.22.21,1.78,0,2.5-.15.51-6.99,7.35-7.5,7.5-1.77.51-3.28-1.27-3.5-1-.11.14-.14,2.9,0,3.5.09.39.89.6,1,1,.36,1.32-.88,1.56-1,2-.89,3.21.88,2.15,1.5,2.5,1.84,1.04,1.37,2.87,1.5,3,.19.19,4.84.18,5.5,0,1.51-.42,1.72-3.01,1.5-4.5,1.74-.98,1.78-6,3.5-6.5s3.61.68,3.5,2.5l3,3.5-1-8c4.03-.53,2.45.51,3,1.5.38.69,1.85,1.49,2,2,.19.65-.22,1.46,0,2,.26.64,1.52.85,1,2.5,1.49-.55,2.32,1.01,2.5,1,.51-.02,2.01-2.69,2.5-3.5.18-.3,1.22-3.46,2-2.5.17.2-.33,1.65.5,3,1.36,2.21,2.47,1.56,4,2,.46.13,3.29,4.75,3.5,5.5.23.85-.23,2.15,0,3,.47,1.72,1.98-.26,1,4-.58,2.53,1.47,4.25,1,7-.07.38-1,.67-1,1,0,.25,1.36.69,1,2-1.03,3.75-8.57,2.07-9,2.5-.17.17.22.96,0,1.5-.28.67-1.58,1.09-1,3,.12.38.82.58,1,1,.81,1.94-.99,1.29-1.5,1.5-.42.18-.62.89-1,1-.73.21-2.29-.21-2.5,0-.18.18.23.97,0,1.5-.18.4-1.46,1.08-1,1.5.12.11,3.03.21,3,1.5-.02.85-7.27,4.27-8,6,.94,3.91-2.92,6.75-4,2-.71-3.13-2.18-6.12-3-9-.29-1.03,1.75-2.68,1-4.5-3.65-.86-1.35,3.36-2,4-.89.87-5.94-4.04-7-.5-.45,1.5,1.79,2.27,2,3,1.41,4.95,2.14,2.64,3,3.5.92.92-1.47,3.9-1,5.5.15.51,2.28,2.52,1.5,3.5-.77-2.26-4.32-1.82-4.5-2s.26-1.03,0-1.5c-.56-1-4.86-5.61-6-7-.81-.99-3.84-3.43-4-4-.22-.81.16-2.05,0-3-.07-.38-1-.67-1-1s.94-.62,1-1c.25-1.51-.35-3.71,0-5,.33-1.2,5.65-2.66,5-5-.11-.4-.91-.62-1-1-.38-1.69.32-4.2,0-6-.06-.35-.82-.57-1-1-.22-.54.17-1.33,0-1.5s-.96.23-1.5,0c-2.52-1.05-5.23-3.84-8-5-.54-.23-1.33.17-1.5,0-.21-.21.2-1.76,0-2.5-.11-.41-.94-.63-1-1-.14-.92-.19-5.31,0-5.5.37-.37,5.63.37,6,0,.16-.16.17-3.89,0-4.5-.05-.17-2.33-2.45-2.5-2.5-1.54-.42-2.23,1.78-3,2-2.64.76-3.39-2.44-5-2-.29.08-1.5,1.84-1.5.5,0-.25,1.36-.69,1-2-.13-.48-.8-2.51-1-3-.16-.39-.81-.59-1-1s-.54-2.49-1.5-2.5c-.25,0-1.09,1.5-1.5,1-.82-1,.93-2.24,1-2.5.33-1.19-1.84-3.25-2-4-.42-1.96-.88-9.87-1-12-.33-5.69-.95-12.27,2.5-16.5,1.17-.62-1.02-1.54-.5-2,2.02-1.78,1.79,1.15,2,1.5.51.86,3.13,3.3,4,2.5.51-.47-1.67-1.38-.5-2,.59-.86.68-3.96,2-4,2.34-.07,1.13,7.13,1.5,8.5.22.83,2.49,2.06,3,1.5ZM66.99,49.21c.7-.68-1.45-2.8-1-4-1.48-.86-1.2,3.8-1,4,.07.07,1.93.07,2,0ZM79.49,59.21c-.65,0-.65,1,0,1s.65-1,0-1ZM95.99,62.21c-.76-.64-2.8.33-2,1,.76.64,2.8-.33,2-1ZM67.99,63.21c-1.03-1.03-3.39.32-.5,2,.73.42.68-1.82.5-2ZM87.49,64.21c-.65,0-.65,1,0,1s.65-1,0-1ZM75.99,83.21c-1.03-1.03-3.39.32-.5,2,.73.42.68-1.82.5-2ZM68.49,85.21c-.65,0-.65,1,0,1s.65-1,0-1ZM81.49,89.21c-.65,0-.65,1,0,1s.65-1,0-1ZM87.99,91.21c-1.02-1.02-4.02,1.98-3,3s4.02-1.98,3-3Z"/>
      <path d="M50.49,109.21c.65,0,.65,1,0,1s-.65-1,0-1Z"/>
      <path d="M16.49,173.21c.65,0,.65,1,0,1s-.65-1,0-1Z"/>
      <path d="M34.49,104.21c.65,0,.65,1,0,1s-.65-1,0-1Z"/>
      <path d="M30.49,104.21c.65,0,.65,1,0,1s-.65-1,0-1Z"/>
      <path d="M34.49,98.21c.65,0,.65,1,0,1s-.65-1,0-1Z"/>
      <path d="M19.49,98.21c.65,0,.65,1,0,1s-.65-1,0-1Z"/>
      <path d="M172.49,95.21c.65,0,.65,1,0,1s-.65-1,0-1Z"/>
      <path d="M116.49,88.21c.65,0,.65,1,0,1s-.65-1,0-1Z"/>
      <path d="M.49,85.21c.65,0,.65,1,0,1s-.65-1,0-1Z"/>
      <path d="M177.49,80.21c.65,0,.65,1,0,1s-.65-1,0-1Z"/>
      <path d="M58.49,80.21c.65,0,.65,1,0,1s-.65-1,0-1Z"/>
      <path d="M33.49,78.21c.65,0,.65,1,0,1s-.65-1,0-1Z"/>
      <path d="M50.49,77.21c.65,0,.65,1,0,1s-.65-1,0-1Z"/>
      <path d="M173.49,76.21c.65,0,.65,1,0,1s-.65-1,0-1Z"/>
      <path d="M19.49,75.21c.65,0,.65,1,0,1s-.65-1,0-1Z"/>
      <path d="M3.49,72.21c.65,0,.65,1,0,1s-.65-1,0-1Z"/>
      <path d="M181.49,69.21c.65,0,.65,1,0,1s-.65-1,0-1Z"/>
      <path d="M110.49,68.21c.65,0,.65,1,0,1s-.65-1,0-1Z"/>
      <path d="M19.49,67.21c1.42,0-1.5,2.92-1.5,1.5,0-.11,1.39-1.5,1.5-1.5Z"/>
      <path d="M27.49,67.21c.65,0,.65,1,0,1s-.65-1,0-1Z"/>
      <path d="M115.49,64.21c.65,0,.65,1,0,1s-.65-1,0-1Z"/>
      <path d="M38.49,62.21c.65,0,.65,1,0,1s-.65-1,0-1Z"/>
      <path d="M52.49,54.21c.65,0,.65,1,0,1s-.65-1,0-1Z"/>
      <path d="M171.49,51.21c.65,0,.65,1,0,1s-.65-1,0-1Z"/>
      <path d="M94.49,51.21c.65,0,.65,1,0,1s-.65-1,0-1Z"/>
      <path d="M113.49,50.21c.65,0,.65,1,0,1s-.65-1,0-1Z"/>
      <path d="M162.49,46.21c.65,0,.65,1,0,1s-.65-1,0-1Z"/>
      <path d="M17.49,46.21c.65,0,.65,1,0,1s-.65-1,0-1Z"/>
      <path d="M116.49,44.21c.65,0,.65,1,0,1s-.65-1,0-1Z"/>
      <path d="M153.49,40.21c.65,0,.65,1,0,1s-.65-1,0-1Z"/>
      <path d="M135.49,40.21c.65,0,.65,1,0,1s-.65-1,0-1Z"/>
      <path d="M126.49,38.21c.65,0,.65,1,0,1s-.65-1,0-1Z"/>
      <path d="M155.49,37.21c.65,0,.65,1,0,1s-.65-1,0-1Z"/>
      <path d="M35.49,37.21c.65,0,.65,1,0,1s-.65-1,0-1Z"/>
      <path d="M177.49,36.21c.65,0,.65,1,0,1s-.65-1,0-1Z"/>
      <path d="M91.49,36.21c.65,0,.65,1,0,1s-.65-1,0-1Z"/>
      <path d="M8.49,34.21c.65,0,.65,1,0,1s-.65-1,0-1Z"/>
      <path d="M137.49,32.21c.65,0,.65,1,0,1s-.65-1,0-1Z"/>
      <path d="M96.49,32.21c.65,0,.65,1,0,1s-.65-1,0-1Z"/>
      <path d="M10.49,31.21c.65,0,.65,1,0,1s-.65-1,0-1Z"/>
      <path d="M114.49,30.21c.65,0,.65,1,0,1s-.65-1,0-1Z"/>
      <path d="M119.49,28.21c.65,0,.65,1,0,1s-.65-1,0-1Z"/>
      <path d="M96.49,27.21c.65,0,.65,1,0,1s-.65-1,0-1Z"/>
      <path d="M9.49,26.21c.65,0,.65,1,0,1s-.65-1,0-1Z"/>
      <path d="M87.49,24.21c.65,0,.65,1,0,1s-.65-1,0-1Z"/>
      <path d="M146.49,22.21c.65,0,.65,1,0,1s-.65-1,0-1Z"/>
      <path d="M22.49,18.21c.65,0,.65,1,0,1s-.65-1,0-1Z"/>
      <path d="M95.49,15.21c.65,0,.65,1,0,1s-.65-1,0-1Z"/>
      <path d="M136.49,13.21c.65,0,.65,1,0,1s-.65-1,0-1Z"/>
      <path d="M84.49,13.21c.65,0,.65,1,0,1s-.65-1,0-1Z"/>
      <path d="M129.49,12.21c.65,0,.65,1,0,1s-.65-1,0-1Z"/>
      <path d="M111.49,10.21c.65,0,.65,1,0,1s-.65-1,0-1Z"/>
      <path d="M173.49,7.21c.65,0,.65,1,0,1s-.65-1,0-1Z"/>
      <path d="M164.49,5.21c.65,0,.65,1,0,1s-.65-1,0-1Z"/>
      <path d="M98.49,5.21c.65,0,.65,1,0,1s-.65-1,0-1Z"/>
      <path d="M22.49,5.21c.65,0,.65,1,0,1s-.65-1,0-1Z"/>
      <path d="M107.49,3.21c.65,0,.65,1,0,1s-.65-1,0-1Z"/>
      <path d="M148.49,1.21c.65,0,.65,1,0,1s-.65-1,0-1Z"/>
      <path d="M97.49,133.21c.65,0,.65,1,0,1s-.65-1,0-1Z"/>
    </g>
  </g>
</svg>