<?xml version="1.0" encoding="UTF-8"?>
<svg id="Layer_2" data-name="Layer 2" xmlns="http://www.w3.org/2000/svg" viewBox="0 0 170.33 174.46">
  <g id="Elements">
    <g id="Element">
      <path d="M130.16,46.39l-2.5,3c-1.59.97-3.24.64-5,1-.38.08-.59.88-1,1-1.25.36-1.87-1.52-3.5-1,.85-.85.89-2.89,1-3,.25-.24,2.55.19,3.5,0,.39-.08.63-.95,1-1,2.04-.26,4.4.18,6.5,0Z"/>
      <path d="M122.16,71.39c-.08.08-.95,0-1.5,0-3.64,0-.25-2.41.5-3.5.17-.24-.15-.8,0-1,.65-.87,1.93-2.17,3-2.5.66,2.42-1.33,3.9-2,5.5-.23.54.18,1.32,0,1.5Z"/>
      <path d="M125.16,60.39c.83.83-1.54,3.57-2,3-.87-1.08.37-4.63,2-3Z"/>
      <path d="M89.16.39c.18.18.71,4.05,2,4.5-.79,3.23,1.63,6.6,2,9,.19,1.26-.28,5.22,0,5.5.21.21,4.51.91,4,3.5,1.56,1.08,1.56,6.93,3.5,7.5,4.13,1.21,1.36-2.58,3.5-4.5.36-3.38,1.09-6.82,2-10,.05-.17,2.32-2.5,2.5-2.5.22,0,3.37,2.02,3.5,2.5.36,1.32-.85,1.52-1,2-.55,1.7-.57,4.56-1,6-1.06,3.55-3.83,8.15-5,12-.73,2.39-1.46,6.29-1,9,.07.39,1.55.9,1,2.5,1.25.57,2.7-1.33,3-1,.76.83-1.29,2.44-1,3.5,1.53,5.48.7,13.57-1,19-.58,1.84,1.3,2.77,1,4.5.85-.85,2.89-.89,3-1,.17-.18-.22-.96,0-1.5.18-.43.94-.65,1-1,.22-1.22-.29-2.94,0-4,.15-.55,1.85-1.45,2-2,.55-2-.41-5.69,0-8,.07-.37.87-.59,1-1,.2-.63.06-3.49,1.5-3.5.35,0,2.5,3.28,2.5,3.5,0,.33-.94.62-1,1-.4,2.41.36,5.54,0,8-.05.37-.91.61-1,1-.2.91.24,2.2,0,3-.11.38-.83.58-1,1-.22.54.17,1.33,0,1.5-.19.19-1.03-.26-1.5,0-1.6.89-3.6,3.34-1.5,4.5l.5,11.5,3.5-8.5c1.07-.86,2.13-2.88,3.5-2.5.37.1.58.82,1,1,1.98.83,1.3-1.15,1.5-1.5.39-.69,1.62-1.31,2-2,1.04-1.9,1.44-4.04,2-6,.2-.69,3-2.53,3-3,0-.33-1-.66-1-1,0-.4,2.64-5.65,3-7,.47-1.74-1.11-2.99,2-2.5-1.62,1.85-.61,3.75-1,5.5-.05.21-.76.47-1,2-.32,2.09,1.59,1.98,2,1.5.29-.35-.21-3.35,0-4.5.78-4.22,3.81-10.54,5-15,1.1-4.12.84-9.38,3-13,3.49-5.86,8.79-6.29,11-14,.07-.24,3.25-3.5,3.5-3.5.33,0,.58.88,1,1,1.02.29,2.76-1.76,3.5-1,.12.13.14,2.84,0,3.5-.95,4.62-2.11,10.48-4,15-2.19,5.24-5.62,9.99-7.5,15.5-.39,1.14-.83,2.3-.5,3.5.13.48,3.28,2.5,3.5,2.5.15,0,2.13-1.23,2.5-1.5,2.23-1.64,9.28-10.15,10.5-10.5,1.03-.29,2.68,1.75,4.5,1-1.13,1.3-.7,2.43-1,3.5-.7,2.47-.53,4.28-1,6-.15.55-1.85,1.45-2,2s-.12,3.38,0,3.5c.22.22,3.28-1.14,2,3.5-.14.51-1.63,1.31-2,2-.29.55-.72,2.58-1,3-2.61,3.93-9.68,6.85-13.5,9.5-4.35,3.02-6.82,6.42-12,8-2.63.8-6.03.46-8,1-.37.1-5.39,5.13-5.5,5.5-.19.66.23,1.5,0,2-.35.74-1.7,2.29-2,3-.23.54.17,1.33,0,1.5s-.96-.22-1.5,0c-.41.17-.61.86-1,1-.58.21-1.38-.2-2,0-.41.13-.61.89-1,1-1.12.31-2.96-1.57-4-2-.91-.38-1.86.83-1.5-1.5l-5-4.5c-.23,1.7.34,3.94,0,5.5-.08.36-2,2.82-2,3,0,.34.94.62,1,1,.22,1.33-.43,5.42,1.5,5.5.53.02,3.55-3.48,2.5,2.5-.6,3.43-2.28,18.37-1,23,.21.75,2.42,1.46,2,3-.05.19-1.82,1.68-1,2.5.22.22,3.28-1.14,2,3.5-.26.93-2.94,1.59-2,5,1.68.48,1.65,4.34,3.5,3.5,2.61-1.19,1.17-7.86,1.5-10.5.05-.37.93-.62,1-1,.22-1.23-.26-2.85,0-4,.08-.36.8-.57,1-1,1.96-4.3,6.14-5.2,9-9,1.72-2.29,4.74-8.24,6-11,2.09-4.59,3.16-11.39,5-16,.16-.39.81-.59,1-1,.15-.31-.13-.8,0-1,1.37-2.15,4.75-2.2,6,0,.2.36-.52,2.31,1.5,1.5.56-.22,1.3-1.52,2-2,4.52-3.08,8.81-7.51,14-9,.94-.27,3.14-4.02,6-4s2.89,3.34,2.5,5.5c-.09.47-1.64,3.19-2,4-1.4,3.1-4.45,8.8-7.5,10.5-2.13,1.19-2.52,2.84-5,5-6.52,5.68-11.93,7.55-14.5,16.5-.88,3.07-14.58,17.02-18,20-.79.69-2.02,2.63-3,1,1.51-.83,1.72-2.52,2.5-3.5,3.91-4.89,10.67-9.37,11.5-15.5l3-5,.5-3.5c-.87,1.39-2.8,3.3-3.5,4.5-1.08,1.85-1.89,5.28-3,7-.35.55-8.9,8.16-9.5,8.5-.47.26-1.31-.19-1.5,0s.26,1.03,0,1.5c-.38.69-1.85,1.49-2,2-.18.63.19,1.41,0,2-.13.41-.93.63-1,1-.27,1.51.23,3.45,0,5-.4,2.66-.51,8.22-1,10-.09.33-2.76,2.9-3,4-.7,3.24.81,9.06,0,12-.61,2.2-4.21.73-5.5,2.5-1.93.55-4.77-2.28-6.5-3.5-1.58-2.11-2.6-5.83-4-8-1.46-2.28-3.37-2.89-6-2.5,0-1.23,2.99-2.97,3-3.5.01-.98-2.32-1.37-2.5-1.5-1.1-.78-3.32-3.81-4-4-3.86-1.06-4.36-1.37-8-3-6.72-3.01-14.91-5.33-22-8-5.56-2.09-9.36-2.72-15-4-4.4-1-7.19-4.03-11-6-.79-.41-3.36-.87-3.5-1-.1-.09.28-1.99-1-2.5l3-1.5c-3.13.08-3.57-3.99-7-3-.01,1.13,1.62,1.72,2,2.5.83,1.7-1.59,1.96-2,1.5-.14-.15.47-1.57-1-2.5-1.02-.65-3.64-1.78-4-3-.37-1.29,1.48-2.09,1-2.5-.22-.18-1.03.26-1.5,0-.87-.49-2.13-2.43-1.5-3,.2-.19,4.85-.18,5.5,0,.93.26,1.59,2.94,5,2l4.5-4,5.5,6c3.56,2.67,7.07,6.31,13,8,.29.08,3.27,3,4,3,.38,0,1.63-2,2-2,.34,0,3.09,3.32,4,4,2.82,2.12,7.02,3.5,10,5,2.67,1.34,4.2,4.05,8,3,1.72-.47,1.23-2.68,1.5-3.5.13-.41.89-.61,1-1,.2-.74-.21-2.27,0-2.5.11-.12,3.03-.2,3-1.5,0-.25-3.02-3.21-3.5-3.5-2.16-1.29-4.02-.57-6-1-3.01-.65-12.66-5.47-16-7-3.96-1.82-6.04-2.93-10-4-.82-.22-1.57-2.69-3.5-2l2.5-3c1.55.21,3.59-.31,5,0,.37.08.57.83,1,1,4.29,1.7,6.69,4.13,10.5,6.5,1.2.75,2.65.43,4,1.5.2-1.73.08-3-1.5-4-.79-.5-3.34-1.51-4-2-3.53-2.62-8.47-9.06-13-8-.4.09-.63.95-1,1-4.21.63-9.12-1.97-13-4-5.45-2.86-8.99-6.36-15-8-.29-.08-4.67-2.75-5-3-1.15-.87-9.31-8.86-9.5-9.5-.84-2.78,1.01-3.11,3.5-2.5.37.09.58.84,1,1,5.34,2,9.7,4.98,14,8,4.94,3.47,10.34,6.36,15.5,9.5.95.58,3.36,1.1,4,0-1.92-1.62-3.57-3.99-5.5-5.5-2.25-1.76-10.6-7.89-13-9-6.43-2.98-11.74-6.42-15.5-12.5-2.34-3.79-5.55-6.98-7-11-.4-1.11-1.72-.23-2-.5-.68-.64.88-3.45,2.5-3,.4.11.62.92,1,1,.92.19,2.18-.23,3,0,.6.16,4.82,4.95,6,6,.19.17.82-.16,1,0,3.5,3.17,6.51,8.47,10,10,.55.24,1.42-.23,2,0,2.03.81,3.04,2.69,6,2,.38-.09.59-.87,1-1,1.69-.53,3.79,1.67,4.5,1,.88-.82-.98-2.37-1.5-3-3.32-3.99-5.87-7.35-8.5-11.5-1.38-2.19-5.38-2.89-8-7-.86-1.34-5.52-3.26-6-5-.18-.65-.19-5.3,0-5.5,1.41-1.44,9.31,4.27,10.5,6,1.47-2.12,2.56-.16,4.5.5,5.36,1.83,4.21-.15,3-4s-3.18-9-4-13c-.14-.66-.12-3.37,0-3.5,1-1.04,3.27.95,3.5,1,.94.2,3.26-.24,3.5,0,.19.19-.26,1.03,0,1.5.52.93,2.22,1.98,3,3,.56.73,1.99,4.05,3.5,4.5.72.21,2.29-.21,2.5,0,.18.18-.23.96,0,1.5.18.42.89.62,1,1,.38,1.32-1.38,1.68-1,3,.16.56,1.84,1.44,2,2,.54,1.87,1.82,4.19,2,5,.21.94-.25,3.25,0,3.5.21.21,1.78-.21,2.5,0,.37.11,4.93,4.18,6,5,3.61,2.78,4.28.11,3.5-3.5-.48-2.23-4.85-8.24-6-11-1.69-4.05-1.14-7.88-2-11-.54-1.95-2.48.18-1-5,.25-.88-1.98-3.51-1-4.5.81-.82,3.94,1.85,4.5,2,.86.23,2.18-.24,3,0,.38.11.58.83,1,1,.54.22,1.33-.17,1.5,0,.19.19-.26,1.03,0,1.5.38.69,1.57,1.29,2,2,.11.18.89,1.72,1,2,1.34,3.35.28,7.39,1,10,.15.55,1.85,1.45,2,2,.73,2.63-1,5.68-1,6s.84.57,1,1c1.06,2.93,1.46.96,2,1.5,1.23,1.23.71,6.44,1,8.5.4,2.88,1.33,6.88,2,10,.89,4.17,3.03,8.83,4,13,1.41,6.06,3.3,12.08,5,18,1.15,4,1.21,7.29,4,11,.38.51,2.32,2.49,2.5,2.5.76.04,1.62-1.44,1-3-1.49-3.74-1.21-6.58-2.5-9.5-.32-.73-1.69-2.28-2-3-4.5-10.37-6.37-22.04-8-33-.51-3.42-.19-5.43,2.5-7.5.98-.75,1.43-1.47,3-1,.24.07,3.43,3.26,3.5,3.5.19.66-.23,1.5,0,2,.29.62,1.92,2.64,2,3,.43,1.98-.37,4.92,0,7,.07.37.87.59,1,1,.19.59-.18,1.37,0,2,.39,1.36,7.07,6.66,8.5,7.5.78,1.76,2.53-.12,2.5-.5-.07-.87-2.92-3.71-3-4-1.92-7-4.72-14.01-8-21-2.84-6.07-5.17-13.58-9-20-1.42-2.39-7.56-8.39-8-10-1.1-4.02.63-3.01,1.5-3.5,3.5-1.99.05-7.56.5-8,1.13-1.1,4.15,1.18,5,2.5.15.24-.15.77,0,1,4.12,6.37,8.43,11.25,9,19l3,3.5c-.18-1.76.26-3.82,0-5.5-.48-3.08-2.79-5.92-4-9-.4-1.02-.59-4.02-1-5-1.61-3.89-3.97-6.8-5-11-.77-3.12-.39-7.3-1-10-.09-.4-1.36-.68-1-2,.66-2.4,2.33-.53,2.5-.5,1.52.26,4.43-.55,6-1,.48-.14,2.96-3.5,4.5-2ZM85.16,14.39c-.84-2.27,1.49-4.82,1-6.5-.19-.64-4.2-4.42-5-3.5-1.56,1.79,2.96,6.13,3,6.5.02.2-2.61,2.32,1,3.5ZM96.16,52.39c-.5-4.12.7-9.6,0-13.5-.06-.35-1.94-3.64-2-4-.23-1.25.57-6.5-1.5-6.5-1.75,0-1.69,5.27-1.5,6.5.34,2.28,1.72,6.76,2,9,.44,3.49-1.3,6.78,3,8.5ZM59.16,44.39c-3.42-1.11-1.47-5.11-2-7.5-.08-.38-.87-.59-1-1-.52-1.61.26-3.8-3-3.5v4.5c1.05,1.25,2.42,3.53,2,5-1.07,3.72,1.49,3.26,2,5,.4,1.36.6,3.64,1,5,.12.4,1.75,1.81,2,1.5-.32-1.71.49-2.98,1-4.5.44-1.32,1.14.69,2,.5.98-2.86-1.8-1.74-2-2-.81-1.06,1-2.35,1-2.5,0-.3-.8-.56-1-1-.44-.96-.41-2.72-2.5-2.5l.5,3ZM147.16,35.39l-4,3.5c-.19,2-.83,4.61-2,6l-1,7.5c.96-.3,2.54-1.72,3-2.5,1.57-2.64,1.1-7.43,3-10-.83-1.5,1.16-4.33,1-4.5ZM102.16,49.39c.29-2.07-.22-3.65-1-5.5-.66-1.58-.68-2.87-3-2.5l1,5.5,3,2.5ZM43.16,58.39l-1-6.5c-1.54-1.57-.9-4.12-2-6l-4-3.5c-.22,4.29,3.97,7.46,4,11.5l3,4.5ZM162.16,51.39c-.75-.82-2.91,1.2-3.5,2-5.21,7.1-12.26,8.03-14.5,16.5-.3,1.13-3.47,1.48-.5,3.5,2.95-3.3,7.97-5.18,9.5-9.5,1.81-1.9,11.22-10.07,9-12.5ZM48.16,81.39c.8-.88-4.87-9.56-5-11.5-2.3-2.8-4.05-7.68-5-11-.1-.36-3.79-4.95-4.5-5.5-.95-.73-2.8-1.71-3.5-1s1.67,3.21,1,4.5c3.53,6.81,7.46,14.14,12,21,.51.77,4.11,4.47,5,3.5ZM148.16,54.39l-6,5.5c-1.96,4.05-4.78,7.76-6,12-.72,2.5-5.17,2.89-7.5,2.5-.47-.08-.89-2.06-2.5.5s-3.54,4.85-6.5,6.5c-.47.26-1.3-.19-1.5,0-.1.09.28,1.99-1,2.5-1.59.77-.29,2.28.5,2.5,1.67.46,3.03-2.72,4-3,1.36-.4,3.64-.6,5-1,.73-.21,2.27-2.78,3-3s2.29.21,2.5,0c.19-.19-.26-1.03,0-1.5,1.91-3.43,5.75-2.25,6-2.5.21-.21-.21-1.78,0-2.5s3.36-4.86,4-6c1.47-2.61,2.04-5.03,5-7l1-5.5ZM101.16,79.39l-.5-5c-.16-2.29-1.11-4.69-1.5-6.5-.46-2.11.05-3.1-1.5-5.5-.73-1.13-3.14-1.37-3.5-1-.16.16-.13,3.69,0,4.5.06.38.93.62,1,1,.59,3.2.82,5.86,2,9l4,3.5ZM77.16,113.39c.57-.57-2.89-6.86-2-8.5-3.78-9.34-7.44-19.82-13-28-2.61-3.83-6.28-7.19-9-11-.14-.2.16-.74,0-1-.79-1.25-3.34-2.2-4-1.5-.19.2-.17,4.72,0,5.5.4,1.84,4.1,6.72,5,9,1.38,3.49,3.06,8.73,4,12,.37,1.28,7.6,6.88,9,9,.55.83,2.89,6.46,3,7,.24,1.16-.16,2.73,0,4,.74,1.44,5.87,4.63,7,3.5ZM105.16,77.39c-.07-.07-1.92-.07-2,0-.49.4.81,1.07,1,1.5.08.18.09,2.59,1,1.5.1-.12.11-2.89,0-3ZM108.16,88.39c.1-.12.1-2.88,0-3-1.31-1.57-1.31,4.57,0,3ZM49.16,92.39c-2.69,2.03-7.5-7.18-10-5-.18.16,1.6,3.42,2.5,4,.45.29,2.45.7,3,1,.69.37,1.49,1.86,2,2,1.4.38,2.45.52,4,1,2.29.7,3.14-.32,2.5-2.5-.54-1.84-4.06-.71-3-3.5-4.07-.63-.76,2.82-1,3ZM105.16,87.39c-.13-.13-1.36.07-2,0,.45,1.2-1.7,3.32-1,4,1.37,1.33,4.22-2.78,3-4ZM153.16,100.39l1.5-6-8.5,9c1.85-.16,3,1.07,3-1.5,0-.85,3.77-1.27,4-1.5ZM99.16,127.39c-.38-1.74,1.59-3.38,2-4.5.52-1.43,2.25-9.91,2-11-1.09-4.65-.79-3.66,0-8,.15-.82.19-3.31,0-4-.07-.24-3.26-3.43-3.5-3.5-1.99-.57-2.46.82-3,1-1.26.41-5.67,2.09-6,2-.41-.11-.67-1-1-1-.18,0-2.5,2.32-2.5,2.5s1.92,2.64,2,3c1.15,5.3.55,11.43,3,17,2,3.13,2.56,6.28,7,6.5ZM100.16,129.39h-5.5l-4.5,1.5c1.63,2.6,2.15.1,3.5.5.4.12.62.91,1,1,2.31.53,5.84.2,5.5-3ZM86.66,131.39c-1.48,0-1.48,3,0,3s1.48-3,0-3ZM107.16,171.39c-.17-1.44.65-2.05,1-3.5.44-1.8,1.3-6.35,1-8-1.01-5.52-.35-5.31,0-10,.18-2.36.47-10.28,0-12-.64-2.33-6.09-5.36-8-2-.27.47.19,1.31,0,1.5-.34.34-4.66-.34-5,0-.19.19.26,1.03,0,1.5-.54.97-2.27,1.97-3,3-.67,2.6,2.07,4.32,3,6,.26.47-.19,1.31,0,1.5.3.3,3.7-.3,4,0,.23.23.17,5.56,0,6.5-.07.37-.87.59-1,1-1.09,3.57,6.02,8.24,5,12l3,2.5ZM84.16,139.39l-2-2c-.26,2.11-.11,2.26,2,2ZM86.16,141.39c-.78-.78-3.9-.52-3,2.5,1.01,3.4,4.43-1.07,3-2.5ZM90.16,142.39c-.76-.64-2.8.33-2,1,.76.64,2.8-.33,2-1Z"/>
    </g>
  </g>
</svg>