<?xml version="1.0" encoding="UTF-8"?>
<svg id="Layer_2" data-name="Layer 2" xmlns="http://www.w3.org/2000/svg" viewBox="0 0 178.11 181.66">
  <g id="Elements">
    <g id="Element">
      <path d="M105.02,8.48c.25.25,2.43-.23,3.28,0,1.93.53,5,9.81,7.95,5.15.59-.93,1.34-1.93,1.87-2.81.35-.59-.62-2.29,2.34-1.4,1.6.48,3.68,4.4,4.21,6.08.19.58-.28,2.21,1.4,1.4,2.19-1.04,3.75-2.48,5.61-3.74,4.76-3.22,7.29-2.73,12.16-4.68,1.03-.41,5.7-4.16,6.08-3.74.18.2-.18,1.7,0,1.87.27.27,3.18-.23,4.21,0,.38.08.64,1.28,1.87.94.71-.19,1.36-2.27,2.81-1.87.78.21,2.51,3.57,2.34,4.21-.76,2.74.9,1.95.94,2.81,0,.13-1.72,1.49-.94,2.34.27.3,4.98-4.14,3.74,3.28-.16.96-.99-.25,0,1.87,1.44,3.06,1.04,5.74,1.87,8.42.86,2.78,1.6,10.01.94,13.1-.07.34-1.64,2.25-1.87,2.81-.37.88-1.45,3.69-.94,4.21.23.23,2.59-.55,3.28.94,3.06-.46,5.08.23,7.49.94,1.2.35,1.96-1.38,2.34-.94.11.12.14,2.76,0,3.28-.13.48-1.53,1.23-1.87,1.87-2.2,4.08-2.26,5.48-6.08,8.89-3.07,2.74-6.53,5.37-10.29,7.49-4.4,2.47-8.54,5.43-13.1,7.49-3.26,1.47-6.26,3.53-9.36,4.68-2.4.89-5.46.48-7.02,3.28-.25.44.17,1.23,0,1.4-.17.17-4.51.17-4.68,0-.28-.28.28-3.46,0-3.74-.19-.19-1.65.19-2.34,0-.38-.1-.58-.86-.94-.94-3.93-.81-2.74.44-3.28,1.4-.61,1.1-4.39,4.55-4.68,5.61-.66,2.39-1.21,4.25-1.87,6.55-.19.67-2.63,2.15-2.81,2.81-1.56,5.64-2.26,11.4-3.74,16.84-.38,1.4-3.13,3.52-2.81,4.68,1.53,5.56-.73,8.7-1.87,14.04-.14.65-.36,3.04.47,3.28.94-1.12,2.39-.94,3.28-2.34.97-1.53,2.66-4.32,3.74-5.61,1.51-1.8,3.57-3.36,5.15-5.15.82.23.61,2.66.47,3.28-.43,1.84-5.27,8.77-6.55,11.23-4.33,8.28-8.51,14.81-5.61,24.33.43,1.4-1.28,4.3-1.87,5.61s-.84,3.72-2.81,4.21c.64-1.81-1.65-2.5-1.87-3.28-.51-1.83-1.26-4.6-.94-6.55.7-4.2-.5-11.34,0-16.84.41-4.49,2.12-10.38,2.81-14.97,1.75-11.6,3.38-22.79,7.49-33.69.2-.52,1.8-2.47,1.87-2.81.14-.67.15-4.06,0-4.21-.99-1.02-3.11.95-3.28.94-1.24-.08.38-1.1.47-1.4.29-1.03-3.09-5.1-1.87-7.49l-2.81-4.68c.07-3.8,2.74,1.19,5.15.47,1.52-.45,1.77-3.82,1.4-5.15-.14-.51-1.73-1.36-1.87-1.87-.71-2.57-.74-3.13-1.87-5.61-.89-1.95-.54-2.28-.94-3.74s-3.45-5.21-3.74-6.55c-.24-1.09.2-2.59,0-3.74-.06-.36-.89-.59-.94-.94-.58-4.68-.44-14.83,0-19.65.14-1.59,1.43-5.69,1.87-7.49.5-2.01.5-4.98.94-6.55.14-.51,1.72-1.35,1.87-1.87,1.12-3.92-.2-3.06-.94-5.61-.32-1.12,3.06-4.89,1.87-7.02l2.81,3.28c.21.5-.16,1.24,0,1.4ZM130.76,29.06c-.61,0-.61.94,0,.94s.61-.94,0-.94ZM118.13,33.74c1.07-3.39-2.8-4.44-2.81-2.34,0,.18,2.07,2.28,2.81,2.34ZM124.68,47.78l-1.4-3.74-3.28-.94,1.87.94,2.81,3.74ZM131.23,48.72c-.71-.6-2.62.31-1.87.94.71.6,2.62-.31,1.87-.94ZM136.84,49.65c-.13-.13-3.6-.13-3.74,0-.44.4,2.83,3.72,3.74,2.81.1-.1.1-2.71,0-2.81ZM150.41,55.27c-.61,0-.61.94,0,.94s.61-.94,0-.94ZM156.49,55.27c-.71-.6-2.62.31-1.87.94.71.6,2.62-.31,1.87-.94ZM109.7,76.79c-1.81-.06-1.91-.47-1.87,1.4.04,2.15.88,2.5.94,2.81.28,1.6-.09,3.83,0,5.61.07,1.51.77,2.67,1.87,1.4l1.87-6.08c-1.48-1.27-2.72-3.11-2.81-5.15ZM102.69,80.53c-.61,0-.61.94,0,.94s.61-.94,0-.94ZM108.3,88.95c-.61,0-.61.94,0,.94s.61-.94,0-.94Z"/>
      <path d="M49.82,26.26c.48.52,2.59-.63,2.81-1.4.83-2.97,3.86-7.39,5.61-10.29.51-.85,1.71-3.09,2.34-3.28,3.23-.95,3.51,3.48,5.15,5.15l-4.68,5.61c.39,3.21-4.12,7.72-4.68,10.29-.45,2.07.33,5.22,0,7.49-.59,4.01-3.4,9.59-4.68,14.04-.15.52-1.87,1.51-1.87,1.87,0,.3.82.55.94.94.24.82-1.54,2.47-.94,4.68.72,2.61,3.31.66,4.68-.47.37,3.68-.51,8.14,0,11.7.04.3,1.67,1.64.94,3.28,4.17.05,2.46-4.28,2.81-7.02.04-.34.86-.57.94-.94.68-3.41-1.37-4.44,4.21-2.34,1.61.62,5.18,6.56,5.61,6.55.17,0,2.29-2.18,2.34-2.34.38-1.3.6-3.32.94-4.68.09-.37.87-.58.94-.94.23-1.32-.31-5.77,0-6.08.1-.1,2.5-.37,2.81.47.12.33-.11.75,0,.94.39.65,1.75,1.41,1.87,1.87.38,1.39.32,2.03.94,3.74,2.35,6.49,2.53,14.07,4.68,21.52,1.48,5.12-1.35,10.06,0,14.97.34,1.23-.85,1.5-.94,1.87-.39,1.75.07,5.82,2.34,5.15.49-.14,2.23-2.93,3.28-1.87.75.76-2.36,4.13-2.81,5.15-1.21,2.76-1.29,7.83-.94,11.23.1,1,1.77,5.55,1.87,6.55.15,1.5.38,10.38,0,10.76-.13.13-3.61.13-3.74,0-.16-.16.21-.9,0-1.4-.17-.4-.88-.61-.94-.94-.34-1.93.22-4.48,0-6.55-.3-2.84-1.5-7.43-1.87-10.29s1.22-7.16-2.34-4.21l-6.08.47c1.82,1.58.57,4.49.94,6.55.34,1.9,4.69,7.53,4.68,8.42,0,.16-1.47.93-.94,2.81.19.67,2.61,2.14,2.81,2.81.92,3.21,1.81,6.24,2.81,9.36.19.58.06,3.28,1.4,3.28,1.97,0,1.19-5.38,1.4-5.61.48-.52,2.59.62,2.81,1.4.53,1.89-.94,2.65-.94,2.81,0,.32,1.71,4.85,1.87,5.61,1.18,5.72-2.6,2.1-2.81,2.34-.11.12-.14,2.76,0,3.28s2.22,1.97,2.81,2.81c.31.44,2.75,4.4,2.81,4.68.34,1.6-.3,3.93,0,5.61.05.26,1.49.98.94,2.81-.12.38-.86.58-.94.94-.18.88.23,3.05,0,3.28-.16.16-.9-.21-1.4,0-.39.17-.58.83-.94.94-1.19.35-1.36-.72-1.87-.94s-1.24.16-1.4,0c-.27-.27.23-3.18,0-4.21-.45-2.01-3.06-6.46-3.74-9.36-2-8.44-3.52-20.44-6.55-28.07-2.17-5.47-1.71-7.09-2.81-12.16-.18-.81-2.56-3.76-2.81-4.68-.83-3.04-1.21-6.28-1.87-9.36-.07-.34-1.72-2.34-1.87-2.81-.22-.65.21-2.13,0-2.34-.18-.18-2.7.66-1.87-1.4.16-.41.94-.65.94-.94,0-.23-2.67-2.78-3.28-3.28-.19-.16-.76.15-.94,0-1.88-1.57-4.24-4.12-5.15-6.08-.18-.4-.23-1.55.47-1.4l5.15,2.81c.77-2.58-1.14-2.89-1.87-4.21-.25-.44.17-1.23,0-1.4s-.96.25-1.4,0c-4.15-2.31-.72-3.28-.47-4.21.34-1.23-.79-1.42-.94-1.87-.18-.55.17-1.29,0-1.87-.19-.67-2.61-2.14-2.81-2.81-1.12-3.9-4.03-7.16-4.68-9.36-.2-.68.2-2.14,0-2.34-.16-.16-.9.21-1.4,0-.39-.17-.58-.83-.94-.94-1.24-.36-1.57,1.29-2.81.94-.28-.08-3.28-2.35-4.68-2.81-2.34-.76-6.75-.45-7.95-2.34-.88-1.37-2.27-2.78-2.81-3.74-.18-.33.45-2.18-1.4-1.4-.41.17-.61.88-.94.94-2.27.4-5.5.69-7.49.94-1.47.18-4.15.18-5.61,0-.34-.04-.58-.87-.94-.94-1.15-.2-2.66.24-3.74,0-.21-.05-3.39-1.64-3.74-1.87-.57-.38-4.13-3.92-4.21-4.21-.23-.82-.36-10.36,0-10.76.65-.72,4.33,2.37,5.15,2.81.23.12.67-.13.94,0,1.56.76,2.89,2.41,5.15,1.87l-8.42-8.89c.54-1.01-.84-1.44-.94-1.87-.54-2.33.88-3.37.94-3.74.25-1.69-.39-4.21,0-5.61.28-1.02,4.24-2.22,4.68-3.74.32-1.12-.36-2.29,1.4-3.28,2.11,1.4,5.26,1.77,7.49,3.74l2.34-4.21c-1.26-1.18-.39-5.3,0-7.49.06-.33.77-.53.94-.94.21-.51-.16-1.24,0-1.4.15-.15,3.45-.12,4.21,0,.35.06.57.86.94.94.62.13,3.16.12,3.28,0,.39-.39-.4-6.11,0-6.55.96-1.07,2.85,1.76,3.28,1.87.53.14,2.23.13,2.81,0,.35-.08,2.27-1.65,2.81-1.87.71-.28,2.73-.3,3.74-.94,2.5-1.58.39-1.81-.47-3.74,1.18-.59,5.44,3.57,5.61,4.21.22.78-.2,1.97,0,2.81.18.75,1.79,4.1,1.87,4.68.44,3.03-1,7.13.94,9.36l.94,5.15ZM51.22,37.49c-.61,0-.61.94,0,.94s.61-.94,0-.94Z"/>
      <path d="M142.45,103.92c.66.64-.25,2.38-.94,3.28-.97,1.26-5.89,6.33-7.02,7.02-.31.19-2.5,1.02-2.81.94-.9-.26-1.49-2.75-4.68-1.87-2.26.62-.97,4.52-1.4,6.08-.32,1.16-2.16,1.28-2.34,1.4-.77.54-3.22,3.89-4.21,2.81-.14-.16-.16-3.65,0-4.21s4.63-4.5,5.61-5.61c.44-.49,1.85-3.8,3.28-4.21,3.83-1.1,2.3-1.81,4.68-2.81,1.07-.45,3.49-2.74,3.74-2.81.64-.18,5.86-.21,6.08,0Z"/>
      <path d="M121.87,92.69c-.5,1.49,1.28,2.11.94,3.28-.31,1.03-5.46,4.91-6.55,6.55-.92,1.38-1.84,4.16-2.81,5.61-.58.86-2.63,2.22-2.81,2.81-.33,1.11,1.12,4.72,1.87,5.61v7.02c-1.81.04-3.09,1.5-5.15.94-2.6-.71-.52-3.02-.47-3.28.92-4.22.88-6.02,2.81-10.29,2.14-4.75,4.32-8.74,6.55-13.1.73-1.42,1.32-3.16,1.87-4.68,1.47-2.19,1.61-.44,3.74-.47ZM109.7,120.77c-.15.18.18.88,0,1.4-.12.34-1.73,1.4-.47,1.4,1.67,0,1.59-4.15.47-2.81Z"/>
      <path d="M69.47,127.32c.16.16-.21.9,0,1.4.17.4.88.61.94.94.2,1.13-.16,2.56,0,3.74.09.62,2.26,1.46-.47,3.28-1-1.23-2.41-2.03-3.74-2.81-.81-.47-2.64-1.82-2.81-1.87-1.01-.3-3.2.65-2.34-1.4.16-.39.83-.58.94-.94.2-.68-.2-2.14,0-2.34.26-.26,7.22-.26,7.49,0Z"/>
      <path d="M58.24,132c.51.49-7.87,9.61-7.49,11.7-1.59,1.84-3.89,4.24-3.74,6.55l-1.87,2.34.94-6.08c1.57-2.25,4.37-5.24,5.61-7.49,1.41-2.54,1.37-.9,1.87-1.4.13-.13.51-2.58.94-3.28.48-.79,2.95-3.1,3.74-2.34Z"/>
      <path d="M97.54,83.34c-.39.41-4.26.1-4.68-1.4-.34-1.23,1.31-4.82,2.34-5.15,2.77-.88,2.75,6.12,2.34,6.55Z"/>
      <path d="M88.18,99.25l-.94-6.08,2.81-4.21c-.23,2.84-1.32,4.92-.94,7.95.09.75,1.9,1.49-.94,2.34Z"/>
      <path d="M68.53,61.82c-.76.76-3.74-1.92-3.74-2.34,0-.17,2.17-2.34,2.34-2.34,1.24,0,1.91,4.17,1.4,4.68Z"/>
      <path d="M60.11,129.19c.75.63-1.16,1.53-1.87.94-.75-.63,1.16-1.53,1.87-.94Z"/>
      <path d="M89.59,161c.61,0,.61.94,0,.94s-.61-.94,0-.94Z"/>
    </g>
  </g>
</svg>