<?xml version="1.0" encoding="UTF-8"?>
<svg id="Layer_2" data-name="Layer 2" xmlns="http://www.w3.org/2000/svg" viewBox="0 0 181.13 177.67">
  <g id="Elements">
    <g id="Element">
      <path d="M173.09,46.32c-.21-.18-3.02.03-4,0,.26-.86,1.32-1.73,1-2,.3.37,1.56-2.08,3,.5.26.47-.19,1.31,0,1.5Z"/>
      <path d="M173.09,46.32c.18.18,4.7.44,0,1-.07-.35.12-.9,0-1Z"/>
      <path d="M142.09,101.32c-.95.02-.88-.23-1-1,.7.44.56.31,1,1Z"/>
      <path d="M5.09,124.32c.91.22,1.7,1.36,2,1,.22-.26-.21-1.78,0-2.5.06-.19,2.11-2.27,2.5-2.5.16-.09,1.89-.96,2-1,.69-.23,2.28.22,2.5,0,.32-.32-.66-2.81.5-3,.57,1.33,2.4.56,2.5,1.5.41,3.77-1.27,3.72-3,6.5,1.48.55,2.33-1.01,2.5-1,.33.01.58.87,1,1,.53.17,1.3-.09,2,0,1.17.15.13,2.55.5,3,.28.34,2-1.29,2-1.5,0-.51-2.42-1.48-2-3,.23-.84,2.76-1.5,2-4-.12-.41-.91-.62-1-1-.67-2.89-1.27-5.32-2-8-.2-.74.21-2.29,0-2.5-.11-.11-2.89-.1-3,0-.27.23,1.75,2.28,1,3-.14.14-3.85.13-4,0-.48-.41,1.37-1.21,1-2.5-.39-1.35-2.48-3.06-3-4-.26-.47.19-1.31,0-1.5s-1.77.2-2,0c-.32-.27,2-3.3,2-3.5,0-.16-1.85-1.5-.5-1.5.22,0,1.43,1.57,4,1,.44-.1.88-1.55,2.5-1,.26-2.54.13-3.98-2-5.5,1.3-.54.87-2.35,1-2.5.44-.49,2.72,3.76,2-3-1.04-.12-2.04,1.98-2.5,2-.17,0-1.01-1.55-2.5-1-1.1,2.85,2.08,1.52,2,2.5s-1.94.17-2.5,1.5c-3.26.52.47-2.02-.5-3-.22-.23-2.05.55-2-.5.75-.54,1.09-1.91,2-1,1.02,1.02.87-.39,1.5-.5,2.17-.38,4.62.67,4.5-3-1.32.47-3.1-1.7-4-1-.17.13-.07,3.79-3,3,.13-1,3.03-3.05,2-4-.11-.1-2.89-.1-3,0-.84.8,1.01,2.37,1,2.5,0,.11-1.39,1.5-1.5,1.5-.25,0-1.09-1.5-1.5-1-.19.24.31,3.64-2,4.5-.06,1.04,1.72.27,2,.5.45.37-1.53,1.96-2,2.5l2,1c-.57,1.55-2.88,1.39-3,1.5-.48.43,1,1.25,1,1.5,0,.38-2,1.62-2,2,0,.68.69-.08,0,3-.38,1.7.8,3.89-1,5l2,1-3,1,4,1c-3.01,2.06-1,2.59-1,3,0,.11-1.38,1.48-1.5,1.5-.16.03-.78-1.6-2.5,0,.63-2.17-1.55-3.71-1-5.5,1.32-4.28.99-8.63,2-13,.27-1.15.68-2.54,1-4,.85-3.82,3.15-7.39,4-11,.21-.89-.23-2.16,0-3,.17-.6,3.12-2.28,2-3.5-.26-.28-2.4.79-2-1l4-.5-3-1.5c.49-1.25-1.7-3.15-1-4,.48-.59,3.49,3.56,4,3,1.19-1.3-3.6-4.49-3-5,.91-.77,2.33,1.39,3,.5.45-.92,1.82-.32,2-.5.25-.26-.25-2.75,0-3,.19-.19,1.81.19,2,0,.23-.23.13-5.44,0-6.5-.08-.62-1.71-2.43-1-5,.42-1.54,4.53-2.46,3-8-.37-1.36-1.82-.03-1-3,.33-1.2-3.21-6.79-1-8-1.97-1.6.33-4.24-3-3.5l3-1.5-6-5c.88-1.4,6.84-7.43,7-8,.29-1.07-.32-4.18,0-4.5.21-.21,1.76.2,2.5,0,.46-.13.95-1.54,3-1,.37.1,1.09,1.5,1.5,1,.2-.24-.19-1.81,0-2,.17-.17.96.22,1.5,0,2-.83,2.47-.58,4-1,.55-.15,1.45-1.85,2-2,.61-.17,4.48,2.02,5.5,1,.13-.13-.12-2.55,1.5-3,1.15-.32,8.54-.24,10,0,.44.07,2.56.93,3,1,4.34.72,5.84-2.26,10-1,.99.3,8.32-2.18,9.5-1,.19.19-.19,1.81,0,2,.24.24,2.56-.2,3.5,0,.36.07.57.82,1,1,2.18.91,1.32-1.82,1.5-2s4.82-.18,5,0c.14.14-.13,4.13,2,2,.13-.13-.12-2.55,1.5-3,2.4-.66,4.09,1.25,5,1,.19-.05,1.68-1.82,2.5-1,.14.14-.13,4.13,2,2,.26-.26-1.07-2.99,2.5-2,.39.11.6.89,1,1,2.16.62,2.96-1.35,2.5,3,2.91.92,1.68-1.71,2-2,.49-.45,1.13.91,1.5,1,3.26.82,2.13-.84,2.5-1.5.48-.86,2.35-2.12,3-1.5.33.31-1.57,1.74-1,3l3-2c.19,1.1-.28,4.72,0,5,.19.19,1.74-.2,2,0s-.86,2.98,2,2c-.39-.92-3.28-3.43-.5-4,1.73-.35,4.45.43,6,0,.3-.08,3.45-2.56,5-3,.67-.19,1.69.11,2.5,0l-2,2h4c.12-.81-.19-2.81,0-3,.18-.18,4.81-.16,5,0,.5.41-1,1.25-1,1.5.01,1.34,1.2-.41,1.5-.5,1.78-.53,2.51.95,4,1,1.16.04-.39-2.41,1.5-2,.24,1.93.05,2.78-1.5,4-1.74,1.36-.79.34-3,0-2.09-.32-1.98,1.59-1.5,2,.41.34,4.19-.26,5.5,0,.34.07,1.09,1.5,1.5,1,.18-.22-.26-1.03,0-1.5,1.73-3.08,2.85.5,3.5.5.29,0,.95-1.16,1.5-1.5.78-.48,3.63-.86,4-.5.11.11.4,2.68-.5,3s-3.02.74-2.5,2.5c.55,1.85,3.57,1.02,4.5,2.5,2.27.82,1.63-2.88,1.5-3-1.34-1.24-4.6,2.68-4-.5.56-.89,2.8-2.34,3-3,.21-.72-.21-2.29,0-2.5.14-.14,3.86-.14,4,0,.07.07.38,2.13-.5,2l-2.5,1c2-.04,3.71-.49,5,1.5.14.21-3.63,1.68-4,3l3.5,2.5c1.08-.11.27-1.72.5-2.5.07-.24,3.14-3.32,3.5-3.5,2.06-1.01,1.4,1.9,1.5,2,.44.44,1.6-1.47,2-1,.36.42-.75,6.5,3,1-3.93.71-1.61-3.61,0-2,.19.19-.19,1.81,0,2,.13.13,1.36-.07,2,0,.4,1.79-1.74.72-2,1-.19.21.19,1.81,0,2-.21.21-1.76-.2-2.5,0-.35.1-2.25,1.99-3.5,1-.12-.09,1.86-2.35-.5-3-1.09-.3-2.34.93-2.5,2,3.54-.74,2.79,3.79,3,4,1.29,1.29,3.68-2.77,4.5-3,1.25-.36,1.87,1.52,3.5,1,.4,1.79-1.74.72-2,1-.19.21.19,1.8,0,2-.72.75-2.77-1.27-3-1-.26.3.25,2.75,0,3-.19.19-1.77-.2-2,0-1.25,1.05,1.88.9,2,1,.18.15-2.37,3.19.5,4,.98.28,1.51-.78,3-1,2.08-.3,2,1.58,1.5,2-.38.32-3.69-.31-4,0-.13.13-.11,2.91-1.5,3-.18.01-2.27-2.07-3.5-1-.45.39-.21,2.84,1.5,2,2.25-1.11.98-.17,2,0,3.78.65,4.51-2.91,8.5-2,.38,1.89-1.81.31-2,1.5-.1.6.13,1.37,0,1.5-.36.36-3.99-.97-3,1.5.25.63,1.84,1.45,2,2,.29,1.02-1.76,2.76-1,3.5.32.31,3.63-.32,4,0,.52.45-1.66,1.38-.5,2,1.22.45-1.21,2.35-1.5,2-.42-.49.98-3.32-1-3,.05,3.27-2.52,3.81-5,2-.97,3.56,3.38,1.38,4,2,.19.19-.2,1.76,0,2-1.21-1.02-4.73,1.34-4,2,.15.14,2.18-.02,3,0-.17.56.18,1.77,0,2-.28.36-2.43-1.32-2,2,3.46-2.61,1.4,1.44,2,2,1.83,1.71,2.13-2.06,3-2.5l-2-2,3-.5c.27,1.32.64,2.24,1,3.5-.39.83-3.2,4.32-3,4.5.99.89,4.94-3.86,4,2l-1.5-2-2.5,3h5c-.78,1.19-.78,1.71-1,3-1.23.48-3.18-1.7-4-1-1.01.87,1.44.72,2,2-.64.12-1.85-.15-2,0-.17.17.22.96,0,1.5-.48,1.16-.74.89-1,3-.15,1.17-2.57.13-3,.5-2.67,2.27,2.85,1.86,3,2,.28.26-.79,2.4,1,2-1.28-3.44,1.7-4.38,2-5-.11,1.56,1.83.81,2,1,.26.29-.18,3.37,0,4.5.27,1.7.65,5.74,1,7,.15.55,1.84,1.44,2,2,.66,2.29,1.67,7.56,1,10-.15.55-2,1.6-2,2,0,.25,1.5,1.09,1,1.5-.27.22-1.78-.21-2.5,0-.57.17-1.68,1.99-2.5,2.5-1.51.95-3.22-.29-3,1.5,1.44.72,3.87-1.16,4-1s.14,3.85,0,4c-.26.28-2.4-.79-2,1,1.46-.12,3.07.18,4.5,0,1.19-.15,2.31-1.2,2.5-1,.82.91-.95,2.29-1,2.5-.25.98,1.96,3.23,1,4.5-.13.17-3.79.07-3,3l4-.5c-.45.6-2,2.82-2,3,0,.35,1.52.89,1,4s1.35,6.79,1,8c-.91,3.18-.53,14.83,0,18,.57,3.44.31,6.49,1,9,.32,1.15-1.58,2-1,4,.39,1.36.66,1.72,0,4-.44,1.53-3.47,1.37-3,6,.12,1.18,2.4-.39,2,1.5-4.17,1.05-2.63-1.7-3-2-.19-.16-4.81-.16-5,0-.87.76,2.08,4,2.5,4,.26,0,1.09-1.5,1.5-1,.1.12.11,2.89,0,3-.74.74-3.81-1.7,0,3-1.6-.48-1.93,1.18-3,.5-1.01-.64-1.17-1.36-1-2.5l-2,2,.5-3c-3.54-1.01-2.18,1.75-2.5,2-1.37,1.08-.31-2.43-2-2-.65,5.47-2.99,1-3.5,1-.39,0-1.45,1.85-2,2-2.5.69-8.16-.26-9,0-5.35,1.63-14.8,3.03-21,2-1.13-.19-6.49-1.26-8-1-2.8.48-1.74-.34-4-1-2.46-.72-3.59,2-4,2s-2.05-2.74-7-2c-1.5.22-10.43,2.16-11,2-1.27-.35-1.4-2.76-6-2-2.33.39-4.16-.42-7,0-5.99.89-11.41,1-17,0-2.69-.48-15.92.58-16.5,0-.19-.19.19-1.81,0-2s-1.81.19-2,0,.19-1.81,0-2c-.18-.18-4.81-.16-5,0-.31.25,1.11,1.89,1.5,2,.92.25,3.16-.28,3.5,0,.49.41.59,2.32-1.5,2-1.66-.25-3.32-1.85-4-2-1.95-.42-4.13.91-5.5-1.5-.27-.47.19-1.31,0-1.5-.11-.11-2.89-.1-3,0-.16.15.46,3.24-1.5,4l.5-4c-.81-.12-2.81.19-3,0-.16-.16.47-3.45-1.5-4-1.4-.39-1.71,1.57-2.5.5.86-1.29,3.44-2.85,4-4,1-2.06-2.77-1.75-3-1.5-.19.21.19,1.81,0,2s-1.03-.27-1.5,0c-2.48,1.41-1,3.69-1.5,5.5-.45,1.62-4.34,3.82-5.5,1.5-1.05-.05-.27,1.76-.5,2-.42.44-4.83-2.01-6-1-.52.45,1.66,1.38.5,2-.25.75-1.12,3.68-2.5,2-.16-.19-.18-4.82,0-5,.14-.14,4.13.13,2-2-.19-.19-1.03.27-1.5,0-1.84-1.04-1.37-2.87-1.5-3-.25-.25-2.75.25-3,0-.16-.16-.16-3.78,0-4.5.07-.34,1.93-2.66,2-3,.36-1.67-.23-4.13,0-6,.05-.37.93-.62,1-1,.76-4.14-1.57-4.99-2-7s.32-7.18-1-8.5c-.19-.19-1.81.19-2,0-.11-.11-.11-2.89,0-3,.24-.24,2.55.19,3.5,0l4.5-2.5-4,.5,2-3.5c-1.49-2.18-1.94-.62-4-.5.12-.59-.13-1.41,0-2ZM133.09,5.32c.64-.76-.33-2.8-1-2-.64.76.33,2.8,1,2ZM125.59,4.32c-.65,0-.65,1,0,1s.65-1,0-1ZM50.09,7.32c1.03-1.03-.32-3.39-2-.5-.42.73,1.82.68,2,.5ZM62.59,5.32c-.65,0-.65,1,0,1s.65-1,0-1ZM106.59,5.32c-.65,0-.65,1,0,1s.65-1,0-1ZM54.59,6.32c-.65,0-.65,1,0,1s.65-1,0-1ZM69.59,6.32c-.65,0-.65,1,0,1s.65-1,0-1ZM91.09,9.32c1.03-1.03-.32-3.39-2-.5-.42.73,1.82.68,2,.5ZM101.09,9.32c.64-.76-.33-2.8-1-2-.64.76.33,2.8,1,2ZM112.09,8.32c-.94-.76-4,2.07-4,2.5,0,1.33,1.06-.3,1.5-.5.53-.24,3.4-1.27,2.5-2ZM119.09,8.32c-.15-.15-3.45-.27-3,.5,1.76,3.01,4.42.92,3-.5ZM144.09,13.32c.2-.24-.16-1.73,0-2.5.08-.39,1-.67,1-1,0-.62-2.42-2.08-3-1.5-.82.82.94,2.3,1,2.5.16.56-.09,3.8,1,2.5ZM27.09,9.32c-1.09-1.09-3.09.91-2,2s3.09-.91,2-2ZM71.09,9.32c-1.13-.94-3.93,2-2.5,2,.32,0,.57-.85,1-1,.27-.1,2.57-.1,1.5-1ZM79.09,9.32c-1-.81-3.52,1.58-3,2,1,.81,3.52-1.58,3-2ZM83.09,9.32c-1.09-1.09-3.09.91-2,2s3.09-.91,2-2ZM96.09,9.32c-.07-.07-1.92-.07-2,0-.5.41.9,1.13,1,1.5.19.74-.22,2.23,0,2.5.28.34,2-1.29,2-1.5,0-.32-.84-.57-1-1-.2-.56.17-1.33,0-1.5ZM124.09,9.32c-1.03-1.03-3.39.32-.5,2,.73.42.68-1.82.5-2ZM134.59,11.32c-.65,0-.65,1,0,1s.65-1,0-1ZM35.59,12.32c-.65,0-.65,1,0,1s.65-1,0-1ZM47.09,14.32l-2-2c-.26,2.11-.11,2.26,2,2ZM54.09,12.32c-.76-.64-2.8.33-2,1,.76.64,2.8-.33,2-1ZM62.09,14.32c.64-.76-.33-2.8-1-2-.64.76.33,2.8,1,2ZM75.09,14.32c.64-.76-.33-2.8-1-2-.64.76.33,2.8,1,2ZM87.09,14.32c1.03-1.03-.32-3.39-2-.5-.42.73,1.82.68,2,.5ZM111.09,14.32l-2-2c-.26,2.11-.11,2.26,2,2ZM121.09,14.32l-2-2c-.26,2.11-.11,2.26,2,2ZM63.59,13.32c-.65,0-.65,1,0,1s.65-1,0-1ZM25.09,16.32c.64-.76-.33-2.8-1-2-.64.76.33,2.8,1,2ZM159.59,14.32c-.65,0-.65,1,0,1s.65-1,0-1ZM30.59,17.32c-.65,0-.65,1,0,1s.65-1,0-1ZM34.59,17.32c-.65,0-.65,1,0,1s.65-1,0-1ZM135.09,17.32c-.76-.64-2.8.33-2,1,.76.64,2.8-.33,2-1ZM151.59,17.32c-.65,0-.65,1,0,1s.65-1,0-1ZM153.09,21.32c.68.68,3.44-.89,3-2.5-.93-3.39-4.46,1.04-3,2.5ZM163.09,19.32c.36-.29-1.36-3.3-3-.5-.44.74,2.76.69,3,.5ZM79.09,18.32c-.76-.64-2.8.33-2,1,.76.64,2.8-.33,2-1ZM81.59,18.32c-.65,0-.65,1,0,1s.65-1,0-1ZM113.59,18.32c-.65,0-.65,1,0,1s.65-1,0-1ZM24.09,19.32c-.76-.64-2.8.33-2,1,.76.64,2.8-.33,2-1ZM159.09,21.32c-.76-.64-2.8.33-2,1,.76.64,2.8-.33,2-1ZM21.09,25.32c.64-.76-.33-2.8-1-2-.64.76.33,2.8,1,2ZM58.59,23.32c-.65,0-.65,1,0,1s.65-1,0-1ZM92.09,23.32c-1.09-1.09-3.09.91-2,2s3.09-.91,2-2ZM156.09,24.32c-.76-.64-2.8.33-2,1,.76.64,2.8-.33,2-1ZM49.09,25.32c-1.09-1.09-3.09.91-2,2s3.09-.91,2-2ZM142.09,101.32c.98-.02,1.4-1.5,3-1-.74-1.89,1.76-2.64,2-3.5.18-.66.16-3.26,0-4-.24-1.1-2.91-3.67-3-4-.82-2.98.82-3.35,2-5,.05-.06-.07-.6.5-1.5s2.09-1.43,2.5-1c.37.39-1.02,5.68,3,5,.15-2.79,2.79-4.62,2-7.5-.17-.63-4.98-3.64-5.5-3.5-1.81.5-.63,3.95-3.5,3-.75-1.82,1.29-3.47,1-4.5-.62-2.17-4.39-2.92-6.5-2.5-.34.07-1.09,1.5-1.5,1-.27-.32.26-2.74,0-3-1.06-1.09-3.32,1.01-3.5,1-.32-.02-4.41-4.19-4.5-4.5-1.38-4.66,2.69-.34,4-1.5.26-.23-1.75-2.28-1-3,.81-.77,4.55.51,4,2.5-.2.74-1.34.88,0,3,.28.44,2.32,2.49,2.5,2.5s1.02-1.55,2.5-1v-3.5c-.21-1.43-1.56.98-2,.5-.83-.91,2.34-4.3,2-5.5-.13-.47-2.33-3.22-2-3.5.17-.14,3.69-.18,3-2.5-.15-.49-3.28-2.5-3.5-2.5s-1.54,1.68-4,1c-2.21-.61-.79-5.39-3-6-.6-.17-4.33-.15-4.5,0-.46.39,1.46,1.61,1,2-2.24,1.89-1.86-1.86-2-2-1.74-1.74-.67,1.97-2-2.5-.08-.29-3.83-3.13-4.5-3.5s-2.39.7-1.5-2.5c.13-.46,1.57-1.01,1-3-.05-.17-2.32-2.5-2.5-2.5-.43,0-1.47,2.12-2.5,2v-3l-2,2c.24-3.21-1.79-2.54-3.5-3-.41-.11-.67-1-1-1-.22,0-1.54,1.68-4,1-1.62-.45-1.37-2.87-1.5-3-.18-.18-.96.23-1.5,0s-.7-1.36-2-1c-.37.1-.58.82-1,1-.54.23-1.32-.18-1.5,0-.46.46,1.67,4.42-3.5,3-1.62-.45-1.37-2.87-1.5-3-.17-.17-.96.22-1.5,0-.42-.17-.62-.88-1-1-2.78-.85-4.07,2.85-6,4-3.11,1.85-7.44,2.23-11,3-.36.08-2.5,1.83-3,2-1.57.52-3.04-1.17-2.5,2-1.23,0-2.99-3-3.5-3-.39,0-1.45,1.85-2,2-1.22.34-5.14-.36-5.5,0-.2.2.72,2.58-1.5,4-.25.16-.79-.15-1,0-2.83,2-3.78,5.86-8,5-.34-.07-1.09-1.5-1.5-1-.28.35.25,2.58,0,3.5-.15.55-1.85,1.45-2,2-.62,2.22,1.18,4.35,1,4.5-.47.4-5.61-.39-6,0-.17.17.23.96,0,1.5-.26.62-1.87,2.54-2,3-1.17,4.29-.2,9.32-1,13-.07.34-1.93,2.66-2,3-.36,1.67.23,4.13,0,6-.05.37-.93.62-1,1-.56,3.09,1.14,7.52,4.5,6.5.38-.12.58-.83,1-1,.54-.22,1.33.17,1.5,0,.41-.41-1.31-2.9,3-2-.73,1.49,1.59,4.35,1,5-1,1.1-3.3-2-3.5-2-.18,0-2.45,2.33-2.5,2.5-.23.85.23,2.15,0,3-.81,2.94-4-.5-4.5-.5-.32,0-4.41,4.19-4.5,4.5-.18.63.19,1.41,0,2-.13.41-.93.63-1,1-.15.82-.19,3.31,0,4s2.78,2.27,3,3c.32,1.08-.73,3.39,1.5,2.5,1.07-.43,1.51-2.76,4-2,.4.12.6.87,1,1,1.51.49,4.78.24,2.5,2.5-.63,3.06,2.1-.18,2,1-.15,1.77-3.84,1.36-4,1.5-.49.42.93,1.16,1,1.5.19.92-.23,2.18,0,3,.13.46,3.83,6.07,4.5,6.5.43.28,2.58.73,3,1,2.46,1.62,1.3,1.94,5,3,1.67.48,1.99,5.71,2.5,7.5.25.88,2.73,1.61,2,3.5,1.63-.52,2.25,1.36,3.5,1,.17-.05,2.45-2.33,2.5-2.5.21-.72-.22-2.23,0-2.5.41-.5,1.11.88,1.5,1,.6.19,1.38-.18,2,0,.17.05,2.35,2.19,2.5,2.5,1.12,2.32-2.71,1.24-3,1.5-.48.43.93,1.16,1,1.5.34,1.65-.02,3.29,1,5,1.24,2.08,4.04,2.53,5.5,4.5,3.17.62-.75-2.76.5-4,.12-.12,2.87-.14,3.5,0,.91.21,3.99,2.71,5,3s6.73-3.75,10-3c1.26.29,2.94.82,4,1,3.85.64,6.58-2.66,10,1,1.29-.68,2.9-.68,4-1,3.06-.88-.35-2.99-.5-3.5-.21-.72.21-2.29,0-2.5-.19-.19-4.71-.17-5.5,0-1.11.24-3.63,2.89-4,3-3.46,1.02-2.07-1.05-2.5-2.5-.7-2.37-2.19-.58-2.5-.5-1.13.3-2.83.97-3,1-.77.14-4.34.16-4.5,0-.25-.24.57-2.83-1-3.5.22-2.24-.31-4.85,0-7,.05-.32,1.78-1.75,1-3.5,3.94-.4,1.15,1.75,1,2.5s-.18,3.33,0,4c.31,1.11,3.8,2.42,3,4.5,1.47-.24,1.98-2.42,3.5-2,5.22,1.44,3.03-.46,5-1,.85-.23,2.15.23,3,0,.24-.07,3.22-3.03,3.5-3.5.13-.22-.14-.69,0-1,.35-.75,1.55-1.08,1-3-.48-1.69-3.29-.88-3-2.5,1.1-.19,4.72.28,5,0,.21-.21-.2-1.76,0-2.5.17-.61,1.9-3.51,2-4,.21-1.02-.13-2.38,0-3.5l-4-1,1-1.5c.27,1.08,2.86-1.51,3-2,1.36-4.57-2.82-1.29-3-1.5-.23-.27-.25-6.75,0-7,.15-.15,2.83-.2,3.5-2,.52,1.29,2.4.89,2.5,1,.75.77-1.28,2.76-1,3,.3.26,2.74-.25,3,0,1.31,1.28-3.01,7.06-4,8.5,0,.33.94.62,1,1,.24,1.46.32,8.85,0,10-.45,1.62-2.87,1.37-3,1.5-.14.14-.14,3.86,0,4,.36.36,3.22-.02,4-.5,1.85-1.13,2.81-4.32,5.5-3.5.41.12.63.93,1,1,4.32.79,5.97-1.01,6.5-5,1.62.77,3.52-2.52,4-2,.89.98-.72,3.8-2,4.5-.18,2.74-2.74,5.9,1.5,6.5,2.49.35,2.7-.46,4-1,.54-.22,1.33.17,1.5,0,.19-.19-.26-1.03,0-1.5.4-.72,3-3.25,3-4,0-.33-.92-.61-1-1-.78-3.76,1.65-2.15,2-2.5.19-.19-.19-1.81,0-2,.23-.23,4.35.7,5-1.5.17-.59.35-2.4-.5-2.5-3.08-.37-5.62,2.47-8,0-.86.63,1.26,2.25.5,3-.7.69-4.07-.06-5-1.5-.28-.43-.72-2.57-1-3-2.32-3.59-3.37.16-4.5.5-3.45,1.02-2.07-1.05-2.5-2.5-.36-1.21-3.05-1.5-4-3-.54-.85-.73-3.16-2-4,.95-.79,3.1,1.41,3.5,1.5,1.18.26,2.92-.29,4,0,.72.2,1.5,2.45,3,2,1.86-.56,1.02-3.56,2.5-4.5-.72-.69-2.12-4.57-2-5,.15-.55,1.84-1.44,2-2,.73-2.54-1.77-3.15-2-4-.5-1.81,1.08-5.5-3-3-.56.35-1.09,1.39-1.5,1.5-.72.2-5.28.2-6,0s-2.27-2.78-3-3-2.29.21-2.5,0c-.17-.17.2-.94,0-1.5-.16-.43-1-.68-1-1s3.14-2.33,2-4.5c.81.16,2.87,2.06,3,2.5.2.67.08,3.5,1.5,3.5,1.93,0,1.31-4.81,1.5-5,.99-.99,2.95.77,3.5,1s1.33-.17,1.5,0c.2.2-.72,2.58,1.5,4,.2.13.68-.15,1,0,.44.21.7,1,1,1,.25,0,.69-1.36,2-1,.55.15,1.61,2,2,2,1.75,0,1.26-3.62,1.5-4.5.33-1.18,4.03-3.49,5-2.5.76.78-1.36,2.36-.5,3,.78-1.75,2.53.1,2.5.5-.09,1.39-2.88,1.38-3,1.5-.25.25,2.23,4.29,3.5,5,.47.26,1.31-.19,1.5,0,.3.3-.21,4.67,0,6-.71-.45-2.31-.87-2.5-1-.92-.62-2.39-2.82-3-3-1.01-.29-5.23,2.51-5.5,3.5-.79,2.87,2,5.53,2,6,0,.66-3.88,2.03-3,6,.1.44,1.55.88,1,2.5,1.99-.28,4.69.4,6.5,0,.37-.08.57-.83,1-1,1.24-.49,4.17-1.3,4.5-2.5.23-.84-.21-2.11,0-3,.09-.39.93-.62,1-1,.36-1.99.04-3.87-1-5.5ZM128.09,28.32l-7-2c.19,1.11-.28,4.72,0,5,.89.9,4.1-1.48,5.5-1,1.77.77,1.94-1.62,1.5-2ZM33.09,29.32c1.03-1.03-.32-3.39-2-.5-.42.73,1.82.68,2,.5ZM141.09,29.32c.64-.76-.33-2.8-1-2-.64.76.33,2.8,1,2ZM28.59,31.32c-.65,0-.65,1,0,1s.65-1,0-1ZM161.09,31.32c-1.42-1.42-3.51,1.24-.5,3,.77.45.65-2.85.5-3ZM168.09,31.32c-1.63-1.34-2.59,1.61-3,2.5-.21.44-1,.7-1,1,0,1.35,1.12-.36,1.5-.5.56-.2,1.33.17,1.5,0,.18-.18-.23-.97,0-1.5.19-.43,1.48-1.1,1-1.5ZM158.09,36.32c.15-.15.27-3.45-.5-3-3.01,1.76-.92,4.42.5,3ZM31.09,37.32l-2-2c-.26,2.11-.11,2.26,2,2ZM167.59,36.32c-.65,0-.65,1,0,1s.65-1,0-1ZM162.59,37.32c-.65,0-.65,1,0,1s.65-1,0-1ZM141.09,38.32c-1.08-.87-4.63.37-3,2,.83.83,3.57-1.54,3-2ZM165.59,38.32c-.65,0-.65,1,0,1s.65-1,0-1ZM169.59,38.32c-.65,0-.65,1,0,1s.65-1,0-1ZM148.09,51.32c4.74.5,3.38-1.83,4-4.5.09-.39.93-.62,1-1,.39-2.12-.31-5.87-2.5-6.5-1.25-.36-1.87,1.52-3.5,1-.07,2.25-2.31,3.79,0,5.5l1,5.5ZM127.09,43.32c.64-.76-.33-2.8-1-2-.64.76.33,2.8,1,2ZM161.09,41.32c-2.11-.26-2.26-.11-2,2l2-2ZM163.09,44.32c.1-.12.1-2.88,0-3-1.31-1.57-1.31,4.57,0,3ZM143.59,44.32c-.65,0-.65,1,0,1s.65-1,0-1ZM165.09,46.32c-.76-.64-2.8.33-2,1,.76.64,2.8-.33,2-1ZM166.09,53.32c-1.09-1.09-3.09.91-2,2s3.09-.91,2-2ZM170.09,53.32c-1.09-1.09-3.09.91-2,2s3.09-.91,2-2ZM160.09,55.32c-1.09-1.09-3.09.91-2,2s3.09-.91,2-2ZM169.59,56.32c-.11,0-1.5,1.39-1.5,1.5,0,1.42,2.92-1.5,1.5-1.5ZM170.09,63.32l-.5-4c-.58.73-3.73,4.8-3.5,5,.84.7,2.75-1.49,4-1ZM150.09,62.32c.64-.76-.33-2.8-1-2-.64.76.33,2.8,1,2ZM17.59,61.32c-.65,0-.65,1,0,1s.65-1,0-1ZM163.09,63.32c-.76-.64-2.8.33-2,1,.76.64,2.8-.33,2-1ZM154.09,66.32c-.76-.64-2.8.33-2,1,.76.64,2.8-.33,2-1ZM163.09,70.32l-2-2c-.26,2.11-.11,2.26,2,2ZM154.59,69.32c-.65,0-.65,1,0,1s.65-1,0-1ZM150.59,71.32c-.65,0-.65,1,0,1s.65-1,0-1ZM163.09,73.32c-.19-.19-1.03.26-1.5,0-1.75-.98-2.56-3.99-3.5,1,1.69-.9,4.83,1.19,5,1,.07-.08.07-1.93,0-2ZM173.09,73.32c-1.26.26-6.46-2.55-7-2-.75.78,1.27,2.44,1,3.5-.09.34-2.04,2.5-1,3.5.4.39,5.57-.39,6,0,.12.11.14,2.96,1.5,3,.5.01,1.97-1.48,1-3-1.33-2.09-5.43-.63-1.5-5ZM15.09,73.32c-2.11-.26-2.26-.11-2,2l2-2ZM164.09,79.32c-1.09-1.09-3.09.91-2,2s3.09-.91,2-2ZM171.09,80.32c-1.02-1.02-4.02,1.98-3,3s4.02-1.98,3-3ZM177.59,85.32c-.65,0-.65,1,0,1s.65-1,0-1ZM173.09,88.32c.34-.28-1.29-2-1.5-2-.32,0-.57.85-1,1-.27.1-2.57.1-1.5,1,.15.13,3.84.13,4,0ZM164.09,89.32l-2-2c-.26,2.11-.11,2.26,2,2ZM155.59,88.32c-.65,0-.65,1,0,1s.65-1,0-1ZM133.59,90.32c-.65,0-.65,1,0,1s.65-1,0-1ZM176.09,90.32c-.15-.15-3.45-.27-3,.5,1.76,3.01,4.42.92,3-.5ZM30.59,91.32c-.65,0-.65,1,0,1s.65-1,0-1ZM135.09,94.32c.16-.2-.2-.94,0-1.5.13-.37,1.85-1.5.5-1.5-1.79,0-1.7,4.43-.5,3ZM168.59,92.32c-.65,0-.65,1,0,1s.65-1,0-1ZM169.09,96.32c.64-.76-.33-2.8-1-2-.64.76.33,2.8,1,2ZM148.09,106.32c.54-.54-.17-5-1.5-5-.32,0-.57.84-1,1-1.01.36-2.38-.46-1.5,2.5.37,1.25,3.43,2.07,4,1.5ZM165.09,107.32c.1-.12.1-2.88,0-3-1.31-1.57-1.31,4.57,0,3ZM175.09,107.32c.29.36,3.3-1.36.5-3-.74-.44-.69,2.76-.5,3ZM168.59,105.32c-.65,0-.65,1,0,1s.65-1,0-1ZM2.59,110.32c-.65,0-.65,1,0,1s.65-1,0-1ZM25.09,113.32c.64-.76-.33-2.8-1-2-.64.76.33,2.8,1,2ZM27.09,114.32c.95.95,4-1.78,3-3-.4-.48-1.07.81-1.5,1s-3.39.11-1.5,2ZM162.09,115.32c1.03-1.03-.32-3.39-2-.5-.42.73,1.82.68,2,.5ZM175.09,115.32c.64-.76-.33-2.8-1-2-.64.76.33,2.8,1,2ZM25.09,116.32c.64-.76-.33-2.8-1-2-.64.76.33,2.8,1,2ZM176.09,116.32c-1.09-1.09-3.09.91-2,2s3.09-.91,2-2ZM172.59,118.32c-.65,0-.65,1,0,1s.65-1,0-1ZM176.09,122.32c.64-.76-.33-2.8-1-2-.64.76.33,2.8,1,2ZM14.09,121.32c-1.19-.96-2.9.75-3.5,1-.49.21-3.38.12-1.5,2,.8.8,2.07-.78,2.5-1s3.43-1.25,2.5-2ZM174.59,123.32c-.65,0-.65,1,0,1s.65-1,0-1ZM166.59,124.32c-.65,0-.65,1,0,1s.65-1,0-1ZM177.09,126.32c-.76-.64-2.8.33-2,1,.76.64,2.8-.33,2-1ZM157.09,128.32c-1.09-1.09-3.09.91-2,2s3.09-.91,2-2ZM8.09,136.32c.16-.2-.2-.94,0-1.5.13-.37,1.85-1.5.5-1.5-1.79,0-1.7,4.43-.5,3ZM23.59,133.32c-.65,0-.65,1,0,1s.65-1,0-1ZM108.09,143.32c.17.17.96-.23,1.5,0,.63.26,2.49,1.85,3,2,1.81.54,5.21-1.35,5.5-3.5.15-1.08.23-4.15,0-5-.41-1.49-4.96-2.92-6.5-2.5-.75.21-1.46,2.42-3,2-.41-.11-.67-1-1-1-.18,0-2.5,2.32-2.5,2.5,0,.75,2.6,3.28,3,4,.26.47-.19,1.31,0,1.5ZM164.09,148.32c.16.16,3.89.17,4.5,0,1.19-.33,1.27-2.01,1.5-2.5.2-.43.88-.63,1-1,1.42-4.46-6.04-4.47-7-1-.17.61-.16,4.34,0,4.5ZM22.59,145.32c-.65,0-.65,1,0,1s.65-1,0-1ZM156.59,146.32c-.65,0-.65,1,0,1s.65-1,0-1ZM172.09,148.32c.64-.76-.33-2.8-1-2-.64.76.33,2.8,1,2ZM173.59,151.32c-.65,0-.65,1,0,1s.65-1,0-1ZM13.09,156.32c-.76-.64-2.8.33-2,1,.76.64,2.8-.33,2-1ZM31.59,156.32c-.65,0-.65,1,0,1s.65-1,0-1ZM171.09,156.32c-1.09-1.09-3.09.91-2,2s3.09-.91,2-2ZM161.59,158.32c-.65,0-.65,1,0,1s.65-1,0-1ZM169.59,162.32c-.65,0-.65,1,0,1s.65-1,0-1ZM20.09,165.32c1.03-1.03-.32-3.39-2-.5-.42.73,1.82.68,2,.5ZM152.09,165.32c.64-.76-.33-2.8-1-2-.64.76.33,2.8,1,2ZM11.09,165.32c-1.03-1.03-3.39.32-.5,2,.73.42.68-1.82.5-2ZM15.09,165.32c-1.09-1.09-3.09.91-2,2s3.09-.91,2-2ZM155.59,166.32c-.65,0-.65,1,0,1s.65-1,0-1ZM167.09,168.32c.64-.76-.33-2.8-1-2-.64.76.33,2.8,1,2ZM40.09,168.32c-.19-.19-1.73.16-2.5,0-.39-.08-.67-1-1-1-.88,0,1.33,4,2,4,.62,0,2.08-2.42,1.5-3ZM34.59,168.32c-.65,0-.65,1,0,1s.65-1,0-1ZM148.09,168.32c-.76-.64-2.8.33-2,1,.76.64,2.8-.33,2-1ZM126.59,170.32c-.65,0-.65,1,0,1s.65-1,0-1ZM40.59,171.32c-.65,0-.65,1,0,1s.65-1,0-1ZM111.09,174.32c.64-.76-.33-2.8-1-2-.64.76.33,2.8,1,2ZM143.09,175.32c.64-.76-.33-2.8-1-2-.64.76.33,2.8,1,2Z"/>
      <path d="M5.09,126.32c-.22,1.09-1.32,1.32-1,2.5.05.17,1.82,1.73,1,2.5-.11.1-2.89.11-3,0-.3-.3.16-6.87,0-8.5-.03-.36-.95-.63-1-1-.25-2-.42-6.93,1.5-7.5,1.03-.31,2.21.14,3.5-1l.5,3-4.5-1c.12.81-.19,2.81,0,3,.62.62,7.47-1.65,2,3.5-.05,1.04,1.73.27,2,.5.37.32-.8,1.08-1,2-2.68-.64-3.6,2.21,0,2Z"/>
      <path d="M175.09,61.32c.86-.42,3,.85,3,1.5,0,.33-1,.66-1,1,0,.25,1.5,1.09,1,1.5-.27.22-1.77-.21-2.5,0-.51.15-.86,1.54-2.5,1,.21-.43-.19-1.81,0-2,.11-.11,3.26.05,2-1-.32-.27-1.21.79-2-1,1.05-.2,1.74.53,2-1Z"/>
      <path d="M8.09,16.32c.14.14.13,3.85,0,4-.43.47-3.98-3.02-3-4,.11-.11,2.89-.11,3,0Z"/>
      <path d="M13.09,116.32c-.28.34-2-1.29-2-1.5,0-.32.85-.57,1-1,.1-.27.1-2.57,1-1.5.13.15.13,3.84,0,4Z"/>
      <path d="M172.09,6.32c1.09,1.09-.91,3.09-2,2s.91-3.09,2-2Z"/>
      <path d="M6.09,2.32c1.74,1.56-1.26,2.08-2,2.5-1.47.84-1,2.53-3,0l5-2.5Z"/>
      <path d="M161.09,3.32c1.09,1.09-.91,3.09-2,2s.91-3.09,2-2Z"/>
      <path d="M8.09,12.32c-2.11.26-2.26.11-2-2l2,2Z"/>
      <path d="M16.09,114.32c-.18.18-2.42.23-2-.5,1.68-2.89,3.03-.53,2,.5Z"/>
      <path d="M174.09,22.32l-2,2c-.26-2.11-.11-2.26,2-2Z"/>
      <path d="M7.09,101.32c-.67.8-1.64-1.24-1-2,.67-.8,1.64,1.24,1,2Z"/>
      <path d="M175.09,44.32c-.67.8-1.64-1.24-1-2,.67-.8,1.64,1.24,1,2Z"/>
      <path d="M13.09,54.32c-.67.8-1.64-1.24-1-2,.67-.8,1.64,1.24,1,2Z"/>
      <path d="M6.09,167.32c.8.67-1.24,1.64-2,1-.8-.67,1.24-1.64,2-1Z"/>
      <path d="M19.09,173.32c.8.67-1.24,1.64-2,1-.8-.67,1.24-1.64,2-1Z"/>
      <path d="M8.59,118.32c.65,0,.65,1,0,1s-.65-1,0-1Z"/>
      <path d="M9.59,115.32c1.42,0-1.5,2.92-1.5,1.5,0-.11,1.39-1.5,1.5-1.5Z"/>
      <path d="M7.59,109.32c.65,0,.65,1,0,1s-.65-1,0-1Z"/>
      <path d="M6.59,105.32c.65,0,.65,1,0,1s-.65-1,0-1Z"/>
      <path d="M5.59,102.32c.65,0,.65,1,0,1s-.65-1,0-1Z"/>
      <path d="M172.59,32.32c.65,0,.65,1,0,1s-.65-1,0-1Z"/>
      <path d="M172.59,20.32c.65,0,.65,1,0,1s-.65-1,0-1Z"/>
      <path d="M167.59,18.32c.65,0,.65,1,0,1s-.65-1,0-1Z"/>
      <path d="M170.59,17.32c.65,0,.65,1,0,1s-.65-1,0-1Z"/>
      <path d="M9.59,6.32c.65,0,.65,1,0,1s-.65-1,0-1Z"/>
      <path d="M165.59,5.32c.65,0,.65,1,0,1s-.65-1,0-1Z"/>
      <path d="M113.59,2.32c.65,0,.65,1,0,1s-.65-1,0-1Z"/>
      <path d="M106.09,75.32c-.25.25-2.74-.25-3,0-1.96,1.92,1.2,1.82,1.5,2,2.8,1.67,3.49,6.27,1,5-1.77-.91-4.51-4.86-7-5l-5.5-6c2.1-.31,3.63.25,5.5,1,.42.17.62.88,1,1,2.01.61,4.58-2,5-2,1.01,0,2.11,3.39,1.5,4Z"/>
      <path d="M99.09,114.32c1.09,1.09-1,3.3-1,3.5,0,.15,1.84,1.66,1,2.5-.2.2-4.98-.45-5,1.5,0,.6,2.8,2.81-2,1l-3,.5c-.98-2.86,1.8-1.74,2-2,.23-.3-.21-1.78,0-2.5s2.78-2.27,3-3c.44-1.48-1-3.46,2.5-2.5.37.1.58.82,1,1,.54.22,1.33-.17,1.5,0Z"/>
      <path d="M97.09,42.32c1.06,1.17-1.99,3.2-2,3.5-.05,1.66,3.84,1.36,4,1.5.33.3-1.57,1.76-1,3h-10c.66-1.55-1.88-5.02-1-6,.73-.81,2.93,1.18,3.5,2,.73,1.06.43,1.93.5,2,.11.1,2.89.11,3,0,.21-.21-.14-2.54,0-3.5.27-1.8,2.15-3.43,3-2.5Z"/>
      <path d="M107.09,37.32c.69.69-2.01,4.21,4,3l-2.5,3c-2.39.67-1.18-1.68-1.5-2s-3.43.29-4.5,0c-.64-.18-2.07-2.44-3-3-.99-.6-2.06,1.01-1.5-3,2.08,1.72,4.34.62,6.5,1,.35.06.57.82,1,1,.54.22,1.33-.17,1.5,0Z"/>
      <path d="M82.09,100.32c.16-.16.86.17,1,0l.5-6c1.7,1.65,3.06,3.63,4.5,5.5.73.95,1.71,2.73,1,3.5-1.05,1.14-3.04-1.88-3.5-2-2.38-.64-2.34,2.84-2.5,3-.58.59-3.56-1.73-5-1-.99-3.55,3.22-1.35,4-2,.17-.14-.16-.84,0-1-.29.29-3.85.62-3-1.5,1.22-3.05,3.99.51,3,1.5Z"/>
      <path d="M121.09,53.32l1,4.5-2.5,4.5c-.71-1.09-3.16-1.25-3.5-2.5-.93-3.39,1.07-7.08,5-6.5Z"/>
      <path d="M94.09,62.32c.17.17-.22.96,0,1.5.18.43.91.64,1,1,.4,1.72.07,3.43-1.5,4.5l-1.5-6c-1.17-.07-1.92-.16-3,.5-1.25.77-3.53,6.11-5,4.5-.14-.15-.14-3.86,0-4,.25-.25,2.75.25,3,0,.13-.13-.13-2.53,1.5-3,2-.57,2.55.88,3,1,.74.2,2.29-.21,2.5,0Z"/>
      <path d="M78.09,139.32c.14.14,5.7-.26,3,2-.21.18-4.57.13-5.5,0-.37-.05-.61-.92-1-1-.95-.19-3.26.24-3.5,0-.11-.11-.11-2.89,0-3,.29-.29,3.4.24,4.5,0,.4-.09,3.22-2.33,3.5-2,.67.78-1.7,3.31-1,4Z"/>
      <path d="M40.09,81.32c-.51.56-2.78-.67-3-1.5-.18-.69-.19-4.32,0-5,.2-.71,4.81-4.8,6-5.5l-3,5.5c-.25,1.31.36,6.11,0,6.5Z"/>
      <path d="M54.09,100.32c.6-.68,2.87,3.45,4.5,3,.5-.14,2.03-2.57,2.5-2,1.14,1.38-1.29,4.09-2.5,5-.22.17-.8-.16-1,0-2.97,2.34-5.21,4.58-4.5,8.5.07.37.89.6,1,1,.2.74-.22,2.24,0,2.5.41.5,1.25-1,1.5-1,.44,0,5.92,4.24,7,5,1.4.98,2.41.9,2.5,1,.59.59-.2,3.43-1.5,4l-4-5c-1.11-.2-7.5-4.98-7.5-5.5,0-.33,1-.67,1-1s-.92-.61-1-1c-.16-.77.19-2.31,0-2.5-.32-.32-3.43.29-4.5,0-1.59-.44-2.62-4.23-4-5-.47-.26-1.31.19-1.5,0s.26-1.03,0-1.5c-1.44-2.58-5.32-2.45,0-5.5l1,5.5c.88.65,1.66,2,2.5,2.5.22.13.69-.14,1,0,.43.2.64.92,1,1,1.7.38,3.89-.8,5,1,1.23-1.73,4.05-4.56,3.5-6.5-.16-.57-3.09-2.26-2-3.5Z"/>
      <path d="M101.09,101.32l1,4.5c1.84.5-.59,3.23-1.5,3.5-1.63.48-4.15-.78-1.5,2.5.13.88-1.93.57-2,.5-1.51-1.53,2-4.24,2-4.5,0-.33-.94-.62-1-1-.15-.89-.19-5.31,0-5.5s2.19.12,3,0Z"/>
      <path d="M87.09,116.32c.26.26-.18,3.38,0,4.5.06.38.94.62,1,1,.13.82.16,4.34,0,4.5-.11.11-2.89.11-3,0-.23-.23.17-2.55,0-3.5-.07-.39-1-.67-1-1,0-.17,1.2-.71,1-3-.11-1.23-1.24-2.3-1-2.5.11-.1,2.89-.11,3,0Z"/>
      <path d="M83.59,55.32c1.21-.36,3.52.69,3.5,1.5,0,.18-1.54,2.42-2,3-2.45,3.08-6,.87-4.5-1.5.29-.45,2.8-2.94,3-3Z"/>
      <path d="M53.09,89.32c.77.81-1.83,3.82-2.5,4-5.21,1.43-7.66-2.94-3-6,.98.76.12,3.45,2,4,1.51.44,2.93-2.6,3.5-2Z"/>
      <path d="M54.09,69.32c.77.84-2.17,4.24-2,5.5-1.32.75-.92,4.36-2.5,4.5-1.67.15-1.84-3.7.5-4.5-1.4-2.01,2.75-6.85,4-5.5Z"/>
      <path d="M135.09,72.32c1.13.33,3.38,2.33,3,3.5-.08.24-3.25,3.5-3.5,3.5-.18,0-2.5-2.32-2.5-2.5,0-.65,3.82-2.56,3-4.5Z"/>
      <path d="M81.09,78.32c1,.94-5.66,6.44-7,7l-1-4,4.5-1c.62-.81,2.64-2.8,3.5-2Z"/>
      <path d="M51.09,64.32c-3.77.9-.69-4.14-3.5-5-1.29-.39-2.15,1.31-3,2-1.44-.42.19-2.76,1-3,.94-.28,2.15.52,3-1,1.27.68,1.15,1.64,1.5,2.5.6,1.46,1.25,2.85,1,4.5Z"/>
      <path d="M68.09,47.32c-1.04-2.55,1.77-3.66,2-4.5.35-1.31-1.03-4.57,1-4.5.04,1.93,1.61,3.32,1,5.5-.14.51-3.05,3.16-4,3.5Z"/>
      <path d="M108.09,57.32c.04,1.39,1.88,5.05,1,6-.63.68-3.45-.87-3-2.5.81-2.92-.3-1.26-1-3-1.03-2.56,1.7-.38,3-.5Z"/>
      <path d="M95.09,61.32c.5-1.49-2.8-5.06-2-6,.45-.53,9.38,5.03,2,6Z"/>
      <path d="M95.09,99.32c-1.32-1.32,3.96-6.26,5-2.5.66,2.41-4.32,3.18-5,2.5Z"/>
      <path d="M70.09,60.32c.11.11.11,2.89,0,3-.18.18-4.82.18-5,0-1.88-1.88,1.01-1.79,1.5-2,.55-.23,2.51-1.99,3.5-1Z"/>
      <path d="M137.09,56.32c.54.55-.64,2.74-1.5,3-3.3.98-2.56-1.27-2.5-4l4,1Z"/>
      <path d="M80.09,83.32l2,3,4,1c-.55-1.6.93-2.1,1-2.5.2-1.13-.28-4.2,0-4.5.55-.6,3.02.9,3,1.5-.01.4-1.84,1.44-2,2-.18.62.18,1.38,0,2-.2.7-4.14,3.5-4.5,3.5-.6,0-4.63-4.28-3.5-6Z"/>
      <path d="M77.09,51.32c-.82.82-4.42-1.97-4-3.5.05-.17,1.39-1.5,1.5-1.5.86,0,3.55,3.95,2.5,5Z"/>
      <path d="M75.09,107.32c.14.14.14,3.86,0,4-.68.7-2.8-1.45-4-1v-2c1.2.45,3.32-1.7,4-1Z"/>
      <polygon points="83.09 121.32 75.09 123.32 75.59 120.32 83.09 121.32"/>
      <path d="M59.09,96.32c-1.18,1.01-5-1.67-5-2.5,0-.4,1.59-1.75,2.5-1.5.71.2,2.68,3.84,2.5,4Z"/>
      <path d="M67.09,73.32c.96.98-1.12,2.37-1.5,3-.34.56-.99,3.82-2.5,2-1.42-1.71,2.84-6.19,4-5Z"/>
      <path d="M118.09,100.32c1.09.91-1.29.92-1.5,1-.42.17-.62.9-1,1-3.79,1.04-3.79-4.04,0-3,.38.1.58.83,1,1,.54.22,1.3-.17,1.5,0Z"/>
      <path d="M133.09,80.32c.11.11.11,2.89,0,3-1.23,1.23-5.34-1.66-4-3,.14-.14,3.86-.14,4,0Z"/>
      <path d="M98.09,81.32c.33.3-1.57,1.76-1,3-1.18-.48-3.27,1.7-4,1-1.52-1.47,4.16-4.76,5-4Z"/>
      <path d="M69.09,94.32c-2,2-4.92-5.37-1.5-4,1.27.51,2.1,3.4,1.5,4Z"/>
      <path d="M129.09,53.32c1.05,1.05-1.2,4.71-3,5-.64-1.97.65-2.65,1-3.5.21-.49.12-3.38,2-1.5Z"/>
      <path d="M58.09,56.32c.5.41-.93,1.16-1,1.5-.2.93.38,5.88-2,3.5-1.13-1.13,1.04-6.6,3-5Z"/>
      <path d="M70.09,77.32c.19.19.79,4.92-1.5,4-3.42-1.37.23-5.27,1.5-4Z"/>
      <path d="M123.09,69.32c.84,1.29-1.56,5-2.5,5-.11,0-1.5-1.39-1.5-1.5,0-.27,3.09-3.27,4-3.5Z"/>
      <path d="M78.09,37.32l-5,2c-.98-2.86,1.8-1.74,2-2,.36-.48-.32-5.03,3,0Z"/>
      <path d="M82.09,36.32c.41.42-1.31,2.9,3,2l1,5-7-7.5,3,.5Z"/>
      <path d="M84.09,127.32c1.46,1.46-2.07,5.89-3,2.5-.44-1.61,2.32-3.18,3-2.5Z"/>
      <path d="M121.59,63.32c1.72,0,1.72,4,0,4s-1.72-4,0-4Z"/>
      <path d="M59.09,68.32c-.88.71-6,0-4-2,1.05-1.05,4.8,1.36,4,2Z"/>
      <path d="M62.09,50.32c1.02,1.02-1.98,4.02-3,3s1.98-4.02,3-3Z"/>
      <path d="M57.09,75.32c-.11.11-3.46.63-3-1l4-3-1,4Z"/>
      <path d="M112.09,74.32c-.29-.29-.62-3.85,1.5-3,3.05,1.22-.51,3.99-1.5,3Z"/>
      <path d="M73.09,67.32c.73.59-2.71,3.04-4,2-.73-.59,2.71-3.04,4-2Z"/>
      <path d="M75.09,74.32c-.58.58-3-.88-3-1.5,0-.11,1.39-1.5,1.5-1.5.62,0,2.08,2.42,1.5,3Z"/>
      <path d="M54.09,51.32c.83.83-1.54,3.57-2,3-.17-.22.23-.98,0-1.5-.19-.43-1.48-1.1-1-1.5.12-.1,2.89-.11,3,0Z"/>
      <path d="M69.09,51.32c2.66,2.66-5.66,2.66-3,0,.11-.11,2.89-.11,3,0Z"/>
      <path d="M96.09,136.32c2.66,2.66-5.66,2.66-3,0,.11-.11,2.89-.11,3,0Z"/>
      <path d="M66.09,85.32c-1.76.31-3.29-1.36-4-3,1.76-.31,3.29,1.36,4,3Z"/>
      <path d="M73.09,103.32c-.59.73-3.04-2.71-2-4,.59-.73,3.04,2.71,2,4Z"/>
      <path d="M114.09,47.32c-1.63,1.63-2.87-1.92-2-3,.46-.57,2.83,2.17,2,3Z"/>
      <path d="M128.09,76.32c.57.46-2.17,2.83-3,2-1.63-1.63,1.92-2.87,3-2Z"/>
      <path d="M60.09,78.32c.49.4-.81,1.07-1,1.5-.23.53.17,1.29,0,1.5-1.3,1.55-1.73-5.24,1-3Z"/>
      <path d="M113.09,53.32c-1.37,1.64-1.37-5.64,0-4,.13.15.13,3.85,0,4Z"/>
      <path d="M54.09,46.32c.18.18.23,2.42-.5,2-2.89-1.68-.53-3.03.5-2Z"/>
      <path d="M105.09,48.32l-2,2c-.26-2.11-.11-2.26,2-2Z"/>
      <path d="M61.09,135.32c-.18.18-2.42.23-2-.5,1.68-2.89,3.03-.53,2,.5Z"/>
      <path d="M62.09,57.32c-.18.18-2.42.23-2-.5,1.68-2.89,3.03-.53,2,.5Z"/>
      <path d="M62.09,62.32c-1.31,1.57-1.31-4.57,0-3,.1.12.1,2.88,0,3Z"/>
      <path d="M67.09,109.32c-2.11.26-2.26.11-2-2l2,2Z"/>
      <path d="M106.09,90.32c-.18.18-2.42.23-2-.5,1.68-2.89,3.03-.53,2,.5Z"/>
      <path d="M124.09,81.32c.8.67-1.24,1.64-2,1-.8-.67,1.24-1.64,2-1Z"/>
      <path d="M62.09,94.32c.8.67-1.24,1.64-2,1-.8-.67,1.24-1.64,2-1Z"/>
      <path d="M76.09,66.32c.8.67-1.24,1.64-2,1-.8-.67,1.24-1.64,2-1Z"/>
      <path d="M104.09,62.32c.8.67-1.24,1.64-2,1-.8-.67,1.24-1.64,2-1Z"/>
      <path d="M77.09,63.32c-.67.8-1.64-1.24-1-2,.67-.8,1.64,1.24,1,2Z"/>
      <path d="M79.09,56.32c.8.67-1.24,1.64-2,1-.8-.67,1.24-1.64,2-1Z"/>
      <path d="M101.59,92.32c.65,0,.65,1,0,1s-.65-1,0-1Z"/>
      <path d="M110.59,91.32c.65,0,.65,1,0,1s-.65-1,0-1Z"/>
      <path d="M72.59,88.32c.65,0,.65,1,0,1s-.65-1,0-1Z"/>
      <path d="M79.59,68.32c.65,0,.65,1,0,1s-.65-1,0-1Z"/>
      <path d="M64.59,57.32c.65,0,.65,1,0,1s-.65-1,0-1Z"/>
      <path d="M120.59,44.32c.65,0,.65,1,0,1s-.65-1,0-1Z"/>
    </g>
  </g>
</svg>