<?xml version="1.0" encoding="UTF-8"?>
<svg id="Layer_2" data-name="Layer 2" xmlns="http://www.w3.org/2000/svg" viewBox="0 0 180.2 176.02">
  <g id="Elements">
    <g id="Element">
      <path d="M59.05,1.91l-5.5,1c-1.67,1.25-2.69,2.31-4,1-1.65-1.65-1.46.36-3.5,0l4.5-3c2.71,1.46,2.46.48,4,0,1.84-.58,2.77,1.3,4.5,1Z"/>
      <path d="M8.05,19.91c.19.19-.19,1.79,0,2,.26.28,2.4-.79,2,1l-1.5,1c1.72,1.44-1.99.67-2.5,2.5-.03.12,2.96,2.54-.5,2.5l-.5-6,2-1-2-2c.81.12,2.81-.19,3,0Z"/>
      <path d="M5.05,35.91c-1.32-1.32,3.96-6.26,5-2.5.66,2.41-4.32,3.18-5,2.5Z"/>
      <path d="M9.05,11.91c-.16,1.85,1.07,3-1.5,3-1.33,0,.65,3.2-1.5,3l3-6Z"/>
      <path d="M12.05,20.91c-.14-.16-.86.16-1,0-.36-.43.25-4.72,0-6l2.5,3c2.27-.81,4.87-1.34,7.5-2-.74-1.78-2.59-3.58-4.5-3-.41.12-.62.91-1,1-2.22.52-4.34-.57-5.5-2.5-.6-.99,1.01-2.06-3-1.5.25-1.29,1.19-1.94,2.5-2,1.7-.08,1.82,1.95,3.5-.5-1.15-1.87-4.08-.76-3-4,.16-.49,3.18-2.43,3.5-2.5C17.85-.02,24.87,1.58,29.55.91l-.5,2c2.86.98,1.74-1.8,2-2,.2-.15,4.82-.18,5,0,.25.25-.25,2.74,0,3,.07.07.92-.2,2,.5,1.37.88,1.03,2.11,1,3.5l1.5-4,4,3c2,.58,2.83-1,3-1,.33,0,.62.94,1,1,3.04.51,4.27-.26,6.5-2,.18.99-.27,3.68,0,4,2.45,2.92,1.82-3.82,2-4,.14-.14,3.86-.14,4,0,.36.36-.97,3.99,1.5,3,.63-.25,1.45-1.84,2-2,.72-.21,2.28.22,2.5,0,.75-.72-1.27-2.77-1-3,.58-.5,6.81.46,8.5,0,.54-.15,1.37-1.75,2-2,2.18-.87,1.21,1.4,1.5,2-.9-.97-2.41,1.14-3,1.5-1.47.9-2.48-.17-2,2.5,1.64-.25,2.75-.77,4.5-1,.89-.12.6-2.89.5-3,.08.17,2.53,1.43,3,1,.28-.26-.79-2.4,1-2,.16.96-.24,3.76,0,4,.18.18,4.8.15,5,0,.26-.2-.86-2.98,2-2-1.29,2.57,2,6.78,4,5,.49-.43-1.92-1.79-.5-2,2.95.61.16-3.33,3-5l-.5,4c2.53,1.06,3.65-1.77,4.5-2,1.98-.54,2.91,2.87,3.5,4.5.33.9,2.89.61,3,.5.76-.75-1.29-2.48-1-3.5.11-.4.88-.6,1-1,.37-1.29-1.48-2.09-1-2.5.13-.11,2.95-.15,3.5,0,.46.13,1.52,1.29,4,2,1.65.47,3.98,5.61,3.5-2,1.64.49,1.78-.65,2.5-1,2.07-1.02,1.39,1.91,1.5,2,1.26,1.06,3.3-1,3.5-1,1.18,0,.8.57,4,0s7.26.39,10.5,0c-.26.89-1.83,2.67-2.5,3-2.06,1.01-1.4-1.91-1.5-2-.65-.63-3.01.73-3,2l6,2c.12-.81-.19-2.81,0-3,.87-.87,7.03,1.51,6,4l2.5-2-1.5,4,4-1c-.43-4.56,2.98.39,3,3,2.05.07,3.69,2.21,5-.5,1-2.07-1.9-1.4-2-1.5-.99-1.01,1.39-.94,1.5-1,1.8-1.02,1.61-5.29,4-6,1.87-.55,3.06,1.5,5,1,1.15,2.37,4.15-1.1,5.5,0,.57.47-1.86,2-2,2.5-.19.66.23,1.5,0,2-.45.97-3.13,4.29-2,5.5.61.65,2.46-.65,3-1.5.15-.24-.24-1.21,1-2s2.58-.05,3.5-1.5l-.5,5c2.44.69,2.75-.77,4-1.5.94-.55,1.88.53,2,1,.26.97.21,5.84,0,7-.08.45-2.2,4.32-2,4.5.21.19,1.81-.19,2,0,.14.14.14,3.86,0,4-.56.56-1.84-1.6-2,2,.46-.12,1.93-.07,2,0,.14.14.14,3.86,0,4-2.22,2.22-2.06-2.6-2-4-.97.25-1.41,1-1.5,1-.4,0-1.45-1.85-2-2-1.17-.32-3.13.21-4.5,0-.4,1.79,1.74.72,2,1,.82.9-.97,2.36-1,2.5-.15.87-.19,5.31,0,5.5s1.81-.19,2,0c.23.23.16,5.53,0,6.5-.06.38-1,.67-1,1s1,.67,1,1c0,.43-2.12,1.47-2,2.5,1.18-.65,5.54,3.53,6,3,.57-.65-.89-2.28-1-3.5-.24-2.73,1.34-3.83,0-8-1.06-3.3-.02-2.27,0-3,.03-1.3-2.89-1.38-3-1.5-.14-.15-.38-1.68.5-2s3.14-1.37,3.5-1c.25.26-.25,2.75,0,3,.19.19,1.81-.19,2,0,.21.21-.2,1.76,0,2.5.11.41.95.64,1,1,.16,1.09.26,7.23,0,7.5-.38.4-3.33-.98-3,1,1.93-.35,4.13-.24,3,2.5-.72,1.75-1.66,3.61-1,6,.15.55,1.85,1.45,2,2,.24.86.14,3.9,0,5-.2,1.59-1.52,2.55-1,4.5l-2-6c-3.15,1-.98,2.34-1,2.5-.02.14-1.61,1.75-2,2-1,.63-2.12-1.24-3-.5-2.68,2.27,2.86,1.86,3,2,.19.19-.19,1.81,0,2,.11.11,2.89.11,3,0,.66-.66-1.16-2.32,1-1.5,1.34.51,1.59-.98,2-.5.18.21.15,4.64,0,5.5-.06.35-.82.57-1,1-.22.54.17,1.33,0,1.5s-4.7.44,0,1c-.46,1.21,1.7,3.3,1,4-.94.94-3.86-1.15-4-1-.68.77,2.34,3.27-1,4,.2-1.12-.3-4.67,0-5,.26-.28,2.4.79,2-1-3.71.41-1.3-1.41-1-3.5s-1.55-2.02-2-1.5c-.4.47.8,3.59-1,4.5.26,1.84-.37,4.33,0,6,1.43,6.4-2.13,13.53-3,20-.13.96-.19,5.31,0,5.5s2.19-.12,3,0l1-5.5c2.31-1.67.14-2.38,0-3-.97-4.31,1.68-4.84,2-6,.42-1.54-1.79-2.25-2-3-.43-1.54,3.43-4.04,4.5-5.5l1.5,3.5c-1.86,2.21-.58,4.58-1,7-.46,2.67,1.48,4.41,1,6-1.24,4.07-.22,7.18-1,10-.15.55-2,1.61-2,2s1.85,1.45,2,2c.43,1.56-.38,4.31,0,6,.09.38.89.6,1,1,.42,1.51-2.98,3.62-4,5l3,.5c-.35,2.49,1.56,3.99,1,6.5-.1.44-1.55.88-1,2.5-.24.26-2.27-1.75-3-1-.11.11-.39,2.88.5,3,.78.1,2.28-.18,2.5,0,.5.41-.93,1.16-1,1.5-.58,2.95,1.43,5.58,1,7-.81,2.66-3.23,5.36-4,8-.24.81.21,2.1,0,3-.09.38-1.57,1-1,3,.68,2.36,0,1.48,0,2,0,.29,2.91,1.71,2,5-.05.18-2.1,2.25-2.5,2.5-.17.1-2.16.98-2.5.5.5-.78,2.44-1.56,1.5-2.5-.76-.76,1.35-1.72-1-3-3.46-1.11-2.37,1.91-2.5,2-.41.29-2.53-.23-3.5,0-.39.09-.6.89-1,1-2.23.62-2.6-3.62-4-4-1.07-.29-4.18.32-4.5,0-.19-.19.2-1.76,0-2-.41-.5-1.16.93-1.5,1-3.69.76-4-1.72-5-2-2.44-.67-7.99-.33-11-1-3.63-.81-3.3.74-6,0-.71-.2-12.14,1.67-14,2-1.23.22-2.85-.26-4,0-.35.08-.57.8-1,1-1.28.59-2.89.52-2.5,3l6.5,1c.94,1.71,3.6-.56,5-1,1.9-.6,2.84,1.76,4,0,.71,1.39-1.95,2.5-2.5,3.5-.26.47.19,1.31,0,1.5-.17.17-.96-.22-1.5,0-.43.18-.65.94-1,1-.87.16-3.19.18-4,0-.4-.09-.68-1.36-2-1-.41.11-.67,1-1,1-.25,0-1.09-1.5-1.5-1-.2.24.2,1.76,0,2-.41.5-1.13-.9-1.5-1-1.08-.29-3.63,2.79-5.5-.5-.27-.47.19-1.31,0-1.5-.14-.14-3.86-.14-4,0-.19.19.19,1.81,0,2-.54.54-5.61-.97-6.5,1-.73-1.6-4.18-2.33-4.5-3.5-.25-.91.27-3.23,0-3.5-.34-.34-4.63.35-5,0-.82-.77.97-2.37,1-2.5.2-.97-.26-3.19,0-3.5.15-.19,2.19,1.54,4.5,1,.4-.09.63-.95,1-1,1.02-.15,6.27-.23,6.5,0,.19.19-.26,1.03,0,1.5,1.59,2.84,3.92,1.87,3-1.5l4,2c.33-.31-2.19-2.39-.5-3,.31-.11.74.12,1,0,.43-.19.64-.92,1-1,.89-.21,2.16.23,3,0,2.82-.77,7.93-4.88,11-6,1.83-.67,3.08-.03,2.5,2l-6,1c.16.97-.24,3.75,0,4,.13.13,2.76.58,3.5,1,.79-1.53,2.22-.68,3-1,1.73-.7,5.64-3.7,7-4,1.17-.25,2.83.25,4,0,.36-.08,2.82-2,3-2,.33,0,.58.88,1,1,1.02.29,2.75-1.76,3.5-1,.23.23-.55,2.05.5,2l4-3h3l2.5-3-43.5-1c-2.22,1.24-1.08,2.98-1.5,4.5-.48,1.73-2.73,1.23-3.5,1.5-.49.17-2.3,1.99-3.5,1-.49-.41.99-1.24,1-1.5.04-1-3.41-2.11-4-1.5-1.48,1.52,3.96,5.13-2.5,4-.39-.07-.67-1-1-1-.39,0-2.17,2.5-3,3-.49.29-4.71,2-5,2-.33,0-.67-1-1-1-.24,0-2.41,2.49-4,0-4.3.8-7.35-1.81-11.5-2h5.5c2.29-1.23,2.03-6.42,0-7-.63-.18-1.41.19-2,0-1.62-.52-2.58-.61-4-1-.84-.23-1.5-2.76-4-2-.41.12-.62.92-1,1-.95.19-3.26-.24-3.5,0-1.13,1.12,2.22,5.77,2,6-.35.37-4.33-1.28-3,2.5.19.54,2.86,2.25,3.5,2.5,2.09.83,6.33.44,7.5,2.5.27.47-.19,1.31,0,1.5.24.24,3.04-.16,4,0-.46,2.38-2.28,1.63-3.5,2-.57.18-1.61,2-2,2-.37,0-4.7-4.33-6-4-1.23-1.04-3.56-2.44-5-2-.41.12-.62.91-1,1-4.8,1.12-5.41-5.42-10.5-4l2,4c-1.63-.55-2.02.88-2.5,1-1.56.4-2.25-1.79-3-2-2.64-.73-5.32,1.22-5.5,1-.2-.24.19-1.81,0-2-.11-.11-2.89-.11-3,0-.18.18.68,2.91-1.5,2-.74-.31-3.76-1.98-4-2-.18-.01-2.36,2.08-3.5,1s4.67-6.37,5-6c.19.2-.27,1.03,0,1.5,1.39,2.45,4.17,1.15,6.5,1.5.37.05.6.91,1,1,3.38.79,3.38-1.1,5-2,.47-.26,1.31.19,1.5,0,.14-.14.14-3.86,0-4-.3-.3-7.42-.19-8.5,0-5.16.92-2.83-.31-6-1-1.47-.32-6.31-.21-8,0-.37.05-.62.93-1,1-1.23.21-2.84-.25-4,0-1.43.31-4.57,3.69-6,4-.78.17-5.3.19-5.5,0-.25-.24.57-2.83-1-3.5,1.12-.51,1.35-3.09,1-3.5-.45-.54-2.55,2.54-3,2-.51-.62.4-10.23,0-12.5-.03-.14-1.83-1.67-1-2.5.16-.16,4,.2,4-1.5,0-.33-.94-.62-1-1-.52-3.1,1.67-5.26-3-4.5.15-2.51,3.82-1.82,4-2,.41-.41-1.36-4.24-2-5,.83.83,3.57-1.54,3-2-.22-.17-.98.23-1.5,0-.43-.19-1.1-1.48-1.5-1-.1.12-.11,2.89,0,3-.08-.1-2-.87-2-1.5,0-.32.86-.58,1-1,.65-2.03-1.41-3.01,3-2.5.64-4.07-2.83-.76-3-1-.3-.41.2-3.32,0-4.5-.43-2.57.66-6.04,0-9-1.43-6.4,1.63-19.73,0-27-.93-4.16-.64-19.37,1-25,.12-.4.91-.62,1-1,.54-2.27-1.16-4.33-1-4.5.94-1.02,2.68.79,3,2.5.16.82.36,2.32-.5,2.5-1.03.22-1.75-.6-1.5,1l5,1-1,3,4-3.5-5-.5c-.98-2.86,1.8-1.74,2-2,.09-.12.11-2.89,0-3-.19-.19-1.81.19-2,0s.19-1.81,0-2c-.16-.16-4,.2-4-1.5,0-.15,1.28-.64,1-2.5,2.6.54,2.86,1.82,3.5,2,2.14.62,3.8-1.72,5-2s3.7.92,3.5-1c-1.26.23-4.14-1.87-5-1-.19.19.26,1.03,0,1.5-1.71,3.06-2.46-.2-3.5-.5-.63-.18-1.42.2-2,0-.31-.11-1.58-1.83-2.5-1-.4.36.86,1.05,1,2-.63-.13-1.85.15-2,0-.32-.32-.42-6.43,1.5-7l1,3c6.52-7.11,3.72.15,4.5,1,.51.56,2.77-.67,3-1.5.35-1.27-1.51-1.86-1-3.5l6,1c.57-3.12-1.24-1.43-3-2.5s.47-1.87,0-3.5c-1.76-.53-.56,2.61-1.5,2-1.25-.81-1.64-1.41-3.5-1,.25-1.72,1.91-1.78,3-2.5,1-.66,1.2-1.99,3-1.5-.29-1.42-1.15-1.81-2.5-2-2.85-.41-.1,2.83-3.5,2-.19-1.63-.07-3.12,1.5-4,.47-.26,1.28.18,1.5,0,.49-.4-.81-1.07-1-1.5-.23-.53.17-1.29,0-1.5,1.09,1.09,3.09-.91,2-2s-3.09.91-2,2ZM35.05,1.91c-2.11-.26-2.26-.11-2,2l2-2ZM18.05,3.91c-.76-.64-2.8.33-2,1,.76.64,2.8-.33,2-1ZM27.05,6.91c.11-.11.1-2.88,0-3-.4-.48-1.07.81-1.5,1-.52.23-1.28-.17-1.5,0-.57.46,2.17,2.83,3,2ZM21.55,5.91c-.65,0-.65,1,0,1s.65-1,0-1ZM121.55,5.91c-.65,0-.65,1,0,1s.65-1,0-1ZM124.05,8.91c.99.99,4.55-1.78,1.5-3-2.12-.85-1.79,2.71-1.5,3ZM28.55,6.91c-.65,0-.65,1,0,1s.65-1,0-1ZM34.55,6.91c-.65,0-.65,1,0,1s.65-1,0-1ZM117.05,9.91c.42.52,2.81-2,2-3-.42-.52-2.81,2-2,3ZM133.05,8.91c.57-.46-2.17-2.83-3-2-1.63,1.63,1.92,2.87,3,2ZM136.05,8.91c-1.09-1.09-3.09.91-2,2s3.09-.91,2-2ZM24.05,12.91c-.15-.15-3.45-.27-3,.5,1.76,3.01,4.42.92,3-.5ZM28.05,13.91c-.11-.11-2.89-.11-3,0-2.66,2.66,5.66,2.66,3,0ZM74.55,13.91c-.65,0-.65,1,0,1s.65-1,0-1ZM62.05,16.91c-.5-2.09-2.78-2.42-4.5-2-3.1.75-6.27,1.5-10,1l-3.5,2c4.67-1.16,2.38,2.38,3,3,2.13,2.13,1.86-1.86,2-2,.17-.17.96.22,1.5,0,.43-.18.64-.92,1-1,2.56-.58,3.78,1,4,1,1.31,0,1.38-2.86,1.5-3,.17-.19,3.31,1.9,5,1ZM106.05,14.91c-.76-.64-2.8.33-2,1,.76.64,2.8-.33,2-1ZM55.05,130.91c-.05,1.11.22,2.58,0,3.5-.1.41-1.36.68-1,2,.47,1.69,2.61,1.24,3.5,1.5.81.23,3.47,4,4,4,.39,0,1.45-1.85,2-2,1.32-.36,1.6.91,2,1,1.16.26,5.74.22,7,0,.35-.06.57-.82,1-1,.54-.22,1.33.17,1.5,0,.32-.32-1.09-2.99,2.5-2,.37.1.58.82,1,1,1.39.58,1.89-.84,1.5,3,4.06.65.02-1.95,1-3,1.06-1.14,3.02,1.86,3.5,2,2.13.6,3.62-1.59,5-2,1.87-.56,3.12,1.56,5,1,1.71-.5,1.24-2.59,1.5-3.5.12-.41,1.15-.94,1.5-1.5.84-1.34.17-2.98,2-4,.84.51.66,4.81.5,5-.1.11-3.02-.57-2,1.5,1.15,2.33,4.06,2.95,6.5,2.5.38-.07.61-.91,1-1,.89-.21,2.16.23,3,0,.55-.15,1.61-2,2-2,.33,0,3.72,4.69,5.5,3,.84-.81-1.01-2.37-1-2.5,0-.11,1.33-1.45,1.5-1.5,1.32-.36,1.6.91,2,1,4.02.9,6.2-1.24,9-2,.74-.2,2.29.21,2.5,0,.36-.36.8-4.49,3.5-6,.47-.26,1.31.19,1.5,0,.21-.21-.21-1.78,0-2.5.17-.56,1.85-1.45,2-2,.23-.83.15-3.97,0-5-.06-.38-.95-.63-1-1-.16-1.25-.27-5.03,0-6,.14-.5,1.62-1.31,2-2,.26-.47-.19-1.31,0-1.5.25-.25,2.75.25,3,0,.27-.27-.21-3.39,0-4.5.12-.62,2.74-8.56,3-9,.55-.93,2.82-2.36,3-3,.3-1.08-.26-2.83,0-4,.09-.4,1.36-.68,1-2-.11-.4-.91-.62-1-1-.37-1.66.42-8.08,0-8.5-.19-.19-1.79.19-2,0-.53-.48,2.46-2.69,3-3.5.65-.98,1.48-3.69,2-5,.17-.43.92-.63,1-1,1.07-4.86-3-6.44-3-7,0-1.32,2.87-1.37,3-1.5.25-.25-.25-2.75,0-3,.26-.26,3.37.88,1.5-2-2.8-4.31-2.3,1.8-2.5,2s-2.66-.55-3,2.5c-.22,1.95.88,2.92-2,2.5-.65-2.1,1.54-3.67,1-5.5-.15-.52-1.62-1.31-2-2-.26-.47.19-1.31,0-1.5s-1.03.26-1.5,0c-1.62-.9-1.85-4.59-4-4-.36.1-.57.79-1,1-1.12.55-2.04-.36-1.5-1.5.3-.64,1.58-1.29,2-2,1.04-1.74.61-3.56,1-5,.12-.45,1.94-3.23,2.5-3.5,2.23-1.07,1.14,1.24,1,2-.21,1.08-.59,1.88-.5,3.5.11,1.96.08,1.6,1,3,.61.94-2.53-.26-2,1.5,1.92.39,2.1-1.67,4-.5,2.36,1.45-.38,3.18,0,3.5s2.17.02,3-.5c1.46-.91.88-2.38,1-2.5.49-.49,3.4,1.57,5.5,1,.46-.13,2.39-3.09,2.5-3.5.23-.84-.21-2.11,0-3,.09-.38,1.57-1,1-3-.05-.17-2.33-2.45-2.5-2.5-1.88-.55-3.12,1.55-5,1-2.01-.59.1-2.56-5-1-2.31.71-4.43-2.14-3.5-3,.44-.4,3.55.73,4-.5-.57-1.55-2.88-1.39-3-1.5-.47-.44,1.38-1.21,1-2.5-.11-.38-.82-.58-1-1-.23-.54.18-1.32,0-1.5-.13-.13-1.95.34-3-1.5-.27-.47.19-1.31,0-1.5-.68-.7-2.8,1.45-4,1,2.29,4.17.61,2.38-1.5,3-.72.21-3.26,4.26-4.5,3-.81-.82,1.66-3.54,2.5-4,.47-.26,1.31.19,1.5,0,.23-.23.18-5.66,0-6.5-.05-.25-1.56-2.45-2-3-3.42-4.28-4.45,2.3-6.5,3.5-.92.54-.28-1.78-.5-2-.16-.16-3.89-.17-4.5,0s-2.12,2.44-3,3c-1.04.05-.27-1.74-.5-2-.4-.45-5.95,3.07-4,5,.76.75,2.76-1.28,3-1,.27.31-.17,3.02,0,4-1.62-.23-3.52-3.73-4.5-4-4.5-1.24-8.05,3.15-8.5,7h-4c-1.28,1.26-.1,1.92,1.5,2,1.11.05,3.16.23,4,0,.5-.14,2.03-2.57,2.5-2,.89,1.1-1.25,3.62-1,5-2.12.68-3.58-1.55-5.5-1-.56.16-1.61,2-2,2-.34,0-1.34-1.63-2-2-.57-.32-2.33-.69-3-1-.41-.19-.61-.83-1-1-.54-.23-1.32.18-1.5,0-.16-.16-.16-3.79,0-4.5.09-.4,1.36-.68,1-2-.13-.47-2.99-2.33-3.5-2.5-1.13-.37-2.88,1.37-2.5,2.5.58,1.74,3.27.86,3,2.5l-3-.5c.65,2.87-4.08.98-6.5,1.5-1.59.9-7.31,5.37-6.5,1l4-2c-2.1-.65-3.67,1.54-5.5,1-.56-.17-1.45-1.85-2-2-1.05-.29-2.77.2-4,0-.38-.06-.67-1-1-1-.11,0-1.5,1.39-1.5,1.5,0,.33,1,.67,1,1,0,.47-2.81,2.32-3,3-.51,1.86,3.88,3.1,3,6-.12.41-.98.42-1,2s1.39,1.84,1,3.5l2-3.5c.38-2.61,3.4-4.03,5.5-5.5l-5.5,7.5c1.29,6.38,8.66-1.01,10.5-.5.4.11.62.91,1,1,3.9.9,3.93-1.84,6-3,.47-.26,1.29.18,1.5,0,.14-.12-.05-2.97,2-3l-1.5,3c-.41.2-5.22,5-5.5,5.5-.21.37.52,2.31-1.5,1.5-.41-.16-.61-.87-1-1-1.13-.38-2.86,1.35-2.5,2.5,1,3.16,5.53.03,6,.5.81.81-1.53,2.62-.5,3l-.5,2c1.62-.55,2.06.9,2.5,1,2.1.46,5.07-1.43,5.5-1,.19.19-.19,1.81,0,2,.34.34,4.64-.35,5,0,.75.72-1.27,2.77-1,3,.31.26,2.72-.26,3,0,.56.51-.66,2.76-1.5,3-3.94,1.15-2.03-2.53-2.5-3-.23-.23-5.53-.16-6.5,0-.38.06-.67,1-1,1-.46,0-2.22-2.69-3-3-1.85-.73-3.08,1.49-2.5-3-1.98-.33-.6,2.62-1,3-.37.36-4.58-.37-5,0-.14.12.05,2.97-2,3-.65-1.65,1.24-6.95,2.5-7,.13,0,1.7,1.84,2.5,1,.65-.69-.03-4.16-1.5-5-.68-.39-1.93.87-1.5-1.5.2-1.09,1.68-.24,2-.5.34-.28-1.28-2-1.5-2-.98,0-1.37,2.32-1.5,2.5-.53.74-5.13,5.4-5.5,5.5-1.26.35-5.04-.39-5.5,0,.1-.04-.33-1.77,2-1l-1.5-2c-1.47.38-4.63-2.3-5.5.5-.68,2.21,3.5,3.12,5,2.5-.16.14.16.86,0,1-.41.34-3.4-.3-4.5,0-.71.19-2.52,2.88-3.5,3.5-.4.73-.88,3.36-1,3.5-.59.69-2.9-3.48-4.5-3-1.48.44-1.88,4.25-2.5,5.5-3.34,3.09-6.71,6.49-7,11l-4.5,5.5c-1.44-1.02,1.57-3.76.5-5-.2-.23-4.06,2.63-5.5,0-.67,1.57-3.26.75-3.5,1-.12.13-.12,2.8,0,3.5.07.39,1,.67,1,1,0,.12-.99.48-1,2-.02,3.94,3.66,1.38,6,1.5-.42-.86.84-2.99,1.5-3,.23,0,2.89,2.31,4,2,.29-.08,1.49-1.84,1.5-.5.01,1.12-3.92,3.29-.5,5.5l4.5,1c-1.79,4.71-5.29-.67-6.5-1-2.31-.64-3.76,1.2-6,1-2.99,2.06.14,2.25.5,3.5.57,2-.87,2.55-1,3-.42,1.54,1.79,2.25,2,3,.51,1.86-3.88,3.1-3,6,.12.41.93.63,1,1,.38,2.13-.71,6.58,2.5,7.5.66.19,1.5-.23,2,0,1.5.7,3.53,2.39,5,3,.54.23,1.33-.17,1.5,0,1.02,1.02-1.17,4.89-1,5.5.05.17,2.11,2.27,2.5,2.5,1.14.68,2.88.68,4,1,1.31.37.45,2.69,5,4,1.42.41,1.37,3.27,5.5,3,.03-.66-.11-1.89,0-2,.17-.17.96.22,1.5,0,.85-.36,3.62-2.77,4.5-2,1.85,1.62-2.14,2.27-2.5,3-1.44.18-1.75.89-3.5,1ZM28.05,19.91c-.19-.2.26-1.03,0-1.5-1.4-2.51-2-.64-2.5-.5-1.51.42-2.98-2.61-3.5-2-.61.72.53,4.04,1.5,4,.28-.01.68-1.35,2-1,.82.22,1.96,3.05,4.5,2,.4-1.79-1.74-.72-2-1ZM177.05,17.91c-.81-.84-2.37,1.01-2.5,1-.4-.02-1.62-2-2-2-.33,0-.67,1-1,1-.37,0-1.62-2-2-2-.21,0-1.84,1.71-1.5,2,.49.42,3.32-.98,3,1l-3,2c1.7.23,3.96-.34,5.5,0,.4.09.68,1.36,2,1,1.23-.34,2.07-3.41,1.5-4ZM99.55,16.91c-.65,0-.65,1,0,1s.65-1,0-1ZM19.05,21.91l1-4c-1.34.03-3.2,3.82-3,4,.07.07,1.93.07,2,0ZM34.05,17.91c-1.09-1.09-3.09.91-2,2s3.09-.91,2-2ZM39.05,17.91c-2.11-.26-2.26-.11-2,2l2-2ZM167.05,17.91c-.76-.64-2.8.33-2,1,.76.64,2.8-.33,2-1ZM95.55,18.91c-.65,0-.65,1,0,1s.65-1,0-1ZM165.05,19.91c-.29-.29-3.85-.62-3,1.5,1.22,3.05,3.99-.51,3-1.5ZM28.05,28.91c-.07.07-2.13.38-2-.5,1.95-1.25-.41-1.56,0-3,.08-.28,1.83-1.49,1-2.5-.41-.5-1.25,1-1.5,1-.66,0-2.12-1.94-.5-2.5-.04-.89-2.89-.61-3-.5-1,.97,3.19,3.99,2,6l-5-2c.85.85.89,2.89,1,3,.22.22,1.78-.21,2.5,0s2.27,2.78,3,3c3.52,1.05,2.26-1.76,2.5-2,.16-.16,4,.2,4-1.5,0-1.34-1.21.42-1.5.5-1.29.36-2.11-1.48-2.5-1-.2.24.19,1.81,0,2ZM76.05,22.91l-2-2c-.26,2.11-.11,2.26,2,2ZM83.55,20.91c-.65,0-.65,1,0,1s.65-1,0-1ZM54.05,21.91c-1.03-1.03-3.39.32-.5,2,.73.42.68-1.82.5-2ZM41.05,22.91l-7,2.5,1,3,1.5-.5.5,3c1.55.27.7-.82,1.5-2,.93-1.37,2.08-1.03,3.5-1l-6-1,5-4ZM58.05,22.91c-1.09-1.09-3.09.91-2,2s3.09-.91,2-2ZM32.05,25.91c.52-.42-2-2.81-3-2-.52.42,2,2.81,3,2ZM160.05,23.91c-.76-.64-2.8.33-2,1,.76.64,2.8-.33,2-1ZM171.05,26.91c1.46,1.46,5.89-2.07,2.5-3-1.61-.44-3.18,2.32-2.5,3ZM55.05,24.91c-1.09-1.09-3.09.91-2,2s3.09-.91,2-2ZM44.55,25.91c-.65,0-.65,1,0,1s.65-1,0-1ZM157.05,25.91c-1.09-1.09-3.09.91-2,2s3.09-.91,2-2ZM82.55,26.91c-.65,0-.65,1,0,1s.65-1,0-1ZM97.55,28.91c-.65,0-.65,1,0,1s.65-1,0-1ZM18.05,29.91c-1.42-1.42-3.51,1.24-.5,3,.77.45.65-2.85.5-3ZM41.05,32.91c-1.04.09-4.01.06-4,1.5,0,1.11,4.82,2.35,6,2.5.4-1.79-1.74-.72-2-1-.22-.24.19-2.17,0-3,.66-.06,1.86.13,2,0,.47-.43-.8-1.05-1-1.5s-.11-3.39-2-1.5c-.67.67.81,2.14,1,3ZM164.05,29.91c-.76-.64-2.8.33-2,1,.76.64,2.8-.33,2-1ZM36.05,30.91c-.13-.13-1.36.07-2,0,.48,1.23-1.7,3.18-1,4,1.06,1.24.89-1.89,1-2,.14-.14,4.13.13,2-2ZM54.05,31.91c-.76-.64-2.8.33-2,1,.76.64,2.8-.33,2-1ZM169.05,32.91c-.76-.64-2.8.33-2,1,.76.64,2.8-.33,2-1ZM31.05,33.91c-2.09-2.09-2.62,3.38-2,4,2.09,2.09,2.62-3.38,2-4ZM49.05,36.91l.5-3c-.69,2-5.48,2.13-5.5,3.5,0,.11,1.88,2.33,2,1-.72-2.64,2.55-1.05,3-1.5ZM22.05,36.91l-2-2c-.26,2.11-.11,2.26,2,2ZM166.55,36.91c-.65,0-.65,1,0,1s.65-1,0-1ZM22.05,37.91c-2.09-2.14-1.89,1.86-2,2-.2.26-2.98-.86-2,2,1.63.51,2.24-1.35,3.5-1,3.67,1.03-.49,4.21-.5,4.5-.02.6,2.43,2.1,3,1.5.26-.27-.6-2.75,1-3.5-1.28-.51-.89-2.39-1-2.5-.19-.19-1.81.19-2,0-.25-.25.25-2.74,0-3ZM27.05,37.91c-2.11-.26-2.26-.11-2,2l2-2ZM43.05,38.91c-1.2.45-3.32-1.7-4-1-2.13,2.19,1.69,1.79,2.5,2,.91.23,1.67,2.76,1.5-1ZM30.05,38.91c-2.46-2.87-1.83,3.82-2,4-.26.28-2.4-.79-2,1l5-1c-1.21-1.12-.86-3.83-1-4ZM35.05,38.91c-.29-.29-3.85-.62-3,1.5,1.22,3.05,3.99-.51,3-1.5ZM50.05,39.91c-.76-.64-2.8.33-2,1,.76.64,2.8-.33,2-1ZM56.55,41.91c-.65,0-.65,1,0,1s.65-1,0-1ZM32.55,42.91c-.65,0-.65,1,0,1s.65-1,0-1ZM36.05,42.91h-2c.49,1.25-1.7,3.15-1,4,.62.75,2.79-3.08,3-4ZM45.05,42.91c-.16.2.2.94,0,1.5-.13.37-1.85,1.5-.5,1.5,1.79,0,1.7-4.43.5-3ZM19.05,45.91c-1.09-1.09-3.09.91-2,2s3.09-.91,2-2ZM31.05,45.91c-3.69-.18-1.24.58-1,1.5.21.79-.19,4.64,2,2.5.7-.68-1.45-2.8-1-4ZM36.55,45.91c-.65,0-.65,1,0,1s.65-1,0-1ZM66.05,47.91c.64-.76-.33-2.8-1-2-.64.76.33,2.8,1,2ZM44.05,46.91c-1.63-1.63-2.87,1.92-2,3,.46.57,2.83-2.17,2-3ZM18.05,48.91h-5.5c-1.35.02-.34,4.59,1.5,3.5l4-3.5ZM166.55,48.91c-.65,0-.65,1,0,1s.65-1,0-1ZM33.55,49.91c-.65,0-.65,1,0,1s.65-1,0-1ZM25.05,52.91c1.13.94,3.93-2,2.5-2-.32,0-.57.85-1,1-.27.1-2.57.1-1.5,1ZM22.05,54.91l-2-2c-.26,2.11-.11,2.26,2,2ZM31.05,54.91c.64-.76-.33-2.8-1-2-.64.76.33,2.8,1,2ZM18.05,53.91c-1.29-1.04-4.73,1.41-4,2,1.29,1.04,4.73-1.41,4-2ZM38.05,56.91c-.32.26-2.75-.25-3,0-.29.29-.62,3.85,1.5,3,1.74-.69,1.37-2.87,1.5-3,.19-.19,1.03.26,1.5,0,3.97-2.21-2.47-4.24-2.5-1.5,0,.25,1.5,1.09,1,1.5ZM26.05,54.91c-.76-.64-2.8.33-2,1,.76.64,2.8-.33,2-1ZM175.05,54.91c-2.34-2.34-2.48,4.52-2,5,.07.07,1.93.07,2,0,.84-.84-1-2.35-1-2.5s1.84-1.66,1-2.5ZM21.05,58.91c.64-.76-.33-2.8-1-2-.64.76.33,2.8,1,2ZM16.05,57.91c-1.63-1.63-2.87,1.92-2,3,.46.57,2.83-2.17,2-3ZM5.55,59.91c-.65,0-.65,1,0,1s.65-1,0-1ZM37.05,60.91c-.8-.74-2.47,1.26-3.5,1l-4.5,2.5c-1.8,2.97,4.09,6.44,5,5.5.24-.24-.16-2.62,0-3.5.5-.99,3.78-4.77,3-5.5ZM176.05,60.91c-.76-.64-2.8.33-2,1,.76.64,2.8-.33,2-1ZM18.05,62.91c-1.09-1.09-3.09.91-2,2s3.09-.91,2-2ZM173.55,63.91c-.65,0-.65,1,0,1s.65-1,0-1ZM158.05,68.91c.64-.76-.33-2.8-1-2-.64.76.33,2.8,1,2ZM5.55,73.91c-.65,0-.65,1,0,1s.65-1,0-1ZM5.55,77.91c-.65,0-.65,1,0,1s.65-1,0-1ZM23.05,82.91c.64-.76-.33-2.8-1-2-.64.76.33,2.8,1,2ZM7.05,84.91c.64-.76-.33-2.8-1-2-.64.76.33,2.8,1,2ZM11.05,84.91c.64-.76-.33-2.8-1-2-.64.76.33,2.8,1,2ZM168.55,85.91c-.65,0-.65,1,0,1s.65-1,0-1ZM170.55,85.91c-.65,0-.65,1,0,1s.65-1,0-1ZM166.05,95.91c.64-.76-.33-2.8-1-2-.64.76.33,2.8,1,2ZM5.05,98.91c-.16-.13,1.72-2.56,1-4l-2,2.5v6.5l3-3.5c.63-2.42-1.59-1.15-2-1.5ZM160.05,97.91c-.76-.64-2.8.33-2,1,.76.64,2.8-.33,2-1ZM178.05,100.91c-1.09-1.09-3.09.91-2,2s3.09-.91,2-2ZM167.05,105.91c.49-.4-.81-1.07-1-1.5-.23-.53.17-1.29,0-1.5-1.3-1.55-1.73,5.24,1,3ZM174.55,109.91c-.65,0-.65,1,0,1s.65-1,0-1ZM178.05,111.91c-2.11-.26-2.26-.11-2,2l2-2ZM156.55,112.91c-.65,0-.65,1,0,1s.65-1,0-1ZM9.05,114.91c-1.65.37-1.96-.98-3.5-1-.87-.01-.62,1.88-.5,2,.11.11,1.45-.45,2.5,1,.36.5.94,3.85,2.5,2,.7-.84-1.49-2.76-1-4ZM175.05,113.91c-.76-.64-2.8.33-2,1,.76.64,2.8-.33,2-1ZM26.05,118.91c.64-.76-.33-2.8-1-2-.64.76.33,2.8,1,2ZM164.05,116.91c-1.09-1.09-3.09.91-2,2s3.09-.91,2-2ZM173.55,117.91c-.65,0-.65,1,0,1s.65-1,0-1ZM15.05,118.91c-.76-.64-2.8.33-2,1,.76.64,2.8-.33,2-1ZM171.55,118.91c-.65,0-.65,1,0,1s.65-1,0-1ZM168.05,119.91c-.76-.64-2.8.33-2,1,.76.64,2.8-.33,2-1ZM25.05,123.91c1.02-1.02-1.98-4.02-3-3-.11.11-.11,2.89,0,3s2.89.11,3,0ZM12.05,121.91c-.11-.11-2.89-.11-3,0s-.1,2.88,0,3c.4.48,1.07-.81,1.5-1s3.39-.11,1.5-2ZM20.05,121.91c-4.07-.63-.76,2.82-1,3-1.19.89-2.69-.6-3.5-1-1.73-.84-1.94,1.63-1.5,2,.23.19,5.79.21,6,0,.24-.24-.16-3.04,0-4ZM26.05,124.91c-.83-.83-3.78,1.67-4,3l4-1c-.07-.64.13-1.87,0-2ZM11.05,126.91c-.24-.19-3.44-.24-3,.5,1.64,2.8,3.36-.21,3-.5ZM19.05,126.91c-2.11-.26-2.26-.11-2,2l2-2ZM162.05,132.91c.19.19-.19,1.81,0,2,1.61,1.61,3.93-2.71,0-2-.38-1.49,3-1.16,3-2.5,0-.33-2.05-1.83-2.5-2.5-1.65,1.03-5.92.65-6.5,2.5-1.03,3.29,5.75,2.25,6,2.5ZM13.05,131.91c.29.36,3.3-1.36.5-3-.74-.44-.69,2.76-.5,3ZM22.05,134.91c3.02-1.11,6.01-2.94,2.5-6-1.24.47-.08,3.46-.5,4-.2.26-2.98-.86-2,2ZM22.05,129.91c-1.03-1.03-3.39.32-.5,2,.73.42.68-1.82.5-2ZM155.05,129.91l-4,.5,1,3.5c1.98.32.59-2.57,1-3,.27-.29,2.39.79,2-1ZM40.05,133.91l-2-2c-.26,2.11-.11,2.26,2,2ZM171.05,133.91c.64-.76-.33-2.8-1-2-.64.76.33,2.8,1,2ZM9.55,132.91c-.65,0-.65,1,0,1s.65-1,0-1ZM156.05,132.91c-.76-.64-2.8.33-2,1,.76.64,2.8-.33,2-1ZM178.05,135.91c1.19-1.19-1.99-3.96-4-3,.22,1.33,3.17,3.83,4,3ZM11.05,137.91c-.14-.12.05-2.97-2-3l1,6c.81-.12,2.81.19,3,0,.11-.11.11-2.89,0-3-.19-.19-1.78.19-2,0ZM20.05,134.91c-1.09-1.09-3.09.91-2,2s3.09-.91,2-2ZM26.05,135.91c-.11-.11-2.89-.11-3,0-2.66,2.66,5.66,2.66,3,0ZM162.05,142.91c.84-.8-1.01-2.37-1-2.5.02-.4,1.99-1.6,2-2,.08-2.1-5.88-1.92-5,1,.13.42,1.15.94,1.5,1.5.73,1.17-1.02,1.55-.5,2,.11.1,2.89.1,3,0ZM168.05,140.91c.5-.41-.91-1.13-1-1.5-.22-.86.4-3.03-.5-2.5-2.46,1.44-.74,1.84-.5,2.5s.02,3.12,2,1.5ZM175.05,136.91c-1.09-1.09-3.09.91-2,2s3.09-.91,2-2ZM130.05,137.91c-1.05-1.05-5.06,2.92-4,4,.68.7,2.8-1.45,4-1-.12-.81.19-2.81,0-3ZM144.05,138.91c-.34-.33-5.21.24-6.5,0l-2.5,1.5c1.33.57.56,2.4,1.5,2.5,1.33.14,4.96.28,6,0,1.24-.33,2.06-3.45,1.5-4ZM46.55,140.91c-.65,0-.65,1,0,1s.65-1,0-1ZM172.05,140.91c-4.78-.3,0,3.16,0,3.5,0,.74-2.88,3.64-3,4-.9,2.81.7,2.79,3,2.5.96,2.88-1.76,1.71-2,2-.6.72.96,3.01,1.5,3,1.51-.04,4.04-5.26,1.5-6.5.2-1.17,2.61-.17,3-.5,2.46-2.08-2.16-1.88-2.5-2-2.38-.85-.6-2.14-.5-2.5.36-1.25-1.52-1.87-1-3.5ZM21.55,142.91c-.65,0-.65,1,0,1s.65-1,0-1ZM31.05,142.91c-.76-.64-2.8.33-2,1,.76.64,2.8-.33,2-1ZM156.05,143.91c-2.11-.26-2.26-.11-2,2l2-2ZM27.55,144.91c-.65,0-.65,1,0,1s.65-1,0-1ZM146.05,146.91c.64-.76-.33-2.8-1-2-.64.76.33,2.8,1,2ZM6.05,145.91c-1.63-1.63-2.87,1.92-2,3,.46.57,2.83-2.17,2-3ZM14.05,147.91c1.03-1.03-.32-3.39-2-.5-.42.73,1.82.68,2,.5ZM18.05,145.91c-1.03-1.03-3.39.32-.5,2,.73.42.68-1.82.5-2ZM139.05,146.91c-1.09-1.09-3.09.91-2,2s3.09-.91,2-2ZM162.05,147.91c-.76-.64-2.8.33-2,1,.76.64,2.8-.33,2-1ZM16.05,150.91l5,.5-4.5-2.5-2.5,4c2.86.98,1.74-1.8,2-2ZM26.05,150.91c-.11-.11-2.89-.11-3,0s-.1,2.88,0,3c.4.48,1.07-.81,1.5-1s3.39-.11,1.5-2ZM54.05,150.91c-.42-.37-5.62.26-7,0,.29,1.75-1.55,2.62-1,4.5.05.17,2.32,2.5,2.5,2.5.22,0,3.1-1.88,3.5-2.5.16-.25-.15-.79,0-1,.45-.64,3.05-2.56,2-3.5ZM160.05,150.91c-1.09-1.09-3.09.91-2,2s3.09-.91,2-2ZM37.05,151.91c-1.46-1.46-5.89,2.07-2.5,3,1.61.44,3.18-2.32,2.5-3ZM171.05,160.91c1.03-1.03-.32-3.39-2-.5-.42.73,1.82.68,2,.5ZM156.05,159.91c-.76-.64-2.8.33-2,1,.76.64,2.8-.33,2-1ZM165.55,165.91c-.65,0-.65,1,0,1s.65-1,0-1ZM115.55,170.91c-.65,0-.65,1,0,1s.65-1,0-1ZM122.05,170.91c-1.09-1.09-3.09.91-2,2s3.09-.91,2-2Z"/>
      <path d="M154.05,2.91c1.74,1.74-2.25,3.49-4,.5-.44-.76,3.84-.66,4-.5Z"/>
      <path d="M46.05,1.91c-.22.18-4.44.25-4-.5,1.9-3.25,4.51.09,4,.5Z"/>
      <path d="M179.05,162.91c.52.42-2,2.81-3,2-.52-.42,2-2.81,3-2Z"/>
      <path d="M4.05,137.91c-.42.52-2.81-2-2-3,.42-.52,2.81,2,2,3Z"/>
      <path d="M86.05,3.91c-.42.52-2.81-2-2-3,.42-.52,2.81,2,2,3Z"/>
      <path d="M2.05,24.91c-.18.18-2.42.23-2-.5,1.68-2.89,3.03-.53,2,.5Z"/>
      <path d="M24.05,162.91l-2,2c-.26-2.11-.11-2.26,2-2Z"/>
      <path d="M5.05,30.91c.8.67-1.24,1.64-2,1-.8-.67,1.24-1.64,2-1Z"/>
      <path d="M81.05,166.91c.8.67-1.24,1.64-2,1-.8-.67,1.24-1.64,2-1Z"/>
      <path d="M2.05,46.91c-.67.8-1.64-1.24-1-2,.67-.8,1.64,1.24,1,2Z"/>
      <path d="M4.05,129.91c-.67.8-1.64-1.24-1-2,.67-.8,1.64,1.24,1,2Z"/>
      <path d="M144.05,3.91c-.67.8-1.64-1.24-1-2,.67-.8,1.64,1.24,1,2Z"/>
      <path d="M37.55,1.91c.65,0,.65,1,0,1s-.65-1,0-1Z"/>
      <path d="M98.55,1.91c.65,0,.65,1,0,1s-.65-1,0-1Z"/>
      <path d="M113.55,1.91c.65,0,.65,1,0,1s-.65-1,0-1Z"/>
      <path d="M64.55,2.91c.65,0,.65,1,0,1s-.65-1,0-1Z"/>
      <path d="M172.55,4.91c.65,0,.65,1,0,1s-.65-1,0-1Z"/>
      <path d="M.55,7.91c.65,0,.65,1,0,1s-.65-1,0-1Z"/>
      <path d="M1.55,33.91c.65,0,.65,1,0,1s-.65-1,0-1Z"/>
      <path d="M178.55,155.91c.65,0,.65,1,0,1s-.65-1,0-1Z"/>
      <path d="M123.05,73.91l-1,4.5c-1.01.97-3.19,6.31-3,7,.2.74,1.34.88,0,3-.4.64-5.13,5.39-5.5,5.5-.72.21-2.23-.22-2.5,0-.32.27,2.3,3.4,2,4.5-.14.49-1.58,1.31-2,2-1.4,2.33-4.36,10.31-5,13-.41,1.73-.47,4.16-1,6l-8,7.5c-.82-2.77,1.24-3.12,2-4.5.26-.48-.19-1.31,0-1.5s1.03.27,1.5,0c2.34-1.33,1.66-6.66,4-8,.46-.26,1.28.18,1.5,0,.48-.4-.81-1.07-1-1.5-.23-.53.18-1.32,0-1.5s-.96.23-1.5,0c-.39-.17-.59-.81-1-1-1.4-.65-3.96-.86-4.5-3,2.12.3,4.22,1.63,6.5,1,.17-.05,2.27-2.11,2.5-2.5.67-1.13.7-3.27,1-4s1.64-2.25,2-3c.94-1.98-2.21-1.35-2.5-2.5-2.49,1.24-4.66-1.98-5-2-.18-.01-2.44,2.09-3.5,1-.14-.14-.14-3.86,0-4,.17-.17.96.22,1.5,0,.43-.18.65-.94,1-1,.78-.14,4.34-.16,4.5,0,.13.13-.14,2.51,1.5,3,.94.28,2.15-.52,3,1,.77-1.12,3.14-1.25,3.5-2.5.4-1.38.33-1.55,1-3,1.98-4.29,3.77-5.59,5-11,.41-1.81.99-2.76,3-2.5Z"/>
      <path d="M134.05,111.91c-.25.25-2.56-.21-3.5,0-.57.13-2.86,1.84-3.5,2.5-.45.47-.43,4.56-1,0,1.26-.77,1.41-3.1,2-4,.85-1.29,5.82-6.36,6-7,.23-.84-.21-2.11,0-3,.09-.39.91-.61,1-1,.54-2.28-1.17-4.34-1-4.5,1.11-1.07,3.27,2,3.5,2,2.25-.04,1.15-5.89,1.5-7.5.23-1.07,2.78-3.17,2-5l2-3.5-1,4.5c.78,5.2-2.04,9.51-3,14-.45,2.1-.34,4.68-1,7-.37,1.29-3.62,1.7-4,3-.21.72.21,2.29,0,2.5Z"/>
      <path d="M74.05,108.91c.31.26,2.73-.26,3,0,.1.09-.28,1.99,1,2.5.26,3.31-2.46.12-4,.5.88-2.95-1.64-1.65-2-2-.7-.68,1.45-2.8,1-4-1.64.54-1.98-.85-2.5-1-2.64-.77-4.94,3.37-7,5-.2.16-.78-.17-1,0-.5.38-2.44,2.27-2.5,2.5-.78,2.83,2.82,5.22-.5,7.5l-3.5-5.5c-.66-2.4,1.67-1.18,2-1.5.7-.68-1.45-2.8-1-4,1.81-.45.17,3.04,2.5,2,1.77-.79,1.38-2.89,1.5-3,.21-.19,1.81.19,2,0,.17-.17-.22-.96,0-1.5.18-.43.93-.64,1-1,.31-1.51-.83-4.48,1.5-3.5.43.18.64.93,1,1,4.89,1.02,3.12-1.58,3.5-2,.27-.3,3.53,2.72,4,3.5.13.22-.15.71,0,1,.22.43.89.64,1,1,.37,1.28-1.48,2.09-1,2.5Z"/>
      <path d="M116.05,42.91c-.25.25-2.75-.25-3,0-.17.17.22.96,0,1.5-.18.43-.94.65-1,1-.17.92-.16,3.08,0,4,.03.19,2.02,2.38,1,3.5-.73.8-3.81-1.82-4-2.5s2.6-4.6-.5-5.5c-2.09-.61-5.62,2.84-6.5,2-.98-.93,4.92-6.84,5.5-7,1.15-.32,2,1.58,4,1,.2-.06,2.73-2.56,3-3,.83-1.35.34-2.81.5-3,.15-.18,3.77,1.75,4,2.5.47,1.53-2.38,2.89-3,4-.26.47.19,1.31,0,1.5Z"/>
      <path d="M95.05,77.91c.31.32-2.31,3.38-2,4.5.11.4.92.62,1,1,.19.91-.2,2.12,0,3,.09.38,1.57,1,1,3-.15.54-3.5,3.79-4.5,3.5-1.44-.42-1.87-3.21-1.5-4.5.16-.55,1.84-1.44,2-2,.52-1.82,1.04-4.01,1-6,.8-.4,1.28-4.29,3-2.5Z"/>
      <path d="M116.05,134.91c-2,.07-.9-1.95-.5-3,.82-2.13,3.35-3.97,3.5-4.5s.12-3.37,0-3.5c-.58-.64-4.87,1.64-4-2,2.28-.32,5.41.45,7.5,0,.41-.09,3.2-2.33,3.5-2,1.16,1.27-4.98,6.29-6,7.5-.16.19.17.8,0,1-1.68,2.05-4.68,3.24-4,6.5Z"/>
      <path d="M67.05,87.91c.75.7-2.95,5.43-3.5,6-1.34.1-4.54,3.86-5.5.5-.59-2.07,3.75-2.85,4.5-4.5,2.64.76,1-2.42,1.5-3,.28-.33,1.78,1.57,3,1Z"/>
      <path d="M88.05,97.91c-1.66,1.82-.55,3.9-1,5.5-.14.51-1.63,1.31-2,2-.68,1.26-1.29,3.9-2,5s-1.67,1.77-3,1.5l-.5-3c2.28,2.3,1.03.33,1.5-.5,1.37-2.39,3.69-4.47,4-8l3-2.5Z"/>
      <path d="M130.05,87.91c.23.26-.55,2.05.5,2,1.55-2.23,2.4.2,4.5,0-.15.81-2.07,2.87-2.5,3-1.87.55-3.06-1.5-5-1l-3.5-2c1.41-3.45,2.37-1.33,3.5-1,1.29.38,2.08-1.48,2.5-1Z"/>
      <path d="M85.05,73.91l-4.5,4c-1.45-.82-4.97,1.51-5.5,1s.23-3.65,1.5-4c2.03-.55,2.53.87,3,1,1.26.35,3.65-2.39,5.5-2Z"/>
      <path d="M95.05,120.91c.97.93-3.19,4.99-3.5,5-1.56.05-2.08-6.47-3.5-7.5l2.5,1.5,4.5,1Z"/>
      <path d="M135.05,51.91c-.19.19-1.81-.19-2,0s.24.98,0,1.5c-.2.45-1.47,1.07-1,1.5.13.12,2.56-.11,3,1.5.18.64.18,5.29,0,5.5-.4.48-2.32.59-2-1.5.23-1.51,1-1.88,1-2,0-.22-2-3.34-2.5-3.5-1.7-.53-5.85,5.77-6.5,5-.54-.64,2.86-8.67,5.5-7l4-3c.88-.13.57,1.93.5,2Z"/>
      <path d="M128.05,38.91c-.19.19-1.03-.27-1.5,0-2.35,1.33-2.08,5.6-3.5,6.5-1.67,1.06-1.93.08-3-1l4-4c-.74-1.5,3.81-3.72,4-3.5.06.08.07,1.93,0,2Z"/>
      <path d="M145.05,73.91c-.11.11-2.89.1-3,0-.15-.13.81-1.4,1-2.5.35-1.98.56-2.51,1-4,.38-1.28-2.54-2.57.5-4.5l.5,11Z"/>
      <polygon points="102.05 61.91 98.55 65.91 94.05 64.91 95.55 62.91 102.05 61.91"/>
      <path d="M127.05,66.91c-.14.14-3.66.37-4-.5,1.55-2.5,3.34-5.04,6-6.5l-1,4.5c-1.28.52-.89,2.39-1,2.5Z"/>
      <path d="M97.05,70.91l.5,4c-1.7-3.29-6.89,2.65-7.5,2-.86-.92,1.67-3.37,2.5-4,.2-.15.76.17,1,0,1.16-.79,1.57-2.49,3.5-2Z"/>
      <path d="M85.05,66.91c-.15.13-3.86.14-4,0-.98-.97,1.44-5.39,1-7l2,2.5c-.85,1.48,1.18,4.35,1,4.5Z"/>
      <polygon points="83.05 96.91 78.55 95.91 76.05 92.91 80.55 93.91 83.05 96.91"/>
      <path d="M81.05,134.91c-.71.7-2.83-1.48-4-1,.14-.83-.22-2.71,0-3,.2-.26,2.98.86,2-2,2.52.12,2.33,5.68,2,6Z"/>
      <path d="M62.05,65.91c.18.15-1.9,3.97-2.5,4-.18,0-1.76-1.78-3.5-1-1.04-3.15,5.11-3.74,6-3Z"/>
      <path d="M118.05,58.91c-.57.57-3.66-.26-4-1.5s.77-1.44,1-2c.22-.53-.48-2.29,1.5-1.5,1.54.62,2.04,4.46,1.5,5Z"/>
      <path d="M103.05,75.91c-.68,1.35-2.31,3.13-3.5,4-.21.15-.76-.16-1,0-.73.5-2.38,2.99-3.5,2-.35-.31,1.89-2.57,2.5-3,.21-.15.74.16,1,0,2.24-1.41,1.26-3.73,1.5-4,.29-.33,1.77,1.57,3,1Z"/>
      <path d="M55.05,92.91c.11.11.11,2.89,0,3-.16.16-4-.2-4,1.5,0,.25,1.36.69,1,2-.05.17-2.32,2.5-2.5,2.5s-2.5-2.32-2.5-2.5c0-1,3.67-1.78,4-3,.25-.91-.27-3.23,0-3.5.14-.14,3.86-.14,4,0Z"/>
      <path d="M93.05,46.91c.69.6-5.7,6.09-7,5-.36-.3,1.89-2.55,2.5-3,.2-.15.76.16,1,0,.73-.5,2.37-2.99,3.5-2Z"/>
      <path d="M121.05,107.91c.67.67,5.62-1.5,5,1.5-1.56,1.74-1.55,2.03-3.5.5-1.76-1.37-5.17-4-2-6,2.55,1.15-.21,3.3.5,4Z"/>
      <path d="M41.05,113.91l6.5-7-1.5,4.5c-1.24,1.9-3.22,1.24-5,2.5Z"/>
      <path d="M139.05,74.91c-.33.27-2.54-.22-3.5,0l-5.5,3,5-4.5c.49-1.61-3.64-3.83-3-4.5,1.54-1.6,3.51,3.38,4.5,4,.24.15,3.47,1.22,2.5,2Z"/>
      <path d="M112.05,70.91c.11.11.09,2.88,0,3-.17.24-3.64-3.07-3,1-4.54-1.16,1.65-5.36,3-4Z"/>
      <path d="M64.05,80.91c-.2.2-1.75-.19-2.5,0-.37.09-1.08,1.5-1.5,1-.7-.84,1.49-2.75,1-4,1.71-.71,3.86,2.14,3,3Z"/>
      <path d="M65.05,63.91c-.31-.25,1.1-1.89,1.5-2,.63-.18,1.4.19,2,0,.39-.12,1.09-1.5,1.5-1,1.52,1.85-3.55,4.17-5,3Z"/>
      <path d="M69.05,82.91c.13.14-.08,1.36,0,2-2.44.14-4.47,2.75-4-1,1.2.45,3.32-1.7,4-1Z"/>
      <path d="M46.05,79.91c-.2.16-.94-.2-1.5,0-.49.17-1.56,1.85-2.5-.5-1.32-3.3,5.25-.5,4,.5Z"/>
      <path d="M74.05,80.91c-.85,2.08-2.99,4.02-4,1.5-.89-2.22,2.09-1.45,4-1.5Z"/>
      <path d="M71.05,124.91c.07.07.07,1.93,0,2-.44.48-1.1-.87-1.5-1-.59-.19-1.37.18-2,0-.4-.11-1.81-1.75-1.5-2,1.19-.96,2.9.75,3.5,1,.54.22,1.33-.17,1.5,0Z"/>
      <path d="M97.05,94.91c-.08,1.11-1.4,1.68-2,2.5-.1.14-1.2,3.49-2,2.5-.6-.75,1.88-6.02,4-5Z"/>
      <path d="M84.05,119.91c-.14.14-3.85.13-4,0-1.26-1.05,1.89-.89,2-1,.19-.19-.19-1.79,0-2,.51-.56,2.81,2.19,2,3Z"/>
      <path d="M50.05,76.91c1.02,1.02-1.98,4.02-3,3s1.98-4.02,3-3Z"/>
      <path d="M32.05,94.91c-.58-.58.88-3,1.5-3,.11,0,1.5,1.39,1.5,1.5,0,.62-2.42,2.08-3,1.5Z"/>
      <path d="M31.05,76.91c.73.59-2.71,3.04-4,2-.73-.59,2.71-3.04,4-2Z"/>
      <path d="M74.05,88.91c.11.11.11,2.89,0,3-2.66,2.66-2.66-5.66,0-3Z"/>
      <path d="M98.05,45.91c-1.08.87-4.63-.37-3-2,.83-.83,3.57,1.54,3,2Z"/>
      <path d="M59.05,75.91c-1.63,1.63-2.87-1.92-2-3,.46-.57,2.83,2.17,2,3Z"/>
      <path d="M81.05,115.91c1.26,1.05-3.43,1.46-4,1-.34-.28,1.29-2,1.5-2,.32,0,.57.85,1,1,.56.2,1.3-.16,1.5,0Z"/>
      <path d="M87.05,78.91c-.19-.24-.24-3.44.5-3,2.8,1.64-.21,3.36-.5,3Z"/>
      <path d="M76.05,123.91c1.55,1.3-5.24,1.73-3-1,.4-.49,1.07.81,1.5,1,.53.23,1.29-.17,1.5,0Z"/>
      <path d="M46.05,104.91c-2.2-.81-3.19-3.87-3-6,1.82-.28.7,1.51,1,2.5.26.86,2.68,1.56,2,3.5Z"/>
      <path d="M85.05,123.91l-2,2c-.26-2.11-.11-2.26,2-2Z"/>
      <path d="M107.05,57.91c-.07.07-2.13.38-2-.5l4-4.5c.57,1.97-1.38,2.38-2,3.5-.26.47.19,1.31,0,1.5Z"/>
      <path d="M111.05,119.91c-2.11.26-2.26.11-2-2l2,2Z"/>
      <path d="M86.05,91.91l-2,2c-.26-2.11-.11-2.26,2-2Z"/>
      <path d="M115.05,76.91c-.18.18-2.42.23-2-.5,1.68-2.89,3.03-.53,2,.5Z"/>
      <path d="M110.05,34.91c1.2-1.43,1.29,3-.5,3-1.35,0,.37-1.13.5-1.5.2-.56-.16-1.3,0-1.5Z"/>
      <path d="M99.05,68.91c-.67.8-1.64-1.24-1-2,.67-.8,1.64,1.24,1,2Z"/>
      <path d="M134.05,62.91c.8.67-1.24,1.64-2,1-.8-.67,1.24-1.64,2-1Z"/>
      <path d="M113.05,106.91c.8.67-1.24,1.64-2,1-.8-.67,1.24-1.64,2-1Z"/>
      <path d="M63.05,61.91c-1.2,1.43-1.29-3,.5-3,1.35,0-.37,1.13-.5,1.5-.2.56.16,1.3,0,1.5Z"/>
      <path d="M64.05,116.91c-.67.8-1.64-1.24-1-2,.67-.8,1.64,1.24,1,2Z"/>
      <path d="M114.05,122.91c.8.67-1.24,1.64-2,1-.8-.67,1.24-1.64,2-1Z"/>
      <path d="M102.55,56.91c.65,0,.65,1,0,1s-.65-1,0-1Z"/>
      <path d="M138.55,70.91c.65,0,.65,1,0,1s-.65-1,0-1Z"/>
      <path d="M69.55,98.91c.65,0,.65,1,0,1s-.65-1,0-1Z"/>
      <path d="M92.55,100.91c.65,0,.65,1,0,1s-.65-1,0-1Z"/>
      <path d="M95.55,100.91c.65,0,.65,1,0,1s-.65-1,0-1Z"/>
      <path d="M50.55,107.91c.65,0,.65,1,0,1s-.65-1,0-1Z"/>
      <path d="M51.55,109.91c.65,0,.65,1,0,1s-.65-1,0-1Z"/>
      <path d="M84.55,111.91c.65,0,.65,1,0,1s-.65-1,0-1Z"/>
    </g>
  </g>
</svg>