<?xml version="1.0" encoding="UTF-8"?>
<svg id="Layer_2" data-name="Layer 2" xmlns="http://www.w3.org/2000/svg" viewBox="0 0 173.25 173.47">
  <g id="Layer_1-2" data-name="Layer 1">
    <g id="Element">
      <path d="M76.18,104.21c-.19.19.27,1.03,0,1.5-1.66,2.91-13.01,9.27-16.5,11.5-1.89,1.21-1.67,4.96-5,4-.29-.08-1.5-1.84-1.5-.5,0,.25,1.36.69,1,2-.25.91-6.68,6.29-8,8s-2.69,5.25-4,7c-.9,1.2-2.63,2.82-4,3.5l1-5.5c3.49-3.54,4.26-9.4,7-14,1.87-3.14,20.16-22.85,22.5-23.5,4.08.33,7.44-2.76,10.5-5.5-2.69-3.83-4.06,1.1-5.5,1.5-2.7.74-6.27-2.27-6.5-2-.18.22.26,1.03,0,1.5-.33.59-5.16,4.41-5.5,4.5-.91.25-3.23-.27-3.5,0-.21.21.21,1.78,0,2.5-.07.25-2.7,3.62-3,4-4.37,5.49-8.91,9.47-11,16s-5.55,8.72-9,14c-1.13,1.74-1.03,3.92-3.5,5.5-.24.15-3.78,1.94-4,2-1.31.36-1.75-1-2-1-1.34,0,.42,1.21.5,1.5.4,1.45-1.38,1.97-2,3-.75,1.25-2.36,6.48-2,8,.12.53,2,3.76,2,4,0,.33-.92.17-.5,1.5.7,2.24-.65,1.99-.5,4-1.04.09-3-3.27-3-3.5,0-.25,1.49-1.09,1-1.5l-4-1c-.54-.45,2.54-2.55,2-3-.4-.33-2.8.67-3-.5.52-.71,1.61-1.33,2-2,.67-1.17.68-3.14,1-4,2.1-5.61,5.77-13.04,7-19,.25-1.19-.29-2.93,0-4,.19-.7,2.81-2.3,3-3,.23-.85-.23-2.15,0-3,.39-1.42,3.53-1.86,4.5-2.5s3.24-2.39,4-3c1.31-1.05,8.02-7.55,8.5-8.5.97-1.9-1.6-1.56-2.5-1.5-4.5.28-2.98,2.48-3.5,3-.15.15-2.16,1.06-3.5,2-2.67,1.86-5.18,3.14-6.5,5.5-1.7,3.06-6.71,8.95-9.5,10.5-2.49,1.39-1.08,1.17-2.5,3.5-2,3.29-1.72,1.32-3,6-.29,1.07-2.55,3.78-3,5-.62,1.68-.65,4.25-1,6-.08.38-.89.6-1,1-.36,1.32.91,1.6,1,2,.6,2.69.28,6.87,1,10,.09.38.88.59,1,1,.62,2.05-1.53,3.59-2,5-.23.7.22,2.28,0,2.5-.19.19-1.03-.26-1.5,0-.84.47-2.59,3-3,3-.18,0-2.45-2.33-2.5-2.5-.73-2.54,1.77-3.15,2-4,.5-1.82-3.82-4.42-3-8,.08-.36.82-.57,1-1,.91-2.18-1.82-1.32-2-1.5-.82-.82.97-2.36,1-2.5.44-2.29-1.37-5.23,2-4.5.4-1.79-1.74-.72-2-1-.87-.95,3.42-5.5,4-7-.96-.16-3.76.24-4,0-.35-.35.27-5.96,0-7.5-.07-.37-.87-.59-1-1-.37-1.22.7-2.03,0-5-.22-.93.25-3.25,0-3.5-.19-.19-2.88.71-2-1.5.25-.63,1.85-1.46,2-2,.19-.7,1.13-10.44,1-11-.99-4.22-.27-7.63-1-11-.07-.34-1.92-2.65-2-3-.26-1.15.58-4.85,1-6,1-2.71,3.62-4.41,3-8-.07-.38-1-.67-1-1,0-.37,2-1.63,2-2,0-.33-.94-.62-1-1-.45-2.7.47-6.34,0-9-.05-.28-1.59-1.05-1-3,1.25-4.11-.54-2.33-1-4-.42-1.54,1.78-2.23,2-3,.98-3.39-5.75-6.43,2-5.5.98-2.86-1.8-1.74-2-2-.14-.18-.16-3.91,0-4.5.23-.85,2.73-1.46,2-4-.12-.42-1-.67-1-1s1-.67,1-1c0-.58-3.92-1.95-3-7,.08-.42,1.84-3.42,2-4,.23-.85-.23-2.15,0-3,.09-.32,3.32-4.1,4-5,1.59-2.1,3.88-2.56,5.5-4.5,2.63-.49,17.85.65,18.5,0,.19-.19-.19-1.81,0-2,.48-.48,12.06-.26,13.5,0,.17.03,2,.71,3,1,11.02,3.2,32.55.15,45-1,2.46-.23,5.86.46,8,0,.34-.07,2.66-1.93,3-2,1.81-.39,3.21-.57,5-1,3.99-.96,7.9-1.25,12-2,.3-.05,1.01-1.57,3-1,1.42.41,1.94,3.95,6,3,.39-.09.61-.91,1-1,7.16-1.71,17.41-.94,25,0,.37.05.62.93,1,1,2.1.37,3.88-.26,6,1,.53.32,4.42,4.19,4.5,4.5.64,2.34-.77,3.2-1,4-1.11,3.83-1.74,9.81-1,13,.51,2.2-.73,2.85,0,6,.68,2.95-2.62,12.24-2,16,.06.38,1,.67,1,1,0,.18-2.08,2.25-2.5,2.5-.19.11-1.88.97-2,1-12.15,3.36-22.83,13.69-34,20-4.02,2.27-7.31,3.78-11,6-9.37,5.64-20.31,9.9-29,16-.9.63-2.42,2.84-3,3-1.4.38-8.17,1.67-8.5,2ZM83.18,49.21c.97-1.89-2-5.04-2-5.5,0-.72,2.93-3.73,3-4,.39-1.42-.26-3.86,0-5.5-2.07,1.06-5.48,5.56-7.5,5-.55-.15-1.61-2-2-2-1.44,0-1.3,2.88-1.5,3.5-.92,2.87-1.24,5.25-2,8-.19.7-2.81,2.3-3,3-.47,1.72.86,5.58,2.5,6.5,2.56,1.44,1.62,1.42,2.5,4.5.21.72,2.79,2.27,3,3,.56,1.88-1.58,3.16-1,5,1.26,4.04-1.24,1.92,0,6,.57,1.88-.66,2.26-1,3-.14.31.13.78,0,1-.28.48-2.02,2.2-2.5,2.5-.75.45-3.36.86-3.5,1-.19.19.19,1.81,0,2-.3.3-3.7-.3-4,0-.18.18.23.96,0,1.5-.3.72-2.77,3.66-2,4.5.98,1.06,5.9-3.84,6.5-4,.85-.23,2.15.23,3,0,1.8-.5,6.13-7.97,9-10,1.19-.84,3.54-3.4,5-3,.7.19,2.3,2.81,3,3,1.8.5,5.04-.43,7,0,.64.14,2.82,2.32,4,2,1.27-.34,2.04-3.47,1.5-4-.23-.23-2.05.55-2-.5,1.32-1.5,2.88-2.69,4.5-3.5.48-.24,1.33.19,2,0,.31-.09,4.41-4.2,4.5-4.5.95-3.17-.89-2.13-1.5-2.5-1.93-1.18-.75-2.82-4-4-1.11-.41-.26-2.97-.5-4l3.5,3c.96-1.66,5.07-2.93,5.5-4.5.18-.67.18-4.33,0-5-.15-.55-2-1.61-2-2,0-.33.94-.62,1-1,.13-.81.16-4.34,0-4.5-1.56-1.6-7.13,5.43-8.5,5-.86-.27-2.69-3.81-2.5-4.5.12-.46,1.73-2.37,2-3,.61-1.44,1.24-2.87,1-4.5l-4,3.5c.28,1.8-2.24,2.64-3,4-.36.64.72,2.37-2.5,1.5-.42-.11-2.64-1.92-3-2-.62-.14-2.44-.15-3,0-.51.14-2.23,2.85-2.5,3.5-.22.54.17,1.32,0,1.5-.11.11-2.15.15-3,1ZM157.68,35.21c-.65,0-.65,1,0,1s.65-1,0-1ZM14.68,36.21c-.65,0-.65,1,0,1s.65-1,0-1ZM71.68,69.21c-.65,0-.65,1,0,1s.65-1,0-1ZM85.68,78.21c-.65,0-.65,1,0,1s.65-1,0-1ZM84.18,83.21c-1.08-.87-4.63.37-3,2,.83.83,3.57-1.54,3-2ZM15.18,87.21c.64-.76-.33-2.8-1-2-.64.76.33,2.8,1,2ZM33.18,99.21c.64-.76-.33-2.8-1-2-.64.76.33,2.8,1,2ZM29.68,105.21c-.65,0-.65,1,0,1s.65-1,0-1ZM12.18,110.21c-.76-.64-2.8.33-2,1,.76.64,2.8-.33,2-1ZM55.68,114.21c-.65,0-.65,1,0,1s.65-1,0-1ZM12.18,123.21c-1.09-1.09-3.09.91-2,2s3.09-.91,2-2ZM38.18,125.21c-.11-.11-2.88-.1-3,0-.5.41.91,1.13,1,1.5.2.78-.17,4.67,2,2.5.14-.14.14-3.86,0-4ZM8.68,133.21c-.65,0-.65,1,0,1s.65-1,0-1Z"/>
      <path d="M170.18,120.21c-.21.21-1.78-.21-2.5,0s-2.29,2.8-3,3-4.59-.2-4.5,1.5c.02.44,5.01,3.87,6,3.5l.5-2c1.88,1.03,1.15,2.34,1.5,3.5.17.57,2,1.61,2,2s-1.84,1.44-2,2c-.18.63.19,1.41,0,2-.13.41-.89.61-1,1-.56,2.03,4.94,3.92,4,7-.14.47-1.36.69-1,2,.13.45,1.57,1,1,3-.78,2.71-7.41-.25-4.5,4.5,1.81,2.95,5.89,1.36,6.5,3.5s-3.78,5.22-4,6c-.31,1.06,1.76,2.64,1,3.5-.19.21-1.31-.86-2.5-1-3.05-.36-8.22,1.24-9,1-4.21-1.28-8.92-1.12-13,0-1.02.28-.8-.97-4,0-2.5.76-3.16-1.77-4-2s-2.12.22-3,0c-.32-.08-2.47-2.03-3.5-1-1.09,1.09,1.01,3.32,1,3.5-.13,1.95-4.17,1.28-5.5,1.5-.35.06-1.08,2.04-2.5-.5-.25-.44.37-2.01-.5-1.5-1.73,1.01-2.36,3.8-5,3-.4-.12-.61-.89-1-1-1.83-.5-5.92,3.71-9,3-3.84-.89-7.57-.26-12-1-.38-.06-.67-1-1-1s-.62.93-1,1c-.95.16-2.18-.22-3,0-.47.13-2.45,3.14-3.5,2-.77-.84,1.33-2.52,1-3.5l-2-3.5c.69,2.19-2.63,3.36-3,4.5-.45,1.41,1.01,3.5-2.5,2.5-1.21-.35-2.09-3.44-1.5-4,.42-.4,3.55.72,4-.5-.99-.63-2.78-3.29-3.5-3.5-2.14-.61-4.76,1.87-4.5,4-3.96-4.41-5.33.41-7.5,1-.73.2-1.05-.73-4,0-2.59.64-4.13-1.63-3.5,3-2.11-.98-3.74-6.83-6-2.5-.38.73,3.4-.07,2,2.5-.98-.17-3.69.27-4,0-.33-.28,1.57-1.78,1-3-1.64.54-1.98-.85-2.5-1-.79-.23-2.05.16-3,0-.56-.1-1.28-2.16-2.5,1l5,3c-1.63.51-2.24-1.35-3.5-1-.47.13-2.46,3.14-3.5,2-.92-1.01,1.58-4.42,1-5-.25-.24-2.55.2-3.5,0-.36-.07-.57-.82-1-1-2.45-1.02-1.14,2.62-1.5,3-.09.1-1.99-.28-2.5,1-2.19-1.26-1.12-2.86-1.5-4.5-.09-.38-.88-.59-1-1-.71-2.34,1.68-3.41,3-5,.79-.95,5.99-7.36,6.5-7.5.85-.23,2.15.23,3,0,.26-.07,2.81-2.53,4-3,2.41-.96,6.3-1.23,9-2,.56-.16,1.45-1.85,2-2,3.79-1.04,10.37-.22,14-1,.34-.07,2.66-1.93,3-2,2.78-.6,7.24.61,10,0,.37-.08.57-.83,1-1,1.52-.6,5.06-1.9,5.5-3.5.29-1.07-.25-2.81,0-4,.08-.37.87-.59,1-1,.19-.59-.18-1.37,0-2,.05-.19,2.08-2.23,2.5-2.5.23-.15.75.15,1,0,1.04-.62,3.02-2.27,4-2,.3.08,2.47,2.03,3.5,1,.55-.55-1.4-.78,1.5-2,4.84-2.03,11.38-10.93,16-14,6.39-4.25,15.26-8.15,22-12,3.75-2.14,9.32-2.41,12-4,3.03-1.79.96-2.61-2-2-4.06.84-6.85,4.26-11,3-2.23-.68-5.74,3.51-8,4-2.62.57-12.46.96-13.5,2-.19.19.26,1.03,0,1.5-.34.61-3.28,2.5-3.5,2.5-.33,0-.62-.93-1-1-3.24-.55-4.47,1.99-8,3-1.14.33-6.89,5.7-8,6-2.46.67-3.78-1-4-1-.95,0,.96,1.9.5,3.5-.51,1.79-2.9,1.23-3.5,1.5-3.09,1.39-7.21,5.98-11,7-1.42.38-.61-1.12-3,0-4.22,1.98-8.62,1.74-13,3-.58.17-2.36,3.14-3.5,2-.19-.19.71-2.88-1.5-2-.89.36-.69,1.83-2,0l-5.5-.5c2.01-1.49,4.57-4.22,6.5-5.5,1.56-1.03,5.09-2.12,7-3,2.48-1.14,7.51-2.18,6.5-5.5-.15-.49-1.59-1.05-1-3,.12-.38.83-.58,1-1,.22-.54-.17-1.33,0-1.5.32-.32,3.43.29,4.5,0,.27-.07,3.28-3,4-3,.33,0,.62.93,1,1,4.03.69,6.16-3.05,9-5,3.87-2.65,13.17-8.9,17-10,1.21-.35,6.62-4.7,8-5,1.26-.27,5.17.33,5.5,0,.21-.21-.21-1.78,0-2.5,1.06-3.57,7.68-2.18,8-2.5.16-.16-.48-3.43,1.5-4,.64-.18,1.44.21,2,0,2.18-.81,4.85-2.09,7-3,1.51-.64,6.16-2.25,6.5-3.5.23-.85-.23-2.15,0-3,.1-.37,5.13-5.39,5.5-5.5,2.27-.65,2.73,1.31,4.5,2-.48-1.64.61-1.76,1-2.5.15-.29-.13-.79,0-1,.4-.63,3.28-2.5,3.5-2.5.25,0,3.43,3.26,3.5,3.5.18.62-.18,1.38,0,2,.19.67,3.46,3.33,3,5-1.57,5.69-.42,4.31,1,9,.66,2.16-3.53,7.8-4,10-.47,2.17-.38,4.66,0,6,.41,1.41-.66,1.72,0,4,.47,1.64-1.46,3.32-1,6,.53,3.1-1,3.67-1,4,0,.24,2,3.76,2,4,0,.22-1.68,1.54-1,4,.16.56,3.14,2.36,2,3.5ZM167.18,113.21c-1.09-1.09-3.09.91-2,2s3.09-.91,2-2ZM142.18,115.21c-.76-.64-2.8.33-2,1,.76.64,2.8-.33,2-1ZM86.18,122.21c.64-.76-.33-2.8-1-2-.64.76.33,2.8,1,2ZM116.68,124.21c-.65,0-.65,1,0,1s.65-1,0-1ZM125.18,125.21c-.58.58.88,3,1.5,3,.11,0,1.5-1.39,1.5-1.5,0-.62-2.42-2.08-3-1.5ZM133.18,132.21c.8-.64-2.95-3.05-4-2-2,2,3.12,2.71,4,2ZM164.18,130.21c-.29-.29-3.85-.62-3,1.5,1.22,3.05,3.99-.51,3-1.5ZM123.18,134.21c-1.9-.29-3.29,1.1-3,3l3-3ZM165.18,138.21c-.41-.49-2.32-.59-2,1.5.26,1.72,1.47,2.73,2,4,.23.54-.17,1.33,0,1.5.19.19,1.03-.26,1.5,0,.58.32,2.07,2.53,2.5,2,.59-.73-1.74-3.46-1-5-5.01,1.27-2.15-2.98-3-4ZM148.18,141.21c.64-.76-.33-2.8-1-2-.64.76.33,2.8,1,2ZM138.68,141.21c-.65,0-.65,1,0,1s.65-1,0-1ZM154.18,144.21c-1.09-1.09-3.09.91-2,2s3.09-.91,2-2ZM126.18,153.21c-.76-.64-2.8.33-2,1,.76.64,2.8-.33,2-1ZM54.18,160.21c1.03-1.03-.32-3.39-2-.5-.42.73,1.82.68,2,.5ZM69.68,159.21c-.65,0-.65,1,0,1s.65-1,0-1ZM100.68,159.21c-.65,0-.65,1,0,1s.65-1,0-1ZM92.18,166.21l6-1.5-2.5-3.5c-.58.73-3.73,4.8-3.5,5ZM110.18,161.21c-1.09-1.09-3.09.91-2,2s3.09-.91,2-2ZM39.68,162.21c-.65,0-.65,1,0,1s.65-1,0-1ZM87.68,162.21c-.65,0-.65,1,0,1s.65-1,0-1ZM108.68,165.21c-.65,0-.65,1,0,1s.65-1,0-1Z"/>
      <path d="M44.18,145.21c.79,2.93-2.87,2.83-3,3-.23.31.23,1.81,0,2.5-1.04,3.1-7.27,7.92-8,12l-2.5,4.5-.5-6.5c.51-2.41,3.52-5.24,4-7,.32-1.17-.52-3.94,1.5-4.5,1.3-.36,1.44.77,2,1,2.2.92,1.18-1.41,1.5-2.5.29-1,3.67-2.59,5-2.5Z"/>
      <path d="M60.18,133.21v3l-4,1c.4,2.91-.49,1.58-1.5,2-1.51.63-7.4,6.38-8.5,2.5-.55-1.94.53-2.37,1.5-3.5,2.12-2.48,5.83-3.51,8-6,1.87-.54,2.68,1.24,4.5,1Z"/>
      <path d="M20.18,168.21c.28,1.49-.9,2.81-2,3.5-3.01,1.89-4.19-3.77-1.5-4.5,1.27-.35,1.86,1.51,3.5,1Z"/>
      <path d="M72.18,114.21c1.64,1.56-1.17,2.09-2,2.5-1.29.64-2.54,1.64-4,1.5-.76-2.83,5.22-4.74,6-4Z"/>
      <path d="M31.18,151.21c.99.99-1.78,4.55-3,1.5-.85-2.12,2.71-1.79,3-1.5Z"/>
      <path d="M73.18,169.21c.48.4-.81,1.07-1,1.5-.58,1.3.89,1.92-3,1.5.31-1.37,3.04-3.79,4-3Z"/>
      <path d="M78.18,169.21c.11.11.11,2.89,0,3-2.66,2.66-2.66-5.66,0-3Z"/>
      <path d="M163.18,170.21c1.26,1.05-3.43,1.46-4,1-.34-.28,1.29-2,1.5-2,.32,0,.57.85,1,1,.56.2,1.3-.16,1.5,0Z"/>
      <path d="M138.18,169.21c-1.63,1.63-2.87-1.92-2-3,.46-.57,2.83,2.17,2,3Z"/>
      <path d="M60.18.21c.8.67-1.24,1.64-2,1-.8-.67,1.24-1.64,2-1Z"/>
      <path d="M63.68,133.21c.65,0,.65,1,0,1s-.65-1,0-1Z"/>
      <path d="M32.68,144.21c.65,0,.65,1,0,1s-.65-1,0-1Z"/>
      <path d="M25.68,154.21c.65,0,.65,1,0,1s-.65-1,0-1Z"/>
      <path d="M75.68,47.21c.67.03,2.7,3.78,2.5,4.5-1.26.86-1,5.26-3.5,4.5s-.77-3.12-.5-4.5c.17-.88-.15-4.58,1.5-4.5Z"/>
      <path d="M84.18,57.21c1.06,1.25-1.01,3.32-1,3.5.02.38,2.57,2.02,2,2.5-.17.15-1.95-.31-2.5,1l-4.5-1c-.64-4.07,2.82-.76,3-1,.09-.12.13-1.76.5-3,.23-.78,1.11-3.63,2.5-2Z"/>
      <path d="M93.18,58.21c-.68-.68.09-5.66,2.5-5,3.76,1.04-1.18,6.32-2.5,5Z"/>
      <path d="M85.18,71.21c-2.71-2.27,3.06-1.87,3.5-2,.51-.15,2.02-2.57,2.5-2,.58.69-.3,3.69-1.5,4-.63.16-4.33.14-4.5,0Z"/>
      <path d="M95.18,72.21c.12.11-1.18,2.89-1.5,3-1.81.6-2.12,1.42-3.5-.5l5-2.5Z"/>
      <path d="M99.18,65.21c1.62,1.66-4.82,5.63-4,1,1.2.45,3.32-1.7,4-1Z"/>
      <path d="M97.18,63.21c-.11.11-2.89.11-3,0s-.11-2.89,0-3c1.02-1.02,4.02,1.98,3,3Z"/>
      <path d="M86.18,68.21c-1.02,1.02-4.02-1.98-3-3s4.02,1.98,3,3Z"/>
      <path d="M100.18,55.21c1.09,1.09-.91,3.09-2,2s.91-3.09,2-2Z"/>
      <path d="M90.18,64.21l-2,2c-.26-2.11-.11-2.26,2-2Z"/>
      <path d="M89.68,57.21c.65,0,.65,1,0,1s-.65-1,0-1Z"/>
      <path d="M79.68,72.21c.65,0,.65,1,0,1s-.65-1,0-1Z"/>
    </g>
  </g>
</svg>