<?xml version="1.0" encoding="UTF-8"?>
<svg id="Layer_2" data-name="Layer 2" xmlns="http://www.w3.org/2000/svg" viewBox="0 0 189.41 197.52">
  <g id="Elements">
    <g id="Element">
      <path d="M53.16,196.42c-.07.07-1.92.07-2,0-.49-.4.81-1.07,1-1.5.08-.18.09-2.59,1-1.5.1.12.11,2.89,0,3Z"/>
      <path d="M21.16,8.42c.09-1.11-.24-2.62,0-3.5.58-2.11,6.35-2.16,7,0,.35,1.16-.38,2.47,1.5,3.5.57-1.34,2.39-.56,2.5-1.5.18-1.58-1.03-3.94,1.5-3.5,2.28.97,1.18,4.68,1.5,5,.75.75,2.77-1.27,3-1,.19.23-.19,1.81,0,2,.21.21,1.78-.21,2.5,0s2.53,3,3,3c.83,0,2.42-4.53,4-5,3.53-1.04,2.26,1.76,2.5,2,.82.82,2.31-.95,2.5-1,1.52-.42,2.5,2,3,2,.32,0,1.35-1.6,2-2,.23-.14.74.15,1,0,.42-.24.63-.84,1-1,.54-.23,1.32.18,1.5,0,.3-.3-.3-3.7,0-4,.21-.21,5.79-.21,6,0,.55.55-1.4.78,1.5,2,.56.23.7,1.36,2,1,.39-.11.59-.87,1-1,1.19-.38,3.94.1,3-2-.98-1.4,2.05-2.52,2.5-2,.76.88-2.28,5.32-3.5,6-.79.44-1.8-.94-1.5,1.5.11.85.81,2.51,1.5,2.5.22,0,3.37-2.02,3.5-2.5.59-2.15-1.44-4.32,2.5-3.5.39.08.67,1,1,1,1.51,0,1.26-4.48,3-5,1.47-.44,2.87,2.24,4,3,.5.33.73-3.19,2.5-3-.42,5.58.11,3.21,2.5,4,.49.16,2.82,2,3,2s2.57-1.88,3-2c2.28-.62,5.77-.52,8-1,.45-.1,3.2-2.33,3.5-2,.44.49-1.53,2.88,3.5,2,.39-.07.67-1,1-1s.59.89,1,1c1.6.44,8.4-6.1,10.5-4,.25.25-.25,2.75,0,3,1.57,1.57,6.41-3.3,7.5-3,.98.27,1.4,2.82,5,2,.14-.03,1.68-1.82,2.5-1,.43.43-.43,7.56,0,8,.81.84,4.46-2.59,6.5-2,.19.06,1.73,1.82,2.5,1s-2.36-4.12,4.5-3c.45.07,1.51,1.57,4,1,3.45-.79,4.89-.04,9-1,5.4-1.26,4.19,3.69,4.5,4,1.03,1.03,3.17-.91,3.5-1,1.32-.38,1.67,1.38,3,1s2.88-2.61,5-2c2.84.82.29,3.72.5,4.5.11.4.91.61,1,1,.42,1.84-2.21,9.29-1,10.5.19.19,1.81-.19,2,0,.16.16.14,3.71,0,4.5-.02.13-1.82,1.72-1,2.5.27.25,2.75-.25,3,0,.19.19.17,4.73,0,5.5-.77,3.42-.22,9.99,1,14,.63,2.08-4.32,8.23-3,13,.23.85,2.73,1.46,2,4-.09.3-3.59,3.99-3,4.5.23.19,1.81-.19,2,0,.21.21-.21,1.77,0,2.5.16.54,3.12,2.35,2,3.5-.46.47-1.79-1.93-2-.5.07,2.34-1.43,3.5-1,6,.07.38,1,.67,1,1,0,.42-3,2.58-3,3,0,.33.94.62,1,1,.3,1.82-.37,4.3,0,6,.33,1.51,1.8,1.1,1,4-.51,1.84,4.1,3.02,3,7-.44,1.6-2.86,1.38-3,1.5-.48.41,1.37,1.21,1,2.5-.75,2.58-1.49,2.17-1,5,.45,2.64-1,3.78-1,4,0,1.32,2.87,1.37,3,1.5.21.21-.2,1.77,0,2.5.11.4.89.6,1,1,.34,1.24-2.34,3.76-2,5,1.56,5.64,1.53,15.01,2,21,.12,1.48.34,9.16,0,9.5-.25.25-2.68-.26-3,0-.5.41,1,1.25,1,1.5,0,.77-3.81,2.24-3,5,.14.47,1.92,2.62,2,3,.25,1.17-.25,2.83,0,4,.15.69,2.85,3.65,2,4.5-.19.19-1.81-.19-2,0-.82.82,2,4.24,2,4.5,0,.34-.94.62-1,1-.76,4.6,1.59,4.63,2,6,1.17,3.93-2.53,2.03-3,2.5-.18.18.68,2.91-1.5,2-2.96-1.24-1.27-.53-3,0-3.39,1.03-2.95-3.11-5.5-4-.16.96.24,3.76,0,4-.19.19-1.03-.26-1.5,0-.62.35-4.01,3.57-4.5,3-.19-.23.19-1.81,0-2-.34-.34-4.66.34-5,0-.42-.42.43-6.52,0-7-.88-1-5.25,3.68-6.5,4-1.23.19-2.94-.28-4,0-1.58.42-1.39,2.87-1.5,3-.27.3-1.88-1.1-2-1.5-.21-.72.21-2.28,0-2.5-.67-.69-3.33,1.69-4,1-.19-.19.26-1.03,0-1.5-1.4-2.51-2-.64-2.5-.5-1.31.36-1.74-1-2-1-.18,0-2.82,2-3,2-.38,0-1.62-2-2-2-.53,0,.06.34-2,0-1.09-.18-5.12-.24-6,0-.6.17-3.2,3.35-5,3l-2-4c-.49.78-2.34,1.93-2.5,2.5-.18.62.18,1.38,0,2-.36,1.26-2.78,1.4-3.5,2.5-1.16-.62,1.02-1.55.5-2-.19-.16-.94.2-1.5,0-.43-.15-.68-1-1-1-.85,0-3.75,3-4,3-.64,0-2.31-3.82-5-3-.38.12-.58.83-1,1-.54.22-1.33-.17-1.5,0-.19.19.19,1.81,0,2-.77.77-5.8-3.2-7-2-.21.21.21,1.78,0,2.5-.15.52-1.62,1.31-2,2-.26.47.19,1.3,0,1.5-.44.48-1.14-.92-1.5-1-.94-.21-3.24.25-3.5,0-.75-.73,2.02-5.97,1-7-.9-.91-3.93,1.46-5.5,1-1.02-.3-2.31-3.46-4-3-.7.19-2.3,2.81-3,3-1.09.3-2.91-.3-4,0-.75.21-1.46,2.42-3,2-.41-.11-.67-1-1-1-.35,0-2.26,2.5-3,3-1.08-.11-.27-1.72-.5-2.5-.05-.17-1.34-1.46-1.5-1.5-1.17-.32-3.05,1.68-4,2-.7.23-2.28-.22-2.5,0-.71.7,2.05,2.85-.5,4-.92-1.11-2.97-5.69-4-6-.59-.18-2.38-.35-2.5.5-.11.77.54,3.5-1.5,2.5-2.15-1.06-1.32-3.8-1.5-4-.14-.15-2.93-.27-3.5-2l.5,4c-.46.57-2.16-2-2.5-2s-2.03,2.56-2.5,2c-.53-.62,2.41-4.15-.5-5-2.01-.58-3.68,1.47-5,2-.58.23-1.43-.23-2,0-.71.29-2.22,1.47-3,2-.93.62.25-2.54-1.5-2-.02,3.95-3.78,3.76-5.5,1l-2.5,3c-2.6-.2,1.16-3.79,0-5-.72-.75-2.75,1.26-3,1-.12-.12-.2-3.03-1.5-3-.48.01-4.04,2.68-4.5,3.5-.35.62.65,2.44-2.5,1.5-.5-.15-2.5-3.27-2.5-3.5,0-.33.93-.62,1-1,.68-3.97-5.62-8.81-2-13,.05-1.05-1.76-.27-2-.5-.76-.73,1.28-2.48,1-3.5-.9-3.24.54-3.56,0-6-.08-.35-1.93-2.66-2-3-.43-1.97.35-4.9,0-7-.06-.38-1-.67-1-1,0-.8,2.82-5.17,3-6,.56-2.5-.83-3.29-1-4-.41-1.72-.47-4.16-1-6-.22-.77-2.42-1.46-2-3,.45-1.63,5.13-1.16,4-6-.09-.39-.91-.61-1-1-.48-2.07,1.95-6.55,1-7.5-.19-.19-1.03.26-1.5,0-4.43-2.47-.77-3.51-.5-4.5.46-1.68-5.14-6.08,1-8.5l-1,4.5c.69,1.56,2.64,1.63,3,0,.32-1.45-1.55-1.71-.5-2.5,1.89-1.88-1.23-4.26-1.5-5.5-.78-3.62-.94-7.35-2-11-.12-.4-.91-.62-1-1-.95-4.06,2.62-4.62,3-6s-.91-1.6-1-2c-.37-1.65.24-4.14,0-6-.05-.37-.96-.64-1-1-.26-2.53.39-5.63,0-8-.06-.38-1-.67-1-1,0-.31,2.55-3.33,3-5,.88-3.27-.02-5.3,1-9,.32-1.15-1.57-1.99-1-4,.7-2.44-.45-2.28,0-5s.17-3.98,1-7c.21-.75-2.74-4.57-3-6-.2-1.14-.26-6.06,0-7,.41-1.51,5.04-1.57,4-5-.13-.41-.93-.63-1-1-.15-.87-.19-5.31,0-5.5.3-.3,3.7.3,4,0s-.32-3.63,0-4c.18-.21,1.31.86,2.5,1,3.21.38,7.14-.1,10.5,0-.17,2.15-2.25-.05-2,2,2.89-.47,6.27-1.87,2-2ZM111.16,9.42c.64-.76-.33-2.8-1-2-.64.76.33,2.8,1,2ZM16.16,9.42c-2.11-.26-2.26-.11-2,2l2-2ZM97.16,11.42c.64-.76-.33-2.8-1-2-.64.76.33,2.8,1,2ZM147.66,10.42c-.65,0-.65,1,0,1s.65-1,0-1ZM22.16,13.42c.64-.76-.33-2.8-1-2-.64.76.33,2.8,1,2ZM93.16,12.42c-.76-.64-2.8.33-2,1,.76.64,2.8-.33,2-1ZM133.16,14.42c.64-.76-.33-2.8-1-2-.64.76.33,2.8,1,2ZM76.16,13.42c-1.03-1.03-3.39.32-.5,2,.73.42.68-1.82.5-2ZM148.16,16.42c.94-1.13-2-3.93-2-2.5,0,.32.85.57,1,1,.1.27.1,2.57,1,1.5ZM114.16,18.42c-.56-2.52-6.35-5.87-5-2.5.53,1.32,2.02,1.25,2.5,1.5.75.39.86,1.48,2.5,1ZM162.66,14.42c-.65,0-.65,1,0,1s.65-1,0-1ZM74.16,18.42c.64-.76-.33-2.8-1-2-.64.76.33,2.8,1,2ZM124.66,17.42c-.65,0-.65,1,0,1s.65-1,0-1ZM95.16,20.42c.64-.76-.33-2.8-1-2-.64.76.33,2.8,1,2ZM129.66,19.42c-.65,0-.65,1,0,1s.65-1,0-1ZM108.66,20.42c-.65,0-.65,1,0,1s.65-1,0-1ZM129.66,21.42c-.65,0-.65,1,0,1s.65-1,0-1ZM156.16,23.42c.64-.76-.33-2.8-1-2-.64.76.33,2.8,1,2ZM160.16,21.42c-1.09-1.09-3.09.91-2,2s3.09-.91,2-2ZM25.66,22.42c-.65,0-.65,1,0,1s.65-1,0-1ZM145.16,22.42c-.11-.11-2.89-.11-3,0-1.02,1.02,1.98,4.02,3,3,.11-.11.11-2.89,0-3ZM99.66,23.42c-.65,0-.65,1,0,1s.65-1,0-1ZM97.16,24.42c-.76-.64-2.8.33-2,1,.76.64,2.8-.33,2-1ZM14.66,25.42c-1.32,0,2.72,4,3,4,1.32,0-2.72-4-3-4ZM103.66,27.42c-.65,0-.65,1,0,1s.65-1,0-1ZM67.16,103.42c2.48-.51,2.42-4.57,2-6.5-.18-.83-2.82-4.17-3-5-.61-2.82.13-4.45-1-8-.51-1.61-1.48-3.21-1-5,.13-.47,1.07-1.55,2-1,2.25,1.33,1.55,2.58,2,4,.87,2.74.51,3.75,1,6,.07.32,2.14,3.5,2.5,3.5,1.17.01,2.12-4.65,2.5-5.5-2.9-4.38-2.7-10.12-4-15-1-3.73-2.87-10.15-4-15-.59-2.55,1-3.78,1-4,0-.39-1.83-1.44-2-2-1.37-4.65-2.82-7.63-5-12-.76-1.53-.61-1.63-1-3-.28-.96-5.83-4.68-6.5-4.5-.41.11-.67,1-1,1-.72,0-3.73-2.93-4-3-1.32-.36-1.59.9-2,1-.93.22-3.25-.25-3.5,0-.13.13.12,2.55-1.5,3-.73.2-4.18.18-5,0-1.1-.24-2.96-3.27-4.5-.5l3,7c1.11,2.35,6.7,10.59,7,12,.36,1.67-.13,6.37,1,7.5.54.54.49-1.21,2,1.5.55.99,2.39,1.98,3,3,1.45,2.44,2.23,7.92,3,11,1.82,7.33,3.98,14.58,6,22,1.46,5.37,4.94,12.43,7,18,.83,2.25,1.12,5.35,1,8-.72,1.21,1.22,3.29,1,3.5-.74.7-3.43-.94-3-2.5.11-.41,1-.67,1-1,0-.35-2.41-4.74-3-6-2.9-6.21-7.21-11.72-9-18-1.9-6.65-5.04-13.89-8-20-2.76-5.7-5.27-12.53-8-17-3.28-5.37-12.76-14.04-18.5-16.5-.55-.24-1.41.23-2,0-1.91-.75-3.93-3.69-4.5.5s.53,4.85,2,8c2,4.28,4.19,9.02,7,13,.72,1.01,3.01,4.22,3.5,4.5,3.46,1.97,3.98,6.14,6.5,9.5,2.18,2.9,9.06,7.32,8,11-.12.42-1,.67-1,1s.92.61,1,1c.16.77-.19,2.31,0,2.5.25.25,2.75-.25,3,0,.34.34-.34,4.66,0,5,.25.25,5.16-.56,6,2.5.76,2.76-1.79,6.33,3,3.5-.25,1.65.4,3.04,1,4.5,1.26,3.06,1.36,1.85,2.5,2.5s7.22,17.42,6.5,20.5c2.21,4.09,5.6,7.28,2.5,11.5-.57.78-1.95,2.32-3,2-.18-.06-2.45-2.33-2.5-2.5-.18-.63.19-1.41,0-2-.13-.41-.93-.63-1-1-.41-2.31.55-6,0-8-.19-.69-6.34-11.13-7-12-3.51-4.68-8.98-7.68-12-12-.99-1.41-2.45-3.02-3.5-4.5l-1.5,3.5c-.58,1.99.91,2.62,1,3,1.43,6.16.39,13.09,2,19,.51,1.86,2.51,4.92,3,7,.64,2.73,1.27,4.44,2,7,.49,1.71,1.51-.04,1,3-.58,3.48,1.96,9.38,3,13,.25.87,3.74,3.12,4,4,.21.72-.21,2.29,0,2.5.13.13,1.82-.35,3,1.5,1.77,2.77,1.44,2.77,4.5,4.5s1.63.96,2.5,2.5c1.83,3.22,4.22.5,4.5.5.33,0,.59.89,1,1,1.1.3,2.95-1.53,4-2,.51-.23,1.34.19,2,0,1.1-.31,2.39-4.56,4-5,3.68-1.01,6.67,3.37,8,3,.44-.12.68-1.36,2-1,3.44.95,5.64-.61,9,0,.38.07.62.93,1,1,.82.15,3.31.19,4,0,.44-.12,6.17-5.91,6.5-6.5.26-.47-.19-1.31,0-1.5.67-.69,3.33,1.69,4,1,.19-.19-.27-1.03,0-1.5,1.13-1.99,8.26-1.95,10-5,1.66-2.92,2.52-1.02,3-1.5.19-.19-.26-1.03,0-1.5.39-.69,1.61-1.31,2-2,.26-.47-.19-1.31,0-1.5.11-.11,2.15-.15,3-1v6c-.49-1.65,1.74-3.52,2-4.5.31-1.2-2.87-5.05-1-6l1-4.5c-3.26-.3-2.48,1.88-3,3.5-.41,1.26-5.77,5.08-7,8-.23.54.18,1.32,0,1.5-.11.11-2.89.11-3,0-.12-.12-.15-2.94,0-3.5.14-.51,1.63-1.31,2-2,.32-.6.68-2.32,1-3,.21-.44,1-.7,1-1,0-.39-1.84-1.44-2-2-.17-.61.17-1.37,0-2-.11-.41-1-.67-1-1,0-.29,2.65-4.11,3-5,.41-1.06,2.1-6.64,2-7-1.18-4.28,4.58-13.07,7-18,3.69-7.5,3.96-12.51,6-20,.12-.44,1.92-2.62,2-3,.49-2.24-.42-5.64,0-8,.07-.37.87-.59,1-1,.11-.35-.78-5.99-1-7-.08-.36-1.82-2.48-2-3-.42-1.22-.62-3.7-1-5-.22-.74-3.85-2.68-4-2.5-.28.33.61,2.74-1,3.5.42,3.37-.43,6.07-1,9-1.28.32-2.18,3.71-2.5,3.5-1.92-1.25-1.85-4.54-1.5-6.5.07-.37.87-.59,1-1,.19-.59-.18-1.37,0-2,.08-.29,3-3.27,3-4,0-.33-.93-.62-1-1-.16-.95.22-2.19,0-3-.27-.97-4.16-4.29-4-6l-2-2.5c-.23,1.7.34,3.94,0,5.5-.26,1.21-2.73,5.19-3,7-.3,2.03.4,11.09,0,11.5-.11.11-2.67.4-3-.5-.13-.36.11-.66-.5-1.5s-2.75-2.82-3.5-2c-.67.73,1.67,3.17,1,4.5,2.15,1.3,1.58,2.44,2,4,.11.41,1,.67,1,1,0,.18-1.92,2.64-2,3-.25,1.18.3,2.93,0,4-.15.55-1.84,1.44-2,2-.28.98.5,2.18-1,3,.27,2.18,1.61,7.54,3.5,8.5,2.02,1.02,1.36-1.63,1.5-2.5.69-4.28,2.04-7.86,3-12,.09-.4.95-.63,1-1,.28-1.94-.4-10.07,0-10.5.82-.9,4.81,2.85,5,3.5s-.19,1.41,0,2c.13.41.93.63,1,1,1.27,7.11-.69,18.46-2,25-.28,1.42-2,7.06-2,8,0,.33,1,.66,1,1,0,.18-1.88,2.57-2,3-1.14,4.17-1.56,7.83-4,12-.7,1.2-2.63,3.11-3.5,4.5-4.57-.3-1.5.9-1.5,1.5,0,.91-6.83,13.77-8,16-1.36,2.61-2.33,5.13-3,8-.21.89.23,2.16,0,3-.31,1.14-4.31,2.86-5.5,2.5-.41-.12-.62-.91-1-1-2.41-.56-4.88.72-4.5-3.5-1.28-.71-.98-4.43-2.5-4.5-1.89-.08-1.32,4.81-1.5,5-.53.56-2.78-.68-3-1.5-.47-1.76.96-4.54-1-6,1.07-.89,2.86,2.69,4,1.5.82-.86-2.14-3.19-.5-4l3.5,4c-.98-5.47,1.52-3.52,2-4,.3-.3.19-7.41,0-8.5-.03-.15-1.81-1.51-1-2.5.12-.15,2.31,1.89,3-.5.84-2.94.96-4.82,4-7,.41-.73.88-3.36,1-3.5.45-.52,2.31-.56,2,1.5-.25,1.66-1.85,3.32-2,4-.72,3.35-.26,8.17-2,11,.51,1.93-1.56,3.14-1,5,.14.46,2.02,3.36,2.5,3.5,1.85.55,2.14-1.73,2.5-2.5.68-1.46.61-1.62,1-3,.37-1.29,1.87-4.96,2-6,.18-1.39-.28-6.22,0-6.5.32-.32,3.43.29,4.5,0,2.81-.77,8.18-12.29,9.5-15.5.36-.86,1.85-3.35,2-4,.34-1.44-.06-4.07-1.5-4.5-3.15-.94-2.15.88-2.5,1.5-1.4,2.52-4.91,4.56-4,8l-4,4.5c.24-2.04-.34-4.58,0-6.5.3-1.69,2.44-5.85,3-8,.31-1.18.97-2.83,1-3,.2-1.13.18-3.82,0-5-.06-.37-.92-.61-1-1-.19-.92.23-2.19,0-3-.63-2.21-2.68-5.96-4-8-1.43-2.21-5.05-5.29-6-7-.26-.47.19-1.31,0-1.5-.14-.14-3.86-.14-4,0-.92.91,1.48,3.95,1,5.5-.13.41-.94.64-1,1-.2,1.24.24,2.83,0,4-.08.37-.87.59-1,1-.19.59.18,1.37,0,2-.47,1.63-4.7,2.91-5,4-.36,1.32.91,1.6,1,2,.9,4.03.89,7.98,2,12,.42,1.52-2,2.5-2,3,0,.72.6.04,0,3-1.07,5.31-.84,9.6-3,14l-1,4.5c-.8-.15-2.88-2.08-3-2.5-.18-.63.19-1.41,0-2-.13-.41-.91-.62-1-1-.59-2.55,1-3.78,1-4,0-.33-.93-.62-1-1-.16-.95.22-2.19,0-3-.05-.17-2.32-2.5-2.5-2.5-.33,0-.59.89-1,1-.64.17-1.41-.19-2,0-.48.15-.69,1.36-2,1-1.69-.47-1.24-2.61-1.5-3.5-.16-.56-1.83-1.44-2-2-2.19-7.42-4.08-13.94-6-21-.61-2.23-4.39-6.77-5-9-2.12-7.8-3.56-15.37-6-23-1.37-4.29-1.5-8.25-3-13-1.2-3.81-1.2-8.06-2-11-.09-.33-2.76-2.9-3-4-.39-1.79-.28-4.33,1.5-5.5l2.5,4.5c-.25,3.67,2,5.53,3,9,.16.56,1.85,1.45,2,2,.32,1.16.26,9.54,0,11-.07.37-.87.59-1,1-.51,1.68,2.97,6.71,4,9,4.13,9.15,5.17,19.28,10,28l1,3.5ZM110.16,30.42c1.03-1.03-.32-3.39-2-.5-.42.73,1.82.68,2,.5ZM118.16,32.42c.64-.76-.33-2.8-1-2-.64.76.33,2.8,1,2ZM137.66,31.42c-.65,0-.65,1,0,1s.65-1,0-1ZM10.16,33.42h-2c.49,1.25-1.7,3.15-1,4,.62.75,2.79-3.08,3-4ZM115.16,48.42c-.19-.19-1.03.26-1.5,0-.54-.3-5.4-5.13-5.5-5.5-.36-1.31,1-1.75,1-2,0-1.35-1.34.5-1.5.5-.29,0-1.36-1.57-2-2-.24-.16-.79.15-1,0-2.21-1.61-3.27-3.97-5-6l-6,6c-3.44-.41-2.02.36-2.5,1.5-.18.43-.94.65-1,1-.14.78-.16,4.34,0,4.5.19.19,1.81-.19,2,0s-.26,1.03,0,1.5c2.49,4.47,5.23,2.8,8.5,3.5s3.29,3.79,3.5,4c.14.14,2.02.38,3.5,1,.54.22,1.33-.17,1.5,0,.27.27.77,3.69,1,4.5.05.17,2.18,2.34,2.5,2.5,2.28,1.13.98-3.04,2.5-3.5-.08-3.17,1.6-5.57,1-9-.06-.35-.82-.57-1-1-.22-.54.17-1.33,0-1.5ZM112.16,33.42c-2.11-.26-2.26-.11-2,2l2-2ZM131.66,33.42c-.65,0-.65,1,0,1s.65-1,0-1ZM148.16,33.42c-.12-.1-2.88-.1-3,0-1.57,1.31,4.57,1.31,3,0ZM89.16,34.42c-1.09-1.09-3.09.91-2,2s3.09-.91,2-2ZM137.16,34.42c-1.98-1.98-3.43,3.29-.5,5,.73.43.69-4.81.5-5ZM153.66,34.42c-.65,0-.65,1,0,1s.65-1,0-1ZM118.66,35.42c-.65,0-.65,1,0,1s.65-1,0-1ZM123.66,35.42c-.65,0-.65,1,0,1s.65-1,0-1ZM150.16,37.42l-2-2c-.26,2.11-.11,2.26,2,2ZM78.16,36.42c-1.42-1.42-3.51,1.24-.5,3,.77.45.65-2.85.5-3ZM183.16,36.42c-.37-.37-2.79-.13-3.5,1-.81,1.28-3.42,4.22-3.5,4.5-.25.91.27,3.23,0,3.5-.55.55-.79-1.4-2,1.5-2.12,5.08-5.54,10.85-7,16-.73,2.59-1.26,5.42-2,8-3.05,10.67-7.51,21.41-12,32l-1,6.5c.8-.15,2.88-2.08,3-2.5.23-.81.73-4.23,1-4.5.21-.21,1.78.21,2.5,0,.84-.25,2.83-3.35,4-4,.47-.26,1.31.19,1.5,0,.22-.22-.23-1.8,0-2.5.97-2.9,4.25-5.19,5-7,1.59-3.83,4.16-7.63,6-12,2.48-5.91,3.83-11.76,6-18,1.03-2.96,2.57-5.9,3-9s-.15-6.13,1-9c-1.28-.45-1.82-4.32-2-4.5ZM12.66,38.42c-.65,0-.65,1,0,1s.65-1,0-1ZM69.66,39.42c-.65,0-.65,1,0,1s.65-1,0-1ZM134.66,39.42c-.65,0-.65,1,0,1s.65-1,0-1ZM78.66,44.42c-.65,0-.65,1,0,1s.65-1,0-1ZM141.16,44.42c-1.03-1.03-3.39.32-.5,2,.73.42.68-1.82.5-2ZM82.16,49.42c.64-.76-.33-2.8-1-2-.64.76.33,2.8,1,2ZM142.16,49.42c.36-.29-1.36-3.3-3-.5-.44.74,2.76.69,3,.5ZM126.16,49.42c-1.03-1.03-3.39.32-.5,2,.73.42.68-1.82.5-2ZM87.66,52.42c-.65,0-.65,1,0,1s.65-1,0-1ZM147.66,52.42c-.65,0-.65,1,0,1s.65-1,0-1ZM68.16,55.42c.64-.76-.33-2.8-1-2-.64.76.33,2.8,1,2ZM146.16,53.42c-.76-.64-2.8.33-2,1,.76.64,2.8-.33,2-1ZM159.16,55.42c-.1-.11.05-3.25-1-2-2.14,2.56,5.75,4.26,3,1-.39-.46-1.61,1.46-2,1ZM92.66,56.42c-.65,0-.65,1,0,1s.65-1,0-1ZM127.66,58.42c-.65,0-.65,1,0,1s.65-1,0-1ZM160.16,60.42c.64-.76-.33-2.8-1-2-.64.76.33,2.8,1,2ZM144.16,118.42c-1.12-1.15,1.86-2.98,2-3.5.81-3,.92-7.06,2-10,.64-1.73,3.7-5.6,4-7,.67-3.09.51-7.73,1-11,.06-.38.96-.64,1-1,.24-2.29.42-9.04,0-11-.24-1.1-2.91-3.67-3-4-.68-2.47-.13-5.62-1-7l-1-4.5-2,3.5c.52,4.52.05,12.07-1,16-1.2,4.48-.05,7.7-1,11-.16.56-1.85,1.45-2,2-.3,1.09.3,2.91,0,4-.15.55-1.85,1.45-2,2-1.15,4.16-.49,4.4-3,9-4.22,7.72-7,18.53-12,26-1.09,1.62-1.95,1.76-3,4-.31.66-1.96,2.54-1,3.5.14.14,3.86.14,4,0,.22-.22-.23-1.8,0-2.5.19-.56,1.7-2.33,2-3,.12-.26-.11-.69,0-1,.32-.9,2.89-.61,3-.5,1.03,1.01-3.19,6.01,1,7l1-4.5c2.4-.91,4.52-6.02,5-6.5.27-.27,2.59.25,3.5,0,1.17-.32,1.9-3.77,3.5-4.5-.57-2.66.89-4.53,1-7-.21-1.43-1.54.97-2,.5ZM94.16,60.42c-.76-.64-2.8.33-2,1,.76.64,2.8-.33,2-1ZM141.16,69.42c.15-.15.27-3.45-.5-3-3.01,1.76-.92,4.42.5,3ZM144.16,74.42c.64-.76-.33-2.8-1-2-.64.76.33,2.8,1,2ZM182.66,72.42c-.65,0-.65,1,0,1s.65-1,0-1ZM145.16,77.42c1.03-1.03-.32-3.39-2-.5-.42.73,1.82.68,2,.5ZM80.16,82.42c-2.44-.39-2.16.29-2,2.5l3,3.5-1-6ZM144.16,82.42c-.76-.64-2.8.33-2,1,.76.64,2.8-.33,2-1ZM6.16,85.42l-2-2c-.26,2.11-.11,2.26,2,2ZM76.16,85.42c.64-.76-.33-2.8-1-2-.64.76.33,2.8,1,2ZM79.16,103.42c.19-1.72.83-2.57,1-4.5.2-2.31.82-6.67-2-7.5.69,1.93-1.77,2.67-2,3.5-.56,2.01.91,2.61,1,3,.44,1.88-1.08,4.65,2,5.5ZM83.66,92.42c-.65,0-.65,1,0,1s.65-1,0-1ZM139.66,92.42c-.65,0-.65,1,0,1s.65-1,0-1ZM115.16,110.42c.22-1.94,1.28-3.7,2-5.5.31-.77,1.92-3.55,2-4,.29-1.64-.2-3.76,0-5.5l-3,4.5c.45,1.94-1.79,4.85-2,6-.15.8-.67,4.78,1,4.5ZM74.16,99.42c-.43-.5-2.32-.57-2,1.5.24,1.53.95,1.79,1,2,1.86,8.35-3.71,2.16-4,2.5-.15.17-.13,3.7,0,4.5.41,2.51,2.25,7.21,3,10,.2.74-.21,2.29,0,2.5.47.48,1.76-.44,2-.5,2.42-.6,2.37.51,2.5.5.5-.04,1.75-1.68,1.5-2.5-.12-.41-.93-.63-1-1-.99-4.98-2.3-9.54-2-15-1.8-.91-.6-4.03-1-4.5ZM175.16,99.42c-1.09-1.09-3.09.91-2,2s3.09-.91,2-2ZM170.66,103.42c-.65,0-.65,1,0,1s.65-1,0-1ZM156.66,105.42c-.65,0-.65,1,0,1s.65-1,0-1ZM158.66,113.42c-.65,0-.65,1,0,1s.65-1,0-1ZM174.16,117.42c-.76-.64-2.8.33-2,1,.76.64,2.8-.33,2-1ZM154.16,118.42c-1.13-.94-3.93,2-2.5,2,.32,0,.57-.85,1-1,.27-.1,2.57-.1,1.5-1ZM156.16,120.42c.64-.76-.33-2.8-1-2-.64.76.33,2.8,1,2ZM166.16,122.42c-1.09-1.09-3.09.91-2,2s3.09-.91,2-2ZM183.66,122.42c-.65,0-.65,1,0,1s.65-1,0-1ZM178.16,127.42c.64-.76-.33-2.8-1-2-.64.76.33,2.8,1,2ZM180.66,129.42c-.65,0-.65,1,0,1s.65-1,0-1ZM133.16,144.42c-1.03-1.03-3.39.32-.5,2,.73.42.68-1.82.5-2ZM142.66,146.42c-.65,0-.65,1,0,1s.65-1,0-1ZM150.66,146.42c-.65,0-.65,1,0,1s.65-1,0-1ZM148.16,149.42c-.64-.64-4.3-.23-3,2,1.25-.49,3.16,1.7,4,1,.48-.4-.81-1.07-1-1.5-.23-.53.18-1.32,0-1.5ZM161.16,156.42c.64-.76-.33-2.8-1-2-.64.76.33,2.8,1,2ZM92.66,156.42c-.65,0-.65,1,0,1s.65-1,0-1ZM181.66,156.42c-.65,0-.65,1,0,1s.65-1,0-1ZM162.16,159.42c-1.09-1.09-3.09.91-2,2s3.09-.91,2-2ZM140.66,160.42c-.65,0-.65,1,0,1s.65-1,0-1ZM167.66,160.42c-.65,0-.65,1,0,1s.65-1,0-1ZM182.16,160.42c-2.11-.26-2.26-.11-2,2l2-2ZM148.16,164.42c.94-1.13-2-3.93-2-2.5,0,.32.85.57,1,1,.1.27.1,2.57,1,1.5ZM156.16,165.42c.64-.76-.33-2.8-1-2-.64.76.33,2.8,1,2ZM152.16,169.42c-1.09-1.09-3.09.91-2,2s3.09-.91,2-2ZM163.16,173.42c.1-.12.1-2.88,0-3-1.31-1.57-1.31,4.57,0,3ZM24.66,171.42c-.65,0-.65,1,0,1s.65-1,0-1ZM117.66,173.42c-.65,0-.65,1,0,1s.65-1,0-1ZM137.66,173.42c-.65,0-.65,1,0,1s.65-1,0-1ZM90.66,176.42c-.11,0-1.5,1.39-1.5,1.5,0,1.42,2.92-1.5,1.5-1.5ZM138.16,179.42c.64-.76-.33-2.8-1-2-.64.76.33,2.8,1,2ZM61.16,181.42c.1-.12.1-2.88,0-3-1.31-1.57-1.31,4.57,0,3ZM169.66,179.42c-.65,0-.65,1,0,1s.65-1,0-1ZM116.66,181.42c-.65,0-.65,1,0,1s.65-1,0-1ZM48.16,183.42c-1.03-1.03-3.39.32-.5,2,.73.42.68-1.82.5-2ZM88.16,185.42c.64-.76-.33-2.8-1-2-.64.76.33,2.8,1,2ZM157.66,184.42c-.65,0-.65,1,0,1s.65-1,0-1ZM154.66,186.42c-.65,0-.65,1,0,1s.65-1,0-1ZM184.66,186.42c-.65,0-.65,1,0,1s.65-1,0-1Z"/>
      <path d="M58.16,47.42c.34.34,2.79,7.63,3,8.5.81,3.31.63,6.52,1,10,.17,1.58,1.54,2.54,1,4.5-3.87.21-2.47-2.77-3-4.5-2.45-8-6.07-15.57-7-24-.52-.85-2.99-4.71-3-5,0-.18,1.78-1.76,1-3.5.8.15,2.88,2.08,3,2.5.19.66-.23,1.5,0,2,.96,2.06,2.66,3.16,2,6-.09.41-1.36.68-1,2,.45,1.62,2.87,1.37,3,1.5Z"/>
      <path d="M25.16,69.42c-4.02.73-3.16-5.39-2-4,.18.22-.26,1.03,0,1.5.45.81,1.99,1.37,2,2.5Z"/>
      <path d="M134.16,132.42c-.44.51-2.32.57-2-1.5.25-1.66,2.07-5.68,4-6.5l-2,8Z"/>
    </g>
  </g>
</svg>