<?xml version="1.0" encoding="UTF-8"?>
<svg id="Layer_2" data-name="Layer 2" xmlns="http://www.w3.org/2000/svg" viewBox="0 0 157.33 149.4">
  <g id="Elements">
    <g id="Element">
      <path d="M130.17,1.12c.36.36-.34,4.28,0,5.5.19.7,2.05,1.68,3,5,.35,1.23,4,2,4,3,0,.15-1.84,1.66-1,2.5,1.74,1.74.67-1.97,2,2.5.49,1.64,2.87,1.37,3,1.5.5.5-.48,7.75,0,9.5.45,1.63,2.9.74,2,4-.36,1.3.77,1.45,1,2s-.17,1.3,0,1.5c.41.48,1.21-1.37,2.5-1,1.63.48,1.37,2.87,1.5,3,.19.19,1.81-.19,2,0,.17.17-.23.96,0,1.5.24.58,2,2.82,2,3,0,.17-1.57,1-1,3,.25.86,2.76,1.5,2,4-.5,1.63.29,5.42,1,8,.26.96,2.85,1.46,2,5l-4,.5c-.41-.39,1.99-5.01,1-6-.18-.18-.97.23-1.5,0-.4-.17-.6-.82-1-1-1-.44-1.92.9-1.5-2-1.51-.23-.87.38-1,1.5-.22,1.96-.77,4.53-2,6,1.74,2.03.11,5.28,4,3,.84-.49,2.31-2.59,3,0,.33,1.23-.36,5.14,0,5.5.19.19,1.03-.26,1.5,0,.37.2,2.45,2.33,2.5,2.5.22.81.22,7.19,0,8-.15.55-1.85,1.45-2,2-.42,1.51.76,3.21-1.5,4.5-.47.27-1.31-.19-1.5,0s.26,1.03,0,1.5c-1.33,2.39-4.77,3.27-5,3.5-.32.32.29,3.43,0,4.5-.38,1.37-1.85.04-1,3,.55,1.92-.65,2.25-1,3-.14.31.13.78,0,1-1.41,2.36-3.85,2.98-6.5,2.5-.29-.05-1.04-1.59-3-1-.33.1-5.43,2.63-6,3-3.59,2.32.18,3.38.5,4.5.73,2.54-1.74,3.11-2,4-.5,1.71,2,5.54,2,6,0,.34-1.63,1.34-2,2-.29.52-.72,2.58-1,3-.46.69-5.13,5.39-5.5,5.5-.66.19-1.5-.23-2,0-1.55.72-4.44,2.72-6,3-1.88.34-6.24-.03-5.5-2.5.26-.85,2.91-2.11,3-3.5-5.14-1.2-5.47,1.8-8.5,4-.24.17-2.82,1.95-3,2-1.08.3-2.83-.26-4,0-.38.08-.6.88-1,1-1.32.38-1.67-1.38-3-1-.96.27-1.66,2.71-1.5-1h-4.5c-.63.8-1.65.88-1,2,.86,1.48,3.15,3.36,2.5,5.5-.56,1.85-3.6,2.83-5.5,2.5-4.05-.69-4.77,1.43-8,2-1.93.34-12.25.39-14,0-.36-.08-.57-.8-1-1-.31-.14-.78.13-1,0-.39-.23-2.45-2.32-2.5-2.5-.38-1.32,1.38-1.68,1-3-.52-1.79-2.9-1.23-3.5-1.5-2.61-1.17-7.49-6-8-6-.33,0-.62.94-1,1-2.83.47-5.61-1-6-1-.33,0-.58.88-1,1-2.45.7-4.34-1.99-6-3-.47-.29-2.56-.72-3-1-.63-.4-2.36-3-2.5-3.5-.23-.85.23-2.15,0-3-.12-.44-1.88-2.56-2-3-.7-2.58,1.2-3.23-2.5-4.5-.79-.27-.6-2.53-2-3-2.15,1.97,1.3,3.79,1.5,4.5.44,1.6-2.29,2.73-3,4-.26.47.19,1.31,0,1.5s-4.84.18-5.5,0c-.55-.15-7.65-6.44-8.5-7.5-.16-.2.17-.78,0-1-.66-.86-2.85-2.47-3-3-.23-.85-.21-6.04,0-7,.18-.82,2.49-2.87,2-4.5,1.87,1.7,2.17-.37,3.5,0,.47.13,3.22,2.33,3.5,2,.18-.21.12-4.53,0-5.5-.14-1.19-1.54-2.89-1-3.5.25-.28,2.21,1.75,3,1,.96-.91-1.12-2.39-1.5-3-.55-.87,1.12-2.41.5-4l-2,2.5c.55,2.3-1.45.94-2.5,2.5-.86-.64,1.26-2.22.5-3-1.07-1.09-3.32,1.01-3.5,1-1.9-.13-2.93-4.57-2.5-6.5.08-.38.88-.6,1-1,.38-1.32-1.38-1.67-1-3,.13-.46,1.92-2.62,2-3,.43-2,.17-4.9,1-7,.24-.59,2.13-3.5,2.5-3.5.34,0,.67,1,1,1s.59-.89,1-1c.69-.19,4.61,2.59,5.5-.5.58-2-1-2.83-1-3,0-.29,1.73-4.16,2-5,.69-2.16,1.37-3.82,2-6,.19-.68,2.48-2.07,3-3,.48-.87-1.08-1.96,2.5-1.5,1.17.15.13,2.55.5,3,.25.31,1.89-1.11,2-1.5.36-1.32-.32-3.57,0-5,.38-1.72,3.83-4.39,4-5,.39-1.43-.04-3.26,1-5,.29-.48,3.1-3.3,3.5-3.5,2.06-1.01,1.39,1.88,1.5,2,.45.47,1.9-1.58,2.5-2,.33-.23,1.56-.03,2.5-1.5,1.76-2.75,2.91-3.05,4-5,1.14-2.05,4.14-2.57,5.5-4.5,1.56-.27,2.64.17,3.5,1.5.28.43.72,2.57,1,3,.77,1.19,2.08,1.93,3.5,1.5.37-.11.57-.8,1-1,.31-.14.78.13,1,0,.65-.39,3-2.79,3.5-3.5,1.07-1.52,0-1.2,2.5-2.5,3.64-1.9,2.12-2.62,2.5-3,.14-.14,2.75-.55,3.5-1,.65-.4,1.68-2,2-2s.62.94,1,1c1.51.25,4.9-.64,5.5,1.5.35,1.26-1.51,1.87-1,3.5,1.79.4.72-1.74,1-2,.07-.07,1.93-.07,2,0,.23.22-.55,2.05.5,2,1.31-1.54,5.44-7.55,7-8,.63-.18,1.41.19,2,0,1.01-.32,4.23-1.88,5-2,.81-.13,4.34-.16,4.5,0,.19.19-.26,1.03,0,1.5,1.42,2.55,2.32.5,2.5.5,1.55,0,1.45,3.3,1.5,4.5.18,3.96,2.76-.29,3.5-.5,4.1-1.18,2.46-1.94,5-3,.65-.27,3.35-1.98,3.5-2.5.57-2-.87-2.54-1-3-.26-.93,2.62-4.3,3.5-5.5,1.27-.67,2.85-.67,4-1,.41-.12.63-.93,1-1,.91-.17,3.09-.16,4,0,.35.06.57.82,1,1,.54.22,1.33-.17,1.5,0ZM118.67,10.12c-.65,0-.65,1,0,1s.65-1,0-1ZM102.17,14.12c-1.02-1.02-4.02,1.98-3,3s4.02-1.98,3-3ZM127.67,18.12c-.4.12-.6.87-1,1-.59.19-1.37-.18-2,0-1.66.48-3.7,3.84-1,5,1.6-2.32,2.89.62,5,0,3.41-1.01,3.24-7.3-1-6ZM118.17,20.12c-.74-.76-2.48,1.29-3.5,1-.47-.14-1.01-1.57-3-1-.17.05-2.5,2.32-2.5,2.5,0,.42,5.09,4.82,6,6,3.12,4.04-2.23,4.9-4.5,7.5-1.45.27-5.51-1.97-6.5-1-1.24,1.21,1.84,4.82,2,5.5.57,2.49-1.36,4.01-1,6.5,1.83.28.7-1.52,1-2.5.58-1.86,5.26-3.7,6-5,.27-.47-.19-1.31,0-1.5.16-.16,3.72-.14,4.5,0,.37.07.59.87,1,1,3.04.92,5.18-4.05,4.5-6.5-.27-.97-4.73-4.03-5-5-.36-1.32.91-1.6,1-2,.17-.76.19-5.3,0-5.5ZM137.67,21.12c-.65,0-.65,1,0,1s.65-1,0-1ZM97.17,37.12c.21-.21-.21-1.78,0-2.5.17-.56,1.85-1.45,2-2,.42-1.51-.65-5.13-2-6-.73-.47-2.83-1.66-3.5-1.5-1.62.39-2.35,4.3-.5,5.5-.63.86-2.25-1.26-3-.5-.27.27.2,3.38,0,4.5-.06.35-.82.57-1,1-.21.51.44,2.31-1.5,1.5-.56-.23-.69-1.34-2-1-3.29.86-.39,6.66,2,6,.39-.11.59-.87,1-1,.63-.2,1.45.22,2,0,.71-.28,3.1-1.8,3.5-2.5.27-.47-.19-1.31,0-1.5.25-.25,2.75.25,3,0ZM54.17,28.12c-4.92-1.4-4.93,7.31-8.5,4-.51,1.28-2.41.9-2.5,1-.24.26.17,2.61,0,3.5,2.71,1.86,1.2,5.17,4.5,2.5,1.79-1.45,1.37-2.87,1.5-3,.18-.18.97.23,1.5,0,.36-.16.59-.72,1-1,.93-.63-.25,2.54,1.5,2,.47-1.62-1.82-2.41,0-3.5,1.47-.88,2.79-.03,2-3-.13-.49-1.54-.87-1-2.5ZM75.17,31.12c-.17-.17-.94.2-1.5,0-.43-.16-.68-1-1-1-.25,0-.69,1.36-2,1-.25-.07-1.52-1.83-2.5-1-.26.22,1.93,1.87-.5,3-.47-1.13-3.18-1.32-3.5-1-.91.92,1.49,4.08,1,5.5,1.95.79.68,4.54-.5,4.5-.41-.01-1.45-1.85-2-2-.6-.17-4.33-.15-4.5,0-.48.41,1.37,1.22,1,2.5-.12.42-1,.68-1,1s.92.61,1,1c.16.77-.19,2.31,0,2.5s1.03-.27,1.5,0c1.75.99,1.85,3.57,1.5,5.5-.06.35-.82.57-1,1-1.21,2.9-1.45.95-2,1.5-.31.31.32,3.62,0,4-1.59,1.9-1.72-.37-2-1.5-.26-1.05-2-.34-3-.5.75,1.82-1.29,3.47-1,4.5.4,1.41,1.85.04,1,3-.55,1.92,1.68,3.38,1,5.5,1.52-.55,2.28,1,2.5,1,.39,0,2.26-1.74,1-3-1.18-1.18,6.35-6.94,8-8,2.95-1.88.63-2.83.5-3.5-.19-.92.23-2.17,0-3-.12-.42-4.36-4.81-5-6,2.54-2.91,5.14-7.03,8.5-9.5.21-.15.76.16,1,0,.68-.47,1.54-1.87,2-2,1.07-.31,2.62,1.76,3.5,1,.32-.28-1.82-2.96-2-3.5-.23-.7.22-2.28,0-2.5ZM130.17,39.12c.29.29,2.49-.52,3,.5.5.99,1.92-.72,2-1,.49-1.71-1.85-4.24-1-6.5-1.27,1.43-4.77.78-5,1-1.03,1.02.9,3.13,1,3.5.2.74-.21,2.29,0,2.5ZM81.17,35.12c-1.15-1.37-1.92-.13-2,1.5-.06,1.3.19,2.8,0,4-.06.38-.94.62-1,1-.18,1.13.27,4.21,0,4.5-.99,1.08-3.62-2.45-4-2-1.17,1.36,2.79,6.21,2,7-.26.26-2.99-1.07-2,2.5.11.39.87.59,1,1,.27.82-.22,3.03,1.5,3.5,4.74,1.31,3.01-1.08,3.5-3.5.45-2.25,1.36-5.45,2-8,.1-.39.89-.6,1-1,.99-3.57-1.74-2.24-2-2.5-.45-.45.47-7.44,0-8ZM57.17,44.12c.64-.76-.33-2.8-1-2-.64.76.33,2.8,1,2ZM38.17,43.12c-1.03-1.03-3.39.32-.5,2,.73.42.68-1.82.5-2ZM55.17,46.12c-2.61,1.06-3.99-2.42-5.5-2-.85.23-1.47,2.74-4,2-.19-.06-1.73-1.82-2.5-1-.22.24-.19,5.81,0,6.5.14.52,2.54,2.8,3.5,2.5.18-.06,2.45-2.33,2.5-2.5.21-.72-.21-2.29,0-2.5.17-.17.96.22,1.5,0,.42-.17.62-.88,1-1,1.69-.52,4.18,1.36,3.5-2ZM125.67,46.12c-.65,0-.65,1,0,1s.65-1,0-1ZM28.67,48.12c-.65,0-.65,1,0,1s.65-1,0-1ZM101.17,53.12c-.26-.26.24-2.58,0-3.5-.32-1.21-3.37-2.07-4-1.5-.33.3,1.57,1.76,1,3l-3-2c-1.01,1.15,1.44,5.57,1,6-.21.21-1.77-.21-2.5,0-.24.07-1.6,1.83-2.5,1-.12-.11-.18-3.01-1.5-3-1.71.02-1.34,3.84-1.5,4-.19.19-1.81-.19-2,0-.34.34.34,4.66,0,5-.29.29-3.4-.25-4.5,0-.4.09-.68,1.36-2,1-.68-.19-2.53-3-3-3-.32,0-.57.84-1,1-.56.2-1.33-.17-1.5,0-.21.21.2,1.76,0,2.5-.34,1.24-.63,2.65-1,4s-3.91,1.89-3,6c.08.36,1.89,2.58,2,3,.87,3.22-.86,2.14-1.5,2.5-.69.38-1.49,1.85-2,2-.63.18-1.41-.19-2,0-.48.15-.69,1.36-2,1-.17-.05-2.45-2.33-2.5-2.5-.18-.62.18-1.38,0-2s-3.92-3.96-5-4.5c1.28,3.04-1.76,4.61-2,5.5s.27,3.23,0,3.5-2.99-1.07-2,2.5c.13.45,1.67,1.33,1,3,1.29.46,1.81,4.31,2,4.5.79.82,2.36-.97,2.5-1,2.22-.52,3.68.48,5.5-2.5.45-.75.86-3.36,1-3.5.19-.19,4.43-.43,5-1,.19-.19-.27-1.03,0-1.5,1.39-2.44,4.67-1.17,5-1.5.17-.17-.22-.96,0-1.5.17-.41.86-.61,1-1,1.18-3.26,1.29-6.71,2-10,.08-.36,1.75-2.41,2-3,.21-.51-.44-2.31,1.5-1.5.56.23.7,1.36,2,1,.7-.19,2.28-2.79,3-3,2.54-.73,3.15,1.77,4,2,3.21.89,5.65-1,7.5-3.5.45-.61,1.54-3.36,2-4,.57-.8,3.51-3.04,3-3.5-.21-.19-1.81.19-2,0ZM127.17,53.12l-1-5c-1.79-.4-.72,1.74-1,2-.31.28-3.37-.21-4.5,0-.37.07-.59.87-1,1-2,.61-4.63-2-5-2-1.99.02-1.2,4.4-1.5,5.5-.14.5-4.18,3.5-2.5,3.5.33,0,.66-1,1-1s2.38,3.07,2.5,3.5c.41,1.41-3.78,5.97-3,8-1.96,1.24,0,1.5,0,2,0,.18-2.32,2.5-2.5,2.5-.23,0-2.88-2.31-4-2-.48.13-2.5,3.28-2.5,3.5,0,.18,2,2.82,2,3,0,.11-1.39,1.5-1.5,1.5-.33,0-.59-.88-1-1-1.04-.29-2.62,1.74-4.5,1l4,3.5c-.53,1.69.85,1.96,2.5,1.5.39-.11.6-.88,1-1,.61-.19,1.4.19,2,0,.41-.13.61-.89,1-1,1.19-.33,4.66,2.84,5.5,2,.19-.19-.26-1.03,0-1.5.65-1.16,3.44-3.41,3-5-.11-.41-1-.67-1-1,0-.23,1.8-2.93,2.5-3.5,1.42-1.15,2.41-.9,2.5-1,.12-.12.37-2.01-.5-2-1.65.01-1.44,1.18-2.5.5-1.53-.99-.72-1.95-1-3-.11-.41-1-.67-1-1s1-.67,1-1-.89-.59-1-1c-.36-1.31.84-1.52,1-2,.42-1.28.61-3.68,1-5,.09-.31,4.19-4.41,4.5-4.5,1.32-.38,1.66,1.36,3,1,.5-.13.87-1.54,2.5-1ZM138.17,63.12c1.08.32,2.77-.67,3-1.5.37-1.34-1.38-1.68-1-3,.29-1.01,2.84-1.43,2-5-.09-.38-.87-.59-1-1-.19-.59.18-1.37,0-2-.15-.54-2.53-2.79-3.5-2.5-1.64.49-1.38,2.89-1.5,3-.21.19-1.81-.19-2,0-.21.21.2,1.77,0,2.5-.12.44-1.36.68-1,2,.1.38,1.73,1.8,2,1.5.3-.34-.8-2.38,1-2l2,3.5v4.5ZM60.17,51.12c-1.09-1.09-3.09.91-2,2s3.09-.91,2-2ZM26.67,53.12c-.65,0-.65,1,0,1s.65-1,0-1ZM30.17,57.12c.64-.76-.33-2.8-1-2-.64.76.33,2.8,1,2ZM130.67,59.12c-.65,0-.65,1,0,1s.65-1,0-1ZM49.17,64.12c.79-.95-1.63-3.69-3-4-.89,2.94,1.66,1.66,2,2,.11.11-.05,3.26,1,2ZM127.17,63.12c-.25-.25.27-2.67,0-3s-1.99,1.27-2,1.5c0,.25,3.44,2.82,2,4.5-.23.27-1.82-1.94-3,.5,1.3.54.87,2.36,1,2.5.1.12,1.47-.78,2.5-1,.77-.16,2.29.2,2.5,0,.1-.09-.28-1.99,1-2.5-1.28-.51-.9-2.41-1-2.5-.27-.25-2.75.25-3,0ZM39.17,71.12l3-.5c1.32-2.31,3.78-4.16,3-7-.38-1.39-4.86-4.87-4,0,.19,1.09,1.15,2.37,1,2.5-.77.67-3.32-1.7-4-1-.86.88.93,4.56,1,6ZM138.17,66.12c.64-.76-.33-2.8-1-2-.64.76.33,2.8,1,2ZM95.17,68.12c-.55-.56-3.67.26-4,1.5-.29,1.08.32,4.18,0,4.5-.34.34-4.63-.35-5,0-1.06,1,3.06,3.98,2,5-.73.7-2.82-1.48-4-1l4,11c1.33.27,2.32-.44,3-1.5.48-.75,2.92-4.71,3-5,.18-.62-.18-1.38,0-2,.25-.86,2.76-1.5,2-4-.13-.41-.93-.63-1-1-.28-1.54.36-7.14,0-7.5ZM26.17,85.12c.37-.37-.74-3.76,1-4.5l-.5-10.5c-1.25.23.23,3.02-1,3-1.58-.03-1.84-1.34-3-1-2.1.61-.85,3.18.5,4.5-1.3.54-.87,2.35-1,2.5-.41.45-1.61-1.46-2-1-.18.21-.18,4.86,0,5.5.47,1.72,5.57,1.93,6,1.5ZM37.17,73.12c.99-.99-1.78-4.55-3-1.5-.85,2.12,2.71,1.79,3,1.5ZM127.17,71.12c-.11-.11-2.89-.11-3,0-.23.23.17,2.55,0,3.5-.07.39-1,.67-1,1,0,.24,1.9,3.51,2,4,.25,1.18-.25,2.83,0,4,.07.34,1.93,2.66,2,3,.18.83.16,3.13,0,4-.07.37-.87.59-1,1-.19.59.18,1.37,0,2-.05.17-2.33,2.45-2.5,2.5-1.32.36-1.59-.9-2-1-1.46-.35-3.81-.05-4.5,1.5-.83,1.86,3.01,1.82,3.5,3.5,2.01.55,6.42-.57,7.5-2.5.26-.47-.19-1.31,0-1.5.3-.3,3.1,1.32,2-3.5-.43-1.89-1.5-1.1-1-4,.62-3.63-1.89-5.77,0-12,.73-2.4-1.29-2.73-2-4-.26-.47.19-1.31,0-1.5ZM145.17,74.12c-.41-.48-1.21,1.37-2.5,1-.46-.13-.69-1.36-2-1-.71.19-2.19,2.7-3,3-.15.05-1.83-2.58-1.5.5,1.32,1.97,6.42,2,7,4s-.95,2.71-1,3c-.26,1.47-.16,6.5,1.5,6.5.32,0,.58-.88,1-1,1.77-.52,3.27,1.27,3.5,1,.11-.13.13-2.85,0-3.5-.38-1.84-.62-4.61-1-6-.15-.55-1.85-1.45-2-2-.35-1.26.38-5.05,0-5.5ZM44.17,75.12c-1.1-.08-1.85,1.81-2.5,2-1.55.45-3.97-3.46-5.5-.5,1.34.86.93,1.72,1,3,.2,3.76-.44,1.9-1.5,2.5-3.01,1.71-.5,3.27-.5,3.5,0,.15-1.84,1.66-1,2.5.21.21,6.61.04,5,2-.22.27-4.21.09-3,4l4-1c-.54-4.03.53-2.45,1.5-3,1.65-.94,2.09-5.38,1.5-6-.8-.84-2.37,1.01-2.5,1-.67-.03-2.06-2.44-1.5-3,.19-.19,1.03.27,1.5,0,2.48-1.41,1.08-4.45,1.5-5,.2-.26,2.98.86,2-2ZM35.67,80.12c-.65,0-.65,1,0,1s.65-1,0-1ZM82.17,97.12c-.3-.3-.21-7.73,0-8.5.13-.48,1.58-1.34,2-2-1.32-.91-1.85,1.98-3.5,1.5-.74-.21-1.49-2.45-3-2-.28.08-1.99,1.5-1,2,1.66,1.55-.32,2.91-.5,3.5-.55,1.82,1.21,3.49,2,5,.46.87,1.53,1.15,1,3-.79,2.77-6.06-.19-5,3.5l6.5,2c1.81,1.09,2.87,4.72,5,2,1.05-.05.27,1.77.5,2,.99.98,3.62-1.25,4.5-1,.39.11.6.88,1,1,2.55.77,3.32-1.9,5-3,.43-.28,2.46-.71,3-1,.87-.47,2.99-3.45,4.5-2,.4.38-.98,3.33,1,3,.05-.77-.48-1.64.5-2,1.31-.48,6.5-2.52,6.5-3.5,0-.39-1.85-1.45-2-2-.36-1.29.26-3.5,0-5-1.49-.94-.63-3.93-2.5-4.5-.99-.31-4.36,2.98-4.5,3.5-1.61,5.88-1.1,2.6-3,4.5-.9.9,2.07,5.28-3,1,.75,1.84-.84,2.9-1,3.5-.41,1.5.96,2.96-1.5,2.5l-5,3c-1.24-1.97-1.52.41-3,0-.24-.07-3.43-3.26-3.5-3.5-.63-2.28,1.33-6.17,1-6.5-.19-.19-1.81.19-2,0ZM22.17,95.12c1.14-1.14-1.83-2.92-2-3.5-.45-1.55-.16-4.5-3.5-3.5-1.17.35-2.84,4.29-2.5,5.5.21.73,2.45,1.5,2,3-.96,3.18-4.82.29-5,.5-.13.15-.14,3.86,0,4,.19.19,2.65-.71,4,1.5.18.29.08,3.46,2,1.5.3-.3-.25-3.39,0-4.5.15-.68,2.54-3.97,3.5-4.5.47-.26,1.31.19,1.5,0ZM49.67,89.12c-.65,0-.65,1,0,1s.65-1,0-1ZM140.67,93.12c-.65,0-.65,1,0,1s.65-1,0-1ZM55.17,98.12c-2.34,1.73-7.72-3.34-8-3-.32.39.31,3.69,0,4-.25.25-2.75-.25-3,0-.16.16-.17,3.89,0,4.5.07.24,3.25,3.5,3.5,3.5.34,0,1.34-1.63,2-2,.47-.26,1.31.19,1.5,0,.3-.3-.3-3.7,0-4,.79-.79,5.36,1.96,4-3ZM69.17,97.12c-.11-.11-1.99.28-2.5-1-1.22.72-3.28-1.23-3.5-1-1.12,1.15,1.86,2.98,2,3.5.65,2.42-1.25,4.09-1,5,.11.41,1,.67,1,1,0,.9-2.7,2.21-3.5,2.5-1.84.66.74,4.62,2,5,1.57.47,2.02-.25,3-1,2.05-1.58,5.42-5.22,6.5-7.5,1.19-2.51-3.57-1.13-4-1.5-.48-.41,1.37-1.22,1-2.5-.11-.38-.82-.58-1-1-.23-.54.18-1.32,0-1.5ZM143.17,97.12c.64-.76-.33-2.8-1-2-.64.76.33,2.8,1,2ZM31.17,100.12c-.3-.34.8-2.38-1-2-1.15,3.3,1.48,4.2,2,5.5.88,2.21-1.81,1.31-2,1.5-.21.21.2,1.77,0,2.5-.11.4-.89.6-1,1-.32,1.15,3.25,4.88,4.5,4.5,1.87-.57,1.01-3.56,2.5-4.5-.2-1.23.29-2.95,0-4-.15-.55-1.84-1.44-2-2-.2-.7-.07-3.49-1.5-3.5-.25,0-1.07,1.48-1.5,1ZM73.17,100.12c.64-.76-.33-2.8-1-2-.64.76.33,2.8,1,2ZM115.17,100.12c1.03-1.03-.32-3.39-2-.5-.42.73,1.82.68,2,.5ZM12.17,103.12c-.76-.64-2.8.33-2,1,.76.64,2.8-.33,2-1ZM120.17,103.12c-1.64-.49-4.52.61-4,2.5.11.4.91.61,1,1,.15.62.12,3.37,0,3.5-.73.75-5.99-2.01-7-1-.25.25.25,2.75,0,3-.17.17-.96-.23-1.5,0-.65.27-2.44,1.82-3,2-.78.26-4.49-.32-2.5,2,.27.31,2.12-2.51,4,.5.13.2-.15.69,0,1,.2.42.87.62,1,1,.46,1.39-1.05,3.48,2.5,2.5.36-.1.57-.8,1-1,.3-.14.78.13,1,0,1.74-1.04,4.59-4.16,6.5-5.5-.04-3.08,2.63-6.14,2-9-.1-.44-1.55-.88-1-2.5ZM134.67,103.12c-.65,0-.65,1,0,1s.65-1,0-1ZM19.17,113.12c.54-.53-.24-3.67-1.5-4-.86-.23-2.15.23-3,0-.48-.13-3.21-2.33-3.5-2-.14.15.31,1.96-1,2.5-1.35,2.74,3.17,7.07,5,5.5.19-.17-1.9-3.31-1-5,1.55-.27.7.81,1.5,2,.75,1.11,3.09,1.4,3.5,1ZM43.17,110.12c.64-.76-.33-2.8-1-2-.64.76.33,2.8,1,2ZM106.17,111.12c-1-.81-3.52,1.58-3,2,1,.81,3.52-1.58,3-2ZM37.67,113.12c-.65,0-.65,1,0,1s.65-1,0-1ZM96.17,114.12c-2.26-2.7-1.86,2.86-2,3-.12.12-2.79.12-3.5,0-.39-.07-.67-1-1-1-.11,0-1.5,1.39-1.5,1.5,0,.33,1,.67,1,1s-3.14,2.32-2,4.5l-4,1c-.06,1.16-.17,1.92.5,3,.97,1.54,2,.71,3,1,.55.16,1.37,1.75,2,2,2.02.81,1.29-1.13,1.5-1.5,1.32-2.36,3.87-2.45,5.5-3.5,2.93-1.89.66-2.77.5-3.5-.36-1.6.43-6.99,0-7.5ZM54.17,119.12l-1-4c.73,1.79-2.01,3.03-2,3.5,0,.4,1.85,1.45,2,2,.31,1.11-1.14,2.86-2,2s-2,.88-2,1c0,1,3.51,3.74,3,5.5h3c.03-2.64,3.8-4.87,3-7.5-.12-.38-.83-.58-1-1-.22-.54.17-1.33,0-1.5-.25-.25-2.74.25-3,0ZM72.17,136.12c.18-.18-.23-.96,0-1.5,1.1-2.63,1.98-2.42,3.5-3.5.74-.52,5.4-5.13,5.5-5.5.91-3.29-1.64-4.4-3.5-6.5-.7-.79-.63-2.3-2-3-2.47-1.25-1.16,3.66-1.5,4-.19.19-1.81-.19-2,0-.56.56,1.92,4.08,1,5-.17.17-2.96-.64-4,1.5s1.9,1.38,2,1.5c.88,1.05-1.2,3.55-1,5l-3-1,3.5,4c.56-.14,1.35.15,1.5,0ZM42.17,117.12c-.11-.11-2.68-.4-3,.5-.44,1.22-.99,2.2-1.5,3.5-.55,1.4-.3,2.61,1,3,2.78.84,1.97.11,2.5-1.5.38-1.17,1.74-4.76,1-5.5ZM103.17,123.12c-.83-.83-3.57,1.54-3,2,1.08.87,4.63-.37,3-2ZM35.67,126.12c-.65,0-.65,1,0,1s.65-1,0-1ZM73.17,139.12c-1.58.26-2.59-1.04-4-1.5-2.23-.73-1.99.67-4,.5l2.5,2c.33,0,.58-.88,1-1,.98-.28,4.23,2.77,4.5,0Z"/>
      <path d="M4.17,95.12c-.67.8-1.64-1.24-1-2,.67-.8,1.64,1.24,1,2Z"/>
      <path d="M114.67,54.12c.65,0,.65,1,0,1s-.65-1,0-1Z"/>
      <path d="M59.67,60.12c.65,0,.65,1,0,1s-.65-1,0-1Z"/>
      <path d="M91.67,36.12c.65,0,.65,1,0,1s-.65-1,0-1Z"/>
      <path d="M139.17,54.12c-.67.8-1.64-1.24-1-2,.67-.8,1.64,1.24,1,2Z"/>
    </g>
  </g>
</svg>