<?xml version="1.0" encoding="UTF-8"?>
<svg id="Layer_2" data-name="Layer 2" xmlns="http://www.w3.org/2000/svg" viewBox="0 0 161.02 184.16">
  <g id="Elements">
    <g id="Element">
      <path d="M60,11.12c.15.15,1.49,2.64,2,3.5.29.5.72,2.55,1,3,.23.36,1.39,1.49,1.5,1.5.24.02,2.66-2.63,4.5.5-.26,1.26-2.85-.25-3,1s-.21,3.81,0,5c.62,3.47.49,4.05,0,7-.16.95-.17,3.07,0,4,.06.35.82.57,1,1,.22.54-.17,1.33,0,1.5.19.19,1.81-.19,2,0,.17.17-.23.96,0,1.5.3.73,1.85,3.18,2.5,3.5,2.07,1.01,1.39-1.9,1.5-2,.66-.55,2.79,1.3,2-2.5-.09-.41-2.03-1.09.5-2.5.47-.26,1.31.19,1.5,0,.5-.5-.48-7.75,0-9.5.09-.33,2.68-2.83,3-4,.23-.85-.23-2.15,0-3,.54-1.97,3.84-1.34,4-1.5.13-.13-.12-2.55,1.5-3,5.23-1.44,3.99,2.7,4.5,5.5.07.38.94.62,1,1,.25,1.51-.35,3.71,0,5,.13.46,1.54,1.32,2,2,.16.24-.15.79,0,1,.5.69,4.18,4.5,4.5,4.5.16,0,1.5-1.85,1.5-.5,0,.33-.94.62-1,1-.35,2.12.37,4.91,0,7-.06.35-1.94,3.65-2,4-.19,1.08-.3,8.2,0,8.5.21.21,5.79.21,6,0,.17-.17-.22-.96,0-1.5.17-.42.89-.62,1-1,1.45-4.88,2.47-10.17,1-15-.45-1.5,2.24-7.14,2-8-.11-.41-1-.67-1-1,0-1.17,4.72-3.01,5-4,.61-2.13,1.26-4.97,2-7,.14-.39.83-.59,1-1,.22-.54-.17-1.33,0-1.5s.96.23,1.5,0c.69-.29,3.71-2.79,4.5-2,.13.13.58,2.76,1,3.5l2,2.5,1-4.5c2.64-1.5,1.52-3.25,2-5,.05-.17,2.11-2.27,2.5-2.5.22-.13.69.14,1,0,.43-.2.64-.92,1-1,1.69-.38,4.2.32,6,0,.29-.05,1.01-1.57,3-1,.47.13,2.39,3.09,2.5,3.5.23.84-.21,2.11,0,3,.09.38.88.59,1,1,.76,2.5-1.77,3.16-2,4-.54,1.96-1.78,4.98-2,6-.25,1.16.22,2.77,0,4-.07.38-.94.63-1,1-.41,2.77.33,4.93,1,7.5,1.98.33.6-2.62,1-3,.88-.84,2.35,1,2.5,1,.3,0,.56-.79,1-1,1.14-.54,2.04.36,1.5,1.5-.72,1.52-2.43,2.98-3,4-2.7,4.86-5,9.47-8,14-3.48,3.23-6.27,6.83-7.5,11.5l2,3c1.47-1.22-1.11-2.56-.5-4.5.12-.37.8-.57,1-1,.34-.73.09-1.6,1.5-2.5,2.79-1.78,8.47-6.56,10.5-9.5.78-1.12.78-3.52,2.5-4.5,3.65-2.07,1.56-3.09,2.5-6.5.47-1.7,5.44-5.25,5-7.5,1.2.45,3.32-1.7,4-1,.19.19-.19,1.81,0,2,.25.25,2.75-.25,3,0,.23.23-.17,2.55,0,3.5.07.39,1,.67,1,1s-.94.62-1,1c-.38,2.31-.71,5.03-1,7-.23,1.52.35,3.73,0,5-.19.7-3.23,2.89-4,4s-.73,3.37-2.5,4.5c-2.35,1.5-3.25,2.21-6,3-.68.19-2.07,2.48-3,3-.47.26-1.31-.19-1.5,0-.17.17-.18,3.21-1,4.5-.99,1.56-3,1.43-4,3-.29.45-.7,2.47-1,3-.37.66-2,1.66-2,2,0,.37,2,1.62,2,2,0,.93-3.24,1.64-4,3-.43.78.94,1.99-2,1.5.9,1.69-1.19,4.83-1,5,1.32,1.17,5.67-2.39,6-3.5.21-.72-.21-2.29,0-2.5.18-.18.96.23,1.5,0s.7-1.36,2-1c.4.11.62.91,1,1,1.43.32,4.9-.7,5.5,1.5.73,2.67-1.12,4.18-2,6-.57,1.18-1.21,4.14-2.5,4.5-1.09.3-2.91-.3-4,0-2.25.62-1.11,4.07-1.5,5.5-.27.98-5.92,4.48-4,6.5.78.82,2.37-.97,2.5-1,2.63-.58,4.57,1.67,7,1,1-.27,4.35-5.4,6.5-3.5l1-1.5c1.62-.3.82,2.54,2.5,3,2.87.79,5.53-2,6-2,.33,0,.58.88,1,1,.88.25,2.64-1.65,5-1,3.64,1-.4,4.15-.5,4.5-.23.85.23,2.15,0,3-.07.24-3.26,3.43-3.5,3.5-.85.23-2.15-.23-3,0-1.07.3-3.96,5.52-6,7-4.84,3.51-10.37,3.07-12.5,10.5-.12.4-5.72,4.2-6.5,4.5-2.02.77-2.86.31-4,0-.81-.22-10.33,5.95-11.5,7.5-.17.22.16.8,0,1-3,3.78-12.1,13.84-13,18-.3,1.4.36,6.14,0,6.5-.19.19-1.03-.27-1.5,0-1.63.93-4.01,9.41-4.5,11.5-.21.89.23,2.16,0,3-.05.17-2.33,2.45-2.5,2.5-1.18.33-3.11-1.75-4-2-1.29-.37-2.09,1.48-2.5,1-.28-.32-.21-7.55,0-8.5.43-2.01,2.75-2.86,2-7-.82-4.5-.29-8.54-1-14-.16-1.26.26-5.24,0-5.5-.19-.19-4.63-.15-5.5,0-.35.06-.57.82-1,1-.54.22-1.33-.17-1.5,0-.13.13.13,2.53-1.5,3-4.84,1.39-7.62,4.01-12,6-2.71,1.23-5.21,1.2-8,2-.72.21-2.28,2.79-3,3-1.85.53-4.25.59-6,1-.38.09-1,1.57-3,1-1.25-.36-1.36-2.31-1.5-2.5-1.93-2.73-5.08-5.44-8.5-4.5-2.05.56.12,2.13-4,1-.92-.25-7.9,2.58-10,2-.97-.27-1.43-2.83-5-2-2.32.54-5.69,1.58-8,2-1.64.3-5.02.16-5.5-1.5-.28-.98.5-2.18-1-3,2.25-2.71,4.75-5.31,7-8s3.12-4.38,6.5-6.5c2.02-1.27,4.94-2.34,7-3,2.85-.91,5.94-2.12,9-3,.56-.16,1.45-1.85,2-2,.73-.2,7.23-.27,7.5,0,.19.19-.26,1.03,0,1.5.62,1.11,2.66,2.31,3.5,3.5,2.55-1.55-.1-2.51.5-4.5.05-.17,1.34-1.45,1.5-1.5,1.99-.57,2.48.84,3,1,1.84.58,2.77-1.3,4.5-1,1.44-1.35-4.74-5.55-5-6.5-.36-1.31.85-1.52,1-2,.19-.59-.18-1.37,0-2,.25-.86,2.76-1.5,2-4-.07-.22-1.82-1.68-1-2.5,1.74-1.74.67,1.97,2-2.5.16-.55,1.75-1.37,2-2,.99-2.47-2.64-1.14-3-1.5-.17-.17.2-.94,0-1.5-.16-.43-1-.68-1-1,0-.43,2.12-1.47,2-2.5-1.4.81-4.01-3.1-5-2-1.45,1.61,2.27,6.75,2,7-1.33,1.23-3.76-2.8-4.5-3s-4.19-.18-5,0c-.63.14-1.84,2.43-3.5-.5-1.42-2.5-2.61-3.64-5.5-4.5-1.47-.43-2.83-6.36-5-7-.72-.21-2.29.21-2.5,0-.19-.19.26-1.03,0-1.5-.39-.69-1.61-1.31-2-2-.26-.47.19-1.31,0-1.5-.21-.21-1.78.21-2.5,0-.27-.08-4.42-3.23-4.5-3.5-1.32-4.47-.27-.77-2-2.5-.25-.25.25-2.75,0-3-1.74-1.74-.67,1.97-2-2.5-.17-.56-2-1.61-2-2,0-.33.94-.62,1-1,.3-1.79-.41-4.45,0-6,.07-.26,1.5-1.99,2-1,.84,1.05,2.47.21,3.5.5.31.08,4.23,4.01,4.5,4.5s-.19,1.31,0,1.5c.14.14,2.72.56,3.5,1,1.52.85,4.24,4.55,4.5.5l3-2.5c-1.1,1.59-.61,1.83,0,3.5.91,2.48,1.24,4.64,2,7,.13.4,1.48,1.06,1,1.5-.21.19-1.81-.19-2,0-.17.17.2.94,0,1.5-.16.43-1,.68-1,1,0,.33.93.61,1,1,.17.95-.23,3.27,0,3.5.19.19,1.03-.27,1.5,0,1.84,1.04,1.37,2.87,1.5,3,.14.14,3.86.14,4,0,.19-.19-.19-1.81,0-2,.32-.32,3.43.29,4.5,0,.7-.19,2.3-2.81,3-3,1.19-.33,3.14,1.77,4,2s2.15-.23,3,0c.55.15,1.43,1.83,2,2,3.37,1.01,4.79-2.6,1-5-1.85-1.17-7.83-4.08-8.5-6.5-.24-.88.25-4.5-1.5-4.5-.33,0-.59.89-1,1-2.31.64-5.3-4.05-7-5-.47-.26-1.31.19-1.5,0-.14-.14-.23-1.86-1-3.5-1.66-3.54-3.39-6.06-5-10-.26-.64-1.52-.85-1-2.5-1.22.57-2.72-1.33-3-1-.86,1,1.62,7.98-1.5,7-1.43.21.98,1.55.5,2-.94.89-4.56-2.7-5-3.5-.26-.47.19-1.31,0-1.5s-1.03.27-1.5,0c-2.3-1.31-2.86-8.16-3.5-10.5-.27-.97-4.51-6.75-5-9-.37-1.72.37-4.28,0-6-.08-.36-2-2.82-2-3,0-.31.83-.56,1-1,.88-2.21-1.81-1.31-2-1.5s-.18-4.83,0-5.5c.07-.26,1.5-1.99,2-1,.6.98,1.71.27,2.5.5,1.64.48,1.37,2.87,1.5,3,.75.76,2.37-1.36,3-.5-.72.6-2.52,3.94-2,4.5.24.26,2.28-1.75,3-1,.91.94-2.03,8.46,2.5,11,.47.26,1.28-.18,1.5,0,.5.41-.89,1.12-1,1.5-.36,1.26,1.51,1.87,1,3.5,3.17.09,6.27.6,8-2.5.26-.47-.19-1.31,0-1.5s1.03.27,1.5,0c1.84-1.04,1.37-2.87,1.5-3,.92-.92,4.39,1.56,5,1,.28-.26-.79-2.4,1-2-.25,2.05-.14,2.27,2,2-.09,3.8,3.22,6.92,3,11,1.64.12.68-1.91,2.5-3,.75-.45,2.04.89,1.5-2l5,5c.23-1.7-.34-3.96,0-5.5.14-.64,2.31-2.81,2-4-.15-.58-1.75-1.67-1-3.5l-4,2c.55-1.6-.93-2.11-1-2.5-.53-3.13.23-7.57,0-11-.2-2.97-.45-8.72-1-12-.06-.38-1-.67-1-1s.93-.62,1-1c.3-1.73-.64-3.29,1.5-4.5s1.4-1.17,2.5-4.5c.5-1.53,1.33-2.78,1-4.5,4.36-.77,6.97,2.16,6,6.5-.09.4-1.36.68-1,2,.05.17,2.13,2.3,2.5,2.5.47.26,1.31-.19,1.5,0ZM128,27.12c5.03.61,4.04-3.34,4-7-2.87,1.14-2.61,4.73-4,7ZM87,35.12c.42.52,2.81-2,2-3-.42-.52-2.81,2-2,3ZM114,38.12c.18-.18.33-4.49-.5-5-1.03.45-3.8,4.76-3.5,5,.16.13,3.86.14,4,0ZM88,53.12c.82.92,4.54-2.22,4-3.5-1.31-.73-.94-4.38-2.5-4.5-1.83-.14-1.82,7.65-1.5,8ZM120,48.12c-2.33.23-8.34-.9-9,1.5-.62,2.25,1.5,5.26-2,4.5.69.8,2.9,4.97,3.5,5,.16,0,1.58-1.74,3-1,2.42-2.61,2.3-6.9,4.5-10ZM61,49.12c-3.54-.55-2.41.24-4,2.5-.47,1.78,3.36,8.49,4.5,8.5.9,0,2.86-4.26,2.5-5.5-.51-1.74-3.28-3.38-3-5.5ZM23.5,54.12c-.65,0-.65,1,0,1s.65-1,0-1ZM26,57.12c1.03-1.03-.32-3.39-2-.5-.42.73,1.82.68,2,.5ZM69,64.12c.19-.23.2-5.78,0-6-.45-.5-2.59,1.56-2,3.5.12.38.83.58,1,1,.08.21.09,2.59,1,1.5ZM94,62.12c1.27,1.27,4.92-2.63,1.5-4-2.29-.92-1.69,3.81-1.5,4ZM90.5,59.12c-.65,0-.65,1,0,1s.65-1,0-1ZM61.5,61.12c-.65,0-.65,1,0,1s.65-1,0-1ZM112,64.12c1.13.94,3.93-2,2.5-2-.32,0-.57.85-1,1-.27.1-2.57.1-1.5,1ZM37,67.12c.64-.76-.33-2.8-1-2-.64.76.33,2.8,1,2ZM76,67.12c-.44-.43-4.47,1.83-6,1-.52.48,1.45,4.52,2.5,5,1.99.92,1.25-1.96,2.5-2.5-.25-.99,1.74-2.78,1-3.5ZM111,67.12c-.76-.64-2.8.33-2,1,.76.64,2.8-.33,2-1ZM60,78.12c1.08.32,2.77-.67,3-1.5.37-1.34-1.38-1.68-1-3,.12-.42,1-.68,1-1,0-1.35-1.34.5-1.5.5-.34,0-2.04-2.57-2.5-2-.86,1.07.76,5.47,1,7ZM110,71.12l-4,3.5c-1.41,3.92-3.7,7.52-5,11-.38,1.03-1.58,3.93-1,4.5.11.11,2.67.4,3-.5.27-.74.69-2.46,1-3,1.97-3.41,3.11-6.44,5-10l1-5.5ZM116,81.12c-2.11-.26-2.26-.11-2,2l2-2ZM87,84.12c-.88-.8-2.86,1.19-3.5,2-.37.76-4.33,1.34-2.5,3,.88.8,2.86-1.19,3.5-2,.37-.76,4.33-1.34,2.5-3ZM96,89.12c-.52-.49-4.39-.09-5,1.5,2.7,3.62,1.66-.8,2.5-.5,1.16.42-.12,2.01,1,2,.87-.48,2.12-2.41,1.5-3ZM65,93.12c.1-.12.1-2.88,0-3-1.31-1.57-1.31,4.57,0,3ZM63,91.12c-1.22-1-3.95,2.05-3,3,1.89,1.89,1.8-1.05,2-1.5s1.48-1.1,1-1.5ZM71,95.12c-1.39-.03-2.61-.37-3.5,1-.94,1.46-2.46,4.28,0,5,.95.28,2.15-.51,3,1l1-4-.5-3ZM37.5,100.12c-.65,0-.65,1,0,1s.65-1,0-1ZM120,101.12c-1.03-1.03-2.82,1.53-3.5,2-.24.17-.8-.15-1,0-1.79,1.36-2.34,2.94-3.5,4.5.82,1.5-1.51,4.91-1,5.5.87,1.01,4.43-2.71,5-3.5,1.13-1.56,1.5-3.22,2-5,.14-.51,3.13-2.37,2-3.5ZM67,103.12c-.76-.64-2.8.33-2,1,.76.64,2.8-.33,2-1ZM82,107.12c-1.69-.3-3,.46-4.5,1-1.08.39-.32,2.08-.5,3l5-4ZM93,113.12c.64-.76-.33-2.8-1-2-.64.76.33,2.8,1,2ZM102,121.12l-4.5,1-2.5,3c3.39.69,5.48-1.25,7-4ZM81,131.12c-1.2-1.07-3.32,1.01-3.5,1-.35-.02-.62-.93-1-1-2.97-.5-4.47,1.39-7,2-.88,1.2-3.76,4.57-3.5,5.5.11.41.99.67,1,1,0,.2-3.1,2.52-2,3.5.2.18,4.74.17,5.5,0,.36-.08.57-.8,1-1,3.37-1.53,5.59-4.87,8.5-7.5-.72-1.2,1.22-3.3,1-3.5ZM110.5,140.12c-.65,0-.65,1,0,1s.65-1,0-1Z"/>
      <path d="M24,18.12c-.32.32-3.43-.29-4.5,0-.72.2-1.51,2.46-3,2-.18-.06-2.45-2.33-2.5-2.5-.09-.33.8-2.67,1-3,.72-1.19,2.77-2.31,3.5-3.5,1.47-2.4-1.14-4.24,4-2,1.99.48,1.84,8.66,1.5,9Z"/>
      <path d="M38.5,110.12c.65,0,.65,1,0,1s-.65-1,0-1Z"/>
    </g>
  </g>
</svg>