<?xml version="1.0" encoding="UTF-8"?>
<svg id="Layer_2" data-name="Layer 2" xmlns="http://www.w3.org/2000/svg" viewBox="0 0 147.2 163.23">
  <g id="Elements">
    <g id="Element">
      <path d="M111.08,18.23c1.6.62,4.61-1.17,5-2.5.43-1.45-.98-2.97,1.5-2.5,1.42.21-.99,1.57-.5,2,.9.78,2.63-1.88,3.5,0,1.33-1.86,3.94-.63,6-1,.29-.05,1.01-1.57,3-1,1.72.5,1.23,2.66,1.5,3.5.13.41.93.63,1,1,.37,2.08-.44,5.05,0,7,.08.35.8.57,1,1,.24.51.32,2.17,1.5,2.5,1.31.36,1.55-.87,2-1,.33-.09,2.67.8,3,1,2.1,1.27,2.55,4.07,4.5,5.5-2.31,1.67-.14,2.38,0,3,.16.72.18,3.35,0,4-.07.24-3.26,3.43-3.5,3.5-1.07.29-2.81-.25-4,0-.25.05-1.96.7-3,1-.96.28-1.57,2.92-5,2-.87-.23-2.05-1.8-.5-2.5-.24-3.92,1.66-7.92-3.5-6.5-.59.16-5.85,5.11-7,6v-3c-1.66,1.96-2.76,0-2,2,.51,1.34-.98,1.59-.5,2,1.3,1.12,4.83-1.2,5-1s-.22.96,0,1.5c.18.43.93.64,1,1,.2.94-.24,3.26,0,3.5.11.11,2.89.11,3,0,.4-.4-.72-3.56.5-4,3.03,1.52-.23,4.23.5,5,.77.82,2.37-.97,2.5-1,2.83-.66,6.31-.99,9-2,2.12-.79,3.49-3.65,5.5-.5.16.25-.15.8,0,1,.48.67,1.87,1.55,2,2,.73,2.55-1.83,3.31-3,5-.7,1.01-2,3.23-2,4.5-3.71.23-6.25,3.07-6,7l5.5,2c1.3,2.45,7.99,5.66,8.5,7.5.17.61.15,4.34,0,4.5-.13.13-2.86.61-3.5,1-.02-1.18-3.35-.15-3.5,0-.19.19.26,1.03,0,1.5-.34.61-2.8,2.99-3.5,3.5-1.63,1.18-5.06,2.48-7,3-.74.2-2.29-.21-2.5,0-.32.32.29,3.43,0,4.5-.23.85-3.75,3.14-4,4-.94,3.28-4.11,11.4-6,14-2.78,3.82-7.49,5.9-10.5,9.5-2.93,1.74-5.91.49-9,1-.44.07-2.56.93-3,1-1.96.33-4.5.26-5.5-1.5-1.45-2.56-1.41-1.61-4.5-2.5-1.63-.47-1.37-2.87-1.5-3-.11-.11-2.89-.1-3,0-.13.13-.58,2.76-1,3.5-2.96,2.87-1.61,6.45-2,10-.04.37-.97.64-1,1-.3,3.73-.68,15.95,0,19,.09.38.89.6,1,1,.27.98-2.36,3.71-3,5-.24.48.19,1.33,0,2-.38,1.31-4.26,3.57-5.5,4.5-.37,0-2.28-2.93-2.5-3.5-.84-2.21,0-3.59,0-4,0-.59-3.44-2.37-3-4,.12-.44,1.88-2.56,2-3,.23-.83.96-3.74,1-4,.2-1.35.37-10.13,0-10.5-.15-.15-.94.14-1.5,0-1.43-.21.97-1.54.5-2-1.15-1.12-2.96,1.85-3.5,2-5.91,1.71-11.56,3.94-18,3-.37-.05-.61-.92-1-1-2.26-.45-12.73-2.23-13.5-3-.41-.41,1.21-2-3.5-3-.94-.2-3.26.24-3.5,0-.19-.19.26-1.03,0-1.5-.37-.66-2-1.66-2-2s.94-.62,1-1c.21-1.24-.24-2.83,0-4,.17-.84.7-2.89,1-4,.15-.55,2-1.61,2-2,0-.33-.92-.61-1-1-.7-3.37.79-2.1,1.5-2.5.54-.3,4.16-3.92,4.5-4.5.12-.2.97-1.88,1-2,.16-.7.16-4.34,0-4.5-.81-.83-4.01,1.89-4.5,2-.99.22-3.89.17-5,0-.37-.06-.61-.92-1-1-.92-.19-2.2.23-3,0-.39-.12-.6-.87-1-1-.59-.19-1.37.18-2,0-1.29-.37-1.7-3.62-3-4-4.47-1.32-.77-.27-2.5-2-.19-.19-1.03.27-1.5,0-2.54-1.45-2.25-5.75-2.5-6-.16-.16-3.41.48-4-1.5s2.25-2.29,2.5-2.5c3.92-3.27,7.99-10,11-12,.41-.27,2.57-.72,3-1,1.59-1.01,3.76-4.74,2.5-6-.16-.16-3.43.48-4-1.5-.18-.62.18-1.38,0-2-.16-.56-1.85-1.45-2-2-.3-1.09.3-2.91,0-4-.15-.55-2.69-4-3-6-.26-1.68.18-3.74,0-5.5,1.63.52,2.25-1.36,3.5-1,.41.12.62.92,1,1,2.5.51,5.55.54,8,1,.38.07.62.93,1,1,.82.15,3.3.19,4,0,.82-.22,1.57-2.69,3.5-2-.54-.68-.83-2.23-1-2.5-.95-1.48-3.68-1.82-4-3-.25-.91.27-3.23,0-3.5-.54-.54-.94,1.43-2-1.5-.16-.43-1-.68-1-1,0-.37,2-1.63,2-2,0-.33-.94-.62-1-1-.17-1.05-.21-4.04,0-5,.08-.36.8-.57,1-1,.14-.31-.13-.78,0-1,.69-1.16,4.36-3.83,5.5-3.5.72.21,2.3,2.81,3,3,.85.23,2.15-.23,3,0,.17.05,2.45,2.33,2.5,2.5.25.88-1.63,2.63-1,5,.29,1.08,2.31,1.84,3.5,1.5,2.21-.64,1.18-4.09,1.5-5.5.09-.38.89-.6,1-1,.17-.61-2.02-4.48-1-5.5,1.11-1.11,7.11,1.67,8.5,3,2.94.87,3.56-6.3,1-7-1.29-.36-3.49.25-5,0-.62-.1-.48-1.52-1.5-.5-.91.91-1.25-.46-2-1,1.72-1.03.65-2.76,1-4,.05-.17,2.33-2.45,2.5-2.5,2.82-.84,6.65,3.63,8.5,5.5l.5,2.5c1.73-1.92,3.82-3.55,5.5-5.5.15-.17-.18-.76,0-1,1.28-1.69,2.97-2.04,3.5-2.5,2.8-2.42,3.47-4.98,8-4,.87.19,4.02,2.73,5,3,.83.23,2.08-.19,3,0,.38.08.6.89,1,1,1.91.53,8.43-7.71,12-6,1.27-1.33,6.09-1.43,8-1,.36.08.57.8,1,1,.31.14.78-.13,1,0,.67.4,2.96,2.76,3.5,3.5.15.21-.16.76,0,1,.46.68,1.87,1.54,2,2,.55,1.99-.4,5.68,0,8,.07.39,1.55.9,1,2.5ZM70.08,20.23c-2.72-2.62-1.79,4.56-2,5.5-.09.4-1.36.68-1,2,.05.17,2.33,2.45,2.5,2.5.62.18,1.38-.17,2,0,.83.23,1.57,2.69,3.5,2,.12-2.05,1.52-3.24,1-5.5-.08-.36-.82-.57-1-1-.22-.54.17-1.33,0-1.5s-2.22.7-4-1.5c-1.15-1.42-.9-2.41-1-2.5ZM97.08,25.23c-1.05-1.05-4.8,1.36-4,2,.88.71,6,0,4-2ZM71.08,38.23l1-4.5c-3.42-3.61-5.07-1-4,3,.22.82,2.48,2.06,3,1.5ZM113.08,41.23c.18-.18,3.43-.5,4-2.5.18-.63-.19-1.41,0-2,.13-.4.87-.6,1-1,1.08-3.41-4.13-4.37-5-3.5-.17.17.22.96,0,1.5-.17.4-.84.6-1,1-.22.54.19,1.35,0,2-.46,1.6-5.02,3.13-6,5l2.5-.5c.75,1.6,3.23.74,3.5,1s-.79,2.4,1,2c.12-.81-.19-2.81,0-3ZM78.08,40.23c4.31-1.21,3.63-8.96,1-4.5-.13.22.14.69,0,1-.43.93-1.6,1.52-1,3.5ZM60.08,41.23c.13.13,2.76.58,3.5,1l2.5-4.5c-.69-1.22-5.17-3.34-6-2.5-.21.21-.21,5.78,0,6ZM54.08,40.23c-.34-.33-2.15.02-3,.5-1.75.99.55,2.13,0,4s-4.72,3.78-6.5,4.5c-.42.17-.62.88-1,1-3.86,1.16-4.93-6.4-9-7-2.98-.44-.67,3.07,0,4,.44.61,3.73,3.92,4,4,.85.23,2.15-.23,3,0,.44.12,2.62,1.92,3,2,.99.21,6.12.24,7,0,.94-.25,1.3-1.58,1.5-2.5.49-2.19,1.38-4.68,1-7-.06-.38-.99-.66-1-1,0-.13,1.84-1.69,1-2.5ZM104.08,41.23l-5,1c.48,1.2-1.7,3.23-1,4s2.93-1.17,3.5-2l2.5-3ZM80.08,45.23c-3.36-.44-5.87.98-8,3.5-.42,3.17,1.64.04,2,.5.92,1.19-1.62,4.38-1,5,.91.9,4.09-1.49,5.5-1,.57-1.76,3.55.95,4.5,0,2.11-2.13-1.87-1.87-2-2-.24-.24.19-2.55,0-3.5-.09-.42-1.55-.89-1-2.5ZM65.08,49.23c-1.6.47-7.12-3.85-8-3-.1.1.28,1.98-1,2.5.83,1.85-.96,3.7-1,4-.26,1.78-.43,6.95,1.5,7.5,1.01.29,7.16-3.31,7.5-4.5.18-.63-.19-1.41,0-2,.13-.41.92-.63,1-1,.21-1.02-.13-2.38,0-3.5ZM41.08,59.23c-1.13-1.13-10.66,1.8-7,6.5,2.19,2.81,3.2.89,6,.5-.44-1.62,1.98-6.01,1-7ZM54.08,61.23c.64-.76-.33-2.8-1-2-.64.76.33,2.8,1,2ZM43.08,83.23c2.08,1.97,4.99-5.21,1.5-7-.39,1.23-2.29.56-2.5,1.5-.56,2.47,1.75,1.21,2,1.5.92,1.07-1.15,3.86-1,4ZM58.08,83.23c.59.51,4.01-1.82,5.5-1,.65-.97,4.47-4.04,4.5-4.5.07-1.22-3.23-1.79-4.5-1.5-.96.22-2.96,2.56-4.5,2,.9,1.69-1.19,4.83-1,5ZM57.08,81.23c-1.46-1.46-5.89,2.07-2.5,3,1.61.44,3.18-2.32,2.5-3ZM89.08,111.23c.64-.76-.33-2.8-1-2-.64.76.33,2.8,1,2Z"/>
      <path d="M124.58,41.23c1.42,0-1.5,2.92-1.5,1.5,0-.11,1.39-1.5,1.5-1.5Z"/>
    </g>
  </g>
</svg>