<?xml version="1.0" encoding="UTF-8"?>
<svg id="Layer_2" data-name="Layer 2" xmlns="http://www.w3.org/2000/svg" viewBox="0 0 144.1 160.4">
  <g id="Elements">
    <g id="Element">
      <path d="M78.03,34.34c-.13.13-2.53-.13-3,1.5-.67,2.35-.57,4.79-1,7-.84,4.3-3.09,7.69-4,11-.37,1.32.07,3.27-1,5-1.9,3.08-2.42-.91-5-.5-.06-1.82.09-3.67,0-5.5-.08-1.63-.85-2.87-2-1.5-.31.37.25,3.36,0,4.5-.07.34-1.93,2.66-2,3-.89,4.13,2.32,5.83,2,7-1.02,3.71,2,4.37,2,5,0,.34-1,.66-1,1,0,.37,2.61,3,2,5-.12.41-.91.62-1,1-.21.9.23,2.17,0,3-.27.98-3.5,2.36-3,4-1.28.32-2.19,3.71-2.5,3.5-.47-.32-2.5-2.32-2.5-2.5,0-.33.89-.59,1-1,.27-1.02-.49-2.17,1-3l-2-3.5c-.2,1.74.29,3.86,0,5.5-.06.36-1.93,3.63-2,4-.21,1.15.3,4.14,0,4.5-.41.5-1.16-.93-1.5-1-.89-.18-6.27-.23-6.5,0-1.59,1.59,1.77,5.86,3.5,7,.97.64,5.28,1.78,5.5,2,.13.13-.13,2.53,1.5,3,.82.24,4.5-1.95,4.5-2.5,0-.15-1.83-1.52-1-2.5.12-.14,2.43,2.05,3-1-.97-.16-2.86.54-3-.5-.28-2.14,1.58-3.5,1-6-.09-.39-.89-.6-1-1-.07-.27,1.58-4.37,2-5,1.27-1.92,4.34-3.61,5-6,1.98-7.14,1.55-8.38,6-15,2.85-4.25,3.06-6.31,4-11,.4-2.01.48-5.13,1-7,.05-.17,2.32-2.5,2.5-2.5,1.3-.03,1.38,2.89,1.5,3,.28.26,2.68-.27,3,0,.27.22-1.51,1.73-1,3.5.64,2.23,0,4.36,1,8,.42,1.52-2,2.5-2,3,0,.3.8.56,1,1,.15.32-.13.8,0,1,3.3,5.21,2.78-1.28,3-1.5.11-.11,2.89-.1,3,0,1.04,1-.92,3.18-1,3.5-.41,1.62-.4,4.3-1,6-.14.39-.83.59-1,1-.91,2.18,1.82,1.32,2,1.5,2.13,2.13-1.86,1.86-2,2-1.14,1.14,1.83,2.92,2,3.5.73,2.54-1.75,3.13-2,4-.98,3.4-1.88,4.11-1,7,.59,1.95-.95,2.72-1,3-.43,2.39,1.03,4.88-1.5,6.5-3.27,2.09-5.49,5.57-9,6-.29,1.15-3.44.51-2.5,2.5.33.7,1.5.86,1,2.5,2.91.92,1.68-1.71,2-2,.49-.45,1.12.9,1.5,1,1.31.36,1.75-1,2-1,.33,0,.67,1,1,1,1.1,0,2.77-4.21,4-5,.27-.17,1.82-.46,2.5-1l1,4c2.66-1.21,2.48,3.34,2,5.5-.09.38-.89.6-1,1-.36,1.32.9,1.59,1,2,.3,1.24-.93,3.7,1,3.5.28-1.98-.4-4.7,0-6.5.08-.36.8-.57,1-1,.14-.31-.13-.78,0-1,.29-.49,1.99-2.17,2.5-2.5.43-.28,2.59-.73,3-1,2.03-1.35,3.97-4.65,6-6,2.35-1.57,10.58-5.39,11.5-8.5.21-.72-.21-2.29,0-2.5s1.78.21,2.5,0c.56-.17,1.45-1.85,2-2,1.07-.29,4.18.32,4.5,0s-.27-4.24,0-5.5c.08-.38,1.86-2.52,2-3,.56-1.87-1.29-2.76-1-4.5l-3,4.5c-1.47,1.95-2.71,5-4,7-1.05,1.62-5.38,2.12-6,1.5-.12-.12-.14-2.87,0-3.5.28-1.22,2.54-3.14,3-4,3.07-5.72,3.47-9.39,5-15,1.22-4.47,6.8-12.64,6-17-.11-.58-1.45-1.38-1-4,.08-.46.93-2.55,1-3,.4-2.4.37-5.7,1-8,.15-.54,1.73-1.36,2-2,.05-.12-2.14-1.57,1-2.5l.5,5c1.59,3.33-.45,9.05.5,12.5.61,2.2,3.97,1.16,5.5,1.5.35.08.57.8,1,1,.32.15.8-.13,1,0,.63.4,2.5,3.28,2.5,3.5,0,.33-.94.62-1,1-.69,4.13.12,8.57-1,13s-7.11,14.49-10,19c-1.01,1.58-3.15,1.48-4,3-.26.47.19,1.31,0,1.5-.69.71-3.19-1.66-4-1-.57.46,2,2.16,2,2.5s-.89.59-1,1c-.66,2.48-.99,3.75-2,6-3.14,6.95-8.33,12.31-6,20-1.6.73-2.33,4.18-3.5,4.5s-3.53-.03-5,0c-.84.02-3.5-.45-2.5,1.5.18.35,2.32,2.5,2.5,2.5.33,0,.59-.89,1-1,.65-.17,1.46.21,2,0,1.1-.42,7.19-5.43,7.5-6.5.18-.62-.18-1.38,0-2,.23-.79,5.63-5.34,7-8,.23-.44,1.79-1.71,1-2.5-.13-.13-3-.18-3-1.5,0-.18,1.92-2.03-.5-2.5-.1-.02-2.73,2.13-1.5-.5.31-.66,2.73-2.16,3.5-2.5,1.12-.5,3.77-1.93,4-2,.72-.21,2.29.21,2.5,0,.25-.25-.22-2.57,0-3.5.12-.51,4.29-7.89,5-9,1.34-2.08,3.07-.87,4.5-2.5l1.5,4,3-3c.29,2.54-2.75,2.88-2,5.5.13.46,1.08,4.7,1,5-.19.7-2.79,2.28-3,3-1.07,3.73-2.14,5.74-3,10-.08.39-1.36.68-1,2,.15.53,2.83,2.21,3.5,2.5.56.25,1.44-.25,2,0,.85.37,3.01,1.73,3.5,2.5.13.21-.15.7,0,1,.31.61,1.35.72,1,2-.11.4-.92.62-1,1-.59,2.9.48,3.02-2.5,5.5-3.87,3.22-4.7,4.16-7.5,8.5-.68,1.06-4.39,3.56-6,6-.64.96-1.08,4.11-2.5,4.5-.91.25-3.23-.27-3.5,0-.19.19.27,1.03,0,1.5-.82,1.44-5.11,3.45-6.5,4.5-1.94,1.47-2.7,4.24-4,5-.88.51-.25-1.06-.5-1.5-1.29-2.26-2.99-1.08-4.5-1.5-.46-.13-2.97-3.5-4.5-2-1.09,1.07,1.01,3.32,1,3.5-.02.35-1,.67-1,1s.89.59,1,1c.19.68-1.66,4.27-2.5,4.5s-2.08-.19-3,0c-.38.08-.6.89-1,1-1.32.36-1.56-.88-2-1-.73-.2-2.29.21-2.5,0-1.74-1.74,1.97-.67-2.5-2-.56-.17-1.45-1.85-2-2-1.33-.37-3.67.37-5,0-.5-.14-1.31-1.62-2-2-.47-.26-1.31.19-1.5,0-.17-.17.22-.96,0-1.5-.54-1.29-.68-2.21-1-3-.25-.63-1.98-3.35-2.5-3.5-1.98-.59-2.22,2.1-2.5,2.5-.89,1.26-2.36,2.47-3,4-.23.54.17,1.33,0,1.5-1.23,1.23-5.02-.89-6-2.5-.45-.75-.86-3.36-1-3.5-.19-.19-1.81.19-2,0-.26-.26.58-8.14-3-2.5-1.41,2.22.01,2.07-2.5,3.5-1.84,1.04-1.37,2.87-1.5,3-.25.25-2.56-.21-3.5,0-.37.09-2.82,2-3,2-.51,0-1.47-2.42-3-2-5.99,1.65-5.1-1-6-1-.33,0-.59.89-1,1-1.31.36-1.75-1-2-1-.45,0-3.26,4.24-4.5,3-.19-.19.19-1.81,0-2-.75-.75-5.98,2.02-7,1-.17-.17.22-.96,0-1.5-.18-.43-.93-.64-1-1-.2-.94.24-3.26,0-3.5s-2.74.25-3,0c-.94-.92,1.16-3.87,1-4-.21-.18-1.03.26-1.5,0-1.49-.84-1.75-3.64-3-4-.66-.19-1.49.23-2,0-.7-.31-3.36-1.97-3.5-2.5-.25-.91.27-3.23,0-3.5-.16-.16-3.43.48-4-1.5-.19-.66.23-1.49,0-2-.64-1.41-3.99-5.58-.5-6.5,3.07-.81,3.34.87,5,2,.24.16.79-.15,1,0,2.68,1.94,5.75,8.35,8.5,4.5-1.96-1.42-.52-4.23-1-6-1.61-.75-2.3-4.14-3.5-4.5-1.48-.44-3.47,1-2.5-2.5.12-.44,1.36-.68,1-2-.05-.18-1.48-2.09-2-3-.24-.42-.84-.63-1-1-.23-.54.18-1.32,0-1.5-.25-.25-5.16.56-6-2.5-.36-1.3.26-3.5,0-5-.06-.37-.87-.59-1-1-.37-1.17.42-3.19,1.5-3.5,1.24-.36,2.21,1.28,3,2,1.54,1.4,4.61,5.89,5,6,1.31.36,1.75-1,2-1,.5,0,1.48,2.42,3,2,.45-.13,1-1.57,3-1,3.36.97,1.99,5.63,2.5,7.5.19.7,2.79,2.28,3,3,.65,2.27-2.66,4.74-2,7,.15.52,1.54.86,1,2.5,1.11-.15,2.52.23,3.5,0,.41-.1.68-1.36,2-1,.19.05,1.68,1.82,2.5,1s-.97-2.36-1-2.5c-.6-2.62,1.61-4.39,1-7-.09-.38-.87-.59-1-1-.19-.59.18-1.37,0-2-.25-.86-4.11-3.65-5-5-1.79-2.7-2.96-7.29-5-10-.79-1.05-5-4.62-5-5,0-.22,2.02-3.37,2.5-3.5.88-.24,3.87-.13,5,0,.94.11.43,1.17.5,2,1.75.18.53-3.88,3-2,.26.2-.86,2.98,2,2-.06-3.73,1.06-7.35-3-9,.13,1.47.23,4.53-1.5,5-1.91.52-3.04-1.49-5-1-.88-1.2-2.82-2.35-3.5-3.5-1.29-2.16-.57-4.02-1-6-.25-1.15-2.62-2.86-2-5,.05-.17,2.33-2.45,2.5-2.5,1.17-.34,4.66,2.85,5.5,2,1.21-1.23-3.23-8.65-5-9.5.87-2.03-1.2-5.29-1-6,1.25-4.52-.9-7.97,0-13,.52-2.91-.61-7.27,0-10,.08-.35.8-.57,1-1,.15-.32-.13-.8,0-1,1.57-2.45,3.47-1.05,5.5-1.5.4-.09.68-1.36,2-1,.17.05,2.45,2.33,2.5,2.5,1.32,4.78-2.61,5.57-3,7-.19.69-.23,6.27,0,6.5.19.19,1.81-.19,2,0,.39.39.74,8.77,1,10.5.06.38.96.63,1,1,.41,3.53-1.3,7.38,2.5,9.5.47.26,1.31-.19,1.5,0,.14.14.13,3.85,0,4-.19.22-3.18-3.2-2,2.5.08.39.92.61,1,1,.19.95-.24,3.26,0,3.5.19.19,1.81-.19,2,0,.32.32-.66,2.81.5,3,2.89-1.9,2.99-5.17,2.5-8.5-.05-.36-1.66-1.62-1-4,.34-1.22,4.67-2.17,5-4.5-1.63-.52-2.25,1.36-3.5,1-.17-.05-2.45-2.33-2.5-2.5-.39-1.32-.58-3.72-1-5-.59-1.82-4.34-9.88-4-11,1.23-4.04-.85-6.04,0-10,.24-1.1,2.91-3.67,3-4,.36-1.32-.31-3.55,0-5,.08-.38,1.88-2.56,2-3,.32-1.17-.52-3.94,1.5-4.5.61-.17,4.34-.16,4.5,0,.25.24-.57,2.83,1,3.5-1.46,1.29-1.43,4.16-2,6-.12.4-.88.6-1,1-1.25,4.1-1.26,7.83-3,12-.91,2.18,1.82,1.32,2,1.5.37.37-.37,5.63,0,6,.25.25,2.75-.25,3,0s-.18,3.38,0,4.5c.4,2.51,2.66,5.84,3,7,.39,1.32.58,3.72,1,5,.16.48,1.36.69,1,2-.11.4-.91.62-1,1-.32,1.42.27,3.49,0,5-.42,2.35-3.74,6.09-4,7-.17.61.17,1.37,0,2-.11.41-1,.67-1,1s1.67,1.04,1,2c1.16.3.5,3.43,2.5,2.5s.92-3.38,2.5-4.5c.53-5.03,2.62-8.27,2-14-.04-.36-.96-.64-1-1-.12-1.22-.27-7.23,0-7.5.25-.25,5.09.59,6-2.5.39-1.32-2.14-1.89.5-3.5.47-.29.83,3.64,3,3l2.5-4.5c.05-1.05-1.77-.27-2-.5-.94-.94,1.16-3.87,1-4-.38-.33-3.56.34-4,0-.26-.2.86-2.98-2-2,1.34,4.94-2.61,4.31-4,6.5-.32.51-1.94,2.82-2,3-.3.98.83,2.78-1,2.5.78-1.76-.94-3.15-1-3.5-.43-2.74-.19-5.16-1-8-.66-2.3-2.8-.06-1-6,.6-1.97-1.32-2.85-1-4,.5-1.82,3.84-.96,5-3,.07-.12.03-2.55,1-1.5.31.34-.82,2.36,1,2l-.5-3c2.08-2.87-.13-5.57.5-8.5.07-.34,1.92-2.65,2-3,.57-2.57-1-3.78-1-4,0-.39,1.85-1.45,2-2,.23-.85-.23-2.15,0-3,.07-.25,2.33-2.95,3-4,1.8-2.82,2.5-.82,3.5-.5.59.19,1.37-.18,2,0,1.96.56,1.34,3.81,1.5,4,.41.5,1.25-1,1.5-1,1.43.01,1.3,2.8,1.5,3.5.16.56,1.85,1.45,2,2,.26.96.2,5.81,0,7-.17,1.04-.55,3.61-1,5-.17.54-1.57,1.02-1,3l1.5,4.5c.52-1.37,4.36-5.02,4.5-5.5.84-2.93,1.34-7.74,4.5-9.5.47-.26,1.31.19,1.5,0,.69-.67-1.69-3.33-1-4,.22-.22,1.78.21,2.5,0,2.2-.65,2.89-4.37,2.5-6.5-.07-.38-.95-.63-1-1-.13-1.06-.23-6.27,0-6.5,1.66-1.68,11.31,3.31,7,6.5.81,2.87-1.66,5.6-1,8,.35,1.27,3.65,1.73,4,3,.29,1.05-.2,2.77,0,4,.06.38,1,.67,1,1s-.93.62-1,1c-.65,3.82,1.71,3.96,2,5,.32,1.16-4.81,6.45-4,9l-3.5,4.5-.5-11.5c-4.69-1.76-2.25-13.75-3-14.5-.11-.11-2.89-.1-3,0-.84.79,1,2.37,1,2.5,0,2.31.55,14.95,0,15.5ZM58.53,19.34c-.11,0-1.5,1.39-1.5,1.5,0,1.42,2.92-1.5,1.5-1.5ZM58.03,31.34c.64-.76-.33-2.8-1-2-.64.76.33,2.8,1,2ZM49.03,36.34c-.16.16-.17,3.89,0,4.5.07.24,3.25,3.5,3.5,3.5.35,0,2.5-3.28,2.5-3.5,0-.34-1-.67-1-1,0-.29,2.32-1.43,0-3l-1-3.5c-2.05.03-1.86,2.88-2,3-.22.19-1.81-.19-2,0ZM64.53,37.34c-.65,0-.65,1,0,1s.65-1,0-1ZM65.03,50.34c.16-.19.16-4.81,0-5-1.41-1.69-1.41,6.69,0,5ZM124.53,73.34c-.65,0-.65,1,0,1s.65-1,0-1ZM75.03,86.34c1.68-.27,1.83-1.86,2.5-3,.51-.88,2.7-2.65,1.5-4-.11-.13-2.89,1.18-3,1.5-.64,1.85-1.39,3.43-1,5.5ZM72.03,96.34c.79-.07,3-2.3,3-2.5,0-.32-.85-.57-1-1-.2-.56.16-1.3,0-1.5-.91-1.09-.92,1.29-1,1.5-.34.84-1.64,1.53-1,3.5ZM101.03,115.34c-1.01-1.1-2.84,1.64-3.5,2-.48.26-1.31-.19-1.5,0-.18.18.23.96,0,1.5s-1.36.7-1,2c.11.4.91.61,1,1,.65,2.81-1.49,4.58-2,7l-8,9.5h6.5c.9-1.46,3.99-.67,4.5-2.5.66-2.4-1.25-4.09-1-5,.11-.4.91-.62,1-1,.26-1.17-.3-2.92,0-4,.15-.54,4-3.76,4-5,0-.33-.88-.59-1-1-.24-.87,1.96-3.46,1-4.5ZM123.03,121.34c1.82.42,2.31-1.82,3.5,0,1.76-2.97,5.13,1,6,1,.15,0,2.02-1.19,2.5-1.5,2.31-1.5.02-5.08-1.5-5.5-3.13-.86-5.58.14-7.5,2.5-.13.16.18.72,0,1-1.14,1.81-3.1.88-3,2.5ZM110.03,119.34c-.76-.64-2.8.33-2,1,.76.64,2.8-.33,2-1ZM46.03,133.34c1.03-1.03-.32-3.39-2-.5-.42.73,1.82.68,2,.5ZM25.03,133.34c-1.4-.03-5.02-1.88-6-1-1.14,1.03,1.86,3.03,2,3.5.21.73-.21,2.29,0,2.5.44.44,3.4-1.48,5.5-1,.36.08.57.82,1,1,.54.22,1.33-.17,1.5,0,.25.25-.25,2.75,0,3,.19.19,4.84.18,5.5,0,1.51-.42,2.01-4.47,1.5-5-1.02-1.05-3.32.97-3.5,1-3.59.53-7.33-.05-7.5-4ZM117.03,132.34c-2.5,0-4.07,2.95-6.5,3l-4.5,4h4.5l6.5-7ZM101.03,133.34c-2.11-.26-2.26-.11-2,2l2-2ZM60.03,134.34c-.94-.91-4.07,1.49-5.5,1l-3.5,4c1.8.12,3.23.06,5-.5,1.32-.42,1.16.5,1.5.5.74,0,3.04-4.48,2.5-5ZM84.53,137.34c-.65,0-.65,1,0,1s.65-1,0-1ZM28.53,143.34c-1.42,0,1.5,2.92,1.5,1.5,0-.11-1.39-1.5-1.5-1.5Z"/>
      <path d="M128.03,26.34c-.26.23-2.59-.73-4,1.5-2.05,3.25-2.9,4.16-4,8-.16.57-2.01,1.72-2.5,2.5l-2-4c-2.52,2.13-3.94,4.64-3.5,8,4.08,1,2.36-1.55,4-2.5.94-.54,1.87.52,2,1,.38,1.4-1.57,1.71-.5,2.5.29.93-.17,7.29-.5,8.5-.18.64-2.45,2.07-3,3-.66,1.12-.71,3.33-1,4-.53,1.23-3,3.75-3,4,0,.18,1.88,2.57,2,3,.22.81-2.61,7.31-2,11,.06.38,1,.67,1,1,0,1.48-6.66,7.82-7,9-1.84,6.41-6.55,12.46-12,17-.63.53-2.17,2.38-3,1.5-.55-.58.86-2.33,1-3.5.36-3.06-.87-4.79-1-6-.16-1.46-.31-5.89,0-7,.43-1.55,9.53-8.39,10-10,.41-1.39.63-3.57,1-5s1.69-4.56,2-6c.15-.69.38-3.25-.5-3.5-.81,1.18-6.05,8.53-7.5,7,.28-1.58-.82-1.95-1-3.5-.16-1.39-.26-4.8,0-6,.08-.37.83-.57,1-1,.78-1.95,1.52-4.4,3.5-5.5,2.97-1.65,1.76-2.89,3.5-5.5.61-.92,2.83-2.4,3-3,.23-.85-.23-2.15,0-3,.1-.37,4.96-5.2,5.5-5.5.47-.26,1.28.18,1.5,0,.5-.41-.9-1.13-1-1.5-.54-2.05,1-2.83,1-3s-1.6-1.03-1-3c.11-.37.8-.57,1-1,.15-.32-.13-.8,0-1,.4-.63,3.28-2.5,3.5-2.5.48,0,1.62,2.53,3,2,2.57-1.21-.22-3.17.5-4,.23-.27,2.28,1.75,3,1,.19-.19-.27-1.03,0-1.5,2.47-4.33,8.52,1.15,7,2.5ZM119.53,30.34c-.65,0-.65,1,0,1s.65-1,0-1Z"/>
      <path d="M10.03,79.34c.19.19,1.03-.26,1.5,0,2.94,1.64,2.59,4.9,3.5,7.5.18.52,1.92,2.63,2,3,1.41,6.36-3.3,6.85-6,2-.26-.47.19-1.31,0-1.5s-1.81.19-2,0c-.27-.27.25-2.59,0-3.5-.08-.29-3.21-4.42-3.5-4.5-.89-.26-3.03.19-3.5-1.5-.36-1.32.91-1.6,1-2,.73-3.26-1.38-6.3-2-9-.27-1.15.26-2.84,0-4-.09-.38-.89-.6-1-1-.3-1.09,1.51-2.94,2-4,.23-.5-.19-1.34,0-2,.6-2.08,7.14-5.49,7-1,1.7.92.61,2.69,1,4,.18.6,2,3.76,2,4,0,.33-.94.62-1,1-.45,2.7.41,6.25,0,9-.03.19-2.06,2.44-1,3.5Z"/>
      <path d="M108.03,17.34c.24.24-.16,3.04,0,4l-2-3c-.27,1.64.39,4.09,0,5.5-.15.55-1.85,1.45-2,2-.36,1.32.31,3.55,0,5-.15.69-2.51,4.96-3,6-.84,1.78-1.08,3.83-3,5-.94.57-3.71.78-4,.5-.55-.53.86-2.35,1-3.5.18-1.54-.34-3.75,0-5,.15-.55,1.85-1.45,2-2,.23-.85-.23-2.15,0-3,.51-1.86,1.8-1.21,1-4-.57-2,.91-2.62,1-3,.74-3.18-.83-3.28-2-5-.16-.24.15-.79,0-1-.8-1.1-3.8-3.31-4-4-.09-.31.82-2.72,1-3,2.6-4.06,7.06.47,9,3,.91,1.19,2.05,4.68,3.5,5.5.47.27,1.31-.19,1.5,0Z"/>
      <path d="M93.03,41.34c.39.44-.79,3.6,1,4.5-1.37,3.04-2.12,6.76-3,10-.2.74.21,2.29,0,2.5-.18.18-4.82.18-5,0-.3-.3-.21-7.55,0-8.5.08-.37.83-.57,1-1,.46-1.16,3.99-9.74,6-7.5Z"/>
      <path d="M13.53,68.34c.65,0,.65,1,0,1s-.65-1,0-1Z"/>
    </g>
  </g>
</svg>