<?xml version="1.0" encoding="UTF-8"?>
<svg id="Layer_2" data-name="Layer 2" xmlns="http://www.w3.org/2000/svg" viewBox="0 0 187.2 177.94">
  <g id="Elements">
    <g id="Element">
      <path d="M121.1,169.03c.12-.73.09-1.11,1-1,.11.95-.32.86-1,1Z"/>
      <path d="M121.1,169.03c-.27,1.65.36,1.74-1,3.5-1.91,2.48-1.69.73-2.5.5-1.11-.31-3.77,2-4,2-.38,0-1.62-2-2-2-.4,0-1.57,2.74-4,2-.41-.12-.63-.93-1-1-1.11-.21-4.23.27-4.5,0-.19-.19.19-1.81,0-2-.23-.23-3.39.13-4.5,0-1.53-.18-1.97-1.29-3-1-2.9.82.03,4.48-.5,5-.78.76-2.47-1.3-3.5-1-1.93.55-4.39,1.78-6.5,2.5-3.29,1.12-6.48-.09-4-3v-3.5c-3.06.62-.86,2.9-1,3-.22.16-.94-.19-1.5,0-.43.15-.68,1-1,1s-.66-1-1-1c-.57,0-1.81,3.06-1.5-1.5l-2-2.5-1,4c-1.2.45-3.32-1.7-4-1-.16.17.2,4-1.5,4-.32,0-.58-.88-1-1-.65-.19-4.66,2.58-5.5-.5-.54-1.96.6-3.31,1-5,.96-1.59,5.73-7.02,6-8,.23-.85-.23-2.15,0-3,.32-1.17,2.91-3.67,3-4,.25-.9.89-4.27,1-5,.19-1.3-.3-5.14,0-5.5.27-.32,6.13,5.7,3.5-2-.41-1.19-1.75-2.59-1.5-3.5.16-.57,3.14-2.36,2-3.5-.15-.15-2.83-.2-3.5-2l-1.5,3-1-4c-1.64.54-1.99-.85-2.5-1-.73-.21-2.29.21-2.5,0-.18-.18-.18-4.82,0-5,1.07-1.08,4.06,1.93,5,.5l-4.5-2.5c-3.89.61-1.99-.99-2.5-3.5-.08-.38-.91-.61-1-1-.34-1.45.05-4.03,1.5-4.5,2.53-.82,2.9,1.47,2.5-4-3.35-.88-1.52,2.55-2,3-1.58,1.49-2.74-1.92-3-2.5-.2-.43-.92-.65-1-1-.26-1.17.28-2.87,0-4s-.66-2.57-1-4c-.09-.37-.82-.57-1-1-.83-1.99,1.16-1.31,1.5-1.5,1.61-.91,1.75-3.11,2.5-4.5.37-.69,1.86-1.49,2-2,.23-.83.15-3.97,0-5-.52-3.48-1.59-5.58-1-9,1.12-6.56,2.42-12.66,4-19,1.88-7.57-.24-13.29,1-20,.07-.37.89-.59,1-1,.99-3.57-1.6-2.17-2-2.5-.26-.22,1.45-3.5,1-6.5-.92-6.21-2.81-13.3-6-19l-1-7.5,3,3.5c.23,4.61,4.15,8.86,5,13,1.13,5.55.64,11.55,2,17,1.62,6.52,3.48,14.4,2,21-1.15,5.15-.77,8.08,0,14,.17,1.27-.28,5.2,0,5.5.51.56,2.78-.67,3-1.5.41-1.53-.75-3.22,1.5-4.5.47-.27,1.31.19,1.5,0,.42-.42-.41-.95,2.5-3,1.71-1.2,2.41-3.68,5-3,.37.1,1.09,1.5,1.5,1,.2-.24-.19-1.81,0-2,.23-.23,5.68-.18,6.5,0,.38.09.6.89,1,1,1.27.35,3.4-1.8,4.5-2.5,1.33-.84,2.72-.02,3,1,.31,1.14-1.62,3.05-2,4-.73,1.82-1.56,4.99-2,7-1.21,1.08-3.42,6.19-4.5,6.5-1.77.5-3.28-1.27-3.5-1l-1,4c-2.86-.99-3.89,2.75-6.5,2-2.99-.86-4.16,2.35-7,3-.94.21-3.25-.25-3.5,0-.27.27.25,2.59,0,3.5-.31,1.13-5.21,3.28-6,2.5-.23-.23.55-2.05-.5-2-.63,1-3.28,2.75-3.5,3.5-.37,1.22.7,3.53,1.5,3.5.34-.01.67-1,1-1,1.42,0,7.14,5.96,9,7,.47.26,1.31-.19,1.5,0,.37.37.21,9.23,0,10.5-.06.38-1,.67-1,1s.94.62,1,1c.59,3.54-1.63,7.85,3,4,4.07-3.38,3.65-4.42,5-9,.09-.3,2.44-3.79,3-5,1.48-3.19,6.02-8.42,7-12,.29-1.07-.29-5.32,2.5-4.5.49.14,2.45,3.14,3.5,2,.26-.29-.6-2.75,1-3.5l-1-4c.21-1.42,1.57.99,2,.5,1.05-1.2-2.58-4.67.5-6l1.5,2,1-3.5c.59-.76,3.23-5.29,3-5.5-.2-.19-1.03.26-1.5,0-2.55-1.42-.5-2.32-.5-2.5,0-.22-1.59-1.45-1-4,.86-3.67,3.92-8.97,5-13,.23-.85-.23-2.15,0-3,.05-.17,2.32-2.5,2.5-2.5.33,0,.67,1,1,1,1.57,0-1.5-2.24-1.5-2.5,0-.33.89-.59,1-1,.78-2.93.46-2.93,0-5-1.04-4.63,3.17-11.01,4-15s1.22-11.43,1-16c-.09-1.83.23-2.86-1-4.5,4.52-.05,2.62,4.93,3,7.5.57,3.8,2.06,7.5,1,11-.6,1.97,1,2.83,1,3,0,.3-2.2,4.3-1,5.5.19.19,1.03-.27,1.5,0,.26.15,3.42,4.21,3.5,4.5.19.66-.23,1.5,0,2,.5,1.06,2.3,2.91,2,4-.11.39-.87.59-1,1-.19.6.19,1.4,0,2-.28.89-1.66,3.07-2,4-1.52,4.18-3.09,8.9-5,13-2.44,5.24-4.43,10.26-6,16-.45,1.64-3.21,5.12-4,7-.42,1.01.91,1.9-2,1.5,1.04-1.72,2.54-6.82-1-6l-1,5.5c-1.06,3.07-2.94,6.49-3,10-.65,1.22-4.87,5.53-5,6-.65,2.27,2.07,4.46,3,3.5.09-.1-.15-1.08,1-2.5,1.95-2.42,3.55-.61,5.5-2.5,2.71,1.85.62,2.59.5,5-.2.19-1.03-.26-1.5,0-3.19,1.78-6.59,10.34-9,11-.85.23-2.15-.23-3,0-1.97.54-1.34,3.84-1.5,4-.52.52-5-.15-5-1.5,0-.22,3.08-2.44,2-3.5-.57-.56-2.77.69-3,1.5-.56,2.02,1,2.83,1,3,0,.47-6.21,6.19-1,5.5-.19,1.1.28,4.72,0,5-.24.24-3.05-1.02-2,2.5.17.56,1.85,1.45,2,2,.56,2.04-.56,5.96,0,8,.15.56,2,1.69,2.5,2.5.82,1.34.34,2.82.5,3,.31.36,5.67-2.58,4-5,.88.05,5.27-2.26,4,.5-.81,1.77-2.88,1.38-3,1.5-.59.59.63,2.6,1.5,3,1.99.91,1.25-1.96,2.5-2.5-.39-2.34.03-3.16,2.5-2.5.43.12,2.56,1.88,3,2,6.01,1.64,13.6,0,19,2,.57.21,2.54,1.88,3,2,2.17.59,6.08.47,8,1,.7.19,2.3,2.81,3,3s5.66-2,6-2c.12,0,1,.62,2,1,8.12,3.06,16.61,4.59,25,7,.77.22,1.46,2.42,3,2s3.59-.4,6,0c.38.06.67,1,1,1,.23,0,1.78-2.51,3.5.5.27.47-.19,1.31,0,1.5.72.75,2.77-1.27,3-1,.26.3-.25,2.75,0,3,.19.19,1.81-.19,2,0,.14.14.14,3.86,0,4-.21.21-1.76-.2-2.5,0-4.09,1.1-5.84.64-10,1-.36.03-.63.96-1,1-1.09.12-6.27.23-6.5,0-.19-.19.19-1.81,0-2-.32-.32-3.43.29-4.5,0-.27-.07-1.25-1.34-3-2-.98-.37-.45-1.23-.5-2l-1,3c-3.88.59-.56-1.71-1-2-.19-.12-3.73-.12-4.5,0-2.44.4-5.87.54-8,1-.4.09-3.22,2.33-3.5,2-.58-.69,1.54-6.29-3-3.5-3.04,1.86-1.33.5-2.5.5-.33,0-.59.89-1,1-1.11.31-3.77-2-4-2-.51,0-1.47,2.42-3,2-1.97-.54-1.34-3.84-1.5-4-.33-.33-3.25.35-4,0-.05-.02.18-.84-.5-1-3.62-.84-3.68,2.66-.5,2ZM113.6,48.03c-.65,0-.65,1,0,1s.65-1,0-1ZM115.1,53.03c1.03-1.03-.32-3.39-2-.5-.42.73,1.82.68,2,.5ZM115.6,62.03c-.65,0-.65,1,0,1s.65-1,0-1ZM88.6,67.03c-.65,0-.65,1,0,1s.65-1,0-1ZM109.6,71.03c-.65,0-.65,1,0,1s.65-1,0-1ZM110.1,73.03c-1.09-1.09-3.09.91-2,2s3.09-.91,2-2ZM77.1,75.03c-1.09-1.09-3.09.91-2,2s3.09-.91,2-2ZM70.6,80.03c-.65,0-.65,1,0,1s.65-1,0-1ZM74.6,81.03c-.65,0-.65,1,0,1s.65-1,0-1ZM71.1,82.03c-.15-.13-3.86-.14-4,0-.18.18.23.96,0,1.5-.18.42-.89.63-1,1-.29,1.04,1.74,2.62,1,4.5,4.02.49,1-2.2,1-2.5,0-.52,3.26-4.28,3-4.5ZM64.1,86.03c.94-1.13-2-3.93-2-2.5,0,.32.85.57,1,1,.1.27.1,2.57,1,1.5ZM74.1,85.03c-1.09-1.09-3.09.91-2,2s3.09-.91,2-2ZM61.1,106.03c.49-.4-.81-1.07-1-1.5-.23-.53.17-1.29,0-1.5-1.3-1.55-1.73,5.24,1,3ZM65.1,109.03c.83-1.03-.8-1.92-1-2.5s.18-1.37,0-2c-.11-.4-1.75-1.81-2-1.5-.83,1.03.8,1.92,1,2.5s-.18,1.37,0,2c.11.4,1.75,1.81,2,1.5ZM68.1,107.03c-.2.24.16,1.73,0,2.5-.08.39-1,.67-1,1,0,1.06,2.46,1.97,3,0,.36-1.3-.77-1.45-1-2-.08-.2-.09-2.59-1-1.5ZM60.6,108.03c-.65,0-.65,1,0,1s.65-1,0-1ZM100.6,108.03c-.65,0-.65,1,0,1s.65-1,0-1ZM70.1,115.03c.64-.76-.33-2.8-1-2-.64.76.33,2.8,1,2ZM66.6,116.03c-.65,0-.65,1,0,1s.65-1,0-1ZM89.6,116.03c-.65,0-.65,1,0,1s.65-1,0-1ZM63.6,119.03c-.65,0-.65,1,0,1s.65-1,0-1ZM83.6,121.03c-.65,0-.65,1,0,1s.65-1,0-1ZM76.1,131.03c.13-.15.13-3.85,0-4-1.37-1.64-1.37,5.64,0,4ZM65.1,131.03c.64-.76-.33-2.8-1-2-.64.76.33,2.8,1,2ZM77.1,134.03c-.76-.64-2.8.33-2,1,.76.64,2.8-.33,2-1ZM77.1,138.03c.64-.76-.33-2.8-1-2-.64.76.33,2.8,1,2ZM83.1,146.03c-.53-.56-2.76.67-3,1.5-1.03,3.54,1.64,2.19,2,2.5.19.17-1.9,3.31-1,5,6.37-.94,1.03-5.11,1-5.5-.01-.18,2.08-2.36,1-3.5ZM79.1,149.03c.57-.46-2.17-2.83-3-2-.11.11-.1,2.88,0,3,.4.48,1.07-.81,1.5-1,.52-.23,1.28.17,1.5,0ZM97.1,152.03c.2.16.94-.2,1.5,0,.37.13,1.5,1.85,1.5.5,0-1.79-4.43-1.7-3-.5ZM73.6,153.03c-.65,0-.65,1,0,1s.65-1,0-1ZM91.6,154.03c-.65,0-.65,1,0,1s.65-1,0-1ZM105.1,156.03c.64-.76-.33-2.8-1-2-.64.76.33,2.8,1,2ZM76.6,157.03c-1.42,0,1.5,2.92,1.5,1.5,0-.11-1.39-1.5-1.5-1.5ZM89.1,162.03c-.76-.64-2.8.33-2,1,.76.64,2.8-.33,2-1ZM127.1,166.03c.58-.58-.88-3-1.5-3-.11,0-1.5,1.39-1.5,1.5,0,.62,2.42,2.08,3,1.5ZM81.6,164.03c-.65,0-.65,1,0,1s.65-1,0-1ZM92.6,164.03c-.65,0-.65,1,0,1s.65-1,0-1ZM149.1,168.03l-2-4-1,4c.81-.12,2.78.2,3,0ZM156.6,164.03c-.65,0-.65,1,0,1s.65-1,0-1ZM160.6,165.03c-.65,0-.65,1,0,1s.65-1,0-1ZM68.1,168.03c.64-.76-.33-2.8-1-2-.64.76.33,2.8,1,2ZM100.6,166.03c-.65,0-.65,1,0,1s.65-1,0-1ZM151.6,166.03c-.65,0-.65,1,0,1s.65-1,0-1ZM156.1,166.03c-1.09-1.09-3.09.91-2,2s3.09-.91,2-2ZM97.6,168.03c-.65,0-.65,1,0,1s.65-1,0-1ZM160.6,169.03c-.65,0-.65,1,0,1s.65-1,0-1ZM85.1,170.03c-.76-.64-2.8.33-2,1,.76.64,2.8-.33,2-1ZM110.1,170.03c-.24-.19-3.44-.24-3,.5,1.64,2.8,3.36-.21,3-.5ZM64.6,171.03c-.65,0-.65,1,0,1s.65-1,0-1ZM64.6,174.03c-.65,0-.65,1,0,1s.65-1,0-1Z"/>
      <path d="M17.1,64.03c.1.09.02,1.1,1,2.5.71,1.01,1.58,2.45,2,3,.76,1.01,2.52,2.09,3,3,.27.5-4.05.57-2,2.5.15.14,3.09-1.93,4-1,.25.26-.21,2.56,0,3.5.08.33,2.04,3.37,2.5,3.5.84.23,2.11-.21,3,0,.39.09.61.91,1,1,.89.21,2.16-.23,3,0,.24.07,3.17,3,3.5,3.5.37.56,4,7.55,4,8,0,.26-1.5,1.09-1,1.5.27.22,1.78-.21,2.5,0,2.56.76.97,5.57,1.5,7.5.11.39,1.75,1.81,2,1.5.28-.34-.96-3.11,2.5-2,1.28.41,1.36,2.3,1.5,2.5.73,1.03,2.66,2.74,3,4,1.33,4.86,1.8,10.4,5,15l1,3.5c-1.2-.45-3.32,1.7-4,1-.28-.29.19-3.89,0-5l-4,4c.78-1.75-1.01-3.32-1-3.5.07-1.11.41-.04,0-2-.16-.77.19-2.31,0-2.5-.18-.18-4.82-.18-5,0s.22.96,0,1.5c-.17.42-.88.62-1,1-.58,1.85,1.58,3.15,1,5-.12.4-.87.6-1,1-.19.59.18,1.37,0,2-.16.56-1.84,1.44-2,2-.36,1.26.45,2.25-1.5,3.5-.25.16-.79-.15-1,0-1.48,1.05-3.49,5-4,5-.17,0-.99-1.57-3-1-1.1.31-2.37,4.53-4,5-1.05.3-2.93.31-4,1-1.42.91-3.69,6.64-6,6-.41-.11-.67-1-1-1-1.17,0-1.98,3.71-2.5,4.5-.92,1.38-3.08,2.62-4,4-.69,1.04-1.33,3.78-2,5-.51.93-2.59,2.63-3,4-.43,1.46,2.68,2.75-.5,2.5-1.56-.56-1.38-2.89-1.5-3-.28-.25-3.03.17-4,0,.73-1.45-1.59-4.41-1-5s3.55,1.73,5,1l2,2c-1.37-2.03-1.71-4.74.5-6,.47-.27,1.31.19,1.5,0,.21-.21-.2-1.77,0-2.5.12-.44,1.36-.68,1-2-1.72-6.26,1.89-7.85,3-13,.3-1.39.68-8.18,1-8.5.19-.19,1.81.19,2,0,.79-.79,2.26-7.71,3-9.5.22-.54-.17-1.33,0-1.5.19-.19,1.76.2,2,0,.5-.41-1-1.25-1-1.5.02-2.11,5.77-1.27,6-1.5.19-.19-.19-1.81,0-2,.4-.4,4.82-1.68,5.5-2,2.9-1.36,5.18-3.05,9-2,.55.15,1.61,2,2,2,.25,0,3.43-3.26,3.5-3.5.41-1.47-1.44-1.99-2-3-.26-.47.19-1.31,0-1.5-.63-.63-2.42,1.95-2-3.5.01-.15,1.91-1.85-.5-2.5-1-.27-4.74-.16-6,0-5.92.74-14.59,2.49-20,1-1.33-.37-1.88,1.89-5,1-1.44-.41-5.45,2.05-6.5,1-.68-.68.05-4.08,1.5-5,2.72-1.74,2.76-3.8,5.5-4l1-6c1.82-.36.69,1.66,1,2,1.09,1.18.89-1.89,1-2,.44-.44,2.94,1.42,2-3.5-1.59-2.59-2.14-.11-3.5-.5-2.1-.61-3-4.42-2.5-6.5,1.97-2.58-.2-5.06,4-2.5-.62-2.54,2.23-3.95,0-5.5l2-.5c-1.79-1.72-1.34-8.26,1-6ZM20.1,71.03c-.7-.57-3,.92-3,1.5,0,.33.92.61,1,1,.16.77-.2,2.25,0,2.5.25.31,1.89-1.11,2-1.5.36-1.31-1-1.74-1-2s1.5-1.09,1-1.5ZM21.6,77.03c-.65,0-.65,1,0,1s.65-1,0-1ZM16.6,78.03c-.65,0-.65,1,0,1s.65-1,0-1ZM14.6,81.03c-.65,0-.65,1,0,1s.65-1,0-1ZM24.6,99.03c-.65,0-.65,1,0,1s.65-1,0-1ZM34.6,99.03c-.65,0-.65,1,0,1s.65-1,0-1ZM47.1,108.03c.64-.76-.33-2.8-1-2-.64.76.33,2.8,1,2ZM53.1,116.03c1-1-.72-2.81-1-3.5-.08-.21-.09-2.59-1-1.5-.56.67-.28,7.28,2,5ZM40.1,114.03c-1.03-1.03-3.39.32-.5,2,.73.42.68-1.82.5-2ZM46.1,115.03c-2.11-.26-2.26-.11-2,2l2-2ZM54.1,119.03c.64-.76-.33-2.8-1-2-.64.76.33,2.8,1,2ZM28.1,121.03c.64-.76-.33-2.8-1-2-.64.76.33,2.8,1,2ZM29.6,123.03c-.65,0-.65,1,0,1s.65-1,0-1ZM36.6,123.03c-.65,0-.65,1,0,1s.65-1,0-1ZM22.1,126.03c-.11-.11-2.89-.11-3,0-.98.98,2.57,4.47,3,4,.13-.15.14-3.86,0-4ZM21.6,131.03c-.65,0-.65,1,0,1s.65-1,0-1ZM13.6,150.03c-.65,0-.65,1,0,1s.65-1,0-1Z"/>
      <path d="M23.1,22.03c.25.25-.25,2.75,0,3,1.74,1.74.67-1.97,2,2.5.13.45,4.28,4.71,5,6,.26.47-.19,1.31,0,1.5.21.21,4.79,1.79,5,2,.17.17-.23.96,0,1.5.58,1.4,2.5,3.65,3,5,1.13,3.06.57,5.92,1,9,.47,3.34,1.39,7.3,2,11,.06.38,1,.66,1,1,0,.25-1.5,1.09-1,1.5.32.26,2.75-.25,3,0,.17.17-.22.96,0,1.5.17.41.86.61,1,1,.68,1.87.29,6.24,2.5,5.5,1.24,1.76,4.02,4.52,3.5,6.5-.1.37-1.5,1.09-1,1.5.22.18,1.03-.26,1.5,0,3.28,1.84,2.04,3.95,2.5,6.5.07.38.95.63,1,1,.23,1.72-.16,3.73,0,5.5-1.38-.08-2.67-2.76-3.5-3-4.43-1.27-3.18-1.43-5.5-4.5-2.68-3.55-4.43-1.54-6-7-.58-2.03-10.37-9.8-11-12-.89-3.09.06-3.05-2.5-4.5-.51-.29-6.33-8.94-6.5-9.5-1.33-4.47-.26-.76-2-2.5-.32-.32.29-3.43,0-4.5-.15-.55-1.84-1.44-2-2-.23-.81-.73-4.23-1-4.5-.19-.19-1.03.26-1.5,0-2.54-1.42-.56-2.14-.5-2.5.46-2.67-1.51-6.6-2-9-1.01-4.91,1.66-3.16,2-3.5.19-.19-.19-1.81,0-2,.21-.21,3.32.52,5-2.5.21-.37-.52-2.31,1.5-1.5.6.24,1.3,1.61,2,2,.47.26,1.31-.19,1.5,0ZM31.6,37.03c-.65,0-.65,1,0,1s.65-1,0-1ZM32.6,41.03c-.65,0-.65,1,0,1s.65-1,0-1ZM26.1,47.03c.13-.15.13-3.85,0-4-1.37-1.64-1.37,5.64,0,4ZM24.1,52.03c.13-.15.13-3.85,0-4-1.37-1.64-1.37,5.64,0,4ZM31.6,51.03c-.65,0-.65,1,0,1s.65-1,0-1ZM32.1,64.03c.1-.12.1-2.88,0-3-1.31-1.57-1.31,4.57,0,3Z"/>
      <path d="M182.1,30.03c.44,2.3,1.46,3.98,1,6.5-.11.59-2,4.71-2,5,0,.5,2.42,1.48,2,3-.89,3.24-.04,2.15,0,3,0,.13-1.84,1.7-1,2.5.2.19,1.76-.2,2,0,.5.41-.93,1.16-1,1.5-.2.94.24,3.26,0,3.5-.21.21-1.78-.21-2.5,0-.5.15-4.34,3.23-6,4-3.23,1.49-5.87,3.26-9,5-1.11.62-10.25,8.79-11,9-4.67,1.28-9.96,4.25-14,7-1.26.86-10.14,8.38-11.5,7s4.98-6.15,2-7.5c2.44-1.9-1.78-3.39,1.5-5.5.42-.27,2.62-.74,3-1,3.82-2.64,13.36-12.66,15.5-16.5.26-.47-.19-1.31,0-1.5s1.81.19,2,0-.27-1.03,0-1.5c1.16-2.05,4.62-1.75,6.5-2.5.56-.22,2.82-2,3-2,.31,0,.56.83,1,1,1.98.79,1.28-.97,1.5-1.5.17-.41.86-.61,1-1,.21-.59-.21-1.41,0-2,1.15-3.17,4.42-3.17,6-6,.26-.47-.19-1.31,0-1.5.36-.36,1.37,1.23,4-2.5.85-1.2,3.41-2.52,3-4-.08-.29-1.84-1.5-.5-1.5.29,0,1.26,2.06,3.5,0ZM169.1,51.03c.64-.76-.33-2.8-1-2-.64.76.33,2.8,1,2ZM176.6,50.03c-.65,0-.65,1,0,1s.65-1,0-1ZM160.6,52.03c-.65,0-.65,1,0,1s.65-1,0-1ZM169.1,60.03c.64-.76-.33-2.8-1-2-.64.76.33,2.8,1,2ZM165.1,63.03c.64-.76-.33-2.8-1-2-.64.76.33,2.8,1,2ZM137.6,78.03c-.65,0-.65,1,0,1s.65-1,0-1Z"/>
      <path d="M151.1,27.03c-.52,1.63,1.36,2.25,1,3.5-.17.59-1.22.65-1,3,.43,4.65,3.21.51,3.5.5.17,0,1.02,1.55,2.5,1,.59-3.88-1.71-.56-2-1-.09-.14-.11-2.89,0-3,.29-.29,2.16-.03,3,.5.6.38,2.2,3.31,2,4-.11.39-.88.6-1,1-.19.62.21,1.43,0,2-.14.39-.83.59-1,1-.22.54.17,1.33,0,1.5-.16.16-4-.2-4,1.5,0,.33.89.59,1,1,.24.88-4.27,8.81-5.5,9.5-2.28,1.28-1.72,2.27-4,4-.22.17-.8-.16-1,0-.84.66-2.49,2.86-3,3-1.54.42-2.22-1.77-3-2-3.77-1.12-1.98,1.61-2.5,3.5-.08.27-3.25,4.36-3.5,4.5-2.99,1.67-.67,1.47-1.5,4.5-.14.51-5.88,6.7-7,7.5.49-1.63-1.82-3.68-2-4.5-.61-2.76,1-5.64,1-6,0-.64-1.06.3,0-3,1.16-3.61.85-7.22,3-11,.54-.94,2.64-2.68,3-4,.54-1.98-.51-3.82,2.5-5.5.47-.26,1.31.19,1.5,0s-.27-1.03,0-1.5c.98-1.72,3.38-1.72,4.5-2.5s3.26-3.78,4-4,2.29.21,2.5,0c.25-.25-.25-2.75,0-3,.32-.32,2.67.89,2-1.5l5-4.5ZM149.6,34.03c-.65,0-.65,1,0,1s.65-1,0-1ZM157.1,39.03c.31-.25-1.11-1.89-1.5-2-3.66-1-5.71,2.22-3,3,1.95.56,2.32-.72,3-1,.54-.22,1.29.17,1.5,0ZM147.6,39.03c-.65,0-.65,1,0,1s.65-1,0-1ZM151.6,41.03c-.65,0-.65,1,0,1s.65-1,0-1ZM150.6,43.03c-.65,0-.65,1,0,1s.65-1,0-1Z"/>
      <path d="M163.1,129.03c.17.17-.22.96,0,1.5.17.42.89.62,1,1,.7,2.37,1.46,8.4,1,11-.06.35-.82.57-1,1-.22.54.17,1.33,0,1.5-.2.2-1.75-.18-2.5,0-.39.09-.6.88-1,1-1.67.48-4.7-3-5-3-.33,0-.59.89-1,1-1.17.32-4.61-2.43-6-3-.54-.22-1.29.17-1.5,0-.39-.32,1.81-2,.5-2-.17,0-1.03,1.6-3,1-5.13-1.56-9.79-2.57-15-4-.55-.15-4.42-3.83-5-4-1.35-.4-1.87,2.1-3.5-.5,1.44-2.41,3.62-1.08,5.5-1.5.35-.08,2.66-1.93,3-2,2.24-.48,5.61.4,8,0,.38-.06.67-1,1-1,.25,0,2.89,2.68,4,3l1-3c2.56-.71,3.15,1.76,4,2,2.05.58,4.63-2,5-2,.34,0,.62.94,1,1,1.23.2,2.78-.21,4,0,.38.07.62.94,1,1,1.12.18,4.24-.26,4.5,0ZM149.1,132.03c.31-.25-1.11-1.89-1.5-2-1.3-.36-1.45.77-2,1-.2.08-2.59.09-1.5,1,.19.16,4.81.16,5,0ZM144.6,133.03c-.65,0-.65,1,0,1s.65-1,0-1ZM152.6,135.03c-.65,0-.65,1,0,1s.65-1,0-1Z"/>
      <path d="M50.1,14.03c.82.65,2.43.95,2,2.5-1.44,5.22.46,3.03,1,5,.3,1.07-.25,2.82,0,4,.07.34,1.93,2.66,2,3,.36,1.65-.19,4.12,0,6,.16,1.54,1.29,1.94,1,3-.13.47-1.07,1.55-2,1-1.45-.86-.89-2.4-1-2.5-.27-.26-2.72.26-3,0-.12-.11-.16-2.99-1.5-3-.81,0-1.88,2.3-1.5,3.5,1.05,3.3.01,2.3,0,3,0,.2,2.32,3.22,2,3.5s-2.74-.61-3.5,1c-3.33-2.02-1.95-3.94-2.5-6.5-.25-1.17-2.56-5.2-3-7-.91-3.68.06-6.7-1-10s0-2.32,0-3c0-.55-3.44-4.82-4-6l4-1c-1.16-2.43-2.79-.24-3-.5s.19-1.81,0-2c-.13-.13-2.55.12-3-1.5-.15-.56-.12-3.38,0-3.5.24-.24,6.04-.36,6.5,1,1.69-.48,4.74-4.38,6-4,1.86.56,1.02,3.56,2.5,4.5l-2,2.5c.86-.42,3,.85,3,1.5,0,.33-1,.67-1,1,0,.38,2,1.62,2,2,0,.23-.97.52-1,1.5-.85-.45-1.65-1.25-2.5-1-.27.08-1.51,1.83-2.5,1-.31-.26,2.61-2.89,0-3,.41,1.9-1.7,2.15-.5,4,.95,1.47,2.33.86,2.5,1,.16.13-1.91,2.89-1,4,.43.53,1.92-1.68,2.5-2,.47-.26,1.31.19,1.5,0s-.23-.97,0-1.5c.2-.44,1.44-1.03,1-1.5ZM43.1,9.03c.64-.76-.33-2.8-1-2-.64.76.33,2.8,1,2ZM43.1,15.03l-2,.5,3,5.5-1-6ZM50.1,24.03l-2-2c-.26,2.11-.11,2.26,2,2ZM49.1,32.03c-.26-1.66.38-4.05,0-5.5-.33-1.26-3.47-2.04-4-1.5-.74.75,1.26,2.49,1,3.5l3,3.5Z"/>
      <path d="M50.1,14.03c-.05-.05-1.04.25-1-1,1.24.66.94.96,1,1Z"/>
      <path d="M185.1,127.03c-.34.33-8.7.22-9.5,0-.55-.15-1.45-1.85-2-2-1.49-.41-3.06-.47-5-1-1.47-.4-2.4,2.82-6,2-1.61-.37-5.97-4.29-7-4-3.69,1.02-8.12-1.24-9-1-3.59.99-9.18-2-13-2-.55,0,.37.85-2,0-.35-.12-4.93.1-2.5-2,.14-.12,2.77-.59,3.5-1,8.59-1.09,21.73-3.65,31-2,1.82.32,3.71,2.34,5,3,4.51,2.31,9.61,3.96,14,6,.32.15.8-.13,1,0,1.24.79,2.2,3.34,1.5,4Z"/>
      <path d="M51.1,140.03c.11.11-.46,1.55,1,2.5,1.08.7,1.93.43,2,.5.21.21-.2,1.76,0,2.5.11.4.9.61,1,1,.21.85-.16,2.06,0,3,.07.38,1,.67,1,1,0,.47-2.81,2.32-3,3-.46,1.67.23,4.92,0,7-.2,1.82-2.27,12.11-2,13,.14.47,1.36.69,1,2-.78,2.83-3.74.29-4.5.5-3.04.84-3.16-.24-4,0-.38.11-1.09,1.5-1.5,1-.17-.21-.15-4.62,0-5.5.06-.38,1-.67,1-1,0-.29-1.62-4.1-2-5-.91-2.18,1.74-1.29,2-1.5.5-.41-1-1.25-1-1.5s1.36-.69,1-2c-.1-.37-1.5-1.09-1-1.5.22-.18,1.03.26,1.5,0,2.5-1.4.65-1.98.5-2.5-.95-3.31,6.42-10.6,4-14,.98-.74,1.22-4.21,3-2.5ZM50.6,151.03c-.65,0-.65,1,0,1s.65-1,0-1ZM47.6,163.03c-.65,0-.65,1,0,1s.65-1,0-1ZM47.1,173.03c.13-.15.13-3.85,0-4-1.37-1.64-1.37,5.64,0,4ZM49.6,169.03c-.65,0-.65,1,0,1s.65-1,0-1Z"/>
      <path d="M165.1,106.03c.13.13,2.55-.12,3,1.5.17.61.16,4.34,0,4.5-.24.25-2.83-.57-3.5,1-5.37-1.77-13.6-1.49-19,0-.35.1-5.5-.91-6-1-3.56-.61-6.42,3.13-10.5,2,1.52-4.33,4.9-2.28,7.5-3,.52-.14,8.14-4.86,8.5-5.5.26-.47-.19-1.31,0-1.5.33-.33,4.25.28,5.5,0,.38-.09.6-.89,1-1,1.31-.36,1.53.86,2,1,2.4.73,2.73-1.29,4-2,.47-.26,1.31.19,1.5,0,.31-.31-.74-4.13,1.5-5,.88,0,.26.97,1,2s3.33,2.88,3.5,3.5c.25.91-.27,3.23,0,3.5Z"/>
      <path d="M56.1,70.03c-.69.73-2.39-.73-3-1.5-.56-.7-1.74-2.35-2-3-.41-1.02-.6-3.97-1-5-.77-1.96-3.62-4.84-3-7,.4-1.39.51-2.79,0-5-.09-.38-.87-.59-1-1-.38-1.21.71-3.53,1.5-3.5.41.01,1.43,1.83,2,2,3.52,1.05,2.26-1.76,2.5-2,.43-.43,2.91,1.31,2-3l3,4.5c-.72,3.02-.58,3.82,0,6,1.35,5.05-.56,9.05,1,14-1.3.47-1.79,4.28-2,4.5Z"/>
      <path d="M128.1,124.03l2.5-2c1.11,1.32,5.25,1.03,4.5,3.5-.69,2.28-4.6,1.22-6.5,1.5-6.39.95-11.84,1.56-18,3-2.48.58-3.78-.98-4-1-.24-.02-2.66,2.63-4.5-.5l7.5-5.5c3.61.23,6.86-.1,10-1,.56-.16,1.45-1.85,2-2,2.27-.63,7,1.24,6.5,4Z"/>
      <path d="M123.1,134.03c.9.82-2.85,4.81-3.5,5-.69.2-3.5.08-3.5,1.5,0,.33,1,.67,1,1,0,.11-1.39,1.5-1.5,1.5-.33,0-.62-.94-1-1-4.16-.69-9.5,1.94-11.5-3l4.5,1c1.26.19,2.82-.23,4,0,.34.07.56.78,1,1,1.7.86,1.95-1.62,1.5-2-.43-.36-5.04.26-6.5,0-.37-.07-.59-.87-1-1-.59-.19-1.37.18-2,0-1.52-.44-3.75-4.77-2-5,1.2-.16,2.13.41,3-1,2.55.25,5.55-.36,8,0,.56.08,4.36,1.88,5,2,1.13.21,4.19-.28,4.5,0Z"/>
      <path d="M120.1,88.03c-.19.19-1.03-.27-1.5,0-.5.29-5.15,6.66-5.5,7.5-.5,1.19.22,3.11-2.5.5-1.19.74,1.41,1.51,0,2-.6.21-1.4-.12-2,1l-4.5-.5,4-5c2.9-4.46,5.31-8.91,8-14,.59-1.12,1.53-1.6,1-3.5,2.38.46,1.63,2.28,2,3.5.18.57,1.85,1.45,2,2,.36,1.32-.91,1.6-1,2-.25,1.1.29,4.21,0,4.5Z"/>
      <path d="M140.1,101.03c-.08,1.38-2.76,2.67-3,3.5-.18.62.18,1.38,0,2-.58,2.03-3.32,1.18-4.5,1.5-2.16.59-8.8,7.31-12,8l-7.5-.5,5.5-4.5c2.78-1.99,15.01-8.97,18-9,.26,0,1.01,1.45,1.5,1,.32-.29-.91-2.92,2-2Z"/>
      <path d="M100.1,129.03c.52.52-.83,2.37-1,3.5-.28,1.86-.88,4.07-1,5-.48,3.62,1.77,6.73-3.5,5.5-.85-.2-2.86-2.49-4.5-2-.73-3.37.63-3.58,2-5.5.13-.18.26-2.16,1.5-2.5,3.42-.94,6.47,2.05,2.5-3,1.16.48,3.29-1.7,4-1ZM94.6,136.03c-.65,0-.65,1,0,1s.65-1,0-1Z"/>
      <path d="M8.1,4.03c-.53,1.95,1.28,2.34,2,3.5.16.25-.15.78,0,1,.43.63,2,1.71,2,2,0,.31-.82.56-1,1-.88,2.21,1.81,1.31,2,1.5.24.24-.19,2.55,0,3.5.08.38.91.61,1,1,.7,2.99-1.81,4.68-2,7.5-4.21.59-1-3.25-1-3.5,0-.33-.89-.59-1-1-.17-.63.17-1.39,0-2-.29-1.01-3.46-2.31-3-4,.57-2.06-.1-3.06,0-6,.32-2.47-3-4.98,1-4.5Z"/>
      <path d="M155.1,98.03c.6,1.27-2.15,4-2.5,4s-.67-1-1-1c-.22,0-1.36,1.43-4,1-.37-.06-.6-.9-1-1-.17-.04-2.51,2.45-3.5-.5-.35-1.04,1.25-3.41,2.5-1.5,3.45.64,6.12-1.24,9.5-1Z"/>
      <path d="M161.1,30.03c-.25.21-5.79.19-6.5,0-.83-.22-2.06-2.49-1.5-3,.4-.37,4.55.37,5,0,.27-.23-.9-2.64,1.5-2l1.5,5Z"/>
      <path d="M182.1,27.03c-.09.1-1.99-.28-2.5,1-.77,1.59-2.28.29-2.5-.5-.41-1.5,1.88-2.49,2.5-3.5.82-1.34.35-2.84.5-3,.63-.68,3.45.87,3,2.5-.11.4-.89.6-1,1-.2.73.21,2.28,0,2.5Z"/>
      <path d="M68.1,141.03c-1.02,1.02-4.02-1.98-3-3s4.02,1.98,3,3Z"/>
      <path d="M101.1,175.03c1.09,1.09-.91,3.09-2,2s.91-3.09,2-2Z"/>
      <path d="M68.6,142.03c.65,0,.65,1,0,1s-.65-1,0-1Z"/>
    </g>
  </g>
</svg>