<?xml version="1.0" encoding="UTF-8"?>
<svg id="Layer_2" data-name="Layer 2" xmlns="http://www.w3.org/2000/svg" viewBox="0 0 180.3 178.48">
  <g id="Elements">
    <g id="Element">
      <path d="M.25,145.03c.86-.87,3.74,1.23,5,1-.03-2.05-2.88-1.87-3-2-.76-.83,1.29-2.44,1-3.5-.83-2.97.6-1.6,1-3,.27-.95-1.56-6.65-1-10,.2-1.21.58-2.56,1-4,.38-1.29-1.48-2.08-1-2.5.77-.67,3.32,1.7,4,1,.36-.37-.26-6.09,0-7.5-.57-.72-3.24-5.3-3-5.5.2-.17.96.22,1.5,0,1.86-.77,3.31-3.12,5.5-3-.11-2.61-2.74.31-3,0-.4-.47.85-3.34-1-4.5-1.34-.84-2.81-.34-3-.5-.33-.29,1.57-1.77,1-3,4.06.96-.32-2.68,1-4,.07-.07,2.13-.38,2,.5l1,2.5.5-2c1.59,2.26,2.68-.48,5,0,.57-1.73,3.36-1.85,3.5-2,2.44-2.66-3.8-1.8-4-2-.38-.38,1.08-2.39-1.5-2-1.46.22,1.18,1.37,0,2-1.19-.93-1.94-1.93-1.5-3.5.23-.83,2.69-1.57,2-3.5l-4,2c-1.14-2.17,2-4.17,2-4.5,0-.39-1.84-1.44-2-2-.3-1.03,1.76-2.72,1-3.5-.82-.84-2.37,1-2.5,1-.37-.01-2.5-3.28-2.5-3.5-.02-1.31,2.89-1.38,3-1.5.51-.55-1.82-4.03-1-5.5,1.15-2.55,3.3.21,4-.5.09-.09.14-2.03,0-2.5-.48-1.63-8.95-6.56-3-6.5l1-4c-1.89-.39-.32,1.87-1.5,2-1.27.14-3.16-.26-3.5-1.5s1.51-1.86,1-3.5c1.76-.54.57,2.62,1.5,2,1.84-1.22,1.38-2.89,1.5-3,.21-.19,1.81.19,2,0,.18-.18-.23-.96,0-1.5.18-.42.9-.63,1-1,.24-.88-1.58-2.52-1-5,1.6-6.87.18-13.4,2-20,.36-1.32-.91-1.59-1-2-1-4.33,4.24-4.84,3-9.5,1.68-.25.92,1.35,1,2.5.11,1.6-.52,4.9,1.5,5.5.68.2,2.2.34,2.5-.5.54-1.5,1.3-2.81,1-4.5,2.23,2.14,3.24-.36,4.5,0,.38.11,1.09,1.5,1.5,1,.27-.32-.26-2.73,0-3,.77-.82,2.37.97,2.5,1,2.58.6,6.22-.22,7,0,2.69.77,7.07-.57,11,0,.98.14,7.39,1.18,8,1,.48-.14,1.01-1.57,3-1s.82,6.09,5,5c2.56-1.54-.12-2.54.5-4.5.26-.81.7-2.2,1-3,.24-.63,1.72-2.33,2-3,.23-.54-.17-1.33,0-1.5s.96.22,1.5,0c1.14-.48,1.69-1.54,4-1,2.44.57,5.98,1.83,9,1,.55-.15,1.45-1.85,2-2,1.13-.31,6.18-1.19,7-1,.39.09.62.92,1,1,4.88,1,3.06-1.47,3.5-2,.39-.48,1.21,1.36,2.5,1,4.87-1.35,4.97,1.01,6,1,.38,0,1.62-2,2-2,.29,0,1.43,2.32,3,0,1.68.66,2.86-1.31,4-1,1.25.33,2.05,3.43,1.5,4-.16.17-3.77-.56-4,2,1.43.16,3.16-.25,4.5,0,.35.06.57.82,1,1,2.33.98,1.19-1.99,1.5-3.5.07-.36.82-.57,1-1,.21-.51-.44-2.31,1.5-1.5.43.18.65.94,1,1,3.93.69,6.51-.24,11,1,1.32.36,1.6-.91,2-1,2.88-.65,6.98-.2,8.5,2.5.26.47-.18,1.28,0,1.5.41.5,1.16-.93,1.5-1,1.03-.21,4.74-1.07,5-1,.4.11.62.91,1,1,1.17.26,2.92-.3,4,0,.55.15,1.45,1.85,2,2,.85.23,2.15-.23,3,0,.73.2,3.32,6.25,5.5,4,.23-.23.15-5.48,0-6.5-.03-.18-2.04-2.43-1-3.5.1-.1,1.98.28,2.5-1,.51,1.28,2.41.9,2.5,1,.19.2-.19,1.81,0,2s2.88-.71,2,1.5c-.25.63-1.84,1.45-2,2-.71,2.47,2,3.59,2,4,0,.15-1.84,1.66-1,2.5.16.16,3.41-.49,4,1.5.55,1.88-1.29,2.75-1,4.5,1.99.03-.19-3.19,3.5-2,.19.06,2.45,2.33,2.5,2.5.21.77.21,6.23,0,7-.15.55-1.85,1.45-2,2-.25.92.66.7,0,3-.29,1.02,2.81,6.12,2,11-.5,3.04,1.29,3.96,1,5-1.65,5.98-1.79,9.49,0,16,.09.32-.29,1.23,0,3,1.06,6.35-1.35,13.72-1,19,.01.18-2.06,2.23-1,3.5.13.15,3.27-2.33,4,.5.36,1.4-1.37,2.08-2,3-.16.22.16.77,0,1-.69,1-2.38,1.61-2,3,.35,1.27,2.76,1.4,2,6-.77,4.63,1.03,12.55,0,17-.55,2.37,1.55,8.65,1,11-1.68,7.18,0,15.03-1,23-.42,3.33.55,4.8,1,7,.57,2.76.33,4.15-2.5,3.5-.75,1.6-3.23.74-3.5,1-.58.55.82,2.94,1.5,3,.19.02.93-2.05,2.5.5.29,1.92,1.69,1.94-.5,3.5l-5,1c-.63.48-2.58,1.88-3,2-2.06.6-6.25-3.25-7.5-2-.27.27,1.08,2.99-2.5,2-2.74-.76-4.29-.61-7,0-6.04,1.35-11.45-.63-18,1-4.47,1.11-8.93.67-13,2-4.51,1.48-7.3-2.23-13-1-2.66.57-1.02,1.89-5,1-4.66-1.04-28.22-.79-33,0-1.77.29-2.68-.09-3,0-3.63,1-1.91.19-5-1-3.6-1.38-8.38.66-12,0-4.06-.74-7.38-1.6-11-1-5.33.89-12.13-3.6-17-5-.56-.16-1.45-1.85-2-2-2.19-.6-4.75-.11-8-1-1.31-.36-1.75,1-2,1-.32,0-4.41-4.19-4.5-4.5-.21-.72.21-2.29,0-2.5-.17-.17-.96.22-1.5,0-.42-.18-.62-.89-1-1-.66-.19-2.5.13-2.5,0,0-2.36-.56-15.43,0-16ZM108.75,2.03c-.65,0-.65,1,0,1s.65-1,0-1ZM127.75,5.03c-.65,0-.65,1,0,1s.65-1,0-1ZM132.75,5.03c-.65,0-.65,1,0,1s.65-1,0-1ZM106.25,11.03c-.68,8.06,5.23,5.35,10.5,6,.78.1,5.22,1.9,6,2,1.78.22,7.91.54,8.5-1.5.77-2.66-1.09-2.86-2.5-3.5-.43-.2-.65-.92-1-1-2.96-.66-8.27.75-11,0-.33-.09-2.9-2.76-4-3-2.46-.53-4.24.61-6.5,1ZM161.75,13.03c-.65,0-.65,1,0,1s.65-1,0-1ZM25.25,15.03c-.12-.1-2.88-.1-3,0-1.57,1.31,4.57,1.31,3,0ZM170.25,16.03c-1.86-.48-2.89.71-4.5,1-2.05.37-3.97-.26-6,1l-5.5,3c1.88-.37,4.24,2.35,5.5,2,.41-.11.67-1,1-1s.58.88,1,1c1.76.51,3.62-.7,3.5-2.5l5-4.5ZM37.25,18.03c-.5,4.27,9,6.97,10,3.5.77-2.66-1.09-2.86-2.5-3.5-.43-.2-.64-.92-1-1-2.43-.54-4.28.63-6.5,1ZM15.75,20.03c-.65,0-.65,1,0,1s.65-1,0-1ZM90.25,22.03c-.27-.27-6.74-.2-7.5,0-.82.22-2.06,2.47-1.5,3,.22.21,4.03.7,4.5,2,.74-1.74,4.13-.63,4.5-1,.14-.14.14-3.86,0-4ZM134.25,24.03c.64-.76-.33-2.8-1-2-.64.76.33,2.8,1,2ZM72.25,23.03c-.12-.1-2.88-.1-3,0-1.57,1.31,4.57,1.31,3,0ZM76.25,23.03c-.76-.64-2.8.33-2,1,.76.64,2.8-.33,2-1ZM78.75,24.03c-.65,0-.65,1,0,1s.65-1,0-1ZM16.25,31.03c.64-.76-.33-2.8-1-2-.64.76.33,2.8,1,2ZM92.25,36.03c-.19-.19.29-4.81-2.5-4-1.64.48-1.38,2.89-1.5,3-.2.19-1.03-.26-1.5,0-1.38.77-4.03,4.72-5,5-1.18.34-4.65-2.85-5.5-2s1.01,2.37,1,2.5c-.03.63-3.45,2.36-3,4,.21.75,4.23,3.16,3,4.5-.25.27-1.72-1.52-3.5-1-.91,1.79-4.05.61-4.5,1-.33.29,1.57,1.77,1,3,2.94-.89,1.66,1.66,2,2,.25.25,2.57-.22,3.5,0,.41.1.68,1.36,2,1,1.08-.3,2.2-4.1,4.5-.5.13.2-.15.69,0,1,.2.43.9.64,1,1,1.1,3.99-2.46,1.99-3,2.5.55,1.49-1.01,2.33-1,2.5.03.87,4.54,2.41,5,4s-4.74,5.76.5,6.5c3.93.55,3.93-1.7,5-2,1.67-.46,4.36,2.83,5,3,.83.23,2.08-.19,3,0,.38.08.6.89,1,1,1.1.3,4.23-2.32,4.5-2s-.25,2.75,0,3c.17.17.96-.23,1.5,0,1.59.67,5.64,3.9,6,4,1.51.42,3.21-.76,4.5,1.5.27.47-.19,1.3,0,1.5.29.32,2.91-1.81,3.5-2,.7-.23,2.28.22,2.5,0,.33-.33-.28-4.25,0-5.5.7-3.14.03-1.94,0-4-.02-1.24,1.65-2.75,1-3.5-2.1-2.43-1.88,2.16-2,2.5-.08.23-3.26,3.43-3.5,3.5-2.54.73-3.13-1.75-4-2-.8-.23-3.65,1.87-5.5,1-.98-2.86,1.8-1.74,2-2,.17-.22-.22-.97,0-1.5.35-.83,1.69-.63.5-2.5-.94-1.47-2.32-.85-2.5-1-.36-.3,2.3-3,2.5-3,.39,0,1.45,1.85,2,2,.61.17,4.34.16,4.5,0,1.23-1.2-3.15-6.59-2-8,.35-.43,5.15,4,5.5,4,.33,0,.59-.89,1-1,1.32-.36,1.6.91,2,1,1.25.28,5.17-.33,5.5,0,.21.21-.21,1.78,0,2.5.17.58,2,1.72,2.5,2.5,1.16-.2.17-2.62.5-3,.41-.48,1.21,1.37,2.5,1,.56-.16,1.61-2,2-2,.34,0,1.34,1.63,2,2,.47.26,1.31-.19,1.5,0,.17.17-.22.96,0,1.5.17.41.86.61,1,1,.61,1.7.64,4.25,1,6,.07.34,1.5,1.09,1,1.5-.24.2-1.8-.19-2,0-.82.77.94,2.31,1,2.5.58,1.98-.83,2.46-1,3-.19.59.18,1.37,0,2-.21.74-3.71,2.72-4.5,2.5-.5-.13-.87-1.54-2.5-1,1.78-4.21-2.63-6.19-3-7.5-.22-.79.24-4.53-1.5-4.5-.52,0-1.76,2.78-3.5,2,.29,1.75-1.55,2.62-1,4.5.91,3.1,5.75,2.25,6,2.5.19.19-.26,1.03,0,1.5.33.58,6.06,6.37,6.5,6.5,1.18.36,1.76-.83,2.5-1.5l1-4.5c1.7.91,5.44,1.54,6,3.5.73,2.54-1.77,3.15-2,4-.5,1.81.98,4.09-1.5,5.5-.47.27-1.31-.19-1.5,0-.28.28-1.11,6.88-1,7.5.07.38,1,.67,1,1s-.94.62-1,1c-.15.89-.19,5.31,0,5.5s4.13.15,5,1.5c.34.48,2.33-.4,2.5-.5,3.85-2.37,1.92-5.17,2.5-8.5.05-.3,1.57-1.02,1-3-.89-3.09-3.67.92-4,.5s.26-3.36,0-4.5c-.09-.38-.89-.6-1-1-.4-1.44,4.06-5.41,5-4.5l2.5,5c2.4-1.44,2.01-7.4,0-8-1.48-.44-3.47,1-2.5-2.5.87-3.14-.25-3.04,0-4,.12-.48,1.55-.87,1-2.5-1.82.75-3.47-1.29-4.5-1-.41.12-.94,1.14-1.5,1.5-1.54.97-3.02-.52-3-1,0-.18,1.66-2.38,2-3,.14-.25-.14-.74,0-1,.9-1.65,4.16-3.14.5-5.5-3.38-2.19-7.21-2.86-7.5-8l-7-1,4-4c-2.08-.66-3.71,1.56-5.5,1-.51-.16-1.05-1.59-3-1-.51.15-.91,1.56-2,1-.89-1.77-7.12-4.22-7.5-5.5-1.12-3.73,1.79-1.62,3.5-3.5,2.39,1.99.29,3.43,4,3,.94-.11.16-1.93,1.5-2.5l-2.5-2.5c-1.1-.53-1.43.76-2,1-1.98.83-1.3-1.15-1.5-1.5-.38-.69-1.85-1.49-2-2-.36-1.25,1.52-1.87,1-3.5l-5.5,5c-1.56-.56-1.38-2.89-1.5-3-.18-.17-.94.2-1.5,0-.43-.15-.68-1-1-1-.33,0-.67,1-1,1-.27,0-4.24-.79-5-1-.33-.09-2.9-2.76-4-3-1.54-.33-7.11.39-7.5,0ZM163.75,36.03c-.65,0-.65,1,0,1s.65-1,0-1ZM172.25,36.03c-2.11-.26-2.26-.11-2,2l2-2ZM107.25,138.03c.85-1.91-1-3.3-1-3.5,0-.33.93-.61,1-1,.19-1.06-.12-2.37,0-3.5l-4-1c1.05-2.54-1.76-3.64-2-4.5-.29-1.07.32-4.18,0-4.5-.26-.26-3.38.19-4.5,0-.37-.06-.6-.89-1-1-.74-.2-2.29.21-2.5,0-.55-.55,1.12-5.93-1.5-7-5.84,1.74-2.72,1.01-1.5,3.5,1.01,2.06-1.89,1.39-2,1.5-.52.51,2.53,2.51,2,3-1.2,1.1-2.96-1.85-3.5-2-1.33-.36-1.6,1.31-3,1-1.81.67.71,4.63,2,5,.66.19,1.5-.23,2,0,1.06.49,2.91,2.3,4,2,.37-.1.58-.82,1-1,1.01-.42,1.9.91,1.5-2,1.83,1.38,4.48,2.49,6,4.5.42.55,2.93,3.75,3,4,.21.72-.21,2.29,0,2.5.32.32,2.99-1.09,2,2.5-.1.37-.82.58-1,1-.22.54.17,1.33,0,1.5-.19.19-1.81-.19-2,0-.16.16.48,3.42-1.5,4-3.49,1.03-2.05-1.11-2.5-2.5-.72-2.23-4.75-1.25-5-1.5-.19-.19.26-1.03,0-1.5-.24-.43-3.26-3.43-3.5-3.5-2.4-.66-4.09,1.25-5,1-2.43-.67-.5-2.32-.5-2.5,0-.33-.89-.59-1-1-.25-.94.19-3.02-1.5-3.5-.63-.18-1.41.19-2,0-.41-.13-.61-.89-1-1-.74-.2-2.29.21-2.5,0-.25-.25.25-2.75,0-3-.14-.14-2.75-.55-3.5-1-.4-.24-2.44-2.31-2.5-2.5-.7-2.33,2.84-2.34,3-2.5.24-.24-.44-5.04,2.5-6,1.64.79-1.33,3.18-.5,4,.12.12,2.84.14,3.5,0,.38-.08.61-.91,1-1,.89-.21,2.16.23,3,0,.46-.13,2.38-3.07,2.5-3.5.22-.78-1.76-4.29-2.5-4.5-5.33-1.53-3.3-2.8-4.5-4-.36-.36-3.99.97-3-1.5.91-2.28.18-.91,0-2-.16-.97-.23-6.27,0-6.5.33-.33,2.97,1.11,2-2.5-.12-.43-1.92-2.62-2-3-.77-3.54.05-7.73,4.5-6.5.73.2,1.5,2.45,3,2,1.83-.55,1.78-4.83,1.5-6.5-.06-.38-1-.67-1-1,0-.18,1.94-1.8-.5-2.5-.88-.25-3.51,1.98-4.5,1-.7-.7,1.46-2.79,1-4-1.62-.3-.82,2.54-2.5,3-.91.25-3.23-.27-3.5,0-.16.16.48,3.42-1.5,4-1.09.32-2.34.04-3-1-.95-1.51.29-3.22-1.5-3,.27,1.31-.16,3.63-1.5,4s-2.08-1.47-2.5-1c-.8.91,1.88,3.95,2,4.5.16.73.18,3.34,0,4-.43,1.58-3.64,1.42-5,2.5-.98-2.86,1.8-1.74,2-2,1.45-1.9-3.15-3.15-4-4.5-.13-.2.15-.68,0-1-.2-.43-.92-.64-1-1-1.07-4.56.66-2.96,2.5-3.5.54-.16,1.98-2.55,2.5-2,.13.13-.59,2.98,1.5,2,3-1.41.49-3.31.5-3.5s2.31-3.24,2-3.5c-1.08-.91-4,1.5-5.5,1l-1,2c-4.26-4.16,1.08-2.58,1.5-3,.17-.17-.22-.96,0-1.5.18-.42.89-.62,1-1,.32-1.1-.73-3.38,1.5-2.5.44.17.68.99,1,1,.17,0,1.02-1.55,2.5-1-.55-1.48,1.01-2.33,1-2.5-.01-.26-3.5-2.98-2-4.5.22-.23,2.05.55,2-.5-2.6-1.54-1.56-3.09-2-5-.09-.39-.93-.62-1-1-.38-2.11.32-5.9,2.5-6.5s4.86,1.42,3.5-3.5c-.67-2.43-2.32-.5-2.5-.5-.33,0-.59-.89-1-1-1.32-.36-1.56.88-2,1-.73.2-2.29-.21-2.5,0-.17.17.22.96,0,1.5-.18.43-.94.65-1,1-.28,1.58.37,7.08,0,7.5-1.02,1.15-3.03-1.86-3.5-2-3.18-.92-2.15.89-2.5,1.5-1.17,2.06-4.45,1.15-5,3-.28.94.52,2.15-1,3-1.08,2.3,3.28,1.99,4,0,.12-.34-.08-4.96,2-2.5.37.43-.67,2.86.5,3s4.27-.23,4.5,0c.11.11.11,2.89,0,3-.19.19-1.81-.19-2,0s.26,1.03,0,1.5c-.2.37-2.33,2.45-2.5,2.5-.91.25-2.83-1.95-3.5.5-.36,1.31,1,1.75,1,2,0,.32-1.73,3.37-1,6,.15.55,1.99,1.6,2,2,0,.47-2.73,1.71-2,3.5l-3-3.5c-.05-4.23-2.22-4.26-3.5-.5-.79,2.31-.16,6.28-2.5,2.5-.13-.21.14-.69,0-1-.21-.44-1-.7-1-1,0-.33.93-.62,1-1,.23-1.35-.42-3.97,1.5-4.5,1.47-.41,4.31.75,5.5-.5-1.69-1.58-1.63-6.98-3.5-7.5-.87-.24-4.94-.19-6,0-.35.06-.57.82-1,1-.54.22-1.33-.17-1.5,0-.25.25.56,2.85-1,3.5-.05,1.05,1.77.27,2,.5.93.93-1.13,3.84-1,4,.26.3,2.94-.89,2,2l-3-.5c-.41,2.36.76,1.1,1.5,1.5,4.32,2.34-.73,1.65-2,2-.51.14-1.31,1.63-2,2-1.26.68-3.91,1.3-5,2-2.21,1.43-1.14,2.72-1.5,4.5-.09.46-2.37,1.52,0,3,3.04,1.9,2.64-.13,4-2,.2-1.11-.27-4.23,0-4.5.11-.11,2.89-.11,3,0,.17.17-.22.96,0,1.5.17.42.88.62,1,1,.6,1.97-1,2.83-1,3s2.32,2.5,2.5,2.5,2.45-1.78,3-2,1.42.23,2,0,2.81-2,3-2c.33,0,.66,1,1,1,.25,0,1.09-1.5,1.5-1,.13.15-.26,5.67,2,3,.74-.88-1.13-2-.5-3,.36-.56,1.38-1.09,1.5-1.5.21-.72-.21-2.29,0-2.5.19-.19,1.79.19,2,0,.28-.26-.79-2.4,1-2,.07,2.26-.67,4.77,1.5,6,.47.27,1.31-.19,1.5,0,.24.24-.16,3.04,0,4l-5,1.5c1.6,1.27,7.03,8.38,9,6.5.1-.1-.28-1.98,1-2.5-.85-3.41,1.56-2.32,3.5-3.5,2.95-1.8,2.66-4.33,2.5-7.5,1.27-.57.48-3.39,2.5-2.5,1.85.81,1.88,5.63,1.5,6-.19.19-1.03-.26-1.5,0-3.07,1.71.22,2.48.5,3.5,1.1,4.01-.94,6.32-5,5.5,1.1,1.23,3.12,4.84,2,6-.24.25-2.83-.57-3.5,1-1.16-2.1-3.61-.1-4.5,1.5-.26.47.19,1.31,0,1.5-.25.25-2.75-.25-3,0-.21.21.2,1.76,0,2.5-.15.55-1.73,1.6-1,3.5,1.2-.45,3.32,1.7,4,1,.27-.28-.25-2.59,0-3.5.36-1.32,4.8-3.22,4-5.5,1.04-.12,2.06,1.99,2.5,2,1.46.02.53-4.04,4-3,.24.07,3.5,3.25,3.5,3.5,0,.33-.94.62-1,1-.25,1.51.35,3.69,0,5-.22.81-2.44,2.06-3,1.5-.12-.12-.2-3.02-1.5-3-.26,0-1.09,1.5-1.5,1-.73-.89,2.56-3.41-.5-5-2.39,1.49-1.13,3.56-1.5,5.5-.07.38-.92.62-1,1-.21,1.03.13,2.38,0,3.5-1.64-.54-1.98.85-2.5,1-1.83.54-3.06-3.84-6-3-1.83.53-3.5-.13-6-1-.27-.09-1.68-1.82-2.5-1-.11.11.29,1.98-1,2.5,1.03,1.88,2.34,1.15,3.5,1.5,1.02.31,2.34,3.49,4,3,1.09,1.21,4.65,5.83,3.5,7l-5,1c.16,1.09-.25,2.58,0,3.5.07.24,3.25,3.5,3.5,3.5.32,0,2.61-2.64,4.5.5l-2,1c2.27.8,1.83,4.32,2,4.5.31.33,1.75-1.57,3-1-.41-2.13,1.8-2.96,3-4.5,1.11-1.42.91-2.4,1-2.5,1.61-1.66,2.83,2.26,3,2.5.51.72,1.63,1.34,2,2,.69,1.23-.95,2,3.5,1.5.57-1.09,4.81-3.69,5.5-3,.53.53-.84,2.36-1,3.5-.23,1.69-.21,5.01,1.5,5.5.66.19,1.49-.23,2,0,2.45,1.1,2.78,2.08,6,3,.58.17,2.36,3.14,3.5,2,.13-.13-.12-2.55,1.5-3,3.89-1.07,4.63,2.61,6,3,2,.57,2.55-.88,3-1,.74-.2,2.29.21,2.5,0,.18-.18.18-4.82,0-5-.19-.19-2.88.71-2-1.5.38-.96,1.95-1.39,2-1.5-1.09,1.09.91,3.09,2,2s-.91-3.09-2-2ZM166.25,39.03c-1.09-1.09-3.09.91-2,2s3.09-.91,2-2ZM33.75,42.03c-.65,0-.65,1,0,1s.65-1,0-1ZM170.75,46.03c-.65,0-.65,1,0,1s.65-1,0-1ZM18.75,48.03c-.65,0-.65,1,0,1s.65-1,0-1ZM141.25,50.03c.64-.76-.33-2.8-1-2-.64.76.33,2.8,1,2ZM133.25,51.03c-.15-.15-3.45-.27-3,.5,1.76,3.01,4.42.92,3-.5ZM136.75,54.03c-.65,0-.65,1,0,1s.65-1,0-1ZM54.25,60.03c1.03-1.03-.32-3.39-2-.5-.42.73,1.82.68,2,.5ZM22.25,59.03c-2.11-.26-2.26-.11-2,2l2-2ZM77.25,59.03c-4.68-1.14-2.39,2.39-3,3-.57.57-7.43-1.67-2.5,4l4-4,2.5,3-1-6ZM16.25,61.03l-4,3.5c1.37,1.11,1.07.93,0,2-1.49,1.49-.99,2.65-1,4.5,3.61-1.18.98-3.3,1-3.5.05-.45,4.84-4.24,4-6.5ZM22.25,62.03c-.76-.64-2.8.33-2,1,.76.64,2.8-.33,2-1ZM17.75,66.03c-.65,0-.65,1,0,1s.65-1,0-1ZM136.25,66.03c-1.07.21-3.87-.57-4,.5s.09,2.36,0,3.5c1.71.26.45-1.44,2-2.5,1.18-.81,2.27.06,2-1.5ZM71.25,68.03c-1.09-1.09-3.09.91-2,2s3.09-.91,2-2ZM127.25,68.03c-1.03-1.03-3.39.32-.5,2,.73.42.68-1.82.5-2ZM80.75,69.03c-.65,0-.65,1,0,1s.65-1,0-1ZM138.25,75.03l-.5-6c-.52,1.32-2.52.59-2.5,1.5.03,1.73,1.75,1.81,0,3,.66,1.05.84-.07,1.5-.5.94-.61-.26,2.53,1.5,2ZM149.25,73.03c.64-.76-.33-2.8-1-2-.64.76.33,2.8,1,2ZM95.25,78.03c-.21-.21.21-1.78,0-2.5s-3.85-2.68-4-2.5c-.51.62-.15,5.52,1.5,6,1.42.41,3.96-1.2,3.5,1.5-1.03,1.88-2.34,1.15-3.5,1.5-.79.24-1.46,2.42-3,2-.73-.2-3.19-4.24-4.5-3-.22.21,1.72,2.29,1,3.5,5.33,3.22,1.15,5.87,2,9,.13.48,3.14,2.42,2,3.5-.13.12-1.97-.3-2.5,1-2.57-1.93-.57.1-.5.5.47,2.82-.77,3.86-1,5-.18.9.16,2.06,0,3-.03.17-1.91,1.79.5,2.5,1.88.55,3.12-1.55,5-1,.78.23,1.46,2.42,3,2,.19-.05,1.68-1.82,2.5-1,.42.42-1.04,4.84,1.5,6,2.22,1.01,1.12-2.45,2-2,.76.39,2.37,3.1,3.5,2,.07-.07-.2-.92.5-2,2.8-4.31,2.3,1.8,2.5,2,.19.19,1.81-.19,2,0,.26.26-.19,3.38,0,4.5.06.38,1,.67,1,1,0,.17-1.58,1-1,3,.24.85,3.09,2.49,4,5,.32.9,2.89.61,3,.5.54-.53-.59-3.6-1-4.5-.27-.6-2-2.82-2-3,0-.33.89-.59,1-1,.17-.65-.21-1.45,0-2,.24-.64,1.72-2.33,2-3,.23-.54-.17-1.33,0-1.5.19-.19,1.81.19,2,0,.53-.53-1.75-5-2.5-5-.33,0-.67,1-1,1-.39,0-1.44-1.84-2-2-1.11-.32-2.83-1-3-1-.33,0-.67,1-1,1-.31,0-.56-.82-1-1-2.02-.81-1.29,1.13-1.5,1.5-.22.39-2.32,2.5-2.5,2.5-.78,0-4.02-6.48-3.5-7,.19-.19,1.03.27,1.5,0,2.26-1.29,1.09-2.98,1.5-4.5.34-1.23,2.73-3.1,2-5-1.97-2.56-3.33-5.42-5-8v-3.5c3.34-.89,1.54,2.6,2,3,.11.1,2.89.11,3,0,.18-.18.63-3.85,2-4.5-1.28-.51-.9-2.41-1-2.5-.13-.12-2.8-.12-3.5,0-.39.07-.67,1-1,1-.38,0-3.13-3.4-4-4-1.05-.05-.27,1.78-.5,2-.07.07-1.93.07-2,0ZM132.75,73.03c-.65,0-.65,1,0,1s.65-1,0-1ZM16.75,74.03c-.65,0-.65,1,0,1s.65-1,0-1ZM123.25,87.03c.61.61,4-.49,4-1.5,0-.45-3.18-3.32-4-2.5-.14.14-.14,3.86,0,4ZM32.25,87.03c-.11-.11-2.89-.1-3,0-.27.23,1.52,1.73,1,3.5-.17.56-1.85,1.45-2,2-.36,1.32.9,1.59,1,2,.45,1.91-.99,5.5,3,3,1.53-.96.72-1.96,1-3,.11-.41,1-.67,1-1,0-.39-1.85-1.45-2-2-.29-1.07.32-4.18,0-4.5ZM83.25,89.03c.52-.42-2-2.81-3-2-.52.42,2,2.81,3,2ZM120.25,96.03c-.27-.27.25-2.59,0-3.5-.09-.33-2.98-3.58-3.5-4.5-1.07,1.38-4.15,1.27-6,1-.18-.03-2.45-2.05-3.5-1-.71.71.27,2.55,1,3.5.61.79,3,3.35,3,4,0,.49-2.79,3.12-2,6,.34,1.23,3.96,1.97,4,3,0,.13-1.84,1.7-1,2.5.11.1,2.89.11,3,0,.23-.23-.17-2.55,0-3.5.27-1.52,1.23-1.98,1-3.5,1.83-.28.7,1.52,1,2.5.09.3,4.2,4.41,4.5,4.5,3.14.93,4.71-3.34,5.5-5.5.15-.42.91-.63,1-1,1.35-5.82-2.14-2.49-2.5-2.5-.34-.01-.59-.89-1-1-.64-.17-1.43.2-2,0-.39-.13-.59-.83-1-1-.54-.22-1.33.17-1.5,0ZM134.25,90.03c-.19-.19-1.03.26-1.5,0-.58-.32-2.07-2.53-2.5-2-.31.39-.06,3.08.5,4,1.86,3.04.5,1.33.5,2.5,0,.33,1,.67,1,1,0,.39-1.85,1.45-2,2-.36,1.31,1,1.75,1,2,0,.37-2,1.62-2,2,0,.3,2.26,3.55,3,4,2.06,1.26,5.45-.1,6-2,.38-1.32-1.37-1.66-1-3,.23-.85,3.04-1.94,2-4.5-2.05.03-1.86,2.88-2,3-.77.67-.53-1.13-2,1.5-.49.87-2.41,2.12-3,1.5-.82-.86,1.88-3.98,2-4.5.2-.89.27-7.23,0-7.5ZM141.75,88.03c-.65,0-.65,1,0,1s.65-1,0-1ZM43.25,95.03c.26-.22-3.39-3.79-2-6-1.79-.4-.72,1.73-1,2-.72.68-3.32-1.69-4-1-.29.3.24,3.39,0,4.5-.08.38-.88.59-1,1-.29.96,1.19,2.5,1.5,2.5.4,0,2.08-2.98,4-2,.55-1.31,2.33-.85,2.5-1ZM48.25,90.03c-1.4-.32-4.89-1.71-5,.5,0,.18,1.78,1.76,1,3.5l7,.5c-2.06-2.23-3.77-.63-3-4.5ZM21.75,92.03c-.65,0-.65,1,0,1s.65-1,0-1ZM22.25,98.03c-.49-2.41-2.29-1.62-3.5-2-1.33-.41-1.56-2.2-3.5.5l7,1.5ZM49.25,99.03c1.04-1.04-2.03-4.03-3-3-.26.27.6,2.75-1,3.5,1.61.76.72,3.18,1,3.5.4.46,2.86.18,2-1.5-.21-.42-.85-.62-1-1-.87-2.22,1.8-1.3,2-1.5ZM9.25,102.03c.68.68,3.44-.89,3-2.5-.1-.38-.83-.58-1-1-.08-.2-.09-2.59-1-1.5-.17.2.22.96,0,1.5-.28.69-2,2.5-1,3.5ZM56.25,97.03c-1.86-1.86-7.23,6.7-1.5,5,1.53-.45,2.01-4.49,1.5-5ZM79.25,101.03c.64-.76-.33-2.8-1-2-.64.76.33,2.8,1,2ZM52.25,107.03c.37-8.48-7.34-.24-6,1,.95.88,4.61-.96,6-1ZM175.25,103.03c-2.66-2.66-2.66,5.66,0,3,.11-.11.11-2.89,0-3ZM35.25,106.03c.7-4.11-2.42-.38-2,0,.21.19,1.77-.19,2,0,.16.13-1.94,3.08-1,4,.19.19,1.03-.27,1.5,0,2.19,1.25,1.31,3.81,1.5,4,.17.17.94-.2,1.5,0,.43.16.68,1,1,1,.39,0,1.44-1.84,2-2,.69-.2,3.5-.08,3.5-1.5,0-.33-.94-.62-1-1-.35-2.11.83-4.08-1.5-5.5-1.94.5-3.13-1.55-5-1-.65.19-1.4,2.08-2.5,2ZM152.75,105.03c-.65,0-.65,1,0,1s.65-1,0-1ZM130.25,111.03c-.21-.21-.07-3.8-3-3-1.41,2.56,2.39,1.79,2,2.5-.53.96-3.1,4.42-2,5.5.11.11,2.89.11,3,0,1.02-1.02-2.26-6.63,3-2,.8-2.93-2.79-2.79-3-3ZM122.25,114.03c-2.63-.46-1.63.48-2.5,2s-2.53,1,0,3l2.5-5ZM139.25,118.03c-.15.76-1.97,2.82-2.5,3-2.25.78-2.36-2.86-2.5-3-.29-.3-2.89,2.1-3,2.5-.36,1.3.77,1.44,1,2s-.18,1.32,0,1.5c.19.19,1.77-.19,2,0,.29.25-3.33,5.54-4,6.5,1.09.71,1.25,3.16,2.5,3.5,3.17.87,3.42-1.06,5-2,1.11-.66,3.34-.71,4-1s3.35-1.97,3.5-2.5c.32-1.16.2-3.24-1-4-1.88-1.18-2.09.9-4,.5-.89-3.34,2.6-1.54,3-2,.97-1.13-.76-2.92-1-3.5-.22-.54.17-1.33,0-1.5s-2.15.11-3,0c.14-.71.14-3.86,0-4-1.26-1.26-5.91,3.24,0,4ZM147.25,117.03c.64-.76-.33-2.8-1-2-.64.76.33,2.8,1,2ZM100.25,119.03c.32.28,2.74-.61,3.5,1l3.5-.5c-1.81-2.24-2.57-2.66-5.5-2.5-1.61.09-2.87.82-1.5,2ZM49.25,118.03c-.11-.11-2.89-.11-3,0-.2.2.19,1.75,0,2.5-.09.37-1.5,1.09-1,1.5,1.24,1.01,5.01-2.99,4-4ZM124.25,120.03c.64-.76-.33-2.8-1-2-.64.76.33,2.8,1,2ZM34.75,119.03c-.65,0-.65,1,0,1s.65-1,0-1ZM81.25,121.03c-1.41-.32-5,.15-5,1.5,0,.21,1.55.98,1,2.5l4-4ZM33.75,122.03c-.65,0-.65,1,0,1s.65-1,0-1ZM28.75,123.03c-.65,0-.65,1,0,1s.65-1,0-1ZM52.25,127.03c-1.4-2.77-5-6.02-7-2.5-.27.47.19,1.31,0,1.5s-1.03-.26-1.5,0c-.43.24-3.43,3.26-3.5,3.5-.36,1.32.92,1.61,1,2,.26,1.31-.46,3.94,1.5,4.5.62.18,1.38-.18,2,0,.43.12,1.35,1.5,2,2,1.2.92,3.86,1.62,4.5,1,1.15-1.11-.82-3.09-1.5-4-1.13-1.52-2.36-3-3.5-4.5-2.28-3-.56-1.84,1.5-3.5l1.5.5,3-.5ZM130.25,124.03c-1.53.62-5.14-1.87-6-1-.28.28.19,3.9,0,5,2.86.98,1.74-1.8,2-2,.38-.29,3.75.6,4-2ZM95.25,130.03l-2-2c-.26,2.11-.11,2.26,2,2ZM128.25,130.03c-.09-.1-1.99.28-2.5-1-1.18.91-3.86,4.25-3.5,5.5.63,2.2,5.16.64,4,3-.81,1.66-3.23,2.35-4.5,3.5-.83-.44-1.07-2.81-1.5-3.5-2.14-3.48-5.7-2.22-6-2.5-.28-.26.79-2.4-1-2l1,4.5c2.32,1.01-1.08,4.44,0,5.5.12.12,2.93.15,3.5,0,1.58-.42,1.39-2.87,1.5-3,.3-.34,2,1.3,2,1.5,0,1.09-3.96,3.37-5.5,2.5l-2.5,2c3.16.39,5.33-1.53,8.5-1,.38.06.67,1,1,1s.59-.89,1-1c.63-.17,1.39.17,2,0,.19-.05,2.24-2.08,2.5-2.5.13-.2-.15-.68,0-1,.21-.44,1-.7,1-1,0-.33-.94-.62-1-1-.3-1.81.4-9.08,0-9.5ZM118.75,132.03c-.65,0-.65,1,0,1s.65-1,0-1ZM59.25,139.03c.57-.47-3.21-4.18-5-3,.17,2.56-3.69,6.17-3,8.5.92,3.07,4.86,2.05,6.5,2.5.7.19,2.29,2.8,3,3,.93.26,5.58.62,4.5-1.5-.3-.59-3.28-2.5-3.5-2.5-.26,0-4.09,3.21-3.5-1,1.63.52,2.25-1.36,3.5-1,.77.22,1.46,2.42,3,2,1.68-.46.88-3.3,2.5-3-.42,1.03.95,3.01,1.5,3,.75-.02,3.96-3.98,2-5-3.92.08-7.27-2.96-10,1-1.29-.67-3.82,1.67-4.5,1-.38-.37-.13-2.77,1-3.5s1.91-.42,2-.5ZM75.25,141.03c-1.09-1.09-3.09.91-2,2s3.09-.91,2-2ZM74.25,147.03c-.09-.1-1.99.28-2.5-1-1.24.72-3.63,3.96-2.5,5,.18.17,4.82.18,5,0,.14-.14.14-3.85,0-4ZM86.25,147.03c-.35-.35-6.09.25-7.5,0-2.06,1.97-4.35,3.94-4.5,7,1.63-.51,2.24,1.36,3.5,1,.46-.13,2.61-1.91,3-2,5.35-1.19,6.9,7.41,12,6,1.07-.29,4.43-5.13,6-6,.47-.26,1.31.19,1.5,0,.11-.11.11-2.89,0-3-.12-.12-2.84-.14-3.5,0-.38.08-.6.89-1,1-.74.2-2.29-.21-2.5,0-.19.19.26,1.03,0,1.5-2.69,4.83-3.59.48-6-2-.42-.74-.86-3.36-1-3.5ZM111.25,149.03c-.67-.69-3.43.91-3,2.5-.82.62-2.8,2.65-2,3.5.12.12,2.89-1.18,3-1.5.37-1.06,2.17-4.32,2-4.5ZM6.25,150.03c-1.09-1.09-3.09.91-2,2s3.09-.91,2-2ZM171.25,159.03c.64-.76-.33-2.8-1-2-.64.76.33,2.8,1,2ZM6.25,158.03c-.83-.83-3.57,1.54-3,2,1.08.87,4.63-.37,3-2Z"/>
      <path d="M5.25,23.03c1,.86,4.13-1.99,3,3.5-.77,3.77-1.83,5.3-1,9,.37,1.67-.26,4.16,0,6l-4,3.5c-.78-1.75,1.01-3.32,1-3.5-.08-1.27-2.66-4.19-2-7,.85-3.65.41-2.21,0-5-.38-2.6.27-5.8,0-8.5,1.44.72,3.86-1.15,4-1,.75.84-1.3,2.75-1,3Z"/>
      <path d="M172.25,13.03c-.55-1.63.88-2.02,1-2.5.35-1.34-.91-1.6-1-2-.16-.7-.16-4.34,0-4.5.07-.07.9.17,2-.5,1.73-1.05-.66-2.65.5-2.5,1.26.16,2.26,4.61,3.5,5.5-2.94,2.15-1.14,2.2-1,3,.25,1.48,0,4.07-1.5,4.5-1.25.36-1.87-1.52-3.5-1Z"/>
      <polygon points="61.25 2.03 60.75 7.03 56.25 3.53 61.25 2.03"/>
      <path d="M5.25,3.03c.97.89-1.14,2.41-1.5,3-.34.55-.99,3.83-2.5,2-.18-.22-.23-4.23.5-5h3.5Z"/>
      <path d="M37.75,2.03c1.27-.35,4.5.28,4.5,1.5,0,.18-2.32,2.5-2.5,2.5-.22,0-3.5-2.15-3.5-2.5,0-.11,1.33-1.45,1.5-1.5Z"/>
      <path d="M5.25,15.03c-4.35.79-2.86-1.37-3-5,.78.06,2.99,2.3,3,2.5.02.29-1.62.66,0,2.5Z"/>
      <polygon points="53.25 5.03 49.25 6.03 51.25 2.03 53.25 5.03"/>
      <path d="M4.25,17.03c.18.18.23,2.42-.5,2-2.89-1.68-.53-3.03.5-2Z"/>
      <path d="M7.75,14.03c.65,0,.65,1,0,1s-.65-1,0-1Z"/>
      <path d="M17.75,4.03c.65,0,.65,1,0,1s-.65-1,0-1Z"/>
      <path d="M95.25,51.03c.5.41-1,1.25-1,1.5,0,.17,1.57,1,1,3-.08.27-1.97,2.06-2.5,2.5-.16.13-.72-.18-1,0-5.98,3.79,3.19,2.72,3.5,3,.24.22-.82,4.12,1.5,3,1.42-.69,3.84-4.34,2-5-1.67-.6-3.2-1.06-2.5-3.5.05-.17,2.32-2.5,2.5-2.5.47,0,2.31,2.8,3,3,.9.26,3.01-.2,3.5,1.5.18.62-.18,1.39,0,2,.12.4.89.6,1,1,.22.78-1.77,4.3-2.5,4.5-.91.25-3.23-.27-3.5,0-.22.22.51,5.21-3.5,4-.17-.05-2.5-2.32-2.5-2.5,0-.25,1.5-1.09,1-1.5-.27-.22-1.78.21-2.5,0-.31-.09-4.1-3.89-4.5-4.5-.14-.22.16-.74,0-1-.38-.64-2-2.82-2-3,0-.17.67-1.78,1-3,.11-.41,1-.67,1-1,0-1.7-3.84-1.34-4-1.5-.21-.21.21-1.78,0-2.5-.54-1.83-4.52-1.19-5-3-.15-.57-.12-3.37,0-3.5.09-.1,1.99.28,2.5-1,2.89,2.16,4.1,5.89,7,8,.24.17,2.82,1.95,3,2,.92.25,3.15-.28,3.5,0ZM90.75,54.03c-.65,0-.65,1,0,1s.65-1,0-1Z"/>
      <path d="M107.25,48.03c.19.19,1.81-.19,2,0,1.16,1.16-1.5,2.35,4.5,3,.94.1.17,1.93,1.5,2.5-1.07,1.4-1.72,1.66-3.5,1.5-2.97-.27-4.1-2.66-6-4-.21-.15-.74.16-1,0-2.51-1.59-.68-1.87-.5-2.5.23-.79-2.36-3.61.5-4.5s2.32,3.82,2.5,4Z"/>
      <path d="M99.25,44.03c.21.21-.21,1.78,0,2.5.25.84,2.91,2.12,3,3.5-2.86.98-1.74-1.8-2-2-.2-.15-4.25-1.94-4.5-2-.94-.21-3.25.25-3.5,0-.14-.14-.14-3.85,0-4,.55-.6,3.02.9,3,1.5,0,.17-1.85,1.5-.5,1.5.33,0,.61-.93,1-1,.71-.12,3.38-.12,3.5,0Z"/>
      <path d="M93.25,40.03l-6,1c-.33-1.98,2.62-.6,3-1,.19-.2-.27-5.07,3,0Z"/>
      <path d="M122.25,56.03c-.67.8-1.64-1.24-1-2,.67-.8,1.64,1.24,1,2Z"/>
      <path d="M111.75,76.03c.65,0,.65,1,0,1s-.65-1,0-1Z"/>
      <path d="M78.25,76.03c.98.81-4.16,4.11-4-1l4,1Z"/>
      <path d="M42.25,80.03c.57.46-2.17,2.83-3,2-1.63-1.63,1.92-2.87,3-2Z"/>
      <path d="M42.25,74.03l-2,2c-.26-2.11-.11-2.26,2-2Z"/>
      <path d="M56.75,73.03c.65,0,.65,1,0,1s-.65-1,0-1Z"/>
      <path d="M69.25,129.03c-1.02,1.15-3.04-1.87-3.5-2-1.67-.47-3.89,1.65-4.5,1-.15-.16-.17-3.89,0-4.5.07-.24,3.26-3.43,3.5-3.5,1.12-.32,2.33,1.67,4,1,2.51,1.84.6,1.87.5,2.5-.21,1.29.31,5.16,0,5.5Z"/>
      <path d="M90.25,103.03c-.71-.68.27-2.55,1-3.5,1.36-1.77,3.27-3.4,4.5-5.5,3.52,1.64,3.24,8.11,0,9-.65.18-5.3.19-5.5,0Z"/>
      <path d="M98.25,84.03c-.24,1.35.34,6.66,0,7-.68.68-7.17.44-6-3.5.58-1.98,3.75-1.31,4-1.5.26-.2-.86-2.98,2-2Z"/>
      <path d="M149.25,81.03c.83.83-1.54,3.57-2,3-.87-1.08.37-4.63,2-3Z"/>
      <path d="M138.25,128.03c.8.67-1.24,1.64-2,1-.8-.67,1.24-1.64,2-1Z"/>
      <path d="M41.75,110.03c.65,0,.65,1,0,1s-.65-1,0-1Z"/>
    </g>
  </g>
</svg>