<?xml version="1.0" encoding="UTF-8"?>
<svg id="Layer_2" data-name="Layer 2" xmlns="http://www.w3.org/2000/svg" viewBox="0 0 182.95 174.46">
  <g id="Elements">
    <g id="Element">
      <path d="M7.89,107.25c-.34-.11-.88.14-1,0-.53-.63-.18-14.33,0-16.5.24-2.88.65-7.89,1-10,.49-2.97-.6-17.79,0-18.5.56-.66,2.02,2.58,3,1.5-2.93-2.16,1.65-3.74,2-5,.3-1.09-.3-2.91,0-4,.15-.55,2-1.61,2-2,0-1.42-2.77-4.66-2-9,.87-4.87-.36-15.69-2-21-.12-.4-.89-.61-1-1-.97-3.49,1.03-2.06,2.5-2.5.56-.17,7.49-5.86,8-6,.82-.23,2.08.19,3,0,.39-.08.68-1.36,2-1,.53.14,2.15,2.34,3,3,.21.16.79-.16,1,0,2.16,1.67,2.8,4.59,5,1,2.96-4.82-3.81-2.31-4.5-3-.19-.19.26-1.03,0-1.5-.39-.7-1.68-1.34-2-2-.85-1.72,1.63-1.94,2-1.5.14.16-.11.9,0,1.5.17.89,2.89.61,3,.5.86-.86-1.86-5.14-1-6,.11-.11,2.84-.39,3,.5.11.6-.13,1.37,0,1.5.39.39,10.57.35,11,0,.5-.41-1-1.25-1-1.5,0-.36,3.27-2.5,3.5-2.5s1.54,1.68,4,1c2.24-.62.05-2.81,6-1,.92.28,9.3-2.2,10.5-1,.19.19-.19,1.81,0,2,.14.14,3.86.14,4,0,.54-.54-1.43-.94,1.5-2,.43-.16.68-1,1-1,.33,0,.62.94,1,1,3.48.58,5.19.66,8,0,2.98-.7,3,1.61,7,0,2.48-1,3.47-.73,6,0,.56.16,1.61,2,2,2,.25,0,2.82-2.73,4-3,4.82-1.09,3.2,1.7,3.5,2,.17.17.94-.2,1.5,0,.43.16.68,1,1,1,.37,0,2.96-2.59,5-2,.16.05,1.45,1.33,1.5,1.5.23.78-.58,2.39.5,2.5,2.39-2.49,4.15-5.06,8-4,.55.15,1.44,1.84,2,2,2.04.59,4.6-2,5-2s2.96,2.59,5,2c.56-.16,1.61-2,2-2,.47,0,2.3,2.79,3,3,3.15.94,2.15-.88,2.5-1.5,1.42-2.55,2.32-.5,2.5-.5.33,0,.59-.89,1-1,1.31-.36,1.75,1,2,1,.33,0,.67-1,1-1,.39,0,1.45,1.85,2,2,1.33.37,3.67-.37,5,0,.75.21,1.46,2.42,3,2,.84-.23,1.5-2.76,4-2,4.1,1.25,2.29-.51,4-1,1.25-.36,1.87,1.52,3.5,1l-2,3.5c-.06,1.04,1.74.27,2,.5.15.14-1.94,3.08-1,4,.11.1,2.89.11,3,0,.16-.16-.48-3.43,1.5-4,.62-.18,1.38.17,2,0,.83-.23,1.57-2.69,3.5-2,.04,1.93,1.61,3.32,1,5.5-.15.55-1.85,1.45-2,2-.79,2.87.88,5.72,1,7,.62,6.53.33,12.96,2,19,.36,1.32-.91,1.6-1,2-.32,1.43.36,3.68,0,5-.15.55-1.85,1.45-2,2-.29,1.07.32,4.18,0,4.5-.18.18-2.91-.68-2,1.5.16.38.79.59,1,1,.14.27-.14.76,0,1,.56,1.01,2.41,1.53,2,3-.11.39-.87.59-1,1-1.3,4.04-1.66,9.02,0,13,.91,2.18-1.82,1.32-2,1.5-1.14,1.14,1.84,2.94,2,3.5.25.92.17,4.83,0,6-.35,2.38-1.52,2.9-1,6,1.03,6.21-1.83,12.35-1,18,.33,2.22,1.48,13.79,1,16-.08.38-1.86,2.53-2,3-.4,1.36.63,1.73,0,4-.17.61,2.02,4.48,1,5.5-.17.17-.96-.22-1.5,0-.42.18-.62.89-1,1-.73.21-2.21-.22-2.5,0-.26.2.86,2.98-2,2,.14,2.53,2.59-.56,4.5,0,.25.07,2.11,1.99,2.5,2.5,3.48,4.5-3.52,5.26-4,7-.3,1.08.26,2.83,0,4-.09.38-.89.6-1,1-.36,1.31.86,1.53,1,2,1.04,3.43-3.54,3.45-4,5-1.55,5.18,6.58,1.08,7,1.5.21.21-.2,1.76,0,2.5.17.61.68,2.02,1,3,.13.4,1.48,1.06,1,1.5-.21.19-1.81-.19-2,0-.3.3.3,3.7,0,4-.18.18-.96-.23-1.5,0-.42.18-.63.9-1,1-1.2.33-5.53-3.01-6-3-.4,0-1.45,1.85-2,2-1,.28-8.83.25-10,0-.34-.07-2.66-1.93-3-2-3.68-.8-6.97,2.29-8,2-3.66-1.01-2.16-.52-5,0-3.02.55-9.12-2.38-9.5-2-.19.19.19,1.81,0,2-.26.26-3.38-.19-4.5,0-.38.06-.61.92-1,1-5.85,1.2-2.64-3.14-3.5-4-.23-.23-2.62.16-3.5,0-.75-1.6-3.23-.74-3.5-1-.94-.89,1.21-3.7,3.5-3,.41.13.63.93,1,1,2.04.36,5.23-.49,7,0,2.05.56-.12,2.13,4,1,.88-.24,2.51,1.57,5,1,.45-.1.88-1.55,2.5-1l1-5c-1.82.76-2.95-.86-3.5-1-.64-.16-4.48,2.02-5.5,1-.11-.11-.11-2.89,0-3,.41-.41,2.9,1.31,2-3l-3,3c-1.5.38-1.11-2.95-2.5-3-.82-.03-1.84,2.28-1.5,3.5.1.38,1.5,1.09,1,1.5-.99.81-2.34-.97-2.5-1-2.51-.46-4.23.57-6.5,1-1.2-3.03,3.05-1.14,2-3.5-.21-.47-1.71-1.8-2-1.5-.11.11.56,3.01-1.5,2-1.5-.73-2.22-4.49-4-5-1.59-.45-4.3,1.18-5.5,2.5l5-.5c.93,2.88-2.45,1.66-3,3.5-1.22,4.06,3.27,1.53,4,4,.29.97-1.97,3.36-2.5,3.5-.98.27-4.75.16-6,0-2.48-.31-5.34-1.64-9-1-.14.03-1.67,1.83-2.5,1-.34-.34,1-1.73-2.5-3-2.6-.94-5.98-.44-8-1-.55-.15-1.45-1.85-2-2-.41-.11-5.22,1.77-8,1-.55-.15-1.44-1.83-2-2-3.93-1.17-2.03,2.53-2.5,3-.25.25-3.38-.18-4.5,0-3.08.49-8.97.44-11,1-.55.15-1.45,1.85-2,2-1.03.28-17.11,1.24-18,1-.55-.15-1.61-2-2-2s-1.45,1.85-2,2c-1.67.46-4.36-2.83-5-3-.88-.24-4.5.25-4.5-1.5,0-.22,2.79-2.87-.5-2.5l-4-3,2.5,4-5-1c-.72-1.44,1.16-3.86,1-4-.88-.77-2.34,1.38-3,.5,2.07-.76-.33-3.61.5-3.5.31.04,2.54,1.87,3,2,1.74.51,3.49-1.67,6-1,.69.18,2.54,3.66,4.5,1.5-1.73-.57-1.85-3.37-2-3.5-.19-.17-.96.22-1.5,0-.42-.18-.63-.9-1-1-1.11-.31-3.77,2-4,2-.31,0-4.47-4.09-3.5-5,.72-.68,3.32,1.69,4,1,.19-.19-.19-1.79,0-2,.11-.12,2.96-.14,3-1.5.01-.51-1.48-1.96-3-1-.66.42-2.56,3.02-3,2.5,1.12-2.19-2.01-4.2-2-4.5.04-1.85,6-1.69,7.5-1.5.37.05.64.96,1,1,2.08.22,5.34-.46,7,0,.17.05,2.5,2.32,2.5,2.5,0,.3-1.61,1.41-2,2,1.52,2.29,4.24-3.29,4-3.5s-3.19.5-4-1.5c2.03-3.59,4.53,1.03,5,.5.76-.86-1.31-2.44-1-3.5.16-.56,2-1.61,2-2,0-.47-2.79-2.3-3-3s.21-2.29,0-2.5c-.25-.25-2.75.25-3,0-.19-.19.26-1.03,0-1.5-.39-.69-1.61-1.31-2-2-.26-.47.19-1.31,0-1.5-1-1-5.56,1.4-6,1-.33-.3,1.57-1.75,1-3-1.89-.39-.32,1.87-1.5,2-2.55.29-4.15-2.4-4.5-2-.7.81,1.48,2.77,1,4,1.61-.78,3.89,2.16,3,3-.94.89-3.82-.72-4.5-2l-2.5,3c1.85-.87,4.7,1.23,5.5,1,.39-.11.6-.88,1-1,.6-.19,1.38.18,2,0,1.98-.57,1.34-3.84,1.5-4,.14-.14,3.86-.14,4,0,.25.25-.22,2.57,0,3.5.09.38.87.59,1,1,.28.87.42,4.58,2,3,1.28-1.28,2.67-.37,2,1-1.25,2.55-2.38.47-2.5.5-1.36.38-2.08,4.05-6,3-.81-.22-2.06-2.44-1.5-3,1.07-1.07,3.59,2.46,4,2,.1-.12.16-2.15,1-3-2.35.15-4.34-2.62-6.5-2-1.28.37-1.72,3.63-3,4-.81.23-4.23.73-4.5,1-.12.12.46,1.59-1,2.5-2.99,1.87-2.95-.2-4-2.5,3.88,1.82,10.21-4.65,5.5-6-3.95-1.14-2.02,2.52-2.5,3-.11.11-2.89.11-3,0-.34-.34.24-5.65,0-7l4,3c-1.21-1.11-.85-3.86-1-4-.51-.5-2.97,1.48-2-4,1.15,1.24,3.77.82,4,1,.27.21-.86,2.97,2,2,.5-4.39-.44-2.35-2.5-3-1.66-.52-1.38-2.89-1.5-3-.11-.1-3.25.05-2-1,.25-.21,2.91.68,2-1.5-.23-.56-1.36-.7-1-2,.54-1.96,3.84-1.34,4-1.5.11-.1.38-2.01-.5-2-1.54.02-1.85,1.37-3.5,1,.49-1.69-1.35-2.24-1-3.5.16-.59,1.44-.95,2-3.5,2.16.69.45,1.52,1,3.5.1.35,4.88,4.16,5.5,4.5.47.26,1.31-.19,1.5,0,.11.11.1,2.89,0,3-.43.44-4.9-.99-6,1.5,2.4,3.78,5.22-2.12,7.5-1.5,2.76.75-.18,6.07,3.5,5-.45-1.2,1.7-3.32,1-4-.26-.25-2.75.25-3,0-.36-.36.77-3.62-1-4.5l3.5.5,1.5-2c-1.82.75-3.47-1.29-4.5-1-.4.11-.61.89-1,1-1.3.36-1.44-.77-2-1s-1.32.18-1.5,0c-.19-.19.26-1.03,0-1.5-.95-1.7-2.16-3.26-3.5-3.5-1.09-.2-.24-1.74-.5-2-1.97-1.97-1.82,1.18-2,2ZM78.89,5.25c.73-.59-2.71-3.04-4-2-.73.59,2.71,3.04,4,2ZM88.89,3.25c-.28-.34-2.36,1.2-2,2.5.54,1.97,3,1.06,3,0,0-.32-.85-.57-1-1-.2-.56.16-1.3,0-1.5ZM94.89,4.25c-.68-.7-2.8,1.45-4,1-.86,1.48,3.8,1.2,4,1,.07-.07.07-1.93,0-2ZM102.89,6.25c-.76-.64-2.8.33-2,1,.76.64,2.8-.33,2-1ZM115.39,8.25c-1.42,0,1.5,2.92,1.5,1.5,0-.11-1.39-1.5-1.5-1.5ZM111.39,10.25c-.65,0-.65,1,0,1s.65-1,0-1ZM125.39,11.25c-.65,0-.65,1,0,1s.65-1,0-1ZM166.89,12.25l-5.5-1c-1.04,1.6-2.53.82-4,1-1.19.15-.99,3.63,2,4,2.54.32,1.05-2.44,3-3s2.19.59,3,1c1.69.86,1.95-1.61,1.5-2ZM45.89,13.25c-.71-.69-3.44.93-3,2.5.11.4.92.62,1,1,.19.92-.23,2.17,0,3,.14.53,2.33,3.2,2,3.5-.2.19-1.03-.26-1.5,0-2.51,1.4-.63,2.01-.5,2.5.17.63-.17,1.39,0,2,.54,1.89,12.49,11.15,13,13,.15.55.12,3.37,0,3.5-.26.28-2.4-.79-2,1,4.67-1.16,2.38,2.38,3,3,.21.21,3.05-.55,5,2.5,1,1.57,2.26,4.38,3.5,6.5.69,1.18,1.59,2.62,1.5,4-3.6-2.56-4.59-7.19-7-10.5.47-2.19-1-1.48-3-1.5,1.62,1.85-.57,2.62,0,4.5.28.93,1.99,2.67,2.5,3.5s1.15,2.62,0,3c-2.34-2.2-4.52-3.96-7-6-7.42-6.12-14.25-13.38-22.5-18.5-1.61-1-3.33.2-4.5-1.5-2.12,2.16.49,1.72,1,2,1.45.81,3.4,3.74,5,5,4.65,3.66,10.48,7.82,15,12,1.6,1.48,11.28,10.72,11.5,11.5.36,1.31-1,1.74-1,2,0,.75,4.43,2.51,5,4l-4.5-1.5c-6.2-2.25-10.98-5.87-16-10-2.99-2.46-5.7-5.72-8-7-.68-.38-10.12-9.82-10.5-10.5-.56-1,1.07-1.5-1.5-1.5-1.16,0-2.2.04-1.5,1.5.76,1.59,2.11,2.75,3,4,6.24,8.78,17.31,16.2,25.5,22.5.87.67,2.45,2.84,3,3,2.81.83,6.67,1.45,9,3,.88.58,4.43,4.09,3.5,5-.16.16-3.01-1.84-4.5-1-9.17-4.65-18.69-7.67-28-11-1.28-.46-3.51-1.86-4.5-.5l6.5,4.5c5.91,1.29,11.61,4.45,17,6,.21.06,3.35,1.85,3.5,2,.19.19-.26,1.03,0,1.5.54.96,11.3,11.7,12.5,12.5,5.07,3.37,5.34.67,8.5,7.5,1.01,2.17,6.26,8.02,8.5,9.5.42.28,2.45.71,3,1,.69.37,1.49,1.86,2,2,1.69.47,4.92-.26,7,0,.37.05.62.93,1,1,1.64.3,5.02.16,5.5-1.5.39-1.36-2.09-1.91.5-3.5.67,1.57,3.26.75,3.5,1,.17.18-.22.96,0,1.5.18.43.94.65,1,1,.22,1.21-.2,2.76,0,4,.04.27,1.58,1.03,1,3s-5.67,1.73-7.5,1.5c-.61-.08-5.66-2-6-2-.25,0-1.09,1.5-1.5,1-.2-.24.19-1.81,0-2-.17-.17-.96.22-1.5,0-5.01-2.09-11.72-2.17-16-5-1.4-.93-3.42-4.44-5-4-.68.19-2.53,3-3,3-.32,0-.57-.84-1-1-.56-.2-1.33.17-1.5,0-.19-.19.19-1.81,0-2-.27-.27-2.59.25-3.5,0-.31-.08-4.46-4.18-4.5-4.5-.03-.25,1.97-.95-.5-2.5-1.05-.05-.27,1.76-.5,2-.11.12-2.52-.13-3,1.5-.69,2.38,2.51,2.22,3.5,2.5,2.46.71,4.16,4.66,4.5,5,.25.25,5.56-.14,6.5,2l5.5,1-8,3,2,4c.16-.96-.24-3.76,0-4,.18-.18,4.82-.17,5,0,.7.68-1.45,2.8-1,4l-2,2c1.46-.68,1.68-1.46,3.5-2,.58-.17,1.34.16,1.5,0,.75-.72-1.27-2.77-1-3,.11-.1,2.89-.11,3,0,.73.73-1.7,6.09,2,5-.87-1.85,1.23-4.7,1-5.5-.48-1.69-3.3-.88-3-2.5l5.5,1c3.01,3.27,7.88,2.14,11,3,1.07.29,2.35,3.73,4.5,3,.4,1.79-1.74.72-2,1-.37.4.99,3.39-1.5,5-.44.29-2.45.7-3,1-.69.37-1.49,1.86-2,2-.85.23-2.15-.23-3,0-.41.11-3.36,2.03-3.5,2.5-.26.88.93,2.33,1.5,2.5,2.46.72,3.58-2,4-2,.25,0,1.09,1.5,1.5,1,.18-.22-.26-1.04,0-1.5.61-1.06,9.24-5.43,11.5-6.5,2.63-1.24,13.19-5.69,14.5-7,.19-.19-.19-1.81,0-2,.68-.7,2.8,1.45,4,1,.16.96-.24,3.76,0,4,.11.11,2.89.1,3,0,.16-.13-1.94-3.08-1-4,.21-.21,1.76.2,2.5,0,.4-.11.63-.93,1-1,2.93-.53,4.5.98,6,1s1.79-1.34,3-1c.27.07,1.99,1.5,1,2-1.05,1.18-.24,3.11-.5,4.5-.07.37-.89.6-1,1-.2.74.21,2.29,0,2.5-.42.42-.95-.39-3,2.5-1.61,2.26-13.8,15.01-15.5,15.5-2.29.66-2.65.37-4,0-1.68-.46-3.01,2.73-4,3-1.07.29-4.18-.32-4.5,0-.11.11-.1,2.89,0,3,.74.76,2.48-1.29,3.5-1,.38.11,1.09,1.5,1.5,1,.18-.22-.26-1.04,0-1.5,1.94-3.39,4.51.12,6.5-.5.4-.12.6-.87,1-1,.59-.19,1.37.18,2,0,.97-.28,3.62-4.23,5-5,1.82-1.01,1.18-.99,3-2,.78-.43,10.29-9.79,10.5-10.5.38-1.32-1.38-1.68-1-3,.29-1,4.71-4,5-5,.93-3.22,1.97-4.24,3-8,.19-.7,2.79-2.28,3-3,1.42-4.95,2.13-2.63,3-3.5.19-.19-.26-1.03,0-1.5.25-.45,2.01-2.19,2.5-2.5.2-.13.68.15,1,0,1.09-.5.36-1.64,2,0,1.21,1.21,2.21.64,2.5-.5.33-1.3-.05-4.13-1.5-4.5-.87-.22-2.16.23-3,0-3.19-.88-2.12-5.4-2.5-7.5-.05-.29-1.57-1.01-1-3,.85-2.96-.62-1.63-1-3-.4-1.45.02-3.22-1-5-.39-.67-1.48-1.29-2-2-.05-1.05,1.78-.27,2-.5.82-.84-.9-2.22-1-2.5-1.36-3.89-1.76-8.64-3-12-.95-2.57-7.45-11.95-9.5-13.5-2.4-1.82-4.11-2.01-5.5-4.5-1.96-3.51-7.69-5.83-9-9-.27-.67.27-2.99-1.5-3.5-2-.58-2.83,1-3,1-.3,0-.56-.79-1-1-.32-.15-.8.13-1,0-.42-.26-2.45-2.31-2.5-2.5-.18-.62.18-1.38,0-2-.08-.27-4.23-3.42-4.5-3.5-2.24-.66-3.16.26-2.5,2.5.08.27,3.19,4.31,3.5,4.5,9,5.7,22.49,21,25.5,31.5.15.52,1.63,1.31,2,2,3.79,7.03,6.02,13.51,10,20l.5,4.5c-.83-1.35-2.87-3.36-3.5-4.5-1.18-2.12-2.77-2.2-3-3-1.7-5.92-7.16-12.84-11-18-4.95-6.64-10.39-13.65-15-21-4.09-6.52-8.47-12.88-13-19-.81-1.1-1.57-2.43-2-3-4.36-5.76-5.15-.74-3,4,9.89,11.3,17.19,24.56,26,37,3.74,5.29,8.63,10.27,12,16,.3.51.7,2.46,1,3,.37.66,1.99,1.64,2,2,0,.17-1.55,1.02-1,2.5-4.63-2.31-9.62-6.22-13-10.5-.31-.39-1.08-3.09-2.5-3.5-5.8-1.66-8.3-5.64-14-9-.38-.22-1.23-1.1-1.5-1.5-.63-.93,2.54.25,2-1.5-2.14-.27-1.67,1.51-3.5,0-.46-.38-1.24-1.07-1.5-1.5-6.38-10.44-8.44-22.4-11-34-.09-.39-.92-.62-1-1-.25-1.19.29-2.93,0-4-.5-1.81-5.34-4.48-4,0,.99,3.32,1.4,6.47,2,10,.04.24,1.85,1.49.5,1.5-.25,0-1.09-1.5-1.5-1-.98,1.19.85,4.79,3,4l-.5,7c-.84-1.19-2.88-2.39-3.5-3.5-1.25-2.24-1.08-.81-2-3-1.6-3.82-9.11-8.9-10-12-.97-3.37-2.19-4.14-4-7-2.43-3.84-6.24-.7-3,3,2.08,5.17,5.76,8.22,9,12,.92,1.07,2.42,2.66,3.5,3.5,1.42,1.11,2.41.9,2.5,1,2.15,2.22-1.92,1.81-2.5,2-2.27.73-1.08,2.87-.5,4.5.26.72,1.92,3.55,2,4,.29,1.64.35,7.77-2,5.5-.1-.09.11-1.08-1-2.5-9.14-11.76-21.71-21.49-28-35-1.73-.57-1.86-3.36-2-3.5ZM102.89,16.25c-.51-6.75-8.87-.65-7,1,1.13,1,5.31-1.46,7-1ZM155.89,13.25c-.76-.64-2.8.33-2,1,.76.64,2.8-.33,2-1ZM171.89,17.25c.15-.15.27-3.45-.5-3-3.01,1.76-.92,4.42.5,3ZM40.89,18.25c.81-.81-1.49-3.56-2-3-.19.21.19,1.81,0,2-.11.11-3.26-.05-2,1,.15.13,3.86.14,4,0ZM118.89,17.25c.64-.76-.33-2.8-1-2-.64.76.33,2.8,1,2ZM70.89,18.25c1.03-1.03-.32-3.39-2-.5-.42.73,1.82.68,2,.5ZM122.89,16.25c-1.03-1.03-3.39.32-.5,2,.73.42.68-1.82.5-2ZM132.89,16.25c-1.09-1.09-3.09.91-2,2s3.09-.91,2-2ZM141.89,17.25c-.15-.15-3.45-.27-3,.5,1.76,3.01,4.42.92,3-.5ZM150.89,17.25c-1.43-1.43-5.9,1.99-2.5,3,3.02.9,3.28-2.22,2.5-3ZM154.89,17.25c-1.09-1.09-3.09.91-2,2s3.09-.91,2-2ZM17.89,18.25c-.11-.11-2.89-.11-3,0-2.66,2.66,5.66,2.66,3,0ZM15.89,21.25c-.15-.15-3.45-.27-3,.5,1.76,3.01,4.42.92,3-.5ZM28.89,21.25c-.76-.64-2.8.33-2,1,.76.64,2.8-.33,2-1ZM34.89,23.25l-2-2c-.26,2.11-.11,2.26,2,2ZM122.89,23.25c.64-.76-.33-2.8-1-2-.64.76.33,2.8,1,2ZM153.39,21.25c-.65,0-.65,1,0,1s.65-1,0-1ZM162.39,21.25c-.65,0-.65,1,0,1s.65-1,0-1ZM170.89,21.25c-.62-.62-6.09-.09-4,2,.62.62,6.09.09,4-2ZM155.89,23.25c-1.03-1.03-3.39.32-.5,2,.73.42.68-1.82.5-2ZM106.39,24.25c-.65,0-.65,1,0,1s.65-1,0-1ZM160.89,25.25c-1.03-1.03-3.39.32-.5,2,.73.42.68-1.82.5-2ZM172.89,27.25c.57-.46-2.17-2.83-3-2-.11.11-.1,2.88,0,3,.4.48,1.07-.81,1.5-1,.52-.23,1.28.17,1.5,0ZM173.89,29.25c1.45,1.21,4.15-2.58,3-4-.28-.34-2,1.28-2,1.5,0,.25,1.5,1.09,1,1.5-.12.1-3.25-.05-2,1ZM16.89,28.25c-.24-.19-3.44-.24-3,.5,1.64,2.8,3.36-.21,3-.5ZM40.89,32.25c.65-.58-4.74-5.71-7-4-.65,3.36,1.85,1.51,3.5,2,.58.17,2.27,3.09,3.5,2ZM139.89,29.25c-2.11-.26-2.26-.11-2,2l2-2ZM169.89,29.25c-.76-.64-2.8.33-2,1,.76.64,2.8-.33,2-1ZM177.89,30.25l-3,2.5-1,4.5,3-2.5,1-4.5ZM162.89,34.25l-2-2c-.26,2.11-.11,2.26,2,2ZM158.89,39.25c.83-.83-1.54-3.57-2-3-.87,1.08.37,4.63,2,3ZM41.39,38.25c-.65,0-.65,1,0,1s.65-1,0-1ZM154.89,38.25c-2.66-2.66-2.66,5.66,0,3,.11-.11.11-2.89,0-3ZM167.89,44.25l-2-2c-.26,2.11-.11,2.26,2,2ZM177.89,43.25c-1.09-1.09-3.09.91-2,2s3.09-.91,2-2ZM163.89,44.25c-1.09-1.09-3.09.91-2,2s3.09-.91,2-2ZM150.89,51.25c-1.09-1.09-3.09.91-2,2s3.09-.91,2-2ZM156.89,60.25c.64-.76-.33-2.8-1-2-.64.76.33,2.8,1,2ZM15.89,60.25c-1.09-1.09-3.09.91-2,2s3.09-.91,2-2ZM23.89,62.25c.52-.42-2-2.81-3-2-.52.42,2,2.81,3,2ZM16.89,66.25c.59.73,3.04-2.71,2-4-.59-.73-3.04,2.71-2,4ZM161.89,62.25c-1.09-1.09-3.09.91-2,2s3.09-.91,2-2ZM15.89,67.25c1.02-1.02-1.98-4.02-3-3-.11.11-.11,2.89,0,3s2.89.11,3,0ZM168.89,65.25c-1.09-1.09-3.09.91-2,2s3.09-.91,2-2ZM22.89,71.25c.11-.11.1-2.88,0-3-.4-.48-1.07.81-1.5,1s-3.39.11-1.5,2c.11.11,2.89.11,3,0ZM169.89,75.25c.59-.62-2.67-5.76-4-6-.14,1.46.86,2.71,1.5,4,.41.83.94,3.64,2.5,2ZM24.39,71.25c-1.48,0-1.48,3,0,3s1.48-3,0-3ZM20.89,73.25c-1.02-1.02-4.02,1.98-3,3,.11.11,2.89.11,3,0s.11-2.89,0-3ZM174.89,80.25c.25.31,1.89-1.11,2-1.5.36-1.3-.77-1.45-1-2-.08-.2-.09-2.59-1-1.5-.16.19-.16,4.81,0,5ZM170.39,76.25c-.65,0-.65,1,0,1s.65-1,0-1ZM14.89,79.25c.51-.41-2.1-3.75-4-.5-.44.75,3.78.68,4,.5ZM20.89,79.25l-5-2,3,3.5,2-1.5ZM149.89,81.25c.64-.76-.33-2.8-1-2-.64.76.33,2.8,1,2ZM158.89,81.25c-1.65.37-1.96-.98-3.5-1-.87-.01-.62,1.88-.5,2,.11.11,1.45-.45,2.5,1,.36.5.94,3.85,2.5,2,.7-.84-1.49-2.76-1-4ZM13.89,83.25c.51-.41-2.1-3.75-4-.5-.44.75,3.78.68,4,.5ZM33.89,81.25c-.24-.19-3.44-.24-3,.5,1.64,2.8,3.36-.21,3-.5ZM37.89,81.25c-.76-.64-2.8.33-2,1,.76.64,2.8-.33,2-1ZM23.89,82.25c-.19-.16-4.82-.17-5,0-.75.72,1.26,2.75,1,3-.28.27-4.1-.84-3,1.5.41.88,2.46,2.09,3,1.5.45-.49-1.21-3.69,3-1-.9-1.69,1.19-4.83,1-5ZM177.89,84.25c.64-.76-.33-2.8-1-2-.64.76.33,2.8,1,2ZM14.89,84.25c-.89-.94-4.72,2.27-4,4l5,1c.94-2.89-1.74-1.7-2-2s1.76-2.2,1-3ZM171.89,84.25c-.11-.11-2.89-.11-3,0-1.02,1.02,1.98,4.02,3,3,.11-.11.11-2.89,0-3ZM34.89,87.25c1.03-1.03-.32-3.39-2-.5-.42.73,1.82.68,2,.5ZM168.89,89.25c-1.25-2.17-3.18-4.58-6-4,1.25,2.17,3.18,4.58,6,4ZM159.89,90.25c.58.58,3-.88,3-1.5,0-.11-1.39-1.5-1.5-1.5-.62,0-2.08,2.42-1.5,3ZM19.89,91.25c-.32-.28-2.74.61-3.5-1-2.03,3.28-6.26-1.3-6.5-1-.1.13-.39,2.89.5,3,2.18.26,5-.4,7,0,.34.07.56.78,1,1,1.68.86,1.96-1.6,1.5-2ZM26.89,93.25c-.21-.85-1.94-2.78-2.5-3-2.83-1.13-1.43,4.18,2.5,3ZM49.39,91.25c-.65,0-.65,1,0,1s.65-1,0-1ZM170.89,93.25c.64-.76-.33-2.8-1-2-.64.76.33,2.8,1,2ZM166.89,95.25c.64-.76-.33-2.8-1-2-.64.76.33,2.8,1,2ZM19.89,102.25c.99-.97-3.13-6.18-4.5-7-.22-.13-.69.14-1,0-.43-.2-.64-.92-1-1-1.54-.34-3.8.23-5.5,0l2.5,3c2.01-.77,3.34.82,4,1,.74.2,2.29-.21,2.5,0s-.11,2.55,0,3.5c.11.89,2.89.61,3,.5ZM158.89,94.25c-1.09-1.09-3.09.91-2,2s3.09-.91,2-2ZM31.89,97.25c-.12-2.53-5.7-2.32-6-2-.19.2.12,2.19,0,3l6-1ZM35.39,96.25c-.65,0-.65,1,0,1s.65-1,0-1ZM11.89,102.25c1.43-1.43-1.99-5.9-3-2.5-.9,3.02,2.22,3.28,3,2.5ZM26.89,99.25c-1.63.67-4.9-1.89-6-1-.57.46,2,2.16,2,2.5,0,.38-1.99,1.61-2,2,0,.15.98,1.61,2,1,1.3-.78.57-2.16,1.5-2.5,1.04-.38,2.32-.39,2.5-2ZM64.89,102.25c.15-.15.27-3.45-.5-3-3.01,1.76-.92,4.42.5,3ZM158.89,99.25c-.76-.64-2.8.33-2,1,.76.64,2.8-.33,2-1ZM15.89,104.25c-3.7.29-4.37-3.03-4,2,1.34-.24,3.99,1.89,5,1,.33-.29-1.57-1.77-1-3ZM40.89,105.25c.64-.76-.33-2.8-1-2-.64.76.33,2.8,1,2ZM44.39,104.25c-.65,0-.65,1,0,1s.65-1,0-1ZM166.39,104.25c-.65,0-.65,1,0,1s.65-1,0-1ZM20.89,108.25c.99.99,4.55-1.78,1.5-3-2.12-.85-1.79,2.71-1.5,3ZM65.39,105.25c-.65,0-.65,1,0,1s.65-1,0-1ZM76.89,105.25c-.11-.11-2.89-.11-3,0-.14.14-.14,3.86,0,4,1.34,1.34,4.23-2.77,3-4ZM35.89,108.25c.57-.46-2.17-2.83-3-2-1.63,1.63,1.92,2.87,3,2ZM30.89,107.25c-.76-.64-2.8.33-2,1,.76.64,2.8-.33,2-1ZM40.89,108.25c-1.09-1.09-3.09.91-2,2s3.09-.91,2-2ZM169.89,110.25l-2-2c-.26,2.11-.11,2.26,2,2ZM32.89,110.25c-1.97-.13-6.61-3.1-6,1l4.5,2,1.5-3ZM175.89,111.25c.57-.46-2.17-2.83-3-2-1.63,1.63,1.92,2.87,3,2ZM155.89,112.25c.52-.42-2-2.81-3-2-.52.42,2,2.81,3,2ZM159.89,112.25c1.03-1.03-.32-3.39-2-.5-.42.73,1.82.68,2,.5ZM46.89,115.25c.81-1-1.58-3.52-2-3-.81,1,1.58,3.52,2,3ZM59.89,113.25c-1.09-1.09-3.09.91-2,2s3.09-.91,2-2ZM153.89,114.25c-1.03-1.03-3.39.32-.5,2,.73.42.68-1.82.5-2ZM50.89,117.25c1.03-1.03-.32-3.39-2-.5-.42.73,1.82.68,2,.5ZM30.89,118.25c.2.16.94-.2,1.5,0,.43.15.68,1,1,1,1.06,0,1.97-2.46,0-3-1.3-.36-2.84,1.72-2.5,2ZM38.89,118.25c.64-.76-.33-2.8-1-2-.64.76.33,2.8,1,2ZM166.89,118.25c.64-.76-.33-2.8-1-2-.64.76.33,2.8,1,2ZM42.89,117.25c-1.09-1.09-3.09.91-2,2s3.09-.91,2-2ZM160.89,120.25l-6-3c-.41.94.86,2.98,1.5,3,.08,0,.21-.41.5-.5,2.24-.71,1.99.66,4,.5ZM59.89,120.25c1.03-1.03-.32-3.39-2-.5-.42.73,1.82.68,2,.5ZM169.39,118.25c-.65,0-.65,1,0,1s.65-1,0-1ZM35.89,120.25c-.68-.7-2.8,1.45-4,1-.86,1.48,3.8,1.2,4,1,.07-.07.07-1.93,0-2ZM158.89,123.25l-4.5,1c-.95.24-4.83-3.08-3.5,1.5.71,2.42,2.35.51,2.5.5,1.09-.08,4.29.2,4.5,0,.11-.11.15-2.15,1-3ZM166.39,124.25c-.65,0-.65,1,0,1s.65-1,0-1ZM24.89,125.25c-1.55,1.4,2.28,3.06,3,3.5,1.52.94,1.02,2.47,3,0-.74-1.26-5.14-4.27-6-3.5ZM47.89,125.25c-2.52-1.06-3.66,1.77-4.5,2-1.18.32-3.13-.21-4.5,0-.75,2.94,1.56,1.4,2.5,3,.57.96-.71,1.99-1,2-.16,0-1.06-1.61-3-1-.38.12-.58.83-1,1-2.2.91-1.18-1.41-1.5-2.5-.12-.4-1.74-1.8-2-1.5-.15.17.47,1.49-1,2.5-1.18.81-2.27-.05-2,1.5,1.93-.69,2.68,1.78,3.5,2,.88.24,4.94.19,6,0,.28-.05,1.05-1.59,3-1,.41.12.63.93,1,1,.83.15,3.28.19,4,0,1.27-.33,2.04-3.49,1.5-4-.77-.73-5.18,3.24-5-.5l4-4.5ZM52.89,126.25c-.76-.64-2.8.33-2,1,.76.64,2.8-.33,2-1ZM71.89,126.25c-1.03-1.03-3.39.32-.5,2,.73.42.68-1.82.5-2ZM60.89,130.25c.81-1-1.58-3.52-2-3-.81,1,1.58,3.52,2,3ZM75.89,127.25c-.76-.64-2.8.33-2,1,.76.64,2.8-.33,2-1ZM80.89,127.25c-1.42-1.42-3.51,1.24-.5,3,.77.45.65-2.85.5-3ZM152.89,131.25c.57-.46-2.17-2.83-3-2-1.63,1.63,1.92,2.87,3,2ZM126.89,130.25c-.11-.11-2.88-.1-3,0-1.09.91,1.32.92,1.5,1,.43.19,1.1,1.49,1.5,1,.07-.08.07-1.93,0-2ZM54.89,131.25c-1.91.05-4.89-.72-4,1.5,1.01,2.52,3.15.58,4-1.5ZM140.89,133.25c-1.03-1.03-3.39.32-.5,2,.73.42.68-1.82.5-2ZM156.89,137.25c.5-.41-1-1.25-1-1.5,0-.2,2.51-2.58,0-2.5.45,1.2-1.7,3.32-1,4,.07.07,1.92.07,2,0ZM166.89,133.25c-1.09-1.09-3.09.91-2,2s3.09-.91,2-2ZM35.89,135.25c-1.08-.87-4.63.37-3,2,.83.83,3.57-1.54,3-2ZM124.39,135.25c-.65,0-.65,1,0,1s.65-1,0-1ZM49.89,140.25c1.15-3.62-3-4.75-3-2.5,0,.2,2.21,2.44,3,2.5ZM58.89,136.25c-1.09-1.09-3.09.91-2,2s3.09-.91,2-2ZM115.39,136.25c-.65,0-.65,1,0,1s.65-1,0-1ZM145.39,136.25c-.65,0-.65,1,0,1s.65-1,0-1ZM46.89,143.25c.4-1.6-1.28-5.66-2.5-6-1.72-.48-5.31-.35-6.5,1.5.97,1.35,5.41-.09,6,.5.18.18-.23.96,0,1.5l3,2.5ZM74.89,137.25c-2.11-.26-2.26-.11-2,2l2-2ZM76.89,140.25c-.3.3-3.7-.3-4,0-.11.11-.1,2.89,0,3,.68.7,2.8-1.45,4-1,.07-.64-.13-1.87,0-2s2.31.24,3-1.5c.85-2.12-2.71-1.79-3-1.5-.25.25.25,2.75,0,3ZM112.39,137.25c-.65,0-.65,1,0,1s.65-1,0-1ZM143.89,138.25l-4,1c.58,1.29-1.33,2.65-1,3,1.93,2.05,1.87-1.93,2.5-2,1.95-.21,2.92.88,2.5-2ZM32.89,142.25c.95.95,4-1.78,3-3-.4-.48-1.07.81-1.5,1s-3.39.11-1.5,2ZM102.89,139.25c-.76-.64-2.8.33-2,1,.76.64,2.8-.33,2-1ZM117.89,141.25l-2-2c-.26,2.11-.11,2.26,2,2ZM55.89,140.25c-.55-.56-5.88,2.32-7,2-.08,1.1,1.81,1.85,2,2.5.51,1.75-1.65,3.72-1,4.5.15.18,4.01-1.93,4-2.5,0-.33-.92-.61-1-1-.69-3.3.44-2.23,2.5-2.5.89-.11.61-2.89.5-3ZM134.89,142.25l-2-2c-.26,2.11-.11,2.26,2,2ZM167.89,140.25c-.76-.64-2.8.33-2,1,.76.64,2.8-.33,2-1ZM43.89,142.25l-7-1c.15.8,2.08,2.88,2.5,3,.61.17,1.37-.17,2,0,.41.11.67.99,1,1,.6.02,2.1-2.45,1.5-3ZM173.89,141.25c-1.03-.42-3.01.95-3,1.5,0,.33.88.58,1,1,.48,1.65-3.39,2.9,2,2.5v-5ZM90.89,144.25c.64-.76-.33-2.8-1-2-.64.76.33,2.8,1,2ZM33.89,143.25c-.76-.64-2.8.33-2,1,.76.64,2.8-.33,2-1ZM134.89,144.25c-2.44-.14-4.47-2.75-4,1,2.44.14,4.47,2.75,4-1ZM144.39,143.25c-.65,0-.65,1,0,1s.65-1,0-1ZM148.89,146.25l-5-.5c.76.63,6.71,5.83,7,5.5.47-.54.55-4.07-2-3v-2c2.66,2.66,2.66-5.66,0-3-.11.11-.11,2.89,0,3ZM34.89,147.25c.51-.41-2.1-3.75-4-.5-.44.75,3.78.68,4,.5ZM37.89,145.25c-.2.25.16,1.73,0,2.5-.04.2-1.89,1.84.5,2.5.91.25,2.5-1.1,2.5-1.5,0-.3-.79-.56-1-1-.24-.53-1.27-3.4-2-2.5ZM109.39,145.25c-.65,0-.65,1,0,1s.65-1,0-1ZM138.89,148.25c.58-.58-.88-3-1.5-3-.11,0-1.5,1.39-1.5,1.5,0,.62,2.42,2.08,3,1.5ZM47.89,146.25c-2.58-.15-3.08,2.87-6,2-.01,1.51,1.67.85,3,2.5,1.14,1.42.9,2.41,1,2.5.12.12,1.8.4,2-.5.58-2.56-1.88-.84-2-2-.06-.65-.11-2.36,0-2.5.2-.26,2.98.86,2-2ZM60.89,146.25c-1.09-1.09-3.09.91-2,2s3.09-.91,2-2ZM94.89,146.25c-.11-.11-2.89-.11-3,0s-.11,2.89,0,3c1.02,1.02,4.02-1.98,3-3ZM155.39,146.25c-.65,0-.65,1,0,1s.65-1,0-1ZM166.89,148.25l-2-2c-.26,2.11-.11,2.26,2,2ZM20.89,147.25c-4.63-.82-.66,5.62,1,4,.7-.68-1.45-2.8-1-4ZM101.89,147.25c-.11-.11-2.89-.11-3,0-2.66,2.66,5.66,2.66,3,0ZM132.89,149.25c-.96-3.14-2.37-.95-2.5-1-.83-.31-1.62-1.68-3.5-1,.96,3.14,2.37.95,2.5,1,.83.31,1.62,1.68,3.5,1ZM148.89,151.25l-7-3c-.88,3.35,2.57,1.53,3,2,.14.16-.5,3.34,1.5,4,1.6.53,3.16-2.42,2.5-3ZM30.89,149.25c-.11-.11-2.89-.11-3,0-2.66,2.66,5.66,2.66,3,0ZM70.39,149.25c-.65,0-.65,1,0,1s.65-1,0-1ZM80.39,149.25c-.65,0-.65,1,0,1s.65-1,0-1ZM124.89,151.25l-2-2c-.26,2.11-.11,2.26,2,2ZM60.39,150.25c-.65,0-.65,1,0,1s.65-1,0-1ZM126.39,150.25c-.65,0-.65,1,0,1s.65-1,0-1ZM162.89,152.25c.64-.76-.33-2.8-1-2-.64.76.33,2.8,1,2ZM23.39,151.25c-2.27.63-.91,3.53,1,3,2.27-.63.91-3.53-1-3ZM54.89,151.25c-1.52-1.52-4.76,4.24-4,5,.63.63,2.43-.6,3-1.5.13-.21-.15-.71,0-1,.23-.45,1.79-1.71,1-2.5ZM128.39,151.25c-.65,0-.65,1,0,1s.65-1,0-1ZM141.89,151.25c-.12-.1-2.89-.11-3,0-.95.95,1.78,4,3,3,.5-.41-1-1.25-1-1.5s1.5-1.09,1-1.5ZM63.89,152.25c-.07-.07-1.93-.07-2,0-.7.68,1.67,3.24,1,4-.12.13-2.97-.05-3,2,1.63-.52,2.25,1.36,3.5,1,.51-.15.86-1.54,2.5-1-.45-1.2,1.7-3.32,1-4-.26-.25-2.75.25-3,0-.19-.19.19-1.81,0-2ZM94.89,152.25c-.16-.18-3.8,1.79-4,2.5-.25.91,1.1,2.5,1.5,2.5.83,0,3.51-3.82,2.5-5ZM131.89,152.25c-1.09-1.09-3.09.91-2,2s3.09-.91,2-2ZM134.89,152.25c-.76-.64-2.8.33-2,1,.76.64,2.8-.33,2-1ZM153.89,152.25c-.11-.11-2.89-.11-3,0-1.02,1.02,1.98,4.02,3,3,.11-.11.11-2.89,0-3ZM30.89,153.25c-.83-.83-3.57,1.54-3,2,1.08.87,4.63-.37,3-2ZM43.89,153.25l-4,6c3.11-.68.82-2.82,1-3,.21-.21,3.8-.07,3-3ZM58.89,155.25l-2-2c-.26,2.11-.11,2.26,2,2ZM82.89,153.25c-2.88-.36-1.59.37-2,1.5-.14.38-1.85,1.5-.5,1.5.2,0,2.43-2.21,2.5-3ZM98.89,153.25c-2.11-.26-2.26-.11-2,2l2-2ZM162.89,154.25l-5-1,2.5,5,2.5-4ZM35.89,154.25c-1.09-1.09-3.09.91-2,2s3.09-.91,2-2ZM47.89,156.25c.64-.76-.33-2.8-1-2-.64.76.33,2.8,1,2ZM127.89,154.25c-1.09-1.09-3.09.91-2,2s3.09-.91,2-2ZM137.89,162.25c.47.57,1.99-1.85,2.5-2,8.43-.41-2.7-5.74-3.5-5-1.1,1.02,1.99,3.25,2,3.5,0,.18-2.05,2.22-1,3.5ZM101.89,158.25c.36-.29-1.36-3.3-3-.5-.44.74,2.76.69,3,.5ZM135.89,156.25c-.76-.64-2.8.33-2,1,.76.64,2.8-.33,2-1ZM155.89,156.25c-.88-.71-6,0-4,2,1.05,1.05,4.8-1.36,4-2ZM165.89,158.25c.17.17.94-.2,1.5,0,.38.14,1.5,1.85,1.5.5,0-.2-2.69-2.84-3-2.5-.07.07-.07,1.93,0,2ZM46.89,157.25c-1.08-.87-4.63.37-3,2,.83.83,3.57-1.54,3-2ZM27.39,158.25c-.65,0-.65,1,0,1s.65-1,0-1ZM167.89,160.25c-.13-.12-2.77-.59-3.5-1-.49,1.68-4.33,1.64-3.5,3.5,1.91,4.27,8.7-.96,7-2.5ZM92.89,160.25c-1.09-1.09-3.09.91-2,2s3.09-.91,2-2ZM159.89,160.25c-1.81-1.55-6.83,2.32-6,3,.74.61,3.37-.63,4.5-1,.94-.31,3.5-.29,1.5-2ZM142.89,164.25c.64-.76-.33-2.8-1-2-.64.76.33,2.8,1,2ZM107.89,163.25c-1.22-1.22-5.33,1.63-4,3,.68.7,2.8-1.45,4-1-.07-.64.13-1.87,0-2ZM153.89,166.25c-.99-.99-4.55,1.78-1.5,3,2.12.85,1.79-2.71,1.5-3Z"/>
      <path d="M5.89,77.25l-4-2.5c1-2.24-1.13-8.55-1-9,.77-2.79.38-3.69,0-6-.28-1.66.19-3.75,0-5.5l3,4.5c.76,2.3-.7,3.9-1,5-.14.52.77,1.71,0,5-1.01,4.32,3.63,4.35,3,8.5Z"/>
      <path d="M2.89,85.25c-.28,1.58.82,1.95,1,3.5.19,1.63.18,4.36,0,6-.04.36-.94.62-1,1-.2,1.35.93,4.59-1,4.5-.17-2.44.25-5.1,0-7.5-.04-.36-.95-.63-1-1-.19-1.44-.07-3.48,0-5,.08-1.62.83-2.85,2-1.5Z"/>
      <path d="M8.89,145.25c.98,2.86-1.8,1.74-2,2-.08.1-.06,1.92,0,2,.33.4,2-1.28,2,1.5,0,2-.01,1.57-2,1.5.69-1.93-1.78-2.69-2-3.5-.34-1.28,2.21-3.87,4-3.5Z"/>
      <path d="M18.89,166.25c.11.11.11,2.89,0,3-2.66,2.66-2.66-5.66,0-3Z"/>
      <path d="M89.89,166.25c1.09,1.09-.91,3.09-2,2s.91-3.09,2-2Z"/>
      <path d="M111.89,170.25c-1,.81-3.52-1.58-3-2,1-.81,3.52,1.58,3,2Z"/>
      <path d="M1.89,112.25c.18.18.23,2.42-.5,2-2.89-1.68-.53-3.03.5-2Z"/>
      <path d="M114.89,162.25c-.67.8-1.64-1.24-1-2,.67-.8,1.64,1.24,1,2Z"/>
      <path d="M11.89,8.25c.8.67-1.24,1.64-2,1-.8-.67,1.24-1.64,2-1Z"/>
      <path d="M17.89,5.25c.8.67-1.24,1.64-2,1-.8-.67,1.24-1.64,2-1Z"/>
      <path d="M176.39,151.25c.65,0,.65,1,0,1s-.65-1,0-1Z"/>
      <path d="M26.39,132.25c.65,0,.65,1,0,1s-.65-1,0-1Z"/>
      <path d="M21.39,3.25c.65,0,.65,1,0,1s-.65-1,0-1Z"/>
      <path d="M141.39,1.25c.65,0,.65,1,0,1s-.65-1,0-1Z"/>
      <path d="M59.89,40.25c1.69-.28,3.1,1.31,4,2.5,2.36,3.12,4.81,9,7.5,10.5.68.38,6.37,7.02,6.5,7.5.61,2.24-.29,6.42,1,9,1.36,1.87.96,3.9,4,2,1.46-.91.88-2.38,1-2.5.68-.7,2.8,1.45,4,1-.53,1.65.79,1.91,1,2.5.73,2.01.88,5.05,2,7,.3.52,1.1.95,1.5,1.5l1-2c2.46,1.87.73,1.69.5,2.5-.58,2,1.32,2.85,1,4-.62,2.24-4.62.58-6,3-.49.86.52,2.61-3.5,1.5-2.43-.67-.5-2.32-.5-2.5,0-2.81-7.88-12.9-9-17-.23-.85.23-2.15,0-3-1.62-5.97-9.84-18.73-14-25-.69-1.03-2.19-1.95-3-3l1,.5Z"/>
      <path d="M88.89,93.25c.18-.19,3.89,2.13,5,1,.17-.18-.22-.96,0-1.5.18-.43.93-.64,1-1,.2-.94-.24-3.26,0-3.5.19-.19,1.81.19,2,0,.23-.22-.55-2.05.5-2,.93,1.43,2.7,3.21,3.5,4.5.97,1.55,2.16,4.39,3,6,1.01,1.96,2.71,3.42,2,6-.15.56-2.01,1.73-2.5,2.5l-5-3c-2.73.15-6.12-3.74-8-6-.55-.66-2.37-2.08-1.5-3ZM101.89,96.25c.52-.42-2-2.81-3-2-.52.42,2,2.81,3,2Z"/>
      <path d="M84.89,55.25c.17.17.96-.22,1.5,0,1.32.55,1.63.61,3,1,.24.07,3.43,3.26,3.5,3.5.23.85-.23,2.15,0,3,.21.78,3.31,2.85,4,4,.49.82,1.24,3.28,1.5,4.5.38,1.77.65,1.7-1,3-1.56-1.65-7.99-5.71-8.5-7.5-.18-.62.18-1.38,0-2-.3-1.06-5.06-4.42-6-6-.12-.2-.97-1.88-1-2-.28-1.27.19-3.09,0-4.5,1.22.57,2.72-1.33,3-1,.32.37-.31,3.69,0,4Z"/>
      <path d="M82.89,94.25c.54.51-1.88,1.53-.5,2,3.93,1.35,6.08,6.69,10,8,.75,1.62,4.14,2.29,4.5,3.5.63,2.09-2.88,3.3-5,2-3.2-1.96-6.67-4.36-9.5-6.5-2.41-1.82-3.31-4.48-2.5-7.5.21-.8,2.41-2.06,3-1.5Z"/>
      <path d="M115.89,102.25c.84.84,2.35-1,2.5-1,.32,0,.57.84,1,1,.56.2,1.33-.17,1.5,0s-.22.96,0,1.5c.18.43.94.65,1,1,.31,1.78.27,6.01-1.5,6.5-.84.23-2.11-.21-3,0-.74.17-1.68,1.64-4,1-.85-.24-1.37-1.52-1.5-2.5-.15-1.13-.27-7.23,0-7.5.48-.48,2.98,1.47,2-4l2,2.5c.23.54-.18,1.32,0,1.5ZM119.89,110.25c.52-.42-2-2.81-3-2-.52.42,2,2.81,3,2Z"/>
      <path d="M79.89,87.25c-.96.96-2.84-1.42-3.5-2-3.5-3.08-4.44-5.56-7-9-.7-.93-2.62-2.81-1.5-4,.77-.82,2.91,1.19,3.5,2,2.09,2.86,3.57,4.27,4.5,7.5.25.87,5.34,4.16,4,5.5Z"/>
      <path d="M142.89,79.25l-3-4.5c-.85-6.01-4.8-10.22-7-16l-3.5-5.5c1.44,1.88,4.27,3.65,5.5,5.5,2.88,4.34,4.03,9.53,7,14l1,6.5Z"/>
      <path d="M141.89,116.25c-1.65.25-.96-1.35-1-2.5-.05-1.73.36-4.68,0-6-.14-.5-2.57-2.03-2-2.5.66-.54,3.48.57,4.5,1,.69.29,2.16.36,2.5,1.5.78,2.61-4.16,5.75-4,8.5Z"/>
      <path d="M72.89,86.25c.3.3.02,2.16-.5,3-2.18,3.56-9.93-3.7-8.5-5l9,2Z"/>
      <path d="M120.89,114.25c1.65,1.56-3.87,4.07-5,4.5-.5.99-1.93-.74-2-1-.15-.57-.12-3.37,0-3.5.24-.25,2.83.57,3.5-1,.74.41,3.37.88,3.5,1Z"/>
      <path d="M126.89,95.25c-1.12,1.01,4.4,6.14,4,7.5-.35,1.17-5.3,4.22-6,3.5-.26-.27.27-2.64,0-3-.2-.26-2.98.86-2-2,1.32.18,2.01,1.87,3,2.5,1.07.68,1.4-.97,3-.5.52-2.72-1.81-4.3-3-6.5.68-1.35-1.67-3.74-1-4.5.91-1.03,3.78,2.23,4.5,3,.97,1.88-1.74-.68-2.5,0Z"/>
      <path d="M108.89,79.25c-1.49,1.49-4.24-3.79-4-4,1.2-1.03,5.02,2.98,4,4Z"/>
      <path d="M129.89,112.25c2,2-3.12,2.71-4,2-.8-.64,2.95-3.05,4-2Z"/>
      <path d="M144.89,100.25c.11.11.1,2.88,0,3-.4.48-1.07-.81-1.5-1s-3.39-.11-1.5-2c.11-.11,2.89-.11,3,0Z"/>
      <path d="M85.89,46.25c-2.88.36-1.59-.37-2-1.5-.14-.38-1.85-1.5-.5-1.5.2,0,2.43,2.21,2.5,3Z"/>
      <path d="M118.89,82.25c.17.17-.2.94,0,1.5.14.38,1.85,1.5.5,1.5-.2,0-2.84-2.69-2.5-3,.07-.07,1.93-.07,2,0Z"/>
      <path d="M133.39,98.25c.11,0,1.5,1.39,1.5,1.5,0,1.42-2.92-1.5-1.5-1.5Z"/>
      <path d="M69.39,63.25c.65,0,.65,1,0,1s-.65-1,0-1Z"/>
      <path d="M88.39,46.25c.11,0,1.5,1.39,1.5,1.5,0,1.42-2.92-1.5-1.5-1.5Z"/>
      <path d="M81.39,41.25c.65,0,.65,1,0,1s-.65-1,0-1Z"/>
    </g>
  </g>
</svg>