<?xml version="1.0" encoding="UTF-8"?>
<svg id="Layer_2" data-name="Layer 2" xmlns="http://www.w3.org/2000/svg" viewBox="0 0 178.64 209.42">
  <g id="Elements">
    <g id="Element">
      <path d="M121.15,35.23c.15-.15.94.14,1.5,0l3.5,1.5c-1.03,1.85-3.85.99-3,3,.24.58,1.53.9,1,2-2.73,3.48-3.22,7.6-5,11.5.51.46,3.28-1.03,4-1.5,1.18-.77,1.23-4.88,3.5-5.5,1.32-.36,1.6.91,2,1,1.89.42,4.84-.25,7,0,.37.04.62.94,1,1,1.55.23,3.59-.31,5,0,.35.08.57.8,1,1,.32.15.8-.13,1,0,.85.54,2.16,2.4,1.5,3-.31.29-7.57.21-8.5,0-.4-.09-.68-1.36-2-1-2.62.72-5.41,1.17-8,2-1.67.53-4.52,1.32-6,2-.93.43-3.72,2.78-4.5,2-.25-.25.25-2.75,0-3-.19-.19-4.55-.13-5.5,0-.37.05-.61.92-1,1-.66.14-3.37.12-3.5,0-.28-.26.79-2.4-1-2l-1,4.5c-1.46.62-1.72,2.63-2,3-1.9,2.52-6.05,4.17-5,8,.39,1.44,4.49,2.15,5.5,3.5,2.04-.97,5.68,1,6,1s.62-.94,1-1c1.66-.28,3.75.19,5.5,0,.19,1.58-3.72,1.13-3,3.5.16.53,1.54.86,1,2.5,1.22-.57,2.72,1.33,3,1,.36-.42-.35-4.65,0-5,.92-.92,6.63,2.4,5-3.5-.05-.17-2.33-2.45-2.5-2.5-.84-.23-2.11.21-3,0-.39-.09-.61-.91-1-1-2.43-.57-4.78,1.58-8,1-.35-.06-.57-.82-1-1-.54-.22-1.33.17-1.5,0-.11-.11-.11-2.89,0-3,.25-.25,2.75.25,3,0,.19-.19-.27-1.03,0-1.5,1.29-2.27,5.39-.69,5-4.5,2.64-1.09,2.39,2.61,2,3-.49.49-3.87-1.36-3,2,1.48-.55,2.33,1.01,2.5,1,.31-.01.56-.79,1-1,.31-.15.8.13,1,0,1.64-1.03,2.79-3.07,5-4,2.89-1.21.93-1.42,1.5-2,.14-.15,2.89.21,4-1l-3,5,4,2-4.5-1c-4.93,5.67,1.93,3.43,2.5,4,.25.25-.25,2.75,0,3,.18.18.96-.23,1.5,0,1.14.48,3.73,2.93,4,3,.91.25,3.23-.27,3.5,0,.34.34-.94,2.89,2,2-.31,1.47,2.72,4.47-.5,4-2.01-.3-1.88-1.38-3-2-.25-.14-.75.14-1,0-1.5-.83-3.22-2.54-5-2-.4.12-.61.89-1,1-.74.2-2.29-.21-2.5,0s.21,1.78,0,2.5c-.17.56-1.85,1.45-2,2-.2.73-.18,4.18,0,5,.08.37.83.57,1,1,1.62,4.08,4.83,7.41,7,11,.88,1.45,2.92,2.99.5,4.5-.49-.05-2.13-2.51-3-3-.47-.26-1.31.19-1.5,0s.27-1.03,0-1.5c-1.25-2.2-3.8-1.31-4-1.5-.69-.67,1.69-3.33,1-4-.19-.19-1.81.19-2,0s.26-1.03,0-1.5c-1.02-1.83-5.12-4.25-6-6-.46-.91,2.97.27,2-2-1.08-2.53-2.44-.19-3.5-.5-1.29-.38-1.73-3.65-3-4-.79-.22-3.29,1.66-5-1-2.43.07-4.61-3.7-7-3-1.85.55-1.02,3.57-2.5,4.5v2l-3,5.5-1-4.5c.61-2.96-.42-4.9-1-7-.43-1.56,3.88-4.21-2.5-3.5-1.25-1.88-5.52-1.55-6.5-3.5s2.46-1.76,3.5-1.5c.39.1.6.89,1,1,1.03.29,2.68-1.75,4.5-1l-1-4h-2c.98-2.14-3.27-9.72-2-11,.11-.11,2.78-.39,3,.5.29,1.2.26,3.16,2,1.5.55-.52-1.85-1.97-2-2.5-.33-1.19,1.84-3.25,2-4,.44-2.01-.98-6.76,1.5-7.5.72-.21,2.29.21,2.5,0,.29-.29-.25-3.4,0-4.5.08-.36.8-.57,1-1,.14-.31-.13-.78,0-1,.25-.42,2.32-2.5,2.5-2.5s2.45,2.33,2.5,2.5c1.21,4.2,2.94,5.29,4,9,.16.54,3.83,5.42,4,6,.27.89-.21,3.01,1.5,3.5,1.59.45,2.01-.24,3-1,1.15-.89,4.03-2.77,4.5-3.5.71-1.1,1.32-3.74,2-5,.37-.69,1.86-1.49,2-2,.25-.91-.27-3.23,0-3.5ZM103.15,46.23c-.19-.19-1.03.27-1.5,0-1.91-1.09-1.16-2.3-1.5-3.5-.24-.86-3.05-1.97-2-4.5l-4,6.5c.74,2.28-1.53,4.26-1,6,.13.41.93.63,1,1,.44,2.44-.47,4.54,1,7,.5.84,1.85,1.62,2.5,2.5,1.13-.4.26-2.46.5-3.5.52-2.27,4.85-6.46,5-7,.17-.61.16-4.34,0-4.5ZM110.15,51.23c-.76-.64-2.8.33-2,1,.76.64,2.8-.33,2-1ZM113.65,65.23c-.65,0-.65,1,0,1s.65-1,0-1ZM95.65,72.23c-.65,0-.65,1,0,1s.65-1,0-1Z"/>
      <path d="M53.15,104.23c.25.25,2.75-.25,3,0,.19.19-.26,1.03,0,1.5.34.61,3.24,4.35,3.5,4.5.47.27,1.31-.19,1.5,0s-.27,1.03,0,1.5c1.39,2.45,4.65,1.16,5,1.5.69.67-1.69,3.33-1,4,.73.71,4.14-2.35,3,4.5-.06.38-1,.67-1,1,0,.39,1.84,1.44,2,2,.34,1.18-.42,2.41,1.5,3.5.62.35,2.39-.7,1.5,2.5-.11.39-.86.59-1,1-.2.58.18,1.36,0,2-.14.5-3.46,2.86-2,4.5.17.19,3.31-1.9,5-1-.66-5.06,3.96,1.16,5,0,.33-.37-.3-3.41,0-4.5.15-.54,1.75-1.37,2-2,.88-2.21-1.73-1.27-2-1.5-1.26-1.05,1.89-.89,2-1,.21-.21-.2-1.76,0-2.5.34-1.24.63-2.65,1-4,.23-.85,3.06-1.97,2-4.5,2.18.86,2.83,3.71,5.5,3,.37-.1,1.09-1.5,1.5-1,.14.17.22,2.84,2,3.5l1,5.5-3-3.5c-1.61-.77-.72-3.17-1-3.5-1.39-1.63-2.27,1.21-2.5,2-.38,1.27-.39,2.89-.5,3-.69.7-2.8-1.45-4-1l2.5,3c2.41-.52,2.34,2.84,2.5,3,.19.19,1.81-.19,2,0,.18.18-.23.96,0,1.5s1.36.7,1,2c-.11.4-.91.61-1,1-.46,2,1.71,5.81,1,6.5-.16.16-3.69.13-4.5,0-.41-.07-3.11-.75-4-1-.56-.16-2.36-3.14-3.5-2-.33.33.73,4.19-1.5,5-1.16-.19-.17-2.65-.5-3-.63-.68-3.45.87-3,2.5.11.41.99.66,1,1,0,.13-1.84,1.7-1,2.5,1.06,1,5.59-1.42,6-1,1.08,1.11-1.01,3.32-1,3.5.02.27,1.5,1.09,1,1.5-.24.2-1.81-.19-2,0-.87.86,1.23,3.74,1,5l-2-4c-2.44.32-2.94-1.86-4-3.5-.16-.24.15-.77,0-1-.35-.53-3.26-3.43-3.5-3.5-1.95-.54-4.55,1.32-3.5-2.5.05-.19,1.82-1.68,1-2.5-.48-.48-2.98,1.47-2-4l-4,3c-.2-1.73-.08-3,1.5-4,.21-.13.7.15,1,0,.43-.22.64-.9,1-1,1.02-.29,2.76,1.76,3.5,1,.1-.11.1-2.89,0-3-.77-.82-2.31.95-2.5,1-.96.27-2.5-1.18-2.5-1.5,0-.44,2.12-1.46,2-2.5-2.55,1-2.49-2.29-2-4.5.09-.4,1.36-.68,1-2-.21-.75-2.42-1.46-2-3,.11-.41,1-.67,1-1s-1.63-1.34-2-2c-.26-.47.19-1.31,0-1.5-.11-.11-2.89-.1-3,0-.27.23,1.75,2.28,1,3-.37.36-2.87-.95-2,2l5,1c1.08,3.14-3.01,1.08-2,3.5,1.36,3.26,0,2.33,0,3,0,.32.88.58,1,1,.38,1.32-1.38,1.68-1,3,.15.52,2,1.11-.5,2.5-.47.26-1.31-.19-1.5,0-.28.28.17,5.11,0,6.5-.05.37-.94.62-1,1-.23,1.53.35,3.7,0,5-.1.38-1.24,1.76-2,1-1.09-1.09-2.64-3.74-4-1-.22.45,3.94.9,3,3.5-1.46-.68-1.68-1.46-3.5-2-.59-.17-1.34.16-1.5,0-.21-.21.21-1.78,0-2.5-.28-.95-4.18-3.7-5-5l3.5-.5c3.2,2.36,6.39,1.21,3.5-2.5-1.62-2.08-2.6-1.08-3.5-1.5-1.38-.64-4.88-3.31-6-3-3.33.92-1.84-1.4-4-2-.91-.25-3.23.27-3.5,0-.19-.19.26-1.03,0-1.5-.81-1.45-3.87-1.97-5-4-.26-.47.19-1.31,0-1.5s-1.03.26-1.5,0c-1.16-.65-4.98-5.59-4.5-6,1.09-.94,5.04,3.34,6,4.5.13.16-.18.72,0,1,1,1.58,3.15,1.48,4,3,.06.11.08,2.6,1,1.5.32-.38-1.13-3.28,3.5-2,.18.05,1.91,1.43,3,2,2.5,1.31,8.05,5.65,7.5,1,1.77-.47.68,1.68,1,2,.19.19,1.03-.26,1.5,0,4.48,2.5.5,4.04.5,4.5,0,2.36,8.98,4.61,3-1-.64-3.06,2.11.18,2-1-.03-.3-1.55-.93-1-2.5-5.89,3.41-.84-2.85-2-4-.14-.14-4,.19-2-2,.26-.28,2.4.79,2-1-1.6-.47-1.93,1.18-3,.5-2.11-1.33-4.13-6.12-5.5-6.5-1.05-.29-2.77.2-4,0-.38-.06-.67-1-1-1-.4,0-1.57,2.74-4,2-.41-.12-.63-.93-1-1-1.21-.22-2.78.22-4,0-.35-.06-.57-.82-1-1-.54-.22-1.33.17-1.5,0s.22-.96,0-1.5c-.18-.43-.91-.64-1-1-.4-1.72-.07-3.43,1.5-4.5l3,6c2.22.46,3.31-.18,2.5-2.5-.59-1.69-2.89-1.38-3-1.5-.26-.28.25-2.75,0-3-.2-.2-1.75.19-2.5,0-.39-.1-.6-.88-1-1-1.35-.4-1.87,2.1-3.5-.5-.58-2.25,2.28-1.71,3.5-1.5,1.66.28,4.07,2.26,5,2,2.23-.62,3.2.85,6,2,.54.22,1.3-.17,1.5,0,.16.13-1.72,2.56-1,4,3.02-.57,4.42,2.77,4-1l4.5-1c2.59,1.59.11,2.14.5,3.5.14.5,1.56.91,1,2l5,5.5c-.89-2.94,1.59-1.62,2-2,.45-.41-.74-1.03-1-1.5-.77-1.42-2.93-3.75-3-4-.43-1.54-.05-1.91-1-4-.15-.32.13-.8,0-1-1.67-2.64-2.11-.12-3.5-.5-.17-.05-2.5-2.32-2.5-2.5,0-.22,1.58-1.44,1-4-.08-.36-.82-.57-1-1-.22-.54.17-1.33,0-1.5s-.96.22-1.5,0c-.42-.17-.62-.88-1-1-1.76-.55-3.24,1.28-3.5,1-.82-.89.96-2.32,1-2.5.21-.89-.23-2.16,0-3,.98-3.61,5.05.48,6.5,1.5,1.32.92,5.94,3.61,6.5,5.5.21.72-.21,2.29,0,2.5ZM48.65,103.23c-.65,0-.65,1,0,1s.65-1,0-1ZM55.15,111.23c.82-1.88-2.43-7.53-4-6-1.03,1,1.53,2.83,2,3.5.3.42.3,2.52,2,2.5ZM57.15,125.23c.64-.76-.33-2.8-1-2-.64.76.33,2.8,1,2ZM86.15,132.23c-.76-.64-2.8.33-2,1,.76.64,2.8-.33,2-1ZM86.15,135.23l-5,.5,3,4.5c1.26,1.3,1.92.09,2-1.5.04-.78.12-3.38,0-3.5ZM72.15,142.23c.98-1.2-2-4.92-4-1.5-.53.9,1.63.28,2.5.5.37.09,1.09,1.5,1.5,1Z"/>
      <path d="M28.15,82.23c1.17,1.35,1.92.12,2-1.5.07-1.51-.32-3.84,0-5,.16-.59,4.12-5.9,5.5-5.5l4.5-5c.52,1.6-1.81,3.63-2,4.5-.26,1.18.3,2.93,0,4-.15.55-1.84,1.44-2,2-1.55,5.38-2.52,8.48-1,14,.32,1.15-1.6,2.03-1,4,.52,1.7.96,2.62,0,5-.27.67-1.71,2.32-2,3-.23.54.17,1.33,0,1.5-.12.12-2.91.15-3.5,0-2.17-.55-1.27-4.76-1.5-5-1.22-1.29-4.76,4.28-6,3-.12-.12.29-1.97-1-2.5.85-.34.36-3.78,0-5-.11-.38-.82-.58-1-1-.22-.54.17-1.33,0-1.5-.3-.3-3.7.3-4,0-.27-.27.2-3.39,0-4.5-.07-.4-1.55-.9-1-2.5-6.03,3.24-.09-2.7,0-6-3.43.86-1.62-3.21-2-6,1.79-.4.72,1.74,1,2,.9.83,2.25-.92,2.5-1,3.14-.95,4.24,2.82,3.5,5.5-.44,1.6-3.96,1.67-3,7,.06.35.82.57,1,1,.22.54-.17,1.33,0,1.5.14.14,3.86.14,4,0,1.04-1.01-.97-3.32-1-3.5-.91-5.57.12-3.79,2.5-4.5.24-.07,3.5-3.25,3.5-3.5,0-.3-.79-.56-1-1-1.76-3.76.45-5.67,2-9,.23-.5-.19-1.34,0-2,.21-.72,2.87-2.51,3.5-3.5,1.47.97.26,2.5-.5,3.5-2.15,2.81-2.23,4.71-3,8-.58,2.49,1.41,3.87,0,6,1.61.76.72,3.18,1,3.5ZM24.15,85.23c.18-.22.25-4.44-.5-4-3.25,1.9.09,4.51.5,4ZM28.65,84.23c-.65,0-.65,1,0,1s.65-1,0-1ZM27.65,88.23c-.65,0-.65,1,0,1s.65-1,0-1ZM21.65,89.23c-1.48,0-1.48,3,0,3s1.48-3,0-3ZM29.65,95.23c-.65,0-.65,1,0,1s.65-1,0-1Z"/>
      <path d="M56.15,40.23c.3.3-.3,3.7,0,4,.21.21,1.78-.21,2.5,0,.58.17,1.98,2.57,2.5,2,.19-.21-.19-1.81,0-2,.18-.18,4.82-.18,5,0,.13.13-.35,1.82,1.5,3,1.61,1.03,5.61,4.89,6,5,.72.21,2.29-.21,2.5,0,.9.9,3.24,7.04,6.5,7l2.5,2c-2.66-.3-5.97.42-8.5,0-2.13-.35-3.21.4-5,0-.61-.14-2.15-1.82-4-1l.5-3c-1.89-.41-.35,2.05-1.5,2-2.08-.09-2.51-2.73-5-2-2.25.66-1.13,4.11-1.5,5.5-.22.83-2.49,2.06-3,1.5-.14-.15-.14-3.86,0-4,.19-.19,1.77.2,2,0,1.1-.92-1.39-.94-1.5-1-1.83-1.02-1.38-2.89-1.5-3-.58-.54-6.33,1.52-3.5-3,.84-1.35,5.22-1.32,7-1,.38.07.6.9,1,1,3.14.78,5.7,2.07,8,1l3.5,4-1-4.5c-.95-.5-4.21-3.5-4.5-3.5-.33,0-.61.92-1,1-4.17.87-1.91-2.41-2.5-3-.23-.23-5.53-.16-6.5,0-2.48.41-3.17.63-6,0-4.56-1.02-6.09,1.73-9,4-2.28,1.78-5.54,3.74-7.5,6.5-.13.18-.52,2.51-1.5,2.5-.18,0-2.5-2.32-2.5-2.5-.02-1.44,4.34-1.31,5-3l-3-1.5c2.89.54,1.55-.75,2-1.5,1.56-2.61,3.09.28,4-.5.48-.41-1.37-1.22-1-2.5.28-.98,4.23-3.62,5-5,.2-.35-.48-2.33,1.5-1.5.42.18.62.88,1,1,2.97.9,4.54-3.6,6-4,.66-.18,5.31-.19,5.5,0ZM55.15,47.23c.64-.76-.33-2.8-1-2-.64.76.33,2.8,1,2ZM43.65,46.23c-.65,0-.65,1,0,1s.65-1,0-1ZM57.65,46.23c-.65,0-.65,1,0,1s.65-1,0-1Z"/>
      <path d="M118.15,118.23c3.15-1.3,1.54,3.6,2.5,3,2.64-1.64.11-2.16.5-3.5.54-1.84,5.46-2.87,7.5-2.5.14.03,1.64,1.82,2.5,1,.4-.38-.98-3.33,1-3-.65,2.57,4.58,4.58,4,6.5-.79,2.59-3.95,2.14-5.5,2.5-.37.09-1.04,1.59-3,1-.4-.12-.61-.89-1-1-1.81-.5-4.56,3.66-7,3-2.18-.59-1.4-5.27-1.5-7Z"/>
      <path d="M94.15,104.23c.19.19,1.81-.19,2,0,.14.14.14,3.86,0,4-.49.49-5.98.63-6-2.5-.01-1.58,1.34-1.8,1-3-.38-1.33-2.62-2.89-2-5,1.02-3.48,1.61-3.09,2-8,.48-6.02,5.07-3.35,4,1-.97,3.94.12,6.58,0,7-.15.55-1.85,1.45-2,2-.36,1.32.88,1.56,1,2,.2.73-.21,2.29,0,2.5Z"/>
      <path d="M68.15,102.23c-.48,4.38.41,2.38,2.5,3,.52.15,1.31,1.62,2,2,.47.26,1.31-.19,1.5,0,.25.25-.21,2.56,0,3.5.09.37,1.87,2.55,2,3,.58,1.98-.95,2.71-1,3-.22,1.22.29,2.93,0,4-.22.82-2.69,1.57-2,3.5-.85-.85-2.89-.89-3-1-2.1-2.13,1.87-1.87,2-2,.23-.23.18-5.65,0-6.5-.25-1.18-2.45-3.08-3-4-.29-.48-.72-2.58-1-3-1.42-2.17-6.07-4.19,0-5.5Z"/>
      <path d="M65.65,63.23c.67-.18,3.26-.16,4,0,.36.08,2.38,1.71,3,2,.5.23,1.34-.19,2,0,.54.15,2.79,2.53,2.5,3.5-.71,2.4-5.62,1.19-7.5,1.5-.38.06-.67,1-1,1-.3,0-.56-.79-1-1-.32-.15-.8.13-1,0-2.5-1.58-3.86-6.22-1-7Z"/>
      <path d="M60.15,75.23c-1.83-.43-2.64,1.96-4,.5l-4,.5,3-2c-1.28-2.68-.54-3.56-4-3,.01-1.13,1.55-1.69,2-2.5.5-.9-.5-2.6,3.5-1.5,1.08.3,4.36,7.1,3.5,8Z"/>
      <path d="M81.15,84.23c-.54-.5,1.72-.78,0-2.5s-.26-1.11,0-2c.58-2-1-2.83-1-3,0-1.17,4.81-2.96,6.5-2.5,2.97.81.41,3.98-.5,5.5-.16.26.14.78,0,1-.54.81-4.02,4.41-5,3.5Z"/>
      <path d="M157.15,72.23v3c-1.46.28-6.18,1.82-7,1-.19-.19.27-1.03,0-1.5-1.09-1.92-2.31-1.16-3.5-1.5-.68-.19-3.28-3.21-2.5-4,1.25-1.27,3.8,2.81,4.5,3,1.62.44,2.35-2.75,5-2,.83.23,1.57,2.69,3.5,2Z"/>
      <path d="M57.15,87.23c-.97.97-7.95-3.77-7-6-1.03-.12-2.07,2-2.5,2-.15,0-1.59-1.84-2.5-1-.12.11-.19,3.03-1.5,3-.23,0-1.84-1.72-1.5-2s1.86.58,2-.5c.1-.78-.16-2.34,0-2.5.3-.3,7.73-.21,8.5,0,.92.25,5.9,5.6,4.5,7Z"/>
      <path d="M15.15,173.23c.25.25.24,6.75,0,7-.67.69-3.32-1.68-4-1-.97.98,2.76,3.52-.5,3-1.57-1.07-1.9-2.78-1.5-4.5.09-.36.82-.57,1-1,.22-.54-.17-1.33,0-1.5.19-.19,1.81.19,2,0,.13-.13-.11-.9,0-1.5.16-.89,2.89-.61,3-.5Z"/>
      <path d="M76.15,95.23c.72,1.44-1.16,3.87-1,4,.26.22,1.78-.21,2.5,0,2.2.65,3.91,5.34,1,7-1.04-.35-.16-1.67-1-3-.79-1.25-1.83-.88-2-1-1.72-1.21-2.32-2.94-3.5-4.5-.05-1.04,1.7-.27,2-.5.27-.21-.86-2.97,2-2Z"/>
      <path d="M37.15,176.23c.12.12.12,2.79,0,3.5-.12.67-1.93.71,0,2-1.69.5-1.63,4.32-3.5,3.5-2.14-.94-1.26-2.48-1-4,.03-.19.47-.31.5-.5.2-1.11-.27-4.23,0-4.5.14-.14,3.86-.14,4,0Z"/>
      <path d="M91.15,143.23c.19.19-.19,1.81,0,2s1.03-.26,1.5,0c.43.24,3.43,3.26,3.5,3.5.29,1.03-1.75,2.68-1,4.5-3.71,1.08-1.26-4.24-2-5-.14-.15-3.86-.85-4-1-.13-.13.11-.9,0-1.5-.2-1.09-1.68-.24-2-.5-.8-.66,2.96-3.04,4-2Z"/>
      <path d="M101.15,126.23c-.15.14-3.86.14-4,0-.37-.37.74-3.76-1-4.5,1.68-1.96.2-5.38,4-3,2.34,1.46.19,2.36,0,3-.51,1.65,1.66,3.88,1,4.5Z"/>
      <path d="M108.15,186.23c-.33-.39-.33-8.07,1.5-8,.42.02,4.48,4.01,3.5,5.5l-5,2.5Z"/>
      <path d="M78.15,126.23c.19.23.21,5.79,0,6-.68.7-2.8-1.45-4-1-.94-2.9,1.73-1.69,2-2,.94-1.07-3.91-1.11-3-4,.89.06,3.3,2,3.5,2,.26,0,1.09-1.5,1.5-1Z"/>
      <path d="M73.15,96.23c-.11.1-2.88.39-3-.5-.1-.78.16-2.34,0-2.5-.19-.19-1.03.26-1.5,0-.78-.43-2.99-3.55-3.5-3-.19.2.26,1.03,0,1.5-.41.74-2.06,2.21-3,2.5.62-1.54-1.87-5.14-1-6,.37-.36,3.22.02,4,.5,2.01,1.23,5.04,2.84,6.5,4.5.58.66,2.36,2.2,1.5,3Z"/>
      <path d="M4.15,94.23c.42,2.26,1.48,4.01,1,6.5l-2,2.5c-.23-1.7.34-3.96,0-5.5-.05-.21-.76-.47-1-2-.3-1.97.41-1.59,2-1.5Z"/>
      <path d="M70.15,148.23c-.13.13-.9-.11-1.5,0-1.17.22-.13,2.55-.5,3-.25.31-1.88-1.1-2-1.5-.55-1.88,1.29-2.75,1-4.5,1.84-.66,3.82,2.18,3,3Z"/>
      <path d="M159.15,2.23c.25-.25-1.03-3.04,2.5-2,2.37.7.37,5.79,3.5,3.5.5-.99,1.93.73,2,1,.31,1.13-2,3.77-2,4,0,.39,1.84,1.44,2,2,.4,1.39,2.13,8.53,2,9-.11.4-.91.62-1,1-.34,1.53.4,7.1,0,7.5-.19.19-1.81-.19-2,0-2.13,2.13,1.86,1.86,2,2,.19.19.15,4.61,0,5.5-.17,1.02-1.06-.26,0,2,.61,1.29.66,3.03,1,4,.14.39.83.59,1,1,.91,2.18-1.75,1.29-2,1.5-.32.27,2.3,3.4,2,4.5-1.17,4.24.17,6.35,0,7-.14.52-3.12,2.35-2,3.5.46.47,1.79-1.93,2-.5-.81,1.87.84,3.35,1,4,1.18,4.91.02,9.47,1,15,.07.38.95.63,1,1,.21,1.7-.35,8.08,0,8.5,2.41,2.87,1.89-4.03,2-4.5.1-.41,1.36-.68,1-2-.11-.4-.91-.62-1-1-.2-.87-.24-7.21,0-7.5.25-.31,1.89,1.11,2,1.5.87,3.19-.77,9.55,0,13,.09.38.89.6,1,1,.36,1.32-.91,1.6-1,2-.46,2.06.32,5.23,0,7.5l-1.5-2c-4.23,4.71.22,3.72.5,4,.83.83-.97,2.36-1,2.5-.2,1.11.65,7.75,1,9,.15.55,1.85,1.45,2,2,.43,1.56-.36,2.9,0,5,.81,4.74-.94,7.71,0,13,.57,3.21.71,8.48,0,12-.6,2.96-1.68,4.06-1,7,.63,2.74-2.63,10.26-2,13,.34,1.49,1.56,5.98,1,8-.23.84-2.76,1.5-2,4,1.14,3.77-.19,2.13-1,5-.36,1.26,1.51,1.87,1,3.5-3.91.75-3.48-6.41-5.5-7-.59-.17-2.39-.35-2.5.5-.39,2.99,2.22,2.93,2,5.5-2.86.98-1.74-1.8-2-2-1.31-1-3.57,2.53-4,2-.67-.82,1.71-3.29,1-4-.39-.39-2.74-.11-3.5,1-.55.81-.78,3.7-2.5,2-.32-.31.78-4.04-1.5-5-1.05-.05-.27,1.78-.5,2-1.93,1.89-1.83-1.2-2-1.5-.49-.87-2.41-2.12-3-1.5-.14.15.2,2.89-1,4l3,1.5c-1.75,2.89-3.31.48-3.5.5-1.27.11-1.51,4.83-3.5,3-.15-.14-.27-2.93-2-3.5.49-2.51-.95-4.34-2-6.5,4.11-.53,2.66,4.67,3,5,.17.16,3.81.75,3-1.5-1.86-1.23-.58-3.5-1-5-.45-1.62-2.87-1.37-3-1.5-.23-.22.55-2.05-.5-2-2.98,1.03-2.25,5.75-2.5,6-.33.33-5.12-1.18-2.5,3,1.06,1.69,3.25.75,3.5,1s-.16,3.04,0,4c-1.03.12-2.07-2-2.5-2-.32,0-.57.85-1,1-.56.2-1.32-.17-1.5,0-.28.26.79,2.4-1,2,.93-2.91-1.65-1.65-2-2-.25-.25.84-4.09-1.5-3-1.02.48-1.6,1.6-3.5,1,.53,4.71-9,5.78-9,1.5,0-1.91,1.8-2.3,2-3,.33-1.17-.97-1.42-1-3-.02-1.06,1.67-.22,2-.5s-1.29-2-1.5-2c-1.22,0-3.63,6.9-3.5,8.5l-2,2.5c-.18-2.47.85-5.66-1.5-7-1.07-.61-2.26.8-1.5-3.5.07-.39,1-.67,1-1,0-.17-1.57-.99-1-3,.12-.42,1-.67,1-1,0-.93-3.24-1.64-4-3-.35-.63.7-2.38-2.5-1.5-.44.12-.68,1.36-2,1-5.06-1.39-3.7,1-8,2-2.43.57-4.78-1.58-8-1-.37.07-.6.89-1,1-1.74.47-2.99-1.11-2.5,2-2.16-2.27-3.36-1.5-5.5-2-.4-.09-.63-.94-1-1-.81-.13-4.34-.16-4.5,0-.4.38.98,3.33-1,3l-3-4c-.18,1.41.28,3.22,0,4.5-.08.36-2,2.82-2,3,0,.12.77.49,1,2,.32,2.09-1.59,1.98-2,1.5-.52-.62.5-9.47,0-10-.13-.13-2.86-.61-3.5-1-.74,1.74-4.13.63-4.5,1-.76.75,1.36,2.37.5,3-.77-1.22-2.24-.77-3-2-1.3-2.1.89-4.72-2.5-4,.73,1.79-2.01,3.03-2,3.5,0,.27,3.52,2.98,2,4.5-.36.36-2.46-1.04-2,1.5.2,1.09,1.68.24,2,.5.34.28-1.29,2-1.5,2-.18,0-2.45-2.33-2.5-2.5-.22-.81.16-2.05,0-3-.07-.38-1-.67-1-1,0-.22.73-2.43,1-4,.19-1.09,1.15-2.37,1-2.5-1.31-1.12-4.83,1.2-5,1-.18-.22.26-1.03,0-1.5-.3-.53-1.16-.95-1.5-1.5-.83-1.34.03-2.65-1-3-.87.48-2.12,2.42-1.5,3,.24.23,2.05-.55,2,.5-1.95,1.96-.65,5.68-1,8.5l2-5,3,5c-1.28-.59-5.77,3.74-6,4.5-.38,1.22.41,3.01-2,3.5l1-8-4,4,1-4.5c4.21-2.54-.99-3.85-1-5,0-.25,1.5-1.09,1-1.5-.15-.13-3.86-.14-4,0-.32.31-.13,3.03,1,3.5-.98,1.08-2.44-2.16-3-1.5-.47.55,1.29,4.89-2.5,7-.47.26-1.31-.19-1.5,0-2.13,2.13,1.86,1.86,2,2,.16.16.16,3.79,0,4.5-.08.38-.88.6-1,1-.37,1.29,1.48,2.09,1,2.5-.31.26-2.75-.25-3,0-.6.6,1.4,6.45-2,7,.26-2.36-.37-5.26,0-7.5.06-.38,1-.67,1-1,0-.74-1.82,0-1-3,.06-.21-.79-3.26-1-4-.23-.83-2.69-1.57-2-3.5-1.87.46-2.77,2.49-1.5,4l-.5,3-2-1.5v-7.5c-1.93-.19-.29,3.4-2.5,4-.85.23-2.15-.23-3,0-.68.19-3.29,4.28-4.5,3-.5-.53.02-2.87,1-3.5,1.45-.93,2.24-.35,3-3,.21-.73-.21-2.29,0-2.5.11-.11,2.89-.1,3,0,.37.32-2.2,2.24-.5,3,3.11-4.08,5.78-8.78-1-4-.88-.66,1.27-2.12.5-3-.14-.16-3.08,1.94-4,1-.3-.31.31-3.68,0-4-.15-.16-3.24.46-4-1.5,1.1-1.83,4.29,1.21,5,.5.11-.11.39-2.89-.5-3-.78-.1-2.34.16-2.5,0-.18-.18-.18-4.82,0-5,.16-.16,1.72.09,2.5,0,.94-.11.16-1.93,1.5-2.5-1.08-.88-1.08,1.26-3,0s-.74-5.59-1-8c-.04-.36-.94-.62-1-1-.18-1.12.25-4.25,0-4.5-.14-.14-4.11.14-2-2,.56-.57,4.07,1.92,5,1,.38-.37.13-2.77-1-3.5-1.37-.88-2.87-.02-2-3,.16-.54,3.12-2.35,2-3.5-.52-.54-1.51,1.88-2,.5-.35-1.01-1.37-3.07-1-3.5.43-.5,1.08,1.71,3,.5,1.13-.71,1.37-3.14,1-3.5-.78-.76-2.36,1.36-3,.5-5.53-1.72-.6.81-3,3l.5,5.5c-.84-.8-2.12-2.54-2.5-3.5-.15-.38-.97-2.83-1-3-1.12-5.44,2.4-2.9,3-3.5.21-.21-.2-1.76,0-2.5.11-.39.88-.6,1-1,.59-1.96-.93-2.67-1-3-.74-3.57.18-3.34,3-4.5l.5,3c-1.6,2.19.51,3.56,2,5l-.5-5c5.35,0-.63-3.22-1-4.5-.57-1.99.93-2.67,1-3,1.01-4.91-1.66-3.16-2-3.5-.32-.32.94-1.75-2.5-3-1.11-.41-.26-2.97-.5-4l3,4c2.71.52,1.53-.58,2.5-2,.76-1.11,3.12-1.39,3.5-1,.23.23.18,5.68,0,6.5-.09.38-.89.6-1,1-.1.36,1.58,5.38,2,7,.57,2.22,4.15,9.45,4,10-.11.41-1,.67-1,1,0,.3,3.05,2.29,2,3.5-.12.14-2.97-.05-3,2,1.26-.57,2.69,1.33,3,1s-.82-2.36,1-2l2,5.5c2.66,1.38,8,15.5,10.5,15.5.33,0,.67-1,1-1,1.17,0,1.98,3.71,2.5,4.5,2.18,3.29,5.36,4.81,8.5,6.5.69.37,1.49,1.86,2,2,1.09.3,2.91-.3,4,0,.7.19,2.3,2.81,3,3,1.07.3,2.82-.26,4,0,1.48.32,5.91,3.38,8,4,3.4,1,7.27.39,11,1,.38.06.65.98,1,1,1.02.05,1.93-2.97,1.5-4l3.5,4,2.5-1c-1.25-1.14-.43-3.02.5-3,1.02.02,1.76,3.63,3,4,1.93.58,3.01.12,2.5-2,1.1-.08,1.87,1.83,2.5,2,1.32.36,1.61-.92,2-1,.91-.18,2.12.2,3,0,.39-.09.62-.92,1-1,.95-.19,3.25.24,3.5,0,.09-.09.42-1.66-.5-2-5.79-2.16,1.49-3.05,1.5-4.5,0-.25-1.5-1.09-1-1.5,1.74-1.43,3.96,1.85,4.5,2,4.64,1.28,3.28-1.78,3.5-2s1.78.21,2.5,0c.17-.05,2.5-2.32,2.5-2.5,0-.25-1.5-1.09-1-1.5.77-.63,6.42,1.48,3-2.5.79-1.07,1.11.9,2.5.5.56-.16,1.58-1.98,2-2,.16,0,1.58,1.74,3,1l1.5,2.5c-1.48,1.05-3.08,2.5-4.5,3.5-3.99,2.82-4.61,2.69-9,4-.38.11-.58.83-1,1-.54.22-1.33-.17-1.5,0s-.17,4.82,0,5c.07.07,2.13.38,2-.5l-1-3.5c1.62-.29.81,2.51,2.5,3,1.95.56,3.4-1.26,5-2,.5-.23,1.34.19,2,0,1.28-.37,7.52-6.73,8.5-8.5,1.53-2.74.43-.66,3.5-1.5.66-.18,2.07-2.48,3-3,.47-.26,1.31.19,1.5,0s1.38-3.65,2-4.5c.95-1.28,3.46-2.9,4-4,1.02-2.07-1.91-1.39-2-1.5-.2-.23.19-1.81,0-2-.18-.18-4.82-.18-5,0-.27.27.25,2.59,0,3.5-.15.55-1.83,1.44-2,2-.21.72.21,2.29,0,2.5-.23.23-3.67,1.11-5,3.5-.21.38.53,2.29-1.5,1.5-1.73-.67-1.38-2.89-1.5-3-.2-.19-1.03.26-1.5,0-1.06-.59-2.82-2.52-2.5-4-3.91,1.05-.78,4.81-1,5-.19.16-4.81.16-5,0-.21-.18,3.01-3.76-1-3,.4,2.43-2.53,2.74-2,5l-2.5-2-6.5-1c-.33,1.98,2.62.6,3,1,.99,1.03-.7,2.79-1,3.5-.22.54.17,1.33,0,1.5s-.96-.23-1.5,0c-.42.18-.63.9-1,1-1.3.36-1.44-.77-2-1s-1.32.18-1.5,0c-.21-.21.21-1.78,0-2.5-.26-.87-2.89-2.98-4-2.5.57-1.23-1.33-2.71-1-3,1.17-1.02,4.86,1.18,5.5,1,.4-.11.61-.9,1-1,.57-.15,1.31.08,2,0,.94-.11.17-1.93,1.5-2.5-.19-1.16-2.68-.18-3-.5-.21-.21.21-1.77,0-2.5-.07-.24-.9-2.4-1-2.5-.2-.2-2.87.72-2-1.5.46-1.16,1.67-1.2,2.5-1.5,1.18-.43-1.17-1.7-.5-3,3.42-.94,1.07,3.27,3.5,4,3.48,1.04,2.27-2.16,3.5-4.5-1.97-1.24.41-1.52,0-3-.05-.17-2.33-2.45-2.5-2.5-2.25-.67-4.9,1.73-2.5,3.5.13.88-1.93.57-2,.5-.17-.18-.18-4.82,0-5,.25-.25,3.03,1.04,2-2.5-.16-.54-3.12-2.34-2-3.5.16-.17,2.28,1.62,4.5,1,.17-.05,2.5-2.32,2.5-2.5,0-.5-2.42-1.48-2-3,.26-.96.49-8.22,0-10-.17-.62-3.68-5.53-4-7-.23-1.07-.34-10.1,0-10.5,2.28-2.71,1.87,3.06,2,3.5.5,1.7,2.59,1.24,3.5,1.5.49.14,2.5,3.28,2.5,3.5,0,.53-1.52.48-.5,1.5,1.28,1.28-.66,3.02-1,3-1.41-.07-.99-3.37-2.5-3l2,5.5c1.13,1.42,1.19,3.05,2,5,.22.54-.17,1.33,0,1.5.25.25,2.75-.25,3,0,.14.14.55,2.75,1,3.5.71,1.17,3.76,3.19,4,4,.94,3.16-.9,2.16-1.5,2.5-3.38,1.92.1,4.47-.5,6.5-.17.56-1.83,1.44-2,2-.37,1.27-.58,3.85-1,5s-1.95,2.4-2,4c-.03,1,2.06.35,3,.5.4,1.79-1.74.72-2,1-.33.36.23,4.75,0,6,1.62.29.81-2.52,2.5-3,2-.57,2.62.91,3,1,1.69.39,4.28.4,6,1,.39.14.59.83,1,1,1.99.83,1.31-1.16,1.5-1.5,1.03-1.8,2.85-1.37,3-1.5.48-.4-.81-1.07-1-1.5-.23-.53.18-1.32,0-1.5-.34-.34-4.66.34-5,0-.62-.62,1.67-4.16-3-3l4.5-4c1.05-.29,3.57,2.35,5,3,1.29-.23,6.17.33,6.5,0,.21-.21-.21-1.78,0-2.5.31-1.04,2.83-1.41,2-5-.96-4.19,1.16-8.39,2-13,.22-1.22-.29-2.94,0-4,.11-.39,1.75-1.81,2-1.5.27.33-.08,6.9,0,8.5s.83,2.85,2,1.5c-.49-1.63,1.82-3.68,2-4.5.47-2.14-.61-8.42,0-9.5.09-.16,4.1,3.34,3-2,2.77.29,0,3.31,0,3.5s1.89,2.59,2,3c.4,1.45-.03,3.24,1,5,.26.44,1.67,1.81,2,1.5s-.92-2.91,2-2c-1.7,1.9.38,2.18,0,3.5-.11.4-.89.61-1,1-.36,1.32.88,1.56,1,2,1,3.62-2.45,2.07-3,4-1.34,4.68-7.34,6.59-8,9-.23.85.23,2.15,0,3-.46,1.68-3.3.88-3,2.5h3.5c2.31-1.13,5.16-4.98,7-6,.47-.26,1.31.19,1.5,0s-.26-1.03,0-1.5c.37-.66,2-1.66,2-2s-.92-.61-1-1c-.7-3.37.79-2.1,1.5-2.5.43-.24,3.43-3.26,3.5-3.5.42-1.54-1.79-2.25-2-3-.3-1.07,3.55-5.03,3-5.5-.22-.18-1.04.26-1.5,0-3.01-1.72-.5-3.27-.5-3.5,0-.33-.89-.59-1-1-.44-1.59,2.35-3.84,3-5,.26-.47-.19-1.31,0-1.5s1.81.19,2,0-.16-1.73,0-2.5c.08-.39,1-.67,1-1,0-.21-1.72-1.84-2-1.5-.33.41.67,2.8-.5,3-.62-.98-3.31-2.79-3.5-3.5s-.23-6.27,0-6.5c.18-.18,2.91.68,2-1.5-1.36-3.26,0-2.33,0-3,0-.33-.94-.62-1-1-.19-1.12.26-4.24,0-4.5-.19-.19-1.77.2-2,0-1.11-.93,2.59-1.08,3-2.5.71-2.49-1.97-3.52-2-4-.01-.18,2.09-2.38,1-3.5-.1-.1-1.98.28-2.5-1-.94,1.81-3.8,2.91-4.5.5-.55-1.88,1.5-3.06,1-5,1.74-1.32,2.52-2.76,2-5-.09-.39-.93-.62-1-1-.22-1.22.24-2.82,0-4-.08-.37-.87-.59-1-1-.38-1.19.48-2.23-1.5-3.5-.22-.14-.73.15-1,0-1.56-.87-3.44-2.27-5-3-3.17-1.48-5.58-3.02-9-4-1.05-.3-7.8-9.1-11-11-1.17-.69-4.35-1.48-6-2-7.46-2.36-14.76-3.31-22-5-1.67-.39-3.63-.03-4.5,1.5-.27.47.19,1.31,0,1.5-.68.7-3.24-1.67-4-1-.19.17,2.13,3.86,1,5-.68.68-3.33-1.69-4-1-.27.28.25,2.59,0,3.5-.07.25-2.5,2.88-3,4-.27.6.29,2.98-1.5,3.5-1.29.37-2.09-1.48-2.5-1-.18.21.26,1.03,0,1.5-.52.93-2.82,2.34-3,3-.6,2.19.49,5.55-2.5,7.5-1.13-.81-.28-3.18-.5-4.5-.06-.38-1-.67-1-1s.94-.62,1-1c.39-2.33-.54-6.01,0-8,.13-.47,3.04-2.36,3.5-2.5,1.77-.53,3.26,1.27,3.5,1,.16-.18.37-1.69-.5-2-1.67-.6-3.2-1.07-2.5-3.5.52-1.82,3.94-.63,3-3.5-1.48-.17-2.57.01-4,.5-2.05.7-6.94,2.46-8.5,3.5-1.23.82-2.49,3.42-4,3-2-.55-6.87.84-10,2-3.7,1.38-21.48,13.07-22.5,16.5-.21.72.21,2.28,0,2.5-.14.15-2.89-.21-4,1l1-4c-2.86-.98-1.74,1.8-2,2-2.09,1.59-1.8-1.74-3-2.5-1.07-.68-1.4.98-3,.5-.43.35,6.25,6,3,7.5,1.39,2.92-2.68,5.82-3,7-.44,1.61-.31,2.81-1,5-.19.59.17,1.36,0,2-.46,1.72-3.54,1.64-5,1.5l2-2c-1.2-1.11-.86-3.85-1-4-1.01-1.08-3.6,2.45-4,2-.76-.86,1.3-2.74,1-3-1.27-1.09-3.09,2.61-5,2-.98-2.86,1.8-1.74,2-2,.39-.52-.95-4.02,1.5-3,.53.22.45.76,2,1,2.09.32,1.98-1.59,1.5-2-.38-.32-3.69.31-4,0-.49-.49,1.48-4.11-2.5-3-.4.11-.62.92-1,1-.96.2-3.2-.26-3.5,0-.46.4,1.34,3.89-2,3,.56-1.3,1.98-2.26,0-3.5-1.78-1.11-2.5.28-2-3.5l3,3c1.98.33.6-2.61,1-3,.9-.88,3.72,1.23,5,1,.89-3.34-2.6-1.54-3-2-.1-.11.05-3.25-1-2-.34.41.64,4.04-2.5,1-.79,1.76-2.53-.12-2.5-.5.02-.18,2.33-2.45,2.5-2.5.72-.21,2.29.21,2.5,0,.82-.82-2-4.24-2-4.5,0-.18,2.11-2.28,2.5-2.5.47-.26,1.31.19,1.5,0,.77-.77-2.35-4.27-3-5.5-.21-2.86.38-5.56,2-8,.42-3.17-1.65-.04-2-.5-.09-.12-.11-2.89,0-3,.69-.69,4.21,2.01,3-4-1.29-.17-3.35,1.79-4-.5s3.28-2.45,3-3c-.81-1.59-3.82-2.3-3-5,.07-.22,1.82-1.68,1-2.5-.4-.4-4.09.03-3-4,2.93-.79,2.83,2.87,3,3,2.37,1.8,1.73-1.58,2-2.5.21-.72,2.72-2.96,4-2.5.91,2.92-1.7,1.68-2,2s1.31,2,1.5,2c.25,0,3.68-2.82,4.5-2,.18.18-.4,5.07,1.5,5,1.36-.05,1.38-2.89,1.5-3,.11-.1,2.89-.1,3,0,.15.13.27,2.93,2,3.5-2.74,3.58.13,2.02,2.5,2.5.13.03,1.72,1.82,2.5,1,.31-.32-.3-3.7,0-4,.34-.34,4.64.34,5,0,.77-.75-3.2-5.83-2-7,.29-.28,3.06-.07,4,.5,1.92,1.18.17,1.39,0,2-.65,2.34,4.64,3.77,5,5,.21.72-.21,2.29,0,2.5.11.11,2.89.11,3,0,.12-.12.15-2.94,0-3.5-.6-2.19-5.15-.63-4-3,.4-.82,3.25-3.31,4-2.5s-1.82,5.87,2,5l2-6c-.19,1.75.28,3.84,0,5.5-.13.79-1.76.24,0,2,1.49,1.49.99,2.65,1,4.5,3.54-.09.56-8.41,3.5-7,.67.32,2.15,2.73,2.5,3.5.95,2.14,1.8,4.6,3,7,1.15.29.51,3.44,2.5,2.5,2.89-1.36,2.02-3.71,2.5-5.5.11-.39.88-.6,1-1,.56-1.87,1.44-3.4,1-5.5,1.8-.21.89,2.23,1,3.5.16,1.82.17,4.8,2.5,5.5,3.74,1.12,2.34-2.32,2.5-5l4.5,4,1.5-4c2.05.03,1.86,2.88,2,3,.2.17.96-.22,1.5,0,.43.18.64.92,1,1,2.5.57,3.59-.94,4-1,1.55-.23,3.58.31,5,0,.71-.15,3.18-1.48,5-2,.34-.1,5.38-4.09,5.5-4.5.21-.72-.21-2.29,0-2.5.91-.91,4.46,1.57,5,1,.29-.31-.2-3.89,0-5l1,3c2.57,1.4,1.77-2.38,2.5-2,1.81.93,1.38,2.89,1.5,3s1.89.39,2-.5c.22-1.82-.59-3.18,1.5-4.5l4.5,5,.5-4,1.5,4.5,3,2.5-1-7c3.43-.65.91,2.25,3.5,4,.93.63-.25-2.54,1.5-2l1,4h4l-2-8c2.63,2.84,4.54,1.51,7.5,2,.38.06.67,1,1,1,.66,0,4.47-6.44,8-1,1.05.05.27-1.78.5-2,.96-.93,8.59,5.5,5-1,1.69.49,2.24-1.35,3.5-1,.48.13,2.98,3.52,4.5,2ZM164.15,10.23c.64-.76-.33-2.8-1-2-.64.76.33,2.8,1,2ZM109.15,10.23c-.18-.18-.97.23-1.5,0-.58-.26-2.62-2.26-1.5.5s4.7,1.2,3-.5ZM14.15,11.23c-1.09-1.09-3.09.91-2,2s3.09-.91,2-2ZM29.65,13.23c-.65,0-.65,1,0,1s.65-1,0-1ZM12.15,15.23c-1.55.25-1.96-.77-3.5-1-3.03-.45-1.72,4.84,1.5,3.5,1.7-.71,2.4-.08,2-2.5ZM43.65,14.23c-.65,0-.65,1,0,1s.65-1,0-1ZM165.65,15.23c-1.42,0,1.5,2.92,1.5,1.5,0-.11-1.39-1.5-1.5-1.5ZM159.15,18.23l-2-2c-.26,2.11-.11,2.26,2,2ZM35.15,22.23c.07-.07.07-1.93,0-2-.31-.34-3,2.3-3,2.5,0,1.35,1.12-.36,1.5-.5.56-.2,1.33.17,1.5,0ZM52.15,20.23c-.76-.64-2.8.33-2,1,.76.64,2.8-.33,2-1ZM28.15,22.23c-1.03-1.03-3.39.32-.5,2,.73.42.68-1.82.5-2ZM34.15,24.23c-.24-.24-3.04.16-4,0,.23,1.12,3.68,4.35,4,4,.13-.15.14-3.86,0-4ZM39.65,24.23c-.65,0-.65,1,0,1s.65-1,0-1ZM48.15,27.23c.1-.12.1-2.88,0-3-1.31-1.57-1.31,4.57,0,3ZM27.15,27.23c-.76-.64-2.8.33-2,1,.76.64,2.8-.33,2-1ZM45.15,29.23c.36-.29-1.36-3.3-3-.5-.44.74,2.76.69,3,.5ZM40.15,30.23c.64-.76-.33-2.8-1-2-.64.76.33,2.8,1,2ZM26.65,29.23c-.11,0-1.5,1.39-1.5,1.5,0,1.42,2.92-1.5,1.5-1.5ZM30.15,33.23c-.18-.15,2.33-2.55-.5-4l-1.5,3.5,1,1,1,7c2.3,2.11,1.84-1.81,4-3-.41-2.36.78-1.1,1.5-1.5.77-.43,2.79-2.49,2.5-3.5-.45-1.55-1.69-1.29-3-1-1.04.23-4.56,1.87-5,1.5ZM143.65,30.23c-.65,0-.65,1,0,1s.65-1,0-1ZM13.15,35.23c-.44-1.42-4.05-4.95-5-4-1.13,1.13,2.88,5.17,5,4ZM163.15,32.23c-1.64.51-2.23-1.35-3.5-1-2.24.62-.43,2.52-.5,4-6.03-1.34-1.38,4.43,0,3,.09-.1-.11-1.08,1-2.5.91-1.16,2.59-2.02,3-3.5ZM140.15,32.23c-.76-.64-2.8.33-2,1,.76.64,2.8-.33,2-1ZM24.15,33.23c-.46.46-.06,6,1.5,6,3.04,0,.88-8.38-1.5-6ZM78.15,33.23c-1.09-1.09-3.09.91-2,2s3.09-.91,2-2ZM135.65,33.23c-.65,0-.65,1,0,1s.65-1,0-1ZM9.15,39.23c1.03-1.03-.32-3.39-2-.5-.42.73,1.82.68,2,.5ZM20.15,39.23c-.21-.17-.97.23-1.5,0-.43-.19-1.1-1.49-1.5-1-2.24,2.73,4.55,2.3,3,1ZM29.15,46.23c1-1-.72-2.81-1-3.5-.08-.21-.09-2.59-1-1.5-.17.2.22.96,0,1.5-.28.69-2,2.5-1,3.5.11.11,2.89.11,3,0ZM16.15,46.23c.97-1.18-2.82-4.97-4-4-.48.4.81,1.07,1,1.5.23.53-.18,1.32,0,1.5s.97-.23,1.5,0c.43.19,1.1,1.48,1.5,1ZM159.15,46.23c1.22-1.22-1.63-5.33-3-4-.7.68,1.45,2.8,1,4,.64-.07,1.87.13,2,0ZM24.15,43.23c-.83-.83-3.57,1.54-3,2,1.08.87,4.63-.37,3-2ZM11.65,48.23c-.65,0-.65,1,0,1s.65-1,0-1ZM10.15,50.23c-.76-.64-2.8.33-2,1,.76.64,2.8-.33,2-1ZM20.15,53.23c.15-.15.27-3.45-.5-3-3.01,1.76-.92,4.42.5,3ZM14.15,51.23c-.76-.64-2.8.33-2,1,.76.64,2.8-.33,2-1ZM17.15,55.23c-1.09-1.09-3.09.91-2,2s3.09-.91,2-2ZM166.15,59.23c-1.42-1.42-3.51,1.24-.5,3,.77.45.65-2.85.5-3ZM159.65,60.23c-.65,0-.65,1,0,1s.65-1,0-1ZM167.65,60.23c-.65,0-.65,1,0,1s.65-1,0-1ZM166.15,68.23c1.16-1.44-1.58-5.21-3-4-.2.17,2.34,4.82,3,4ZM166.65,92.23c-.65,0-.65,1,0,1s.65-1,0-1ZM165.65,99.23c-.65,0-.65,1,0,1s.65-1,0-1ZM162.65,106.23c-.65,0-.65,1,0,1s.65-1,0-1ZM11.65,112.23c-.65,0-.65,1,0,1s.65-1,0-1ZM152.15,112.23c-.72-.7-2.83,1.48-4,1,.24,1.32-1.88,4.03-1,5,1.12,1.24,6.64-4.41,5-6ZM112.15,116.23c1.03-1.03-.32-3.39-2-.5-.42.73,1.82.68,2,.5ZM114.15,121.23c.14-.14.13-3.85,0-4-.43-.47-3.98,3.02-3,4,.11.11,2.89.11,3,0ZM12.15,126.23c.64-.76-.33-2.8-1-2-.64.76.33,2.8,1,2ZM176.15,126.23c.64-.76-.33-2.8-1-2-.64.76.33,2.8,1,2ZM11.65,127.23c-.65,0-.65,1,0,1s.65-1,0-1ZM159.15,130.23c.89-.74-4.12-3.81-4-1,1.25-.49,3.15,1.7,4,1ZM161.15,131.23c.64-.76-.33-2.8-1-2-.64.76.33,2.8,1,2ZM128.65,130.23c-.65,0-.65,1,0,1s.65-1,0-1ZM103.65,132.23c-.65,0-.65,1,0,1s.65-1,0-1ZM22.15,136.23l-2-2c-.26,2.11-.11,2.26,2,2ZM11.65,135.23c-.65,0-.65,1,0,1s.65-1,0-1ZM115.65,138.23c-.65,0-.65,1,0,1s.65-1,0-1ZM14.15,140.23c-.14-.14-3.85-.13-4,0-1.29,1.08,1.89.84,2.5,1,.37.09,1.09,1.5,1.5,1,.07-.08.07-1.93,0-2ZM30.15,140.23c-2.11-.26-2.26-.11-2,2l2-2ZM113.15,140.23c-.76-.64-2.8.33-2,1,.76.64,2.8-.33,2-1ZM127.65,140.23c-.65,0-.65,1,0,1s.65-1,0-1ZM23.65,142.23c-.65,0-.65,1,0,1s.65-1,0-1ZM27.65,143.23c-1.48,0-1.48,3,0,3s1.48-3,0-3ZM22.15,147.23c.64-.76-.33-2.8-1-2-.64.76.33,2.8,1,2ZM106.15,146.23c-1.09-1.09-3.09.91-2,2s3.09-.91,2-2ZM24.15,148.23c-1.03-1.03-3.39.32-.5,2,.73.42.68-1.82.5-2ZM34.15,149.23l-7-1,2.5,4,4.5-3ZM16.15,153.23c.19-.24.24-3.44-.5-3-2.8,1.64.21,3.36.5,3ZM27.15,152.23c-1.09-1.09-3.09.91-2,2s3.09-.91,2-2ZM35.65,152.23c-.65,0-.65,1,0,1s.65-1,0-1ZM21.15,156.23c.99-.99-1.78-4.55-3-1.5-.85,2.12,2.71,1.79,3,1.5ZM14.15,157.23c1.03-1.03-.32-3.39-2-.5-.42.73,1.82.68,2,.5ZM32.65,155.23c-.65,0-.65,1,0,1s.65-1,0-1ZM105.15,157.23c1.03-1.03-.32-3.39-2-.5-.42.73,1.82.68,2,.5ZM28.15,163.23c-.34-.34.24-5.65,0-7-1.98-.33-.6,2.62-1,3-.2.19-1.77-.19-2,0-.34.29,3.14,3.11,2,5-3.63.86-1.34-3.25-2-4-.45-.52-1.91,1.67-2.5,2-.62.35-2.44-.65-1.5,2.5.7,2.36,2.15.6,2.5.5,1.25-.36,1.87,1.52,3.5,1l-4,3,5,1c-.11-1.67,2.54-6.46,2-7-.19-.19-1.81.19-2,0ZM40.15,158.23c.64-.76-.33-2.8-1-2-.64.76.33,2.8,1,2ZM12.15,160.23c1.93-.04,3.32-1.61,5.5-1,1.6.44,1.88,4.35,5.5-.5-1.55-2.54-2.5.1-4.5-.5-.42-.13-.67-.99-1-1l-5.5,3ZM106.65,158.23c-1.42,0,1.5,2.92,1.5,1.5,0-.11-1.39-1.5-1.5-1.5ZM41.15,163.23c.16-.16.26-4.44-.5-4-2.99,1.75-1.24,5.74.5,4ZM118.15,165.23c-1.13-1.13-6.33,3.47-2.5,5,2.22.89,1.19-1.41,1.5-2.5.06-.2,1.82-1.68,1-2.5ZM121.15,169.23c.15-.15.27-3.45-.5-3-3.01,1.76-.92,4.42.5,3ZM128.15,171.23c.64-.76-.33-2.8-1-2-.64.76.33,2.8,1,2ZM150.15,171.23c1.03-1.03-.32-3.39-2-.5-.42.73,1.82.68,2,.5ZM132.65,171.23c-1.66.08-3.75,7.03-1,7,1.3-.01,1.42-3.15,2-4,1.41-.88-.59-3.02-1-3ZM28.15,175.23c-1.09-1.09-3.09.91-2,2s3.09-.91,2-2ZM124.15,180.23c-1.09-1.09-3.09.91-2,2s3.09-.91,2-2Z"/>
      <path d="M101.15,179.23c.68.68-.09,5.66-2.5,5-2.93-.81-.01-2.58.5-3.5.16-.29.08-3.42,2-1.5Z"/>
      <path d="M87.15,16.23c-1.2,1.2-5.34-2.17-.5-5,.73-.43.69,4.81.5,5Z"/>
      <path d="M93.15,169.23c.14.14.14,3.86,0,4-.11.11-2.89.11-3,0-1.23-1.23,1.66-5.34,3-4Z"/>
      <path d="M6.15,77.23c-.45,1.2,1.7,3.32,1,4-1.51,1.47-4.24-3.78-4-4,.22-.2,2.19.12,3,0Z"/>
      <path d="M105.15,174.23c.1.11.11,2.89,0,3-1.92,1.92-1.84-1.21-2-1.5-.32-.58-2.53-2.07-2-2.5l4,1Z"/>
      <path d="M46.15,66.23c-.26.32-1.73-1.01-2-1.5s.19-1.31,0-1.5c-.11-.11-3.26.05-2-1,1.75-1.46,5.47,2.18,4,4Z"/>
      <path d="M91.15,154.23c.62.62.09,6.09-2,4-.62-.62-.09-6.09,2-4Z"/>
      <path d="M61.15,77.23c-1.05-1.05,1.36-4.8,2-4,.16.2-.2.94,0,1.5.15.43,1,.68,1,1,0,.62-2.42,2.08-3,1.5Z"/>
      <path d="M6.15,74.23c-1.74,1.74-3.49-2.25-.5-4,.76-.44.66,3.84.5,4Z"/>
      <path d="M9.15,89.23c-.07.07-1.93.07-2,0-.7-.68,1.45-2.8,1-4,1.48-.86,1.2,3.8,1,4Z"/>
      <path d="M98.15,152.23c.11.11.11,2.89,0,3-2.66,2.66-2.66-5.66,0-3Z"/>
      <path d="M93.15,109.23c.11.11.11,2.89,0,3-2.66,2.66-2.66-5.66,0-3Z"/>
      <path d="M9.15,163.23c.2.2.48,4.86-1,4,.45-1.2-1.7-3.32-1-4,.07-.07,1.93-.07,2,0Z"/>
      <path d="M51.15,183.23c-1.04-1.29,1.41-4.73,2-4,1.04,1.29-1.41,4.73-2,4Z"/>
      <path d="M101.15,171.23c-.22.17-.98-.23-1.5,0-.43.19-1.1,1.48-1.5,1-.1-.12-.11-2.89,0-3,.83-.83,3.57,1.54,3,2Z"/>
      <path d="M6.15,126.23c.83.83-1.54,3.57-2,3-.87-1.08.37-4.63,2-3Z"/>
      <path d="M95.15,180.23c-1.9.29-3.29-1.1-3-3l3,3Z"/>
      <path d="M59.15,16.23c-1.63,1.63-2.87-1.92-2-3,.46-.57,2.83,2.17,2,3Z"/>
      <path d="M87.15,146.23c1.09,1.09-.91,3.09-2,2s.91-3.09,2-2Z"/>
      <path d="M4.15,83.23c1.09,1.09-.91,3.09-2,2s.91-3.09,2-2Z"/>
      <path d="M25.15,11.23c1.09,1.09-.91,3.09-2,2s.91-3.09,2-2Z"/>
      <path d="M148.15,98.23c-.42.52-2.81-2-2-3,.42-.52,2.81,2,2,3Z"/>
      <path d="M108.15,169.23c1.09,1.09-.91,3.09-2,2s.91-3.09,2-2Z"/>
      <path d="M25.15,10.23c-1,.81-3.52-1.58-3-2,1-.81,3.52,1.58,3,2Z"/>
      <path d="M137.15,106.23c-.24.19-3.44.24-3-.5,1.64-2.8,3.36.21,3,.5Z"/>
      <path d="M76.15,178.23c1.09,1.09-.91,3.09-2,2s.91-3.09,2-2Z"/>
      <path d="M153.15,205.23l-2,2c-.26-2.11-.11-2.26,2-2Z"/>
      <path d="M140.15,201.23l-2,2c-.26-2.11-.11-2.26,2-2Z"/>
      <path d="M15.15,184.23c.18.18.23,2.42-.5,2-2.89-1.68-.53-3.03.5-2Z"/>
      <path d="M105.15,182.23c-.18.18-2.42.23-2-.5,1.68-2.89,3.03-.53,2,.5Z"/>
      <path d="M81.15,5.23l-2,2c-.26-2.11-.11-2.26,2-2Z"/>
      <path d="M51.15,54.23c.18.18.23,2.42-.5,2-2.89-1.68-.53-3.03.5-2Z"/>
      <path d="M81.15,13.23c-.18.18-2.42.23-2-.5,1.68-2.89,3.03-.53,2,.5Z"/>
      <path d="M68.15,39.23c-.18.18-2.42.23-2-.5,1.68-2.89,3.03-.53,2,.5Z"/>
      <path d="M56.15,35.23l-2,2c-.26-2.11-.11-2.26,2-2Z"/>
      <path d="M77.15,28.23c.8.67-1.24,1.64-2,1-.8-.67,1.24-1.64,2-1Z"/>
      <path d="M84.15,109.23c-.67.8-1.64-1.24-1-2,.67-.8,1.64,1.24,1,2Z"/>
      <path d="M18.15,102.23c-.67.8-1.64-1.24-1-2,.67-.8,1.64,1.24,1,2Z"/>
      <path d="M100.15,148.23c.8.67-1.24,1.64-2,1-.8-.67,1.24-1.64,2-1Z"/>
      <path d="M148.15,94.23c-.67.8-1.64-1.24-1-2,.67-.8,1.64,1.24,1,2Z"/>
      <path d="M175.15,57.23c-.67.8-1.64-1.24-1-2,.67-.8,1.64,1.24,1,2Z"/>
      <path d="M77.15,82.23c-.67.8-1.64-1.24-1-2,.67-.8,1.64,1.24,1,2Z"/>
      <path d="M39.15,80.23c.8.67-1.24,1.64-2,1-.8-.67,1.24-1.64,2-1Z"/>
      <path d="M58.15,174.23c-.67.8-1.64-1.24-1-2,.67-.8,1.64,1.24,1,2Z"/>
      <path d="M77.15,175.23c-.67.8-1.64-1.24-1-2,.67-.8,1.64,1.24,1,2Z"/>
      <path d="M88.15,180.23c-.67.8-1.64-1.24-1-2,.67-.8,1.64,1.24,1,2Z"/>
      <path d="M41.15,181.23c-.67.8-1.64-1.24-1-2,.67-.8,1.64,1.24,1,2Z"/>
      <path d="M57.15,186.23c-.67.8-1.64-1.24-1-2,.67-.8,1.64,1.24,1,2Z"/>
      <path d="M150.15,204.23c.8.67-1.24,1.64-2,1-.8-.67,1.24-1.64,2-1Z"/>
      <path d="M137.15,209.23c-.67.8-1.64-1.24-1-2,.67-.8,1.64,1.24,1,2Z"/>
      <path d="M164.65.23c.65,0,.65,1,0,1s-.65-1,0-1Z"/>
      <path d="M63.65,7.23c.65,0,.65,1,0,1s-.65-1,0-1Z"/>
      <path d="M49.65,68.23c.65,0,.65,1,0,1s-.65-1,0-1Z"/>
      <path d="M19.65,104.23c.65,0,.65,1,0,1s-.65-1,0-1Z"/>
      <path d="M44.65,104.23c.65,0,.65,1,0,1s-.65-1,0-1Z"/>
      <path d="M84.65,111.23c.65,0,.65,1,0,1s-.65-1,0-1Z"/>
      <path d="M94.65,112.23c.65,0,.65,1,0,1s-.65-1,0-1Z"/>
      <path d="M81.65,115.23c.65,0,.65,1,0,1s-.65-1,0-1Z"/>
      <path d="M92.65,115.23c.65,0,.65,1,0,1s-.65-1,0-1Z"/>
      <path d="M76.65,117.23c.65,0,.65,1,0,1s-.65-1,0-1Z"/>
      <path d="M95.65,118.23c.65,0,.65,1,0,1s-.65-1,0-1Z"/>
      <path d="M117.65,128.23c.65,0,.65,1,0,1s-.65-1,0-1Z"/>
      <path d="M100.65,138.23c.65,0,.65,1,0,1s-.65-1,0-1Z"/>
      <path d="M138.65,176.23c.65,0,.65,1,0,1s-.65-1,0-1Z"/>
      <path d="M8.65,183.23c.65,0,.65,1,0,1s-.65-1,0-1Z"/>
      <path d="M88.65,183.23c.65,0,.65,1,0,1s-.65-1,0-1Z"/>
      <path d="M38.65,184.23c.65,0,.65,1,0,1s-.65-1,0-1Z"/>
      <path d="M128.65,204.23c1.42,0-1.5,2.92-1.5,1.5,0-.11,1.39-1.5,1.5-1.5Z"/>
      <path d="M137.65,205.23c.65,0,.65,1,0,1s-.65-1,0-1Z"/>
      <path d="M140.65,205.23c.65,0,.65,1,0,1s-.65-1,0-1Z"/>
      <path d="M124.65,206.23c.65,0,.65,1,0,1s-.65-1,0-1Z"/>
    </g>
  </g>
</svg>