<?xml version="1.0" encoding="UTF-8"?>
<svg id="Layer_2" data-name="Layer 2" xmlns="http://www.w3.org/2000/svg" viewBox="0 0 195.1 153.29">
  <g id="Layer_1-2" data-name="Layer 1">
    <g id="Element">
      <path d="M100.99,24.29c.15.14.85,3.86,1,4,.18.17.96-.22,1.5,0,.43.18.65.94,1,1,.91.16,3.09.17,4,0,.38-.07.63-.95,1-1,2.17-.27,7.98-.36,10,0,.35.06.57.82,1,1,.54.22,1.33-.17,1.5,0,.19.19-.26,1.03,0,1.5.2.36,2.31,2.44,2.5,2.5.96.3,3.35-1.97,3.5-2.5.32-1.12.32-2.86,1-4,1.97-3.32,3.87-2.01,6.5-2.5.38-.07.62-.94,1-1,.82-.13,4.34-.16,4.5,0,.19.19-.19,1.81,0,2s1.81-.19,2,0c.25.25-.18,3.38,0,4.5.47,2.95,1.41,7.05,2,10,.74,3.68.43,7.56,1,11,.06.38,1,.67,1,1,0,.25-3.05,3.25-3.5,3.5-.47.26-1.31-.19-1.5,0-.32.32.29,3.43,0,4.5-.14.5-1.62,1.31-2,2-.26.47.19,1.31,0,1.5-.14.15-3.86.85-4,1-.73.75,1.45,7.32-1.5,9-.47.27-1.31-.19-1.5,0-.21.21-1.34,4.27-2,5.5-.37.69-1.86,1.49-2,2-.55,1.99-.17,11.24,0,14,.02.35.97.64,1,1,.14,1.76-.31,9.14,0,9.5,1.39,1.66,1.82-.16,2-1.5.59-4.47,2.81-9.05,4-13l1-5.5c3.22-.56,4.71,1.45,4,4.5-.38,1.62-.63,3.66-1,5-.15.55-1.99,1.6-2,2-.03,1.17,4.91,1.59,3,3.5-.19.19-1.03-.27-1.5,0-2,1.13-3.3,6.37-4.5,8.5-.37.66-2,1.66-2,2,0,.17,1.58,1.01,1,3-.14.47-1.92,2.62-2,3-.25,1.17.26,2.84,0,4-.09.4-1.36.68-1,2,.15.55,1.85,1.45,2,2,.22.81-.16,2.05,0,3,.07.38.99.66,1,1,.02.99-4.84,6.89-4,9,2.25,2.82.18,6.29,1,9,.36,1.19-.42,3.19-1.5,3.5-5.12,1.48-3.02-6.81-3.5-9.5-.07-.37-.87-.59-1-1-.19-.59.18-1.37,0-2-.69-2.41-6.11-2.88-5-9,.07-.37.89-.59,1-1,1.11-3.98-2.51-2.01-3-2.5-.78-.78,1.69-9.54-2.5-11l-.5,11.5c-3.46,1.2-1.29,8.79-2,9.5-.25.25-2.71-.26-3,0-1.14,1.02,1.88,3.05,2,3.5.35,1.31-.26,3.5,0,5,.05.3,1.57,1.02,1,3s-2.12.82-3.5.5c-2.46,2.52-1.04-.47-1.5-2.5-.08-.36-1.93-2.66-2-3-.43-1.99.43-5.01,0-7-.24-1.1-2.91-3.67-3-4-.89-3.23-1.28-6.73-2-10-1.25-5.67-2.12-12.47-4-19-.12-.41-3.29-3.37-4-5-2.15-4.93-2.09-9.76-3-15-.05-.29-1.58-1.03-1-3,.82-2.82,3.51-.69,5,.5.13-1.12-.2-2.47,0-3.5.22-1.09,1.51-2.21,1-5-.75-4.13-.34-7.07-1-10-.44-1.95.5-5.2,0-7-.27-.98-4.71-4.01-5-5-.51-1.77-.57-4.45-1-6-.27-.97-4.73-4.03-5-5-.49-1.76.34-4.96,0-7l4.5-5.5c1.2.09,6.67,2.84,7.5,2s-2.34-5.21,3.5-4c.36.07.57.82,1,1,.54.22,1.32-.17,1.5,0ZM108.99,36.29c-1.07-.89-4.56.98-6,1-.05,1.51-2.44,6.71-3.5,7-1.64.45-2.36-2.45-4-2-.17.05-2.45,2.33-2.5,2.5-.55,1.87,1.5,3.06,1,5,3.94,4.58,1.34,13.61,2,20,.13,1.24,1.74,5.59,2,7,.7,3.81-1.57,5.65-2,8-1.56,8.41,3.07,2.49,3.5,2.5.87.01,2.09,3.93,3.5,4.5.19,3.63-.27,7.4,0,11s1.62,7.3,1,11c-.21,1.28-.22,4.74,0,6,.07.37.88.59,1,1,.18.65-.22,1.46,0,2,.15.39.81.59,1,1,.15.32-.13.8,0,1,.79,1.24,3.31,2.2,4,1.5,1.05-1.07-.97-3.32-1-3.5-1.29-8.96.66-19.57-1-27-1.03-4.58,1.26-6.92,2-10,.3-1.24-.93-3.7,1-3.5.2,1.7.82,2.59,1,4.5.17,1.81-.39,4.57,0,6,.19.7,2.81,2.3,3,3,1.31,4.74-.34,8.14,3,14,1.09,1.91,4.7,4.7,4,7-.12.41-.92.62-1,1-.87,4.21.48,2.93,1.5,3.5.72.41,2.13,2.68,2.5,3.5.58,1.3-.5,2.41,2.5,1.5,2.79-.85.56-3.16.5-3.5-.57-2.95-.49-3.81,0-6,.99-4.42-2.51-10.37-2-12,2.41-7.72.27-15.58,2-24,1.12-5.47-1.66-2.72-4.5-3.5-.17-.05-2.45-2.33-2.5-2.5-.36-1.31.86-1.53,1-2,.59-1.96-.88-2.56-1-3-.2-.74.21-2.29,0-2.5-.32-.32-3.43.29-4.5,0-.74-.2-2.87-4.13-3.5.5-.23,1.7-1,4.73-1,5,0,.22,1.39,1.34,1,4-.15,1.01-.84,2.71-1.5,3.5-3.35-2.12.12-4.41-.5-6.5-.17-.56-1.85-1.45-2-2-.37-1.33.37-3.66,0-5-.44-1.61-5.56-3.39-6-5-.29-1.06.22-2.78,0-4-.07-.38-.95-.63-1-1-.33-2.71-.43-8.66,2.5-9.5.88-.25,3.52,1.98,4.5,1,.54-.54-.59-3.59-1-4.5-.27-.59-2-2.82-2-3,0-.54,3.26-4.28,3-4.5ZM122.49,125.29c-.65,0-.65,1,0,1s.65-1,0-1Z"/>
      <path d="M54.99,4.29c.15.15-.45,3.45,1.5,4,2.4.68,4.4-3.09,5.5-2s-3.03,3.85-2,5c.11.12,2.95-1.21,3-1.5.49-2.85,1.11-.82,2-1.5.26-.2-.86-2.98,2-2l1,4.5v5.5l2-2.5c-.67-2.39,1.68-1.18,2-1.5.28-.28-.19-3.9,0-5,1.17.59,3.44,2.5,4,3.5.26.47-.19,1.31,0,1.5.13.13,2.99.17,3,1.5,0,.46-2.7,3-2,6,.09.38,1.57,1,1,3-.06.2-2.05,2.2-2.5,2.5-.93.63.25-2.54-1.5-2-.4,1.91,1.69,2.13.5,4-1.3,2.05-3.15,1.7-2.5,5.5.52,3.06-.65,1.73-1,3-.26.93-.2,5.86,0,7,.58,3.29.27,6.37,1,10,.93,4.61,2.84,8.02,4,12,.46,1.57-1.78,4.18-1,7,.23.84,3.77,3.16,4,4,.43,1.57-.43,4.43,0,6,.15.55,1.85,1.45,2,2,.2.73.95,4.56,1,5,.14,1.16.24,7.22,0,7.5-.28.33-1.78-1.57-3-1,.7-1.94-.78-2.82-1-3.5-.87-2.63-1.37-5.3-2-8-.41-1.74-3.22-8.25-3-9,1.54-5.37-4.34-11.13-3-16,.36-1.32-.91-1.6-1-2-.61-2.71.69-7.51,0-10-.14-.5-1.62-1.31-2-2-.26-.47.19-1.31,0-1.5s-1.03.26-1.5,0c-1.42-.79-2.96-2.88-2.5-4.5.13-.46,3.15-2.48,2-3.5-.35-.31-3.69.31-4,0-.19-.19.26-1.03,0-1.5-1.34-2.4-9.52-8.37-10-10-.46-1.54,1.01-3.61-2-2-.52,1.04-2-.89-2-1,.01-.48,2.42-1.48,2-3-.26-.95-1-3.48-1-4,0-.33.93-.61,1-1,.17-.95-.23-3.27,0-3.5.19-.19,1.81.19,2,0,.14-.14.54-2.77,1-3.5.54-.84,2.37-2.15,3-1.5ZM63.99,16.29c.31-1.76-1.36-3.29-3-4-.31,1.76,1.36,3.29,3,4ZM74.99,21.29c.64-.76-.33-2.8-1-2-.64.76.33,2.8,1,2ZM67.99,43.29c.29.36,3.3-1.36.5-3-.74-.44-.69,2.76-.5,3Z"/>
      <path d="M82.99,108.29c.75-1.82-1.29-3.47-1-4.5.11-.4.89-.6,1-1,.3-1.06-1.76-2.66-1-3.5s3.82,1.82,4,2.5c.36,1.34-.37,3.67,0,5,.15.55,1.85,1.45,2,2,.56,2.04-.56,5.96,0,8,1.09,3.95,2.26,1.1,1,8-.51,2.79.91,4.27,1,5,.38,3.07-.31,3.82,1,7,.22.54-.17,1.3,0,1.5.41.48,1.21-1.37,2.5-1,.17.05,2.45,2.33,2.5,2.5.32,1.13-.55,3.9,1.5,4.5,1.5.44,2.97-2.62,3.5-2,.96,1.12-1.25,3.63-1,4.5.42,1.47,5.73,3.27,1.5,6.5l-4.5-5.5c1.13-4.1-4.45-3.01-5-5s.51-3.82-2.5-5.5c-2.74-1.53-.66-.43-1.5-3.5-.23-.84-3.77-3.16-4-4s.23-2.15,0-3c-.15-.55-1.84-1.44-2-2-1.52-5.29-.89-5.68-4-11-1.03-1.76-3.67-7.14-4-9-.22-1.22-.35-10.11,0-10.5.51-.56,2.78.67,3,1.5s-.23,2.15,0,3c.08.3,2.43,3.81,3,5,.66,1.39.85,3.96,3,4.5Z"/>
      <path d="M147.99,90.29c-1.98.13-.7-3.14-1-4.5s-3.7-5.61-4-7c-.28-1.27-.21-5.58,0-7,.05-.37.91-.61,1-1,.2-.91-.23-2.17,0-3,.11-.41,2.15-3.5,2.5-3.5.46,0,6.38,6.06,6.5,6.5.64,2.34-.77,3.21-1,4-.4,1.37-.6,3.64-1,5-.17.56-1.85,1.45-2,2-.35,1.28.24,3.48,0,5-.06.35-1.78,1.74-1,3.5Z"/>
      <path d="M157.99,102.29l-3.5,2c-1.83-.61-3.73-1.51-6-1-.36.08-.57.8-1,1-.31.14-.78-.13-1,0-.39.23-2.45,2.32-2.5,2.5-.18.62.18,1.38,0,2-.12.42-2.2,2.35-3,2.5l1-5.5c.68-2.57,3.34-6.62,4-9,.41-1.46-.74-3.23,1.5-4.5l-.5,6.5c1.74,2.52,2.1.5,2.5.5.33,0,.62.94,1,1,1.23.2,2.94-.29,4,0,.82.22,1.57,2.69,3.5,2Z"/>
      <path d="M89.99,62.29c-.78,1.77.93,3.11,1,3.5.43,2.43-.85,5.92-1,9-.08,1.62-.84,2.86-2,1.5-.4-.47.8-3.59-1-4.5.45-3.44-1.78-9.49,3-9.5Z"/>
      <path d="M59.99,86.29c.28.32-.61,2.74,1,3.5-.44,3.35,2.15,5.99,2,9.5l-3-4.5c-.52-1.87-.6-4.21-1-6-.08-.34-.78-.56-1-1-.86-1.68,1.6-1.96,2-1.5Z"/>
      <path d="M22.99,22.29c.19.19-.26,1.03,0,1.5.51.92,3.43,2.69.5,3.5-3.47.96-3.14-7.64-.5-5Z"/>
      <path d="M17.99,3.29c.19.19-.26,1.03,0,1.5,1.03,1.83,3.14.85,3,2.5l-6-2c-1.27-2.29,2.4-2.6,3-2Z"/>
      <path d="M58.99,4.29c.58.58-.88,3-1.5,3-.11,0-1.5-1.39-1.5-1.5,0-.62,2.42-2.08,3-1.5Z"/>
      <path d="M45.99,111.29c.2.2.48,4.86-1,4,.45-1.2-1.7-3.32-1-4,.07-.07,1.93-.07,2,0Z"/>
      <path d="M58.99,85.29c-.74.89-3.81-4.12-1-4-.49,1.25,1.7,3.15,1,4Z"/>
      <path d="M42.99,102.29c1.09,1.09-1.57,2.72-2,3.5-.06.11-.08,2.6-1,1.5-.83-.99.92-2.23,1-2.5.21-.72-.19-4.69,2-2.5Z"/>
      <path d="M17.99,21.29c-.11.11-2.89.1-3,0-.63-.57,3.26-3,3.5-3,1.34,0-.36,1.12-.5,1.5-.2.56.17,1.33,0,1.5Z"/>
      <path d="M33.99,116.29c-1.41,1.69-1.41-6.69,0-5,.16.19.16,4.81,0,5Z"/>
      <path d="M194.99,118.29c-1.42,1.42-3.51-1.24-.5-3,.77-.45.65,2.85.5,3Z"/>
      <path d="M19.99,25.29c-.29.36-3.3-1.36-.5-3,.74-.44.69,2.76.5,3Z"/>
      <path d="M102.99,139.29l-2,2c-.26-2.11-.11-2.26,2-2Z"/>
      <path d="M22.99,2.29c.13.13,1.36-.07,2,0l-2,2c.48-1.23-1.7-3.18-1-4,1.06-1.24.89,1.89,1,2Z"/>
      <path d="M179.99,114.29c-2.11.26-2.26.11-2-2l2,2Z"/>
      <path d="M167.99,117.29c-2.11.26-2.26.11-2-2l2,2Z"/>
      <path d="M26.99,97.29l-2,2c-.26-2.11-.11-2.26,2-2Z"/>
      <path d="M47.99,121.29l-2,2c-.26-2.11-.11-2.26,2-2Z"/>
      <path d="M135.99,144.29c.8.67-1.24,1.64-2,1-.8-.67,1.24-1.64,2-1Z"/>
      <path d="M122.99,145.29c-.67.8-1.64-1.24-1-2,.67-.8,1.64,1.24,1,2Z"/>
      <path d="M183.99,117.29c.8.67-1.24,1.64-2,1-.8-.67,1.24-1.64,2-1Z"/>
      <path d="M151.99,117.29c.8.67-1.24,1.64-2,1-.8-.67,1.24-1.64,2-1Z"/>
      <path d="M138.99,117.29c-.67.8-1.64-1.24-1-2,.67-.8,1.64,1.24,1,2Z"/>
      <path d="M173.99,114.29c.8.67-1.24,1.64-2,1-.8-.67,1.24-1.64,2-1Z"/>
      <path d="M14.99,15.29c-.67.8-1.64-1.24-1-2,.67-.8,1.64,1.24,1,2Z"/>
      <path d="M19.99.29c.8.67-1.24,1.64-2,1-.8-.67,1.24-1.64,2-1Z"/>
      <path d="M15.99.29c.8.67-1.24,1.64-2,1-.8-.67,1.24-1.64,2-1Z"/>
      <path d="M72.49,4.29c.65,0,.65,1,0,1s-.65-1,0-1Z"/>
      <path d="M20.49,17.29c.65,0,.65,1,0,1s-.65-1,0-1Z"/>
      <path d="M.49,21.29c.65,0,.65,1,0,1s-.65-1,0-1Z"/>
      <path d="M32.49,79.29c.65,0,.65,1,0,1s-.65-1,0-1Z"/>
      <path d="M44.49,109.29c.65,0,.65,1,0,1s-.65-1,0-1Z"/>
      <path d="M187.49,117.29c1.42,0-1.5,2.92-1.5,1.5,0-.11,1.39-1.5,1.5-1.5Z"/>
      <path d="M178.49,136.29c.65,0,.65,1,0,1s-.65-1,0-1Z"/>
      <path d="M50.49,144.29c.65,0,.65,1,0,1s-.65-1,0-1Z"/>
      <path d="M63.49,144.29c.65,0,.65,1,0,1s-.65-1,0-1Z"/>
    </g>
  </g>
</svg>