<?xml version="1.0" encoding="UTF-8"?>
<svg id="Layer_2" data-name="Layer 2" xmlns="http://www.w3.org/2000/svg" viewBox="0 0 183.2 176.41">
  <g id="Elements">
    <g id="Element">
      <path d="M166.21,115.18c-.17-.17-.83.17-1,0-.13-.13.08-.67,0-1l1,1Z"/>
      <path d="M72.21,49.18c.93-.19,2.7-1.3,3.5-2l.5,4,2-2c1.42-.57.87,4.15,3,2,.16-.16-1.61-2.29-1-4.5.45-1.62,4.7-2.92,5-4,.19-.68-1.7-3.4-1-6,.88-3.24,5.54.45,6,2,.21.72-.21,2.29,0,2.5.25.25,2.73-.25,3,0,.82.77-.94,2.31-1,2.5-.31,1.08,2.02,8.47,3,10,.23.36,1.39,1.5,1.5,1.5.18,0,2.45-2.33,2.5-2.5.55-1.88-1.55-3.12-1-5,.17-.56,2-1.61,2-2,0-.32-3.84-4.42-4-5-.37-1.36.4-6.1,0-6.5-.19-.19-1.8.19-2,0-.16-.15.46-3.24-1.5-4l-.5,4c-1.79.39-.71-1.71-1-2-.12-.12-2.44.06-3-1.5.68-.89,2.08,1.27,3,.5.5-.41-.98-1.22-1-1.5s1.4-.24.5-2.5c-.13-.32-.81-.44-.5-1.5.05-.17,2.32-2.49,2.5-2.5.21-.01,2.36,2.49,4,0l-2.5,7c3.34.89,1.54-2.6,2-3,1.27-1.1,2.86,1.82,3.5,2,1.26.36,2.25-.45,3.5,1.5.14.22-.15.73,0,1,.38.68,1.88,2.56,2,3,.23.83-.2,2.09,0,3,.26,1.18,1.51,2.22,1,5s-2.12,2.33-1,6c.6,1.97-1,2.83-1,3,0,.22,2.14,3.49,2.5,3.5.6.01,2.1-2.43,1.5-3-.43-.41-3.32.98-3-1,4.9.87,2.29-1.91,3-4.5.19-.68,3-2.53,3-3,0-.33-.93-.62-1-1-.36-2.1,0-4.32-2-6,1.29-.52.89-2.4,1-2.5.77-.75,2.76,1.28,3,1,.12-.14.15-2.94,1.5-3,.13,0,1.68,1.84,2.5,1,.87-.89-1.64-4.51-1-6,1.82.73,2.97-1.98,3.5-2,1.22-.05,1.82,3.24,1.5,4.5-.59,2.36-2.91.38-3,.5-1.55,1.96,1.63,1.89,2.5,3,1.05.05.27-1.77.5-2,.74-.75,2.77,1.27,3,1,.19-.23-.19-1.81,0-2,.11-.11,1.99.28,2.5-1l4.5,1.5c-.42.66-1.85,1.5-2,2-1.05,3.52,1.76,2.26,2,2.5.82.82-2,4.24-2,4.5,0,.34.93.62,1,1,.63,3.7.8,7.56,2,11l-2,2.5c.11-3.48.7-6.49-3-8,.26,2.02-.37,4.63,0,6.5.07.34,1.5,1.09,1,1.5-.22.18-1.03-.26-1.5,0-.84.47-3.3,3.17-2.5,4,.35.36,1.8-1.91,2.5,0,2.55-2.85,1,1.5,1.5,2,.21.21,1.78-.21,2.5,0s2.52,2.99,3,3c1.83.02.75-4.33,2.5-4l.5,2,3.5,2c-1.45-1.58-.63-3.18-1-4.5-.15-.55-1.85-1.45-2-2-.75-2.72-.42-10.67-.5-13.5l-1.5-1c-.38-1.8,1.66-.7,2-1,.48-.43-.9-1.12-1-1.5s.32-1.15,0-3c-1.14-6.51,3.75-2.21,4-2.5.22-.25.41-5.83-1-6.5.8-.78.73-1.36,2-1,1.52.44,2.48.27,3.5.5.38.09.59.88,1,1,2.43.74,3.6-2,4-2,.33,0,.61.92,1,1,.77.16,2.31-.19,2.5,0,.82.82-1.84,7.12,2,6l2-7c-.16,2.01,1.21,1.76.5,4-.09.29-.5.43-.5.5.01.21,1.86,3.02,2.5,3.5l.5-5.5c-.13-.88,1.93-.57,2-.5.26.26-.59,1.8.5,2,2.72.49.29,2.88,4.5,4.5l2,5.5-3-3c-3.05.43,1,3.19,1,3.5,0,.2-2.21,2.44-3,2.5l-1-3v6c1.25.57,2.7-1.33,3-1,.82.89-.96,2.34-1,2.5-.67,3.03,2,5.54,2,6-.01,1.32-2.86,1.38-3,1.5-.16.13,1.72,2.56,1,4-1.98.32-.59-2.53-1-3-1.25-1.43-.8,2.76-1,3.5-.15.55-1.83,1.44-2,2-.28.94.52,2.15-1,3,1.87,3.04,2.75-.5,3.5-.5.3,0,.56.79,1,1,.66.31,2.46.69,3,1,.69.4,1.5,1.86,2,2,1.39.4,1.71-1.57,2.5-.5-1.57.67-.75,3.26-1,3.5-.13.13-2.31-.23-3,1.5-.88,2.21,1.81,1.31,2,1.5.83.83-.97,2.36-1,2.5-.63,3.58-.11,4.43-1.5,8.5-.49,1.43-.67,2.52-.5,4l-3-3,1.5,3c3.34,1.62,1.19,14,5.5,16.5v8c-1.35,1.3-1.04,1.96-2.5.5-1.55-1.55-1.15-1.28-2.5,0-.06.06-1-.14-1,.5s.95.45,1,.5-.14,1,.5,1c.37,0,.72-.78.5-1l.5,5-3-4c-.86.17-2.12-.57-2.5.5-.54,1.5-1.3,2.81-1,4.5l-3-3c-.45,1.2,1.7,3.32,1,4-.17.16-3.65.13-3,2.5.05.19,1.82,1.68,1,2.5s-2.35-1-2.5-1c-.25,0-3.09,2.92-3.5,3.5-.14.19-.24,2.13-1.5,2.5-.79.23-1.9-.48-2.5.5-.66.88-2.12-1.27-3-.5-.33.29,1.57,1.77,1,3,2.14-1.6,1.74-.21,2.5,0,1.31.36,1.74-1,2-1,.21,0,1.84,1.72,1.5,2-.32.27-1.87-.58-2,.5-.4,3.25-1.04,2.28-2,4-.26.47.19,1.31,0,1.5-.34.34-3.42-.97-5,1.5-.16.25.15.79,0,1-.44.63-2,1.72-2,2,0,.34,2.56,2.03,2,2.5-2.03-.33-2.32,1.84-3.5,0h-3.5l.5,3-3.5-6c-2.89-.54-1.55.75-2,1.5-2.45,4.11-9.88,2.9-9,0,.12-.4.89-.61,1-1,.29-1.05-2.35-3.57-3-5l1-4.5c-2.92-.73-1.48,1.87-3.5,3-.47.26-1.28-.18-1.5,0-.5.41.93,1.16,1,1.5.53,2.59-1,3.78-1,4,0,.25,3.21,4.09-1,3.5l-3-3.5c1.34-.57.56-2.39,1.5-2.5.87-.1,2.4.5,2.5-.5-1.09-2.02-4.42-1.14-5-3s2.33-3.52-1-4.5c.27,1.64-.39,4.09,0,5.5.11.41,1.15.94,1.5,1.5,2.79,4.55-2.93,2.46-3.5,3-.16.15.46,3.24-1.5,4l-1.5-4c-1.79-.4-.72,1.74-1,2-.17.15-3.9.17-4.5,0-1.68-.46-.88-3.3-2.5-3,1.02,5.42-2.8,1.77-3,2-.37.43.36,4.63,0,5-.67.69-3.33-1.69-4-1-.35.36.88,5.36-1.5,6-4.6,1.25-6.48-3-7-3-.32,0-.57.84-1,1-.56.2-1.33-.17-1.5,0-.33.33.95,5.21-4.5,4-.37-.08-2.5-1.83-3-2-.7-.23-2.28.22-2.5,0-.19-.19.26-1.03,0-1.5-.41-.74-2.06-2.21-3-2.5l.5,3c-.75,1.05-.35,3.52-2,4-2.52.73-2.96-1.59-4-2-2.22-.87-1.3,1.8-1.5,2-.98.98-5.29-1.41-7-1-.53-1.64.8-1.93,1-2.5s-.18-1.37,0-2c.21-.72,2.79-2.28,3-3,.69-2.39,1.02-2.84,2-5,.23-.51-.19-1.34,0-2,.57-1.98,3.84-1.34,4-1.5s-.48-3.43,1.5-4c1.09-.31,2.92-.32,4-1,2.52-1.6,1.88-4.9-1-5-1.13-.04.14,2.02-1,2-1.33-1.75-2.74-2.51-5-2-.38.09-.6.88-1,1-1.44.41-1.75-1.95-3,0l.5-4-3,2c.74-1.88-1.29-3.46-1-4.5.13-.46,1.57-1.01,1-3-.47-1.63-2.87-1.37-3-1.5-.4-.4.4-6.6,0-7-.12-.12-2.84-.14-3.5,0-.36.07-.57.82-1,1-.54.22-1.33-.17-1.5,0-.16.16.11,4.38-2,.5-.26-.48.18-1.28,0-1.5-.41-.5-1.25,1-1.5,1-.95,0-1.55-2.92-2.5-3.5-.06-1.04,1.73-.27,2-.5.49-.41-1-1.25-1-1.5.01-1.35,1.24.45,1.5.5.77.16,2.3-.19,2.5,0,.4.38-.98,3.33,1,3-.3-1.73,1.58-2.66,1-4.5-.12-.38-.83-.58-1-1-.22-.54.17-1.33,0-1.5-.19-.19-1.03.26-1.5,0-.69-.39-1.46-1.83-2-2-1.47-.47-2.84,2.94-2.5-1-1.98-.33-.6,2.62-1,3-.11.1-2.89.1-3,0-.46-.4,1.34-3.89-2-3l-1,6c-.36-2.17.52-5.62,0-7.5-.37-1.33-4.92-3.79-4-7,.31-1.07,3.22-1.61,1-3,1.75-.5,0-5.74,2.5-4.5,1.85.92,1.88,4.82,1.5,6.5-.04.19-1.82,1.54-1,2.5.41.48,1.21-1.37,2.5-1,.51.15,2.02,2.57,2.5,2,.2-2.1,1.4-3.16,1-5.5-.11-.66-1.93-.71,0-2l1-5.5c3.45,3.46,3.8-2.2,3-3-.19-.19-1.81.19-2,0-.11-.11-.11-2.89,0-3,.43-.43,2.91,1.31,2-3l2,2.5c-.16,1.95.24,4.11,0,6-.05.37-.94.62-1,1-.32,1.89.57,3.63-1,5.5l3-2.5,1.5-5.5,2.5,5,1-4.5c.57-2-.87-2.54-1-3-.35-1.26,1.49-1.81,1-3.5,3.55-.2,4.07-1.88,7,1-.11-2.51,2.34-4.51,5-4,.4-1.79-1.74-.72-2-1-.14-.15-.13-3.85,0-4,.39-.46,1.61,1.46,2,1,.43-.51-.39-5.09,0-6.5.35-1.27,3.65-1.73,4-3,.38-1.37.23-4.22-1-5,.42-.74.87-3.37,1-3.5.2-.19,4.85-.18,5.5,0,.82.22,2.13,2.92,3.5,3,.78-1.77-.93-3.12-1-3.5-.14-.79.13-1.71,0-2.5-.61.13-2.89.1-3,0-.7-.68,1.45-2.8,1-4,2.49.63,1.72,2.31,2,4ZM142.71,30.18c-.65,0-.65,1,0,1s.65-1,0-1ZM95.71,31.18c-.65,0-.65,1,0,1s.65-1,0-1ZM148.21,32.18c-1.09-1.09-3.09.91-2,2s3.09-.91,2-2ZM126.71,35.18c-.65,0-.65,1,0,1s.65-1,0-1ZM147.21,38.18l-.5-3c-2.45,1.38-1,3.68-1.5,5.5-.23.85-2.73,1.46-2,4,.47,1.62,4.14,1.86,2,5l1,4.5c.91-.66,4.9-5.14,5-5.5.32-1.16.22-7.49,0-9-.05-.32-1.78-1.75-1-3.5l-3,2ZM119.71,36.18c-.65,0-.65,1,0,1s.65-1,0-1ZM160.21,37.18c-.76-.64-2.8.33-2,1,.76.64,2.8-.33,2-1ZM122.21,44.18c.43-.43.08-6.02-1.5-6-.4,0-1.45,1.84-2,2-.12.03-1.07-1.94-2.5.5l4,2-4.5,1.5-.5,2c1.6-.77,3.55,2.53,4,2,.32-.38-.31-3.69,0-4,.25-.25,2.75.25,3,0ZM101.21,40.18l-4-1,3,4c1.63.46,1.11-2.89,1-3ZM127.21,43.18c.1-.12.1-2.88,0-3-1.31-1.57-1.31,4.57,0,3ZM156.71,44.18c-.65,0-.65,1,0,1s.65-1,0-1ZM123.21,48.18l-2-2c-.26,2.11-.11,2.26,2,2ZM113.21,47.18c-4.02-.48-1.01,2.14-1,2.5,0,.17-1.55,1.02-1,2.5l-2,.5c.82.86,2.5,2.08,3.5,2.5.54.23,1.33-.17,1.5,0s-.45,6.92,2,4c.25-.3-.14-3.36,0-4.5.22-1.81.76-2.84,1-4.5l-3,4-1-7ZM140.71,47.18c-.65,0-.65,1,0,1s.65-1,0-1ZM138.21,52.18c.64-.76-.33-2.8-1-2-.64.76.33,2.8,1,2ZM83.71,51.18c-1.42,0,1.5,2.92,1.5,1.5,0-.11-1.39-1.5-1.5-1.5ZM140.21,51.18c-.2.24.16,1.73,0,2.5-.08.39-1,.67-1,1,0,1.48,3,1.48,3,0,0-.33-.92-.61-1-1-.15-.71.06-3.77-1-2.5ZM91.21,52.18c-.93-.93-4.7,2.27-4,4,1.13-.01,1.69-1.55,2.5-2,.29-.16,3.41-.09,1.5-2ZM155.21,53.18c-2.11-.26-2.26-.11-2,2l2-2ZM138.21,56.18c.64-.76-.33-2.8-1-2-.64.76.33,2.8,1,2ZM77.21,55.18c-.76-.64-2.8.33-2,1,.76.64,2.8-.33,2-1ZM102.21,55.18c-3.3-.72-1.72,2.42-2,4.5l3,3.5-1-8ZM93.21,56.18c-1.74-1.74-3.49,2.25-.5,4,.76.44.66-3.84.5-4ZM119.21,56.18c-2-2-2.71,3.12-2,4,.64.8,3.05-2.95,2-4ZM121.71,56.18c-.11,0-1.5,1.39-1.5,1.5,0,1.42,2.92-1.5,1.5-1.5ZM144.71,56.18c-.65,0-.65,1,0,1s.65-1,0-1ZM78.71,57.18c-.65,0-.65,1,0,1s.65-1,0-1ZM90.21,60.18c.81-1-1.58-3.52-2-3-.81,1,1.58,3.52,2,3ZM70.71,58.18c-.65,0-.65,1,0,1s.65-1,0-1ZM74.71,58.18c-.65,0-.65,1,0,1s.65-1,0-1ZM147.21,58.18c-2.09-2.09-2.62,3.38-2,4,2.09,2.09,2.62-3.38,2-4ZM142.21,59.18c-1.03-1.03-3.39.32-.5,2,.73.42.68-1.82.5-2ZM78.71,61.18c-.65,0-.65,1,0,1s.65-1,0-1ZM87.21,63.18c.64-.76-.33-2.8-1-2-.64.76.33,2.8,1,2ZM94.71,61.18c-.65,0-.65,1,0,1s.65-1,0-1ZM100.21,61.18c-3.94-.75-.15,3.99-4,3,.5,1.64-.67,1.8-1,2.5-1.1,2.34,2.67,1.22,3,1.5.2.17-2.63,3.38.5,5l.5-8,3,2-2-6ZM108.21,61.18c-2.5-2.61-1.92,4.08-2,4.5-.18.89-1.73,4.01-2,5-.33,1.22-.34,2.7-1,4l3,5.5,2-2.5c-4.54-3.31-.4-4.56,0-6s-.37-7.08-.5-7.5c-.69-2.21.82-2.67.5-3ZM114.21,66.18c.59-.7-.23-5-1.5-5-1.35,0,.46,1.26.5,1.5.16.92-.19,4.92,1,3.5ZM121.21,62.18c-2.11-.26-2.26-.11-2,2l2-2ZM143.71,62.18c-.65,0-.65,1,0,1s.65-1,0-1ZM149.71,62.18c-.65,0-.65,1,0,1s.65-1,0-1ZM157.71,62.18c-.65,0-.65,1,0,1s.65-1,0-1ZM126.21,67.18c.1-.12.1-2.88,0-3-.4-.48-1.07.81-1.5,1-.53.24-3.16-.02-1.5,2,.41.5,1.25-1,1.5-1s1.09,1.5,1.5,1ZM139.21,64.18c-1.09-1.09-3.09.91-2,2s3.09-.91,2-2ZM155.71,64.18c-.65,0-.65,1,0,1s.65-1,0-1ZM91.21,67.18l-2-2c-.26,2.11-.11,2.26,2,2ZM112.21,65.18c-1.63-1.63-2.87,1.92-2,3,.46.57,2.83-2.17,2-3ZM142.71,65.18c-.65,0-.65,1,0,1s.65-1,0-1ZM69.21,66.18c-1.09-1.09-3.09.91-2,2s3.09-.91,2-2ZM73.71,66.18c-.65,0-.65,1,0,1s.65-1,0-1ZM130.21,68.18c.64-.76-.33-2.8-1-2-.64.76.33,2.8,1,2ZM84.21,67.18c-.15-.13-3.85-.13-4,0-.35.32,1.99,2.89,3,3-.58-1.16,1.32-2.74,1-3ZM62.71,68.18c-.65,0-.65,1,0,1s.65-1,0-1ZM76.21,69.18c-.2-.16-.94.2-1.5,0-.43-.15-.68-1-1-1-1.35,0,.45,1.24.5,1.5.16.77-.2,2.26,0,2.5.91,1.09.92-1.32,1-1.5.19-.43,1.49-1.1,1-1.5ZM114.71,69.18c-.65,0-.65,1,0,1s.65-1,0-1ZM123.21,69.18c-1-.81-3.52,1.58-3,2,1,.81,3.52-1.58,3-2ZM123.21,74.18l3-5c-1.98-.31-.58,2.47-1,3-.22.27-2.97-.87-2,2ZM131.21,72.18c.49-.4-.81-1.07-1-1.5-.23-.53.17-1.29,0-1.5-1.3-1.55-1.73,5.24,1,3ZM63.21,70.18c-1.42-1.42-3.51,1.24-.5,3,.77.45.65-2.85.5-3ZM136.21,72.18c1.03-1.03-.32-3.39-2-.5-.42.73,1.82.68,2,.5ZM94.71,71.18c-.65,0-.65,1,0,1s.65-1,0-1ZM146.21,73.18c.64-.76-.33-2.8-1-2-.64.76.33,2.8,1,2ZM71.21,72.18c-.76-.64-2.8.33-2,1,.76.64,2.8-.33,2-1ZM143.21,74.18c.64-.76-.33-2.8-1-2-.64.76.33,2.8,1,2ZM86.21,85.18c.16.16-.17.86,0,1,.23.2,1.74-.2,2,0s-.86,2.98,2,2l-1-5c2.92-.91,1.68,1.7,2,2,.54.51,3.43-2.27,1-3.5l-1-5.5c-4.27,3.49-2.83,1.73-3-3-3.42-1.05-.96,1.42-1,1.5-1,1.82-1.46,1.34,0,3.5l-5-4c-1.05,4.17,1.7,2.63,2,3,1.83,2.25-1.85,1.87-2,2-.7.59.69,1.47,2,1l1,5c.14.17.83-.17,1,0-.48-.48-.34-7.34,2-5,.48.48.34,7.34-2,5ZM111.21,75.18c.64-.76-.33-2.8-1-2-.64.76.33,2.8,1,2ZM133.21,75.18c.64-.76-.33-2.8-1-2-.64.76.33,2.8,1,2ZM65.21,77.18l-4-3-1,5c4.06.64.02-1.92,1-3,.14-.15,2.56,1.72,4,1ZM96.71,74.18c-.65,0-.65,1,0,1s.65-1,0-1ZM117.21,76.18c.64-.76-.33-2.8-1-2-.64.76.33,2.8,1,2ZM128.71,74.18c-.65,0-.65,1,0,1s.65-1,0-1ZM150.21,74.18c-1.74-1.74-3.49,2.25-.5,4,.76.44.66-3.84.5-4ZM164.21,76.18c.64-.76-.33-2.8-1-2-.64.76.33,2.8,1,2ZM139.21,75.18c-1.13-.94-3.93,2-2.5,2,.32,0,.57-.85,1-1,.27-.1,2.57-.1,1.5-1ZM167.21,77.18c.64-.76-.33-2.8-1-2-.64.76.33,2.8,1,2ZM102.21,79.18c.81-1-1.58-3.52-2-3-.81,1,1.58,3.52,2,3ZM123.71,76.18c-.65,0-.65,1,0,1s.65-1,0-1ZM112.21,77.18c-1.13-1.34-2.69.57-2,2.5.65,1.8.31,5.16,0,7-.7,4.24,1.74,8.31,0,11l1,4.5,2-2.5v-2.5c1.2.97,2.61.98,3-.5.17-.63.16-4.34,0-4.5-.19-.19-1.81.19-2,0-.18-.18-.18-4.82,0-5,.19-.19,1.81.19,2,0,.14-.14.14-3.86,0-4-.15-.15-2.21.11-3.5-2-.94-1.54-.25-3.7-.5-4ZM119.21,82.18c.16-.2-.2-.94,0-1.5.15-.43,1-.68,1-1s-.85-.57-1-1c-.1-.27-.1-2.57-1-1.5-.83.99,1,2.35,1,2.5,0,.31-.82.56-1,1-.52,1.3.61,1.97,1,1.5ZM143.21,77.18c-1.03-1.03-3.39.32-.5,2,.73.42.68-1.82.5-2ZM70.21,80.18c.64-.76-.33-2.8-1-2-.64.76.33,2.8,1,2ZM97.21,82.18l-4-4,1,4h3ZM123.21,82.18c-.23-.25.6-3.72-2-4-.12,1.8-.07,3.23.5,5,.09.29.5.42.5.5-.02.63-3.44,2.37-3,4l3-.5v3.5l2.5,4.5.5-3.5-1-3.5,3,2c-.16-1.43.25-3.16,0-4.5-.07-.37-.87-.59-1-1-.2-.63-.05-3.49-1.5-3.5-.25,0-1.07,1.48-1.5,1ZM124.71,78.18c-.65,0-.65,1,0,1s.65-1,0-1ZM129.21,81.18c.15-.15.27-3.45-.5-3-3.01,1.76-.92,4.42.5,3ZM155.71,78.18c-.65,0-.65,1,0,1s.65-1,0-1ZM161.71,78.18c-.65,0-.65,1,0,1s.65-1,0-1ZM58.21,79.18c-2.11-.26-2.26-.11-2,2l2-2ZM117.21,79.18c-1.09-1.09-3.09.91-2,2s3.09-.91,2-2ZM166.71,79.18c-.65,0-.65,1,0,1s.65-1,0-1ZM136.21,82.18c.64-.76-.33-2.8-1-2-.64.76.33,2.8,1,2ZM63.21,81.18c-1.59-1.34-5.69,1.79-3.5,4l-.5,4c3.12-.83,1.51-3.73,2-5.5.14-.51,2.57-2.02,2-2.5ZM67.21,81.18c-4.41-.8.23,3.6-1,5l-4,2.5,4-.5c-.26,1.1,1.75,5,2.5,5,.39,0,1.44-1.84,2-2,.65-.19,1.46.22,2,0,.64-.26.85-1.52,2.5-1-.57-1.22,1.33-2.72,1-3s-3.36.19-4.5,0c-.4-.07-2.43-2.07-.5.5l-2.5,1.5c-3.02-1.87-.15-3.18-.5-4.5-.15-.58-1.75-1.67-1-3.5ZM82.21,83.18c.64-.76-.33-2.8-1-2-.64.76.33,2.8,1,2ZM98.71,81.18c-.65,0-.65,1,0,1s.65-1,0-1ZM164.21,81.18c-1.74-1.74-3.49,2.25-.5,4,.76.44.66-3.84.5-4ZM107.21,89.18c.25-.25-.56-2.85,1-3.5l-2-3.5-1,7c.64-.07,1.87.13,2,0ZM133.21,82.18c-.19-.19-2.19.12-3,0,0,2.83-1.79,5.63-1,8.5.46,1.68,2.59,1.25,3.5,1.5s2.41,1.1,2.5,1c.1-.11.11-2.89,0-3-.3-.3-3.7.3-4,0-.11-.11-.11-2.89,0-3,.19-.19,1.81.19,2,0,.18-.18.18-4.82,0-5ZM165.71,82.18c-.65,0-.65,1,0,1s.65-1,0-1ZM96.21,85.18c1.03-1.03-.32-3.39-2-.5-.42.73,1.82.68,2,.5ZM101.21,85.18c.64-.76-.33-2.8-1-2-.64.76.33,2.8,1,2ZM161.21,85.18c.64-.76-.33-2.8-1-2-.64.76.33,2.8,1,2ZM137.21,84.18c-2.11-.26-2.26-.11-2,2l2-2ZM140.21,84.18c-2.28-2.28-2.56,4.33-2,5,1.09,1.3.84-1.94,1-2.5.06-.2,1.82-1.68,1-2.5ZM82.21,85.18c-1.03-1.03-3.39.32-.5,2,.73.42.68-1.82.5-2ZM54.21,89.18l-1-2.5c-3.85,3.67-1.24,1.44,1.5,3.5,1.17-1.73,1.98.98,3.5-1.5l-4,.5ZM101.21,89.18c.1-.12.1-2.88,0-3-1.31-1.57-1.31,4.57,0,3ZM117.71,86.18c-.65,0-.65,1,0,1s.65-1,0-1ZM150.21,92.18c.14-.17.17-3.9,0-4.5-.11-.39-1.75-1.81-2-1.5-.81,1.01.96,2.31,1,2.5.18.85-.2,4.94,1,3.5ZM158.21,90.18c.16-.2-.2-.94,0-1.5.15-.43,1-.68,1-1,0-.21-1.72-1.84-2-1.5-.46.57-.05,5.26,1,4ZM50.21,91.18c.49-.4-.81-1.07-1-1.5-.23-.53.17-1.29,0-1.5-1.3-1.55-1.73,5.24,1,3ZM91.71,88.18c-.65,0-.65,1,0,1s.65-1,0-1ZM79.21,91.18c.64-.76-.33-2.8-1-2-.64.76.33,2.8,1,2ZM95.21,91.18c.64-.76-.33-2.8-1-2-.64.76.33,2.8,1,2ZM116.71,89.18c-1.42,0,1.5,2.92,1.5,1.5,0-.11-1.39-1.5-1.5-1.5ZM46.21,90.18l-3,3.5c1.84,3.36-.22,4.56,1,9,.32,1.15-1.76,2.5-.5,2.5.18,0,1.74-1.95,2.5.5.3.98-.83,2.78,1,2.5-.08-4.36,1.13-4.5,4-2,.89-2.94-1.66-1.66-2-2s.34-4.66,0-5c-.25-.25-2.75.25-3,0-.38-.38.27-7.43,0-9ZM53.21,94.18c.16-.2-.2-.94,0-1.5.15-.43,1-.68,1-1,0-.21-1.72-1.84-2-1.5-.16.2.2.94,0,1.5-.15.43-1,.68-1,1,0,.21,1.72,1.84,2,1.5ZM65.21,92.18c.52-.42-2-2.81-3-2-.52.42,2,2.81,3,2ZM93.21,92.18l-2-2c-.26,2.11-.11,2.26,2,2ZM109.21,93.18c1-1.22-2.05-3.95-3-3-1.89,1.89,1.05,1.8,1.5,2s1.1,1.48,1.5,1ZM137.71,90.18c-.65,0-.65,1,0,1s.65-1,0-1ZM87.21,91.18c-2.73-2.24-2.3,4.55-1,3,.17-.21-.23-.97,0-1.5.19-.43,1.49-1.1,1-1.5ZM99.21,94.18c.17.17.94-.2,1.5,0,.38.14,1.49,1.84,1.5.5,0-.24-2.43-4.13-3-3.5-.1.11-.11,2.89,0,3ZM146.21,95.18c1.04-1.29-1.41-4.73-2-4-1.04,1.29,1.41,4.73,2,4ZM59.21,94.18c.64-.76-.33-2.8-1-2-.64.76.33,2.8,1,2ZM119.21,92.18c-1.03-1.03-3.39.32-.5,2,.73.42.68-1.82.5-2ZM98.21,93.18c-.14-.14-3.86-.14-4,0-1.14,1.14,1.2,4.83,1,5-.64.52-2.83-1.36-2,3-2.38-.46-1.63-2.27-2-3.5-.05-.17-2.28-2.9-3-2,1.7,1.17.5,2.89,1.5,4.5.77,1.24,2.57,1.57,0,3-.47.26-1.31-.19-1.5,0-.28.28.19,3.9,0,5l2.5-3c2.44,1.43.47,2.38.5,2.5.35,1.26,1.22-.5,1.5-.5,1.53,0,2.35,3.8,2.5,4,.13.17,3.79.07,3,3-1.45-1.61-2.77.27-3,0-.2-.23.19-1.81,0-2-.21-.21-1.78.21-2.5,0-1.83-.54-.62-3.93-3.5-3,1.01,1.97,1.45,4.4,4,4l.5,4c-1.5-.63-1.19-2.71-2-3-3.21-1.14-1.88-1.36-2.5-3.5-.17-.57-2.01-1.72-2.5-2.5-1.16.62,1.02,1.55.5,2-.11.1-2.89.1-3,0-.52-.45,1.66-1.38.5-2l-2.5-3c.1,1.99,1.52,3.22,1,5.5-.27,1.19-2.48,5.28-3,7-.29.96.35,2.02,0,4-.12.7-.12,3.37,0,3.5.09.1,1.99-.28,2.5,1l1-4c1.48,2.61,4.73,4.68,4.5,7.5l2.5,4.5c1.05.05.27-1.77.5-2,.11-.11,2.15-.15,3-1v6c5.56-2.55-1-7.04-1-7.5,0-.34,1.63-1.34,2-2,1.51-2.71,1.46-.96,2-1.5.21-.21-.21-1.78,0-2.5.2-.68,2.59-2.75,3.5-2.5,2.9.8,3.08-.64,5-1,.78-.14,4.34-.16,4.5,0,.19.19-.26,1.03,0,1.5.38.69,1.86,1.5,2,2,.42,1.53-.77,3.17,1.5,4.5.92.54.28-1.78.5-2,.19-.19,4.84-.18,5.5,0,.5.14,2.03,2.57,2.5,2-.45-1.2,1.7-3.31,1-4-.98-.97-3.52,2.76-3-.5,1.57-.67.75-3.26,1-3.5.19-.19,1.81.19,2,0,.48-.48,1.57-6.94,2-8.5.17-.6,2.95-3.65-.5-3.5l-2.5,4-1-4.5c2.58-2.36-.61-1.11-1-1.5-.17-.17.22-.96,0-1.5-.17-.42-.88-.62-1-1-.59-1.89,2.55-4.36,0-4.5l-2,6-3-2c.22,1.14-.32,4.61,0,5,.47.57,3.84-4.24,5-3,1.68,1.8-3,5.18-3,5.5,0,.89,1.05.22,0,4-.86,3.07.6,2.12,1.5,2.5.42.18.62.89,1,1,1.36.39,1.91-2.09,3.5.5-3.24,2.01-.64,6.46-4.5,3.5-3.6-2.76-2.97-1.17-6-2-.7-.19-2.3-2.81-3-3-2.27-.62-4.17,1.51-3.5-2.5-.21-1.42-1.57.99-2,.5-.66-.76,1.54-2.79,1-4.5-.13-.41-.91-.62-1-1-.2-.87.16-2.06,0-3-.07-.38-1-.67-1-1,0-1.34,3.38-1.01,3-2.5-3.11.94-3.75-2.02-5.5-3-.47-.26-1.31.19-1.5,0s.16-1.73,0-2.5c-.08-.39-.98-.65-1-1-.01-.18,2.09-2.44,1-3.5ZM138.71,93.18c-.65,0-.65,1,0,1s.65-1,0-1ZM162.21,93.18c-.62-.62-6.09-.09-4,2,.62.62,6.09.09,4-2ZM40.21,97.18c.29.36,3.3-1.36.5-3-.74-.44-.69,2.76-.5,3ZM139.21,98.18c1.19-.13,3.85-3.11,3-4-1.24-1.3-.43,3.92-2.5,1l-.5,3ZM104.21,98.18c.1-.12.1-2.88,0-3-1.31-1.57-1.31,4.57,0,3ZM130.71,95.18c-.65,0-.65,1,0,1s.65-1,0-1ZM154.71,95.18c-.65,0-.65,1,0,1s.65-1,0-1ZM80.71,96.18c-.65,0-.65,1,0,1s.65-1,0-1ZM135.21,98.18c.64-.76-.33-2.8-1-2-.64.76.33,2.8,1,2ZM158.71,96.18c-.65,0-.65,1,0,1s.65-1,0-1ZM68.21,101.18c.29.36,3.3-1.36.5-3-.74-.44-.69,2.76-.5,3ZM81.21,101.18c.1-.12.1-2.88,0-3-1.31-1.57-1.31,4.57,0,3ZM144.21,108.18c.01-2.38.42-4.34,1-6.5.11-.41,1-.67,1-1l-2-2.5-1,7.5c-2.36,1.37-1.49,3.51-3,5l-1,6.5c1.79.22.55-1.49,1.5-3,1.44-2.29,2.11-5.55,3.5-6,0,1.11-.29,3.46.5,3,2.66-1.55,1.5-6.2.5-5-.2.23.2,1.77,0,2-.12.14-.66-.11-1,0ZM86.71,99.18c-.65,0-.65,1,0,1s.65-1,0-1ZM123.21,101.18c.64-.76-.33-2.8-1-2-.64.76.33,2.8,1,2ZM59.21,109.18c-.27-.27.25-2.59,0-3.5-.15-.55-1.84-1.45-2-2-.34-1.21.96-3.7-1-3.5v6.5c.98,1.44,5.45,7.01,7,5.5.84-.82-1.01-2.37-1-2.5.02-.46,2.12-1.46,2-2.5-2.86-.98-1.74,1.8-2,2-.12.09-2.89.11-3,0ZM41.21,101.18c-1.03-1.03-3.39.32-.5,2,.73.42.68-1.82.5-2ZM63.21,105.18c1.05-1.05-1.36-4.8-2-4-.71.88,0,6,2,4ZM155.21,101.18c-1.74-1.74-3.49,2.25-.5,4,.76.44.66-3.84.5-4ZM51.71,102.18c-.65,0-.65,1,0,1s.65-1,0-1ZM71.21,105.18c.83-.83-1.54-3.57-2-3-.87,1.08.37,4.63,2,3ZM125.21,104.18c.53-.43-1.88-3.26-3-.5-1.12,2.76.93.75,1.5.5.52-.23,1.28.17,1.5,0ZM131.21,103.18c-2.11-.26-2.26-.11-2,2l2-2ZM126.71,105.18c-.65,0-.65,1,0,1s.65-1,0-1ZM135.21,112.18l.5-7c-3.12,2.84-5.38,4.41-.5,7ZM159.21,107.18c.64-.76-.33-2.8-1-2-.64.76.33,2.8,1,2ZM168.21,105.18c-1.7-1.7-3.26,1.88-.5,3s.76-.92.5-1.5c-.23-.53.18-1.32,0-1.5ZM124.71,106.18c-.65,0-.65,1,0,1s.65-1,0-1ZM78.21,107.18c-1.03-1.03-3.39.32-.5,2,.73.42.68-1.82.5-2ZM164.71,107.18c-.65,0-.65,1,0,1s.65-1,0-1ZM51.21,108.18c-2.88-.36-1.59.37-2,1.5-.14.38-1.85,1.5-.5,1.5.2,0,2.43-2.21,2.5-3ZM160.21,108.18c-1.96-.37-2.74,1.39-4,2.5l1,4.5c1.79.4.72-1.74,1-2s2.74.25,3,0c.59-.58-1.73-3.56-1-5ZM67.21,112.18c.83-.83-1.54-3.57-2-3-.87,1.08.37,4.63,2,3ZM113.71,109.18c-.65,0-.65,1,0,1s.65-1,0-1ZM130.21,112.18c-.29-.34,0-3.71-3-3v5c1.48.55,2.33-1.01,2.5-1,.35.01.66.99,1,1,.56.01,2.1-2.35,1.5-3-.42-.45-1.61,1.47-2,1ZM162.71,109.18c-.65,0-.65,1,0,1s.65-1,0-1ZM81.21,111.18c-2.93-.79-2.83,2.87-3,3-.18.14-.91-.11-1.5,0-.9.17-.6,2.88-.5,3,.23.27,1.55-1.61,3,0-.43-2.3,1.11-3.98,2-6ZM60.21,114.18c1.03-1.03-.32-3.39-2-.5-.42.73,1.82.68,2,.5ZM69.21,117.18c.76-.68-.59-4.73-2.5-4-.62.24-1.44,1.84-2,2-.72.21-2.23-.22-2.5,0-.19.16,2.45,3.1,0,4.5h3c-1.13-.47-1.32-3.18-1-3.5.59-.59,3.97,1.92,5,1ZM147.71,113.18c-.65,0-.65,1,0,1s.65-1,0-1ZM73.21,117.18c.1-.12.1-2.88,0-3-1.31-1.57-1.31,4.57,0,3ZM145.71,114.18c-.65,0-.65,1,0,1s.65-1,0-1ZM143.21,117.18c-2.86-.98-1.74,1.8-2,2s-1.81-.19-2,0c-.59.58,1.73,3.56,1,5l3-7ZM125.21,123.18c.17-.17-.22-.96,0-1.5.25-.6,1.96-2.31,1-3.5-.75-.93-1.77,2.05-2,2.5s-1.8,1.7-1,2.5c.07.07,1.93.07,2,0ZM136.21,118.18c-.11-.11-2.89-.11-3,0-2.66,2.66,5.66,2.66,3,0ZM70.21,126.18c.4-.47-.8-3.59,1-4.5l-3-2.5c.06,1.82-.09,3.67,0,5.5.08,1.62.84,2.86,2,1.5ZM59.21,120.18c-.76-.64-2.8.33-2,1,.76.64,2.8-.33,2-1ZM75.21,125.18l-2-2-2,3,4-1ZM130.71,123.18c-.65,0-.65,1,0,1s.65-1,0-1ZM103.71,124.18c-.65,0-.65,1,0,1s.65-1,0-1ZM61.71,125.18c-.65,0-.65,1,0,1s.65-1,0-1ZM141.21,125.18c-.12-.1-2.88-.1-3,0-1.57,1.31,4.57,1.31,3,0ZM148.21,127.18l-2-2c-.26,2.11-.11,2.26,2,2ZM133.21,126.18c-2.11-.26-2.26-.11-2,2l2-2ZM107.71,127.18c-.65,0-.65,1,0,1s.65-1,0-1ZM59.71,129.18c-.65,0-.65,1,0,1s.65-1,0-1ZM74.71,129.18c-.65,0-.65,1,0,1s.65-1,0-1ZM79.71,129.18c-.65,0-.65,1,0,1s.65-1,0-1ZM82.71,129.18c-.65,0-.65,1,0,1s.65-1,0-1ZM127.71,129.18c-.65,0-.65,1,0,1s.65-1,0-1ZM135.21,129.18c-.83-.83-3.57,1.54-3,2,1.08.87,4.63-.37,3-2ZM70.71,132.18c-.65,0-.65,1,0,1s.65-1,0-1ZM115.21,136.18c.13-.15.13-3.85,0-4-1.37-1.64-1.37,5.64,0,4ZM141.21,132.18c-1.56-1.56-4,2.88-3,5,1.8-.29,4.05-3.95,3-5ZM80.21,133.18c-1.03-1.03-3.39.32-.5,2,.73.42.68-1.82.5-2ZM137.21,134.18c-1.34-.82-4.97,1.52-5,2.5,0,.28,3.12,2.33,2,4.5,4.85.83-1.07-4.96,0-6,1.01-.98,3.66,3.05,3-1ZM86.21,135.18c-2.9-.81-2.84,2.86-3,3-.49.45-1.24-1-1.5-1-.34,0-5.66,2-6,2-.25,0-.69-1.36-2-1-.17.05-2.27,2.11-2.5,2.5-.13.22.14.7,0,1-.41.87-2.05,1.92-.5,3.5l-.5,4,2.5-4,3.5,4-.5-3c1.11-.67.11-3.55.5-4,.25-.29,4.1,3.88,3-3,4.1-.6.75,2.75,1,3,2.12,2.12,1.89-1.91,2-2,.23-.2,4.63,3.38,2.5-2l1.5-3ZM143.21,136.18c-1.09-1.09-3.09.91-2,2s3.09-.91,2-2ZM89.21,140.18c.15-.15.27-3.45-.5-3-3.01,1.76-.92,4.42.5,3ZM126.21,138.18c-1.09-1.09-3.09.91-2,2s3.09-.91,2-2ZM105.21,139.18c-1.09-1.09-3.09.91-2,2s3.09-.91,2-2ZM132.21,139.18c-.11-.11-1.89-.39-2,.5-.46,3.59.64,2.01,1.5,2.5,2.1,1.18.87,3.7,3,5l.5-5c-2.86.87-2.81-2.81-3-3ZM139.21,139.18c-.76-.64-2.8.33-2,1,.76.64,2.8-.33,2-1ZM93.21,141.18c-.21-.17-.97.23-1.5,0-.43-.19-1.1-1.49-1.5-1-2.24,2.73,4.55,2.3,3,1ZM96.21,143.18c.64-.76-.33-2.8-1-2-.64.76.33,2.8,1,2ZM123.21,143.18c.64-.76-.33-2.8-1-2-.64.76.33,2.8,1,2ZM86.21,144.18c.64-.76-.33-2.8-1-2-.64.76.33,2.8,1,2ZM60.71,143.18c-.65,0-.65,1,0,1s.65-1,0-1ZM127.21,143.18l-4,1c-.57,3.89,2.85,1.6,4-1ZM79.21,144.18c-1.63-1.63-2.87,1.92-2,3,.46.57,2.83-2.17,2-3ZM84.71,145.18c-1.42,0,1.5,2.92,1.5,1.5,0-.11-1.39-1.5-1.5-1.5ZM88.71,146.18c-.65,0-.65,1,0,1s.65-1,0-1ZM138.21,148.18c.64-.76-.33-2.8-1-2-.64.76.33,2.8,1,2ZM83.21,148.18c-.41-.5-1.25,1-1.5,1-.16,0-1.49-1.85-1.5-.5,0,.24,2.43,4.13,3,3.5.13-.15.13-3.85,0-4Z"/>
      <path d="M157.21,133.18c2.87.95,1.69-2.5,3.5-3,.61-.17,4.34-.16,4.5,0,.32.32-.89,2.67,1.5,2,1.42-.21-.99-1.57-.5-2,.8-.7,2.78,1.48,4,1-.08,1.38-2.76,2.67-3,3.5s1.87,3.65,1,5.5c-2.1.24-.5-3.51-1-4-.33-.32-3.13.67-1.5-1,1.54-1.38-1.33-1.2-1.5-1-.58.66,1.93,3.94,1,5-.23.26-2.28-1.75-3-1-.22.22.21,1.78,0,2.5-.11.37-4.97,5.2-5.5,5.5-.47.26-1.31-.19-1.5,0s.19,1.81,0,2c-.17.17-.96-.22-1.5,0-.43.18-.64.93-1,1-.66.14-3.38.12-3.5,0s.13-4.11-2-2c-.76.75,1.29,2.47,1,3.5-.13.48-1.54.89-1,2-3.29,3.8-6.12,0-5-4,.09-.31,3.78-3.92,4.5-4.5.49-.4,2.73-2.01,3.5-2.5,1.07-.68,1.4.98,3,.5.98-2.86-1.8-1.74-2-2-.8-1.06.97-2.32,1-2.5.43-2.41-.9-4.2,2-6,1.17-.73,1.55,1.02,2,.5.28-.33-.57-2,.5-2,1.01,0,.35,2.05.5,3ZM154.71,142.18c-.65,0-.65,1,0,1s.65-1,0-1ZM150.71,145.18c-.65,0-.65,1,0,1s.65-1,0-1ZM153.21,147.18c.64-.76-.33-2.8-1-2-.64.76.33,2.8,1,2ZM144.71,149.18c-.65,0-.65,1,0,1s.65-1,0-1Z"/>
      <path d="M26.21,53.18c.11-.12,3.02-.19,3-1.5-.02-1.87-4.32-.74-4-2.5l3.5-1c.71-.56,1.3-1.52,2-2,.93-.63-.25,2.54,1.5,2-.85-1.56,1.73-5.02,2.5-5,.25,0,3.43,3.26,3.5,3.5.17.61-.17,1.37,0,2,.11.41,1,.67,1,1s-1,.67-1,1,1,.67,1,1c0,.17-1.72,1.51-1,3-1.63,1.77-1.86,7.77-4.5,8.5-1.64.45-3.55,0-4.5-1.5-.16-.26.15-.79,0-1-.67-.94-4-3.63-4-4,0-.33.92-.61,1-1,.16-.77-.2-2.29,0-2.5ZM34.71,45.18c-.65,0-.65,1,0,1s.65-1,0-1Z"/>
      <path d="M29.21,63.18c.37.43-.67,2.78.5,3,.6.11,1.35-.13,1.5,0,.12.11-.19,2.41,1.5,3,3.63,1.57,2.17-3.53,3-3,1.24.8,2.2,3.33,1.5,4-.28.27-3.38-.19-4.5,0-.38.06-.66.99-1,1-.55.01-1.92-1.97-1.5-3l-3,2c.06-1.82-.09-3.67,0-5.5.08-1.62.85-2.86,2-1.5Z"/>
      <path d="M110.21,149.18c.19.2-.12,2.19,0,3l-5.5,1-3.5,3c.24-1.03-.61-3.6.5-4,1.51-.55,7.62-3.9,8.5-3Z"/>
      <path d="M5.21,6.18c-.28.28,1.12,2.94-2.5,2-.67-.17-.46-.96-.5-1,.46.45,2.93-.85,3-1Z"/>
      <path d="M2.21,7.18s-.84.17-1-.5c-.25-1.03.49-2.14-1-3,.78-.49,1.93-2.34,2.5-2.5.63-.18,1.43.2,2,0,.72-.25,1.55-1.69,3.5-1,.4,1.79-1.74.72-2,1-.1.11-.11,2.89,0,3,.22.22,2.54-.42,2,.5-1.08,1.84-2.87,1.37-3,1.5.74-1.67.1-3.85-2-3,.45,1.2-1.7,3.32-1,4Z"/>
      <path d="M177.21,4.18c-1.24.57-2.7-1.33-3-1-.76.84,1.3,2.74,1,3-.23.19-1.74-.2-2,0s.86,2.98-2,2c1.12-2.49,2.3-5.2,2-8l4,4Z"/>
      <path d="M44.21,45.18c.82.84-1.67,3.77-3,4,1.38-2.62-2.35-5.33-2-6.5.12-.4,1.74-1.81,2-1.5.27.33-.7,2.4,1,3.5,1.08.7,1.93.43,2,.5Z"/>
      <path d="M65.21,44.18c.89.97-.57,7.01-2.5,8l.5-4.5c-2.77-1.51,1.09-4.5,2-3.5Z"/>
      <path d="M69.21,32.18l7,1.5-3.5,1.5c-.71-.73-.99-1.43-1.5-.5l-2-2.5Z"/>
      <path d="M171.21,38.18c-1.3,1.27-1.92.09-2-1.5-.16-3.13-.77-3.14,1.5-3.5,1.19-.19-.39-2.38,1.5-2l-1,7Z"/>
      <path d="M47.21,117.18c.14.14.13,3.85,0,4-.4.48-1.07-.81-1.5-1-.53-.23-1.32.18-1.5,0-.11-.11-.11-2.89,0-3s2.89-.11,3,0Z"/>
      <path d="M4.21,42.18c-2.26,2.26-2.58-4.28-2-5,.86-1.07,3.09,3.91,2,5Z"/>
      <path d="M177.21,35.18c-1.16-.58-2.74,1.32-3,1-.16-.19-.16-4.81,0-5,.92-1.1.94,1.39,1,1.5.45.81,1.99,1.37,2,2.5Z"/>
      <path d="M48.21,128.18c-.07.07-1.93.07-2,0-.48-.44.87-1.1,1-1.5.19-.59-.18-1.37,0-2,.11-.4,1.75-1.81,2-1.5.96,1.19-.75,2.9-1,3.5-.22.54.17,1.33,0,1.5Z"/>
      <path d="M177.21,7.18c1,1-.72,2.81-1,3.5-.08.21-.09,2.59-1,1.5-.56-.67-.28-7.28,2-5Z"/>
      <path d="M177.21,86.18c.11.11.11,2.89,0,3-2.66,2.66-2.66-5.66,0-3Z"/>
      <path d="M135.21,23.18c-.58.58-3-.88-3-1.5,0-.11,1.39-1.5,1.5-1.5.62,0,2.08,2.42,1.5,3Z"/>
      <path d="M94.21,176.18c-1.41,1.69-1.41-6.69,0-5,.16.19.16,4.81,0,5Z"/>
      <polygon points="174.21 152.18 176.21 150.18 175.21 154.18 174.21 152.18"/>
      <path d="M15.21,147.18l-3-3c1.9-.29,3.29,1.1,3,3Z"/>
      <path d="M172.21,144.18c-.31.27.9,2.93-2,2,.7-.81.87-3.02,1.5-3,1.78.07,2.36,1.53,3.5,2.5-1.01,1.08-2.33-2.09-3-1.5Z"/>
      <path d="M57.21,54.18c-1.63,1.63-2.87-1.92-2-3,.46-.57,2.83,2.17,2,3Z"/>
      <path d="M40.21,62.18c-.07.07-1.92.07-2,0-.5-.41.91-1.13,1-1.5.16-.61-.08-3.79,1-2.5.13.15.14,3.86,0,4Z"/>
      <path d="M2.21,34.18c-1.37,1.64-1.37-5.64,0-4,.13.15.13,3.85,0,4Z"/>
      <path d="M149.21,167.18c-.42.52-2.81-2-2-3,.42-.52,2.81,2,2,3Z"/>
      <path d="M108.21,33.18c1.09,1.09-.91,3.09-2,2s.91-3.09,2-2Z"/>
      <path d="M172.21,3.18c-.42.52-2.81-2-2-3,.42-.52,2.81,2,2,3Z"/>
      <path d="M178.21,51.18c-.18.18-2.42.23-2-.5,1.68-2.89,3.03-.53,2,.5Z"/>
      <path d="M60.21,52.18c-.18.18-2.42.23-2-.5,1.68-2.89,3.03-.53,2,.5Z"/>
      <path d="M173.21,99.18c-1.31,1.57-1.31-4.57,0-3,.1.12.1,2.88,0,3Z"/>
      <path d="M167.21,126.18c-1.31,1.57-1.31-4.57,0-3,.1.12.1,2.88,0,3Z"/>
      <path d="M170.21,127.18c-1.31,1.57-1.31-4.57,0-3,.1.12.1,2.88,0,3Z"/>
      <path d="M182.21,28.18c-.18.18-2.42.23-2-.5,1.68-2.89,3.03-.53,2,.5Z"/>
      <path d="M78.21,42.18c-1.31,1.57-1.31-4.57,0-3,.1.12.1,2.88,0,3Z"/>
      <path d="M175.21,140.18c-2.11.26-2.26.11-2-2l2,2Z"/>
      <path d="M71.21,39.18c-2.11.26-2.26.11-2-2l2,2Z"/>
      <path d="M59.21,59.18c-.18.18-2.42.23-2-.5,1.68-2.89,3.03-.53,2,.5Z"/>
      <path d="M179.21,76.18c.18.18.23,2.42-.5,2-2.89-1.68-.53-3.03.5-2Z"/>
      <path d="M181.21,60.18c-1.31,1.57-1.31-4.57,0-3,.1.12.1,2.88,0,3Z"/>
      <path d="M179.21,148.18c-1.31,1.57-1.31-4.57,0-3,.1.12.1,2.88,0,3Z"/>
      <path d="M6.21,69.18c.18.18.23,2.42-.5,2-2.89-1.68-.53-3.03.5-2Z"/>
      <path d="M182.21,35.18c-1.31,1.57-1.31-4.57,0-3,.1.12.1,2.88,0,3Z"/>
      <path d="M182.21,157.18c.18.18.23,2.42-.5,2-2.89-1.68-.53-3.03.5-2Z"/>
      <path d="M53.21,61.18c.18.18.23,2.42-.5,2-2.89-1.68-.53-3.03.5-2Z"/>
      <path d="M181.21,70.18c-1.31,1.57-1.31-4.57,0-3,.1.12.1,2.88,0,3Z"/>
      <path d="M180.21,162.18c-.18.18-2.42.23-2-.5,1.68-2.89,3.03-.53,2,.5Z"/>
      <path d="M42.21,65.18c.18.18.23,2.42-.5,2-2.89-1.68-.53-3.03.5-2Z"/>
      <path d="M78.21,31.18c.18.18.23,2.42-.5,2-2.89-1.68-.53-3.03.5-2Z"/>
      <path d="M4.21,62.18l-2,2c-.26-2.11-.11-2.26,2-2Z"/>
      <path d="M21.21,171.18c.8.67-1.24,1.64-2,1-.8-.67,1.24-1.64,2-1Z"/>
      <path d="M155.21,173.18c-.67.8-1.64-1.24-1-2,.67-.8,1.64,1.24,1,2Z"/>
      <path d="M101.21,171.18c-.67.8-1.64-1.24-1-2,.67-.8,1.64,1.24,1,2Z"/>
      <path d="M65.21,169.18c-.67.8-1.64-1.24-1-2,.67-.8,1.64,1.24,1,2Z"/>
      <path d="M112.21,30.18c-.67.8-1.64-1.24-1-2,.67-.8,1.64,1.24,1,2Z"/>
      <path d="M70.21,29.18c-.67.8-1.64-1.24-1-2,.67-.8,1.64,1.24,1,2Z"/>
      <path d="M76.21,37.18c.8.67-1.24,1.64-2,1-.8-.67,1.24-1.64,2-1Z"/>
      <path d="M174.21,166.18c-.67.8-1.64-1.24-1-2,.67-.8,1.64,1.24,1,2Z"/>
      <path d="M130.21,26.18c-.67.8-1.64-1.24-1-2,.67-.8,1.64,1.24,1,2Z"/>
      <path d="M173.21,163.18c-.67.8-1.64-1.24-1-2,.67-.8,1.64,1.24,1,2Z"/>
      <path d="M162.21,158.18c.8.67-1.24,1.64-2,1-.8-.67,1.24-1.64,2-1Z"/>
      <path d="M174.21,51.18c-.67.8-1.64-1.24-1-2,.67-.8,1.64,1.24,1,2Z"/>
      <path d="M181.21,23.18c-.67.8-1.64-1.24-1-2,.67-.8,1.64,1.24,1,2Z"/>
      <path d="M182.21,54.18c-.67.8-1.64-1.24-1-2,.67-.8,1.64,1.24,1,2Z"/>
      <path d="M168.21,156.18c-.67.8-1.64-1.24-1-2,.67-.8,1.64,1.24,1,2Z"/>
      <path d="M121.21,155.18c-.67.8-1.64-1.24-1-2,.67-.8,1.64,1.24,1,2Z"/>
      <path d="M125.21,20.18c.8.67-1.24,1.64-2,1-.8-.67,1.24-1.64,2-1Z"/>
      <path d="M3.21,60.18c-.67.8-1.64-1.24-1-2,.67-.8,1.64,1.24,1,2Z"/>
      <path d="M54.21,58.18c.8.67-1.24,1.64-2,1-.8-.67,1.24-1.64,2-1Z"/>
      <path d="M1.21,62.18c-.67.8-1.64-1.24-1-2,.67-.8,1.64,1.24,1,2Z"/>
      <path d="M11.21,63.18c-.67.8-1.64-1.24-1-2,.67-.8,1.64,1.24,1,2Z"/>
      <path d="M179.21,63.18c-.67.8-1.64-1.24-1-2,.67-.8,1.64,1.24,1,2Z"/>
      <path d="M179.21,66.18c-.67.8-1.64-1.24-1-2,.67-.8,1.64,1.24,1,2Z"/>
      <path d="M165.21,144.18c-.67.8-1.64-1.24-1-2,.67-.8,1.64,1.24,1,2Z"/>
      <path d="M56.21,68.18c-.67.8-1.64-1.24-1-2,.67-.8,1.64,1.24,1,2Z"/>
      <path d="M168.21,143.18c-.67.8-1.64-1.24-1-2,.67-.8,1.64,1.24,1,2Z"/>
      <path d="M51.21,71.18c-.9,1.07-.9-1.23-1-1.5-.15-.43-1-.68-1-1,0-1.43,2.94,1.37,2,2.5Z"/>
      <path d="M125.21,17.18c.8.67-1.24,1.64-2,1-.8-.67,1.24-1.64,2-1Z"/>
      <path d="M174.21,80.18c-.67.8-1.64-1.24-1-2,.67-.8,1.64,1.24,1,2Z"/>
      <path d="M178.21,16.18c-.67.8-1.64-1.24-1-2,.67-.8,1.64,1.24,1,2Z"/>
      <path d="M171.21,88.18c-.67.8-1.64-1.24-1-2,.67-.8,1.64,1.24,1,2Z"/>
      <path d="M176.21,13.18c.8.67-1.24,1.64-2,1-.8-.67,1.24-1.64,2-1Z"/>
      <path d="M2.21,93.18c-.67.8-1.64-1.24-1-2,.67-.8,1.64,1.24,1,2Z"/>
      <path d="M2.21,98.18c.11.11,3.26-.05,2,1-1.13.94-3.94-1.87-3-3,1.05-1.26.89,1.89,1,2Z"/>
      <path d="M182.21,99.18c-.67.8-1.64-1.24-1-2,.67-.8,1.64,1.24,1,2Z"/>
      <path d="M165.21,120.18c-.67.8-1.64-1.24-1-2,.67-.8,1.64,1.24,1,2Z"/>
      <path d="M182.71,113.18c.65,0,.65,1,0,1s-.65-1,0-1Z"/>
      <path d="M35.71,113.18c.65,0,.65,1,0,1s-.65-1,0-1Z"/>
      <path d="M35.71,111.18c.65,0,.65,1,0,1s-.65-1,0-1Z"/>
      <path d="M7.71,111.18c.65,0,.65,1,0,1s-.65-1,0-1Z"/>
      <path d="M2.71,117.18c.65,0,.65,1,0,1s-.65-1,0-1Z"/>
      <path d="M157.71.18c.65,0,.65,1,0,1s-.65-1,0-1Z"/>
      <path d="M35.71.18c.65,0,.65,1,0,1s-.65-1,0-1Z"/>
      <path d="M141.71,7.18c1.42,0-1.5,2.92-1.5,1.5,0-.11,1.39-1.5,1.5-1.5Z"/>
      <path d="M177.71,104.18c.65,0,.65,1,0,1s-.65-1,0-1Z"/>
      <path d="M173.71,104.18c.65,0,.65,1,0,1s-.65-1,0-1Z"/>
      <path d="M180.71,102.18c.11,0,1.5,1.39,1.5,1.5,0,1.42-2.92-1.5-1.5-1.5Z"/>
      <path d="M179.71,8.18c.65,0,.65,1,0,1s-.65-1,0-1Z"/>
      <path d="M2.71,100.18c.65,0,.65,1,0,1s-.65-1,0-1Z"/>
      <path d="M169.71,119.18c.65,0,.65,1,0,1s-.65-1,0-1Z"/>
      <path d="M162.71,121.18c.65,0,.65,1,0,1s-.65-1,0-1Z"/>
      <path d="M3.71,93.18c.65,0,.65,1,0,1s-.65-1,0-1Z"/>
      <path d="M57.71,11.18c.65,0,.65,1,0,1s-.65-1,0-1Z"/>
      <path d="M36.71,12.18c.65,0,.65,1,0,1s-.65-1,0-1Z"/>
      <path d="M156.71,12.18c.65,0,.65,1,0,1s-.65-1,0-1Z"/>
      <path d="M157.71,128.18c.65,0,.65,1,0,1s-.65-1,0-1Z"/>
      <path d="M178.71,79.18c.65,0,.65,1,0,1s-.65-1,0-1Z"/>
      <path d="M33.71,78.18c.65,0,.65,1,0,1s-.65-1,0-1Z"/>
      <path d="M16.71,16.18c.65,0,.65,1,0,1s-.65-1,0-1Z"/>
      <path d="M170.71,16.18c.65,0,.65,1,0,1s-.65-1,0-1Z"/>
      <path d="M32.71,75.18c.65,0,.65,1,0,1s-.65-1,0-1Z"/>
      <path d="M48.71,74.18c.65,0,.65,1,0,1s-.65-1,0-1Z"/>
      <path d="M48.71,72.18c.65,0,.65,1,0,1s-.65-1,0-1Z"/>
      <path d="M41.71,72.18c.65,0,.65,1,0,1s-.65-1,0-1Z"/>
      <path d="M28.71,72.18c.65,0,.65,1,0,1s-.65-1,0-1Z"/>
      <path d="M178.71,141.18c.65,0,.65,1,0,1s-.65-1,0-1Z"/>
      <path d="M52.71,66.18c.65,0,.65,1,0,1s-.65-1,0-1Z"/>
      <path d="M34.71,18.18c.65,0,.65,1,0,1s-.65-1,0-1Z"/>
      <path d="M50.71,65.18c.65,0,.65,1,0,1s-.65-1,0-1Z"/>
      <path d="M11.71,64.18c.65,0,.65,1,0,1s-.65-1,0-1Z"/>
      <path d="M168.71,145.18c.65,0,.65,1,0,1s-.65-1,0-1Z"/>
      <path d="M108.71,146.18c.65,0,.65,1,0,1s-.65-1,0-1Z"/>
      <path d="M1.71,19.18c.65,0,.65,1,0,1s-.65-1,0-1Z"/>
      <path d="M15.71,148.18c.65,0,.65,1,0,1s-.65-1,0-1Z"/>
      <path d="M172.71,148.18c.65,0,.65,1,0,1s-.65-1,0-1Z"/>
      <path d="M178.71,151.18c.65,0,.65,1,0,1s-.65-1,0-1Z"/>
      <path d="M8.71,56.18c.65,0,.65,1,0,1s-.65-1,0-1Z"/>
      <path d="M181.71,55.18c.65,0,.65,1,0,1s-.65-1,0-1Z"/>
      <path d="M178.71,55.18c.65,0,.65,1,0,1s-.65-1,0-1Z"/>
      <path d="M128.71,152.18c1.42,0-1.5,2.92-1.5,1.5,0-.11,1.39-1.5,1.5-1.5Z"/>
      <path d="M50.71,55.18c.65,0,.65,1,0,1s-.65-1,0-1Z"/>
      <path d="M123.71,154.18c.65,0,.65,1,0,1s-.65-1,0-1Z"/>
      <path d="M165.71,48.18c.65,0,.65,1,0,1s-.65-1,0-1Z"/>
      <path d="M178.71,157.18c.65,0,.65,1,0,1s-.65-1,0-1Z"/>
      <path d="M134.71,158.18c.65,0,.65,1,0,1s-.65-1,0-1Z"/>
      <path d="M162.71,23.18c.65,0,.65,1,0,1s-.65-1,0-1Z"/>
      <path d="M115.71,161.18c.65,0,.65,1,0,1s-.65-1,0-1Z"/>
      <path d="M76.71,44.18c.65,0,.65,1,0,1s-.65-1,0-1Z"/>
      <path d="M15.71,44.18c.65,0,.65,1,0,1s-.65-1,0-1Z"/>
      <path d="M177.71,24.18c.65,0,.65,1,0,1s-.65-1,0-1Z"/>
      <path d="M161.71,163.18c.65,0,.65,1,0,1s-.65-1,0-1Z"/>
      <path d="M75.71,41.18c.65,0,.65,1,0,1s-.65-1,0-1Z"/>
      <path d="M63.71,39.18c.11,0,1.5,1.39,1.5,1.5,0,1.42-2.92-1.5-1.5-1.5Z"/>
      <path d="M178.71,39.18c.65,0,.65,1,0,1s-.65-1,0-1Z"/>
      <path d="M181.71,163.18c.65,0,.65,1,0,1s-.65-1,0-1Z"/>
      <path d="M154.71,165.18c.65,0,.65,1,0,1s-.65-1,0-1Z"/>
      <path d="M67.21,30.18c-.13.13-2.76.58-3.5,1-.49.77-2.34,1.94-2.5,2.5-.31,1.11,2,3.77,2,4-.01,1.35-1.34-.5-1.5-.5-.25,0-3.43,3.26-3.5,3.5-.35,1.27-.06,5.56-1,6.5-.19.19-1.81-.19-2,0-.14.14-.54,2.77-1,3.5-.95,1.49-2.49,1.3-3.5,2.5-.85-1.51-2.05-.72-3-1-2.67-.78-.95-7.45-1.5-8-.35-.35-2.93.91-2-2,1.04.07.69.91,2,.5,2.96-.93,1.44-.65,2-2s.61-1.63,1-3c.58-2.03,3.32-1.18,4.5-1.5,2.57-.71,1.79-7.29-.5-5-.75.75,2.01,5.24-3,4l1-5.5c2.87-3.81,8.36-3.98,5,1.5,1.25-.57,2.7,1.33,3,1,.84-.91-1.01-2.37-1-2.5.01-.25,2.88-3.02,3.5-3.5,3.94-3.04,6.56,2.92,5.5,4ZM56.21,45.18c.64-.76-.33-2.8-1-2-.64.76.33,2.8,1,2Z"/>
      <path d="M77.71,35.18c.65,0,.65,1,0,1s-.65-1,0-1Z"/>
      <path d="M14.71,169.18c.65,0,.65,1,0,1s-.65-1,0-1Z"/>
      <path d="M67.71,34.18c.65,0,.65,1,0,1s-.65-1,0-1Z"/>
      <path d="M140.71,175.18c.65,0,.65,1,0,1s-.65-1,0-1Z"/>
      <path d="M130.71,175.18c.65,0,.65,1,0,1s-.65-1,0-1Z"/>
      <path d="M101.71,175.18c.65,0,.65,1,0,1s-.65-1,0-1Z"/>
      <path d="M104.71,169.18c.65,0,.65,1,0,1s-.65-1,0-1Z"/>
      <path d="M144.71,173.18c.65,0,.65,1,0,1s-.65-1,0-1Z"/>
      <path d="M116.71,173.18c.65,0,.65,1,0,1s-.65-1,0-1Z"/>
      <path d="M174.71,29.18c.65,0,.65,1,0,1s-.65-1,0-1Z"/>
      <path d="M106.71,173.18c.65,0,.65,1,0,1s-.65-1,0-1Z"/>
      <path d="M177.71,169.18c.65,0,.65,1,0,1s-.65-1,0-1Z"/>
      <path d="M161.71,172.18c.65,0,.65,1,0,1s-.65-1,0-1Z"/>
      <path d="M168.71,171.18c.65,0,.65,1,0,1s-.65-1,0-1Z"/>
      <path d="M113.71,171.18c.65,0,.65,1,0,1s-.65-1,0-1Z"/>
      <path d="M133.71,170.18c.65,0,.65,1,0,1s-.65-1,0-1Z"/>
      <path d="M182.71,30.18c.65,0,.65,1,0,1s-.65-1,0-1Z"/>
      <path d="M93.21,125.18l-1.5,6c-2.17-1.56-.83-1.62-.5-3.5s-.99-2.95,2-2.5Z"/>
      <path d="M86.21,114.18c-1.42,1.42-3.51-1.24-.5-3,.77-.45.65,2.85.5,3Z"/>
      <path d="M85.21,121.18c-.07.07-1.92.07-2,0-.5-.41,1-1.25,1-1.5,0-.2-2.51-2.58,0-2.5-.45,1.2,1.7,3.32,1,4Z"/>
      <path d="M88.21,121.18c-.47-.39.2-1.52,1.5-1,.25.1,2.5,2.32,2.5,2.5,0,1.51-1.89-1.16-2.5-1.5-.47-.26-1.28.18-1.5,0Z"/>
      <path d="M102.21,119.18c.8.67-1.24,1.64-2,1-.8-.67,1.24-1.64,2-1Z"/>
      <path d="M91.21,119.18c-.67.8-1.64-1.24-1-2,.67-.8,1.64,1.24,1,2Z"/>
      <path d="M87.71,113.18c.65,0,.65,1,0,1s-.65-1,0-1Z"/>
      <path d="M93.71,123.18c.65,0,.65,1,0,1s-.65-1,0-1Z"/>
      <path d="M113.71,94.18c.11,0,1.5,1.39,1.5,1.5,0,1.42-2.92-1.5-1.5-1.5Z"/>
      <path d="M148.21,48.18c-.67.8-1.64-1.24-1-2,.67-.8,1.64,1.24,1,2Z"/>
      <path d="M122.21,115.18c-.18.18-2.42.23-2-.5,1.68-2.89,3.03-.53,2,.5Z"/>
      <path d="M119.71,109.18c.65,0,.65,1,0,1s-.65-1,0-1Z"/>
      <path d="M90.71,80.18c.65,0,.65,1,0,1s-.65-1,0-1Z"/>
      <path d="M123.71,84.18c.65,0,.65,1,0,1s-.65-1,0-1Z"/>
    </g>
  </g>
</svg>