<?xml version="1.0" encoding="UTF-8"?>
<svg id="Layer_2" data-name="Layer 2" xmlns="http://www.w3.org/2000/svg" viewBox="0 0 181.12 168.11">
  <g id="Elements">
    <g id="Element">
      <path d="M89.03,7c.82-4.22,3.44-.59,4.5,0,.72.4,1.91-.87,1.5,1.5,1.73.57,1.85,3.37,2,3.5.11.1,2.89.1,3,0,.1-.09-.28-1.99,1-2.5-.51-8.85,2.37-2.71,5.5-.5.19.13,2.16.26,2.5,1.5.49,1.79.15,9.54,0,12-.02.35-.98.65-1,1-.18,3.25-.58,11.3,0,14,.08.36,1.72,2.38,2,3,.23.51-.19,1.34,0,2,.28.99,4.63,2.62,5.5,4.5,1.16-.8.24-3.2.5-4.5.07-.34,1.5-1.09,1-1.5-.24-.2-1.81.19-2,0-.24-.24.19-2.55,0-3.5-.54-2.71-2.59-5.46-2-9,.06-.38,1-.67,1-1,0-.22-1.57-1.44-1-4,.19-.85,2.82-4.16,3-5,.72-3.31-.14-7.03,1-11,.25-.87,3.73-3.11,4-4,.2-.65.11-3.55,1.5-3.5.33.01,3.79,3.46,3.5,4.5-.82,2.97.6,1.6,1,3,.94,3.26,1.61,9.31,1,13-.06.38-1,.67-1,1s.88.58,1,1c.73,2.54-1.75,3.13-2,4-1.07,3.72-.88,8.19-4,11l.5,9.5c1.13-1.19,2.24-1.67,2.5-3.5.31-2.16.51-6.2,1-8,.16-.58,7.55-5.66,7-9,1.95-1.42,2.4-4.24,4.5-5.5.22-.13.71.15,1,0,.61-.31.72-1.35,2-1,.39.11.59.87,1,1,.59.19,1.37-.18,2,0,2.03.58,1.18,3.32,1.5,4.5.15.55,1.85,1.45,2,2,.42,1.5-.86,3.77,1,5-1.45,3.22-5.41-.1-6,.5-.3.31-.69,8.04,2,8-.51-1.48,3.88-5.82,4.5-6,1.45-.43,2.97.98,2.5-1.5,2-1.11,4.31-8.1,6.5-7.5.44.12,2.5,3.07,2.5,1.5,0-.25-1.36-.69-1-2,.18-.67.65-1.78,1-3,.19-.68,2.48-2.07,3-3,.21-.37-.52-2.31,1.5-1.5.44.18.69,1,1,1,.37,0,1.62-2,2-2,1.7-.01,2.79,5.77,2.5,7.5-.49,2.97.57,7.1,0,11-.6,4.1-.12,6.62-1,11s-.73,9.58-2,14c-.17.61-2.54,4.02-3,6-1.18,5.03-3.92,12.36-7,17-2.79,4.21-6.24,2.86-8,9-.57,1.99-3.82,2.32-4,2.5-.15.14-.85,3.86-1,4-.86.84-2.35-1-2.5-1-.32,0-4.38,4.2-4.5,4.5-.17.41.07,1,0,1.5-3.05-.78-1.7,1.7-2,2-.11.11-2.89.1-3,0-.76-.74,1.29-2.48,1-3.5l-2-2.5-1,4.5c-1.23,5.1-4.38,12.01-5,17-.33,2.66.23,5.77,0,8.5l4-4.5c-.94-4.92,1.56-3.06,2-3.5.25-.25-.21-2.56,0-3.5.08-.36,1.92-2.65,2-3,.47-2.13-1.74-5.76-1-6.5.25-.25,2.75.25,3,0,.19-.19-.19-1.81,0-2,1.54-1.54,1.33,2.22,2-3,.97.25,1.41,1,1.5,1,.55,0,5.07-4.48,6-5,1.83-1.02,1.17-.98,3-2,4.66-2.59,8.19-7.21,13-9,2.83-1.05,2.93.26,4.5-2.5,1.77-3.11,6.56.2,6-3,1.64-1.54,8.1-6.04,10-4.5.57.46-1.85,1.99-2,2.5-.4,1.35-2.1,6.64-2,7,1.17,4.23-1.25,9.05-2,14-.23,1.54-1.13,8.44-1,9,.24,1.05,1.31,4.91,1,6-.16.56-1.85,1.45-2,2-.23.85.23,2.15,0,3-.2.72-4.79,6.25-5,7-1.98,6.89-10.94,20.15-17.5,24.5-3.02,2-13.4,6.57-14.5,8.5-.27.47.19,1.31,0,1.5-.24.24-2.55-.19-3.5,0-3.41.7-2.9,0-4,0-.37,0-1.63,2-2,2-.33,0-.59-.89-1-1-.63-.17-1.39.17-2,0-.86-.25-3.15-3.77-4-4-1.78-.49-2.42.17-5-1-.31-.14-.78.13-1,0-1.88-1.12-4.41-5.23-1-5,1.43-.92-.02-1.27-1-1-.77.21-2.09,1.78-4,1-4.34,3.07-8.58,2.36-11.5,6.5-2.54,3.59-3.5,2.67-6.5,3.5-.55.15-1.45,1.85-2,2-1.06.29-2.78-.22-4,0-.38.07-.61.91-1,1-2.48.58-4.12-1.24-5-1-2.7.74-2.37-.81-6,0-2.94.66-6.27-1-7-1-.33,0-.67,1-1,1-.38,0-5.28-3.79-6-4-1.32-.38-1.68,1.38-3,1-1.78-.51-4.42-3.84-5-4-1.47-.41-3.1-.49-5-1-.74-.2-2.29.21-2.5,0-.19-.19.2-1.76,0-2-.41-.5-1.25,1-1.5,1-.4,0-1.45-1.85-2-2-2.46-.68-3.11.65-5.5-2.5-2.1-2.78-8.34-7.94-9-11-.42-1.93.31-3.95-1-6-1.18-1.85-2.87-1.37-3-1.5-.89-.89-.77-5.77-1-6-.19-.19-1.03.27-1.5,0-2.04-1.15-3.19-6.44-4.5-8.5s-4.04-2.49-5-4c-2.24-3.5-4.33-7.49-6-11-.31-.65-2.29-3.25-2-3.5.17-.14,3.9-.17,4.5,0,2.24.62.05,2.81,6,1,.52-.16,8.19,1.67,10,2,.37.07.6.89,1,1,.74.2,2.29-.21,2.5,0,.19.19-.26,1.03,0,1.5,1.63,2.93,3.41,2.01,5.5,2.5.4.09.63.94,1,1,1.53.25,3.47-.26,5,0,3.43.58,10.17,3.47,14,5,.46.18,1.5,1.17,2.5,1.5,2.23.73,1.99-.67,4-.5l-3.5-2c-2.41.52-2.34-2.84-2.5-3-.23-.23-5.76-1.77-6-2-.76-.74.45-2.77-3.5-5-5.14-2.91-3.2-5.7-4.5-7-.19-.19-1.03.26-1.5,0-.62-.35-6.39-5.09-6.5-5.5-.3-1.09.3-2.91,0-4-.21-.75-2.42-1.46-2-3,.7-2.54-.26-5.89-2-9-.37-.66-2-1.66-2-2s.94-.62,1-1c.21-1.24-.24-2.83,0-4,.2-.94,2.27-4.03,2-5-.11-.41-1-.67-1-1,0-.22,1.59-1.45,1-4-.09-.39-.91-.61-1-1-.21-.89.23-2.16,0-3-.15-.55-3.83-4.41-4-5-.91-3.1-1.39-4.73-1-7,.28-1.66-2.35-9.05-3-12-.79-3.6-2.65-4.44,2.5-2.5,5.02,3.34,8.95,8.78,14,12,1.67,1.06.66,1.67,3,3,1.69.96,1.72,3.28,2.5,4.5s3.19,2.24,4,1.5c1.26-1.14-3-4.11-3-4.5,0-.61,2.84-3.27,2-7-.09-.4-1.36-.68-1-2,1-3.62.66-4.98-1.5-8.5-1.93-3.15.49-5.83,4-5,.36.08.57.8,1,1,.32.15.8-.13,1,0,1.49.95,1.8,3.66,3,4,3.8,1.09,6.72,1.46,8.5,5.5.24.55-.24,1.43,0,2,.72,1.73,1.37,3.42,2,5,.43,1.08,3.11,3.61,1.5,4.5-.88-.56-2.36-2.83-3-3-1.42-.39-5.48-.98-6.5-2-.19-.19.19-1.81,0-2-.18-.18-.96.23-1.5,0s-.45-.76-2-1c-2.06-.32-2.02,1.55-1.5,2,.14.12,2.77.59,3.5,1,2.28,2.86,3.01.83,4.5,3.5.29.52,6.48,6.31,8,8,3.02,3.36,6.49,6.66,10,9.5-.16-1.77.23-3.78,0-5.5-.41-3.03-2.26-7.83-3-11-.82-3.49-1.75-8.28-1-11,.34-1.24-2.34-3.76-2-5,.86-3.12.86-5.88,0-9-.36-1.31,1-1.75,1-2,0-.31-2.69-3.3-3-5-.77-4.15-.42-5.84,3-3,1.05.87,4.5,4.11,5,5,1.51,2.71,1.46.96,2,1.5.21.21-.21,1.78,0,2.5.17.56,1.85,1.45,2,2,.25.91-.27,3.23,0,3.5.13.13,1.96-.34,3,1.5.2.36-.52,2.31,1.5,1.5.44-.18.69-1,1-1,.8,0,1.99,2.47,1.5,3.5,1.67,1.67.65,4.6,2.5,6.5.45-.67,2.5-2.17,2.5-2.5,0-.18-1.92-2.64-2-3-.25-1.18.3-2.93,0-4-.06-.23-1.64-3.24-2-4-1.03-2.2-2.52-2.96-2-6,.07-.38,1-.67,1-1,0-.17-1.58-1.01-1-3,.14-.47,1.88-2.55,2-3,.22-.81-.25-4.51,1.5-4.5.18,0,2.54,1.86,3,2,.52.16,1.11-.12,1.5,0-.17.85-.2,3.77,0,4.5.18.68,3.29,3.31,4,2.5.28-.32.1-4.02-.5-5-1.14-1.87-2.16-1.57-3.5-2ZM163.53,21c-.65,0-.65,1,0,1s.65-1,0-1ZM96.03,23c-2.66-2.66-2.66,5.66,0,3,.11-.11.11-2.89,0-3ZM140.03,25c.64-.76-.33-2.8-1-2-.64.76.33,2.8,1,2ZM143.53,24c-.65,0-.65,1,0,1s.65-1,0-1ZM161.53,24c-.65,0-.65,1,0,1s.65-1,0-1ZM71.53,29c-.65,0-.65,1,0,1s.65-1,0-1ZM43.53,35c-.65,0-.65,1,0,1s.65-1,0-1ZM23.03,36c-.76-.64-2.8.33-2,1,.76.64,2.8-.33,2-1ZM94.03,51c.41.51,1.92-1.63,2.5-2,2.68-1.72,6.31-3.3,9-5,1.22-.77,1.89-2.05,1.5-3.5s-1.22-1.52-2.5-.5c-1.63,1.3-3.47,4.09-5,5-.22.13-.69-.14-1,0-.43.2-.64.92-1,1-2.49.58-4.02-1.36-6.5-1,.17,1.32,1.9,2.01,2.5,3,.83,1.35.33,2.79.5,3ZM137.53,43c-.65,0-.65,1,0,1s.65-1,0-1ZM124.03,48c-1.88-.25-2.73.68-3,2.5-.49,3.34-.33,3.98,3,3.5v-6ZM87.03,57c.21-.21-.2-1.76,0-2.5.12-.45,1.57-1,1-3-.05-.17-2.32-2.49-2.5-2.5-1.32-.05-2.39,7.01-4,7-.41,0-3.58-4.96-4.5-1.5-.29,1.1.3,2.91,0,4-.07.25-2.38,3.07-3,4s-2.75,2.85-3,4c-.34,1.55-.31,5.91,1.5,6.5,3.24,1.05,2.38-2.41,4.5-3.5-.91-3.44,2.6-5.48,4-8,1.31-2.36,2.12-1.46,3-3,.27-.47-.19-1.31,0-1.5.25-.25,2.75.25,3,0ZM137.03,55c.81-1-1.58-3.52-2-3-.81,1,1.58,3.52,2,3ZM104.53,63c-.65,0-.65,1,0,1s.65-1,0-1ZM82.53,65c-.65,0-.65,1,0,1s.65-1,0-1ZM132.03,66c-.57-.6-3.02.9-3,1.5,0,.34,1,.67,1,1s-.94.62-1,1c-.35,2.12.37,4.91,0,7-.47,2.66-1.07,6.74,0,9l-1,4.5,4-2c-.3,2.54.88,5.81-1,7.5l2,3.5c-.54-1.96.83-2.92,1-4.5s.33-6.79,0-8c-.15-.55-1.85-1.45-2-2-.88-3.19,1.15-10.45,1-11-.38-1.37-1.54-1.3,0-4-1.6-.75-.74-3.23-1-3.5ZM82.03,71c.64-.76-.33-2.8-1-2-.64.76.33,2.8,1,2ZM68.03,71l-3,2.5c1.07,2.82,1.55,7.67,1,11-.06.38-1,.67-1,1,0,.25,2.75,2.84,3,4,1.15,5.33,2.41,8.21,4,13,.98,2.96,2.23,6.21,4,9,1.35,2.13,4.32,2.78,6,5,3.9,5.17,8.24,7.87,10,14,.4,1.4,2.95,2.12,3.5,2.5.66.45,2.52,3.04,3.5,2,.78-.83-2.17-4.25-2-5.5-1.56-4.87-6.82-6.71-9-10-.27-.41-.72-2.57-1-3-1.39-2.17-2.7-1.66-4-4-.65-1.17-3.75-3.16-4-4-.21-.72.21-2.29,0-2.5-.19-.19-1.03.27-1.5,0-1.03-.58-5.86-14.09-6.5-16.5-.67-2.53-.2-7.45-1-11-.69-3.08,0-2.32,0-3,0-.33-3.14-2.33-2-4.5ZM79.53,74c-.65,0-.65,1,0,1s.65-1,0-1ZM88.53,75c-.65,0-.65,1,0,1s.65-1,0-1ZM54.53,78c-.65,0-.65,1,0,1s.65-1,0-1ZM106.03,80c-.76-.64-2.8.33-2,1,.76.64,2.8-.33,2-1ZM92.53,87c-.65,0-.65,1,0,1s.65-1,0-1ZM88.53,88c-.65,0-.65,1,0,1s.65-1,0-1ZM63.53,89c-.65,0-.65,1,0,1s.65-1,0-1ZM42.53,94c-.65,0-.65,1,0,1s.65-1,0-1ZM38.03,97c.64-.76-.33-2.8-1-2-.64.76.33,2.8,1,2ZM48.53,95c-.65,0-.65,1,0,1s.65-1,0-1ZM52.53,95c-.65,0-.65,1,0,1s.65-1,0-1ZM66.53,101c-.65,0-.65,1,0,1s.65-1,0-1ZM111.53,101c-.65,0-.65,1,0,1s.65-1,0-1ZM82.03,102c-.76-.64-2.8.33-2,1,.76.64,2.8-.33,2-1ZM60.53,121c-.65,0-.65,1,0,1s.65-1,0-1ZM64.03,124c.64-.76-.33-2.8-1-2-.64.76.33,2.8,1,2ZM17.53,123c-.65,0-.65,1,0,1s.65-1,0-1ZM133.53,128c-.65,0-.65,1,0,1s.65-1,0-1ZM71.03,134c-.72-2.68-6.94-5.84-8-2.5s6.51,2.57,8,2.5ZM24.53,131c-.65,0-.65,1,0,1s.65-1,0-1ZM109.53,134c-.65,0-.65,1,0,1s.65-1,0-1ZM25.53,135c-.65,0-.65,1,0,1s.65-1,0-1ZM106.53,135c-.65,0-.65,1,0,1s.65-1,0-1ZM29.03,139c.64-.76-.33-2.8-1-2-.64.76.33,2.8,1,2ZM101.53,137c-.65,0-.65,1,0,1s.65-1,0-1ZM104.53,139c-.65,0-.65,1,0,1s.65-1,0-1ZM34.53,140c-.65,0-.65,1,0,1s.65-1,0-1ZM109.03,142c1.03-1.03-.32-3.39-2-.5-.42.73,1.82.68,2,.5ZM121.53,146c-.65,0-.65,1,0,1s.65-1,0-1ZM118.53,150c-.65,0-.65,1,0,1s.65-1,0-1Z"/>
    </g>
  </g>
</svg>