<?xml version="1.0" encoding="UTF-8"?>
<svg id="Layer_2" data-name="Layer 2" xmlns="http://www.w3.org/2000/svg" viewBox="0 0 118.22 192.19">
  <g id="Layer_1-2" data-name="Layer 1">
    <g id="Element">
      <path d="M68.03.19l7,6.5c-.4,2.87-1.27,6.29-3.5,8.5-.46-.65-3.97-2.53-4.5-2-.78.78,3.19,5.76,2,7-.38.4-3.33-.98-3,1,1.1-.19,4.72.28,5,0,.62-.62-1.53-5.04,2-4-.45,1.2,1.7,3.32,1,4-.13.13-2.55-.12-3,1.5-.19.67-.18,4.33,0,5,.35,1.27,3.65,1.73,4,3,.23.85-.23,2.15,0,3,.12.44,1.91,2.61,2,3,.52,2.33-1.19,4.35-1,4.5.25.2,1.73-.16,2.5,0,.39.08.67,1,1,1,.24,0,3.57-1.92,4-2,.94-.17,4.21-.22,5,0,1.27.35,1.72,3.63,3,4,1.07.3,2.64-1.76,3.5-1,.24.22-2.83,4.27.5,6l5-3c3.22,2.05-1.11,3.15-1.5,4.5-.18.63.19,1.41,0,2-.15.48-1.36.69-1,2,.11.4.89.6,1,1,.2.73-.21,2.29,0,2.5.26.26,1.92-.58,2,.5.09,1.15-2.42-.38-2,1.5l4-1v-2.5l2.5-4.5.5,8.5-1,3.5c2.16-1.02,2.42-3.43,4.5-5,.2-.15.75.17,1,0,.68-.46,1.54-1.87,2-2,1.39-.39,4.96-.15,5.5,1.5,1.05,3.24-2.41,2.38-3.5,4.5-3.54.33-4.67,3.63-6.5,6.5-2.21,3.45-5.78.23-6,.5-.17.21.22.96,0,1.5-1.35,3.26-.49,4.15-1,7-.3,1.69-2.7,5.97-3,8s.48,5.27,0,7c-.09.33-2.76,2.9-3,4-.53,2.48-.48,6.03-1,9-.69,3.95-1.2,9.28-2,13-.07.34-1.93,2.66-2,3-.43,1.99.43,5.01,0,7-.51,2.36-2.18,1.13-1,5,.72,2.36-3.5,5.18-3,7,1.07,3.88-.39,8.92,0,14,.03.36.96.64,1,1,.15,1.56-.31,7.12,0,7.5.25.31,1.88-1.1,2-1.5.49-1.67,2.2-7.34,2-8-1.03-3.37.54-4.32,1-7,.42-2.45.48-7.1,1-9,.08-.3,2.44-3.68,3-5,1.47-3.46,2.6-10.01,6.5-12.5.94-.6,3.21-.74,4-2l.5,5.5c-.83,1.17-3.24,5.14-3,6,.21.75,1.34.88,0,3-.85,1.35-4.76,4.13-5,5-.36,1.32.31,3.55,0,5-.07.34-1.93,2.66-2,3-.36,1.68.25,4.14,0,6-.39,2.86-2.45,7.26-3,10-.19.95.24,3.26,0,3.5-.21.21-1.78-.21-2.5,0-.24.07-3.43,3.26-3.5,3.5-.41,1.48.23,4.19,0,6-.09.73-1.51,2.21-1,5,.07.38.95.63,1,1,.13,1.06.21,6.25,0,6.5-.39.47-1.58-1.45-2-1l-2.5,5-1.5-2.5c-.76-2.64-.45-6.57-1-9-1.09-4.87-1.96-10.74-3-17-.06-.38-1-.67-1-1,0-.43,2.12-1.47,2-2.5-2.12.06-3.76.42-5-1.5-.27-.42-.74-2.62-1-3-2.48-3.58-4.26-2.01-4-8,.14-3.22,2.15-.64,4,0l4,4.5c-.76-1.82.86-2.95,1-3.5.21-.85-1.43-2.46-1-5,.5-2.92-.61-2.18-1-4-1.8-8.31-1.58-18.45-3-27-.39-2.35-1.52-4.8-2-7-1.1-5.07.1-10.32-2-16-2.48-6.7-4.37-13.05-6-20-.7-3-1.99-6.07-3-9-.24-.71-1.69-1.56-1-3.5-5.81.22-8.67-7.98-13.5-1-1.72-.89-6.73,1.71-7.5,1-.15-.14-.27-2.93-2-3.5,2.31-1.67.14-2.38,0-3-.28-1.27.19-3.1,0-4.5h-5c-.98,2.86,1.8,1.74,2,2,.17.22-.22.97,0,1.5.18.43.94.65,1,1,.16.92.17,3.09,0,4-.07.37-.88.59-1,1-.84,2.78,2.67,3.81,3,5,.23.83-.21,2.1,0,3,.09.38.88.59,1,1,.76,2.5-1.77,3.16-2,4-.34,1.22,2.49,4.62,3,6,.21.56-.18,1.36,0,2,.98,3.45,4.53,10.88,4,14-.14.8-1.94.85,1,3l1,4.5c2.79.32,1.57-.16,2-1.5.3-.93,1.52-3.36,2-4,1.18-1.57,4.15-4.02,5-1s-3.81,5-5,7c-.11.19-.97,1.88-1,2-.23.83.21,2.1,0,3-.09.38-.88.59-1,1-.59,1.95.95,2.72,1,3,.44,2.48.13,3.26,1,6,.27.83-.21,3.03,1.5,3.5,1.15.32,2-1.58,4-1,.18.05,2.27,2.11,2.5,2.5.13.22-.14.69,0,1,.2.43.92.64,1,1,.83,3.72-.61,9.92,0,14l4,6c.41,2.29-.07,3.22-2.5,2.5-.34-.1-5.38-4.09-5.5-4.5-.61-2.13-.99-4.1-3.5-5.5-3.9-2.17-3.42-7.12-7-7-2.1-2.63-6.02-6.85-1.5-9,.14,3.06,3.81,4.76,5.5,7,1.73-.9-.4-2.1-.5-2.5-.22-.88.23-2.16,0-3-.11-.4-3.29-3.57-4-6-3.02-10.32-3.98-21.09-7-31-.53-1.75,1.27-3.28,1-3.5-.24-.2-1.81.19-2,0-.25-.25.22-2.57,0-3.5-.64-2.74.16-3.44,0-4-.41-1.41-1.85-.04-1-3,.61-2.13-2.16-9.74-3-12-.53-1.44-.76-6.26-1-6.5-.57-.57-4.43-1.85-6-4.5-.78-1.32-.83-4.33-1-4.5-.41-.41-6.19-1.62-7.5-2-.24-.07-3.43-3.26-3.5-3.5-.18-.63.19-1.41,0-2-.13-.41-.92-.63-1-1-.21-1.02.13-2.38,0-3.5,1.64.54,1.98-.85,2.5-1,1.76-.51,3.28,1.27,3.5,1,.37-.45-1.03-3.74,2.5-6,.23-.14.74.15,1,0,2.85-1.7,4.32-2.61,8-2,.38.06.67,1,1,1,.31,0,2.14-2.09,5-3,.41-.13.63-.93,1-1,1.05-.19,5.13-.24,6,0,1.14.31,2.86,4.31,2.5,5.5-1,3.28,0,2.36,0,3,0,.33-.94.62-1,1-.4,2.35.83,4.28-2,6l3.5-2.5,10,2c.65.88,2,1.66,2.5,2.5.13.22-.14.69,0,1,.2.43.92.64,1,1,.22.98.17,3.9,0,5-.05.37-.89.59-1,1-.2.74.21,2.29,0,2.5-.22.23-2.05-.55-2,.5,2.27,3.23,4.44-.11,7.5.5.52,1.29,2.39.89,2.5,1s-.29,1.98,1,2.5c-.68,1.7-.66,4.15-2.5,3.5l-2.5,1.5c3.19,2.34,4.76,2.4,4,7-.59,3.55,1.73,6.32,3,10,1.59,4.63,2.7,9.52,4,14,.12.4.91.62,1,1,.64,2.75-.77,3.49-2,5.5,4.33-.44,2.41.32,3,2.5.82,3.02,2.41,7.15,3,10,1.16,5.55.64,11.55,2,17,.98,3.94,2.75,17.23,2,21-.07.34-1.5,1.09-1,1.5.15.13,3.99-.17,2,2-.26.28-2.4-.79-2,1h4c-.55-3.2.77-8.71,0-11.5-.21-.75-2.42-1.46-2-3,.92-3.32.64-5.14,0-9s-1.39-7.01,0-12c.45-1.61-2.76-2.35-2-5,.29-1.03,1.67-1.84,3-1,3.55,2.25,1.39,7.32,2,11l2,2.5c.2-1.74-.29-3.86,0-5.5.03-.17.79-2.43,1-3,.14-.39.83-.59,1-1,.22-.54-.17-1.33,0-1.5.25-.25,2.75.25,3,0,.27-.27-.15-5.12,0-6.5.66-5.91,2.59-12.3,4-18,.96-3.88,2.58-8.63,3-12,.17-1.39-.28-6.22,0-6.5.19-.19,2.88.71,2-1.5-.25-.63-1.84-1.45-2-2-1.28-4.45-5.36-9.05-6-12-.28-1.28.67-3.7-.5-4.5l-2.5,1.5c-.05.88-3.08,5.5-3.5,5.5-.27,0-3.68-2.82-4.5-2-.21.21.21,1.78,0,2.5s-2.81,2.3-3,3c-.34,1.22.36,5.14,0,5.5-.3.3-3.7-.3-4,0-.22.22.23,1.8,0,2.5-.18.53-1.55.91-1,2l-4,2.5c-.65-3.21,2.27-4.48,4-6.5-.34-3.02.74-5.77,2-8.5l-3,2.5c.42,1.66-2.07,6.07-3.5,6.5-3.4,1.02-3.97-2.95-3.5-5.5.07-.37.89-.6,1-1,.2-.74-.21-2.29,0-2.5.17-.17.96.22,1.5,0,.42-.18.62-.89,1-1,.79-.23,2.05.16,3,0,.38-.07.67-1,1-1,.16,0,1.5,1.85,1.5.5,0-.17-1.6-1.03-1-3,.12-.41.93-.63,1-1,.25-1.34-.16-3.07,0-4.5-2.01,1.24-2.75,2.63-5.5,2-.39-.09-.6-.89-1-1-.91-.25-2.6,1.66-5,1-1.71-.47-1.23-2.67-1.5-3.5-.13-.41-.93-.63-1-1-.22-1.23-.22-4.77,0-6,.03-.17.79-2.43,1-3,.14-.39.83-.59,1-1,.22-.54-.17-1.32,0-1.5.32-.32,2.81.66,3-.5-1-.63-2.76-3.28-3.5-3.5-3.52-1.05-2.26,1.76-2.5,2-.17.17-.96-.22-1.5,0-.43.18-.64.92-1,1-2.5.57-3.49-.91-4-1-1.22-.22-2.94.29-4,0-.5-.14-1.31-1.62-2-2-.47-.26-1.31.19-1.5,0-.17-.17.22-.96,0-1.5-.18-.43-.94-.65-1-1-.18-1.03-.21-4.04,0-5,.3-1.4,3.67-5.57,4-7,.21-.94-.25-3.25,0-3.5.32-.32,3.43.29,4.5,0s4.43-5.07,6-6c.22-.13.69.14,1,0,.43-.2.64-.92,1-1,4.37-.98,5.55,2.1,9,4l-1.5-4ZM66.03,31.19c-.76-.64-2.8.33-2,1,.76.64,2.8-.33,2-1ZM40.03,34.19c-2.15-.78-3.97,2.79-3,4,.62.76,2.83-3.14,3-4ZM46.03,37.19l-1-2c.52,1.63-1.36,2.25-1,3.5.1.36.78.57,1,1,.15.29-.13.78,0,1,.26.43,2.32,2.5,2.5,2.5.22,0,3.49-2.13,3.5-2.5,0-.18-1.55-1.01-1-2.5l-4-1ZM73.03,39.19c-.19-.19-2.19.12-3,0,.11,1.01,2.68,3.35,3,3,.1-.11.11-2.89,0-3ZM103.03,69.19c.74.89,3.81-4.12,1-4,.49,1.25-1.7,3.15-1,4ZM52.03,128.19c.64-.76-.33-2.8-1-2-.64.76.33,2.8,1,2ZM93.03,154.19c.64-.76-.33-2.8-1-2-.64.76.33,2.8,1,2ZM82.03,160.19c-.76-.64-2.8.33-2,1,.76.64,2.8-.33,2-1Z"/>
      <path d="M21.03,52.19c.17.17,3.18.22,4.5,1,.39.23,2.45,2.32,2.5,2.5.29,1.02-2.5,5.2-3.5,5.5-1.08.32-3.39-.73-2.5,1.5.25.62,2,1.62,2,2,0,.25-2.85,2.96-3.5,3.5-.16.13-.72-.18-1,0-1.56.99-1.44,3.01-3,4-.2.13-.68-.15-1,0-.43.2-.65.92-1,1-1.07.24-8.06.26-9,0-.24-.07-3.43-3.26-3.5-3.5-.67-2.45.51-7.17,0-10-.05-.29-1.57-1.01-1-3,.33-1.15,4.31-2.86,5.5-2.5.41.13.63.93,1,1,1.22.22,2.84-.26,4,0,.37.08.57.83,1,1,2.94,1.17,5.69,2.7,8,5,.87-.22.66-2.92.5-3.5-.32-1.18-3.77-1.9-4.5-3.5-4.1-.3-8.29-.82-12-2-.59-.19-1.37.18-2,0-.53-.15-2.8-2.54-2.5-3.5.27-.87,3.34-2.82,4-4,.26-.47-.19-1.31,0-1.5.17-.17.96.22,1.5,0,.43-.18.65-.94,1-1,.91-.16,3.09-.17,4,0,.37.07.59.88,1,1,.65.18,1.46-.22,2,0,1.57.63,4.25,2.88,6,4,2.47,1.58,1.16,4.66,1.5,5Z"/>
      <path d="M100.03,38.19c-.19-.19-1.81.19-2,0-.13-.13.24-2.31-1.5-3-2.01-.81-1.29,1.13-1.5,1.5-.43.77-2.51,2.81-3.5,2.5-2.1-2.62-4.29-4.99-3.5-8.5.08-.36.8-.57,1-1,.14-.31-.13-.78,0-1,.42-.71,6.99-7.36,7.5-7.5.84-.23,2.11.21,3,0,.68-.16,1.52-1.58,4-1,.38.09.59.87,1,1,.59.19,1.37-.18,2,0,.31.09,4.18,3.97,4.5,4.5.13.22-.14.69,0,1,.2.43.92.64,1,1,.2.87.2,4.13,0,5-.08.36-.8.57-1,1-.14.31.13.78,0,1-1.1,1.86-4.73,3.02-5,4-.32,1.13.55,3.89-1.5,4.5-1.43.42-2.75-.32-3.5-1.5-.46-.73-.86-3.36-1-3.5Z"/>
      <path d="M80.03,71.19c.61.66,2.46-.66,3-1.5.43-.67.67-3.07,1.5-3.5l1.5,3.5c-.35,5.44-5.06,10.01-5,16,0,.85-1.98.65-2.5.5-1.78-.52-1.85-4.93-1.5-6.5.47-2.12.63-4.48,1-7,.27-1.81-.38-9.09,0-9.5.51-.56,2.76.66,3,1.5.42,1.47-2.05,5.36-1,6.5Z"/>
      <path d="M114.03,21.19c.17.17-.23.96,0,1.5.25.59,1.92,2.64,2,3,.25,1.16-.22,2.78,0,4,.05.29,1.59,1.05,1,3-.12.41-.91.62-1,1-.21.9.23,2.17,0,3-.1.37-.81.57-1,1-1.37,3.01-3.16,3.59-5,6-.16.21.16.79,0,1-1.15,1.5-2.35,2.99-3.5,4.5l-.5-5.5c1.58-3.2,4.53-4.77,6-8,.2-.43.92-.64,1-1,.27-1.22.27-7.76,0-9-.09-.39-1.9-3.12-2.5-3.5-.24-.15-.6-.1-1,0l-4.5-2.5,5.5-.5c.67,1.8,3.35,1.85,3.5,2Z"/>
      <path d="M29.03,71.19c-.73,3.79-6.87,1.45-7-.5-.06-.91,2.28-2.04,4-1,.98.59,1.19,2.01,3,1.5Z"/>
      <path d="M81.03,96.19c-.07.07-1.93.07-2,0-.21-.21-.19-5.77,0-6,.25-.31,1.89,1.11,2,1.5.17.61.16,4.34,0,4.5Z"/>
      <path d="M81.03,98.19c.11.11.11,2.89,0,3-2.66,2.66-2.66-5.66,0-3Z"/>
      <path d="M63.53,142.19c.65,0,.65,1,0,1s-.65-1,0-1Z"/>
    </g>
  </g>
</svg>