<?xml version="1.0" encoding="UTF-8"?>
<svg id="Layer_2" data-name="Layer 2" xmlns="http://www.w3.org/2000/svg" viewBox="0 0 154.02 171.12">
  <g id="Elements">
    <g id="Element">
      <path d="M90.02,2.11c.19.19-.71,2.88,1.5,2,.44-.18.69-1,1-1,.25,0,3.43,3.26,3.5,3.5.32,1.05-.36,2.64,1.5,3.5,2.26,1.05,1.14-1.24,1-2-.32-1.71-1.55-7.19,1-8,1.9-.6,3.65,4.79,5.5,5.5.54,1.01-1.46,2.11-1,2.5.22.18,1.04-.26,1.5,0,3.62,2.07-.22,3.52-.5,4.5-.49,1.7-.16,3.2-2.5,4.5-.38.21-2.3-.53-1.5,1.5.17.44.98.67,1,1,.01.18-2.09,2.44-1,3.5.14.14,3.86.14,4,0,.27-.27-.93-6.27,3.5-5,.31.09,2.18,1.86,2.5-.5.16-1.16-2.66,2.03-2-1,1.84-2.51,1.87-.6,2.5-.5,1.24.21,2.79-.22,4,0,.35.06.57.82,1,1,.54.22,1.33-.17,1.5,0,.11.11.11,2.89,0,3-.25.25-2.75-.25-3,0-.17.17.22.96,0,1.5-.55,1.31-.61,1.61-1,3-.19.67-4.29,3.33-3,4.5.49.45,3.31-1.02,4-1.5,2.11-1.48,8.32-9.17,9.5-9.5s2.51,1.76,3.5,1c.26-.2-.86-2.98,2-2,.77,2-3.01,3.86-3,4.5,0,.17,1.57.99,1,3-.1.35-2.76,2.89-3,4-.43,1.98.29,3.84-1,6s-4.91,3.09-4,6.5c4.47-2.14,7.83-4.86,13-4l-1.5,5c1.73-1.91,3.81-3.56,5.5-5.5.14-.17-.18-.76,0-1,1.46-1.93,5.16-4.14,6-1,.47,1.74-.45,3.43-1,5-1.32,3.78-6.15,8.48-4,12l-4,6.5c1.74-.29,2.63,1.56,4.5,1,1.19-.36,3.68-2.91,4-3,1.65-.45,4.27-.37,3.5,1.5.21,1.42,1.58-.99,2-.5,1,1.16-.86,3.07-1,3.5-.19.59.18,1.37,0,2-.46,1.61-7.83,3.73-9.5,5.5-1.82-1.11-1.94,2.55-1.5,3,.24.25,2.83-.57,3.5,1,2.83-.28,6.3-.46,9-1,.34-.07,1.09-1.5,1.5-1,.2.24-.19,1.81,0,2s1.81-.19,2,0c.16.16.17,3.89,0,4.5-.05.17-2.11,2.27-2.5,2.5-.2.12-1.71.88-2,1-1.03.41-3.97.59-5,1-1.57.62-2.9,2.21-5,3-.98.37-.45,1.23-.5,2l5,1c.16,1.09-.25,2.58,0,3.5.23.82,3.8,2.69,4.5,2.5.4-.11.62-.91,1-1,2.81-.63,5.95.3,6.5,3.5-2.32,1.73-4.47,4.07-7.5,3.5-.75,1.6-3.23.74-3.5,1-1.29,1.22,4.28,4.76,3,6-.12.12-1.97-.29-2.5,1-1.79-.78-6.48.93-6.5,2.5,0,.23,2.31,2.89,2,4-.12.45-1.59,1.04-1,3,.12.38.82.58,1,1,.81,1.94-.99,1.29-1.5,1.5-.58.24-2.82,2-3,2-.33,0-.59-.89-1-1-.63-.17-1.39.17-2,0-3.55-1.02-2.18-7.68-2.5-8-.71-.72-3.24.29-4,1.5-3.17,5.02-3.56,3.13-8.5,4.5-.37.1-.57.8-1,1-.51.24-2.17.32-2.5,1.5-.39,1.42.04,3.27-1,5-.72,1.2-2.56,1.56-2,3.5l4,1c-.15.8-2.08,2.88-2.5,3-.63.18-1.41-.19-2,0-.48.15-.69,1.36-2,1-.41-.11-.67-1-1-1-.25,0-1.09,1.5-1.5,1-.18-.22.26-1.03,0-1.5-.95-1.69-4.7-2.91-6.5-2.5-5.3,1.22-4.33-2-8-3-.85-.23-2.15.23-3,0-.47-.13-2.45-3.14-3.5-2-.76.82,1.66,3.76,2,4.5.23.5-.19,1.34,0,2,.23.81,5.65,5.93,4,7.5-.16.16-3.89.17-4.5,0-.55-.15-1.45-1.85-2-2-1.17-.32-3.13.21-4.5,0,1.55,1.84-.4,2.37,0,4.5,1.88,1-.29,2.9-1.5,2.5-.64-.21-2.04-2.65-2.5-3.5-.68-1.26-1.29-3.9-2-5-.47-.73-3.35-2.61-4.5-3.5-.98-.76-1.42-1.46-3-1-2.31.68-1.19,4.79-1.5,6.5-.53,2.95-4.09,8.27-5,12-1.13,4.61-1.21,9.22-2,14-.06.37-.91.6-1,1-.21.89.23,2.16,0,3-.11.39-4.8,3.71-5.5,3.5-1.71-.5-1.78-4.01-1.5-5.5.9-4.85,2.82-10.25,4-15s2.28-11.35,4-16c.2-.55,1.92-2.64,2-3,1.2-5.55-.48-3.82-2.5-4.5-.11-.04-1.9-.93-2-1-1.6-1.02-3-6.9-5.5-2.5-1.49,2.62-4.6,3.79-7.5,6.5l-3.5,1c.55-1.6-.93-2.11-1-2.5-.22-1.24-1.11-6.65-1-7,.81-2.67.61-3.38,1-6,.03-.19,2.06-2.44,1-3.5-.82-.82-2.31.95-2.5,1-.21.06-3.27-.79-4-1-.27-.08-4.31-3.19-4.5-3.5-.18-.28.13-.84,0-1-.85-1.03-3.41-2.67-3-4,.15-.48,3.09-2.39,3.5-2.5.36-.1,4.27,1.45,7,1,.38-.06.67-1,1-1s.57.86,1,1c1.14.38,2.84-1.34,2.5-2.5-.24-.82-1.73-2.08-2.5-.5l-9-5c-3.01-.67-4.13,1.01-6,3-1.28-.27-5.53,3.01-6,3-.18,0-2.45-2.33-2.5-2.5-.38-1.24,3.49-4.31,3-6-.05-.17-2.33-2.45-2.5-2.5-.89-.26-3.03.19-3.5-1.5-.66-2.38.92-3.53,1-4,.17-.93-.16-2.07,0-3,.19-1.1,1.15-2.37,1-2.5-.57-.48-8.53.47-9,0-.19-.19.26-1.03,0-1.5-.52-.93-2.8-2.32-3-3-.22-.78,1.76-4.29,2.5-4.5.64-.18,1.44.21,2,0,1.74-.64,3.86-2.22,6-2,.52-1.28,2.4-.9,2.5-1,.58-.6-.61-3.46-1-4.5-.82-2.2-3.89-5.63-4-6-.52-1.81-1.85-4.3-2-5-.18-.84-.23-6.27,0-6.5.71-.74,2.51,1.25,3.5,1l12.5,12-3-7.5-4-4c-.48-3.28-1.4-6.75-4-9,.42-.74.87-3.37,1-3.5,1.54-1.54,7.17,3.8,7,5.5,2.2.79,3.96,9.31,6.5,8.5,3.33-1.06-.12-6.79-1.5-8.5.9-2.03-.94-4.53-1-5-.26-2.04.18-4.4,0-6.5,1.49.55,2.33-1.01,2.5-1,.79.03,3.7,2.91,4,3,2.64.75,3.39-2.44,5-2,.81.22,4.24,5.38,5.5,4,.5-.54-.41-11.18,0-13.5.07-.37.87-.59,1-1,.61-2.01-2-4.6-2-5,0-.18,1.74-2.41,2-3,.23-.51-.19-1.34,0-2,.55-1.9,3.94-3.26,6-2,1.49.91,1.53,1.96,2,3,.2.43.92.64,1,1,.26,1.16-.25,2.81,0,4,.11.51,1.81,3.35,2,4,.38,1.29-1.48,2.08-1,2.5,2.21,1.94,1.87-1.87,2-2,1.4-1.4,3.55,1.35,4.5,2,.24.16.79-.15,1,0,.83.61,3.42,4.14,4.5,3,.53-.57-.84-2.34-1-3.5-.81-6.06.21-3.84,3.5-4.5.42-.09.89-1.55,2.5-1l2.5,9c1.98-1.31,1.4-2.58,1.5-4.5.13-2.56-.35-5.62,0-8,.05-.36.89-.59,1-1,.2-.74-.21-2.29,0-2.5.18-.18.96.23,1.5,0,.35-.15,1.82-.89,2-1,2.17-1.32,4.12-5.87,7-5,.41.12.62.91,1,1,.9.21,2.19-.24,3,0,.33.1,2.4.9,2.5,1ZM88.02,5.11c-2.29-2.64-1.86,2.86-2,3-.19.19-1.03-.26-1.5,0-.45.25-2.19,2.01-2.5,2.5-.13.2.15.68,0,1-.21.44-1,.7-1,1s.79.56,1,1c.15.32-.13.8,0,1,.37.58,4.18,4.49,4.5,4.5.79.03,1.88-2.29,1.5-3.5-.17-.53-1.57-1.01-1-3,.64-2.24-.19-1.75,0-4,.1-1.22,1.57-2.84,1-3.5ZM55.02,33.11c.47-3.76-1.6-6.74-1-10.5l-2-2.5c.29,1.96-2.25,2.89,0,4.5v5l3,3.5ZM70.02,28.11c-1.58-1.54-7.4,1.75-6,5,3.12,1.94,7.11-3.92,6-5ZM32.02,31.11c-.76-.64-2.8.33-2,1,.76.64,2.8-.33,2-1ZM87.02,36.11c2.14,2.14,4.51-5,1.5-5-1.33,0-2.04,4.46-1.5,5ZM44.02,37.11c-4.45-.49-.37,3.14,0,4.5.9,3.31,0,5.38,0,7,0,.85,3,3.75,3,4,0,.23-2.51,1.79.5,3.5.7.4,1.92-.87,1.5,1.5l5,4.5c-.52-1.63,1.36-2.24,1-3.5-.45-1.57-4.1-2.57-5-4-1.24-1.96-1.2-6.38-2-9-.21-.69-.76-2.4-1-3-.74-1.85-3.15-3.34-3-5.5ZM71.02,38.11c-.11-.11-2.89-.11-3,0-1.24,1.24,1.28,6.72,3,5,.18-.18.18-4.82,0-5ZM86.52,40.11c-1.72,0-1.72,4,0,4s1.72-4,0-4ZM39.02,50.11c.87-.87-1.18-6.91-2.5-7-.84-.06-2.42,3.05-1,4,1.02.62.22,2.73.5,3,.11.11,2.89.11,3,0ZM114.02,43.11c-2.11-.26-2.26-.11-2,2l2-2ZM112.02,50.11c.31.29,3.07.08,4-.5.83-.51,1.12-1.53,1.5-2.5.61-1.56-.23-3.04-1-3-.38.02-5.5,5.08-4.5,6ZM65.52,45.11c-1.01,0-4.07,4.16-1,5s3.12-5,1-5ZM79.02,45.11c-.12-.1-2.88-.1-3,0-1.57,1.31,4.57,1.31,3,0ZM42.52,46.11c-.65,0-.65,1,0,1s.65-1,0-1ZM78.02,47.11c-1.22-1.33-4.36,3.18-4,4.5s1.57,1.24,0,4c3.59,1.92-3.01,9.5-2,10.5.94.94,3.87-1.16,4-1,.78.9-.66,5.48-2,6.5l-1,7.5c4.5-.09,3.21-5.5,5-7.5,1.43-5.63-.83-8.99,1-15,.74-2.43-2-3.6-2-4,0-.33.94-.62,1-1,.13-.8.15-4.33,0-4.5ZM25.02,49.11c-.15-.15-3.45-.27-3,.5,1.76,3.01,4.42.92,3-.5ZM100.02,57.11c-.48-2.31,2.76-2.86,2-5.5-.24-.84-1.92-1.82-3-1.5.86,2.09-3.2,6.64-2,8,.29.33,1.77-1.57,3-1ZM127.02,54.11l-6,5.5c-.56,1.36-2.15,3.89-3,5-1.17,1.52-3.29,2.64-4,4.5,2.3.45,2.57-.29,4-1.5,3.31-2.81,5.08-6.06,8-9l1-4.5ZM33.52,56.11c-2.51.69-1.23,4.62,1,4,2.51-.69,1.23-4.62-1-4ZM109.52,61.11c-.65,0-.65,1,0,1s.65-1,0-1ZM61.02,72.11c-.11-.11-2.89-.11-3,0-.29.29-.53,7.28,1.5,8,2.41.47,1.48-1.96,1.5-3.5.01-1.02.16-4.34,0-4.5ZM70.02,73.11c-.12-.1-2.89-.39-3,.5-.09.69.16,1.44,0,2-.58,2.03-2.22,4.91-3,7-.38,1.03-1.58,3.93-1,4.5.11.11,2.89.11,3,0,.27-.27-.21-3.39,0-4.5.09-.46,1.59-4.9,2-6,.21-.58,2.32-3.23,2-3.5ZM52.02,79.11c.25-.21-2.44-4.99-4-5-1.24,2.75,2,6.71,4,5ZM63.52,74.11c-.65,0-.65,1,0,1s.65-1,0-1ZM35.02,75.11c-1.15-1.37-1.92-.12-2,1.5-.11,2.11-.52,4.11,1.5,5.5l1-3c-1.11-.82-.13-3.56-.5-4ZM114.02,75.11c-.11-.11-2.89-.11-3,0-.14.14-.14,3.86,0,4,1.34,1.34,4.23-2.77,3-4ZM109.02,78.11h-4.5c-.51,1.28-2.39.89-2.5,1-1.1,1.1,1.61.85-3.5,3-1.59.67-2.42,1.04-3.5,2.5l3.5.5c2.61-2,5.13-3.35,8-4l2.5-3ZM126.02,78.11c-2.88-.16-5.13-.11-7.5,1l-2.5,3,7.5-1,2.5-3ZM86.52,82.11c-2.11.7-3.79,5.11-1,6,1.94.62,2.44-2.65,3.5-3.5.38-1.13-1.37-2.88-2.5-2.5ZM40.02,89.11c-.17-.17-.96.22-1.5,0-.42-.18-.62-.89-1-1-2.74-.81-1.94.35-5-2-1.15-.88-3.75-1.65-4.5-1-.99.86,2.75,4.5,3.5,5,.41.27,2.59.73,3,1,2.22,1.47,3.22,4.92,6.5,4-1.6-1.38-.67-5.67-1-6ZM53.52,87.11c-1.48,0-1.48,3,0,3s1.48-3,0-3ZM26.02,92.11c.57-.46-2.17-2.83-3-2-1.63,1.63,1.92,2.87,3,2ZM53.02,99.11c.59.74,3.95-2.99.5-5-.74-.43-.68,4.77-.5,5ZM87.52,96.11c-2.66.76-1.31,4.95,2,4,2.66-.76,1.31-4.95-2-4ZM127.02,97.11c-.59-.66-5.83-.12-5,3h4.5c.89-.03.6-2.89.5-3ZM120.02,98.11c-5.4-.72-8.36,1.67-2.5,4l2.5-4ZM57.02,103.11c-.11-.11-2.89-.11-3,0-.18.18-.18,4.82,0,5,1.72,1.72,4.24-3.76,3-5ZM102.02,103.11c-.2.24.16,1.73,0,2.5-.05.26-1.85,1.5-.5,1.5,1.96,0,1.76-5.51.5-4ZM43.02,104.11c-2.66-2.66-2.66,5.66,0,3,.11-.11.11-2.89,0-3ZM96.02,105.11c-1.86.87-4.67-1.22-5.5-1-2.66.72-1.7,6.11,2,5,.55-.16,3.14-3.04,3.5-4ZM113.02,105.11c-.13-.13-2.76-.58-3.5-1-.67,1.57-3.26.75-3.5,1-.14.14-.14,3.86,0,4,.17.17.96-.22,1.5,0,.69.29,1.06,1.56,3,1,.52-.15.86-1.54,2.5-1-.16-.97.24-3.75,0-4ZM42.02,111.11c-1.74-1.74-3.49,2.25-.5,4,.76.44.66-3.84.5-4ZM121.02,112.11c-.14-.14-3.86-.14-4,0-.11.11-.11,2.89,0,3,1.23,1.23,5.34-1.66,4-3ZM90.02,116.11c-.14-.14-3.86-.14-4,0-.48.46-.14,4.27,1.5,5s1.68-.92,2-2c.22-.73.97-2.54.5-3ZM106.52,116.11c-1.25.41-1.86,3.72-3.5,4.5,1.28,1.22,2.33,3.12,4.5,2.5,2.62-.75,1.85-7.95-1-7ZM82.02,117.11c-1.09-1.09-3.09.91-2,2s3.09-.91,2-2ZM73.02,119.11c-.18-.18-.96.23-1.5,0s-.7-1.36-2-1c-.4.11-.62.91-1,1-1.1.25-4.21-.29-4.5,0-.31.31.21,4.77,0,6l5-5c-.36,2.79,3.53,3.4,3,6,1.33-.24,4.01,1.88,5,1,.9-.81-3.46-5.2-4-6.5-.23-.54.17-1.33,0-1.5ZM51.52,120.11c-.65,0-.65,1,0,1s.65-1,0-1ZM101.02,121.11c-.76-.64-2.8.33-2,1,.76.64,2.8-.33,2-1Z"/>
      <path d="M131.02,130.11c-.17.17-.96-.22-1.5,0-.43.18-.65.94-1,1-1.15.2-6.06.26-7,0-.31-.08-4.5-4.18-4.5-4.5,0-.43,2.58-2.17,3-3,.46-.91-2.97.27-2-2,1.08-2.53,2.44-.19,3.5-.5.56-.17,1.61-2,2-2,.32,0,4.09,3.37,5,4,.24.17.8-.15,1,0,.51.39,2.5,2.32,2.5,2.5,0,.33-.93.61-1,1-.17.95.23,3.27,0,3.5Z"/>
    </g>
  </g>
</svg>