<?xml version="1.0" encoding="UTF-8"?>
<svg id="Layer_2" data-name="Layer 2" xmlns="http://www.w3.org/2000/svg" viewBox="0 0 184.13 185.17">
  <g id="Elements">
    <g id="Element">
      <path d="M120.13,165.02c3.25-3.06-.74-5.55-1-6.5-.61-2.21.55-2.92,1-4,.22-.54-.17-1.33,0-1.5.62-.62,5.04,1.53,4-2l-4.5-1c-2.37-3.59-3.85-2.48-7-3-.38-.06-.67-1-1-1-.52,0,.36.69-2,0-1.29-.37-2.09,1.48-2.5,1-.19-.23.19-1.81,0-2-.13-.13-2.55.12-3-1.5-.93-3.37.27-4.16,3.5-3.5,1.04.21,4.17,1.46,6,2,.56.17,1.61,2,2,2,.33,0,.62-.94,1-1,2.3-.38,2.54.04,5-1,2.7-1.13.3,3.05,2.5,3v-7c1.95.59,2.32-1.34,3.5-2,2.34-1.3,2-2.88,4-4,2.49-1.39,1.08-1.17,2.5-3.5.3-.5,3.25-3.5,3.5-3.5s1.09,1.5,1.5,1c.22-.27-.21-1.78,0-2.5.17-.58,4.92-3.61,1.5-4.5-1.2-.31-3.31,1.85-4,2-.78.17-5.31.19-5.5,0-1.46-1.46,1.52-3.64,2-4.5.44-.78.86-3.36,1-3.5.49-.49,4.02,1.26,3-2,1.97-.08.3,3.39,2.5,4,3.38.93,4.05-.62,6-2,.18-.13,2.16-.26,2.5-1.5.21-.77.3-8.2,0-8.5-.19-.19-1.81.19-2,0s.2-1.76,0-2-3.15,2.75-5-.5c-.2-.36.52-2.31-1.5-1.5-.63.25-1.45,1.84-2,2-.62.18-1.38-.18-2,0-1.1.32-2.35,4.51-4,5-.72.21-2.29-.21-2.5,0-.19.19.26,1.03,0,1.5-.92,1.64-4.8,3.68-6,2.5-.9-.89,1.48-4.1,1-5.5.99-.63,2.78-3.29,3.5-3.5,2.88-.83,3.79-1.45,5.5-4.5.26-.47-.18-1.28,0-1.5.41-.5,1.13.9,1.5,1,4.49,1.19,3.23-4.73,3.5-5s4.24.19,5.5,0c.37-.06.59-.89,1-1,.74-.2,2.29.21,2.5,0,.27-.27-.25-2.59,0-3.5.14-.5,1.62-1.31,2-2,1.51-2.71,1.46-.96,2-1.5.27-.27-.25-2.59,0-3.5.12-.45,3.99-4.15,4.5-5.5,1.15.4.23,2.49.5,3.5.22.83,3.05,1.95,2,4.5l-2.5-3c-2.98,1.33.19,4.33-.5,5-.86.84-2.35-1-2.5-1-.22,0-3.2,1.91-3.5,2.5-.44.88,3.04-.2,2,2-.33.7-1.5.86-1,2.5-1.05-1.1-4,3.18-4,3.5s.89.59,1,1c.42,1.54-1.78,2.23-2,3s1.77,4.3,2.5,4.5c1.51.42,5.05.07,5.5-1.5.66-2.28,1.06-2.98,2-5,2.39-5.15,6.38-12.83,5-19-.09-.38-.89-.6-1-1-.36-1.3.77-1.44,1-2,1.22-2.9,1.45-.95,2-1.5.21-.21.19-5.77,0-6-1.1-1.31-3.47,1.03-1,2.5-1.27.57-.48,3.39-2.5,2.5s-1.43-2.34-1-4c.25-.99.33-1.97.5-2.5s1.57-1.01,1-3-3.83-1.34-4-1.5c-.28-.26.79-2.4-1-2,.55,1.48-1.01,2.33-1,2.5,0,.21,1.4.79,0,3-.94,1.49-3.66,1.8-4,3-.99,3.46-1.58,5.65-4.5,7.5-1.58,1-1.48,3.15-3,4-.47.26-1.31-.19-1.5,0-.41.41,1.88,4.8,1,6-1.75.54-.57-2.63-1.5-2-1.12.76-3.29,3.8-4,4-.85.23-2.15-.23-3,0-1.1.3-1.21,1.35-5,2-.66.11-.71,1.93-2,0l-.5,3-4-3v9c-1.64-.51-2.24,1.35-3.5,1-1.84-.51-1.03-3.58-2.5-4.5.34-2.04-.49-5.24,0-7,.23-.84,2.76-1.5,2-4-1.63-5.36.66-8.03-1-14-.89-3.2.86-2.15,1.5-2.5,1.84-1.03,3.25-4.24,5.5-5-.58,2.19,2.45,2.86,2,4.5s-2.87,1.37-3,1.5c-.49.49.43,9.53,0,11.5-.14.64-2.33,2.84-2,4,.05.17,2.33,2.45,2.5,2.5.61.17,4.34.16,4.5,0,.19-.19-.71-2.88,1.5-2,.97.39,2.06,2.85,3.5,3,.15-1.11-.23-2.52,0-3.5.03-.12.88-1.8,1-2,1.31-2.2,3.33-1.98,5-5,1.25-2.26,3.54-4.78,4-7,.25-1.18-.24-2.8,0-4,1.46-7.44,2.49-15.04,3-23,.08-1.27-.35-2.14,1-3-2.71-3.59-3.47.37-5.5,1.5-.47.26-1.31-.19-1.5,0-.14.14-.55,2.75-1,3.5-.82,1.34-3.19,2.66-4,4-.13.22.15.71,0,1-.31.61-1.35.72-1,2,.12.44,3.07,2.5,1.5,2.5-.33,0-.59-.89-1-1-1.3-.36-1.45.77-2,1s-1.29-.17-1.5,0c-.5.41,1,1.25,1,1.5,0,.23-1.96,3.59-3,3.5.26-1.46-.36-7.64,0-8,.19-.19,1.81.19,2,0,.14-.14.56-2.72,1-3.5,1.43-2.56,3.46-1.51,0-5.5.81-.12,2.81.19,3,0,.14-.14.14-3.86,0-4-.19-.19-1.03.26-1.5,0-2.54-1.42-.56-2.14-.5-2.5.16-.94-.2-2.13,0-3,.27-1.17.69-2.49,1-4,.08-.38.88-.6,1-1,.29-1.03-1.75-2.68-1-4.5-.78-.79-3.82,1.71-4.5,2-.54.23-1.32-.18-1.5,0s.22.96,0,1.5c-.18.43-.94.65-1,1-.42,2.38.42,5.63,0,8-.07.38-.9.6-1,1-.89,3.56-1.28,6.94-1,11l-4,3.5c.75-1.84-.84-2.9-1-3.5-.2-.74.21-2.29,0-2.5-.19-.19-1.76.2-2,0-.5-.41.93-1.16,1-1.5.21-1.08,1.1-6.64,1-7-.16-.56-2-1.61-2-2,0-.33,1.61-1.35,2-2,1.09-1.84,1.36-4.92,2-7,.12-.4.89-.61,1-1,.09-.31-.82-2.72-1-3-.4-.63-3.28-2.5-3.5-2.5-1.31-.03-1.38,2.89-1.5,3-.21.19-1.76-.2-2,0-.5.41,1,1.25,1,1.5-.02,1.72-6.59,1.9-7,1.5-1.09-1.06,1.01-3.32,1-3.5-.1-1.5-2.79-1.27-3.5-1.5-.41-.13-.63-.92-1-1-.66-.14-3.37-.12-3.5,0-.1.09.28,1.99-1,2.5.27,1.52-.37,8.13,0,8.5.19.19,1.81-.19,2,0,.54.54-.99,5.43,1,6.5-.82,1.12-.79-.8-2,0-.54.36-1.23,1.5-1.5,1.5-.33,0-.67-1-1-1s-.67,1-1,1c-.18,0-2.25-2.08-2.5-2.5-.13-.22.14-.69,0-1-.2-.43-.89-.63-1-1-.59-1.95.95-2.71,1-3,.21-1.15-.3-4.14,0-4.5.21-.25,4.45,4.4,3-.5-.49-1.64-2.87-1.37-3-1.5-.22-.22.04-4.24-2-5.5-3.77-2.33-2.48.84-3.5,2.5-.92,1.5-1.74,3.34-2.5,4.5-1.11,1.7-3.46,3.46-4.5,5.5l-2.5-3.5c-.43-2.49,1.14-5.68-1.5-7.5l-1.5,6c-2.33-.81-2.58,1.4-2,3.5.21.75,2.42,1.46,2,3-1.38,5.01-.46,8.98,1,14,.37,1.29-1.48,2.09-1,2.5.15.13,4.12-.12,2,2-.19.19-1.8-.19-2,0-.16.15.46,3.24-1.5,4-1.23-.46-.09-3.49-.5-4-.25-.31-1.88,1.09-2,1.5-.45,1.48,2,2.55,2,3,0,.41-2.74,1.57-2,4,.62,2.03,1.79,6.11,2,8,.12,1.09.22,6.26,0,6.5-.77.82-2.33-.95-2.5-1-1.3-.36-2.09,1.48-2.5,1-.21-.25.2-1.76,0-2.5-.85-3.19-.41-5.85-1-8-.17-.62-2.42-2.07-3-3-.13-.2.15-.68,0-1-.21-.44-1-.7-1-1,0-.39,2.5-2.17,3-3,1.97-3.3.19-7.06,1-10,.15-.55,1.85-1.45,2-2,.29-1.07-.25-2.81,0-4,.09-.43,1.93-3.63,2-4,.23-1.31.29-7.94,0-9-.47-1.69-2.6-1.24-3.5-1.5-1.5-.43-2.93-4.95-2.5-6.5.15-.55,2-1.61,2-2s-1.75-1.38-2-2c-.88-2.21,1.81-1.31,2-1.5.4-.4-.4-6.6,0-7,.32-.32,3.43.29,4.5,0,.55-.15,1.45-1.85,2-2,.61-.17,4.34-.16,4.5,0,.17.17-.22.96,0,1.5.18.43.92.64,1,1,.48,2.15-1.27,5.52,2,6.5l1-4.5c.19-1.26-.28-5.22,0-5.5.14-.14,3.86-.14,4,0,.19.19-.2,1.76,0,2,.41.5,1.16-.93,1.5-1,1.75-.35,4.18.3,6,0,2.57-.43,6.04.66,9,0,.38-.09.6-.89,1-1,1.3-.36,3.9,2.29,3.5,4,2.07.35.5-3.5,1-4,.27-.27,5.12.15,6.5,0,2.17-.24,16.15-2.26,17-2,4,1.22,6.54.09,11,1,2.2.45,6.3,1.47,8,1,1.34-.37,1.66,1.37,3,1,3.74-1.03,6.81.15,11-1,1.31-.36,1.75,1,2,1s.69-1.36,2-1c.73.2,2.68,3.84,2.5,4-.21.19-1.81-.19-2,0-.11.11-.1,2.89,0,3,.45.52.83-1.22,2-.5.81.5,1.17,1.89,2.5,1.5.28-.08,1.99-1.5,1-2l-.5-4c2.32,1.07,4.35.98,2.5,4-.69,1.13-2.15,1.37-1.5,3.5.12.4.87.6,1,1,.19.59-.18,1.37,0,2,.55,1.93,3.42,1.35,2,6-.61,2.01,2,4.6,2,5,0,.18-1.92,2.64-2,3-.39,1.82-.22,7.87,0,10,.3,2.95,1.56,4.65,1,8-.47,2.82.33,6.54,0,9.5-1.82.36-.69-1.67-1-2-.35-.37-4.1-.66-3,2,1.15-.18,1.85,0,2.5,1,.28.44,1.47,2.36,1.5,2.5.39,1.81.3,9.96,0,12-.05.36-.89.59-1,1-.2.74.21,2.29,0,2.5-.33.33-2.97-1.11-2,2.5.12.44,1.83,2.48,2,3,.23.7-.22,2.28,0,2.5.13.13,2.53-.13,3,1.5.57,2-.87,2.55-1,3-.36,1.31,1,1.75,1,2,0,.42-3,2.58-3,3,0,.39,1.85,1.45,2,2,1,3.62-.52,8.94-1,12-.18,1.12.25,4.25,0,4.5s-2.72-.26-3,0c-.6.55.9,3.02,1.5,3,.18,0,1.83-1.93,2.5.5.28,1.03.21,6.71,0,8-.73,4.41,1.66,12.95,1,20-.03.36-.95.63-1,1-.85,6.81,1.69,11.76,0,19-.82,3.49,1.79,3.13,1,6-.36,1.31,1,1.75,1,2,0,.33-.94.62-1,1-.39,2.33.54,6.01,0,8-.13.46-3.06,2.37-3.5,2.5-1.44.42-5.42-2.05-6.5-1-.23.22.55,2.05-.5,2-1.55-.57-1.39-2.88-1.5-3-.29-.32-3.39,2.3-4.5,2-.44-.12-2.54-1.87-3-2-1.29-.37-2.09,1.48-2.5,1-.14-.17.17-4.02-1.5-4-.35,0-1.34,1.63-2,2-.25.14-.74-.14-1,0-1.52.83-3.17,2.53-5,2-.72-.21-2.27-2.78-3-3-3.52-1.05-2.26,1.76-2.5,2-.19.19-1.73-.16-2.5,0-2.22.46-1.37.01-2,0-.2,0-2.49,3.09-3.5,2-.75-.81,1.29-2.75,1-3-.39-.33-4.04.64-1-2.5-.56-3.52,1.42-6.11,2-9.5l-3,3.5c-.56,3.19,1.68,5.59-3.5,4.5-.34-.07-1.09-1.5-1.5-1-.15.18.47,1.58-1,2.5-4.79,3-2.31-3.77-3-4.5-.09-.1-1.99.28-2.5-1-3.94-.04.49,3.19.5,3.5.02.6-2.43,2.1-3,1.5-.12-.13-.59-2.76-1-3.5,2.35-2.36.12-1.02-1.5-1.5s-2.01-5.39-1.5-6c.14-.17.83.16,1,0-.11.11-.11,2.89,0,3s2.89.11,3,0,.11-2.89,0-3-2.89-.11-3,0ZM74.13,7.02c-.85-.93-3.71,1.18-3,3.5.97,3.18,1.9,4.76-1,8l.5,4.5,3.5-2.5c-.36-2.08.49-12.97,0-13.5ZM104.13,10.02c.16-.2-.2-.94,0-1.5.13-.37,1.85-1.5.5-1.5-1.79,0-1.7,4.43-.5,3ZM114.13,11.02l-2-2c-.26,2.11-.11,2.26,2,2ZM93.63,10.02c-.65,0-.65,1,0,1s.65-1,0-1ZM100.63,10.02c-.65,0-.65,1,0,1s.65-1,0-1ZM78.13,14.02c.15-.15.27-3.45-.5-3-3.01,1.76-.92,4.42.5,3ZM147.63,15.02c-.65,0-.65,1,0,1s.65-1,0-1ZM148.13,19.02c.64-.76-.33-2.8-1-2-.64.76.33,2.8,1,2ZM137.63,18.02c-.65,0-.65,1,0,1s.65-1,0-1ZM156.13,19.02c-.07-.07-1.93-.07-2,0-.82.82.94,2.3,1,2.5.21.73-.22,2.23,0,2.5.28.34,2-1.29,2-1.5,0-.33-.92-.61-1-1-.16-.77.19-2.31,0-2.5ZM176.13,25.02c-1.09-1.09-3.09.91-2,2s3.09-.91,2-2ZM162.13,38.02c-1.09-1.09-3.09.91-2,2s3.09-.91,2-2ZM178.63,47.02c-.65,0-.65,1,0,1s.65-1,0-1ZM179.13,49.02c-2.11-.26-2.26-.11-2,2l2-2ZM171.63,56.02c-.65,0-.65,1,0,1s.65-1,0-1ZM169.63,86.02c-.65,0-.65,1,0,1s.65-1,0-1ZM172.13,90.02c-.76-.64-2.8.33-2,1,.76.64,2.8-.33,2-1ZM117.63,93.02c-.65,0-.65,1,0,1s.65-1,0-1ZM177.63,94.02c-.65,0-.65,1,0,1s.65-1,0-1ZM176.13,95.02c-.11-.11-2.89-.11-3,0-2.66,2.66,5.66,2.66,3,0ZM156.13,101.02c-1.09-1.09-3.09.91-2,2s3.09-.91,2-2ZM172.13,106.02c.64-.76-.33-2.8-1-2-.64.76.33,2.8,1,2ZM150.63,105.02c-.65,0-.65,1,0,1s.65-1,0-1ZM154.13,105.02c-2.34-2.34-2.48,4.52-2,5,.07.07,1.93.07,2,0,.84-.84-1-2.35-1-2.5s1.84-1.66,1-2.5ZM151.13,110.02c1.03-1.03-.32-3.39-2-.5-.42.73,1.82.68,2,.5ZM176.63,114.02c-.65,0-.65,1,0,1s.65-1,0-1ZM157.13,123.02c.29.36,3.3-1.36.5-3-.74-.44-.69,2.76-.5,3ZM172.13,125.02c.81-1-1.58-3.52-2-3-.81,1,1.58,3.52,2,3ZM171.13,128.02c1.03-1.03-.32-3.39-2-.5-.42.73,1.82.68,2,.5ZM177.13,128.02l-2-2c-.26,2.11-.11,2.26,2,2ZM160.13,128.02c-1.09-1.09-3.09.91-2,2s3.09-.91,2-2ZM163.63,128.02c-.65,0-.65,1,0,1s.65-1,0-1ZM173.13,133.02c-.19.19-1.81-.19-2,0-.11.11-.11,2.89,0,3,2.39,2.39,1.84-2.81,2-3,.41-.5,1.24,1,1.5,1,.6,0,1.92-2.07,1.5-3l-4-3c-.73,1.44,1.59,4.42,1,5ZM151.13,131.02c.64-.76-.33-2.8-1-2-.64.76.33,2.8,1,2ZM155.13,129.02c-2.11-.26-2.26-.11-2,2l2-2ZM166.63,131.02c-.65,0-.65,1,0,1s.65-1,0-1ZM166.63,136.02c-.65,0-.65,1,0,1s.65-1,0-1ZM160.13,138.02c-1.42-1.42-3.51,1.24-.5,3,.77.45.65-2.85.5-3ZM135.13,141.02c.64-.76-.33-2.8-1-2-.64.76.33,2.8,1,2ZM153.13,139.02c-.07-.07-1.93-.07-2,0-.2.2-.48,4.86,1,4-.45-1.2,1.7-3.32,1-4ZM141.13,142.02c.64-.76-.33-2.8-1-2-.64.76.33,2.8,1,2ZM172.63,140.02c-.65,0-.65,1,0,1s.65-1,0-1ZM128.13,143.02c-.68-.68-3.44.89-3,2.5.93,3.39,4.46-1.04,3-2.5ZM136.13,149.02c.18-.22.25-4.44-.5-4-3.25,1.9.09,4.51.5,4ZM140.13,145.02c-2-2-2.71,3.12-2,4,.64.8,3.05-2.95,2-4ZM124.13,146.02c-.95-.95-4,1.78-3,3,.4.48,1.07-.81,1.5-1s3.39-.11,1.5-2ZM153.13,149.02c-1.85-1.85-1.79.91-2,1.5-.16.43-1,.68-1,1,0,.11,1.39,1.5,1.5,1.5,1.01,0,2.11-3.39,1.5-4ZM158.13,151.02c1.03-1.03-.32-3.39-2-.5-.42.73,1.82.68,2,.5ZM162.13,151.02c.64-.76-.33-2.8-1-2-.64.76.33,2.8,1,2ZM171.13,149.02c-2.19-2.19-1.79,1.78-2,2.5-.06.2-1.82,1.68-1,2.5,2.19,2.19,1.79-1.78,2-2.5.06-.2,1.82-1.68,1-2.5ZM172.63,149.02c-.65,0-.65,1,0,1s.65-1,0-1ZM136.13,153.02c.1-.12.1-2.88,0-3-1.31-1.57-1.31,4.57,0,3ZM157.13,152.02c-.76-.64-2.8.33-2,1,.76.64,2.8-.33,2-1ZM159.13,156.02c.64-.76-.33-2.8-1-2-.64.76.33,2.8,1,2ZM129.63,156.02c-.65,0-.65,1,0,1s.65-1,0-1ZM151.13,161.02c.19-.24.24-3.44-.5-3-2.8,1.64.21,3.36.5,3ZM139.13,164.02c.14-.14.13-3.85,0-4-1.08-1.29-.84,1.89-1,2.5-.09.37-1.5,1.09-1,1.5.08.07,1.93.07,2,0ZM143.13,160.02c-.15-.15-3.45-.27-3,.5,1.76,3.01,4.42.92,3-.5ZM134.13,163.02c.64-.76-.33-2.8-1-2-.64.76.33,2.8,1,2ZM171.13,169.02c.58-.6-2.4-1.94-2-3.5.11-.43,2.33-2.44.5-3.5l-1.5,4.5c.8.4,1.28,4.29,3,2.5ZM130.13,167.02c.64-.76-.33-2.8-1-2-.64.76.33,2.8,1,2ZM134.63,166.02c-.65,0-.65,1,0,1s.65-1,0-1ZM151.13,168.02c.64-.76-.33-2.8-1-2-.64.76.33,2.8,1,2ZM157.13,167.02c-3.43-.74-1.54,2.53-2,4.5-.12.51-2.36,1.52,0,3,.78.49,3.63.86,4,.5,1.22-1.2-2.86-6-2-8ZM134.13,168.02c-1.03-1.03-3.39.32-.5,2,.73.42.68-1.82.5-2ZM163.13,169.02c-1.09-1.09-3.09.91-2,2s3.09-.91,2-2ZM152.13,176.02c.17-.17-.22-.96,0-1.5.25-.6,1.96-2.31,1-3.5-.75-.93-1.77,2.05-2,2.5s-1.8,1.7-1,2.5c.07.07,1.93.07,2,0ZM140.13,175.02c-.53.43,1.88,3.26,3,.5s-.93-.75-1.5-.5c-.52.23-1.28-.17-1.5,0ZM168.13,177.02c-1.42-1.42-3.51,1.24-.5,3,.77.45.65-2.85.5-3Z"/>
      <path d="M22.13,28.02c.19-.19,1.81.19,2,0,.42-.42-.37-6.84,0-8.5.09-.38.89-.6,1-1,.17-.61-2.02-4.48-1-5.5.13-.13,2.94-.13,3-1.5,0-.13-1.84-1.59-1-2.5.21-.22,2.3,1.72,3.5,1,1.2,2.29,3.24-.3,3.5,0,.21.25.15,5.49,0,6.5-.05.37-.92.61-1,1-.26,1.32-.09,6.92,2,4.5.28-.32-.61-2.74,1-3.5.57-1.99-.87-2.54-1-3-.3-1.1,1.52-2.95,2-4,.23-.51-.18-1.34,0-2,.23-.83,2.48-2.06,3-1.5.68.72-1.69,3.32-1,4,.11.1,2.89.11,3,0,.25-.25-.25-2.75,0-3,.19-.19,1.03.26,1.5,0,.93-.52,2.32-2.81,3-3,1.25-.36,1.87,1.52,3.5,1,1.38,6.45-3.04,3.07-4,4-1.04,1,.95,3.27,1,3.5.2.96-.26,3.18,0,3.5.44.54,2.55-2.54,3-2,.91,1.1-1.5,3.99-1,5.5-1.62.98-.35,2.88-2,4,.1,3.94,2.83-.31,3.5-.5s3.5-.08,3.5-1.5c0-.33-.94-.62-1-1-.21-1.24.22-2.79,0-4-.04-.22-.86-3.36-1-3.5-.34-.34-3.01,1.41-2-3.5.08-.39.94-.62,1-1,.49-2.98-1.49-5.88,3.5-4.5,2.18.6,1.28,4.78,1.5,5,.11.11,2.89.11,3,0s.11-2.89,0-3c-.19-.19-2.88.71-2-1.5,1.22-3.05,5,.5,6-.5.19-.19-.19-1.81,0-2,.68-.7,2.8,1.45,4,1-.73,1.92,1.29,3.45,1,4.5-.2.73-3.83,2.67-4,2.5-.49-.49,1.36-3.87-2-3,.73,1.8-2,3-2,3.5,0,.95,1.86,1.74,3,.5-1.02,3.26,2.5,1.5,3,2,.17.17-.2.94,0,1.5.16.43,1,.68,1,1,0,.33-.93.61-1,1-.88,5,1.4,3.01,2,3.5.5.41-.88,1.11-1,1.5-.29.93-1.17,4.43-1,5,.07.24,1.83,1.59,1,2.5-.43.47-1.19-1.36-2.5-1-.18.05-1.7,1.82-2.5,1-1.09-1.12,1.01-3.32,1-3.5-.07-1.05-2.36-1.4-2.5-1.5-.91-.64-2.39-2.82-3-3-.88-.27-2.35.95-2.5,1.5-.91,3.37.68,10.11,0,14-.03.15-1.81,1.51-1,2.5.12.15,2.34-1.89,3,.5.36,1.32-.91,1.6-1,2-.16.71-.16,4.34,0,4.5.19.19,1.03-.27,1.5,0,3.51,1.99-.98,4.84-.5,6.5.13.46,1.92,2.62,2,3,.43,1.99-.44,5.03,0,7,.15.66,3.24,4.28,2,5.5-.11.11-2.89.11-3,0-.32-.32.29-3.43,0-4.5-.15-.55-1.84-1.44-2-2-1.5-5.23-1.31-9.14-5-14-1.65-2.17-3.82-2.33-4-2.5-.58-.55,1.39-4.62-1.5-4-3.04,1.93-.12,3.22-.5,4.5-.29.98-2.45,2.81-2,4.5-1.83.13-.34-3.81-3-1.5.75.86,2.22,3.21,2,4-.11.39-.88.6-1,1-.69,2.25,4.47,8.11,5,11,.25,1.34-.16,3.07,0,4.5-1.1.08-1.87-1.83-2.5-2-1.3-.36-1.44.77-2,1s-1.32-.18-1.5,0c-.26.26.27,2.66,0,3-.36.46-2.97-3.26-3,.5.52.71,1.61,1.33,2,2,.72,1.25,1.28,3.76,2,5,.6,1.03,2.4,1.54,2,3-.05.19-1.82,1.68-1,2.5.16.16,3.46-.47,4,1.5.23.83-.2,2.09,0,3,.32,1.48,1.19,2.03,1,3.5l-1-2c-1.48.32-3.41-1.44-4-2.5-.26-.47.19-1.31,0-1.5-.32-.32-2.67.89-2-1.5-1.45-1.35-.37-3.48-3.5-2.5-2.87.9-.34,3.86-.5,4-.22.18-1.03-.26-1.5,0-.43.24-3.43,3.26-3.5,3.5-.51,1.78-.57,4.44-1,6-.11.39-1.75,1.81-2,1.5v-5c-3.6-.82-3.55,1.1-3,4.5.06.38.93.62,1,1,.22,1.21-.29,2.94,0,4,.19.71,2.88,2.52,3.5,3.5l1.5-5c-1.22-.57-2.72,1.33-3,1-.1-.11-.1-2.89,0-3,.41-.48,1.21,1.37,2.5,1,.52-.15.86-1.54,2.5-1l1-4c1.41-.25,1.14,1.63,1.5,3,.23.9.83,1.78.5,3l3-.5-2-3.5c1.9,1.7,2.18-.38,3.5,0,.36.1.57.78,1,1,.29.15.78-.13,1,0,2.23,1.36,4.01,5.79,7,5,.92-.24,1.66-2.75,1.5,1l5,1c.88,4.39-3.79-.24-5,1-.12.13-.15,2.88,0,3.5.03.12.88,1.8,1,2,.23.39,2.32,2.45,2.5,2.5.62.18,1.38-.18,2,0,2.53.72,2.91,8.14,2.5,10.5-.06.35-.82.57-1,1-.91,2.18,1.82,1.32,2,1.5.33.33-.92,4.83,2,2.5-1.25-.54-1.31-4.14-1-4.5.11-.13,2.54,1.16,3,1.5.97.72,2.9,3.34,3.5,3.5.78.21,6.21.21,7,0,.26-.07,1.99-1.5,1-2-.97-.6-.29-1.68-.5-2.5-.59-2.24.22-2.19,0-3-.15-.55-1.84-1.44-2-2-.18-.62.18-1.38,0-2-.19-.68-2.48-2.07-3-3-.26-.47.19-1.31,0-1.5s-1.03.26-1.5,0c-1.38-.77-4.03-4.72-5-5-.66-.19-1.49.23-2,0-.89-.4-2.96-1.7-3.5-2.5-.14-.21,3.63-1.68,4-3l1-4.5,2.5,3c1.67-.67,2.88,1.32,4,1,1.68-.48,3.51-4.98,2.5-6-.32-.32-2.81.66-3-.5.92-.65,2.1-2.92,3.5-2.5,1.26.38,1.41,2.39,1.5,2.5,1.3,1.56,2.8,4.3,3,4.5.26.26,2.99-1.07,2,2.5-.11.4-.89.6-1,1-.99,3.57,1.62,2.18,2,2.5.44.37.22,2.85-1.5,2-.38-.19-3.26-3.07-3.5-3.5-.56-1,1.07-1.49-1.5-1.5-1.43,0-2.82.02-3.5,1.5-.93,2.04,2.53,1.31,3,3,.23.84-.21,2.11,0,3,.09.39.91.61,1,1,.59,2.55-1,3.78-1,4,0,.11,1.39,1.5,1.5,1.5.25,0,1.09-1.5,1.5-1,.16.19-.46,3.44,1.5,4s2.54-.87,3-1c.68-.19,4.26,1.66,4.5,2.5.57,1.99-.95,2.71-1,3-1.16,6.51,2.89,7.21,4,11,.58,1.99-1,2.83-1,3,0,.33.99.65,1,1,0,.17-1.55,1.02-1,2.5-4.44.68-2.19-.87-3.5-3-.32-.53-3.72-4-4-4-.33,0-.58.88-1,1-1.18.34-7.55-1.58-9-3-1.43.82-4.99-1.51-5.5-1-.36.37.02,3.22.5,4,.72,1.18,2.86,2.36,3.5,3.5.26.47-.19,1.31,0,1.5.25.25,2.75-.25,3,0,.2.2-.72,2.58,1.5,4,.72.46,3.36.86,3.5,1,.19.19-.12,2.19,0,3l1-1.5c.03-.89,2.88-.6,3-.5.33.28-1.87,3.03-2,3.5-.72,2.63-.49,3.3-2,6-.59,1.05-2.28,2.98-2,4,.21.76,2.42,1.46,2,3-.14.52-2.87,2.24-3.5,2.5-.55.23-3.21.02-1.5,2,.48.56,1.53-1.88,2-.5.34.98,1.17,2.41,1,3s-1.84,1.44-2,2c-.18.63.2,1.42,0,2-.13.39-.83.59-1,1-.91,2.18,1.82,1.32,2,1.5.82.82-1.21,5.22-2.5,6-.81-.52-.48-4.02-2-4-1.87.02-.74,4.32-2.5,4l.5-5c1.82-1.38-.71-4.83-.5-5,.39-.32,3.69.31,4,0,.21-.21.21-5.79,0-6-.34-.34-2.89.94-2-2l-4-1c-.46-1.96.53-7.41,2.5-8,2.81-.84,5.05,4.35,6.5,3,.4-.37-1.37-.83-.5-3,.78-1.95-1.07-3-.5-5.5-1.27-.57-.48-3.39-2.5-2.5-2.15.95-1.43,4.16-1.5,6-1.79.4-.72-1.74-1-2-1.11-1.02-3.18.91-3.5,1-.73.2-2.5-1.35-5-1-.17.02-1.86,1.9-2.5-.5-.2-.75-.24-7.21,0-7.5,1.68-2,2.5,1.87,2,3.5-.11.34-.76.45-1,2-.32,2.09,1.59,1.98,2,1.5.31-.37-.18-5.06,0-6.5,1.79-.91.61-4.05,1-4.5.29-.33,1.77,1.57,3,1-.55,1.61.93,2.11,1,2.5.27,1.54-.35,7.14,0,7.5.11.11,2.67.4,3-.5s1.16-2.45,1-3c-.12-.41-.92-.62-1-1-.19-.92.24-2.2,0-3-.11-.38-.83-.58-1-1-.22-.54.17-1.33,0-1.5-.13-.13-1.96.34-3-1.5-.2-.36.52-2.31-1.5-1.5-.44.18-.69,1-1,1-2.3,0-1.1-6.02-1.5-7.5-.34-1.25-2.79-1.41-3.5-2.5l-.5,6.5c-2.61.91-1.78,5.28-2,5.5-.65.65-6.25-2.03-5,5.5.06.38.99.66,1,1,0,.49-3.78,5.96-4,7-.26,1.18.3,2.93,0,4-.05.17-2.32,2.5-2.5,2.5-.33,0-.65-.99-1-1-.13,0-1.7,1.84-2.5,1-.14-.15-.14-3.86,0-4,.22-.22,3.27,1.14,2-3.5-.34-1.25-2.79-1.41-3.5-2.5l-.5,6.5c-1.84,1.12-.56,3.39-1,5-.2.73-3.85,2.68-4,2.5-.76-.89,1.31-2.42,1-3.5-.7-2.44-2.32-.5-2.5-.5-1.57,0,1.37-2.05,1.5-2.5.21-.72-.21-2.29,0-2.5.25-.25,2.75.25,3,0s-.12-5.59,0-7l2-2,2,4c2.95-.8.85-4.44,4-2l-3.5-4c-1.06-.22-4.12.31-4.5,0-.2-.17,2.14-3.85,1-5-1.5-1.52-4.03,1.87-4.5,2-1.02.29-2.76-1.76-3.5-1-.16.16-.16,3.83,0,4.5.57,2.35,2.9.38,3,.5,1.84,2.26-1.87,1.87-2,2-.31.31.21,4.77,0,6-3.32-1.09-.63-2.29-1-3.5-.23-.76-2.28-1.32,0-3l-4-3.5,2,9-3.5-3c-1.75,1.1.23,2.85.5,3.5.22.54-.17,1.33,0,1.5.13.13,3.95-.2,2,2-.4.45-1.48-1.94-2.5,0-.87-2.46-4.5.8-4.5,1.5,0,.2,2.35,1.5,0,3-1.16.74-1.53-1.01-2-.5s.17,1.96,1,2.5c1.08.7,1.93.43,2,.5.14.14.14,3.86,0,4-.19.19-1.81-.19-2,0-.24.24.19,2.55,0,3.5-.08.39-.94.62-1,1-.23,1.37.15,3.06,0,4.5,3.88.59.56-1.71,1-2,.99-.64,6.17,1.28,5-1.5-.18-.42-.9-.63-1-1-.31-1.12,2-3.76,2-4,0-1.28-6.04-6.01-1-5.5-.59,3.88,1.71.56,2,1,.26.4.2,8.36,0,9.5-.07.37-.88.59-1,1-.55,1.8,2.5,4.3-.5,5.5-2.21.88-1.31-1.81-1.5-2-.11-.11-2.89-.11-3,0-.19.19.26,1.03,0,1.5-.49.87-2.43,2.13-3,1.5-.26-.28.27-2.68,0-3-.14-.16-.86.16-1,0,.29.29.62,3.85-1.5,3-3.05-1.22.51-3.99,1.5-3-.17-.2.22-.96,0-1.5-.17-.42-.88-.62-1-1-.6-1.97,1-2.83,1-3,0-.33-1-.66-1-1,0-.27,3.06-3.1,3-4.5-2.86-.97-1.73,1.79-2,2-.9.7-2.68-1.47-4-1-1.36-4.96,3.21-2.21,4-3,1.2-1.2-.45-4.77-3-2.5-.5.99-1.92-.72-2-1-.43-1.47,3.23-3.24,2-5.5l3,2v-7l-4,3c-1.05-2.55,1.78-3.67,2-4.5.64-2.41-.06-4.56,1-8,.55-1.79-1.63-3.33-1-5.5-3.64-.87-1.36,3.4-2,4-.75.7-2.81-1.48-4-1-.54-1.64.84-1.97,1-2.5.6-1.97-1-2.83-1-3,0-.33.89-.59,1-1,.27-1.02-.26-2.84,1.5-3.5.15-.05,1.83,2.58,1.5-.5-.76-1.96-3.85-1.34-4-1.5-2.05-2.16,1.86-1.86,2-2,1.1-1.1-2.72-3.13-2-5.5.97-3.21.5-1.71-1-5-.76-1.68-1.29-3.3-2-5-1.02-2.44,2.65-1.15,3-1.5.27-.27-.21-3.39,0-4.5.08-.44,2-3.76,2-4,0-.33-.94-.62-1-1-.13-.81-.16-4.34,0-4.5.68-.7,2.8,1.45,4,1,.98-2.86-1.8-1.74-2-2-.65-.86,1.52-2.68,1-4.5-.04-.15-1.86-2.43-2-2.5l4-.5c.28-1.19-1.58-2.03-1-4,.13-.44,2.02-2.42,1-3.5-.62-.66-2.46.65-3,1.5-.13.2.15.68,0,1-.2.43-.92.65-1,1-.16.71-.16,4.34,0,4.5-.34-.17-1.38.09-2,0v-10.5l1-4.5-3,4.5c-.62,2.05,2.85,4.19-1,5.5v-15l3,3,1-4.5c-1.2-2.51-1.11-4.96-1-8l-3,.5c-.98-2.86,1.8-1.74,2-2,.81-1.06-.99-2.35-1-2.5,0-.13,1.84-1.67,1-2.5-.77-.75-2.75,1.27-3,1-.76-.83,1.29-2.44,1-3.5-1.28-4.59-.24-6.59-1-10-.18-.81-.2-4.28,0-5,.54-1.97,3.84-1.34,4-1.5.11-.11.1-2.89,0-3-.11-.13-2.34,1.87-3-.5-.41-1.5,5.38-5.73,2-8,2.97-1.12,1.54-5.95,2-6.5,1.73-2.06,2.42,1.93,2,3.5-.11.4-.91.61-1,1-.58,2.48,1.24,4.12,1,5-.11.41-.99.67-1,1-.02.6,2.43,2.1,3,1.5.5-.53-.8-2.38-1-3.5-.61-3.46.73-2.07,1.5-2.5.58-.32,2.07-2.53,2.5-2,.12.14.6,2.77,1,3.5-2.35.96,2.25,3.34,1,4.5-1.05.98-3.84-3.28-3,1.5l1.5,2.5,2.5-3c.27,1.57-.79,1.95-1,3.5-.15,1.11.24,4.26,0,4.5-.19.19-1.81-.19-2,0s.19,1.81,0,2-1.81-.19-2,0c-.25.25-.24,6.75,0,7,.11.11,2.15.15,3,1-.52-1.63,1.36-2.25,1-3.5-.11-.39-.88-.6-1-1-.58-1.91,1.22-3.76,3-4.5-.2,1.71-.82,2.59-1,4.5-.14,1.53-.08,3.43,0,5s.83,2.85,2,1.5c.28-.32-.61-2.74,1-3.5-2.62-1.34,3-5.53,3-6,0-.33-1-.67-1-1s.89-.59,1-1c.42-1.54-1.79-2.24-2-3-.31-1.12,1.57-2.96,2-4,.23-.54-.17-1.33,0-1.5-2.72.39-1.95-.44-2-2.5-.03-1.22.25-3.05,0-4-.82-3.09-3.68.89-4,.5-.15-.18-.21-2.83-2-3.5-.41-.73-.88-3.36-1-3.5-.4-.46-1.61,1.46-2,1-.13-.15-.14-3.86,0-4,.19-.19,1.81.19,2,0s-.2-1.76,0-2c.4-.49,1.09.85,1.5,1,2.25.84,1.28-1.78,1.5-2,.24-.24,2.55.19,3.5,0,.37-.08.59-.87,1-1,1.17-.37,3.19.43,3.5,1.5.27.93-2.72,4.44-3.5,5.5l-2.5-3c-1.16,8.25,2.73,3.69,3,4s-.19,3.36,0,4.5c.1.61,1.32.66,0,3l1,4.5ZM52.13,15.02c.41.51,3.75-2.1.5-4-.75-.44-.68,3.78-.5,4ZM32.13,12.02c-2.55-.36-3.88,3.23-4.5,5-1.69,4.84,2.66,4.66,3.5.5l1-5.5ZM55.63,16.02c-.18,0-2.5,2.32-2.5,2.5,0,1.31,3.39,2.23,4,0,.25-.91-1.1-2.5-1.5-2.5ZM42.13,17.02c-1.78-.78-2.92,1.08-2,2,.19.19,1.81-.19,2,0,.11.11-.06,3.24,1,2,.7-.82-1.48-2.77-1-4ZM62.63,21.02c-.65,0-.65,1,0,1s.65-1,0-1ZM30.13,22.02c-1.74-1.74-3.49,2.25-.5,4,.76.44.66-3.84.5-4ZM40.13,26.02c.64-.76-.33-2.8-1-2-.64.76.33,2.8,1,2ZM34.13,25.02c-.07-.07-1.92-.07-2,0-.49.4.81,1.07,1,1.5.08.18.09,2.59,1,1.5.1-.12.11-2.89,0-3ZM41.13,36.02c-1.3-3,1.77-4.63,2-5.5.38-1.43-.26-3.85,0-5.5-4.3,1.72-2.56,5.02-3,8.5-.1.81-2.03,1.59,1,2.5ZM26.13,41.02c.27-1.99-.39-4.68,0-6.5.07-.32,1.61-2.36,2-3,1.06-1.72,1.64-2.15-.5-3.5-.32-.2-1.21,3.18-2.5,3.5.34,2.37-.27,4.09-1,6l2,3.5ZM38.13,28.02l-4,3.5,1,6.5c4.56.53-.98-3.63,2-5.5l1-4.5ZM9.13,38.02c-1.38-2.56,1.98-5.2,2-5.5.01-.18-1.78-1.75-1-3.5-1.79-.4-.72,1.74-1,2-.67.62-2.52-1.88-2,3.5.16,1.67-.16,2.94,2,3.5ZM32.13,33.02c.15-.15.27-3.45-.5-3-3.01,1.76-.92,4.42.5,3ZM31.13,34.02c-.12-.1-2.89-.11-3,0s-.11,2.89,0,3c1.89,1.89,1.8-1.05,2-1.5s1.48-1.1,1-1.5ZM52.13,37.02c-.76-.64-2.8.33-2,1,.76.64,2.8-.33,2-1ZM38.13,48.02l-1-7-1,4.5,2,2.5ZM42.13,41.02c-1.03-1.03-3.39.32-.5,2,.73.42.68-1.82.5-2ZM28.13,47.02c-.13-.13-2.55.12-3-1.5-.28-1,.66-3.1-.5-3.5-.74,1.61-4.16,2.31-4.5,3.5-.55,1.91,1.52,4.02,2,3.5s-1.37-3.85,2-3c-.77,2.94,2.82,2.82,3,3,.21.21.77,4.44,1,5.5.31,1.45-.32,2.96,2,3.5-.29-1.75,1.55-2.62,1-4.5-.21-.73-2.81-2.3-3-3-.25-.91.27-3.23,0-3.5ZM29.63,45.02c-.65,0-.65,1,0,1s.65-1,0-1ZM35.13,45.02c-.07-.07-1.92-.07-2,0-.49.4.81,1.07,1,1.5.08.18.09,2.59,1,1.5.1-.12.11-2.89,0-3ZM12.13,47.02c-1.03-1.03-3.39.32-.5,2,.73.42.68-1.82.5-2ZM56.13,49.02c-.19-.19-2.19.12-3,0,.11,1.01,2.68,3.35,3,3,.1-.11.11-2.89,0-3ZM22.13,72.02c-.02.85.18,2.73,0,3-.29.44-2.59-2.88-2,1l4-1c.14-.14-.33-5.54,2-3,.69.75-1.7,4.79,2,4-.88-2.24,1.75-4.37,2-5.5.67-3.01-1.15-5.75,2-8.5-5.47.98-3.52-1.52-4-2-.18-.18-2.91.68-2-1.5.18-.42.9-.63,1-1,.51-1.86-2.72-3.18-4-4-1.73-1.1-.32-2.84-1.5-3.5l-.5,4c3.49-.79,2.44,3.87,0,5.5,1.83,2.47,1.69.7,2.5.5.98-.25,2.5,1.16,2.5,1.5,0,.74-2.93,3.73-3,4-.29,1.05.71,1.86,1.5,2.5,1.48,1.2,3.92,1.04,2,3-1.92-.37-2.61,1.02-4.5,1,.03-1.31.24-6.75,0-7-.62-.64-11.01,3.57-5.5,7,1.27-.28-.26-2.72,1-3,2.36-.53,1.05,2.22,3,3,.37.15.97,0,1.5,0ZM37.13,50.02c-.76-.64-2.8.33-2,1,.76.64,2.8-.33,2-1ZM9.13,57.02c1.61,1.61,4.26-3.43,3-5-.75-.93-1.77,2.05-2,2.5s-1.8,1.7-1,2.5ZM33.13,61.02l3-3.5,1-5.5-3,2.5-1,6.5ZM33.13,56.02c.1-.12.1-2.88,0-3-1.31-1.57-1.31,4.57,0,3ZM18.13,59.02c.64-.76-.33-2.8-1-2-.64.76.33,2.8,1,2ZM7.63,58.02c-2.58.71-1.53,5.7,1,5s1.53-5.7-1-5ZM15.13,66.02c.76-.77-1.3-2.47-1-3.5.11-.39.86-.59,1-1,.63-1.86-.92-3.87-3-3.5-.88,1.2,1.41,5.59,1,6-.25.25-2.75-.25-3,0-.2.2.19,1.75,0,2.5-.09.37-1.5,1.09-1,1.5.24.2,1.81-.19,2,0,.62.62-1.56,4.97,2,4,.83-1.77-1.78-6.1-1-7,.24-.27,2.26,1.75,3,1ZM40.13,65.02c1.16-3.37-2.14-6.62-3-3.5-.33,1.19,1.73,3.05,3,3.5ZM18.13,65.02c.64-.76-.33-2.8-1-2-.64.76.33,2.8,1,2ZM33.63,65.02c-.65,0-.65,1,0,1s.65-1,0-1ZM6.63,70.02c-.65,0-.65,1,0,1s.65-1,0-1ZM35.13,70.02l-4,1.5,1,4.5,3-6ZM11.13,73.02c-1.59-1.87-2.29,2.15-3,2.5,2.18,1.79,3.6,5.14,7,4.5l-3.5-4c-3.31.54.46-1.87-.5-3ZM22.13,83.02c-.19-.19.26-1.03,0-1.5-.38-.68-1.56-1.29-2-2-.3-.48-.71-2.32-1-3-.67-1.57-.68-2.87-3-2.5-.85,2.24,1.51,4.87,1,6.5-.66,2.12-2.16,4.85-3,7-.27.7-1.35,3.15-1,3.5,1.44-.72,3.87,1.16,4,1,.89-1.03-1.83-7.28,2-6l-.5-4,4.5,5c-4.14-.53-4.32,1.99-4,5.5l-1,4.5c-2.92.79-2.84-2.86-3-3-.7-.58-2.6.65-3,1.5-1.1,2.34,2.77,1.25,3,1.5.19.21-.19,1.8,0,2,.13.13,2.69.71,3.5,1,1.11.4.26,2.97.5,4,1.61.34,1.17-2.69,1-3.5-.07-.35-1.58-1.03-1-3,.17-.56,1.84-1.44,2-2,.3-1.06-1.76-2.65-1-3.5.14-.15,3.08,1.94,4,1,.57-.58-1.26-5.43,1.5-7,.47-.27,1.31.19,1.5,0,.11-.11.11-2.89,0-3-.34-.34-4.66.34-5,0ZM28.13,89.02c1.32-.17,3.6-1.13,4-2.5.19-.66-.23-1.5,0-2,.64-1.37,2.02-2.9,2.5-4.5,1.04-.52-.89-2-1-2-.39.01-1.62,2-2,2-.15,0-1.66-1.84-2.5-1s.99,2.35,1,2.5c0,.16-1.25.74-1,3,.13,1.18,2.39-.39,2,1.5l-3-.5c.13,1.13-.2,2.46,0,3.5-.85.11-2.81-.18-3,0-.7.68,1.45,2.8,1,4,1.02.32,2.74-.61,3-1.5.34-1.17-.79-1.41-1-2.5ZM10.13,102.02c-.16-.15.55-3.77-2-4-.87,1.85,1.23,4.7,1,5.5-1.14,3.98.54,7.13,1,12,.12,1.24-.38,2.14,1,3-.69,1.56-2.63,1.64-3,0-.21-.96-.17-3.95,0-5,.06-.38,1-.67,1-1,0-.2-2.21-2.44-3-2.5l1,4.5c-.45,2.04.42,7.93,2.5,8.5,6.37,1.74,1.23-2.77,1.5-3h5.5l1.5,2-1-4c-.57-.56-4.1,1.92-5,1-.23-.23.17-2.55,0-3.5-.12-.67-1.93-.71,0-2l1-5c.74-.79,2.98-3.41,4-2.5.6.54-2.82,2.88-3,3.5-.28.94.52,2.15-1,3,.79,1.07,1.11-.9,2.5-.5,2.22.63.53,4.08,2.5,4-.57-1.22,1.33-2.72,1-3-.23-.19-1.81.19-2,0-.16-.16-.13-3.69,0-4.5.07-.41,1.66-1.62,1-4-.07-.24-3.26-3.43-3.5-3.5-1.76-.5-3.78,1.66-4.5,1ZM43.13,103.02c-.11-.11-2.89-.11-3,0s-.11,2.89,0,3c1.02,1.02,4.02-1.98,3-3ZM25.13,107.02c.64-.76-.33-2.8-1-2-.64.76.33,2.8,1,2ZM34.13,105.02c-.11-.11-2.89-.11-3,0-.69.69.27,3.28,1.5,4,.85.5.27-.96.5-1.5.14-.35,1.82-1.68,1-2.5ZM47.13,108.02c-2.11-.26-2.26-.11-2,2l2-2ZM22.13,109.02c-1.42-1.42-3.51,1.24-.5,3,.77.45.65-2.85.5-3ZM26.13,111.02s-.15-4.68-1-.5c1.49,1.04.68,4,2.5,4.5,1.31.36,1.73-.99,2-1,1.3-.03,1.38,2.89,1.5,3,2.44,2.29,1.84-2.84,2-3,.19-.19,2.88.71,2-1.5-.96-2.4-2.12-.61-2.5-.5-1.99.57-2.66-.93-3-1-1.01-.21-2.94.3-3.5,0ZM48.13,113.02c-1.38.56-4.16-2-4.5-2-.63,0-2.09,2.46-1.5,3,.37.34,2.64-.91,2,1.5l2,2.5,2-5ZM39.13,113.02c-1.7-1.7-3.26,1.88-.5,3s.76-.92.5-1.5c-.23-.53.18-1.32,0-1.5ZM28.13,118.02c-.51-.56-2.78.67-3,1.5-.67,2.51,1.52,4.29,1,6-.12.41-.91.62-1,1-.53,2.25.88,3.46,1,5.5l-4,.5c.26,1.26,2.84-.25,3,1,.26,2.11-1.72,4.03-1,6.5-1.96.2-.66-2.29-1-3.5-.16-.55-1.85-1.45-2-2-.87-3.16.7-5.08,1.5-7.5.73-2.23-.67-1.99-.5-4l-2,2.5c.39,3.65-3.83,5.21-3,9,1.88,1.99,0,3.45,3,1.5l2.5,5c1.7-.68,4.15-.66,3.5-2.5,2.26-.79,1.83-4.31,2-4.5.39-.44,2.77-.27,2,1.5l2,5.5,3-7c-.06.89-2,3.3-2,3.5s2.21,2.44,3,2.5l1-4.5c-.74-1.1-2.18-8.38-2-9s1.74-1.65,1-3.5c-2.87.75-2.54,3.44-3.5,5-.64,1.04-1.93,1.32-3,1-.49-.14-2.5-3.28-2.5-3.5,0-.33.94-.62,1-1,.16-.96.22-6.26,0-6.5ZM37.13,123.02c.29.36,3.3-1.36.5-3-.74-.44-.69,2.76-.5,3ZM47.13,121.02c-.58.58.88,3,1.5,3,.11,0,1.5-1.39,1.5-1.5,0-.62-2.42-2.08-3-1.5ZM16.13,122.02c-2.15-.38-2.05.21-2.5,2s-.7,3.2-.5,5l3-7ZM31.63,123.02c-.65,0-.65,1,0,1s.65-1,0-1ZM16.63,125.02c-.65,0-.65,1,0,1s.65-1,0-1ZM8.13,128.02c.19.19,1.03-.26,1.5,0,.99.55,2.11,3.21,3.5,2.5l-4.5-4.5c-.88-.13-.57,1.93-.5,2ZM39.63,126.02c-.65,0-.65,1,0,1s.65-1,0-1ZM43.63,126.02c-.65,0-.65,1,0,1s.65-1,0-1ZM46.63,128.02c-.65,0-.65,1,0,1s.65-1,0-1ZM40.13,132.02c.94-1.13-1.87-3.94-3-3-1.26,1.05,1.89.89,2,1s-.05,3.26,1,2ZM15.13,133.02c-1.09-1.09-3.09.91-2,2s3.09-.91,2-2ZM40.63,133.02c-.65,0-.65,1,0,1s.65-1,0-1ZM19.13,138.02c-.19-.19-1.02.26-1.5,0-.53-.29-.95-1.16-1.5-1.5-.94-.57-3.71-.78-4-.5-1.04,1.01.92,3.17,1,3.5.34,1.36.74,2.88,1,4,.54,2.31-1.19,4.35-1,4.5.21.17,1.72-.09,2.5,0,.94.11.16,1.93,1.5,2.5-.19,1.16-2.66.17-3,.5-.6.58.47,4.01,1.5,4,.35,0,2.28-3.12,4.5-2-1.99-2.3-2.52-4.35-2-7.5.18-1.07.7-2.73,1-4,.15-.62.12-3.38,0-3.5ZM46.13,139.02l-2-2c-.26,2.11-.11,2.26,2,2ZM42.13,140.02c.52-.42-2-2.81-3-2-.52.42,2,2.81,3,2ZM33.63,140.02c-.65,0-.65,1,0,1s.65-1,0-1ZM24.13,144.02c.64-.76-.33-2.8-1-2-.64.76.33,2.8,1,2ZM38.13,145.02c.42.52,2.81-2,2-3-.42-.52-2.81,2-2,3ZM45.13,142.02c-1.09-1.09-3.09.91-2,2s3.09-.91,2-2ZM70.13,147.02c-1.09-1.09-3.09.91-2,2s3.09-.91,2-2ZM22.13,151.02c.64-.76-.33-2.8-1-2-.64.76.33,2.8,1,2ZM74.13,153.02c-1.03-1.03-3.39.32-.5,2,.73.42.68-1.82.5-2ZM16.13,160.02c-1.09-1.09-3.09.91-2,2s3.09-.91,2-2Z"/>
      <path d="M99.13,151.02c.26.25,4.37-.71,5,1.5.19.66-.23,1.49,0,2,.48,1.05,2.3,2.9,2,4-.26.93-2.94,1.58-2,5,.09.33,2.75,2.89,3,4,.31,1.38.18,3.25-1,4s-1.48-.99-2-.5c-2.05,1.93,2.27,2,2,2.5-.42.8-1.89,1.63-2.5,2.5-1.06-.39-.38-2.43-.5-3.5-.03-.28-2.89-1.62-3-1.5-.8.88,2.01,4.25,2,4.5,0,.28-2.5,2.41,0,4-1.59.74-.75,3.25-1,3.5-.13.13-1.68.39-2-.5-.8-2.23-1.05-2.85-4-2.5.06,1.04.93.7.5,2-.25.76-1.11,3.67-2.5,2-.96-1.15,1.61-4.29,1-5-.15-.17-1.38.82-2.5,1-4.04.64-1.86-1.19-2.5-3.5-.24-.86-2.74-1.61-2-3.5l4-1c.19-1.1-.28-4.72,0-5,.19-.19,1.81.19,2,0,.21-.21-.54-4.74,3-4l-4-3c1.75.78,3.32-1.01,3.5-1,.15,0,1.66,1.84,2.5,1,.9-.9-1.43-3.87-1-5.5.1-.37,1.5-1.09,1-1.5-.32-.26-2.75.25-3,0-.18-.18-.17-4.82,0-5,.09-.1,1.99.28,2.5-1,1.96.76,1.34,3.85,1.5,4ZM100.13,168.02c.64-.76-.33-2.8-1-2-.64.76.33,2.8,1,2ZM104.13,169.02c.64-.76-.33-2.8-1-2-.64.76.33,2.8,1,2ZM94.63,168.02c-.65,0-.65,1,0,1s.65-1,0-1ZM98.13,173.02c.14-.14.13-3.85,0-4-1.08-1.29-.84,1.89-1,2.5-.09.37-1.5,1.09-1,1.5.08.07,1.93.07,2,0ZM100.13,174.02c-.11-.11-2.89-.11-3,0-2.66,2.66,5.66,2.66,3,0Z"/>
      <path d="M56.13,177.02c-.79-.35-3.67.33-4,0-.19-.19.71-2.88-1.5-2s-.88.2-2,0c-.95-.17-3.27.23-3.5,0-.25-.25-.22-6.73,0-7,1.89-2.25,1.93,1.56,2,2.5.19,2.66,1.05.74,2.5,2.5v-5l1.5,5c2.47.48,4.5,2.2,5-1.5.46-3.37-.57-7.78,0-11,.06-.35.82-.57,1-1,.22-.54-.17-1.33,0-1.5.21-.21,1.77.21,2.5,0,.52-.15,2.37-3.13,3.5-2s-1.86,3-2,3.5c-.43,1.58-.49,4.21-1,6-.1.36-2.65,2.86-3,4,.19,1.16,2.68.18,3,.5.28.28-.19,4.24,0,5.5.06.37.93.62,1,1,.47,2.61-.59,4.06,2,6.5l-3.5,2-1.5-4.5c-.92-.46-1.63-3.34-2-3.5,1.09,1.09,3.09-.91,2-2s-3.09.91-2,2Z"/>
      <path d="M104.13,108.02l-2-2.5c-.58-1.98.95-2.71,1-3,.62-3.46-.73-8.75,0-12,.08-.36.8-.57,1-1,.14-.31-.13-.78,0-1,.25-.42,2.32-2.5,2.5-2.5s2.45,2.33,2.5,2.5c.17.61-.17,1.37,0,2,.11.41,1,.67,1,1s-.89.59-1,1c-.36,1.31,1,1.74,1,2,0,.35-4.12,4.08-3,6-1.75,2.11-2.39,4.86-3,7.5Z"/>
      <path d="M94.13,104.02c.5.41-.9,1.13-1,1.5-.45,1.67,1.91,4.44,1,5.5-.39.46-1.61-1.46-2-1-.21.25-.11,5.39,0,6.5.12,1.18,2.4-.39,2,1.5-1.62.71-3.95-3.11-5-2-1.24,1.31,2.68,4.61-.5,4l-2-3c.62-1.07.85-4.23.5-5.5s-5-3.39,1-4.5l1-4c1.97-.64,2.66.65,3.5,1,.54.22,1.29-.17,1.5,0ZM91.13,115.02c1.46-1.46-2.07-5.89-3-2.5-.44,1.61,2.32,3.18,3,2.5Z"/>
      <path d="M67.13,90.02c-.09-1.14.16-2.41,0-3.5-.05-.37-.95-.63-1-1-.16-1.25-.27-5.01,0-6,.07-.26,1.5-1.99,2-1,1,.29,3.74,2.08,4,3,.38,1.32-1.38,1.68-1,3,.12.4.92.62,1,1,.21.94.3,8.19,0,8.5-.38.39-2.59-.71-3.5-1-1.33-.43-1.82.79-1.5-2,1.04.87,4.09-1,0-1Z"/>
      <path d="M67.13,90.02c.03.35-.09.92,0,1-2.83.28-3.04-1,0-1Z"/>
      <path d="M81.13,80.52c.12-.46,1.07-1.55,2-1,3.36,2,1.47,5.81,2,9,.06.38,1,.67,1,1,0,.31-2.69,3.3-3,5-.39,2.14,1.47,6.31-2,5.5v-19.5Z"/>
      <path d="M107.13,72.02c-.84.84-2.35-1-2.5-1-.36,0-2.32,2.97-2.5,3.5-.67,1.92,1.45,3.04-3,2.5-.98-2.86,1.8-1.74,2-2,1.03-1.36-1-3.3-1-3.5,0-1.31,2.86-1.39,3-1.5.5-.41-.9-1.13-1-1.5-.54-2.04.93-2.65,1-3,.2-.96-.26-3.18,0-3.5.41-.5,1.25,1,1.5,1,.3,0,1.4-1.61,2-2l1.5,2.5c.85,2.17-.84,4.22-1,5-.19.95.24,3.26,0,3.5Z"/>
      <path d="M120.13,179.02c-.36.37-2.77.13-3.5-1s-.17-2.73-2-2-.84,3.24-2.5,3c.27-1.39-.38-6.55,0-7,.23-.27,2.28,1.75,3,1,.25-.26-.25-2.74,0-3,.57-.59,4.5,1.58,5,2.5-.24,1.3.34,6.15,0,6.5Z"/>
      <path d="M110.13,112.02c-.17.17-1.04,3.67-1,4.5l-1.5,4.5c-3.78-3.83-.39-8.52,2.5-11.5.07-1.11,1.8-4.49,2.5-4.5.65-.01,3,2.85,2.5,4.5-.16.53-2.84,2.22-3.5,2.5-.54.23-1.33-.17-1.5,0Z"/>
      <path d="M87.13,32.02c-.85,2.97,1.59,1.63,2,2,.48.44-.93,1.15-1,1.5-.51,2.49,1.38,6.43-2,7.5.94-2.87-2.48-1.68-3-3.5-.57-2.01,1-2.83,1-3,0-.33-.94-.62-1-1-.13-.81-.16-4.34,0-4.5.68-.7,2.8,1.45,4,1Z"/>
      <path d="M97.13,46.02c.38.41-.78,3.61,1,4.5-.5,3.04,1.54,8.12-2,9.5.22-1.6-.37-3.09-1-4.5-.58-1.29-3.82-4.68-3-5.5.19-.19,1.81.19,2,0,.21-.21-.21-1.77,0-2.5.24-.83,2.48-2.06,3-1.5Z"/>
      <path d="M112.13,26.02c.41.41.14,9.84,0,11.5-.03.36-.96.63-1,1-.3,2.62,1.42,7.39-2,6.5-.39,1.79,1.71.71,2,1,.59.59-.89,2.99-1.5,3-.81,0-1.88-2.3-1.5-3.5.13-.41.94-.63,1-1,.84-4.78.48-7.8,0-12-.12-1.09-.23-6.27,0-6.5.11-.11,2.89-.11,3,0Z"/>
      <path d="M84.13,65.02c-.61.66-2.46-.65-3-1.5-.13-.2.15-.68,0-1-.2-.44-1-.7-1-1,0-.33.93-.62,1-1,.45-2.64-1-3.78-1-4,0-.21,1.55-.98,1-2.5,1.69.9,4.83-1.19,5-1,.71.8-1.9,5.76-1,7.5-1.78.89-.62,4.09-1,4.5Z"/>
      <path d="M31.13,179.02c.24.24,3.04-.16,4,0-.74,1.52,1.59,4.31,1,5-.41.48-2.88-3.06-4-2-.48.45,1.35,3.88-2,3l-1-4.5c.24-1.51-.35-3.7,0-5,.11-.39,1.75-1.81,2-1.5.37.46-.36,4.64,0,5Z"/>
      <path d="M64.13,38.02c1.08,1.14-1.01,3.32-1,3.5.12,1.78,1.27.94,0,5-.55,1.75,1.28,3.26,1,3.5-.11.1-2.89.11-3,0-.27-.27-.17-6.46,0-7.5.06-.38,1-.67,1-1s-.89-.59-1-1c-.45-1.62,2.36-3.18,3-2.5Z"/>
      <path d="M4.13,93.02c.4.48-.29,6.76,0,8.5.13.79,1.94.85-1,3-1.65.37.4,2.63-.5,2.5-.18-.02-2.45-2.33-2.5-2.5-.73-2.54,1.75-3.13,2-4,.18-.63-.19-1.41,0-2,.66-2.04,1.55-.94,0-4-.86-1.7,1.62-1.95,2-1.5Z"/>
      <path d="M113.13,52.02c-.25,3.62.43.96,3,1l-.5,12-.5-6.5c-.78-1.49-4.64-5.1-5-6-1.03-2.56,1.69-.38,3-.5Z"/>
      <path d="M63.13,86.02c.28-.26-.79-2.4,1-2,.51,1.64-1.34,2.23-1,3.5.07.25,1.83,1.52,1,2.5-.47.56-2.16-2-2.5-2-.26,0-.69,1.35-2,1-.81-.22-1.57-2.69-3.5-2l1-4c2.15-.71,4.57,4.31,6,3Z"/>
      <path d="M92.13,78.02c-.28.33-1.78-1.57-3-1,.05-3.61-.95-6.73,2.5-9l.5,10Z"/>
      <path d="M9.13,183.02c-1.8-.76-3.56-2.56-3-4.5.22-.78,2.56-1.61,2-3l2-2.5,1,4.5c-1.25,1.41-2.29,3.42-2,5.5Z"/>
      <path d="M75.13,179.02l3-2,1,8c-3.36.86-1.51-2.5-2-3-.43-.44-1.6,1.47-2,1-.16-.19.32-1.65-.5-3-.35-.56-1.39-1.09-1.5-1.5-.16-.58-.37-3.28.5-3.5l1.5,4Z"/>
      <path d="M51.13,150.02c.45-1.2-1.7-3.32-1-4,1.37-1.33,4.22,2.78,3,4-.13.13-1.34-.08-2,0-.52,1.8.88,1.98,1.5,3,1.05,1.71-.07,4.05-1,4-1.54-.09-1.21-3.78-2.5-4.5-.23-3.21-.16-2.23,2-2.5Z"/>
      <path d="M43.13,185.02c-1.64.12-.67-1.93-2.5-3-1.16-.68.54,3.31-1.5,3v-6l4,6Z"/>
      <path d="M53.13,161.02c-1.51,1.88-.76,3.52-1,5.5-.11.89-2.89.6-3,.5-.96-.88,1.11-2.39,1.5-3,1.1-1.7-.65-3.59,2.5-3Z"/>
      <path d="M36.13,173.02c.14.14.14,3.86,0,4-.11.11-2.89.11-3,0-.14-.14-.14-3.86,0-4,.11-.11,2.89-.11,3,0Z"/>
      <path d="M24.13,161.02c.14.14.14,3.86,0,4-1.34,1.34-4.23-2.77-3-4,.11-.11,2.89-.11,3,0Z"/>
      <path d="M47.13,176.02c.73-.9,1.76,1.97,2,2.5.21.44,1,.7,1,1,0,.11-1.39,1.5-1.5,1.5-1.26,0-2.09-4.27-1.5-5Z"/>
      <path d="M86.13,146.02c1.05,1.05-1.2,4.71-3,5-.54-1.64.85-1.99,1-2.5.21-.72-.19-4.69,2-2.5Z"/>
      <path d="M28.13,164.02c-.91,1.09-.92-1.3-1-1.5-.17-.42-.9-.62-1-1-.36-1.3.77-1.45,1-2,.08-.2.09-2.59,1-1.5.19.23.19,5.77,0,6Z"/>
      <path d="M9.13,150.02c-.25.31-1.89-1.11-2-1.5-.4-1.46-.02-5.72,1-4.5.26.31-.2,2.54,0,3.5.04.19,1.81,1.49,1,2.5Z"/>
      <path d="M56.13,180.02c.18.18-.23.97,0,1.5.26.58,2.26,2.62-.5,1.5s-1.2-4.7.5-3Z"/>
      <path d="M110.13,172.02l1,6c-1.98.33-.6-2.62-1-3-.47-.45-2,1.25-2-1.5,0-2,.01-1.57,2-1.5Z"/>
      <path d="M100.13,38.02c.5.41-.91,1.13-1,1.5-.24.95.3,4.38-2,2.5-.5-.41.91-1.13,1-1.5.24-.95-.3-4.38,2-2.5Z"/>
      <path d="M51.13,83.02c-.59.73-3.04-2.71-2-4,.59-.73,3.04,2.71,2,4Z"/>
      <path d="M67.13,171.02c.83.83-1.54,3.57-2,3-.87-1.08.37-4.63,2-3Z"/>
      <path d="M43.13,173.02c.83.83-1.54,3.57-2,3-.87-1.08.37-4.63,2-3Z"/>
      <path d="M32.13,147.02c-1.08.87-4.63-.37-3-2,.83-.83,3.57,1.54,3,2Z"/>
      <path d="M83.13,181.02c.15.15.27,3.45-.5,3-3.01-1.76-.92-4.42.5-3Z"/>
      <path d="M31.13,173.02c-1.37,1.64-1.37-5.64,0-4,.13.15.13,3.85,0,4Z"/>
      <path d="M50.13,162.02c-1.37,1.64-1.37-5.64,0-4,.13.15.13,3.85,0,4Z"/>
      <path d="M95.13,156.02c-.24.19-3.44.24-3-.5,1.64-2.8,3.36.21,3,.5Z"/>
      <path d="M113.13,73.02c.11.11.1,2.88,0,3-.91,1.09-.92-1.32-1-1.5-.19-.43-1.49-1.1-1-1.5.08-.07,1.93-.07,2,0Z"/>
      <path d="M102.13,116.02l-2,2c-.26-2.11-.11-2.26,2-2Z"/>
      <path d="M78.13,28.02c-2.11.26-2.26.11-2-2l2,2Z"/>
      <path d="M10.13,19.02c-1.31,1.57-1.31-4.57,0-3,.1.12.1,2.88,0,3Z"/>
      <path d="M27.13,184.02c-1.31,1.57-1.31-4.57,0-3,.1.12.1,2.88,0,3Z"/>
      <path d="M129.13,179.02l-2,2c-.26-2.11-.11-2.26,2-2Z"/>
      <path d="M62.13,36.02c-1.31,1.57-1.31-4.57,0-3,.1.12.1,2.88,0,3Z"/>
      <path d="M106.13,76.02c-.18.18-2.42.23-2-.5,1.68-2.89,3.03-.53,2,.5Z"/>
      <path d="M77.13,169.02c-1.31,1.57-1.31-4.57,0-3,.1.12.1,2.88,0,3Z"/>
      <path d="M26.13,170.02c-2.31.05-.42-1.55,0-2.5.08-.18.08-2.58,1-1.5.7.82-1.48,2.77-1,4Z"/>
      <path d="M75.13,169.02c.8.67-1.24,1.64-2,1-.8-.67,1.24-1.64,2-1Z"/>
      <path d="M46.13,164.02c-.67.8-1.64-1.24-1-2,.67-.8,1.64,1.24,1,2Z"/>
      <path d="M17.13,26.02c-.67.8-1.64-1.24-1-2,.67-.8,1.64,1.24,1,2Z"/>
      <path d="M31.13,155.02c-.67.8-1.64-1.24-1-2,.67-.8,1.64,1.24,1,2Z"/>
      <path d="M104.13,39.02c-.67.8-1.64-1.24-1-2,.67-.8,1.64,1.24,1,2Z"/>
      <path d="M78.13,175.02c-.67.8-1.64-1.24-1-2,.67-.8,1.64,1.24,1,2Z"/>
      <path d="M34.13,150.02c-.67.8-1.64-1.24-1-2,.67-.8,1.64,1.24,1,2Z"/>
      <path d="M40.13,178.02c-.67.8-1.64-1.24-1-2,.67-.8,1.64,1.24,1,2Z"/>
      <path d="M3.13,62.02c-.67.8-1.64-1.24-1-2,.67-.8,1.64,1.24,1,2Z"/>
      <path d="M111.13,180.02c.8.67-1.24,1.64-2,1-.8-.67,1.24-1.64,2-1Z"/>
      <path d="M56.13,144.02c-.67.8-1.64-1.24-1-2,.67-.8,1.64,1.24,1,2Z"/>
      <path d="M46.13,75.02c.9-1.07.9,1.23,1,1.5.15.43,1,.68,1,1,0,1.43-2.94-1.37-2-2.5Z"/>
      <path d="M102.13,82.02c-.67.8-1.64-1.24-1-2,.67-.8,1.64,1.24,1,2Z"/>
      <path d="M65.13,96.02c.8.67-1.24,1.64-2,1-.8-.67,1.24-1.64,2-1Z"/>
      <path d="M99.13,121.02c.8.67-1.24,1.64-2,1-.8-.67,1.24-1.64,2-1Z"/>
      <path d="M90.13,124.02c-.67.8-1.64-1.24-1-2,.67-.8,1.64,1.24,1,2Z"/>
      <path d="M116.63,112.02c.65,0,.65,1,0,1s-.65-1,0-1Z"/>
      <path d="M120.63,99.02c.65,0,.65,1,0,1s-.65-1,0-1Z"/>
      <path d="M73.63,184.02c.65,0,.65,1,0,1s-.65-1,0-1Z"/>
      <path d="M122.13,119.02c.13.13,2.55-.12,3,1.5.36,1.3-.77,1.44-1,2s.18,1.32,0,1.5c-.13.13-2.55-.12-3,1.5-.56,2.05.48,3.74-2.5,5.5v-4c-1.83,1.02-1.16,2.66-2,4-.74,1.17-1.65,2.15-2.5,3.5-.79,1.24-3.32,2.2-4,1.5-.58-.6.61-3.46,1-4.5s3.65-8.15,4-8.5c.19-.19,1.03.27,1.5,0,1.4-.8,2.75-4.83,5-6,1.05-.05.27,1.78.5,2Z"/>
      <path d="M101.63,78.02c.65,0,.65,1,0,1s-.65-1,0-1Z"/>
      <path d="M133.63,181.02c.65,0,.65,1,0,1s-.65-1,0-1Z"/>
      <path d="M123.63,181.02c.65,0,.65,1,0,1s-.65-1,0-1Z"/>
      <path d="M45.63,73.02c.65,0,.65,1,0,1s-.65-1,0-1Z"/>
      <path d="M104.63,181.02c.65,0,.65,1,0,1s-.65-1,0-1Z"/>
      <path d="M130.63,179.02c.11,0,1.5,1.39,1.5,1.5,0,1.42-2.92-1.5-1.5-1.5Z"/>
      <path d="M114.63,179.02c.65,0,.65,1,0,1s-.65-1,0-1Z"/>
      <path d="M104.63,177.02c.65,0,.65,1,0,1s-.65-1,0-1Z"/>
      <path d="M92.63,145.02c1.42,0-1.5,2.92-1.5,1.5,0-.11,1.39-1.5,1.5-1.5Z"/>
      <path d="M117.63,57.02c.65,0,.65,1,0,1s-.65-1,0-1Z"/>
      <path d="M63.63,177.02c.65,0,.65,1,0,1s-.65-1,0-1Z"/>
      <path d="M25.63,173.02c.65,0,.65,1,0,1s-.65-1,0-1Z"/>
      <path d="M65.63,41.02c.65,0,.65,1,0,1s-.65-1,0-1Z"/>
      <path d="M8.63,158.02c.65,0,.65,1,0,1s-.65-1,0-1Z"/>
      <path d="M35.63,170.02c.11,0,1.5,1.39,1.5,1.5,0,1.42-2.92-1.5-1.5-1.5Z"/>
      <path d="M42.63,167.02c.65,0,.65,1,0,1s-.65-1,0-1Z"/>
      <path d="M34.13,132.02c-1,.81-3.52-1.58-3-2,1-.81,3.52,1.58,3,2Z"/>
      <path d="M30.13,130.02c1.09,1.09-.91,3.09-2,2s.91-3.09,2-2Z"/>
      <path d="M28.13,64.02c.8.67-1.24,1.64-2,1-.8-.67,1.24-1.64,2-1Z"/>
      <path d="M17.13,140.02c.16.16.04,3.66,0,4.5-.08,1.62-.85,2.86-2,1.5.88-1.2-1.41-5.59-1-6,.11-.11,2.89-.11,3,0Z"/>
      <path d="M18.63,132.02c.65,0,.65,1,0,1s-.65-1,0-1Z"/>
    </g>
  </g>
</svg>