<?xml version="1.0" encoding="UTF-8"?>
<svg id="Layer_2" data-name="Layer 2" xmlns="http://www.w3.org/2000/svg" viewBox="0 0 156.09 169.42">
  <g id="Elements">
    <g id="Element">
      <path d="M41.03,1.23c.4.4-.4,6.6,0,7,.21.21,3.83.11,3,3,2.29-.29,4.7,3.11,6.5,4,2.28,1.13.98-3.04,2.5-3.5-.39-2.96,2.95-3.59,2-7,1.5-1.42,4.14-7.22,6.5-3.5.49.77,1.22,3,2,3,.64,0,2.27-3.78,5-3,.52.15,2.24,2.87,2.5,3.5.22.54-.17,1.3,0,1.5.23.27,2.28-1.75,3-1,.25.26-.25,2.75,0,3,.19.19,1.03-.27,1.5,0,1.95,1.11,1.14,2.4,1.5,3.5.15.48,1.36.69,1,2-.12.44-1.36.68-1,2,1.04,3.76,1.53,6.81,1,10-.35,2.1.43,5.05,0,7-.37,1.67-3.22,4.59-4,6-.26.47.19,1.31,0,1.5s-1.03-.27-1.5,0c-.41.23-4.37,5.89-4.5,6.5-.49,2.28-.25,10.31,0,13,.03.36.95.63,1,1,.71,5.72-1.82,7.59,0,14,.87,3.07,2.09,6.14,3,9,1.53,4.8,4.46,9.18,3,14-.59,1.95.83,2.47,1,3,.36,1.1-.45,2.39,1.5,3.5,2.69,1.53.97,1.47,1.5,2,.19.19,1.81-.19,2,0,1.17,1.17-2.23,5.18-2,7l4-6.5c-1.08-3.43,1.04-7.64,2-12,.09-.39.93-.62,1-1,.51-2.79-.88-4.16-1-5-.22-1.53.35-3.73,0-5-.14-.51-3.67-4.47-4-6-.43-1.98-.38-13.86,0-16,.56-3.15,4.54-5.96,5-8,.25-1.1-.29-4.21,0-4.5.2-.2,1.75.18,2.5,0,.39-.09.6-.88,1-1,1.01-.29,5.23,2.51,5.5,3.5.37,1.35-.69,3.08,1,4l1,5.5,3-3.5c-.69-2.1.67-3.08,1-4,.46-1.26,1.33-4.16,2.5-4.5.63-.18,1.41.19,2,0,.41-.13.63-.92,1-1,3.91-.8,4.21.68,3.5,4.5-.07.37-.88.59-1,1-.69,2.28,1.08,2.65,2,4,.16.24-.15.79,0,1,.68.93,4,3.64,4,4,0,.22-1.59,1.45-1,4,.69,2.98-.37,3.71,0,5,.81,2.8-.78,1.17,0,4,.6,2.16-3.45,7.98-4,10-.44,1.6.79,3.03-1.5,4.5-.25.16-.79-.15-1,0-.9.63-2.43,2.84-3,3-2.62.72-6.01,1.12-9,2-.37.11-5.05,4.81-5.5,5.5-.15.22.16.75,0,1-2.59,4.21-5.25,7.33,1.5,4.5,5.99-4.53,14.62-4.6,22-7,1.51-.49,2.71-.79,4-1,2.91-.48,6.92,1.06,9-1,.52,1.28,2.4.9,2.5,1,.92.96-1.57,4.42-1,5,1.03,1.05,3.32-.97,3.5-1,3.49-.5,5.28-.07,9-1,2.29-.57,4.96-.54,7-1,.38-.09.6-.89,1-1,.79-.22,3.88,1.53,4.5,2.5.28.44.71,2.49,1,3,.6,1.03,2.4,1.54,2,3-.05.17-2.33,2.45-2.5,2.5-.72.21-2.29-.21-2.5,0-.19.19.27,1.03,0,1.5-1.14,2-8.97,2.8-11.5,3.5-.61.17-3.27,3.59-5,4-.93.22-3.25-.25-3.5,0-.22.22.23,1.8,0,2.5-.17.51-2.02,3.36-2.5,3.5-1.99.57-2.71-.95-3-1-1.8-.32-4.31.38-6,0-.38-.09-.6-.89-1-1-.33-.09-2.65.79-3,1-2.69,1.62-3.87,6.14-8,5-.75-.21-1.46-2.42-3-2-2.96.82-3.77-.67-6-1-3.2-.48-5.16-.04-7.5,2,.86-3.91-3.86-.09-3-4-1.1-.08-1.86,1.82-2.5,2-.89.26-3.03-.19-3.5,1.5-1.01,3.66,1.8,3.99,3,6,1.27,2.14,2.63,8.17,2,11-.37,1.67-.63,5.71,0,8,.15.55,1.84,1.44,2,2,.81,2.83-4.32,5.69-6,8-.17.24-1.95,2.82-2,3-.38,1.38.89,4.5-1.5,3.5-.43-.18-.63-.91-1-1-.89-.21-2.16.23-3,0-.52-.14-2.24-2.87-2.5-3.5-.38-.9.57-2.35-2.5-1.5-.41.11-.64.95-1,1-1.16.17-5.08.25-6,0-.7-.19-2.27-2.79-3-3-1.88-.55-2.75,1.29-4.5,1-.3-1.62,2.52-.81,3-2.5.18-.63-.19-1.41,0-2,.15-.48,1.36-.69,1-2-.45-1.62-2.87-1.37-3-1.5-.27-.27.2-3.39,0-4.5-.07-.4-1.78-1.73-1-3.5-1.79-.39-.71,1.7-1,2-.14.14-2.93.27-3.5,2-2.77-.43-5.15,1.79-8,1-.55-.15-1.44-1.83-2-2-.72-.21-2.29.21-2.5,0-.19-.19.27-1.03,0-1.5-1.25-2.19-3.81-1.31-4-1.5-.46-.46,1.05-6.27-1.5-7-.63-.18-1.41.19-2,0-.41-.13-.61-.89-1-1-1.31-.36-1.52.85-2,1-2.75.89-6.11,1.28-9,2-2.23.56-4.4.56-6,1-.55.15-1.61,2-2,2-.18,0-2.45-2.33-2.5-2.5-.47-1.65,1.07-3.65,2.5-4.5,1.14-.68,2.88-.68,4-1,.51-.15,7.36-6.99,7.5-7.5.36-1.31-1-1.75-1-2,0-.32.85-.57,1-1,.2-.56-.17-1.32,0-1.5.09-.1,1.99.28,2.5-1l5,3c2.63-.37,2.82.59,3.5,2.5.32.89,1.87.63,2,.5.23-.23-.55-2.05.5-2,3,3.7,4.53-3.97,3.5-5-.19-.19-1.03.27-1.5,0-1.84-1.04-1.37-2.87-1.5-3-.19-.19-4.58-.14-5.5,0-.37.06-.6.91-1,1-3.39.79-7.86-2.58-11-4-3.34-1.51-3.02-2.17-5-3-3.3-1.39-7.03-4.76-10-6-.54-.23-1.33.17-1.5,0-.19-.19.26-1.03,0-1.5-1.05-1.89-3.3-1.73-3-5,.34-3.65,4.06-2.63,6.5-1.5.39.18,6.34,2.86,7,3,1.44.31,3.68-.36,5,0,1.72.47-.27,1.96,4,1,1.35-.3,8.51.59,10,1,.55.15,1.45,1.85,2,2,3.6.99,9.91,2.04,13,4,1.5.95,1.79,3.64,3,4,.72.21,2.29-.21,2.5,0,.19.19-.26,1.03,0,1.5.69,1.25,3.93,3.6,5,2.5.3-.31.12-7.15,0-8.5-.15-1.74-.63-7.29-1-9-.08-.38-1.87-2.54-2-3-.38-1.33,1.38-1.67,1-3-.44-1.56-1.62-3.57-2-5-.99-3.72-2.04-7.46-3-11-.2-.74.21-2.29,0-2.5s-1.76.2-2.5,0c-.4-.11-.61-.91-1-1-4.99-1.17-4.61,4.34-7,5-.52.14-5.32-2.86-5.5-3.5s.19-1.41,0-2c-.13-.41-.93-.63-1-1-.32-1.8.32-4.2,0-6-.07-.37-.87-.59-1-1-.29-.95,1.75-9.34,2-11,.74-4.95-2-6.61-2-7s1.85-1.45,2-2c.19-.68-1.65-4.25-2.5-4.5-.72-.21-2.29.21-2.5,0-1.06-1.06-5.73-7.68-7-9.5-1.5-2.15-1.95-2.63-3.5-3.5-.25-.14-3.42-4.23-3.5-4.5-.59-2.16.93-5.27-1-7.5l3,1c-.49-1.64.65-1.78,1-2.5.83-1.69-1.57-1.97-2-1.5-.31.34.82,2.36-1,2,.19-1.4-.28-3.23,0-4.5.08-.36.8-.57,1-1,.14-.31-.13-.78,0-1,1.02-1.72,4.01-3.92,5.5-1.5.74,1.21.29,1.79.5,2.5.58,1.97,5.91,3.53,7,2.5.1-.09-.28-1.99,1-2.5-2.3-1.79-.55-3.49,0-5,.45-1.25,1.34-4.18,2.5-4.5.81-.22,2.05.16,3,0,.38-.07.67-1,1-1s.61.92,1,1c.77.16,2.31-.19,2.5,0ZM60.03,21.23c-2.37-2.45-6.43,5.09-5,7.5,1.5.96.61,3.89,2.5,4.5,1.42.46,2.32-1.21,2.5-2.5s.33-9.16,0-9.5ZM43.53,23.23c-.65,0-.65,1,0,1s.65-1,0-1ZM40.03,31.23c-.21-.21-1.76.2-2.5,0-.4-.11-.62-.92-1-1-3.81-.78-4.34.72-3.5,4.5.18.82,2.49,2.87,2,4.5,2.06-.05,1.86-2.86,2-3,.25-.25,2.75.25,3,0,.18-.18.18-4.82,0-5ZM62.03,51.23c-.55-1.52,1-2.29,1-2.5,0-.33-.93-.62-1-1-.16-.95.22-2.19,0-3-.37-1.35-3.51-2.52-4.5-3.5l-.5,8.5c1.28.52.9,2.4,1,2.5.73.7,2.82-1.48,4-1ZM43.53,42.23c-.98.33-3.32,2.99-1.5,3.5-.61,1.56,1.31,7.19,3.5,6.5,3.36-1.66.81-10.94-2-10ZM49.53,56.23c-.65,0-.65,1,0,1s.65-1,0-1ZM63.03,61.23l-1,5.5c-.8,1.81-3.57,4.43-4,6-.23.84.21,2.11,0,3-.16.69-1.58,1.52-1,4,.09.39.91.61,1,1,.21.88-.22,2.14,0,3,.1.39.91.61,1,1,.21.89-.23,2.16,0,3,.26.96,4.64,4.14,5.5,5.5,1.52-2.17,5.46-2.32,4.5-5.5-.12-.39-.87-.6-1-1-2.31-7.08-3.69-14.59-4-22-.05-1.24.76-3.73-1-3.5ZM92.03,72.23c-1.43-1.43-5.9,1.99-2.5,3,3.02.9,3.28-2.22,2.5-3ZM56.53,123.23c-.65,0-.65,1,0,1s.65-1,0-1Z"/>
    </g>
  </g>
</svg>