<?xml version="1.0" encoding="UTF-8"?>
<svg id="Layer_2" data-name="Layer 2" xmlns="http://www.w3.org/2000/svg" viewBox="0 0 114.08 184.4">
  <g id="Layer_1-2" data-name="Layer 1">
    <g id="Element">
      <path d="M69,164.71c0-.15,1.92-1.85-.5-2.5-.75-.2-5.27-.2-6,0s-2.28,2.79-3,3c-1.22.36-3.78-2.36-5-2-.51.15-1.31,1.6-2,2-5.07,2.94-10.56,2.1-16,3-.38.06-.67,1-1,1s-.62-.93-1-1c-.94-.16-2.13.2-3,0-.39-.09-.6-.89-1-1-2.32-.63-4.35-.49-7-2-1-.57-4.4-3.83-5-4-5.75-1.65-12.79-3.91-16.5-9.5-.14-.22.16-.74,0-1C1.62,150.07,0,147.89,0,147.71c0-.3.79-.56,1-1,.31-.66.68-2.45,1-3,.75-1.31,2.37-2.5,3-4,.23-.54-.18-1.32,0-1.5.12-.12,2.88-.15,3.5,0,.39.09.6.89,1,1,2.34.65,3.8-4.67,5-5,2.43-.67,7.14.47,10,0,.38-.06.67-1,1-1s.62.94,1,1c3.12.52,8.35-.73,11,0,1.82.5,5.12,7.28,7.5,8.5.82,4.68,3.57,6.01,5,11,.6,2.1,5.44,4.5,4-.5,1.98-.33.6,2.62,1,3,.11.1,2.89.1,3,0,.2-.17-.85-1.33-1-2.5-.1-.77-.17-2.38,0-3,.05-.17,2.32-2.5,2.5-2.5.33,0,.61.93,1,1,3.42.6,4.22.01,3.5-3.5s-2.99-3.56-2-8c.5-2.25-.1-6.81-2.5-7.5-.62-.18-1.38.18-2,0-1.44-.41-2.96-4.19-3.5-5.5-.75-1.82-.76-4.19-2.5-5.5l.5,5.5c1.52,1.54.66,2.94,1,5,.36,2.16-.98,7.82,1.5,8.5,1.49.41,4.6-.2,5.5,2.5.78,2.35-2.6,2.2-3.5,2.5-.4.13-.61.88-1,1-2.78.85-3.78-2.65-5-3-.62-.18-1.38.18-2,0-.31-.09-4.02-3.84-4.5-4.5-.15-.21.16-.76,0-1-.46-.68-1.87-1.53-2-2-.73-2.53-1.21-5.1-1-8-1.66-2.06-.5-3.78-3.5-1.5-1.75,1.33-4.28,4.81-7,4-3.1-.92-2.25-5.75-2.5-6-.29-.29-3.4.25-4.5,0-.12-.03-1.8-.88-2-1-.47-.28-2.22-2.03-2.5-2.5-.68-1.14-.68-2.88-1-4-.39-1.35-6.53-4.61-1-8,1.08-.66,6.24-.18,4-2.5-.09-.1-1.08.11-2.5-1-1.83-1.42-2.65-2.67-3.5-4.5-1.65-3.56-5.5-11.55-6-15-.2-1.35-.37-10.13,0-10.5.27-.27,6,.15,7.5,0,.36-.04.63-.95,1-1,1.35-.17,4.83-.26,6,0,.36.08.57.8,1,1,.31.14.78-.13,1,0,1.81,1.07,3.45,4.08,3.5,6,1.1.08,1.86-1.82,2.5-2,2.44-.7,2.71,1.28,4,2,.78.44,3.36.86,3.5,1,.19.19-.26,1.03,0,1.5.54.98,2.1,2.62,3,4,1.28,1.96,6.75,8.86,7,10,.56,2.49-.54,6.48,0,9,.44,2.04,6.55,9.65,8,12,2.33,3.79,3.82,7.43,6,11,3.86,6.31,4.09,10.73,6,17,.59,1.96-.88,2.55-1,3-.15.55.63,1.99,1,3,.33.9,2.89.61,3,.5.16-.16.13-3.69,0-4.5-.21-1.32-1.64-3.12-1-6,.25-1.13,2.88-3.26,2-5.5.38-.45,3.01,3.08,4,2,.77-.84-1.17-5.25-2.5-6-.47-.26-1.31.19-1.5,0-.41-.41-1.62-6.19-2-7.5-.07-.24-3.26-3.43-3.5-3.5-1.52-.42-2.5,2-3,2-.25,0-3.43-3.26-3.5-3.5-.18-.63.19-1.41,0-2-.13-.41-.93-.63-1-1-.52-2.89,1.21-5.69,0-7l-1-4.5c-3.48-1.28-.77,4.18-3.5,3s-1.8-7.77,1-7c.38.1,2.5,2.03,3.5,1,.33-.34.22-8.5,0-9.5-.4-1.79-.6-3.21-1-5-1.42-6.43,1.85-7.93,3-12,.38-1.33-1.38-1.68-1-3,.13-.47,1.53-1.32,2-2,.17-.24-.15-.8,0-1,2.22-2.94,6.68-4.42,9.5-6.5,2.28-.51,2.78.44,4,1,.31.14.78-.13,1,0,.47.28,3.43,3.26,3.5,3.5.48,1.67.89,4.34,2,6,2.1,3.15,3.84,2.35,3,8-.33,2.23-1.82,3.04-1,6,.21.75-4.26,11.42-5,14-.35,1.23-3.81,2.17-3,5,.13.44,6.04,6.5,6.5,6.5,1.14,0,5-9.09,7-10,4.31-1.24,8.72-3.33,13-6,1.45-.43,2,1.44,3,2,.47.26,1.31-.19,1.5,0s-.26,1.03,0,1.5c.52.93,2.82,2.34,3,3,.35,1.29-.25,3.49,0,5,.07.44.75,3.08,1,4,.12.44,1.86,2.53,2,3,.67,2.29-2.85,5.08-4,7-1.5,2.51-.5,4.68-1,7-.4,1.86-7.52,10.98-9.5,12.5-.55.42-3.42,1.57-4,2-1.99,1.47-5.85,8.13-6.5,10.5s-1.03,4.83-2,7c-.31.69-1.97,3.36-2.5,3.5-3.29.9-4.26-.28-3.5-3.5.45-1.9.57-3.09,1-5,.31-1.4-.21-3.45,0-5-1.53-2.96-3.95.95-5.5.5-.38-.11-1.09-1.5-1.5-1-.14.17-.15,3.81,0,4.5.09.38.89.6,1,1,.36,1.32-.91,1.6-1,2-.18.82-.23,6.27,0,6.5.67.69,3.33-1.69,4-1,.09.09.14,2.03,0,2.5-.15.5-4.34,4.76-5,6,.8,2.76-.7,5.36-1,7-.36,2,.72,6.69-3.5,5.5-2.86-.81-.5-3.31-.5-3.5,0-5.2-.34-10.89,0-16ZM68,101.21c.1-.12.1-2.88,0-3-1.31-1.57-1.31,4.57,0,3ZM69,109.21l1-4.5c1.4-2.38,3.65-.65,5.5-2.5.76-.76-.62-1.9-1-2-1.69-.46-6.11,1.1-6.5,2.5-.28,1.02.16,2.75,0,4-.1.81-2.03,1.59,1,2.5Z"/>
      <path d="M30,34.21c-.19-.19-1.03.26-1.5,0-2.66-1.48-8.48-9.75-9.5-12.5.23-2.17-1.64-3.67-1-6,.46-1.67,4-1.8,5.5-1.5.34.07,1.09,1.5,1.5,1,.36-.43-.28-4.19,0-5.5.15-.7,1.48-3.19,2-5,.19-.68,2.48-2.07,3-3,.26-.47-.19-1.31,0-1.5.82-.82,6.56.96,7,2.5.18.62-.18,1.38,0,2,.16.56,1.85,1.45,2,2,.53,1.91-.29,5.65,0,8,.05.37.93.62,1,1,.72,3.95-1.14,4.52-2,7-1.11,3.2-2.34,7.75-2,11,.16,1.54,1.3,1.95,1,3-.78,2.78-5.56,1.58-7-1-.26-.47.19-1.31,0-1.5Z"/>
      <path d="M65,38.21c-.32.32.29,3.43,0,4.5-.07.25-2.69,3.61-3,4-3.75,4.71-8.77,7.95-12,13-.94,1.47-2.19,1.28-2.5,1.5-.88.62-1.66,2.41-3,2s-1.39-2.77-2.5-3.5c.68-4.12-2.43-7.23-2-11.5,2.68-1.11,2.06,3,3.5,3,.18,0,2.22-2.05,2.5-2.5,1.62-2.56,3.19-6.67,5-9,1.09-1.4,10.72-11.28,11.5-11.5s7.19-.22,8,0c.17.05,2.45,2.32,2.5,2.5.37,1.21-.89,1.8-1.5,2.5-.95,1.1-4.05,4.47-5,5-.47.26-1.31-.19-1.5,0Z"/>
      <path d="M54,92.21l-3-2.5c-2.1-4.07-2.05-8.6-3-13-.07-.34-1.92-2.65-2-3-.32-1.44-.21-4.94,1.5-5.5,2.46-.8,2.26,3.66,3.5,4.5.46,3.88,3.44,8.28,4,12,.41,2.75-.34,4.95-1,7.5Z"/>
      <path d="M40,45.21c-.92,1.1-.94-1.39-1-1.5-.65-1.18-2.59-1.55-2-3.5,1.8.37,4.03,3.77,3,5Z"/>
      <path d="M27.5,171.21c.65,0,.65,1,0,1s-.65-1,0-1Z"/>
    </g>
  </g>
</svg>