<?xml version="1.0" encoding="UTF-8"?>
<svg id="Layer_2" data-name="Layer 2" xmlns="http://www.w3.org/2000/svg" viewBox="0 0 176.5 190.12">
  <g id="Layer_1-2" data-name="Layer 1">
    <g id="Element">
      <path d="M72.13,63.12c-.98.08-2.01-.05-3,0l-1,4c-3.55-2.65-1.39,1.66-2,4.5-.24,1.11-2.9,3.65-3,4-.7,2.46,1.31,2.73,2,4,.14.25-.14.73,0,1,.88,1.67,1.95,3.42,3,5-1.09.71-1.25,3.16-2.5,3.5-1.94.53-4.56-1.31-3.5,2.5.14.51.8,2.49,1,3,1.01,2.52,6,5.37,6,6,0,.33-1,.66-1,1,0,.18,1.55,2.4,2,3-1.59.74-.75,3.25-1,3.5-.77.77-6.46-2.59-5,.5.29.61,1.51,1.29,2,2,.16.24-.15.8,0,1,1.68,2.26,6.84,5.25,6,8-1.81,5.95.38,3.76,1,6,.3,1.09-.3,2.91,0,4,.21.75,2.42,1.46,2,3-.76,2.76.39,1.97,1,4,.56,1.87-1.58,3.16-1,5,.48,1.52,2.92,4.7,3,5,.33,1.21-2.71,3.9-2,7,.09.39,1.75,2.4,2,3,.22.55-.2,1.37,0,2,.15.48,1.36.69,1,2-.52,1.89-4.06.44-3,4,.48,1.63,2.87,1.38,3,1.5.25.23.56,4-1.5,3-.47-.23-2.02-1.91-2.5-2.5-.17-.21.16-.81,0-1-1.67-2-5.51-4.83-6-7-.6-2.69-.36-7.68-1-10-.15-.55-1.84-1.44-2-2-.18-.62.18-1.38,0-2-.63-2.2-4.77-1.27-5-1.5-.19-.19.26-1.03,0-1.5-.94-1.69-2.73-2.38-4-5-.46-.95-1.28-.79-1-3,.22-1.75,4.58.49,5,2,.23.85-.23,2.15,0,3,.26.96,6.5,4.01,7,3.5.82-.84-1.89-3.99-2-4.5-.49-2.23.5-5.77,0-8-.28-1.23-.83-2.96-1-4-.44-2.66.55-6.53,0-9-.08-.35-.8-.57-1-1-.15-.32.13-.8,0-1-1.47-2.3-2.9-1.06-4.5-1.5-.84-.23-3.16-3.77-4-4s-2.15.23-3,0c-.55-.15-1.45-1.85-2-2-1.55-.43-4.22-.49-6-1-.4-.11-1.81-1.75-1.5-2,.17-.14.9.11,1.5,0,.89-.17.6-2.89.5-3-1.03-1.14-3.05,1.88-3.5,2-.62.17-4.34.16-4.5,0-.22-.22.23-1.8,0-2.5-.17-.52-1.88-2.56-2-3-.85-3.14.83-1.95,2.5-3.5,2.17.83,4.78.5,7,1s4.5,4.56,6,5c1.29.38,3.8.58,5,1,.9.32,2.84,2.32,4,2,2.8-.77.53-3.31.5-3.5-.33-2.4-.32-2.83-1-5-.49-1.56,1.92-4.56,1-5.5-1.02-1.03-3.15.91-3.5,1-1.1.29-1.98-1.83-5,0-1,.61-3.55,4-4,4-.18,0-2.4-1.73-3-2-.8-.36-2.35.53-3.5-1.5-.27-.47.19-1.31,0-1.5-.28-.28-6.1-4-6.5-4-.33,0-.67,1-1,1-.3,0-2.84-3.6-3.5-4.5-5.43-7.41-14.17-16.4-22.5-21.5-.47-.29-2.55-.72-3-1-1.95-1.24-2.39-3.55-4-5-.7-.71-.73-2.67-.5-3.5.13-.46,3.18-2.43,3.5-2.5,1.17-.25,9-.28,10,0,1.24.34,1.37,2.31,1.5,2.5.6.85,3.96,3.5,4.5,3.5.91,0,2.86-4.26,2.5-5.5-.16-.56-1.85-1.45-2-2-.2-.73-.18-4.18,0-5,.09-.39,1.53-2.54,2-4,.43-1.33-.8-1.82,2-1.5-.26,2.04.19,3.68,1,5.5,1.61,3.62,4.47,7.44,4,12,1.27.57.48,3.39,2.5,2.5,1.85-.81,1.58-2.33,1-4-.67-1.92-3.39-5.25,0-5,.65-1.34,3.3-.39,2.5-2.5-1.18-3.13-3.34,1.23-5,.5.75-1.83-.84-2.91-1-3.5-.39-1.46.03-3.26-1-5-.56-.94-2.8-2.33-3-3-.77-2.59.07-2.25,1.5-2.5,1.15-.2-.13-2.01,1-2,1.35,1.37,3.1,2.39,2.5,4.5-.12.42-1,.67-1,1,0,.35,3.28,2.5,3.5,2.5.39,0,1.44-1.84,2-2,.62-.18,1.38.18,2,0,.17-.05,2.45-2.33,2.5-2.5.36-1.29.25-9.31,0-11-.09-.63-1.81-4.19-2-5-.31-1.28-.01-4.06,1.5-4.5,1.01-.29,4.36,2.97,4.5,3.5.3,1.08-.25,2.82,0,4,.28,1.31,3.19,8.95,4,11,.77,1.95,3.46,5.21,4,7,.35,1.17-1.2,5.05-2,6-.51,4.45.28,2.82,1.5,3.5,1.83,1.02,1.38,2.89,1.5,3s1.89.39,2-.5c.25-1.98-.77-2.41-1-4-.7-4.91,4.28-8.83,0-12-1.11-4.07-5.03-6.29-4-11l3.5-4.5c2.31,1.5,1.07,2.96,1.5,4.5.13.46,1.93,3.21,2.5,3.5,3.23.29-.57-1.31,1.5-2.5,4-2.31,2.58.88,3,3,.97,4.88,1.58,5.81,0,11-.62,2.05,1.53,3.59,2,5,.23.7-.22,2.28,0,2.5.19.19,1.81-.19,2,0,.44.44-.11,10.36,0,12.5.08,1.58-.41,3.64,1.5,4.5s1.24-1.94,2.5-2.5c.53-2.5-1.24-4.14-1-5,.11-.4.91-.62,1-1,.18-.81.2-4.27,0-5-.14-.5-2.57-2.03-2-2.5.09-.08.92.19,2-.5,1.58-1.02.9-2.93,1-4.5l-2,4c-1.29.05-3.19-3.84-3-4,.24-.2,1.81.19,2,0,.31-.31-.32-3.63,0-4,.13-.16,3.08,1.94,4,1,.1-.11.11-2.89,0-3-.19-.19-1.81.19-2,0-.33-.33.94-3.61-1.5-5-.65-.37-2.06-.01-2.5-2.5-.27-1.51.23-3.44,0-5-.06-.41-1.57-1.51-1-4,.08-.36.81-.57,1-1,.25-.56,1.28-3.39,2-2.5.56.69-.41,10.89,0,13,4.65,1.18,2.43-2.48,3-3s2.68-.23,2,1.5c-.47,1.19-1.79.68.5,2.5.62-.87,2.04-1.68,2.5-2.5.26-.47-.19-1.31,0-1.5.47-.47,4.73,1.49,5,2.5.36,1.32-.88,1.56-1,2-.99,3.58,1.73,2.23,2,2.5.19.19.18,4.84,0,5.5-.23.83-1.93,1.4-2,1.5,1.09-1.09-.91-3.09-2-2s.91,3.09,2,2c-1.52,2.22-.41,6.37-1,8.5-.15.55-1.85,1.45-2,2-.23.85.23,2.15,0,3-.1.38-2.13,3.49-2.5,3.5-.2,0-2.47-3.08-3.5-2-.84.89,1.01,2.37,1,2.5,0,.15-1.84,1.66-1,2.5.52.52,2.79-1.73,2,4,1.88-.16.48-.56,1-1.5.7-1.26,3.06-2.65,4-4,.78-1.12.78-3.52,2.5-4.5.36-.2,2.31.52,1.5-1.5-.25-.63-1.84-1.45-2-2-.55-1.93,2.28-4.77,3.5-6.5,3.04.37,3.96,4.88,3.5,7.5-.07.39-1.78,1.73-1,3.5,1.62-.55,2.06.9,2.5,1,2.17.48,4.42-.56,5.5-2.5.26-.47-.19-1.31,0-1.5s1.03.26,1.5,0c1.69-.94,1.97-2.74,2.5-3.5,2.3-3.29,3.79-4.23,3-9-.27-1.64-.32-1.47,0-4,.12-.97-.1-4.58,1.5-4.5.27.01,2.82,2.46,2.5,3.5-.13.4-.89.61-1,1-.62,2.26,4.02,3.45,5,5,.32.51,1.94,2.82,2,3,.3.98-.83,2.78,1,2.5-.78-1.75.95-3.18,1-3.5.79-5.52-2.65-12.06-2-15,.08-.37,2-2.82,2-3,0-.24-1.92-3.58-2-4-.29-1.64.2-3.76,0-5.5l3,2.5c-.5,3.79.63,1.94,2.5,2.5s1.23,2.9,1.5,3.5c.32.72,1.93,3.31,2.5,3.5,2.3.76,2.21-2.47,2.5-3.5.11-.41,1-.67,1-1s-.94-.62-1-1c-.16-.98-.22-4.2,0-5,.05-.17,2.32-2.5,2.5-2.5.15,0,2.13,1.23,2.5,1.5,4.35,3.2,2.43,4.77,3,9s3.71,1.89,5.5-.5c2.06-.25,3.97,4,3.5,5.5-.12.4-.87.6-1,1-1.97,5.99-.83,11.66-2,17-.09.39-.95.63-1,1-.22,1.5-.18,4.45,0,6s1.28,1.92,1,3.5c3.19.58,1.48-1.12,2-2.5,1.23-3.26.39-4.77,1-7,.15-.55,2-1.61,2-2,0-.5-2.42-1.48-2-3,1.01-3.68.27-5.39,1-9,1.24-6.11,2.54-7.39,1-14-1.17-5.02,5.14-7.23,6-4,1,3.78-3,5.38-3,6,0,.18,2.33,2.45,2.5,2.5,3.41.94,4.04-1.72,5-2,1.92-.55,2.25.65,3,1,.31.14.78-.13,1,0,.83.5,2.61,3,3,3,.47,0,2.32-2.81,3-3,.79-.22,3.88,1.53,4.5,2.5.28.43.73,2.59,1,3,1.68,2.53,3.69,2.66,5,5,1.65,2.96,5.61,3.17,4,9-.19.7-2.81,2.3-3,3-.48,1.75.64,3.5-2,5l-1,5c-1.35,2.05-3.22,1.5-5.5,1.5-1.49.58-2.82,2.34-4,3-.47.26-1.31-.19-1.5,0-.17.17.22.96,0,1.5-.18.43-.93.64-1,1-.21,1.02.13,2.38,0,3.5,1.55.05,4.84,1.88,6,1,.26-.2-.86-2.98,2-2,.19,1.47-.68,2.02-1,3.5-.2.91.23,2.17,0,3-.05.17-2.33,2.45-2.5,2.5-4.64,1.28-3.28-1.78-3.5-2-.17-.17-.96.22-1.5,0-.42-.17-.62-.88-1-1-3.29-1-3.13,2.82-5,4-2.6,1.65-3.52,1.32-6,2-.7.19-2.28,2.79-3,3-2.17.62-4.56,1.16-7,1-1.95,2.4-7.28,7.92-6.5,10.5.44,1.46,2.42,5.63,2,7-.54,1.78-1.61,3.26-1,6,.99,4.42-1.07,2.59-2,6-.55,2-1.78,4.97-2,6-.3,1.4.36,6.14,0,6.5-1.74,1.74-.67-1.97-2,2.5-.14.47-4.03,6-5,8-.19.4.07,1.02,0,1.5l-2-2,2,6.5c.81.55,3.13,3.5,3.5,3.5.33,0,.62-.94,1-1,1.54-.26,5.03-.2,5.5,1.5.64,2.33-.88,3.37-1,4-.19.95.24,3.26,0,3.5-.17.17-.96-.22-1.5,0-.41.17-.61.86-1,1-.88.32-2.85.32-4,1-.94.56-2.34,2.81-3,3-1.32.38-1.68-1.38-3-1-2.26.65-1.1,4.05-1.5,5.5-.14.5-1.62,1.31-2,2-1.51,2.71-1.46.96-2,1.5-.32.32.29,3.43,0,4.5s-5.05,7.65-6,10c-.75,1.86-.87,5.11-2,7-.73,1.23-2.61,3.1-3.5,4.5-2.38-1.61-5.16-2.52-4.5-6,1.35.09,4.73-1.53,5-2.5.36-1.31-.86-1.53-1-2-.48-1.59,1.46-4.56,2-6,.82-2.22,2.66-6.6,2-9-.15-.55-1.85-1.45-2-2-.36-1.31.84-1.52,1-2,.42-1.28.61-3.68,1-5,.18-.63,2.38-2.07,3-3,.25-.37,1.95-3.78,2-4,.38-1.72.23-5.99-1.5-6.5-.72-.21-2.29.21-2.5,0-.19-.19.26-1.03,0-1.5-.71-1.27-2.73-1.6-2-4,.12-.4.89-.61,1-1,.37-1.33-2.59-4.61-3-6-.58-1.98.83-2.47,1-3,.19-.59-.18-1.37,0-2,.23-.82,2.46-2.06,3-1.5.09.1-.11,1.08,1,2.5,1.51,1.94,3.5,3.93,5,6l2,6.5c.98-.31,2.5-1.7,3-2.5,2.85-4.57,1.66-10.15,3-15,.15-.55,1.84-1.44,2-2,1-3.5,1.07-7.6,2-11,.43-1.58,3.67-5.54,4-7,.38-1.69.04-3.62-1.5-4.5-.65-.37-2.06-.01-2.5-2.5-.49-2.77.62-5.27-1-8-.68-1.15-2.62-2.3-3.5-3.5l-1,2c-.61-1.46-2.65-1.73-3-2-1.79-1.37-3.6-3.71-4.5-5.5-.58-1.16-1.44-4.74-2-6-.31-.69-1.97-3.36-2.5-3.5-.61-.17-3.39-.17-4,0-.31.08-4.16,3.95-4.5,4.5-1.42,2.33,0,2.11-2.5,3.5-.48.27-4.5,4.18-4.5,4.5,0,.5,2.42,1.48,2,3-.07.24-3,3.17-3.5,3.5-.42.28-2.45.71-3,1-.69.37-1.49,1.86-2,2-1.33.37-3.67-.37-5,0-.94.26-5.17,6.45-6.5,5-.15-.17-.16-3.8,0-4.5.09-.4,1.36-.68,1-2-2.26-8.21-1.9-13.97,0-22,.08-.32.75-.66,1-2.5ZM74.63,33.12c-.65,0-.65,1,0,1s.65-1,0-1ZM119.13,49.12c.28-.32-.61-2.74,1-3.5-.43-2.63-.6-5.35-1-8-.15-1.02-.84-2.71-1.5-3.5-1.97,1.33-1.81,4.44-1.5,6.5.06.38.95.63,1,1,.23,1.86-.1,4.04,0,6,.08,1.62.83,2.85,2,1.5ZM170.13,38.12c-.82-.82-4,2.05-4,2.5,0,.18,2.32,2.5,2.5,2.5,1.33,0,2.04-4.46,1.5-5ZM71.13,39.12c-.76-.64-2.8.33-2,1,.76.64,2.8-.33,2-1ZM48.13,47.12c.83-.83-1.54-3.57-2-3-.87,1.08.37,4.63,2,3ZM109.13,49.12c.29.36,3.3-1.36.5-3-.74-.44-.69,2.76-.5,3ZM42.13,48.12c-.29-.24-2.53.17-3.5,0-.24-.04-1.5-1.85-1.5-.5,0,.18,2.32,2.5,2.5,2.5.32,0,.57-.85,1-1,.28-.1,2.57-.1,1.5-1ZM142.13,55.12c-1.7.26-1.81,1.88-2.5,3-.56.91-2.56,2.09,0,3s2.86-4.54,2.5-6ZM78.13,71.12l1-8c-3.2,1.39-3.15,3.37-3,6.5.08,1.62.85,2.86,2,1.5ZM90.63,63.12c-1.82.49-1.04,3.59-2.5,4.5-.24,1.16-1.56,3,.5,3.5s6.98-1.69,7.5-3.5c.2-.69-1.4-3.62-2-4-.97-.6-2.51-.77-3.5-.5ZM113.13,68.12c.17-.21-.22-.96,0-1.5.39-.94,2.13-2.45-.5-3.5-3.34-1.33-.65,6.43.5,5ZM25.63,65.12c-.65,0-.65,1,0,1s.65-1,0-1ZM60.13,73.12c-1.09-1.09-3.09.91-2,2s3.09-.91,2-2ZM74.13,79.12c.64-.76-.33-2.8-1-2-.64.76.33,2.8,1,2ZM55.13,86.12c.64-.76-.33-2.8-1-2-.64.76.33,2.8,1,2ZM52.13,87.12c-1.08-.87-4.63.37-3,2,.83.83,3.57-1.54,3-2ZM74.13,144.12c-.18-.18-.96.23-1.5,0s-.7-1.36-2-1c-2.64.73-1.34,4.96,2,4,.86-.25,2.04-2.46,1.5-3ZM115.13,151.12c.83.8,6.59-2.25,5-5-1.1.73-6.46,3.6-5,5ZM105.13,168.12c.64-.76-.33-2.8-1-2-.64.76.33,2.8,1,2Z"/>
      <path d="M91.13,9.12c-.83,2.31,1.65,4.22,2,5.5,1.36,5.02,2.06,9.77,3,15,.07.38.94.63,1,1,.15,1.03.23,4.17,0,5-.15.55-1.82,1.43-2,2-.38,1.22.4,3.01-2,3.5l.5-4c-1.69-1.5.43-3.13.5-3.5.18-.96.36-3.85-.5-4.5-.84.81-2.11,2.53-2.5,3.5-.22.55.2,1.38,0,2-.13.41-.89.61-1,1-.25.91,1.66,2.6,1,5-.2.73-3.72,2.72-4.5,2.5-1.46-.41-1.9-4.27-2.5-5.5,1.85-1.33.65-3.93,1-6,.71-4.23,4.06-9.5,3-13-.6-1.97,1.32-2.85,1-4-.13-.46-1.57-.99-1-3l3-2.5Z"/>
      <path d="M77.63.12c3-1,2.25,4.4,2.5,5.5.28,1.25,2.73,5.17,3,7,.19,1.28.28,5.99,0,7-.08.31-4.2,4.41-4.5,4.5-2.37.72-2.22-2.54-2.5-3.5-.16-.56-2-1.61-2-2,0-.33.94-.62,1-1,.49-2.95-1.41-5.65-1-7,.13-.41.93-.63,1-1,.49-2.76-1.19-8.27,2.5-9.5Z"/>
      <path d="M89.13,174.12c1.25,1.26-2.22,5.37-3.5,6-2.07,1.02-1.39-1.91-1.5-2-.14-.12-2.56.09-3-1.5-.15-.55-.12-3.37,0-3.5.09-.1,1.99.28,2.5-1,.67,1.76,5.29,1.79,5.5,2Z"/>
      <path d="M26.13,22.12c-.73,1.98,2.47,2.87,2,4.5-.35,1.22-3.44,2.09-4,1.5-.27-.28.25-2.59,0-3.5-.12-.46-3.14-2.45-2-3.5.77-.7,2.8,1.48,4,1Z"/>
      <path d="M60.13,21.12c-1.79.39-.71-1.71-1-2-.12-.12-2.54.12-3-1.5-.54-1.89,1.28-2.74,1-4.5,4.42-.05,2.74,4.82,3,8Z"/>
      <path d="M52.13,11.12c.23.23.2,6.41-.5,6-2.87-1.67-1.68-8.18.5-6Z"/>
      <path d="M93.13,42.12c1.09,1.09-.91,3.09-2,2s.91-3.09,2-2Z"/>
      <path d="M102.63,28.12c.65,0,.65,1,0,1s-.65-1,0-1Z"/>
      <path d="M64.63,39.12c.65,0,.65,1,0,1s-.65-1,0-1Z"/>
    </g>
  </g>
</svg>