<?xml version="1.0" encoding="UTF-8"?>
<svg id="Layer_2" data-name="Layer 2" xmlns="http://www.w3.org/2000/svg" viewBox="0 0 190.1 180.2">
  <g id="Elements">
    <g id="Element">
      <path d="M2.07,43.01c-.25.31-1.89-1.11-2-1.5-.36-1.3.77-1.45,1-2,.08-.2.09-2.59,1-1.5.16.19.16,4.81,0,5Z"/>
      <path d="M4.07,36.01c-.74.89-3.81-4.12-1-4-.49,1.25,1.7,3.15,1,4Z"/>
      <path d="M13.07,172.01c1.09,1.09-.91,3.09-2,2s.91-3.09,2-2Z"/>
      <path d="M189.07,72.01c.49.4-.81,1.07-1,1.5-.23.53.17,1.29,0,1.5-1.3,1.55-1.73-5.24,1-3Z"/>
      <path d="M185.07,173.01c1.09,1.09-.91,3.09-2,2s.91-3.09,2-2Z"/>
      <path d="M4.07,29.01c-.67.8-1.64-1.24-1-2,.67-.8,1.64,1.24,1,2Z"/>
      <path d="M156.07,173.01c.8.67-1.24,1.64-2,1-.8-.67,1.24-1.64,2-1Z"/>
      <path d="M147.07,149.01s-.04-.96,0-1c.93-.93.93,1.93,0,1Z"/>
      <path d="M86.07,1.01c.16.16.13,3.65,2.5,3,1.24-.34,1.48-2.83,6-2,.91.17,5.26,2.2,6,2,2.43-.67,4.3-.53,6-1s1.81-2.77,7-2c6.25.93,11.63,1.16,18,0,4.14-.76,11.85,2.15,17,1,3.64-.82,7.11,1.69,11,1s5.22-.67,9,0c1.54.27,7.15-.35,7.5,0,.19.19-.27,1.03,0,1.5,1.25,2.19,3.81,1.31,4,1.5.92.92-1.97,6.33-3,7.5.48.45,1.65,1.92,2,1.5.27-.32-.58-1.87.5-2,.78-.09,3.38-.12,3.5,0,.27.27.18,6.49,0,7.5-.08.43-2,3.76-2,4,0,.85,3,3.75,3,4,0,.91-2.98.48-1,7,.31,1.03-2,10.45-2,12,0,.39,1.84,1.44,2,2,.38,1.32-1.38,1.67-1,3,.13.46,1.92,2.62,2,3,.37,1.71-.43,4.44,0,6,.23.85,2.74,1.47,2,4-1.11,3.8-2.54,1.41-1,7,.34,1.24-2.35,3.77-2,5,.05.17,2.33,2.45,2.5,2.5,1.37.39,1.7.46,3,1,.54.22,1.29-.17,1.5,0,.27.22-1.51,1.73-1,3.5,1.19,4.12-2.48,14.74-4,20-.81,2.79-3.66,7.08-4,9-1.1,6.16.49,18.58-1,24-.15.55-1.85,1.45-2,2-.36,1.32.91,1.6,1,2,.7,3.12-1.1,5.53,3,8-.67,1.67,1.32,2.88,1,4-.05.17-2.32,2.5-2.5,2.5-.17,0-2.67-2.38-1.5.5.95,2.35,0,1.43,0,2,0,.39,1.85,1.45,2,2,.2.72.18,4.19,0,5-.08.35-.8.57-1,1-.15.32.13.8,0,1-.97,1.52-2.36,1.5-4,2-1.31.4-.97-.43-2-.5l2,6c-1.89.38-.31-1.81-1.5-2-.6-.1-1.37.13-1.5,0-.25-.25.25-2.73,0-3-.09-.1-1.99.28-2.5-1-1.38,1.02-3.49,4.42-5,4-.55-.15-1.44-1.84-2-2-.62-.18-1.38.18-2,0-.45-.13-2.5-3.07-2.5-1.5,0,.33,1,.67,1,1,0,.18-2.32,2.5-2.5,2.5-.28,0-3.96-3.63-4.5-3-.26.31.25,2.75,0,3-.19.19-1.81-.19-2,0-.36.36.97,3.99-1.5,3-1.07-.43-1.5-2.75-4-2-.4.12-.6.89-1,1-1.32.38-1.68-1.38-3-1-.38.11-.58.82-1,1-.54.23-1.32-.18-1.5,0-.13.13.24,2.31-1.5,3-2.02.81-1.3-1.14-1.5-1.5-2.12-3.72-3.85.95-5.5.5-2.93-.81-2.38,1.1-6,0-1.96-.59-2.56.88-3,1-1.15.32-3.78-2.86-6,1l.5-4c-4.31-.91-2.57,1.57-3,2-.27.27-3.39-.21-4.5,0-.37.07-.59.88-1,1-1.76.53-6.85-2.65-7.5-2-.19.19.19,1.81,0,2-.33.33-4.25-.28-5.5,0-.38.09-.6.89-1,1-1.64.45-2.76-2.39-4-3-1.69-.83-1.97,1.57-1.5,2,.34.31,2.36-.82,2,1-1.73.79-3.24-.97-3.5-1-4.25-.5-14.3-1.62-18-1-.38.06-.67,1-1,1-.47,0-2.32-2.81-3-3-.84-.23-2.12.22-3,0-.25-.06-2.45-2.03-3.5-1-.69.67,1.68,3.31,1,4-.38.38-2.77.12-3.5-1s-.43-1.93-.5-2c-.23-.23-5.41-.12-6.5,0-5.08.58-9.56.22-15,1-.32.05-1.75,1.78-3.5,1l3-4c-4.03-1.09-3.6,2.6-4,3-.12.12-2.88.14-3.5,0-.38-.09-.6-.88-1-1-1.29-.37-2.09,1.48-2.5,1-.27-.31.17-3.02,0-4-2.68-1.11-2.05,2.99-3.5,3-.22,0-3.16-1.89-3.5-2.5-.26-.47.19-1.31,0-1.5-.21-.21-1.77.2-2.5,0-.44-.12-.68-1.36-2-1-.45.12-2.48,3.14-3.5,2-.32-.36.32-3.63,0-4-.45-.52-1.38,1.66-2,.5.67-.45,2.18-2.5,2.5-2.5s.58.87,1,1c1.2.36,3.5-.66,3.5-1.5,0-1.93-4.81-1.31-5-1.5s.27-1.03,0-1.5c-1.29-2.26-2.98-1.09-4.5-1.5-1.25-.34-1.41-2.79-2.5-3.5-.14-3.51,2.71-.16,3-.5,1.03-1.22-3.06-3.83-2-5,.42-.46,1.15,1.3,2.5,1,.73-.16.43-1.61,2.5,0,.3-3.51-.99-1.7-2.5-1-1.15.53-2.04-.36-1.5-1.5.57-1.2,3-3.75,3-4,0-.33-1-.67-1-1,0-.39,1.85-1.45,2-2,.62-2.25-1.58-4.81-1-8,.75-4.1-.47-4.17,0-7,1.28-7.69.94-14.5,0-22-1.03-8.25,3.5-15.74,5-23,1.21-5.89-2.05-2.48-2.5-2.5-.9-.03-2.08-3.92-3.5-4.5,1.16-2.85-1.76-4.12-2-5-.21-.78-1.11-6.65-1-7,.12-.41.93-.63,1-1,.62-3.42-2.17-8.77-1-13,.12-.45,3.07-2.48,1.5-2.5-.25,0-1.09,1.5-1.5,1-.11-.14-.15-2.95,0-3.5.35-1.27,3.65-1.73,4-3,.29-1.06-.22-2.78,0-4,1.05-5.81,3.06-12.19,4-18,.13-.82.16-4.34,0-4.5-1.08-1.08-6.27,2.67-5-3.5.08-.39.93-.62,1-1,.23-1.21-.29-2.94,0-4,.08-.31,4.18-4.5,4.5-4.5s.62.93,1,1c.95.16,2.19-.22,3,0,.51.14,2.01,2.56,2.5,2,.11-.13-.05-2.43,1.5-3,1.05-.05.27,1.78.5,2,.41.4,10.08.21,11.5,0s6.6-3,7-3c.34,0,.62.94,1,1,1.48.25,3.97.37,5-1v3c1.85-3.14,4.44-1.45,7-2,.34-.07,2.66-1.93,3-2,2.5-.54,3.89-.06,7-1,.45-.14,7.88.76,9,1,1.57.34,2.81,2.73,6,2,2.79-.64,5.6-.39,9-1,.14-.03,1.67-1.83,2.5-1ZM86.57,22.01c-.65,0-.65,1,0,1s.65-1,0-1ZM114.07,22.01c-.11-.11-2.88-.1-3,0-1.09.91,1.32.92,1.5,1,.43.19,1.1,1.49,1.5,1,.07-.08.07-1.93,0-2ZM89.57,23.01c-1.42,0,1.5,2.92,1.5,1.5,0-.11-1.39-1.5-1.5-1.5ZM108.57,23.01c-.65,0-.65,1,0,1s.65-1,0-1ZM93.07,28.01c.82.82,4-2.05,4-2.5,0-1.35-1.24.45-1.5.5-.89.19-4.63-.13-2.5,2ZM114.07,30.01c-.57-.56,1.19-5.07-1-5,.15,1.78-.22,3.76,0,5.5.05.37.95.63,1,1,.13.96.19,5.31,0,5.5s-1.79-.19-2,0c-.48.44.87,1.09,1,1.5.47,1.47.07,4.49,3.5,3.5s-1.35-6.8,1.5-8.5c-.72-1.19,1.22-3.31,1-3.5-.42-.36-4.64.35-5,0ZM129.57,25.01c-.65,0-.65,1,0,1s.65-1,0-1ZM93.07,49.51c.67,3.75,0,10.75,0,15,0,1.13,2.57,1.9,3,0s.27-9.78,0-12c-.05-.37-.93-.62-1-1-.22-1.22.24-2.82,0-4-.36-1.73-2.88-5.59-4-8-1.67-3.6-1.95-1.94-4.5-3.5-2.4-1.46-4.1-4.61-5.5-6.5-.86-1.16-2.45-1.58-2-3.5-1.83-.28-.7,1.52-1,2.5-.25.8-2.42,1.46-2,3,.14.5,1.54.86,1,2.5l4,1c.04,2.24,5.07,5.45,7.5,7,1.48.94,1.28,2.19,1.5,2.5.48.67,1.87,1.55,2,2,.18.63-.19,1.41,0,2,.13.41.93.63,1,1ZM100.07,26.01c-.76.94,2.07,4,2.5,4,1.33,0-.3-1.06-.5-1.5-.24-.53-1.27-3.4-2-2.5ZM86.07,29.01l-2-2c-.26,2.11-.11,2.26,2,2ZM106.07,29.01c.64-.76-.33-2.8-1-2-.64.76.33,2.8,1,2ZM73.07,31.01l-6-2,4.5,4c1.7.84,1.96-1.6,1.5-2ZM113.07,57.01c-1.84-.49-3.42-4.11-3-5.5.12-.41.91-.62,1-1,.53-2.26-.45-2.79-1-4-.15-.32.13-.8,0-1-1.6-2.52-5.65-1.9-7-4-.27-.42-.74-2.62-1-3-.8-1.15-6.95-7.36-8-8-1.53-.93-3.33-.37-5-.5.95,2.68,4.67,2.41,6,4.5,1.12,1.75,3.37,4.43,4,6,.43,1.07.63,3.75,1,5,.12.4.88.6,1,1,.24.8-.19,2.08,0,3,.08.39,1.36.68,1,2-1.61,5.83-1.38,9.88-2,16-.16,1.55-1.29,1.93-1,3,.55,2.01,4.44,1.97,5,0,.18-.63-.19-1.41,0-2,.13-.41.93-.63,1-1,.32-1.77-.42-4.47,0-6,.05-.17,2.32-2.5,2.5-2.5.33,0,.61.93,1,1,.96.17,3.25-.23,3.5,0,.82.77-.91,2.24-1,2.5-1.08,3.08-2.06,6.71-3,10-.16.57-3.85,4.45-4,5-.18.66-.19,5.31,0,5.5.16.16,3.89.17,4.5,0,1.77-.49,1.24-2.92,1.5-3.5,1.19-2.61,2.65-3.3,2-7-.02-.13-1.83-1.72-1-2.5.33-.31,3.67.31,4,0,.83-.78-.98-2.37-1-2.5-.37-2.14-.39-6.61,1-8l1-4.5,3,3c.16-.96-.24-3.76,0-4,.19-.19,1.03.26,1.5,0,.6-.34,2.03-2.51,2.5-2,.5.55-1.37,3.85,2,3-.58-.91-1.62-3.39-1-4,.11-.1,2.89-.1,3,0,.5.49-1.1,4.24,1,4,.26-1.64-.39-4.08,0-5.5.09-.33,2.76-2.9,3-4,.17-.78.18-5.29,0-5.5-.15-.18-3.43,1.6-4,2.5-.14.22.15.73,0,1-.4.73-2.03,3.49-2.5,3.5-1.51.03-1.2-3.49-2-4-1.87.98-3.4,5.54-5,6-.62.18-1.38-.18-2,0-1.61.46-2.6,3.5-3,5l.5,3ZM104.57,30.01c-.65,0-.65,1,0,1s.65-1,0-1ZM127.07,30.01c-.22-.18-4.44-.25-4,.5,1.9,3.25,4.51-.09,4-.5ZM146.57,30.01c-.65,0-.65,1,0,1s.65-1,0-1ZM150.57,30.01c-1.42,0,1.5,2.92,1.5,1.5,0-.11-1.39-1.5-1.5-1.5ZM135.07,32.01c-.14-.12-2.77-.6-3.5-1-5.13,2.66-.13,6.72,1.5,5,.19-.2-.26-1.03,0-1.5.32-.58,2.53-2.07,2-2.5ZM57.57,33.01c-.65,0-.65,1,0,1s.65-1,0-1ZM137.07,35.01c.64-.76-.33-2.8-1-2-.64.76.33,2.8,1,2ZM61.57,34.01c-.65,0-.65,1,0,1s.65-1,0-1ZM68.07,37.01c.11-.11.1-2.88,0-3-.91-1.09-.92,1.32-1,1.5-.19.43-1.49,1.1-1,1.5.08.07,1.93.07,2,0ZM148.57,34.01c-.65,0-.65,1,0,1s.65-1,0-1ZM139.07,36.01c3.05,3.2-2.46,4.64-3,6.5-.19.66.23,1.49,0,2-.52,1.16-1.9,2.52-2.5,3.5-1.05,1.72.09,4.06,1,4,.24-.02,2.87-2.47,2.5-3.5,1.16-3.86,4.05-7.61,5-11,1.01-3.63-.71-1.86-3-1.5ZM63.57,36.01c-1.42,0,1.5,2.92,1.5,1.5,0-.11-1.39-1.5-1.5-1.5ZM154.07,46.01c-1.02-1.78,2-5.02,2-5.5,0-.18-2.33-2.45-2.5-2.5-1.06-.29-2.78.21-4,0-.13-.02-1.72-1.83-2.5-1-.34.36.27,4.23,0,5.5-.37,1.7-3.24,4.64-4,6-.26.47.19,1.31,0,1.5s-1.03-.26-1.5,0c-2.81,1.57-3.2,4.54-4.5,6.5-.65.99-3.98,3.57-4,4-.03.8,2.28,1.87,3.5,1.5.48-.14,1.32-1.53,2-2,3.54-2.41,6.42-5.71,10-8,1.92-1.23,1.56-2.89,1.5-5l4-1ZM53.57,38.01c-.65,0-.65,1,0,1s.65-1,0-1ZM73.07,43.01c-.09-1.06-4.14-5.03-5-4-.1.12-.39,2.88.5,3,1.75.23,2.86.75,4.5,1ZM57.07,46.01c.28-.29-.53-2.38.5-3l-2-3-.5,5-3-.5,2.5,2.5c.52-1.28,2.4-.9,2.5-1ZM161.07,45.01c.64-.76-.33-2.8-1-2-.64.76.33,2.8,1,2ZM49.07,52.01l-2.5-6c-3.96,1.94,2.26,6.28,2.5,6ZM43.57,49.01c-.65,0-.65,1,0,1s.65-1,0-1ZM75.07,49.01c-.12-.09-2.89-.11-3,0-.17.17.2.94,0,1.5-.14.38-1.85,1.5-.5,1.5.3,0,.56-.79,1-1,.53-.24,3.4-1.27,2.5-2ZM82.07,50.01l-4.5-1c-1.84,1.3-1.62,3.76-2.5,5.5-1.58,3.15,0,2.32,0,3,0,.32-.84.57-1,1-.2.56.17,1.33,0,1.5-.3.3-3.66-.31-4,0-.62.57.63,2.51,1.5,3,.47.26,1.31-.19,1.5,0s-.43,5,1.5,5,1.31-4.81,1.5-5c.21-.21,1.78.21,2.5,0,2.37-.7,1.11-4.69,1.5-6.5.07-.34,1.92-2.64,2-3,.14-.63.12-3.38,0-3.5ZM88.07,50.01c-3.26-.3-2.48,1.89-3,3.5-.13.41-.92.62-1,1-.52,2.33.37,5.95,0,8.5l3-2.5c-1.77-2.52.66-3.44,1-5s-.23-3.8,0-5.5ZM165.57,50.01c-.65,0-.65,1,0,1s.65-1,0-1ZM2.57,52.01c-.65,0-.65,1,0,1s.65-1,0-1ZM71.07,53.01c-1.24-1.24-5.7,2.45-6,3.5-.36,1.25,1.52,1.87,1,3.5,1.56-.55,6.56-5.44,5-7ZM134.07,55.01c.64-.76-.33-2.8-1-2-.64.76.33,2.8,1,2ZM160.07,57.01c.42-1.03-.95-3.01-1.5-3-.33,0-.59.89-1,1-.65.17-1.45-.21-2,0-1.2.46-3.72,2.92-4,3-4.52,1.24-6.12,2.36-10,5-.24.16-.79-.15-1,0-.87.63-2.17,1.95-2.5,3,1.85.87,4.7-1.23,5.5-1,.4.11.62.91,1,1,2.32.53,2.85-.52,4-1,.54-.22,1.33.17,1.5,0,.19-.19-.26-1.03,0-1.5,1.04-1.86,3.3-2.68,4.5-3.5,1.61-1.1,3.55-2.9,5.5-3ZM166.07,54.01c-3.18-.57-1.49,1.07-2,2.5-.26.73-10.46,9.08-11.5,9.5-.65.26-4.2.7-4.5,1-.19.19.26,1.03,0,1.5-1.07,1.92-3.35,3-5.5,2.5-.4-.09-.63-.95-1-1-1.18-.18-3.86-.2-5,0-.35.06-.57.82-1,1-.54.22-1.33-.17-1.5,0-.19.19.26,1.03,0,1.5-.38.69-1.85,1.48-2,2-.92,3.13-1.35,6.05-2,9-.23,1.06-1.47,3.02-1,3.5.72.74,3.24-.32,4-1.5.7-1.09,1.38-3.66,2-5,1.43-3.07,1.2-1.77,2.5-2.5.69-.38,1.3-1.59,2-2,4.56-2.67,10.52-5.02,15-8,2.3-1.53,6.91-6.51,9-7,.93-.22,3.24.25,3.5,0,.76-.76-1.82-5.32-1-7ZM42.07,57.01c.64-.76-.33-2.8-1-2-.64.76.33,2.8,1,2ZM172.07,57.01c-.22-.18-4.44-.25-4,.5,1.9,3.25,4.51-.09,4-.5ZM8.07,62.01c.19-.24.24-3.44-.5-3-2.8,1.64.21,3.36.5,3ZM175.57,59.01c-1.42,0,1.5,2.92,1.5,1.5,0-.11-1.39-1.5-1.5-1.5ZM131.07,60.01c-1.12-1.22-3.69,2.55-4.5,3-.47.26-1.28-.18-1.5,0-.25.2,2.9,4.37,2,6l4-4.5c-.2-1.04.29-4.18,0-4.5ZM54.07,66.01c-.19-.19-1.03.26-1.5,0-1.4-.79-1.47-2.77-3-4-3.42-2.75-1.87.16-3,2-1.64,2.67-4.31,1.81-4.5,2-.11.11-.1,2.89,0,3,1.06,1.09,3.32-1.01,3.5-1,.3.02,4.71,2,5,2s.95-1.16,1.5-1.5c1.17-.73,1.55,1.02,2,.5.1-.11.11-2.89,0-3ZM122.07,72.01c-.38-.46.27-5.16,0-6.5,2.03-.96.57-4.56-.5-4.5-1.46.08-1.94,5.76-3.5,6.5.11,2.4-.69,5.2-2,7l-1,4.5c1.17-.59,3.44-2.5,4-3.5.35-.62-.65-2.44,2.5-1.5.9.27,1.95,3.04,4.5,2,.3-1.8,2.18-5.21-.5-6-1.49-.44-2.98,2.62-3.5,2ZM69.07,63.01c-.17-.17-.96.22-1.5,0-.43-.18-.64-.93-1-1-.66-.14-3.38-.12-3.5,0-.11.11-.1,2.89,0,3,.92.94,3.87-1.16,4-1,.31.36-.25,3.37,0,4.5.14.66,2.38,3.99,3,5v3.5c-2.4-.49-1.62-2.28-2-3.5-.07-.24-3.26-3.43-3.5-3.5-.9-.25-10.1-.25-11,0-2.13.59-1.23,3.89-1.5,5.5-.06.38-1,.67-1,1,0,.63,3.77,2.7,4.5,2.5,2.89-.8,2.45.66,4,1,2.1.47,5.06-1.44,5.5-1,.13.13-.12,2.55,1.5,3,.89.24,4.48-.26,4.5,1.5,0,.41-2.58,1.74.5,1.5l3.5,4-5-.5c-.76-1.02-3.98-.91-3,1,.28.55,4.78,5.02,5.5,5.5s5.27,2.73,6,3c3.29,1.21,6.58.57,10,2,2.64,1.1,1.01-3.51,1.5-4,.17-.17.96.22,1.5,0,.42-.18.62-.89,1-1,.73-.21,2.21.22,2.5,0,.26-.2-.86-2.98,2-2,.18.99-.28,3.66,0,4,.26.32,3.21-3.16,5-2-.75,1.83,1.28,3.45,1,4.5-.04.17-1.82,1.73-1,2.5.21.2,2.19-.12,3,0-.41-2.43,1.66-4.12,1-6.5-.19-.69-7.49-7.84-8.5-9.5-3.02,0-4.06,5.47-6,6-1,.28-8.83.25-10,0-.32-.07-3.37-2.04-3.5-2.5-.57-1.99.95-2.71,1-3,.21-1.15.34-9.16,0-9.5-.3-.3-3.7.3-4,0-.19-.19.19-1.81,0-2s-1.03.27-1.5,0c-.43-.25-4.32-7.72-4.5-8.5-.21-.94.25-3.25,0-3.5ZM177.07,67.01l.5-4c-3.7,5.53-5.25,1-6,1-.32,0-.58.88-1,1-1.88.56-3.16-1.58-5-1-.4.13-.61.89-1,1-.74.2-2.29-.21-2.5,0-.3.3.3,3.7,0,4-.18.18-.97-.23-1.5,0s-.87.59-2,1c-.9.33-.61,2.89-.5,3,.89.9,2.69-.57,3.5-1,4.34-2.3,4.26-1.19,8-2,.88-.19,3.91-2.64,5-3,.7-.23,2.28.22,2.5,0ZM6.07,67.01c-1.08-.87-4.63.37-3,2,.83.83,3.57-1.54,3-2ZM180.57,69.01c-.65,0-.65,1,0,1s.65-1,0-1ZM20.07,71.01c.22.18,1.03-.26,1.5,0,.68.38,3.5,4.11,3.5,2.5,0-.25-3.26-3.4-3.5-3.5-1.3-.52-1.97.61-1.5,1ZM8.57,71.01c-.65,0-.65,1,0,1s.65-1,0-1ZM17.07,73.01l-4-1c-.78,1.75,1.01,3.32,1,3.5-.02.35-1,.67-1,1,0,.32.84.57,1,1,.2.56-.17,1.33,0,1.5.14.14,3.85.13,4,0,.18-.16-.84-1.35-1-2.5-.14-.96.21-3.28,0-3.5ZM178.07,72.01c-3.76.08-7.59-.79-10.5,2l-6.5,1c-.27,1.67,2.42,1.08,3.5,1,.99-.07,2.07.14,3,0,.32-.05,1.75-1.78,3.5-1l-5.5,6c-1.08-.57-1.54.9-2,1-1.15.26-6.84.25-8,0-.34-.07-2.66-1.93-3-2-.91-.2-5.2-.22-6,0-.55.15-1.44,1.84-2,2-.62.18-1.38-.18-2,0-.28.08-2.99,2.87-3.5,3.5-2.16,2.64-4.87,6.33-7,9-.87,1.09-2.09,1.94-3,3l-2,4.5,16.5-17c1.26-.67,2.86-.67,4-1,.4-.12.62-.91,1-1,2.48-.58,3.32.84,4,1,1.75.41,2.88-.35,5,0,2.48.41,13.69-1.42,12.5,2.5-.17.57-2,1.61-2,2,0,1.23,5.39,3.92,6,5,.27.47-.19,1.31,0,1.5.17.17.96-.22,1.5,0,.43.18.65.94,1,1,.76.14,4.33.14,4.5,0,.55-.45-2.51-2.5-2-3,.11-.11,3.01.56,2-1.5-.38-.77-2.57-2-3.5-2.5-.56-.3-2.53-.71-3-1-.85-.53-1.62-1.84-2.5-2.5,2.33-2.33,8.43-.2,5-4-1.29-.66-4.62-6.87-4-7.5.35-.36,4.62.94,5-2ZM182.07,75.01c.1-.12.1-2.88,0-3-1.31-1.57-1.31,4.57,0,3ZM10.07,77.01c.34-.34-1.16-4.2-1.5-4-1.23.72-2.19,3.31-1.5,4,.11.11,2.89.11,3,0ZM103.07,73.01c-1.08-.87-4.63.37-3,2,.83.83,3.57-1.54,3-2ZM156.07,73.01c-1.08-.87-4.63.37-3,2,.83.83,3.57-1.54,3-2ZM45.07,76.01c-.15-.13-3.85-.13-4,0-1.64,1.37,5.64,1.37,4,0ZM46.57,76.01c-.65,0-.65,1,0,1s.65-1,0-1ZM50.07,76.01c-.76-.64-2.8.33-2,1,.76.64,2.8-.33,2-1ZM182.07,76.01c-.76-.64-2.8.33-2,1,.76.64,2.8-.33,2-1ZM65.07,82.01c-.43-.38-2.58.7-3.5,1-1.47.49-4.71,1.79-6,2-1.51.25-3.71-.35-5,0-.24.07-3.17,3-3.5,3.5-.27.41-.73,2.6-1,3-1.07,1.6-5.45,6.41-5,8,.11.4,1.75,1.81,2,1.5s-.61-1.6.5-2c1.38-.49,2.76-.65,4-1,1.46-.42,7.57-8.61,9-9,1.3-.36,3.5.26,5,0,.35-.06.57-.82,1-1,1.14-.48,1.91.94,1.5-2.5-.72-1.2,1.22-3.3,1-3.5ZM181.57,82.01c-1.32,0,2.72,4,3,4,1.32,0-2.72-4-3-4ZM67.57,84.01c-.65,0-.65,1,0,1s.65-1,0-1ZM14.57,85.01c-.65,0-.65,1,0,1s.65-1,0-1ZM19.57,85.01c-1.63,2.5-5.66,2.92-8,1l-1.5,4.5c.8.78.73,1.36,2,1,1.52-.43,2.62-.26,3.5-.5.21-.06,2.64-2.49,3-3,.39-.54,1.54-2.38,1-3ZM90.57,85.01c-.65,0-.65,1,0,1s.65-1,0-1ZM111.07,92.01c-.44-.4,1.95-2.38,2.5-3,1.01-1.13,2.27-2.09,0-3-2.08-.83-1.18,1.88-2.5,2.5.56,1.09-.85,1.49-1,2-1.16,3.81,4.7,3.71,6,6,.27.47-.19,1.31,0,1.5.25.25,2.57-.22,3.5,0,.39.09.6.89,1,1,1.28.35,1.39-.69,2-1,.29-.15.78.13,1,0,.52-.31,4.35-4.15,4.5-4.5.19-.43.25-1.65-.5-1.5-1.01,1.61-6.74,2.74-7.5,2-1.37-1.33,3.5-6.57,3-7-.68-.58-6.05,2.53-7.5,2-.77.73-3.41,4-4.5,3ZM161.07,92.01c.44-.43-.15-1.95-1-2.5-2.82-1.83-5.17-1.63-8.5-1.5l-4.5-1c-.21,3.87,2.77,2.47,4.5,3,.77.23,1.95,1.75,4,1,.29,1.15,3.44.51,2.5,2.5-1.1,2.32-4.1,2.94-6.5,2.5-.38-.07-.63-.95-1-1-1.63-.2-7.76-.34-9,0-.85.23-3.14,3.75-4,4-.62.18-1.38-.18-2,0-.51.15-1.31,1.62-2,2-.47.26-1.31-.19-1.5,0-.17.17.23.96,0,1.5-.29.69-1.7,2.3-2,3-1.92,4.51-1.64,6.13,2.5,2.5,3.91-3.43,5.41-3.59,9-6,3.03-2.03,1.03-3.2,5-2,2.5.76,3.14-1.75,4-2,.62-.18,1.39.18,2,0,.4-.12.6-.88,1-1,.79-.23,5.99,2.6,6.5,3.5.68,1.2-.96,2.01,3.5,1.5.61,1.29,5.52,4,6.5,3,.16-.16.17-3.89,0-4.5-.53-1.92-6.33-4.37-7.5-6.5-1.7.3-2.49-.2-3.5-1.5-.05-1.05,1.76-.27,2-.5ZM166.57,87.01c-.65,0-.65,1,0,1s.65-1,0-1ZM27.07,89.01c-1.09-1.2-5.08,3.74-6,4.5-1.83,4.16-1.66,8.08,2.5,3.5,1.82-.9,4.77-6.6,3.5-8ZM34.57,90.01c-.65,0-.65,1,0,1s.65-1,0-1ZM186.07,93.01c.64-.76-.33-2.8-1-2-.64.76.33,2.8,1,2ZM16.07,95.01c.81-1-1.58-3.52-2-3-.81,1,1.58,3.52,2,3ZM38.07,93.01c-.13-.13-2.76-.58-3.5-1-2.73,2.82-5.77,5.25-7.5,8.5l-1,7.5c1.5-.38,2.26-2.21,3-3.5.29-.51.72-2.58,1-3,1.72-2.59,4.68-4.48,7.5-5.5.9-.33.61-2.89.5-3ZM12.07,93.01c-.93-.76-4.49,1.25-1.5,3,.86.5.27-.97.5-1.5.19-.43,1.48-1.1,1-1.5ZM81.07,102.01c-.21-.17-.96.22-1.5,0-2.29-.95-3.62-1.32-6-2-.56-.16-1.45-1.85-2-2-2.71-.75-5.8-.67-8,0-3.39,1.03-3.84-4.01-5-4-.18,0-2.5,2.32-2.5,2.5,0,.33,1,.67,1,1,0,.39-1.83,1.44-2,2-.92,3.13-1.18,5.36-3,8-.69,1-2.38,1.6-2,3l3,4.5c-.65-4.06,2.9-6.43,2-10.5,1.29-.45,1.82-4.32,2-4.5,1.08-1.05,5,1.67,5,2.5,0,.18-1.94,1.8.5,2.5,1.99.57,2.71-.95,3-1,6.98-1.25,7.99,2.08,12,3,.62.14,3.37.11,3.5,0,.26-.23-1.49-1.71-1-3.5.1-.37,1.5-1.09,1-1.5ZM14.07,97.01c-5.69-.45-3.31.1-4,3.5-.03.13-1.82,1.72-1,2.5.26.25,3.03-.16,4,0,.12-1.03-2-2.07-2-2.5,0-1.44,4.11-.82,3-3.5ZM115.07,106.01l1-5.5c-.8-.77-.73-1.37-2-1s-2.21.99-3,2c-.06,1.76-4.82,8.68-4,9.5s5.34-2.32,6-3.5c.26-.47-.19-1.31,0-1.5s1.81.19,2,0ZM43.07,111.01c1.31,1.44,5.99-4.7,6.5-6,.55-1.41.3-2.6-1-3-2.04-.63-2.87,3.78-4.5,4.5-.09,1.14-1.81,3.61-1,4.5ZM144.07,106.01c.22.26-.21,1.78,0,2.5s2.87,2.5,3.5,3.5l7.5-.5c-1.02-1.75-7.25-9.15-8.5-9.5-.73-.2-4.04,1.57-4.5,2.5-1.01,2.07,1.9,1.39,2,1.5ZM24.07,103.01c-.76-.64-2.8.33-2,1,.76.64,2.8-.33,2-1ZM16.57,104.01c-.11,0-1.5,1.39-1.5,1.5,0,1.42,2.92-1.5,1.5-1.5ZM125.07,104.01c-.85-.9-5.78,3.85-7,4.5-.75,2.74,1.86,5.31,3.5,7.5,1.57-.7,7.83-5.67,6.5-7-.19-.19-1.03.27-1.5,0-2.45-1.39-1.15-4.63-1.5-5ZM19.07,108.01c.1-.12.1-2.88,0-3-1.31-1.57-1.31,4.57,0,3ZM12.57,107.01c-.65,0-.65,1,0,1s.65-1,0-1ZM100.07,108.01c-1.09-1.09-3.09.91-2,2s3.09-.91,2-2ZM25.07,111.01c1.03-1.03-.32-3.39-2-.5-.42.73,1.82.68,2,.5ZM17.07,110.01c-.62.74.52,4,1.5,4,1.35,0-.45-1.24-.5-1.5-.15-.71.06-3.77-1-2.5ZM139.07,110.01c-1.42-1.42-3.51,1.24-.5,3,.77.45.65-2.85.5-3ZM179.57,110.01c-.65,0-.65,1,0,1s.65-1,0-1ZM83.07,120.01c1.52-1.72-2.16-4.44-3-5.5-.16-.2.17-.78,0-1-.62-.82-3.13-3.38-4-2.5-1.14,1.16,2.4,3.06,2,4.5-.22.8-1.97.64.5,2.5,1.65-1.04,4.12,2.43,4.5,2ZM110.07,122.01c-.4-.34-3.4.3-4.5,0-.18-.05-2.76-1.83-3-2-2.74-1.99-5.25-5.79-8-8l-5.5-1c1.44,1.77,3.69,3.47,5.5,5,.88.74,1.01,1.34,2.5,1,.28,1.83-1.52.7-2.5,1-2.5.77-2.2,5.72-2.5,7.5-.06.38-1,.67-1,1,0,.39,1.85,1.45,2,2,.39,1.4-.42,6.02,0,6.5.76.87,3.47-1.67,4-2.5.28-.45.71-2.52,1-3,.56-.93,2.73-2.79,3-4,.14-.62.11-3.37,0-3.5-.4-.46-3.89,1.34-3-2,2.16-.15,3.65,2.26,5.5,3,.48.19,2.57.88,3,1,1.57.42,5.56-.27,3.5-2ZM50.07,115.01c.19-.19-.12-2.19,0-3-1.01.11-3.35,2.68-3,3,.11.1,2.89.11,3,0ZM178.07,112.01c-1.1.19-4.72-.28-5,0-.11.11-.11,2.89,0,3,1.05,1.05,4.71-1.2,5-3ZM11.57,113.01c-.65,0-.65,1,0,1s.65-1,0-1ZM61.07,118.01c-.4-.43,3.71-3.33,1.5-5-1.83,1.02-1.16,2.66-2,4-.54.86-1.83,1.62-2.5,2.5,1.86.83-.78,2.71,0,3.5s5.57-1.28,6-2.5c1.32-3.79-2.66-2.13-3-2.5ZM32.07,123.01c2.27-1.39,4.56-3.6,5.5-6,.61-1.56-.23-3.04-1-3-.66.04-3.17,3.76-3.5,4.5-.63,1.41-1.22,2.9-1,4.5ZM145.07,115.01c-.14-.14-3.86-.14-4,0-1.6,1.6,2.4,5.6,4,4,.14-.14.14-3.86,0-4ZM46.07,117.01c-.17-.15-3.9-.17-4.5,0-1.19.33-3.43,6.81-6.5,6l-1,4c-.24.27-3.01-2.56-3,0,3.52-.72.5,3.19,4.5,2,.61-.18,8.18-7.9,9-9,.34-.46,1.63-2.89,1.5-3ZM8.57,118.01c-.65,0-.65,1,0,1s.65-1,0-1ZM65.07,129.01c.18-.18-.23-.96,0-1.5,1.08-2.57,3.3-3.5,5-6,.58-.85,3.36-2.73.5-3.5-1.97-.53-2.35.52-3.5,1.5-.92.79-3.55,3.2-4,4-.55.99,1.03,2.03-3,1.5-.59,3.88,1.71.56,2,1,1.43,2.2-1.03,1.74-1.5,2-1.21.68-2.19,3.25-1.5,4,1.11,1.22,3.68-2.55,4.5-3,.47-.26,1.31.19,1.5,0ZM117.07,143.01c.16-.16-.48-3.43,1.5-4,2.9-.83,6.23-2.23,9-4,.51-.33,2.21-2.01,2.5-2.5.13-.22-.14-.69,0-1,.2-.43.92-.64,1-1,.59-2.55-1-3.78-1-4,0-1,3.62-1.75,4-3,.52-1.7-4.33-4.84-5.5-4.5-.17.05-2.45,2.33-2.5,2.5-.68,2.49,1.52,4.28,1,6-.12.41-.91.62-1,1-.21.9.23,2.17,0,3-.4,1.46-5.58,3.85-5,6.5l-2-2.5v-2c1.38-1.36,4.86-9.65,4-10.5-.35-.34-4.66.34-5,0-.49-.49,1.33-5.1-2.5-2-1.98,1.61-2.29,4.79-2.5,5-.32.32-3.43-.29-4.5,0-.58.16-8.34,7.92-8.5,8.5-1.05,3.75,1.69,5.13,5,4.5-.55-1.6.93-2.11,1-2.5.37-2.1-.26-3.88,1-6,2.65-4.45,3.27-.84,4.5-.5s5.14-.36,5.5,0c.17.17-.22.96,0,1.5s1.38.72,1,2c-.49,1.64-2.87,1.37-3,1.5-.21.21.2,1.76,0,2.5-.11.4-.94.63-1,1-.13.81-.16,4.34,0,4.5.11.11,2.89.11,3,0ZM169.07,120.01c-1.03-1.03-3.39.32-.5,2,.73.42.68-1.82.5-2ZM29.07,122.01c-1.09-1.09-3.09.91-2,2s3.09-.91,2-2ZM138.57,123.01c-.65,0-.65,1,0,1s.65-1,0-1ZM147.07,134.01c.86-4.11,5.2-11.3-2-11l2,11ZM156.07,133.01c.21-2.91,2.75-3.05,2-6.5l-4-3.5,2,7.5v2.5ZM13.57,124.01c-.65,0-.65,1,0,1s.65-1,0-1ZM80.07,124.01c-.76-.64-2.8.33-2,1,.76.64,2.8-.33,2-1ZM138.07,125.01c-.27.28.21,3.38,0,4.5-.14.76-2.25,4.08-2,5,.11.4.91.62,1,1,.26,1.13-.56,6.6,1.5,6.5.27-.01,2.82-2.46,2.5-3.5-.13-.41-.92-.62-1-1-.56-2.51.94-3.59,1-4,.37-2.53-.97-6.02,1-8-.8-.77-.73-1.37-2-1-.84.25-1.93.43-2,.5ZM78.07,133.01l1-6c-1.92.8-3.71,1.8-5,3.5-1.58,2.09-4.51,5.76-6,8-.28.42-.71,2.38-1,3-.21.44-.99.7-1,1,2.71,1.86,1.2,5.17,4.5,2.5,1.42-1.15,1.32-2.27,1.5-2.5.66-.84,2.86-2.49,3-3,.36-1.32-.91-1.59-1-2-1.25-5.42,3.67-4.17,4-4.5ZM45.07,130.01c-.76-.64-2.8.33-2,1,.76.64,2.8-.33,2-1ZM38.57,131.01c-.65,0-.65,1,0,1s.65-1,0-1ZM155.07,144.01c1.1-.34,2.29-1.61,3-2.5.16-.2-.16-.79,0-1,1.22-1.58,4.03-2.7,2-4l1.5-4.5c-1.83,1.02-1.16,2.66-2,4-.74,1.18-2.59,2.29-3.5,3.5l-1,4.5ZM37.07,136.01l-2-2c-.26,2.11-.11,2.26,2,2ZM154.07,136.01c-.76-.76-4.55.49-4,2.5.05.17,2.32,2.5,2.5,2.5,1.33,0,2.04-4.46,1.5-5ZM80.07,141.01c-2.41-2.41-1.82,2.82-2,3-.34.34-4.66-.34-5,0-.25.25.26,2.69,0,3-.19.23-5.33-.39.5,4,1.42,1.07,4.09,2.16,6,3,.39.17.59.79,1,1,.56.28.67-3.15,2.5-3l-1,4c1.72-1.6,2.34.03,2.5,0,1.5-.25,1.37-2.87,1.5-3,.07-.07.92.2,2-.5,2.49-1.61-.39-3.9,0-6-1.74-2.52-2.1-.5-2.5-.5s-2.58-3-3-3c-.18,0-1.08,2.05-2.5-.5-.26-.47.19-1.31,0-1.5ZM167.57,142.01c-.65,0-.65,1,0,1s.65-1,0-1ZM171.07,147.01c.57.57,6.89.17,6-2.5-.56-1.69-4.97-3.53-6-2.5-.18.18-.18,4.82,0,5ZM141.57,143.01c-.65,0-.65,1,0,1s.65-1,0-1ZM131.07,151.01c1-1.2-.91-3.17-1-3.5-.16-.59.09-3.8-1-2.5-1,1.2.91,3.17,1,3.5.16.59-.09,3.8,1,2.5ZM124.07,147.01c-.39-.36-4.56.63-6-1l1,4c1.94,1.06,6.64-1.48,5-3ZM147.07,148.01c-.07.09-2.1.51,0,1-.79,2.53,3.31,3.82,4,3,.32-.38-.22-3.86,0-5-1.49.55-2.33-1.01-2.5-1-.6.02-1.2,1.59-1.5,2ZM102.07,147.01c-.59-.69-3.46.88-3,2.5l.5,4.5c3.37.35,2.75-6.71,2.5-7ZM112.07,148.01c-1.38-1.49-5.47,3.83-4,6,1.73-.14,4.71-5.23,4-6ZM160.07,153.01c.88-.84-2.52-5.4-3.5-3l-4.5-1c-1.03,3.88,5,.92,5,2.5,0,2.57,1.15,1.34,3,1.5ZM46.57,150.01c-.65,0-.65,1,0,1s.65-1,0-1ZM92.07,152.01c-.76-.64-2.8.33-2,1,.76.64,2.8-.33,2-1ZM129.57,152.01c-.65,0-.65,1,0,1s.65-1,0-1ZM178.07,156.01c.52-.42-2-2.81-3-2-.52.42,2,2.81,3,2ZM87.57,155.01c-.65,0-.65,1,0,1s.65-1,0-1ZM106.07,155.01c-1.03-1.03-3.39.32-.5,2,.73.42.68-1.82.5-2ZM69.07,159.01c.57-.46-2.17-2.83-3-2-1.63,1.63,1.92,2.87,3,2ZM119.07,157.01c-1.94-1.94-5.6,3.74-6.5,4-2.91.83-2.14.98-4,2-.54.3-2.55.71-3,1-1.24.79-2.2,3.33-1.5,4,.16.15,3.7.13,4.5,0,.38-.06.67-1,1-1,.43,0,1.47,2.12,2.5,2-.66-5.1,3.84,1.13,5,0,1.19-4.02-2.23-2.55-3-4.5s1.13-1.29,1.5-1.5c1.21-.67,4.81-4.69,3.5-6ZM123.57,158.01c-.65,0-.65,1,0,1s.65-1,0-1ZM75.57,160.01c-.65,0-.65,1,0,1s.65-1,0-1ZM94.07,161.01c-1.79-.22-3.26.08-5,.5-1,.24-2.28.3-2,1.5l4.5-1,2.5-1ZM150.57,162.01c-.65,0-.65,1,0,1s.65-1,0-1ZM79.07,163.01c-.76-.64-2.8.33-2,1,.76.64,2.8-.33,2-1ZM86.07,163.01c-.12-.1-2.88-.1-3,0-1.57,1.31,4.57,1.31,3,0ZM21.57,165.01c-.65,0-.65,1,0,1s.65-1,0-1ZM19.07,169.01c1.03-1.03-.32-3.39-2-.5-.42.73,1.82.68,2,.5ZM52.57,167.01c-.65,0-.65,1,0,1s.65-1,0-1ZM132.07,167.01c-.76-.64-2.8.33-2,1,.76.64,2.8-.33,2-1ZM122.57,168.01c-.65,0-.65,1,0,1s.65-1,0-1ZM145.07,169.01c-.11-.11-2.89-.11-3,0-2.66,2.66,5.66,2.66,3,0ZM33.57,170.01c-.65,0-.65,1,0,1s.65-1,0-1ZM76.07,170.01c-1.09-1.09-3.09.91-2,2s3.09-.91,2-2ZM139.57,170.01c-1.42,0,1.5,2.92,1.5,1.5,0-.11-1.39-1.5-1.5-1.5ZM25.07,174.01c.42.52,2.81-2,2-3-.42-.52-2.81,2-2,3ZM111.07,173.01c.64-.76-.33-2.8-1-2-.64.76.33,2.8,1,2ZM105.07,174.01c.36-.29-1.36-3.3-3-.5-.44.74,2.76.69,3,.5ZM78.57,175.01c-.65,0-.65,1,0,1s.65-1,0-1Z"/>
      <path d="M65.07,180.01c-.67.8-1.64-1.24-1-2,.67-.8,1.64,1.24,1,2Z"/>
      <path d="M169.57,174.01c.65,0,.65,1,0,1s-.65-1,0-1Z"/>
      <path d="M106.07,49.01c-.29.36-3.3-1.36-.5-3,.74-.44.69,2.76.5,3Z"/>
      <path d="M96.57,128.01c.65,0,.65,1,0,1s-.65-1,0-1Z"/>
      <path d="M15.07,90.01c-.67.8-1.64-1.24-1-2,.67-.8,1.64,1.24,1,2Z"/>
    </g>
  </g>
</svg>