<?xml version="1.0" encoding="UTF-8"?>
<svg id="Layer_2" data-name="Layer 2" xmlns="http://www.w3.org/2000/svg" viewBox="0 0 164.43 165.12">
  <g id="Elements">
    <g id="Element">
      <path d="M97.28,105.02c-.23-.23.55-2.05-.5-2-.57.94-3.51,1.55-3.5,2.5,0,.32,2.8,1.56,2,5-.09.39-.91.61-1,1-.72,3.08,1.82,5.41,3,8,.25.55-.25,1.44,0,2,.18.4.81.59,1,1,.24.51.31,2.16,1.5,2.5.93.27,4.6-.82,3.5,1.5-.74,1.56-2.31,2.87-3,4-.59.97-1.41,3.02-2,4-.68,1.14-1.96,4.01-3.5,3.5-.2-.07-2.45-2.33-2.5-2.5-.71-2.46,3.51-6.21,3-9,1.76-1.21.62-2.26,0-4-.87-2.43-3.27-5.79-4-8-.21-.62.12-1.7,0-2.5-1.16.48-3.29-1.7-4-1-.76.75,1.29,2.48,1,3.5-.18.61-1.92,3.58-2,4-.63,3.5.59,8.44,0,12s-1.17,9.15,0,13c.59,1.95-.95,2.72-1,3-.76,4.28,1.56,7,2,10,.74,5.08-.2,9.31-6,8.5.52-1.63-1.36-2.25-1-3.5.11-.39.88-.6,1-1,1.47-4.75-1.02-12.86,0-19,.35-2.11.76-7.12,1-10,.17-2.03.41-8.48,0-10-.15-.56-1.62-1.76-2.5-1.5-2.06.62-.82,4.66-3.5,5-.24-1.63.38-3.06,1-4.5.88-2.07,2.7-4.92,3-7,.19-1.26.34-9.16,0-9.5-.22-.22-4.4.68-5-1.5-.3-1.09.3-2.91,0-4-.41-1.49-6.72-7.07-8-9-1.66-2.5-1.99-6.1-3-9-.18-.52-1.92-2.64-2-3-.43-1.99.44-5.04,0-7-.73-3.27-.15-7.71-1-12-1.93-9.78-5.39-19.76-4-31,.32-2.6,1.91-5.44,3-8,.61-1.44,1.24-2.87,1-4.5l-3,2.5c-1.72,3.72-2.28,6.86-3,11-.07.38-.95.63-1,1-.29,2.38-.21,6.54,0,9,.41,4.87,2.04,11.18,3,16,1.49,7.47.93,14.7,2,22,.16,1.11,2.35,7.5,3,9,1.33,3.06,2.99,4.5,4,8,.34,1.18,5.94,5.21,7,7,1.21,2.03.76,6.26,1,6.5.19.19,2.88-.71,2,1.5-.59,1.48-2.99,1.85-4.5,1.5-.39-.09-.61-.91-1-1-3.76-.9-7.25-.86-11-3-7.66-4.37-15.16-8.33-22-14-1.23-1.02-9.14-7.75-10-8-8.24-2.37-11.66-7.36-15.5-14.5-.37-.69-1.86-1.49-2-2-1.39-5.06-3.42-9.63-5-15-.2-.67-2.44-2.06-3-3-1.69-2.85-2.83-11.25-2-15,.08-.37.83-.57,1-1,.5-1.25,1.28-4.14,2.5-4.5,1.87-.55,3.06,1.5,5,1,3.33,2.27,7.68,6.68,11,8,1.07.43,3.74.64,5,1,.24.07,3.15,2.98,3.5,3.5.24.36,1.73,3.34,2,4,3.36,8.32,3.82,17.58,6,26l3,2.5c.54-1.96-.83-2.92-1-4.5-.88-8.34-1.46-12.44-4-20-1.86-5.53-3.11-11.82-9.5-14.5-.54-.23-1.32.18-1.5,0-.24-.24.19-2.55,0-3.5-.08-.39-.95-.63-1-1-.24-1.93-.37-8.34,0-10,.3-1.34,3.9-7.01,5-9,.73-1.31,1.48-2.06,2-3,.55-.99-.64-2.44,3.5-1.5.37.09,2.55,1.87,3,2,3.21.94,3.31-2.96,5.5-4.5-.36-2.33.59-1.12,1.5-1.5.41-.17.61-.86,1-1,.57-.21,1.36.18,2,0,.4-.12.62-.91,1-1,2.25-.53,2.79.44,4,1,.76.35,1.6.1,2.5,1.5,1.98,3.06,2.49,4,5,7,.09.11.26,2.15,1.5,2.5s1.87-1.51,3.5-1c-.15-1.79,2.91-4.95,4.5-6,.22-.14.74.16,1,0,.64-.38,2.82-2,3-2,.3,0,.56.79,1,1,.32.15.8-.13,1,0,.68.43,4.11,3.85,4.5,4.5,1.47,2.46.56,4.56,1,7,.75,4.18,5.55,6.37,7,10,.41,1.03.59,3.96,1,5,.78,1.95,3.22,4.05,4,6,.57,1.42,1.75,6.5,2,8,1.24,7.37.07,16.02,2,23,.36,1.31-2.75,4.83-3,6-1.4,6.47,1.99,16.19-2,22l.5,5.5,2.5-4.5c1.18-5.35,3.02-11.87,2-18-.06-.38-1-.67-1-1s.93-.62,1-1c.16-.95-.22-2.19,0-3,.1-.37.81-.57,1-1,.14-.31-.13-.78,0-1,1.35-2.27,6.61-4.63,7-6,2.8-9.75,7.85-20.21,12-30l6-7c-.97-1.47-2.5-.26-3.5.5-2.76,2.11-3.85,5.33-6.5,7.5-2.92,7.17-5.66,15.56-9,23-1.28,2.85-2.2,6.73-5,8.5.32-2.26-.46-5.44,0-7.5.71-3.18-.09-10.9-1-15s-2.79-8.6-4-13c-.09-.32-2.64-2.81-3-4-.53-1.76,1.81-4.92,2-6,.54-3.02.03-5.82,1-9,.29-.94,1.56-4.26,2-5,.32-.53,4.19-4.42,4.5-4.5,2.4-.66,4.09,1.25,5,1,1.21-.33,5.79-6.67,7-7,.8-.22,3.88,1.53,4.5,2.5,1.03,1.61,4.89,5.61,5,6,.29,1.06-.22,2.78,0,4,.19,1.02,1.89,5.11,2,6,.35,2.83-.38,6.21,0,9,.59,4.33,2.21,1.22,3.5.5,3.87-2.18,7.76-3.94,12-5,.4-.1.62-.93,1-1,2.12-.39,5.87.3,6.5,2.5.18.63-.19,1.41,0,2,.13.41.92.63,1,1,.25,1.2-.43,5.5,1.5,5.5.4,0,1.57-2.74,4-2,2.92.89,3.55.59,7,0,.38-.07.67-1,1-1,.3,0,.56.79,1,1,.32.15.8-.13,1,0,2.48,1.58,1.14,4.06,1.5,6.5.06.37.94.63,1,1,.73,4.95-1.38,7.1-3,11-.32.76-.33,1.55-1,3-1.77,3.83-4.95,8.14-7,12-1.89,3.56-7.28,16.08-9.5,17.5-3.22,2.05-7.04,7.37-11,10-4.91,3.26-11.21,4.83-16,8-1.13.75-3.28,3.8-4,4-2.81.77-8.6-.49-12,0-.18.03-2.46,2.05-3.5,1ZM148.28,34.02c-2.02-1.66-1.76.97-2,1.5-.19.43-1.48,1.1-1,1.5,2.02,1.66,1.76-.97,2-1.5.19-.43,1.48-1.1,1-1.5ZM144.28,35.02c-1.49-1.4-4.01,2.06-5.5,2-9.07,9.38-18.92,19.93-22.5,32.5-1.17,4.11-2.67,8.48-4,13-.15.51-5.96,6.58-7,8l-2,6.5c3.67-3.38,7.46-8,10-12.5,2.85-5.05,1.91-5.98,3-11,.25-1.14,3.19-5.45,4-7,6.24-11.89,10.47-19.55,22-28,.81-.59,2.82-2.73,2-3.5ZM68.28,106.02c.69-.6-.89-3.45-2.5-3-2.47-1.05-12.4-7.05-13.5-8.5-3.7-4.88-8.54-9.19-11-15-.67-1.57-.68-2.87-3-2.5-.65,4.56,2.79,7.4,5,10.5,1.04,1.47,3.42,3.96,4,5,.26.47-.19,1.31,0,1.5s1.03-.26,1.5,0c1.22.68,2.67,3,4,4,2.21,1.67,8.59,5.33,11,6,.5.14,2.83,3.45,4.5,2ZM97.28,102.02c1.05,1.07,6.06-3.84,5-5-.35-.38-6.49,3.48-5,5Z"/>
      <path d="M75.28,135.02c-1.02,1.02-4.02-1.98-3-3s4.02,1.98,3,3Z"/>
    </g>
  </g>
</svg>