<?xml version="1.0" encoding="UTF-8"?>
<svg id="Layer_2" data-name="Layer 2" xmlns="http://www.w3.org/2000/svg" viewBox="0 0 148.21 150.23">
  <g id="Elements">
    <g id="Element">
      <path d="M104,52.03c-.18.18-.18,4.82,0,5,.19.19,1.81-.19,2,0,.21.21-.21,1.78,0,2.5.11.37,5.13,5.4,5.5,5.5,2.34.65,4.41-1.01,6.5,2.5,1.04,1.74.61,3.56,1,5,.51,1.86,1.81,1.21,1,4-.22.78,1.76,4.29,2.5,4.5.81.23,4.23.73,4.5,1,.17.17.18,3.21,1,4.5.54.85,2.38,2.16,3,1.5.76-.8-1.3-2.46-1-3.5,2.32-8.07,2.24-13.64,1-22-.69-4.62,2.69-10.05,2-13-.93-3.96-.26-8.32-1-11-.15-.55-1.85-1.45-2-2-.29-1.06-.23-7.69,0-9,.07-.37.87-.59,1-1,1.06-3.32,2.72-6.48,4-10,.14-.39.83-.59,1-1,.22-.54-.17-1.33,0-1.5.12-.12,2.94-.15,3.5,0,2.52.69,1.14,7.06,1.5,9.5.44,3.04,2.72,5.65,2,10-.37,2.2-.38,3.8,0,6,.48,2.8-1.8,5.07-1,8,.09.33,2.68,2.83,3,4,.23.85-.23,2.15,0,3,.42,1.54,4.11,1.88,3,7-.07.34-1.93,2.66-2,3-.89,4.14-.5,6.42-2,11s-1.12,6.94-2,11c-.06.3-1.78,5.28-2,5.5-1.17,1.17-.68-1.44-3,3.5-.97,2.06-2.06,2.94-3,5-2.57,5.63-2.86,13.6-4,20-.28,1.6-2.31,8.99-2,10,.27.9,1.56,1.55,1,4s-5.54,7.47-6,9c-.27.89.21,3.01-1.5,3.5-3.55,1.02-2.19-1.64-2.5-2-.23-.27-1.73,1.52-3.5,1-2.7-.79-.69-2.92-.5-3.5,1.08-3.36,1.24-7.24,2-10,.15-.55,1.85-1.45,2-2,.92-3.34,1.33-7.64,2-11,.52-2.58,1.55-7.46,1-10-.08-.38-1.88-2.56-2-3-.23-.84.21-2.11,0-3-1.64-6.99-5.46-13.99-8-21-2.34-6.45-5.57-8.17-9-13-.13-.18-.52-2.51-1.5-2.5-.48,0-2.31,2.8-3,3-5.33,1.53-3.3,2.8-4.5,4-.19.19-1.03-.26-1.5,0-1.82,1.01-5.19,6.5-7,6-.4-.11-.62-.92-1-1-.92-.19-2.18.23-3,0-.75-.21-1.46-2.42-3-2-.31.08-4.18,3.97-4.5,4.5-.13.22.14.69,0,1-.2.43-.92.64-1,1-.22.96-.22,5.04,0,6,.08.38,1.79,2.43,2,3,.53,1.44.76,6.26,1,6.5.19.19,1.03-.27,1.5,0,2.47,1.41,2.75,6.88,3.5,9.5.16.56,1.83,1.44,2,2,.88,2.96,2.19,3.68,4,7,4.05,7.42,10.31,13.26,15,20,.67.96,2.76,2.88,3,4,.18.84.21,6.25,0,6.5s-5.19-3.67-4,2c-2.91.92-1.68-1.71-2-2-.49-.45-1.11.89-1.5,1-1.33.38-1.67-1.38-3-1-.38.11-1.09,1.5-1.5,1-.25-.3.72-2.74-1.5-4s-1.8-2.84-3.5-5.5c-1.17-1.83-2.83-1.36-3-1.5-.5-.41.93-1.16,1-1.5.39-1.99.23-4.38-1.5-5.5-1.06-.68-4.1-1.05-4.5-2.5-.23-.85.23-2.15,0-3-.17-.61-3.62-3.28-4-5-.25-1.12.31-4.16,0-4.5-.91-1.01-2.87,1.5-3.5,2-1.27,1.01-2.07.92-2.5-.5-1.07-3.51,2.5-2.17,3-4,.17-.61.11-2.25,0-3-.55-3.9-3.51-1.65-5.5.5-3.06.64.18-2.11-1-2-.13.01-1.71,1.83-2.5,1-.19-.2.27-1.03,0-1.5-1.39-2.44-4.67-1.17-5-1.5-.19-.19.19-1.81,0-2-.27-.27-5.19-2.03-6.5-3-2.2-1.63-5.55-7.6-7-8s-4.19.23-6,0c-.37-.05-.64-.96-1-1-1.61-.17-5.61-.3-7,0-1.1.24-3.67,2.91-4,3-3.42.94-4.04-1.72-5-2-3-.86-6.37-2.28-9-3-2.28-.62-7.27-.34-8.5-2.5-.27-.47.19-1.31,0-1.5-.37-.37-1.14.84-3-2.5C1.65,83.9,0,81.71,0,81.53c0-.41,2.9-2.23,3.5-2.5.51-.23,1.34.19,2,0,.24-.07,3.22-3.04,3.5-3.5.13-.22-.14-.7,0-1,.2-.43.9-.64,1-1,1-3.62-2.45-2.07-3-4-.76-2.66,2-3.33,3-5,1.56-2.62,1.28-7.71,4.5-9.5.47-.26,1.31.19,1.5,0,.21-.21-.2-1.76,0-2.5.11-.41.95-.63,1-1,.35-2.34.02-6.78-2.5-7.5-.65-.19-1.46.22-2,0-.64-.26-.85-1.52-2.5-1,.45-1.2-1.7-3.32-1-4,.19-.19,1.81.19,2,0s-.26-1.03,0-1.5c1.24-2.23,3.67-2.51,5.5-3.5.69-.37,1.48-1.85,2-2,3.52-1.01,4.1,3.8,6,5,3.38,2.14,5.59,1.45,9,2s7.48,1.99,11,3c.83.24,2.12,2.92,3.5,3l-1-5.5c-1.99-1.81-.56-5.37-1-8-.51-3.05.54-1.33,1-3,.17-.61-2.02-4.48-1-5.5.17-.17.96.22,1.5,0,.42-.18.62-.89,1-1,.73-.21,2.29.21,2.5,0,.94-.94-1.05-6.04-1-7.5,1.29-.52.89-2.39,1-2.5.84-.84,2.37,1.01,2.5,1,.35-.01.67-1,1-1,.5,0,1.48,2.42,3,2,3.03-.84,2.06-4.91,2.5-6.5.66-2.41,5.45-1.13,7.5-1.5.28-.05,1.05-1.59,3-1,.41.12.62.91,1,1,4.37,1.02,5.22-3.49,7-4,1.47-.42,4.66-1.31,6-1,.39.09.6.89,1,1,1.24.34,3.77-2.35,5-2,1.66.48,4.67,4,5,4s.58-.88,1-1c1.95-.56,3.4,1.26,5,2,.5.23,1.34-.19,2,0,1.57.45,3.16,4.99,4,5,.18,0,2.54-1.86,3-2,1.86-.56,3.07,1.51,5,1,1.35,1.57,3.23,2.92,4.5,4.5,2.29,2.86,4.04,7.02,6,10,.6.92,2.83,2.39,3,3,.2.72.2,5.28,0,6s-2.79,2.28-3,3c-.69,2.42-1.25,4.66-2,7-.38,1.18-.58,3.95-1,5-.25.62-1.99,3.36-2.5,3.5-.63.18-1.41-.19-2,0-.41.13-.63.93-1,1-2.28.41-13.02-.48-13.5,0ZM89,22.03c-1.08-1.02-3.31.97-3.5,1-1.39.25-6.4-.49-5.5,2.5.07.24,3.25,3.5,3.5,3.5.45,0,6.48-6.07,5.5-7ZM105,36.03c-.52-1.63,1.36-2.25,1-3.5s-3.39-3.13-5-2.5c.52,1.63-1.36,2.25-1,3.5s3.39,3.13,5,2.5ZM69,36.03c1.09-1.09-1.14-6.07-2-5-.58.72-.26,7.26,2,5ZM43,55.03c-1.03-1.03-3.39.32-.5,2,.73.42.68-1.82.5-2ZM66,90.03c.16-.16.13-3.69,0-4.5-.23-1.39-1.46-5.11-2-7-.49-1.7-2.85-.35-1-5,2.04-5.13-.72-5.81,0-9,.19-.83,2.38-1.49-.5-3.5-3.58,2.2-7.2,4.64-11.5,4-.31,2.42-2.34,4.39.5,6,2.68,1.53.94,1.87,2.5,4.5.5.83,3,2.61,3,3,0,.59-2.69,2.84,1,5-.23,2.11,6.94,7.6,8,6.5Z"/>
      <path d="M79.5,133.03c.65,0,.65,1,0,1s-.65-1,0-1Z"/>
      <path d="M59,70.03c-1.08.87-4.63-.37-3-2,.83-.83,3.57,1.54,3,2Z"/>
    </g>
  </g>
</svg>