<?xml version="1.0" encoding="UTF-8"?>
<svg id="Layer_2" data-name="Layer 2" xmlns="http://www.w3.org/2000/svg" viewBox="0 0 187.89 185.37">
  <g id="Elements">
    <g id="Element">
      <path d="M39.89,127.24c0-2.61.2-2.61,1-4.5,1.22-2.88-1.33-.5-1.5-.5-.35,0-2.39-3.09-2.5-3.5-.23-.83.19-2.08,0-3-.08-.39-1.36-.68-1-2,.15-.55,2-1.61,2-2,0-.65-3.8-2.54-3-4.5-1.83-.28-.7,1.52-1,2.5-.23.74-2.79,2.28-3,3-.79,2.76-1.33,4.44,0,7l-2,3.5c.58-5.4-2.92-3.29-5.5-4-.48-.13-2.39-3.12-2.5-3.5-.55-1.97.79-4.72-3-4.5l-1-4c-1.6-.37-1.19,2.84-1,3.5.51,1.83,7.65,4.9-1,4.5l-1-4-2,3c-2.11.23-.5-3.49-1-4-.74-.75-2.77,1.27-3,1-.15-.17-.03-3.52,0-4.5.06-1.75-.61-3.79,1-5l-1-3.5c.99,5.47-1.48,3.48-2,4-.35.35.27,5.96,0,7.5-.05.3-1.57,1.02-1,3,.89,3.09,3.66-.91,4-.5.28.34-.62,2.73,1,3.5-.45.6-2,2.82-2,3,0,.39,1.75,1.38,2,2,.88,2.21-1.81,1.31-2,1.5-.13.13.32,2.03-1.5,3-.51.27-.54-4.03-2.5-2-.62.64,3.3,2.34,1,3.5,1.04,1.9-1.27,7.33-3,5.5-.55-.58,2.47-4.01-1-5.5-.05-1.05,1.77-.27,2-.5.92-.92-1.57-4.44-1-5,.19-.19,1.03.26,1.5,0,2.3-1.28,3.61-5.23,1-4-.7.33-.86,1.5-2.5,1l-1-5.5c-1.9-1.3-.2-1.24,0-2,.17-.65-.21-1.46,0-2,.5-1.31,4.36-5.14,3-6.5-.19-.19-1.81.19-2,0-.32-.32-.32-8.68,0-9,.3-.3,3.69.3,4,0,1.46-1.43-3.72-6.27-1-7.5-.21-1.16.3-5.2,0-5.5-.55-.55-.79,1.4-2-1.5-.18-.43-.92-.64-1-1-1.13-5.4.9-2.51,1.5-2.5,1.3.02,1.38-2.88,1.5-3,.6-.6,3.02.91,3,1.5-.02.63-5.35,4.15-4,5.5.19.19,1.81-.19,2,0,.21.21-.2,1.77,0,2.5.11.4.89.6,1,1,.36,1.31-.85,1.53-1,2-.5,1.63.32,5.5,2,3.5.52-.61-1.15-4.49,1.5-6,.11-.06,2.56-.05,1.5-1-.1-.09-1.08.14-2.5-1-.4-.32-1.5-1.39-1.5-1.5,0-.18,1.92-2.64,2-3,.24-1.11-.29-4.2,0-4.5.24-.25,2.83.57,3.5-1l1.5,4c3.22-2.39,1.58.73,2,1,2,1.3,3.07-7,.5-7-.33,0-.67,1-1,1s-.67-1-1-1-.66.99-1,1c-.2,0-2.5-3.09-3.5-2-.23.25.55,2.05-.5,2-2.5-3.76-3.18,0-4,0-.22,0-3.37-2.02-3.5-2.5-.32-1.16-.19-6.5,0-8,.05-.37.92-.61,1-1,.19-.95-.24-3.26,0-3.5s2.75.25,3,0c.32-.32-.29-3.43,0-4.5.44-1.6,3.97-1.68,3-7s-.63-4.98,0-10c.16-1.25.27-5.03,0-6-.5-1.83-4.07-.49-3-4,.25-.83,1.72-2.08,2.5-.5,4.16,3.7,1.8-3.3,2.5-4,.19-.19,2.19.12,3,0,.59-3.88-1.71-.56-2-1-.11-.17-.13-3.84,0-4,.72-.89,1.75,1.94,2,2.5.19.43.92.64,1,1,.17.77.17,3.22,0,4-.08.36-1.71,2.38-2,3-.23.5.19,1.34,0,2-.16.56-1.84,1.44-2,2-.58,2.01,1.78,3.91,2,6l3,3.5-1-5.5c-2.56-1.83-.19-4.82,0-6,.18-1.12-.26-4.24,0-4.5s2.75.25,3,0c.27-.27-.19-3.47,0-4.5-1.13-2.43-2.78-.24-3-.5-.18-.21-.17-4.74,0-5.5.08-.38.88-.6,1-1,.36-1.25-1.52-1.87-1-3.5-5.94-1.28-1.25,4.15-2,5-.29.33-1.77-1.57-3-1,.64-4.52-2.45.61-3,0-.46-.52-.56-4.08,2-3-.61-4.6.82-2.37,3.5-3,.41-.1.68-1.36,2-1,1.67.46-.05,1.51,3,1,2.3-.38,2.54.03,5-1,2.2-.92,1.18,1.42,1.5,2.5.17.56,1.84,1.44,2,2,.28.98-.5,2.18,1,3l-2,5.5,3-4.5c.77-3.43-2.73-6.13-3-9.5,1.27.23,4.12-1.87,5-1,.23.23-.55,2.05.5,2,1.59-.62,1.37-2.87,1.5-3,.3-.3,7.57-.21,8.5,0,2.36.53,4.01,1.33,6,1,1.77-.29,6.13-.23,8,0,1.03.12.34,2.04.5,3l2-2.5c.23-.54-.18-1.32,0-1.5.41-.41,10.16-.22,11.5,0,4.48.74,10.88-.32,17,1,.38.08,2.53,1.86,3,2,2.03.59,4.63-2,5-2,.35,0,2.26,2.5,3,3l-.5-3c2.54-1.05,3.64,1.76,4.5,2,2.83.78,5.41-1.46,7-1,2.87.82,6.99.78,11,2,1.91.58,2.32-.72,3-1,2.18-.91,1.32,1.82,1.5,2,2.13,2.13,1.86-1.86,2-2,.19-.19,4.54-.13,5.5,0,1.73.23,11.1,2.27,12,2,2.39-.73,8.34-.62,11,0s3.78-1,4-1c.36,0,2,2.55,2.5,2,.19-.21-.19-1.81,0-2,.23-.23,2.55.17,3.5,0,.39-.07.67-1,1-1,.37,0,1.63,2,2,2,.33,0,.58-.88,1-1,2-.58,3.48,1.36,5,2,.54.23,1.33-.17,1.5,0,.19.19-.26,1.03,0,1.5.38.69,1.85,1.48,2,2,.21.72-.22,2.24,0,2.5.45.53,2.13-2.7,4.5-2,2.21.65,1.27,4.77,1.5,5,.27.27,2.59-.25,3.5,0,.17.05,2.5,2.32,2.5,2.5,0,.33-.94.62-1,1-.25,1.53.23,3.44,0,5-.81,5.48-1.1,10.1-3,16-.73,2.28-.37,4.59-1,8-.25,1.33-.56,7.06-1,7.5-.19.19-1.81-.19-2,0-.8.8,1.62,3.59,2,4.5,1.21,2.9,1.45.95,2,1.5.21.21-.21,1.78,0,2.5.17.56,1.85,1.45,2,2,.36,1.31-.85,1.52-1,2-.2.63.22,1.45,0,2-.51,1.26-2.7,3.92-3,5-.19.67.11,1.69,0,2.5l2-3c4.42,2.05.33,3.34,0,4.5-.18.62.18,1.38,0,2-.47,1.65-5.24,4.94-2.5,8.5l-.5,3,4-3-1,4.5c1.73,2.85-.8,5.42,0,9,1.3,5.81,1.59,16.91,0,24-.09.4-1.36.68-1,2,.45,1.62,2.87,1.37,3,1.5.82.82-.91,2.23-1,2.5-1.42,4.1-.07,9.87-1,14-1.08,4.83-.28,24.35,1,29,.36,1.32-.92,1.61-1,2-.19.92.24,2.2,0,3-.11.38-.83.58-1,1-.22.54.17,1.33,0,1.5s-.96-.23-1.5,0c-.59.25-2.64,1.92-3,2-.83.18-3.13.16-4,0-.38-.07-.62-.93-1-1-3.13-.58-5.83-.4-8-1-1.29-.36-2.11,1.48-2.5,1-.17-.21.22-.96,0-1.5-.17-.41-.87-.61-1-1-.3-.9.52-2.19-1-3,2.63-2.14,3.39-5.07,3-8.5-2.41.49-1.62,2.28-2,3.5-.18.57-1.85,1.45-2,2-.23.82.19,2.08,0,3-.08.38-.89.6-1,1-.29,1.04,1.67,3.19,2,4.5-3.36.87-1.51-2.51-2-3-2.14-2.14-1.57,2.57-3,2-.52-1.63,1.36-2.25,1-3.5-.94-3.28-.39-1.83,0-4,.15-.86.19-5.3,0-5.5-1.56-1.71-4.94,4.86-6,5.5l4-2.5c.66,3.38-1.72,5.69-3.5,8-1.18.32-2.99-2.03-2,0,.98,1.4-2.06,2.52-2.5,2-.96-1.14,1.63-5.72,3-6.5l-1-5.5-1,6c-4.4.77-.77-4.79-1-5-.14-.13-1.96.3-2.5-1l-2.5,4c-.12-1.8-.06-3.23.5-5,.43-1.34-.33-.9-.5-1.5-.42-1.54,2.58-4.01,4.5-3.5.37.1,1.09,1.5,1.5,1,.22-.26-.2-1.76,0-2.5.11-.4.92-.62,1-1,.14-.66.12-3.38,0-3.5-.11-.11-2.81-.39-3,.5-.22,1.03.6,1.75-1,1.5v-4c-1.79-.4-.72,1.74-1,2-.83.76-2.74-1.29-3-1-.11.12.26,2.18-1.5,3-2.34,1.1-1.23-2.69-1.5-3s-1.89,1.12-2,1.5c-.52,1.88.25,5.65,0,8-.04.36-.94.62-1,1-.38,2.56.35,5.72,1,8,.16.56,1.83,1.43,2,2,1.13,3.77-3.86,3.93-6.5,3.5-.38-.06-.65-.98-1-1-.18-.01-2.38,2.09-3.5,1-.1-.1.28-1.98-1-2.5,1.43-1.09.75-2.89,2-4.5-2.86-.98-1.74,1.8-2,2-.24.18-1.04-.26-1.5,0-2.19,1.24-1.31,3.81-1.5,4-.1.1-1.88.4-2-.5-.13-.97.11-4.48-2-2.5-.12.11.11,2.57-1.5,3-.85.23-2.11-.21-3,0-.76.18-1.39,1.45-4,1-3.23-.55-8.11-1.41-13-1-.54,1.25-4.13,1.31-4.5,1-.29-.24,1.67-2.84,2-3.5.83-1.68-1.56-1.98-2-1.5-.56.61,1.14,5.18-2.5,5-.73-1.6-4.18-2.33-4.5-3.5-.2-.73-.24-7.22,0-7.5s2.23,1.75,3,1c.84-.82-1-2.37-1-2.5,0-.18,1.78-1.77,1-3.5l-4,3c-.22-1.14.32-4.62,0-5-2.08-2.47-1.88,2.16-2,2.5-.15.43-1,.68-1,1,0,.39,1.84,1.44,2,2,.54,1.9-3.53,7.15,1,6.5.33,1.98-2.62.6-3,1-1.9,1.98,2.84,1.91,3,4-1.63.52-2.25-1.36-3.5-1-.38.11-.58.82-1,1-2.18.91-1.32-1.82-1.5-2-.92-.92-2.78.22-2,2l-4,1c.51-1.73-3.02-4.57-3-5.5,0-.27,1.58-2.31,1-5-.07-.34-1.92-2.66-2-3-.29-1.34.99-4.58-1-4.5.26,1.46-.36,7.64,0,8,.27.27,2.99-1.08,2,2.5-.2.71-2.3,1.32,0,3-1.3.54-.87,2.35-1,2.5-.41.45-1.61-1.46-2-1-.18.22.26,1.03,0,1.5-.22.39-2.32,2.5-2.5,2.5-.33,0-.62-.94-1-1-1.47-.24-3.39.09-5,0-2.61-.14-1.35-1-1.5-3-2.1-.24-.5,3.51-1,4-.13.12-2.88.14-3.5,0-.38-.09-.6-.88-1-1-1.03-.3-2.73,1.76-3.5,1s1.27-2.76,1-3c-.11-.1-2.8-.4-3,.5-.07.32.07.68,0,1-.2.9-2.89.6-3,.5-.22-.19,1.72-2.31,1-3.5l1.5.5c.89-.03.6-2.88.5-3-.46-.57-2,1.86-2.5,2-.62.18-1.38-.18-2,0-.96.27-2.85,5.74-4.5,4-1.08-1.14,1.01-3.32,1-3.5,0-.17-1.2-1.8-2-1l-.5.5c-1.49,1.49-1.2.73-2.5-.5,1.57-.67.75-3.26,1-3.5.31-.3,3.7.3,4,0,.11-.11.11-2.89,0-3-.19-.19-1.79.19-2,0-.46-.42,7.07-9.5-.5-9-1.9-1.03-1.15-2.4-1.5-3.5-.13-.41-.89-.61-1-1-.36-1.3.77-1.44,1-2,1.1-2.64-3.47-1-4-1.5-.82-.77.91-2.24,1-2.5.31-.88.78-2.26,1-3,.36-1.22-.73-2.97,1-4l-3,.5c.21-1.37-.32-3.33,0-4.5.09-.32,2.81-3.09,3-3.5l1,1,3,2c-.36-2.17.52-5.62,0-7.5-.38-1.37-1.86-.04-1-3,.38-1.29-1.47-2.07-1-2.5.92-.84,2.37,1.01,2.5,1,.15,0,.61-.85,2.5-1,0,1.39-.03,5.03,2,3,.11-.11.11-2.89,0-3-.07-.07-1.4-.05-2,0ZM62.39,2.24c-.65,0-.65,1,0,1s.65-1,0-1ZM70.39,3.24c-.65,0-.65,1,0,1s.65-1,0-1ZM73.39,3.24c-.65,0-.65,1,0,1s.65-1,0-1ZM92.39,3.24c-.65,0-.65,1,0,1s.65-1,0-1ZM54.89,9.24c.13-.15.13-3.85,0-4-1.37-1.64-1.37,5.64,0,4ZM100.89,8.24c.1-.12.1-2.88,0-3-1.31-1.57-1.31,4.57,0,3ZM103.39,5.24c-.65,0-.65,1,0,1s.65-1,0-1ZM133.89,8.24c.1-.12.1-2.88,0-3-1.31-1.57-1.31,4.57,0,3ZM32.89,8.24c.64-.76-.33-2.8-1-2-.64.76.33,2.8,1,2ZM140.39,6.24c-.65,0-.65,1,0,1s.65-1,0-1ZM63.89,10.24c.29.36,3.3-1.36.5-3-.74-.44-.69,2.76-.5,3ZM76.39,7.24c-.65,0-.65,1,0,1s.65-1,0-1ZM161.89,9.24c.64-.76-.33-2.8-1-2-.64.76.33,2.8,1,2ZM95.89,8.24c-3.34-.67-1.5,1.77-2,3.5-.71,2.43-4.94.09-4,3.5,1.66-1.5,2.06.16,3-.5,1.05-.74,1.24-1.98,3-1.5v-5ZM151.89,10.24c.64-.76-.33-2.8-1-2-.64.76.33,2.8,1,2ZM167.89,11.24c.1-.12.1-2.88,0-3-1.31-1.57-1.31,4.57,0,3ZM23.89,14.24c.19-.19.23-5.43-.5-5-2.93,1.71-1.48,6.98.5,5ZM51.89,11.24c.64-.76-.33-2.8-1-2-.64.76.33,2.8,1,2ZM81.89,11.24c.64-.76-.33-2.8-1-2-.64.76.33,2.8,1,2ZM130.89,16.24c.67-.78-1.68-3.14-1-4.5l-1-2.5c.06,1.82-.09,3.67,0,5.5.08,1.62.84,2.86,2,1.5ZM48.89,13.24c.1-.12.1-2.88,0-3-1.31-1.57-1.31,4.57,0,3ZM75.89,11.24c-.14-.15-2.89.21-4-1-.98,2.86,1.8,1.74,2,2,.34.45-.23,3.84,0,5,3.61-1.18.98-3.3,1-3.5.02-.14,1.83-1.65,1-2.5ZM159.89,10.24c-.76-.64-2.8.33-2,1,.76.64,2.8-.33,2-1ZM162.39,10.24c-.65,0-.65,1,0,1s.65-1,0-1ZM66.89,16.24l1.5-5h-2.5c.53,1.65-.79,1.91-1,2.5-.69,1.91.84,3.83,2,2.5ZM120.89,14.24c.64-.76-.33-2.8-1-2-.64.76.33,2.8,1,2ZM146.89,12.24c-.76-.64-2.8.33-2,1,.76.64,2.8-.33,2-1ZM157.89,18.24c.25.31,1.89-1.11,2-1.5.17-.6.14-4.33,0-4.5-.91-1.09-.92,1.29-1,1.5-.18.43-.92.64-1,1-.13.64-.11,3.36,0,3.5ZM100.89,17.24c.13-.15.13-3.85,0-4-1.37-1.64-1.37,5.64,0,4ZM109.89,13.24c-.07-.07-1.93-.07-2,0-.84.84,1,2.35,1,2.5,0,.25-1.5,1.09-1,1.5,2.25,1.85,2.61-3.39,2-4ZM162.89,15.24c.64-.76-.33-2.8-1-2-.64.76.33,2.8,1,2ZM21.89,20.24c.16-.16.17-3.89,0-4.5-.11-.39-1.75-1.81-2-1.5-.17.21.22.96,0,1.5-.17.42-.88.62-1,1-.7,2.29,2.08,4.42,3,3.5ZM48.39,14.24c-.65,0-.65,1,0,1s.65-1,0-1ZM96.89,16.24c.64-.76-.33-2.8-1-2-.64.76.33,2.8,1,2ZM136.39,14.24c-.65,0-.65,1,0,1s.65-1,0-1ZM155.39,14.24c-.65,0-.65,1,0,1s.65-1,0-1ZM168.89,16.24c.64-.76-.33-2.8-1-2-.64.76.33,2.8,1,2ZM174.89,18.24c.16-.2-.2-.94,0-1.5.15-.43,1-.68,1-1,0-1.48-3-1.48-3,0,0,.32.85.57,1,1,.1.27.1,2.57,1,1.5ZM40.39,15.24c-.65,0-.65,1,0,1s.65-1,0-1ZM54.89,15.24c-1.09-1.09-3.09.91-2,2s3.09-.91,2-2ZM71.89,19.24c.17-.2.26-4.44-.5-4-2.47,1.44-.72,1.86-.5,2.5.1.27.1,2.57,1,1.5ZM124.39,15.24c-.65,0-.65,1,0,1s.65-1,0-1ZM60.39,16.24c-.65,0-.65,1,0,1s.65-1,0-1ZM162.89,19.24c.11-.11.1-2.88,0-3-.91-1.09-.92,1.32-1,1.5-.19.43-1.49,1.1-1,1.5.08.07,1.93.07,2,0ZM146.89,17.24c-1.15-1.37-1.92-.13-2,1.5-.11,2.25.3,4.9,0,7-.03.18-2.05,2.48-1,3.5.11.1,2.89.11,3,0,.42-.42.39-11.54,0-12ZM26.89,20.24c.64-.76-.33-2.8-1-2-.64.76.33,2.8,1,2ZM34.89,21.24c.15-.15.27-3.45-.5-3-3.01,1.76-.92,4.42.5,3ZM116.89,18.24c-.59.7.23,5,1.5,5,1.35,0-.46-1.26-.5-1.5-.16-.92.19-4.92-1-3.5ZM134.89,18.24c-1.03-1.03-3.39.32-.5,2,.73.42.68-1.82.5-2ZM139.89,20.24c.64-.76-.33-2.8-1-2-.64.76.33,2.8,1,2ZM50.89,21.24c1.03-1.03-.32-3.39-2-.5-.42.73,1.82.68,2,.5ZM55.39,19.24c-.65,0-.65,1,0,1s.65-1,0-1ZM104.39,19.24c-.65,0-.65,1,0,1s.65-1,0-1ZM122.89,25.24v-3.5l-.5-2.5c-1.93,1.46-1.61,1.9-1,4,.31,1.08.26,2.26,1.5,2ZM128.39,19.24c-.65,0-.65,1,0,1s.65-1,0-1ZM143.89,19.24c-2.34-2.34-2.48,4.52-2,5,2.34,2.34,2.48-4.52,2-5ZM173.89,19.24c-.76-.64-2.8.33-2,1,.76.64,2.8-.33,2-1ZM65.89,22.24c.64-.76-.33-2.8-1-2-.64.76.33,2.8,1,2ZM70.89,22.24c.64-.76-.33-2.8-1-2-.64.76.33,2.8,1,2ZM84.39,20.24c-.65,0-.65,1,0,1s.65-1,0-1ZM160.89,25.24c.25.31,1.89-1.1,2-1.5.82-2.88-2.33-4.44-3-2-.36,1.3.77,1.45,1,2s-.17,1.29,0,1.5ZM23.89,21.24c-.11-.11-2.89-.11-3,0-.13.13-.16,2.98-1.5,3-.49,0-1.55-2.59-2.5-1.5,2.3,1.06,1.57,4.12,3,5,1.34.83,2.83.35,3,.5,1.1.99-2,3.3-2,3.5,0,.34,2.05,1.82,2.5,2.5l1.5-3.5c.57-2.5-.94-3.58-1-4-.19-1.26.28-5.22,0-5.5ZM46.39,21.24c-.65,0-.65,1,0,1s.65-1,0-1ZM54.39,21.24c-.65,0-.65,1,0,1s.65-1,0-1ZM95.89,23.24c.64-.76-.33-2.8-1-2-.64.76.33,2.8,1,2ZM129.89,25.24c1.05-1.05-1.36-4.8-2-4-.71.88,0,6,2,4ZM154.89,21.24c-.76-.64-2.8.33-2,1,.76.64,2.8-.33,2-1ZM41.39,22.24c-.65,0-.65,1,0,1s.65-1,0-1ZM85.39,22.24c-.65,0-.65,1,0,1s.65-1,0-1ZM112.89,23.24c-2.02.84-4.68-1.22-5.5-1-.17.05-2.45,2.32-2.5,2.5-.7,2.3,2.83,2.36,3,2.5s-2.33,2.56.5,4l.5-7,3,4.5c.5.99,1.92-.73,2-1,.54-1.89-1.28-2.74-1-4.5ZM132.89,24.24c.64-.76-.33-2.8-1-2-.64.76.33,2.8,1,2ZM173.39,22.24c-.65,0-.65,1,0,1s.65-1,0-1ZM31.89,27.24c.28.34,2.36-1.2,2-2.5-.54-1.97-3-1.06-3,0,0,.32.85.57,1,1,.2.56-.16,1.3,0,1.5ZM149.89,25.24c.64-.76-.33-2.8-1-2-.64.76.33,2.8,1,2ZM79.89,29.24c.56-.58-.26-3.65-1.5-4-2.01-.56-2.83.99-3,1-.41.02-2.1-3.57-3.5-.5-1.08,2.36,2.76,1.24,3,1.5.12.13-.09,2.38,1.5,3,.73-1.59,3.26-.76,3.5-1ZM92.39,24.24c-.65,0-.65,1,0,1s.65-1,0-1ZM119.89,29.24c.52-.52-.15-4.99-1.5-5-.2,0-.99,1.55-2.5,1v6c1.13-.01,1.69-1.55,2.5-2,.47-.26,1.31.19,1.5,0ZM165.89,24.24c-2.17-1.78-2.69,3.17-2,4,1.08,1.29.84-1.89,1-2.5.09-.37,1.5-1.09,1-1.5ZM100.89,27.24c1.03-1.03-.32-3.39-2-.5-.42.73,1.82.68,2,.5ZM138.39,25.24c-.65,0-.65,1,0,1s.65-1,0-1ZM170.39,25.24c-.65,0-.65,1,0,1s.65-1,0-1ZM52.89,28.24l-2-2c-.26,2.11-.11,2.26,2,2ZM82.89,28.24c.64-.76-.33-2.8-1-2-.64.76.33,2.8,1,2ZM86.89,26.24c-.07-.07-1.93-.07-2,0-.2.2-.48,4.86,1,4-.45-1.2,1.7-3.32,1-4ZM124.39,26.24c-.65,0-.65,1,0,1s.65-1,0-1ZM49.39,27.24c-.65,0-.65,1,0,1s.65-1,0-1ZM132.39,27.24c-.65,0-.65,1,0,1s.65-1,0-1ZM69.89,30.24c-.54.49-2.54-2.56-3-2-.16.19-.17,4.82,0,5,.14.15,2.89-.21,4,1l1-6c-2.91-.92-1.68,1.71-2,2ZM171.89,28.24c-.76-.64-2.8.33-2,1,.76.64,2.8-.33,2-1ZM38.89,29.24c-2.11-.26-2.26-.11-2,2l2-2ZM103.89,32.24c.64-.76-.33-2.8-1-2-.64.76.33,2.8,1,2ZM120.89,30.24c-2.34-2.34-2.48,4.52-2,5,2.34,2.34,2.48-4.52,2-5ZM125.39,30.24c-.65,0-.65,1,0,1s.65-1,0-1ZM139.39,30.24c-.65,0-.65,1,0,1s.65-1,0-1ZM161.89,32.24c.64-.76-.33-2.8-1-2-.64.76.33,2.8,1,2ZM169.39,30.24c-.65,0-.65,1,0,1s.65-1,0-1ZM34.89,36.24c.82-.82-.94-2.3-1-2.5-.16-.56.09-3.8-1-2.5-.56.67-.28,7.28,2,5ZM84.89,38.24c-.19-.19.27-1.03,0-1.5-1.06-1.86-5.37-1.89-7.5-2.5-1.38-.39-1.17-2.52-2-3-.94,1.1-4.49,3.7-3.5,5,.2.26,2.98-.86,2,2-5.13-5.16-6.41.38-8.5,1-.72.21-2.29-.21-2.5,0-.13.13.34,1.96-1.5,3-.47.27-1.31-.19-1.5,0-.3.3.3,3.7,0,4-.19.19-4.84.18-5.5,0-.55-.15-1.61-2-2-2-.32,0-.57.84-1,1-.56.2-1.33-.17-1.5,0-.19.19.26,1.03,0,1.5-1.4,2.51-2,.64-2.5.5-2.7-.74-4.42,6.56-7,8-.47.26-1.31-.19-1.5,0s.26,1.03,0,1.5c-.55.98-3.84,4.43-4,5-.23.85.23,2.15,0,3s-3.28,2.46-2,5.5c-3.81.88-1.24-4.21-2-5-.58-.6-3.01.9-3,1.5,0,.27,3.6,3.92,3,4.5-2.2,2.09-1.54-2.56-3-2-.18,2.66,1.73,4.83,1,7.5-.15.55-2,1.61-2,2,0,.19,1.66,1.82,2,1.5.59-.55-1.66-4.17,3-3-.78,1.75.95,3.18,1,3.5.54,3.74-.14,6.89-1,10-.36,1.32.91,1.6,1,2,.16.72.18,3.35,0,4-.61,2.21-7.07,2.89-4.5,6.5l-.5,4c1.87.25,2.75-.68,3-2.5.23-1.65-.63-4.23.5-5.5.52,1.32,2.52.59,2.5,1.5-.02,1.15-1.98,4.44-1,5.5,1.19,1.28,3.83-2.82,4.5-3s3.18-.15,4,0c.38.07.63.94,1,1,1.12.17,3.99.22,5,0,.41-.09,3.21-2.33,3.5-2,.4.45-.14,2.08-1,2.5l2,2.5c-.62-1.59,1.05-3.13.5-4-.72-1.14-2.13-1.36-1.5-3.5.14-.49,1.07-1.55,2-1,1.58.94.07,3.52,3.5,2.5.66-.2,2.06-2.42,3-3,.74-.45,3.37-.87,3.5-1,.4-.4-.98-3.33,1-3-.75,1.82,1.29,3.47,1,4.5-.11.38-.82.58-1,1-.42,1.01.91,1.9-2,1.5l-1,4c-.97-.16-3.75.24-4,0-.26-.26.56-2-.5-2s-.21,1.66-.5,2c-.45.54-1.02-1.55-2,1.5-1.36,4.24-2.61,1.02-3,1.5-.18.22.26,1.03,0,1.5-.39.69-1.85,1.48-2,2-1.33,4.47-.26.76-2,2.5-.21.21.2,1.76,0,2.5-.11.41-.94.63-1,1-.14.92-.19,5.31,0,5.5.35.35,2.93-.91,2,2,2.03-.03,1.88-2.87,2-3,.28-.3,1.9,1.14,2,1.5.18.67.19,4.33,0,5-.34,1.24-4.55,2.93-3,6.5l2.5-4,3.5,4c.05-2.77-1.52-4.59-1-7.5.07-.39,1.78-1.73,1-3.5l3,2.5-2-.5c.57,1.23-1.33,2.71-1,3,.15.14,2.89-.2,4,1l1-5c1.91.75,2.32,3.23,4,.5.1-.17.98-2.16.5-2.5-1.39-1.33.96-3.21,1.5-4.5.23-.54-.17-1.33,0-1.5.19-.19,1.03.26,1.5,0,1.01-.56,1.53-2.41,3-2,.37.1.58.82,1,1,1.95.81,1.29-.99,1.5-1.5.18-.42.89-.63,1-1,.23-.83-1.96-3.57-1-4.5.13-.12,2.84-.14,3.5,0,.39.08.61.92,1,1,.95.19,3.26-.24,3.5,0,.21.21.21,5.79,0,6-.13.13-1.95-.34-3,1.5-.27.47.19,1.31,0,1.5-.72.75-2.77-1.26-3-1-.66.75,1.51,2.77,1,4.5-.08.27-2.47,2.83-3,4-.23.51.19,1.34,0,2-.35,1.23-4,2-4,3,0,.22,1.45,1.37,1,4-.14.8-1.94.85,1,3v6.5c1.98.33.6-2.62,1-3,1.36-1.31,7.88,2.72,10.5,2,.75-.21,1.46-2.42,3-2,.41.11.67,1,1,1s.58-.88,1-1c2.02-.58,3.49,1.39,5,2,.58.23,1.45-.24,2,0,2.26,1,4.08,2.17,3.5,5,1.94.38,5.25,2.12,6-.5.95-3.31,2.81-4.31,3-5,.29-1.07.84-3.23,1-4,.43-2.15-1.19-4.52,2.5-3.5.44.12.67,1.35,2,1,.48-.12.87-1.55,2.5-1-.55-1.48,1.01-2.33,1-2.5-.01-.25-2.92-3.09-3.5-3.5-2.57-1.81-3.11-3.18-6-5-2.59-1.63-.08-2.66-.5-3-.33-.27-2.69.27-3,0-.33-.28,1.57-1.78,1-3l3,2,2-3c.78,1.75-1.01,3.32-1,3.5.02.31.79.56,1,1,.15.31-.13.8,0,1,.73,1.16,3.77,3.21,4,4,.21.72-.21,2.29,0,2.5.91.91,4.46-1.57,5-1,.38.4-.27,6.52,0,8l2-2.5c.38-1.33-1.38-1.68-1-3,.11-.38.82-.58,1-1,.23-.54-.18-1.32,0-1.5.37-.37,3.13-.06,3.5,1h3.5c.54-1.75-2.63-.57-2-1.5.67-.99.63-.94,1-2s2.89.11,3.5-1.5c4.05.7-.58.91-.5,1.5.68,4.69,3.11.52,3.5.5.13,0,1.68,1.84,2.5,1,2.07-2.14-1.87-1.87-2-2-1.18-1.18,2.29-5.65,3.5-6s1.87,1.52,3.5,1c-1.25-2.91-5.37-1.42-1.5-5l1,2c.66-.42,1.51-1.86,2-2,2.05-.59,3.52,1.45,5,2,.52.19,2.83.97,3,1,1.12.21,4.21-.28,4.5,0,1.11,1.05-2.71,3.38-2,5l3-3,2,3c-.33-1.31-2.29-3.46-2-4.5.11-.4.91-.61,1-1,1.07-4.56-.67-2.96-2.5-3.5-.52-.15-1.31-1.62-2-2-.47-.26-1.31.19-1.5,0-.34-.34-.22-8.69,0-9.5.15-.55,1.81-1.42,2-2,.65-2.03-1.41-3.01,3-2.5.46-1.8-3.06-.19-2-2.5.32-.69,1.5-.85,1-2.5,3.96.33.55-.95,1-2.5.48-1.63,2.87-1.37,3-1.5.21-.21.3-5,2.5-5,.33,0,.59.89,1,1,1.43.39,2.8-2.07,4-3,2.95-.12.82.6.5,1.5-.68,1.93,1.69,1.87,2,1.5.16-.19.18-4.82,0-5-.19-.19-1.03.27-1.5,0-2.14-1.21-1.2-2.77-1.5-4.5-.07-.38-1-.67-1-1s.94-.62,1-1c1.1-6.6-4.31-8.9-6-14-.23-.7.22-2.28,0-2.5-.25-.25-2.75.25-3,0-.13-.13.13-2.53-1.5-3-3.87-1.11-6.25-3.79-7-4-2.46-.68-3.78,1-4,1-.36,0-4.99-3.78-5.5-4.5-.15-.21.16-.74,0-1-1.53-2.43-1.72-.81-2.5-.5-2.21.88-1.31-1.81-1.5-2-.25-.25-2.57.22-3.5,0-.41-.1-.68-1.36-2-1-.17.05-2.45,2.33-2.5,2.5-.24.87-.41,11.09,0,11.5.16.16,4-.2,4,1.5,0,.42-2.43,1.87,1,4l-3.5,1.5c-.17-.05-2.45-2.33-2.5-2.5-.18-.62.18-1.38,0-2-.58-2.03-3.31-1.18-4.5-1.5-.39-.1-.59-.87-1-1-.84-.27-3.01.22-3.5-1.5-.41-1.45.74-3.23-1.5-4.5-1.14-.02.14,2-1,2s.15-1.87-1-2c-2.32-.27-2.45.85-3,1-1.3.36-1.44-.77-2-1s-1.32.18-1.5,0c-.16-.16.2-4-1.5-4-.17,0-1.03,1.6-3,1-.38-.12-.58-.83-1-1-.54-.22-1.33.17-1.5,0s.2-.94,0-1.5c-.16-.43-1-.68-1-1s.88-.58,1-1c.61-2.14-1.87-4.76-4-4.5l.5-4c-2,3.25-5.02,1.48-8,2-.14.03-1.67,1.83-2.5,1ZM146.89,31.24c-.11-.11-2.89-.11-3,0s-.11,2.89,0,3c1.02,1.02,4.02-1.98,3-3ZM166.39,31.24c-.65,0-.65,1,0,1s.65-1,0-1ZM183.39,31.24c-.65,0-.65,1,0,1s.65-1,0-1ZM108.39,32.24c-.65,0-.65,1,0,1s.65-1,0-1ZM133.89,36.24c.29.36,3.3-1.36.5-3-.74-.44-.69,2.76-.5,3ZM162.39,33.24c-.65,0-.65,1,0,1s.65-1,0-1ZM47.89,34.24c-1.31-1.31-5.19,2.85-1.5,5,.92.54.26-1.67.5-2.5.06-.2,1.82-1.68,1-2.5ZM117.89,36.24l-2-2c-.26,2.11-.11,2.26,2,2ZM174.89,40.24c.33-.39.25-7.49-1-6-.33.39-.25,7.49,1,6ZM11.89,37.24c.64-.76-.33-2.8-1-2-.64.76.33,2.8,1,2ZM98.89,37.24c1.03-1.03-.32-3.39-2-.5-.42.73,1.82.68,2,.5ZM127.39,35.24c-.65,0-.65,1,0,1s.65-1,0-1ZM143.89,43.24l1-4.5-4-3.5v5.5l3,2.5ZM37.89,39.24c.1-.12.1-2.88,0-3-1.31-1.57-1.31,4.57,0,3ZM120.89,36.24c-2.04-2.44-2.3,3.15-2,4.5.1.44,1.55.88,1,2.5,2.67,1.43,6.87-2.25,3.5-3-1.34-.3-2.1,1.46-2.5,1-.38-.44.38-4.55,0-5ZM26.89,37.24c-1.89-1.89-1.8,1.05-2,1.5s-1.48,1.1-1,1.5c.12.1,2.89.11,3,0s.11-2.89,0-3ZM160.89,37.24c-.39-.45-2.84-.21-2,1.5.35.72,1.49.86,1,2.5,4.1-.51,1.15,2.46,1,3.5-.17,1.18-.3,8.2,0,8.5.11.11,2.89.11,3,0,.12-.12.14-2.84,0-3.5-.82-4.01-.42-2.72,0-6,.26-2.04-.18-4.4,0-6.5-2.04-.28.21,2.59-2.5,2-1.09-.24-.24-1.7-.5-2ZM180.89,37.24c-1.16-1.36-1.92-.12-2,1.5-.09,1.84-.46,3.96,1,5l.5,7.5.5-7.5c2.47-1.89-.51-3.87,0-6.5ZM29.39,38.24c-.65,0-.65,1,0,1s.65-1,0-1ZM114.39,38.24c-.65,0-.65,1,0,1s.65-1,0-1ZM14.89,40.24c.31-.38,1.08.56,1.5,1,.56-1.56-.64-2.36-2-1-.9.9-.34,1.84-.5,2s-3.23-.46-4,1.5c.46,1.23,3.5.09,4,.5.4.33-2.08,1.98-.5,3,.89.68-1.27,2.07-.5,3,.19.24,4.91-3.21,5-3.5,1.17-3.93-2.54-2.04-3-2.5-.14-.14-.13-3.85,0-4ZM149.89,39.24l-3,3.5,1.5,3.5,1.5-7ZM42.89,42.24c.64-.76-.33-2.8-1-2-.64.76.33,2.8,1,2ZM113.89,44.24c.64-.76-.33-2.8-1-2-.64.76.33,2.8,1,2ZM177.89,42.24c-.81-.68-6-.05-4,2,.68.7,2.8-1.45,4-1-.07-.33.12-.9,0-1ZM22.89,43.24c-.76-.64-2.8.33-2,1,.76.64,2.8-.33,2-1ZM42.39,43.24c-.65,0-.65,1,0,1s.65-1,0-1ZM104.89,46.24c.64-.76-.33-2.8-1-2-.64.76.33,2.8,1,2ZM120.89,44.24l-4,4.5c-.75,2.62,2.29,2.96,2,5.5.83-.07,1.89.44,2-.5.35-2.98-.25-6.44,0-9.5ZM18.89,46.24c-.81.84,1.18,5.17,2.5,6l.5-7c-.85.85-2.89.89-3,1ZM27.39,45.24c-.65,0-.65,1,0,1s.65-1,0-1ZM111.39,45.24c-.65,0-.65,1,0,1s.65-1,0-1ZM176.89,47.24c.64-.76-.33-2.8-1-2-.64.76.33,2.8,1,2ZM24.89,48.24l-2-2c-.26,2.11-.11,2.26,2,2ZM166.89,50.24c.1-.12.1-2.88,0-3-1.31-1.57-1.31,4.57,0,3ZM177.89,48.24c-1.63-1.63-2.87,1.92-2,3,.46.57,2.83-2.17,2-3ZM8.89,51.24c.64-.76-.33-2.8-1-2-.64.76.33,2.8,1,2ZM29.89,51.24c.64-.76-.33-2.8-1-2-.64.76.33,2.8,1,2ZM14.89,58.24c-.6-2.69,1.94-4.35,2-7l-5,7.5,3-.5ZM8.89,52.24c-.76-.64-2.8.33-2,1,.76.64,2.8-.33,2-1ZM20.39,53.24c-.65,0-.65,1,0,1s.65-1,0-1ZM176.39,54.24c-.65,0-.65,1,0,1s.65-1,0-1ZM5.39,55.24c-.65,0-.65,1,0,1s.65-1,0-1ZM28.39,55.24c-.65,0-.65,1,0,1s.65-1,0-1ZM26.39,56.24c-.65,0-.65,1,0,1s.65-1,0-1ZM20.89,58.24c-.1-.1-1.89-.4-2,.5-.73,6.11,1.74,2.47,2.5,2.5.85.04,5.76,1.87,7,3l3.5-.5c-.83-.5-2.03-2.97-3-2-.41.41-5.6-1.27-7.5-1.5-1.08-.13-.24-1.74-.5-2ZM29.39,58.24c-.65,0-.65,1,0,1s.65-1,0-1ZM16.89,67.24l-.5-4,1.5-4-3,4.5c.13,1.98-1.07,4.08,2,3.5ZM9.89,61.24c-.14-.14-3.85-.13-4,0-1.26,1.05,1.89.89,2,1,.14.14-.13,4.13,2,2,.11-.11.11-2.89,0-3ZM10.89,62.24c-.76.94,2.07,4,2.5,4,1.33,0-.3-1.06-.5-1.5-.24-.53-1.27-3.4-2-2.5ZM165.89,64.24c.64-.76-.33-2.8-1-2-.64.76.33,2.8,1,2ZM22.89,63.24c-.53-.56-2.78.68-3,1.5-.53,1.99-.29,6.29,1.5,3.5l3.5,4c.28-2.31-2.95-4.25-1-5.5-.41-.74-.88-3.37-1-3.5ZM179.89,67.24c.13-.15.13-3.85,0-4-1.37-1.64-1.37,5.64,0,4ZM175.89,64.24c-3.74-1.01-1.27,4.27-2,5-.19.19-1.81-.19-2,0s.26,1.03,0,1.5c-.71,1.27-2.73,1.6-2,4,.12.4.87.6,1,1,.66,2.1-2.58,3.53.5,5.5l1.5-3.5c-.86-3.85.77-5.22,2-8,.81-1.82,1.26-3.46,1-5.5ZM26.89,65.24c-.76-.64-2.8.33-2,1,.76.64,2.8-.33,2-1ZM165.39,66.24c-1.42,0,1.5,2.92,1.5,1.5,0-.11-1.39-1.5-1.5-1.5ZM171.89,68.24c.64-.76-.33-2.8-1-2-.64.76.33,2.8,1,2ZM178.89,73.24l.5-5c-.38,1.23-2.32.57-2.5,1.5-.54,2.77,2.9.15,2,3.5ZM175.89,86.24c.33-.36-.3-3.42,0-4.5.15-.55,1.85-1.45,2-2,.22-.81-.16-2.05,0-3,.07-.38,1-.67,1-1,0-.3-.8-.56-1-1-.15-.32.13-.8,0-1-.54-.85-2.39-2.16-3-1.5-.66.71,1.51,2.79,1,4.5-.14.48-1.87,2.54-2,3-.38,1.33,1.38,1.68,1,3-.16.56-1.99,1.6-2,2-.02.6,2.45,2.1,3,1.5ZM20.89,76.24c.1-.12.1-2.88,0-3-1.31-1.57-1.31,4.57,0,3ZM25.89,74.24c-.07-.07-1.93-.07-2,0-.7.68,1.45,2.8,1,4,1.48.86,1.2-3.8,1-4ZM12.89,79.24c.64-.76-.33-2.8-1-2-.64.76.33,2.8,1,2ZM16.39,77.24c-.65,0-.65,1,0,1s.65-1,0-1ZM20.89,79.24c.36-.29-1.36-3.3-3-.5-.44.74,2.76.69,3,.5ZM180.39,78.24c-.65,0-.65,1,0,1s.65-1,0-1ZM23.39,81.24c-.11,0-1.5,1.39-1.5,1.5,0,1.42,2.92-1.5,1.5-1.5ZM15.89,84.24c.64-.76-.33-2.8-1-2-.64.76.33,2.8,1,2ZM12.89,85.24c.64-.76-.33-2.8-1-2-.64.76.33,2.8,1,2ZM9.39,84.24c-.65,0-.65,1,0,1s.65-1,0-1ZM170.89,85.24c-.07-.07-1.93-.07-2,0-1.03,1.03.92,3.21,1,3.5.2.74-.22,2.24,0,2.5,1.27,1.52,1.28-5.72,1-6ZM16.89,88.24c-.41-.5-1.25,1-1.5,1-1.09,0-1.26-2.6-2-3-2.49,1.62-.49,2.15-.5,2.5,0,.18-1.78,1.79-1,3.5l-3-3c-.65,3.21,2.27,4.48,4,6.5l1,5.5c3.19.58,1.48-1.12,2-2.5.24-.63,1.57-1.03,1-3-.85-2.98,1-2.25,1-3,0-.37-2-1.63-2-2,0-.15,1.82-1.5,1-2.5ZM22.89,90.24c.15-.14.66-4.41-1-4,.04,1.45.36,2.52-1,3.5s-2.52-.25-2,2.5c2.86.98,1.74-1.8,2-2s1.81.19,2,0ZM27.89,91.24c.16-.16.26-4.44-.5-4-2.99,1.75-1.24,5.74.5,4ZM163.89,91.24c.1-.12.1-2.88,0-3-1.31-1.57-1.31,4.57,0,3ZM177.39,89.24c-.65,0-.65,1,0,1s.65-1,0-1ZM29.39,92.24c-1.48,0-1.48,3,0,3s1.48-3,0-3ZM169.89,94.24c.07-.07.07-1.92,0-2-.4-.49-1.07.81-1.5,1-.18.08-2.59.09-1.5,1,.12.1,2.89.11,3,0ZM179.89,95.24c.64-.76-.33-2.8-1-2-.64.76.33,2.8,1,2ZM7.89,94.24c-1.42-1.42-3.51,1.24-.5,3,.77.45.65-2.85.5-3ZM171.89,102.24l1-8-3,5.5,2,2.5ZM20.39,95.24c-.65,0-.65,1,0,1s.65-1,0-1ZM26.89,95.24c-1.74-1.74-3.49,2.25-.5,4,.76.44.66-3.84.5-4ZM156.89,98.24c.1-.12.1-2.88,0-3-1.31-1.57-1.31,4.57,0,3ZM180.89,96.24c-1.09-1.09-3.09.91-2,2s3.09-.91,2-2ZM164.89,97.24c-.13-.13-1.36.07-2,0l-1,4c1.33-.22,3.83-3.17,3-4ZM174.89,101.24c.13-.15.13-3.85,0-4-1.37-1.64-1.37,5.64,0,4ZM23.89,98.24c-.07-.07-2.13-.38-2,.5l2,4c.51,1.43-1.43,5.92,1.5,5.5,2.91-2,.44-2.77.5-4.5.05-1.31,1.29-2.24,1-2.5-.84-.76-2.74,1.3-3,1-.32-.37.31-3.68,0-4ZM165.89,104.24c.13-.15.13-3.85,0-4-1.37-1.64-1.37,5.64,0,4ZM154.39,101.24c-.65,0-.65,1,0,1s.65-1,0-1ZM22.89,109.24l-1-7-3,1c-.36,1.82,1.67.69,2,1,.51.48-1.67,1.37-.5,2l2.5,3ZM174.39,102.24c-.65,0-.65,1,0,1s.65-1,0-1ZM12.89,103.24l-4,4,5,1-1-5ZM38.39,104.24c-.11,0-1.5,1.39-1.5,1.5,0,1.42,2.92-1.5,1.5-1.5ZM178.39,104.24c-.65,0-.65,1,0,1s.65-1,0-1ZM166.89,106.24c-.07-.07-1.92-.07-2,0-.5.41,1,1.25,1,1.5s-1.5,1.09-1,1.5c1.93,1.58,2.73-2.27,2-3ZM36.39,107.24c-.65,0-.65,1,0,1s.65-1,0-1ZM178.39,108.24c-.65,0-.65,1,0,1s.65-1,0-1ZM12.39,109.24c-.65,0-.65,1,0,1s.65-1,0-1ZM20.89,109.24c-.76-.64-2.8.33-2,1,.76.64,2.8-.33,2-1ZM40.39,111.24c-.65,0-.65,1,0,1s.65-1,0-1ZM164.39,111.24c-.65,0-.65,1,0,1s.65-1,0-1ZM23.39,112.24c-.65,0-.65,1,0,1s.65-1,0-1ZM26.89,112.24c-.83.06-1.83-.44-2,.5-.46,2.54,1.64,1.14,2,1.5.62.62-1.56,4.97,2,4l-2-6ZM46.89,112.24c-.12-.1-2.88-.1-3,0-1.57,1.31,4.57,1.31,3,0ZM76.89,115.24c.64-.76-.33-2.8-1-2-.64.76.33,2.8,1,2ZM172.39,113.24c-.65,0-.65,1,0,1s.65-1,0-1ZM24.89,117.24c.64-.76-.33-2.8-1-2-.64.76.33,2.8,1,2ZM44.89,115.24c-2.11-.26-2.26-.11-2,2l2-2ZM170.89,120.24c.15-.15.27-3.45-.5-3-3.01,1.76-.92,4.42.5,3ZM176.89,119.24c.64-.76-.33-2.8-1-2-.64.76.33,2.8,1,2ZM162.89,122.24c.13-.15.13-3.85,0-4-1.37-1.64-1.37,5.64,0,4ZM181.89,120.24c.64-.76-.33-2.8-1-2-.64.76.33,2.8,1,2ZM150.89,123.24c.83-.83-1.54-3.57-2-3-.87,1.08.37,4.63,2,3ZM176.39,121.24c-.65,0-.65,1,0,1s.65-1,0-1ZM70.89,125.24c.1-.12.1-2.88,0-3-1.31-1.57-1.31,4.57,0,3ZM175.89,125.24c.64-.76-.33-2.8-1-2-.64.76.33,2.8,1,2ZM147.89,134.24l2-10-3,4.5c.52,2.14-.37,2.76-1,4-.86,1.69,1.61,1.96,2,1.5ZM161.89,133.24c.14-.16.86.16,1,0,.17-.2-.39-5.06,1.5-5,1.39.05,1,3.38,2.5,3,.94-5.52-1.36-3.41-2-4-.12-.11-.18-3.01-1.5-3-1,.01-1.37,2.32-1.5,2.5-.64.89-2.84,2.43-3,3-.23.84.21,2.11,0,3-.09.4-.95.63-1,1-.24,1.65-.09,4.22,0,6,.08,1.62.84,2.86,2,1.5-.77-2.37,1.53-4.08,2-5.5.23-.7-.23-2.23,0-2.5-.18.18-2.42.23-2-.5,1.68-2.89,3.03-.53,2,.5ZM44.89,132.24c2.26.34,2.37-.85,3-2.5s1.35-2.23-.5-3.5l-2.5,6ZM141.39,127.24c-.65,0-.65,1,0,1s.65-1,0-1ZM153.89,127.24c-2.11-.26-2.26-.11-2,2l2-2ZM156.89,127.24c-3.35-.88-1.52,2.55-2,3-.33.31-2.36-.82-2,1,2.65.36,3.02-2.16,4-4ZM172.89,129.24c-.58-.58-3,.88-3,1.5,0,.33.92.61,1,1,.16.77-.2,2.26,0,2.5.91,1.09.92-1.29,1-1.5.28-.69,2-2.5,1-3.5ZM142.89,133.24c.83-.83-1.54-3.57-2-3-.87,1.08.37,4.63,2,3ZM129.39,131.24c-.65,0-.65,1,0,1s.65-1,0-1ZM132.89,133.24c.64-.76-.33-2.8-1-2-.64.76.33,2.8,1,2ZM42.39,132.24c-.65,0-.65,1,0,1s.65-1,0-1ZM59.89,137.24c.81-1-1.58-3.52-2-3-.81,1,1.58,3.52,2,3ZM125.89,134.24c-1.63-1.63-2.87,1.92-2,3,.46.57,2.83-2.17,2-3ZM152.39,135.24c-.65,0-.65,1,0,1s.65-1,0-1ZM165.39,135.24c-.65,0-.65,1,0,1s.65-1,0-1ZM131.89,145.24c3.85-2.16,3.59-6.31.5-9l-1.5,4.5,1,1v3.5ZM137.89,138.24c.64-.76-.33-2.8-1-2-.64.76.33,2.8,1,2ZM150.89,138.24c.64-.76-.33-2.8-1-2-.64.76.33,2.8,1,2ZM155.89,138.24c1.03-1.03-.32-3.39-2-.5-.42.73,1.82.68,2,.5ZM169.89,141.24c.18-.18.16-4.81,0-5-.91-1.09-.92,1.29-1,1.5-.17.42-.9.62-1,1-.54,1.98.69,3.81,2,2.5ZM178.39,136.24c-.65,0-.65,1,0,1s.65-1,0-1ZM40.89,137.24c-1.09-1.09-3.09.91-2,2s3.09-.91,2-2ZM53.39,137.24c-.11,0-1.5,1.39-1.5,1.5,0,1.42,2.92-1.5,1.5-1.5ZM116.89,137.24c-2.66-2.66-2.66,5.66,0,3,.11-.11.11-2.89,0-3ZM44.89,141.24c-.32-.32.66-2.81-.5-3l-1.5,3.5c3.05,2.67,3.27,4.75,2.5,8.5-.12.59-1.51,2.22.5,2-.98-2.86,1.8-1.74,2-2,.23-.3-.21-1.78,0-2.5.29-.97,3.45-2.31,3-4l-4-.5c-.54-1.75,2.63-.57,2-1.5-.25-.37-1.39-1.5-1.5-1.5-.15,0-1.65,1.84-2.5,1ZM139.39,139.24c-.67,0-2.88,4-2,4,.67,0,2.88-4,2-4ZM40.89,140.24l-4,3.5,2,2.5c2.82.66,1.4-1.1,3-2.5l-1-3.5ZM165.89,146.24c-1.07.32-2.78-.67-3-1.5-.36-1.31,1.04-4.57-1-4.5.22,1.24-.32,5.68,0,6,.07.07,1.03.15,2,.5.74.27,2.17,1.42,2-.5ZM176.89,144.24c.1-.12.1-2.88,0-3-1.31-1.57-1.31,4.57,0,3ZM172.89,144.24c.64-.76-.33-2.8-1-2-.64.76.33,2.8,1,2ZM59.89,145.24c.64-.76-.33-2.8-1-2-.64.76.33,2.8,1,2ZM146.39,143.24c-.65,0-.65,1,0,1s.65-1,0-1ZM151.89,145.24c.64-.76-.33-2.8-1-2-.64.76.33,2.8,1,2ZM50.89,150.24c1.63,1.63,5.21-3.83,1.5-6-.91-.53-.27,1.65-.5,2.5-.08.29-2.03,2.47-1,3.5ZM83.89,148.24c1.64-.71,3.31-2.24,3-4-1.64.71-3.31,2.24-3,4ZM130.89,147.24c.1-.12.1-2.88,0-3-1.31-1.57-1.31,4.57,0,3ZM38.89,150.24c-.17-.21.22-.96,0-1.5-.41-1-1.64-2.68-2.5-3.5-.88,1.08,1.26,1.08,0,3-.82,1.25-5.66.84-3.5,3,.26.26,1.83-.58,2,.5.3,1.92-.94,2.93,2,2.5l1-4c.28-.34,2.01,1.75,3,1,.26-.2-.86-2.98,2-2-.45-3.07-3.57,1.52-4,1ZM63.89,147.24c.64-.76-.33-2.8-1-2-.64.76.33,2.8,1,2ZM89.89,145.24c-1.09-1.09-3.09.91-2,2s3.09-.91,2-2ZM115.89,147.24c1.03-1.03-.32-3.39-2-.5-.42.73,1.82.68,2,.5ZM120.39,145.24c-.65,0-.65,1,0,1s.65-1,0-1ZM137.39,145.24c-.65,0-.65,1,0,1s.65-1,0-1ZM176.89,149.24c.41.51,3.75-2.1.5-4-.75-.44-.68,3.78-.5,4ZM34.89,146.24c-1.09-1.09-3.09.91-2,2s3.09-.91,2-2ZM68.39,146.24c-.65,0-.65,1,0,1s.65-1,0-1ZM92.89,148.24c.64-.76-.33-2.8-1-2-.64.76.33,2.8,1,2ZM72.39,147.24c-.65,0-.65,1,0,1s.65-1,0-1ZM142.39,147.24c-.65,0-.65,1,0,1s.65-1,0-1ZM161.39,147.24c-.65,0-.65,1,0,1s.65-1,0-1ZM88.89,150.24c1.03-1.03-.32-3.39-2-.5-.42.73,1.82.68,2,.5ZM129.39,148.24c-.65,0-.65,1,0,1s.65-1,0-1ZM156.39,148.24c-.65,0-.65,1,0,1s.65-1,0-1ZM171.89,150.24c.64-.76-.33-2.8-1-2-.64.76.33,2.8,1,2ZM55.89,153.24c.16-.2-.2-.94,0-1.5.15-.43,1-.68,1-1,0-1.06-2.46-1.97-3,0-.36,1.3,1.72,2.84,2,2.5ZM136.89,156.24l2-3.5-.5-3.5-1.5,3.5v3.5ZM145.89,152.24c.16-.2-.2-.94,0-1.5.13-.37,1.85-1.5.5-1.5-1.79,0-1.7,4.43-.5,3ZM74.89,152.24c1.03-1.03-.32-3.39-2-.5-.42.73,1.82.68,2,.5ZM84.89,150.24c-2.11-.26-2.26-.11-2,2l2-2ZM120.89,152.24c.64-.76-.33-2.8-1-2-.64.76.33,2.8,1,2ZM123.39,150.24c-.65,0-.65,1,0,1s.65-1,0-1ZM154.39,150.24c-.65,0-.65,1,0,1s.65-1,0-1ZM162.89,150.24l-1.5,2-1.5,4,3-6ZM65.39,151.24c-.65,0-.65,1,0,1s.65-1,0-1ZM88.89,153.24c1.03-1.03-.32-3.39-2-.5-.42.73,1.82.68,2,.5ZM133.89,153.24c.64-.76-.33-2.8-1-2-.64.76.33,2.8,1,2ZM169.39,151.24c-.65,0-.65,1,0,1s.65-1,0-1ZM60.39,152.24c-.65,0-.65,1,0,1s.65-1,0-1ZM79.39,152.24c-.65,0-.65,1,0,1s.65-1,0-1ZM104.89,154.24c.64-.76-.33-2.8-1-2-.64.76.33,2.8,1,2ZM42.89,164.24c0-2.26,2.51-5.74,2-7.5-.13-.44-2.04-3.37-2.5-3.5-2.98-.81-3.35.82-5,2-.06.05-.6-.07-1.5.5-1.58,1-.9,2.94-1,4.5,3.19,1.14,1.47-3.99,3.5-4,.22,0,3.36,2.01,3.5,2.5.61,2.07-2.84,4.19,1,5.5ZM48.89,153.24c-2.57-2.49-1.84,3.8-2,4.5-.62,2.77.16,3.43,0,4-.33,1.19-4.01,1.95-.5,4.5l1.5-5.5c.88-.75,1.6-1.8,2.5-2.5,1.42-1.11,2.41-.9,2.5-1,.12-.12.37-2.01-.5-2-1.65.01-1.43,1.17-2.5.5-1.46-.92-.89-2.39-1-2.5ZM64.39,153.24c-.65,0-.65,1,0,1s.65-1,0-1ZM68.39,153.24c-.65,0-.65,1,0,1s.65-1,0-1ZM122.89,157.24c.79-.96-1.63-3.69-3-4,.55,1.52-1,2.29-1,2.5,0,.11,1.39,1.5,1.5,1.5.33,0,.66-1,1-1,.25,0,1.09,1.5,1.5,1ZM155.89,157.24c.83-.83-1.67-3.78-3-4l1,4c.64-.07,1.87.13,2,0ZM45.39,154.24c-.65,0-.65,1,0,1s.65-1,0-1ZM55.89,158.24c.14-.14.13-3.85,0-4-1.08-1.29-.84,1.89-1,2.5-.09.37-1.5,1.09-1,1.5.08.07,1.93.07,2,0ZM128.39,154.24c-.65,0-.65,1,0,1s.65-1,0-1ZM73.89,159.24c-.21-.21-1.78.21-2.5,0-1.59-.47-2.43-7.2-6.5-2.5-.02,1.14,2.03-.13,2,1-.04,1.58-1.32,1.82-1,3,.13.5,1.54.87,1,2.5,1.6.77,3.55-2.53,4-2s-.32,7.36,0,9l4.5-6c4.13-.42-1.06-1.02-1.5-2.5-.21-.72.21-2.29,0-2.5ZM100.39,155.24c-.65,0-.65,1,0,1s.65-1,0-1ZM128.89,156.24c-1.03-1.03-3.39.32-.5,2,.73.42.68-1.82.5-2ZM134.89,156.24c-3.41-.94-1.07,3.28-3.5,4-.72.21-2.28-.22-2.5,0-.5.48.13,5,1.5,5,1.92,0,1.33-4.81,1.5-5,.28-.32,4.15,4.25,3-4ZM103.89,161.24c.14-.14.13-3.85,0-4-1.08-1.29-.84,1.89-1,2.5-.09.37-1.5,1.09-1,1.5.08.07,1.93.07,2,0ZM152.89,157.24c-1.88-1.88-1.79,1.01-2,1.5-.23.55-1.99,2.51-1,3.5,2.19,2.19,1.79-1.78,2-2.5.06-.2,1.82-1.68,1-2.5ZM162.89,157.24c-.68-.68-3.44.89-3,2.5.93,3.39,4.46-1.04,3-2.5ZM169.89,170.24c1.04-1.07-.97-3.32-1-3.5-.31-2.15.22-4.76,0-7l-2-2.5c-.18,1.72-.83,2.57-1,4.5-.1,1.13-.18,2.97,0,4,.12.65,2.48,2.32,0,4,.67,1.17,1.12-.51,1.5-.5.13,0,1.68,1.84,2.5,1ZM49.89,167.24l3-5.5-.5-3.5-1.5,3.5-1,5.5ZM110.89,158.24c-1.63-1.63-2.87,1.92-2,3,.46.57,2.83-2.17,2-3ZM157.39,158.24c-.65,0-.65,1,0,1s.65-1,0-1ZM120.39,159.24c-.65,0-.65,1,0,1s.65-1,0-1ZM154.89,160.24c-2.11-.26-2.26-.11-2,2l2-2ZM114.89,163.24c.64-.76-.33-2.8-1-2-.64.76.33,2.8,1,2ZM125.89,161.24c-2-2-2.71,3.12-2,4,.64.8,3.05-2.95,2-4ZM156.89,166.24c.16-.2-.2-.94,0-1.5.15-.43,1-.68,1-1s-.85-.57-1-1c-.1-.27-.1-2.57-1-1.5-.16.2.2.94,0,1.5-.15.43-1,.68-1,1s.85.57,1,1c.1.27.1,2.57,1,1.5ZM160.89,165.24c.15-.15.27-3.45-.5-3-3.01,1.76-.92,4.42.5,3ZM80.89,163.24c-2.66-2.66-2.66,5.66,0,3,.11-.11.11-2.89,0-3ZM98.39,163.24c-.65,0-.65,1,0,1s.65-1,0-1ZM121.89,163.24c-3.69-.18-1.24.58-1,1.5.21.79-.19,4.64,2,2.5.7-.68-1.45-2.8-1-4ZM102.89,165.24c-2.11-.26-2.26-.11-2,2l2-2ZM117.39,165.24c-.65,0-.65,1,0,1s.65-1,0-1ZM150.89,167.24c.64-.76-.33-2.8-1-2-.64.76.33,2.8,1,2ZM40.89,170.24c.13-.15.13-3.85,0-4-1.37-1.64-1.37,5.64,0,4ZM78.89,167.24c-3.72-1.27-4.49,3.14-1.5,3l-.5,3c2.38.43,2.33-.48,2-2.5-.3-1.85-1.37-1.66,0-3.5ZM128.89,170.24c.1-.12.1-2.88,0-3-1.31-1.57-1.31,4.57,0,3ZM153.89,167.24c-.76-.64-2.8.33-2,1,.76.64,2.8-.33,2-1ZM158.89,169.24c.64-.76-.33-2.8-1-2-.64.76.33,2.8,1,2ZM42.89,174.24c.25.31,1.89-1.11,2-1.5.22-.81-.16-2.05,0-3,.04-.24,1.85-1.5.5-1.5s-3.48,4.78-2.5,6ZM50.89,168.24c-3.32-.73-1.68,2.42-2,4.5-.24,1.53-1.25,1.96-1,3.5,2.01-.19,2.11-3.61,3.5-4,.12-.03.93,2.04,2.5-.5l-3-3.5ZM113.39,168.24c-1.64-.03-1.36,3.52-1.5,4.5-.09.66-1.99.75.5,2.5,2.74-.85,3.4-6.96,1-7ZM117.89,175.24l3-2.5,1-4.5-4,7ZM124.89,170.24c.64-.76-.33-2.8-1-2-.64.76.33,2.8,1,2ZM146.39,168.24c-.65,0-.65,1,0,1s.65-1,0-1ZM95.39,169.24c-.65,0-.65,1,0,1s.65-1,0-1ZM105.89,169.24c-.62.74.52,4,1.5,4,1.35,0-.45-1.24-.5-1.5-.15-.71.06-3.77-1-2.5ZM144.39,169.24c-.65,0-.65,1,0,1s.65-1,0-1ZM101.89,172.24c.64-.76-.33-2.8-1-2-.64.76.33,2.8,1,2ZM75.89,173.24c.64-.76-.33-2.8-1-2-.64.76.33,2.8,1,2ZM151.89,173.24l-2-2c-.26,2.11-.11,2.26,2,2ZM59.89,172.24c-1.9-.29-3.29,1.1-3,3l3-3ZM66.39,172.24c-.65,0-.65,1,0,1s.65-1,0-1ZM95.89,172.24c-2.17-2.17-1.8,1.72-2,2.5-.09.37-1.5,1.09-1,1.5,1.56,1.28,4.14-2.86,3-4ZM172.89,176.24c.15-.15.27-3.45-.5-3-3.01,1.76-.92,4.42.5,3ZM165.89,176.24c.64-.76-.33-2.8-1-2-.64.76.33,2.8,1,2ZM122.39,175.24c-.65,0-.65,1,0,1s.65-1,0-1ZM131.89,180.24l-1-5c.98,2.86-1.8,1.74-2,2-.09.12-.11,2.89,0,3s2.89.11,3,0ZM174.39,176.24c-.65,0-.65,1,0,1s.65-1,0-1ZM62.89,181.24c.29.36,3.3-1.36.5-3-.74-.44-.69,2.76-.5,3ZM89.89,178.24c-.76-.64-2.8.33-2,1,.76.64,2.8-.33,2-1ZM107.39,179.24c-.65,0-.65,1,0,1s.65-1,0-1ZM171.39,181.24c-.65,0-.65,1,0,1s.65-1,0-1Z"/>
      <path d="M32.89,137.24c.35-.75-.33-3.67,0-4,2.76-2.76,2.39,6.23,1,5-.05-.05.14-1.18-1-1Z"/>
      <path d="M31.89,157.24c.21,1.37-.32,3.33,0,4.5.27.96,4.13,2.42.5,4.5-.46.27-1.29-.18-1.5,0-.46.4,1.34,3.89-2,3-.69-1.93,1.78-2.69,2-3.5.36-1.33-.92-1.61-1-2-.29-1.45.65-3.02-1-4l3-2.5Z"/>
      <path d="M24.89,164.24l2,3-4,1c.12-1.68-.42-3.45.5-5,2.69-4.51,7.08.55,1.5,1Z"/>
      <path d="M24.89,173.24l1,4.5-1.5,3.5c-1.95-1.3-1.43-2.56-1.5-4.5-.07-2.14-.85-4.11,2-3.5Z"/>
      <path d="M30.89,177.24c.39,1.89-1.84.32-2,1.5-.25,1.91.92,2.92-2,2.5.09-1.14-.14-2.38,0-3.5s2.93-.29,4-.5Z"/>
      <path d="M23.89,154.24c-.07.07-2.13.38-2-.5l4-5.5c.82,2.77-1.24,3.12-2,4.5-.26.48.19,1.31,0,1.5Z"/>
      <path d="M26.89,129.24c-1.91-1.91,1.21-1.84,1.5-2,.81-.45,1.37-1.99,2.5-2,.7,1.73-3.07,4.93-4,4Z"/>
      <path d="M139.89,170.24c.62.62.09,6.09-2,4-.62-.62-.09-6.09,2-4Z"/>
      <path d="M22.89,129.24c-1.06,1.27-.85-1.79-1-2.5-.09-.45-2.04-1.02.5-2.5.75-.44.68,4.79.5,5Z"/>
      <path d="M28.89,134.24c-.58-.58.88-3,1.5-3,.11,0,1.5,1.39,1.5,1.5,0,.62-2.42,2.08-3,1.5Z"/>
      <path d="M5.89,44.24c.57.46-2.17,2.83-3,2-1.63-1.63,1.92-2.87,3-2Z"/>
      <path d="M12.89,127.24c-.48-.4.81-1.07,1-1.5.23-.53-.36-2,.5-1.5,2.99,1.75-.57,3.76-1.5,3Z"/>
      <path d="M5.89,136.24c-.85.7-2.75-1.49-4-1-.12-2.81,4.89.26,4,1Z"/>
      <path d="M23.89,158.24c.83.83-1.54,3.57-2,3-.87-1.08.37-4.63,2-3Z"/>
      <path d="M4.89,70.24c.49.4-.81,1.07-1,1.5-.23.53.17,1.29,0,1.5-1.3,1.55-1.73-5.24,1-3Z"/>
      <path d="M8.89,131.24c.36.29-1.36,3.3-3,.5-.44-.74,2.76-.69,3-.5Z"/>
      <path d="M25.89,146.24c-1.37,1.64-1.37-5.64,0-4,.13.15.13,3.85,0,4Z"/>
      <path d="M15.89,147.24c1.09,1.09-.91,3.09-2,2s.91-3.09,2-2Z"/>
      <path d="M142.89,178.24c-.18.18-2.42.23-2-.5,1.68-2.89,3.03-.53,2,.5Z"/>
      <path d="M16.89,157.24l-2,2c-.26-2.11-.11-2.26,2-2Z"/>
      <path d="M28.89,146.24c.18.18.23,2.42-.5,2-2.89-1.68-.53-3.03.5-2Z"/>
      <path d="M185.89,85.24l-2,2c-.26-2.11-.11-2.26,2-2Z"/>
      <path d="M2.89,85.24c-1.31,1.57-1.31-4.57,0-3,.1.12.1,2.88,0,3Z"/>
      <path d="M5.89,40.24l-2,2c-.26-2.11-.11-2.26,2-2Z"/>
      <path d="M5.89,14.24c-.67.8-1.64-1.24-1-2,.67-.8,1.64,1.24,1,2Z"/>
      <path d="M37.89,125.24c-.67.8-1.64-1.24-1-2,.67-.8,1.64,1.24,1,2Z"/>
      <path d="M26.89,131.24c.8.67-1.24,1.64-2,1-.8-.67,1.24-1.64,2-1Z"/>
      <path d="M18.89,139.24c-.67.8-1.64-1.24-1-2,.67-.8,1.64,1.24,1,2Z"/>
      <path d="M21.89,142.24c.8.67-1.24,1.64-2,1-.8-.67,1.24-1.64,2-1Z"/>
      <path d="M2.89,146.24c-.67.8-1.64-1.24-1-2,.67-.8,1.64,1.24,1,2Z"/>
      <path d="M19.89,148.24c.8.67-1.24,1.64-2,1-.8-.67,1.24-1.64,2-1Z"/>
      <path d="M12.89,167.24c-.67.8-1.64-1.24-1-2,.67-.8,1.64,1.24,1,2Z"/>
      <path d="M139.89,168.24c-.67.8-1.64-1.24-1-2,.67-.8,1.64,1.24,1,2Z"/>
      <path d="M70.89,182.24c-.67.8-1.64-1.24-1-2,.67-.8,1.64,1.24,1,2Z"/>
      <path d="M33.39,181.24c.65,0,.65,1,0,1s-.65-1,0-1Z"/>
      <path d="M18.39,177.24c.65,0,.65,1,0,1s-.65-1,0-1Z"/>
      <path d="M138.39,175.24c.65,0,.65,1,0,1s-.65-1,0-1Z"/>
      <path d="M24.39,169.24c.65,0,.65,1,0,1s-.65-1,0-1Z"/>
      <path d="M19.39,163.24c.65,0,.65,1,0,1s-.65-1,0-1Z"/>
      <path d="M17.39,145.24c.65,0,.65,1,0,1s-.65-1,0-1Z"/>
      <path d="M2.39,141.24c.65,0,.65,1,0,1s-.65-1,0-1Z"/>
      <path d="M13.39,136.24c.65,0,.65,1,0,1s-.65-1,0-1Z"/>
      <path d="M9.39,134.24c.65,0,.65,1,0,1s-.65-1,0-1Z"/>
      <path d="M25.39,123.24c.65,0,.65,1,0,1s-.65-1,0-1Z"/>
      <path d="M15.39,119.24c.65,0,.65,1,0,1s-.65-1,0-1Z"/>
      <path d="M11.39,116.24c.65,0,.65,1,0,1s-.65-1,0-1Z"/>
      <path d="M5.39,17.24c.65,0,.65,1,0,1s-.65-1,0-1Z"/>
      <path d="M2.39,13.24c.65,0,.65,1,0,1s-.65-1,0-1Z"/>
      <path d="M4.39,8.24c.65,0,.65,1,0,1s-.65-1,0-1Z"/>
      <path d="M132.89,91.24c.58.59-1.92,3.99-1,5,1.02,1.12,2.89-1.72,3.5-2,1.15-.53,2.04.36,1.5,1.5-1.25,2.65-4.67,4.01-7.5,3.5-.35-.06-.57-.82-1-1-1.98-.83-1.3,1.15-1.5,1.5-.39.69-1.61,1.31-2,2-.26.47.19,1.31,0,1.5s-4.43.43-5,1c-.19.19.26,1.03,0,1.5-.54.97-2.27,1.97-3,3l-1,5.5c.29-1.75-1.55-2.62-1-4.5.12-.42,1-.68,1-1s-.93-.61-1-1c-.95-5.4.89-2.49,1.5-2.5,1.35-.01-.46-1.26-.5-1.5-.16-.94.16-2.06,0-3-.07-.38-1-.67-1-1,0-.2,2.21-2.44,3-2.5.22,1.66-1.91,2.84.5,4,2,.96,1.6-1.95,1.5-3,1.82-.45.16,3.03,2.5,2,2.1-.92,1.35-3.85,1.5-4,.11-.1,3.26.05,2-1-.23-.2-1.81.19-2,0-.11-.11-.1-2.89,0-3,.8-.84,2.37,1.01,2.5,1,.49-.02,2.31-2.8,3-3,1.25-.36,1.87,1.52,3.5,1ZM129.39,92.24c-.65,0-.65,1,0,1s.65-1,0-1Z"/>
      <path d="M96.89,81.24l-4,2.5c-.87,1.3-2.81-.29-3-1-.45-1.65,2.65-2.41,2-4.5,1.55-.27.7.82,1.5,2,.93,1.37,2.08,1.03,3.5,1Z"/>
      <path d="M98.89,114.24c.11.11.15,2.15,1,3-4.35.85-2.52-1.44-3-2-.21-.25-4.94,3.27-5-2l7,1Z"/>
      <path d="M147.89,109.24c-2.25-.09.05-3.63-2-4.5l1.5-4.5c.66.79,1.35,2.48,1.5,3.5.36,2.38-.79,3.44-1,5.5Z"/>
      <path d="M147.89,98.24c-.9-.06-3.3-2-3.5-2-.42,0-2.97,3.59-3.5,3-1.77-1.97,6.62-7.55,7-1Z"/>
      <path d="M42.89,100.24c1.09,1.09-.91,3.09-2,2s.91-3.09,2-2Z"/>
      <path d="M55.89,108.24c-.67.8-1.64-1.24-1-2,.67-.8,1.64,1.24,1,2Z"/>
      <path d="M103.89,144.24c-.67.8-1.64-1.24-1-2,.67-.8,1.64,1.24,1,2Z"/>
      <path d="M130.39,122.24c.65,0,.65,1,0,1s-.65-1,0-1Z"/>
      <path d="M104.39,117.24c.65,0,.65,1,0,1s-.65-1,0-1Z"/>
      <path d="M65.39,88.24c.65,0,.65,1,0,1s-.65-1,0-1Z"/>
      <path d="M45.39,50.24c.65,0,.65,1,0,1s-.65-1,0-1Z"/>
    </g>
  </g>
</svg>