<?xml version="1.0" encoding="UTF-8"?>
<svg id="Layer_2" data-name="Layer 2" xmlns="http://www.w3.org/2000/svg" viewBox="0 0 181.31 205.17">
  <g id="Layer_1-2" data-name="Layer 1">
    <g id="Element">
      <path d="M99.21.17c.17.17-.22.96,0,1.5.18.43.94.65,1,1,.26,1.5-.75,8.58,1.5,8.5s3.55-9.98,8.5-6.5l4.5,5.5,2.5-5.5,3-2c-2.03,1.31-1.62,2.18-2,4-.51,2.48-.43,2.44,0,4,.34,1.22-3.2,5.01-2,7.5,3.97-1.37,2.36-4.19,3-6.5.15-.55,1.84-1.44,2-2,.42-1.47-1.62-.81,0-4,.3-.59.71-2.55,1-3,.58-.9,3.85-2.68,4-2.5.82.97-.92,3.33-1,4.5.4,1.76-2.38,4.3.5,5.5,1.9.79,1.78-2.97,3.5-3.5-1.11-3.95,5.11-4.72,6-2,.75,2.3-2.88,2.35-3,2.5-.23.28.23,1.8,0,2.5-.41,1.22-2.9,3.66-3,4-.57,2,.87,2.54,1,3,.03.12-1.94,1.07.5,2.5l5-4c1.47.87,4.59-2,5-2,.18,0,2.45,2.33,2.5,2.5.55,2.01-.56,10.92,0,11.5,2.13,2.19,7.26-5.66,8.5-6,2.24-.62,5.25-.22,5.5,2.5.41,4.43-9.31,12.72.5,12.5.59-.39,1.7-2,2-2,.18,0,2.45,2.33,2.5,2.5,1.35,4.9-1.42,6.06-4,9-4.98,5.66.17,2.55,3.5.5,3.03-1.86,4.97-4.14,8-6s6.11-3.11,9-5c.51,1.28,2.41.9,2.5,1,.12.13.15,2.94,0,3.5-.32,1.18-3.06,1.52-4,3-1.71,2.7-3.28,5.26-5.5,6.5-2.1,1.17-5.51,5.6-5.5,8,3.16-.61,4.81,1.57,4,4.5-.12.44-5.52,5.66-6.5,6.5-3.76,3.23-7.65,7.35-12,10l-5.5,5c-.37,1.6,2.84,1.19,3.5,1,.98-.27,6.53-5.91,8-7,.22-.16.79.16,1,0,1.71-1.27,1.78-1.97,4-3,.43-.2.63-.89,1-1,1.96-.59,2.55.87,3,1,3.07.85,2.12-.6,2.5-1.5.26-.62,2.12-3.5,2.5-3.5.18,0,1.08,2.05,2.5-.5.26-.47-.19-1.31,0-1.5s1.02.26,1.5,0c.65-.36,2.47-3.09,3.5-2,1.78,1.89-4.8,7.14-6,8.5-4.02,4.54-10.66,11.44-14,17-1.26,2.1-1.12,5.98-3.5,7.5-3.66,2.33-5.24,3.11-6.5,7.5-.05.17-2.33,2.45-2.5,2.5-1.15.32-3.38-2.82-5.5.5-.15.24.15.76,0,1-.4.62-3,2.36-3.5,2.5-2.35.64-.59-2.63-3.5,1.5-.9,1.28-4.42,4.26-5.5,4.5-1.97.44-4.09-.91-5.5,1.5l-1,5c-1.8.67-1.85,3.35-2,3.5-.19.19-1.03-.26-1.5,0-1.18.66-2.51,2.42-4,3-1.63-.28-9.11.39-9.5,0-.24-.24,1.02-3.05-2.5-2-.18.05-2.3,2.14-2.5,2.5-.26.47.19,1.31,0,1.5-.16.16-3.72.14-4.5,0-.97-.18-2.47-2.58-4.5.5,1.43.87.82,1.84,1,3,1.45,9.22-.42,18.28,2,28,.3,1.21,1.21,4.31,1,5-.93,3.06,1.32,7.43,2,11,1.31,6.83,2.64,13.36,4,20,1.06,5.16-1.25,2.96-4.5,3.5-.38.06-.67,1-1,1-.22,0-3.37-2.02-3.5-2.5-.47-1.74.3-4.92,0-7s-2.25-6.63-3-9c-2.51-7.87-3.62-14.92-5-23-1.21-7.05.47-16.34-1-25-.06-.38-.94-.62-1-1-.18-1.14.27-4.18,0-4.5-.23-.27-2.27,1.75-3,1-.93-.95,1.56-4.36,1-5-.24-.27-1.73,1.52-3.5,1-.58-.17-4.9-4.62-6.5-3-1.05,1.07,1.14,5.98,2.5,6,1.16.02,1.58-4.88,3.5-3,.11.11.15,2.15,1,3-1.79-.73-3.03,2.01-3.5,2-.3,0-.56-.79-1-1-1.47-.69-3.63-.96-4.5-2.5-.27-.47.19-1.31,0-1.5-.21-.21-1.76.2-2.5,0-.41-.11-.64-.95-1-1-2.59-.38-14.95.55-15.5,0-.19-.19.2-1.76,0-2-.1-.12-.5.53-2.5,0-4.94-1.32-2.68-2.18-3.5-3-.21-.21-1.76.2-2.5,0-.44-.12-1.04-1.59-3-1-.4.12-.61.89-1,1-1.48.41-5.25-3.24-7-4-.56-.24-1.44.25-2,0-.71-.31-2.3-1.71-3-2-.54-.23-1.33.17-1.5,0-.11-.11-.11-2.89,0-3,.27-.27,3.39.21,4.5,0,.37-.07.59-.88,1-1,1.99-.61,4.06,2.02,6,3,1.4-.48,4.61,1.9,5.5,1,.18-.18.18-4.82,0-5-.25-.25-2.57.22-3.5,0-.48-.11-1.62-.66-3-1-2.47-.61-7.05-2.58-9-3s-5.01.43-7,0c-.36-.08-2.38-1.71-3-2-.5-.23-1.34.19-2,0-.71-.2-2.89-3.21-4-4-1.52-1.08-2.4-.87-3.5-3.5-.36-.86-2.11-3.33-3-4.5-.2-.26-2.98.86-2-2,1.58,1.45,3.18.63,4.5,1,.75.21,4.65,4.92,6,6,.2.16.78-.17,1,0,.83.63,3.44,4.12,4.5,3s-.95-3.25-1-3.5c-.2-.94.24-3.26,0-3.5-.19-.19-1.03.27-1.5,0-1.26-.72-1.95-3.07-5-5-1.56-.99-1.7-3.45-3.5-4.5,1.7-6.01,6.4.6,9.5,2.5,2.68,1.64,8.82,3.48,10.5,6.5,1.92,3.44,7.12,5.75,10.5,8.5,1.32,1.07,5.29,5.8,6,6,.82.23,2.08-.19,3,0,.38.08.6.89,1,1,1.62.45,3.18-2.36,2.5-3-.22-.21-4.03-.7-4.5-2-.83.04-4.33-.83-4.5-1-.27-.27.25-2.59,0-3.5-.14-.51-2.9-2.26-3.5-2.5-.65-.26-4.2-.7-4.5-1-.14-.14-.55-2.75-1-3.5-.71-1.17-3.76-3.19-4-4-.21-.72.21-2.29,0-2.5-.17-.17-.96.23-1.5,0-3.6-1.51-8.16-3.72-11-6-1.03-.83-7.34-6.99-7.5-7.5-.65-2.09,3.36-3.98,5.5-3.5.35.08,2.66,1.93,3,2,3.12.67,6.99-1.44,9,2l5.5,1-3.5-4c-5.67,1.16-8.2-5.74-12-8-.22-.13-.69.14-1,0-.75-.35-1.08-1.55-3-1-.74.21-3.2,4.24-4.5,3-1.13-1.08,2.01-3.22,2.5-4,.67-1.07-.97-1.4-.5-3,1.79-.4.72,1.74,1,2,.3.28,2.59-.25,3.5,0,.55.15,1.57,1.97,2,2,.18.01,1.75-1.78,3.5-1-.85-.85-.89-2.89-1-3-.18-.17-.96.22-1.5,0-.43-.18-.65-.94-1-1-1.83-.32-5.87.79-6.5-1.5-.23-.85.23-2.15,0-3-.15-.55-2-1.61-2-2,0-.45,4-3.55,4-4,0-.39-1.85-1.45-2-2-.17-.61-.17-3.37,0-4,.07-.26,1.5-1.99,2-1,1.66,1.7,3.35-.82,4.5-.5.66.18,3.31,4.28,4.5,3,.96-1.04-1.25-4.96-1-6.5-2.3-1.85.32-5.85-2-8,3.05-3.6,4.26-.28,6.5,1.5,3.14,2.49,5.14,6.1,8,8,.41.27,2.57.72,3,1,1.53.98,1.97,3.86,4,5,.46.26,1.26-.18,1.5,0,.26.2-.86,2.98,2,2l-1-4.5c-3.63-2.78-4.34-7.33-7-11-.58-1.98.93-2.67,1-3,.19-.94-.24-3.26,0-3.5.48-.48,3.01,1.59,2-4.5-.06-.38-1-.67-1-1,0-.71,4.43-3.81,5.5-3.5.36.1.57.78,1,1,.29.15.78-.13,1,0,.98.6,5.17,5.33,6.5,4,.33-.33.13-3.03-1-3.5,1.15-.29.51-3.44,2.5-2.5.41.19,3.13,2.94,3.5,3.5.27.41.73,2.6,1,3,1.1,1.64,2.18,1.61,3,4,.33.96,1.85.16,2.5,1.5l1-3c-1.59-.79-5.6-7.81-4.5-9,1.58-1.7,7.47,8.16,10,6,.19-.16-3.99-4.26-.5-5,3.28-.7,3.59.91,5.5,2.5.63.52,2.18,2.38,3,1.5.91-.98-1.49-4.05-1-5.5-1.68-1.22-.84-3.49-1-5.5,2.34-.08,3.25-2.26,5,.5s7.16,8.54,10.5,9.5c.17.05,2.45,2.33,2.5,2.5.52,1.9-1.48,5.25,2,4.5-1.05-2.54,1.75-3.62,2-4.5.38-1.32-1.38-1.67-1-3,.52-1.82,3.94-.63,3-3.5-1.43,1.57-5,.97-5-.5,0-.33.94-.62,1-1,.54-3.24-1.56-5.58-1-8,.09-.41,1.36-.68,1-2-.11-.41-1-.67-1-1,0-1.86,7.68-1.82,8-1.5ZM97.21,5.17c.1-.12.1-2.88,0-3-1.31-1.57-1.31,4.57,0,3ZM97.71,18.17c-.65,0-.65,1,0,1s.65-1,0-1ZM63.21,28.17c1.03-1.03-.32-3.39-2-.5-.42.73,1.82.68,2,.5ZM63.21,29.17c-2.02-.59-2.68.7-2,2.5.38,1.02,1.62,2.99,2,4,.54,1.46-.31,3.84,3,3.5l-2-4.5-1-5.5ZM92.21,34.17c.16-.19.16-4.81,0-5-1.41-1.69-1.41,6.69,0,5ZM16.21,45.17c.52-.42-2-2.81-3-2-.52.42,2,2.81,3,2ZM20.21,44.17c-.76-.64-2.8.33-2,1,.76.64,2.8-.33,2-1ZM82.71,61.17c-.65,0-.65,1,0,1s.65-1,0-1ZM81.21,63.17l-3-.5.5,2.5c-1.61-2.28-3.3,1.84-3.5,4,1.89.39.32-1.87,1.5-2,.7-.07,1.47.16,2,0,.74-.23,3.28-3.26,2.5-4ZM133.21,79.17c-.29-1.69.45-3,1-4.5.83-2.28,2.19-4.72,3-7,.66-1.87,1.37-3.4,1-5.5-.8.62-5,5.13-5,5.5,0,.33,1,.66,1,1,0,.18-1.92,2.64-2,3-.23,1.06.03,2.74,0,4-.02,1.17-.71,3.75,1,3.5ZM49.71,68.17c-1.72,0-1.72,4,0,4s1.72-4,0-4ZM90.21,71.17c-.76-.64-2.8.33-2,1,.76.64,2.8-.33,2-1ZM63.21,73.17c-1.09-1.09-3.09.91-2,2s3.09-.91,2-2ZM68.21,75.17c-1.32-.1-4.74,1.52-5,2.5-.15.56-.12,3.37,0,3.5.07.07,2.13.38,2-.5-3.08-3.01,2.34-3.06,3-5.5ZM78.21,75.17c-1.09-1.09-3.09.91-2,2s3.09-.91,2-2ZM59.71,81.17c-.65,0-.65,1,0,1s.65-1,0-1ZM77.71,83.17c-.65,0-.65,1,0,1s.65-1,0-1ZM123.21,86.17c.07-.07.38-2.13-.5-2l-2.5,2.5-1,7.5,3-3.5c.52-2.33-1.19-4.35-1-4.5.24-.2,1.81.19,2,0ZM50.21,86.17c-.93-.77-5.63.21-5,2.5s2.01.68,2.5.5c.56-.2,1.33.17,1.5,0,.18-.18-.23-.97,0-1.5.19-.43,1.48-1.1,1-1.5ZM70.21,86.17c-.99-.99-2.95.77-3.5,1-.49.21-3.38.12-1.5,2,1.24,1.24,6.72-1.28,5-3ZM43.21,90.17c-1.09-1.09-3.09.91-2,2s3.09-.91,2-2ZM64.71,91.17c-.65,0-.65,1,0,1s.65-1,0-1ZM135.71,109.17c-.65,0-.65,1,0,1s.65-1,0-1ZM116.71,124.17c-.65,0-.65,1,0,1s.65-1,0-1Z"/>
      <path d="M177.21,26.17c-.45,1.2,1.7,3.32,1,4-.21.2-2.58-.72-4,1.5-.16.25.15.79,0,1-.45.64-4.2,4.41-4.5,4.5-.98.3-2.01-.77-2.5-1.5-.62-.93,2.54.25,2-1.5-1.26-.57-2.69,1.33-3,1-.87-.92.95-2.34,1.5-3,2.32-2.78,5.65-6.29,9.5-6Z"/>
    </g>
  </g>
</svg>