<?xml version="1.0" encoding="UTF-8"?>
<svg id="Layer_2" data-name="Layer 2" xmlns="http://www.w3.org/2000/svg" viewBox="0 0 150.22 178.17">
  <g id="Elements">
    <g id="Element">
      <path d="M3.09,115c-.63-.13-1.85.15-2,0-.44-.44-.48-7.9,2.5-7,.56.17,2.14,2.33,3,3,1.85,1.44,6.28,3.31,7.5,5.5,1.29,2.31,2.96,2.37,4,6s11.15,7.34,14.5,8.5c2.07.72,11.71,4.12,12.5,5.5.2.36-.52,2.31,1.5,1.5.44-.18.69-1,1-1,.45,0,3.88,4.26,5,5,1.61,1.07,4.38,1.44,6,2,1.7.59,11.04,3.54,11.5,4,.19.19-.19,1.81,0,2,.28.28,6.15.63,7.5,1,.55.15,3.7,2.83,4.5,2,.23-.24-.17-2.54,0-3.5.07-.39,1-.67,1-1,0-.18-2.05-2.22-2.5-2.5-2.21-1.4-5.9-2.1-8-3-6.06-2.61-8.58-3.25-15-5-.98-.27-4.13-2.81-5-3-2.09-.45-4.69-.34-7-1-3.14-.9-8.4-7.84-9-8-1.09-.3-2.91.3-4,0-.96-.26-4.14-4.64-5.5-5.5,0-2.06-2.73-2.46-2-5,.31-1.07,2.33-1.87,3.5-1.5.37.12.58.8,1,1,.31.14.78-.13,1,0,2.76,1.66,4.14,6.11,7,8,1.4.93,4.46,2.15,6,3,.63.35,2.82,2,3,2,.25,0,3.15-3,4-3,.32,0,.57.84,1,1,.56.2,1.33-.17,1.5,0,.13.13-.13,2.53,1.5,3,4.22,1.21,10.42,5.23,14,6,1.71.37,4.44-.43,6,0,.46.13,1.52,1.29,4,2,.53.15,1.33,1.67,2,2,1.71.84,1.95-1.62,1.5-2s-2.86.67-3-.5c-.22-1.86-.34-5.98,1.5-6.5.83-.23,4.45.28,4.5-1.5,0-.18-1.55-1.01-1-2.5-4.48-.18-3.45-6.53-9-5l-1.5-6c-3.27-.59,0,3.12-1,3-.18-.02-2.4-1.64-3-2-8.86-5.33-17.34-21.58-27-28-3.02-2-7.85-3.79-11-6-8.19-5.76-11.97-11.61-17.5-19.5-5.13-7.32-7.42-11.73-11-20-.93-2.15-3.62-3.65-3-6.5.99.31,2.49,1.69,3,2.5.68,1.08,1.32,3.98,2,5,2.34,3.51,4.12,4.94,6,9,1.05,2.26,9.23,11.67,11.5,13.5,1.09.87,2.25,1.44,3.5,2l-4-4.5c-2.43-5.09-3.96-11.54-7-16s-4.03-10.24-7-15l.5-4.5,2.5,4.5c.79,5.86,12.02,14.03,11,20-.07.38-1,.67-1,1,0,.4,4.09,4.79,5,6,1.8,2.38,5.24,3.35,7,6,.67,1.01,1.33,4,2,5,2.43,3.63,5.56,7.15,8,11,.4.64,2.94,2.33,3.5,2.5.88.26,2.33-.93,2.5-1.5.55-1.88-1.5-3.06-1-5-1.9-1.6-2.96-4.13-4-6-4.03-7.24-6.7-14.32-11-21-.67-1.04-3.84-4.44-4-5-2.23-7.75-5.74-12.96-9-20-1.75-3.78-3.48-6.98-5-11-.68-1.81-.02-3.09,2-2.5l1,4.5c1.44,2.62,5.4,7.92,6,10,2.74,9.56,12.27,20.36,16,30,1.74,4.48,3.85,7.8,6,12,1.69,3.29,3.54,5.96,5,9,2.6,5.4,3.59,4.33,7.5,7.5s7.09,8.07,11.5,11c.23-2.64-2.83-3.73-4-5.5-1.08-1.63-1.92-5.37-3-7-1.3-1.95-3.41-3.68-5-6-4.57-6.65-10.92-12.34-14-19-4.54-9.8-9.66-21.1-15-31-2.24-4.15-1.14-3.03-2-7-.32-1.46-2.22-5.13-3-8-.38-1.38-3.32-3.79-3-5,.21-.81,1.63-2.05,2.5-.5.46.82,1.69,2.81,1.5,3.5-.92,3.32,1.37,1.81,2,4,1.21,4.22,2.89,9.2,5,13,2.37,4.28,5,8.8,7,13,.66,1.39.85,3.96,3,4.5l-1-7.5c-1.01-2.53-5.74-6.09-6-7-.3-1.05-1.18-4.37-1-5,1.12-3.89-2.19-11.34-4-16-.19-.48.09-1.29,0-2-.1-.81-2.03-1.59,1-2.5l1,5.5c2.78,3.83,3.05,8.6,4,13,.19.85,2.51,3.84,3,5,.23.54-.17,1.33,0,1.5.34.34,4.66-.34,5,0,.19.19-.16,1.73,0,2.5.08.39,1,.67,1,1,0,.64-1.06-.3,0,3,1.35,4.18,3.32,7.96,5,12,.45,1.07,1.04,2.3,1,3.5,2.54-.61,2.36-4.47,2-6.5-.06-.35-.82-.57-1-1-.22-.54.17-1.33,0-1.5-.35-.35-4.02.94-3-1.5.18-.42.88-.62,1-1,.73-2.41-1.32-2.75-2-4-1.13-2.08-1.6-4.49-2-6-.89-3.31-1.82-10.07-3-12-1.05-1.73-1.29-2.39-1-4.5-3.54,1.34-1.17,2.59-1,3.5.3,1.58.91,3.41,1,4,.18,1.11.06,2.78,0,4-.08,1.63-.85,2.87-2,1.5-.35-.42.23-5.91,0-7.5-.07-.51-1.93-4.49-2-5-.42-2.9.3-6.49,0-9.5,2.92-.74,1.48,1.88,3.5,3,.47.26,1.31-.19,1.5,0,.22.22-.23,1.8,0,2.5,2.31,6.97,8.4,13.63,9,21l3,4.5c-.15-2.46.22-5.06,0-7.5-.03-.36-.96-.64-1-1-.36-3.46.29-6.77-1-10-1.13-2.82-2.77-2.2-2-5,.07-.26-.79-3.96-1-5-.08-.38-.89-.6-1-1-.38-1.37,1.44-2.86,3-2.5l1,5.5c3.32,6.83,7.78,12.92,10,20l3,2.5-1-7.5c-1.88-5.86-3.75-12.97-5-19-1.08-5.22,2.01-3.08,2-2,0,.33-1,.67-1,1,0,.45,5,4.24,5,7,0,.41-2.01.94,1,3,.05,1.05-1.78.27-2,.5-1.02,1.05.88,3.13,1,3.5,2.63,8.48,3.88,18.71,7,27l1,5.5c2.76.29,3.54-2.22,3-4.5-.39-1.66-2.4-4.37-3-6-2.01-5.43-1.35-11.6-3-17l1-5.5c-.88,2.24,1.75,4.37,2,5.5.65,2.91.32,7.77,1,11,.08.39.93.62,1,1,.24,1.27-.89,3.7,1,3.5-.15-2.12.22-4.42,0-6.5-.67-6.33-2.94-15.53-2-21,.45-2.61-.93-3.56-1-4-.34-2.3.24-5.11,0-7.5l3,3.5c0,.3-.79.56-1,1-1.56,3.33.48,6.82,1,10,1.03,6.24.5,12.98,2,19,.1.4.93.62,1,1,.23,1.31-.33,5.11,0,5.5.38.45,2.86.2,2-1.5-.22-.44-.93-.66-1-1-.48-2.38.86-5.16-1-7.5l4,4-1-4.5c1.3-6.13-.43-15.07-.5-22.5l-.5-4,3,4.5c.21,4.35.43,7.4,1,12,.25,2.04.1,2.64,2,4v5.5c1.81.21.88-2.23,1-3.5.09-.98-.11-2.02,0-3,.04-.37,1-.67,1-1V6c1.03-.42,3.01.95,3,1.5,0,.34-.94.62-1,1-1.79,10.79,1.08,26.44,0,38-.03.36-.95.63-1,1-.18,1.45-.24,4.65,0,6,.07.37.87.59,1,1,.49,1.55-.28,3.79,3,3.5l1-4.5c1.93-2.39.73-6.69,1-10,.26-3.14.31-9.83,1-13,.07-.34,1.93-2.66,2-3,1.29-5.96,2.3-14.43,1-20-.79-3.37,2.52-6,4-4.5.33.34-.15,7.74,0,9.5.11,1.33.68,6.56,1,8,.11.49,2.83,3.69,2,4.5-.13.12-2.77.12-3.5,0-1.12-.18-3-1.52-3.5-1-.57.59.27,3.66,1.5,4l5.5,1-4,1.5c.76,1.04,2.41,2,3,3,1.02,1.71.82,5.26,1,5.5.2.26,2.98-.86,2,2-6.58-2.81-4.13-.67-5,2.5-.37,1.35-3.36,1.58-4,3l2.5-.5c1.6,1.14,1.83,2.55,1.5,4.5-.07.38-1,.67-1,1,0,.29,1.83,4.29,2,5,.65,2.78-1.61,5.14-2,7-.25,1.19.29,2.93,0,4-.19.68-3,2.53-3,3,0,.33,1,.67,1,1s-.93.61-1,1c-.27,1.53-.11,3.78,1.5,4.5,2.01.9,1.24-1.94,2.5-2.5-.84-3.86,1.39-7.04,2-10,.25-1.2-.43-5.5,1.5-5.5.33,0,.67,1,1,1,1.44,0,1.3-2.88,1.5-3.5,1.53-4.8,2.23-9.9,4-15,.18-.52,1.92-2.64,2-3,.31-1.43-.25-3.47,0-5,.06-.38,1-.67,1-1,0-.29-2.91-1.71-2-5,.19-.7,2.81-2.3,3-3,.23-.84-.21-2.11,0-3,.09-.37.82-.57,1-1,.91-2.18-1.75-1.29-2-1.5-1.26-1.05,1.89-.89,2-1,.17-.17-.22-.96,0-1.5.65-1.56,1.54-2.57,1-5l3-2.5c.48,1.86-.71,2.89-1,4.5-.85,4.8.41,8.64-1,13-1.12,3.48-.73,9.33-2,14-.72,2.66-4.38,4.55-2,8-1.12,2.05-3.03,3.97-4,6-1.24,2.61,4.23.39,3,3-.3.64-1.6,1.3-2,2-.92,1.61-6.21,13.24-6,14,.11.4.91.62,1,1,.92,3.98-4.39,8.23-4,12.5l5-4.5c2.35-5.4,5.27-10.39,8-15,3.17-5.36,2.28-6.35,3-12,.05-.37.97-.64,1-1,.35-3.84-.74-9.7,0-13,.35-1.57,2.65-1.57,3,0s.17,6.18,0,8c-.03.36-.97.64-1,1-.33,4.42.61,9.83,0,14-.05.37-.91.6-1,1-.21.89.23,2.16,0,3s-4.94,4.54-6,6c-.98,1.35-7.73,15.46-8,17-.49,2.78.35,6.56,0,9.5,1.28-.66,3.25-2.37,4-3.5,1.04-1.57,1.44-4.8,2-6,3.17-6.74,6.13-12.66,9-19,.77-1.71,2.92-4.71,3-5,1.49-5.41-.37-22.74,0-30,.1-1.92-.48-3.19,1.5-4.5,2.51-.44,1.35,1.92,1.5,3.5.36,3.72,1.49,7.57,2,11,.32,2.18-.66,10.05-1,13-.04.37-.94.62-1,1-.39,2.59-.27,3.41-1,6-1.7,6-4.47,11.27-6,17-.71,2.67-.05,3.74-1,6-1.02,2.45,2.48,1.11,3,1.5.26.2-.86,2.98,2,2-.12-1.19-4.23-3.9-3-5,.17-.15,1.66.32,3-.5.65-.4,5.89-5.59,6-6,.39-1.43.47-2.36,1-4,.95-2.95,1.31-6.36,3-9,.98-1.54,4.64-4.05,6.5-3.5.19.06,2.25,2.1,2.5,2.5.14.22-.15.72,0,1,.36.67,2.16,1.61.5,2.5l-3.5-4c-.16,1.43.25,3.16,0,4.5-.03.17-.74,2.19-1,3-.15.48-1.36.69-1,2,.5,1.81,5.81,1.3,5,4-.12.4-1.75,1.81-2,1.5-.33-.41.67-2.8-.5-3-1.06.95-1.82,2.29-2.5,3.5-3.19,5.68-6.5,9.06-10,14-.6.84-.71,3.79-2.5,1.5-.51,1.28-2.41.9-2.5,1-.1.11-.11,2.89,0,3,.22.22,2.54-.42,2,.5-1.08,1.84-2.87,1.37-3,1.5-.84.84,1,2.35,1,2.5,0,.39-1.63,5.62-2,7-.21.77-3.09,3.42-1.5,4.5,1.05-.95,1.83-2.29,2.5-3.5.31-.56.69-2.43,1-3,4.59-8.4,14.51-17.29,17-26,.49-1.7,2.93-2.43,2,1-.12.44-1.88,2.56-2,3-.23.85.23,2.15,0,3-.5,1.79-5.44,6.84-7,9-2.84,3.94-6.2,10.62-9.5,12.5-2.26,1.29-1.08,2.99-1.5,4.5-.66,2.38-5.57,2.45-6,4-.23.84.21,2.11,0,3-.77,3.29-1.92,7.7-3,11-.13.4-.87.6-1,1-1.29,4.05,5.53,5.15,8,1,.13-.22-.14-.69,0-1,3.51-7.56,7.86-13.98,14-20,.2-.96,2.82-5.31,3.5-5.5,1.47-.4,7.5-.17,7.5,1.5,0,.33-1,.67-1,1,0,.4,2.74,1.57,2,4-.12.41-.91.62-1,1-.21.89.23,2.16,0,3-.35,1.27-2.28,2.97-3,4-5.83,8.37-13.31,15.9-19,24-1.06,1.51-3.51,4.21-4,6-.23.83.2,2.09,0,3-.09.39-.94.63-1,1-.18,1.23-.18,3.77,0,5,.2,1.34,2.44,5.43,2,7-.12.41-.98.66-1,1-.01.18,2.09,2.38,1,3.5-.74.76-2.48-1.28-3.5-1-3.79,1.06-2.4.38-5,0-1.8-.26-4.5.41-6,0-.27-.07-2.99-2.88-3.5-3.5-.18-.22.15-.83,0-1-1.15-1.29-4.32-4.8-5.5-5.5-.22-.13-.69.14-1,0-.95-.44-.73-1.21-3-1-3.96.36-1.68,2.74-1.5,4.5.12,1.18.25,4.08,0,5-.22.82-2.47,2.06-3,1.5-.12-.13-.59-2.76-1-3.5-.57-3.05-.46-5.96-1-8-.17-.64.2-1.43,0-2-.13-.39-.83-.59-1-1-.22-.54.17-1.33,0-1.5-.25-.25-2.56.21-3.5,0-1.37-.31-6.1-3.3-8-4-3.81-1.42-7.39-2-11-3-.55-.15-1.45-1.85-2-2-1.6-.44-2.8-.3-5-1-4.18-1.34-7.76-1.95-12-3-4.6-1.14-8.86-2.82-13-4-4.17-1.19-4.87-2.75-8-4-3-1.2-7.61-1.55-9.5-4.5-4.38-6.86-13.37-11.55-14-20.5.47.1,1.06-.18,1.5,0,1.53.61,1.42,3.72,3.5,4l-2-5.5-3.5-3.5.5,5ZM105.09,22c.64-.76-.33-2.8-1-2-.64.76.33,2.8,1,2ZM48.09,28c.7-.82-1.48-2.77-1-4-2.45-.05.27,2.31,0,4,.33-.08.89.13,1,0ZM63.09,43c-.08-1.98-1.54-3.24-1-5.5.17-.71,1.56-1.5,1-4l-5-8.5c-.8,3.01,1.47,5.81,1,8.5-.56,3.22.52,6.4,2,10,.22.54-.17,1.3,0,1.5.28.33,1.78-1.57,3-1,.45,1.82-3.04.16-2,2.5.53,1.2,2.2,1.84,3.5,1.5l.5-5.5c-.62-.55-2.32-4.35-3-3.5-.8.99,2.69,3.86,0,4ZM48.59,29c-.65,0-.65,1,0,1s.65-1,0-1ZM89.09,35c.16-.16.26-4.44-.5-4-2.99,1.75-1.24,5.74.5,4ZM51.09,37c1-1.2-1.66-5-2.5-5-1.13,0,1.1,2.69,1.5,3.5.06.13.08,2.6,1,1.5ZM67.09,36c.64-.76-.33-2.8-1-2-.64.76.33,2.8,1,2ZM89.09,39c.64-.76-.33-2.8-1-2-.64.76.33,2.8,1,2ZM51.59,38c-.65,0-.65,1,0,1s.65-1,0-1ZM102.59,39c-.65,0-.65,1,0,1s.65-1,0-1ZM89.09,41c-.15-.15-3.45-.27-3,.5,1.76,3.01,4.42.92,3-.5ZM70.09,47c1-1-.72-2.81-1-3.5-.08-.21-.09-2.59-1-1.5-.56.67-.28,7.28,2,5ZM81.59,44c-.65,0-.65,1,0,1s.65-1,0-1ZM88.09,44c-.16.2.2.94,0,1.5-.15.43-1,.68-1,1,0,1.48,3,1.48,3,0,0-.32-.85-.57-1-1-.1-.27-.1-2.57-1-1.5ZM60.09,54l-.5-5-2.5-4,1,5.5,2,3.5ZM83.09,49c-.11-.11-2.96-.39-3,.5,1.87,1.44.65,4.07,1,6,.14.75,2.25,4.08,2,5-.11.41-.99.67-1,1-.01.55,1.97,1.92,3,1.5-2.01-3.11-.5-7.11-1-10.5-.05-.36-.89-.59-1-1-.2-.74.21-2.29,0-2.5ZM68.09,50c-1.42-1.42-3.51,1.24-.5,3,.77.45.65-2.85.5-3ZM100.09,54c.64-.76-.33-2.8-1-2-.64.76.33,2.8,1,2ZM49.09,57c.83-.83-1.67-3.78-3-4-.96,2.01,1.81,5.19,3,4ZM64.09,55c.64-.76-.33-2.8-1-2-.64.76.33,2.8,1,2ZM77.59,53c-.65,0-.65,1,0,1s.65-1,0-1ZM78.09,59c1.46-1.46-2.75-6.25-4-5-1.46,1.46,2.75,6.25,4,5ZM54.09,56c-1.42-1.42-3.51,1.24-.5,3,.77.45.65-2.85.5-3ZM68.09,61c.11-.11.1-2.88,0-3-.91-1.09-.92,1.32-1,1.5-.19.43-1.49,1.1-1,1.5.08.07,1.93.07,2,0ZM100.09,64c-.51-1.64,1.34-2.22,1-3.5s-3.45-2.08-4-1.5c-.17.18-.18,4.82,0,5,.19.19,2.19-.12,3,0ZM88.09,63c1.03-1.03-.32-3.39-2-.5-.42.73,1.82.68,2,.5ZM72.09,62c-2.98-.59-1.92,1.36-2,3.5l3,4.5-1-8ZM93.09,62c-1.09-1.09-3.09.91-2,2s3.09-.91,2-2ZM68.09,71l-3-7,1,4.5,2,2.5ZM110.09,68c.14-.14.13-3.85,0-4-1.08-1.29-.84,1.89-1,2.5-.09.37-1.5,1.09-1,1.5.08.07,1.93.07,2,0ZM94.09,70c1.13-1.02-3.95-6.13-5-5-.31.33-.27,3.73,1,4.5.93.57,3.67.8,4,.5ZM81.09,81c.4-.47-.8-3.59,1-4.5-.34-2.05.48-5.23,0-7-.88-3.21-6.27-3.01-5,1,.13.41.91.62,1,1,.21.9-.23,2.16,0,3,.12.43,2,2.82,2,3,0,.12-.77.49-1,2-.32,2.07,1.57,2,2,1.5ZM86.09,69c.64-.76-.33-2.8-1-2-.64.76.33,2.8,1,2ZM33.09,71c.64-.76-.33-2.8-1-2-.64.76.33,2.8,1,2ZM35.09,79c1.19-1.12-3.73-5.05-4.5-6l-6.5-2c1.67,3,4.54,4.68,7,6.5.93.69,2.8,2.63,4,1.5ZM60.59,71c-.65,0-.65,1,0,1s.65-1,0-1ZM108.09,72c-2.73-2.24-2.3,4.55-1,3,.17-.21-.23-.97,0-1.5.19-.43,1.49-1.1,1-1.5ZM75.59,74c-.65,0-.65,1,0,1s.65-1,0-1ZM89.59,74c-.65,0-.65,1,0,1s.65-1,0-1ZM99.09,78c1.05-1.05-1.36-4.8-2-4-.71.88,0,6,2,4ZM75.59,76c-.65,0-.65,1,0,1s.65-1,0-1ZM106.09,78c.64-.76-.33-2.8-1-2-.64.76.33,2.8,1,2ZM89.59,77c-.65,0-.65,1,0,1s.65-1,0-1ZM100.09,83c.73.9,1.76-1.97,2-2.5.21-.44,1-.7,1-1,0-1.31-3.39-2.23-4,0-.36,1.3.77,1.45,1,2s-.17,1.29,0,1.5ZM76.09,80c-2.66-2.66-2.66,5.66,0,3,.11-.11.11-2.89,0-3ZM92.09,83c-2.5,1.4-3.85,5.49-4.5,8-.32,1.22-.66,4.09,1,4,1.46-.08,1.94-5.76,3.5-6.5v-5.5ZM81.09,105l-1-4.5c-2.9-3.6-3.68-8.81-6-12-.63-.87-1.95-2.17-3-2.5-.22,5.54,2.05,10.95,6,14.5.51,1.79,1.25,4.81,4,4.5ZM60.09,89c-1.09-1.09-3.09.91-2,2s3.09-.91,2-2ZM96.09,90l1,4.5c-.13,4.23.99,5.39,0,9-.36,1.31.85,1.52,1,2,.35,1.09.32,2.86,1,4,.28.48,3.25,3.5,3.5,3.5.32,0,1.83-2.05,2.5-2.5-.5-1.94,1.55-3.13,1-5-.15-.52-1.62-1.31-2-2-1.6-2.92-3.43-7.04-4-10l-4-3.5ZM130.09,97c1.7-.26,1.81-1.88,2.5-3,.93-1.51,2.47-1.02,0-3-.8.51-.5,4.04-2,4-.27,0-.59-.75-1-1l.5,3ZM59.09,100c1.54-1.8-3.85-7.15-5-6-.8.8,1.18,2.9,2,3.5-.45,1.62,2.41,3.19,3,2.5ZM86.09,99c.81-1-1.58-3.52-2-3-.81,1,1.58,3.52,2,3ZM116.09,102c-.56.56-.09,5.53,1.5,6,1.71.5,5.21-2.44,5.5-3.5.17-.6.15-4.33,0-4.5s-3.03,1.85-4.5,1c-.51,1.28-2.39.89-2.5,1ZM87.09,102l1,6.5c.91.98,2.54,5.06,4.5,4.5,1.28-.37,1.55-1.6,1-3-1.3-3.28-3.37-6.17-6.5-8ZM76.09,108c1.18-3.93-4.13-5.33-3-2.5.22.56,2.15,2.29,3,2.5ZM65.09,107c.64-.76-.33-2.8-1-2-.64.76.33,2.8,1,2ZM70.09,109c-2.66-2.66-2.66,5.66,0,3,.11-.11.11-2.89,0-3ZM109.09,111c-.19.2-.18,4.85,0,5.5.05.17,2.32,2.49,2.5,2.5,1.23.04,3.02-3.64,2.5-5.5-.34-1.19-4.08-3.51-5-2.5ZM96.59,112c-.25,0-3.43,3.26-3.5,3.5-1.56,5.48,4.96,5.51,6,2,.4-1.37-1.71-5.53-2.5-5.5ZM144.09,118c.19-.24.24-3.44-.5-3-2.8,1.64.21,3.36.5,3ZM120.09,117c-2.73-2.24-2.3,4.55-1,3,.17-.21-.23-.97,0-1.5.19-.43,1.49-1.1,1-1.5ZM90.09,124c.14-.18.16-3.9,0-4.5-.11-.39-1.75-1.81-2-1.5-.14.18-.16,3.9,0,4.5.11.39,1.75,1.81,2,1.5ZM103.09,118c-.15.14-.27,2.93-2,3.5-1.18,2.92,2.32,8.42,5.5,7.5,1.85-.54,1.03-3.57,2.5-4.5,1.53-2.65-4.17-8.15-6-6.5ZM142.09,124c-.18-.17-3.81-.74-3,1.5-.26.54-2.54,2.06-2,2.5.86.7,2.74-1.49,4-1-.57-1.26,1.33-2.69,1-3ZM94.09,129c-.45.44,1.02,3.35,1.5,4,1.73,2.35,4.35,3.14,6.5.5-.86-1.47-6.52-5.93-8-4.5ZM85.59,135c-.65,0-.65,1,0,1s.65-1,0-1ZM96.09,140c-.1-.1.13-1.08-1-2.5-3.8-4.76-4.24,2.94-1.5,4.5.36.2,2.31-.52,1.5,1.5-.36.9-2.42,1.47-2,3,.08.31,4.19,4.42,4.5,4.5,2.07.57,3.89-5.59,6.5-1.5.13.2-.15.68,0,1,.2.43.9.63,1,1,.23.82-.19,2.08,0,3,.08.38.89.6,1,1,.36,1.32-.91,1.6-1,2-.66,2.93.94,5.7,2,8,.13.27.09.63,0,1,1.95,1.42,2.42,4.26,4.5,5.5.22.13.69-.14,1,0,.43.2.64.92,1,1,.71.16,4.34.16,4.5,0,.19-.19.14-4.58,0-5.5-.88-5.74-3.87-8.22-2-15,.09-.33-1.31-5.26-2-6l-1-5c-1.76-1.65-3.93-2.34-5.5-4.5-2.65-1.09-9.73,4.77-11.5,3ZM96.09,154c-4.99-.9-2.76,2.5-2,6,2.19.32,3.55-1.61,3-3.5-.15-.52-1.54-.86-1-2.5Z"/>
      <path d="M35.09,58c.17.17-.22.96,0,1.5s1.99,2.51,1,3.5c-2.38,2.38-1.8-2.59-2-3.5-.08-.36-1.48-1.06-1-1.5.07-.07,1.93-.07,2,0Z"/>
      <path d="M113.09,31l-2,2c-.26-2.11-.11-2.26,2-2Z"/>
      <path d="M15.09,24c-2.11.26-2.26.11-2-2l2,2Z"/>
      <path d="M1.59,121c.65,0,.65,1,0,1s-.65-1,0-1Z"/>
      <path d="M145.59,76c1.42,0-1.5,2.92-1.5,1.5,0-.11,1.39-1.5,1.5-1.5Z"/>
      <path d="M112.59,25c.65,0,.65,1,0,1s-.65-1,0-1Z"/>
      <path d="M103.09,103c1.09,1.09-.91,3.09-2,2s.91-3.09,2-2Z"/>
    </g>
  </g>
</svg>