<?xml version="1.0" encoding="UTF-8"?>
<svg id="Layer_2" data-name="Layer 2" xmlns="http://www.w3.org/2000/svg" viewBox="0 0 179.2 186.62">
  <g id="Layer_1-2" data-name="Layer 1">
    <g id="Element">
      <path d="M170.15,1.42c-3.81,5.29,4.13,1.35,5,4.5.36,1.31-1,1.75-1,2,0,.64,3.7,2.42,2,8-.59,1.95.95,2.71,1,3,.73,4-2.6,7.04-2,9,1.83,6-.03,9.9,1,15,.08.39,1.36.68,1,2-.15.55-1.84,1.44-2,2-.38,1.32,1.38,1.68,1,3-.2.69-3,2.53-3,3,0,.33.89.59,1,1,1.27,4.77.28,8.64,1,13,.5,3.01-1.69,2.73-1,5,1.09,3.6-.68,10.02,0,14,.45,2.61-.82,3.24-1,4-.68,2.9,2.93,6.77,2,12-.06.36-1.93,3.64-2,4-.82,4.52,1.63,4.71,2,6,.32,1.12.32,2.86,1,4,.75,1.25,3.43,2.43,3,4-.11.41-1,.67-1,1s1,.67,1,1-.89.59-1,1c-.75,2.83-2.72,4.72-3,6-.54,2.52.54,6.49,0,9-.18.83-2.82,4.17-3,5-.43,1.98.37,4.92,0,7s-2.3,6.21-3,9c-.57,2.3-2,9.07-2,11,0,.33.88.58,1,1,.66,2.28-1.03,2.63-2,4-.14.2.16.74,0,1-.99,1.56-3.45,1.7-4.5,3.5-1.93.12-4,2.61-6,2-.41-.12-.62-.91-1-1-.9-.21-2.19.24-3,0-.77-.22-1.75-.64-3-1-1.01-.29-2.31-3.46-4-3-.27.07-3.26,3-4,3-.18,0-2.64-1.92-3-2-2.23-.48-5.97.56-8,0-.9-.25-3.64-4.17-5-5-.33-.2-2.67-1.09-3-1-.51.15-1.31,1.6-2,2-1.25.73-3.68,1.29-5,2-5.59,3.01-8.84,3.86-15,6-.52.18-2.64,1.92-3,2-1.42.31-3.45-.23-5,0-.38.06-.64.96-1,1-1.8.19-5.27.25-7,0-.26-.04-3.17-.77-4-1-.43-.12-2.82-2-3-2-.3,0-.56.79-1,1-.32.15-.8-.13-1,0-3.59,2.26-2.45,4.97-9,4-3.15-.47-1.86-1.14-6,0-1.31.36-1.52-.85-2-1-.59-.19-1.37.18-2,0-2.26-.65-1.1-4.05-1.5-5.5-.27-.97-2.83-1.43-2-5,.32-1.38,2.79-5.03,3-6,.23-1.07.37-10.13,0-10.5-.11-.11-2.68-.4-3,.5-.11.31.12.74,0,1-.19.43-.92.64-1,1-.48,2.25.42,5.64,0,8-.07.37-.88.59-1,1-.47,1.65-1.23,7.38-1,9,.02.18,1.9,1.79-.5,2.5-1.51.45-2.28-1.8-3-2-.85-.23-2.15.23-3,0-1.63-.45-6.61-4.38-8-4-3.61.99-1.44,2.69-7,1-2.1-.64-3.84,1.74-5,2-1.36.3-4.52-.57-6-1-1.4-.4-.03-1.82-3-1-1.6.44-2.73-2.29-4-3-.47-.26-1.31.19-1.5,0-.17-.17.22-.96,0-1.5-.17-.41-.86-.61-1-1-.21-.58.19-1.38,0-2-1.75-5.6-3.1-13.39-2-20,.42-2.51-.08-4.84-1-8-.12-.4-.91-.62-1-1-.58-2.49.88-3.43,1-4,.19-.95-.24-3.26,0-3.5.19-.19,1.03.27,1.5,0,3.91-2.22-.52-5.04-1.5-7.5-1.27-3.19-.27-6.64-1-10-.08-.36-2-2.82-2-3,0-.34.94-.62,1-1,1.25-7.5.46-11.76-1-19-.08-.39-.94-.63-1-1-.72-4.82,1.25-5.24,2-8,.63-2.32,1.56-5.15,2-7,.22-.93-.25-3.25,0-3.5.33-.33,4.25.28,5.5,0,.51-.11,2.84-1.78,3.5-2.5-.51-1.93,1.56-3.14,1-5-.14-.48-1.92-2.62-2-3-.68-3.14-.98-5.8-2-9-1.43-4.49-2.53-9.27-4-14-1.91-6.13-4.34-12.51-3-20,.03-.17.71-1.98,1-3,.15-.51,1.62-1.31,2-2,.26-.47-.19-1.31,0-1.5.17-.17,3.18-.22,4.5-1,.39-.23,2.44-2.31,2.5-2.5.21-.72-.22-2.24,0-2.5.28-.33,1.78,1.57,3,1l-2-2.5c2.08-2.05,3.24-4.24,6.5-3.5.36.08.57.82,1,1,.54.22,1.33-.17,1.5,0,.19.19-.19,1.81,0,2,.11.11,2.89.11,3,0,.19-.19-.19-1.81,0-2,1.08-1.08,9.18-.71,11.5-1,.37-.05.61-.93,1-1,2.3-.43,3.96.3,6,1,1.19.41-1.17,1.71-.5,3,2.61-.29,1.76-3.73,2-4,.49-.56,1.99,1.86,2.5,2,.8.22,2.48-1.43,5-1,5.9,1.01,15.13-.89,22,1,1.32.36,1.56-.88,2-1,3.58-.99,2.23,1.73,2.5,2,.84.84,2.35-1,2.5-1,.37,0,1.63,2,2,2,.33,0,.62-.94,1-1,3.83-.64,5.71-.95,9,0,1.32.38,1.68-1.38,3-1,1.6.46,1.39,2.86,1.5,3,.41.5,1.16-.93,1.5-1,4.33-.86,15.11-.07,19,1,.7.19,5-1.75,6-2,5.73-1.41,12.17-.79,18-2,2.89-.6,2.41-2.16,6-1s7.51.88,11,2c.48.15.69,1.36,2,1,.28-.08,3.17-2.95,4-3,.18-.01,1.76,1.78,3.5,1ZM42.65,3.42c-.65,0-.65,1,0,1s.65-1,0-1ZM55.15,3.42c-1.63-1.63-2.87,1.92-2,3,.46.57,2.83-2.17,2-3ZM21.15,6.42c.64-.76-.33-2.8-1-2-.64.76.33,2.8,1,2ZM106.15,5.42c-.76-.64-2.8.33-2,1,.76.64,2.8-.33,2-1ZM48.15,10.42c.64-.76-.33-2.8-1-2-.64.76.33,2.8,1,2ZM51.65,8.42c-.65,0-.65,1,0,1s.65-1,0-1ZM146.15,16.42l-1.5-8c-1.35,1.39-2.98,2.22-2.5,4.5l4,3.5ZM38.15,12.42c-.17-.17-.96.23-1.5,0-.74-.31-3.5-2.68-3.5-1.5,0,.33,4.06,4.44,5,3.5.07-.07.07-1.93,0-2ZM26.15,16.42c.64-.76-.33-2.8-1-2-.64.76.33,2.8,1,2ZM52.15,16.42c1.03-1.03-.32-3.39-2-.5-.42.73,1.82.68,2,.5ZM29.65,17.42c-.65,0-.65,1,0,1s.65-1,0-1ZM113.15,26.42c-.27-.27-.27-3.98,1-4.5-.55-.42-.97-1.16-1.5-1.5-.45-.29-2.49-.71-3-1-.92-.53-1.59-2.43-3-2-.47.14-2.43,3.18-2.5,3.5-.31,1.45.32,3.57,0,5-.5,2.24-4.36,4.95-6,7-.9,1.13-.77,1.92-1.5,2.5-1.65-1.3-1.38-1.23-1-3,.19-.87.33-1.93.5-2.5.21-.73,2.81-2.3,3-3,.36-1.31-.85-1.53-1-2-.55-1.77,1.28-3.24,1-3.5-1.31-1.24-6.27,5.1-7.5,6-.84-.49-.61-2.59-2-3-.95-.28-2.5,1.18-2.5,1.5,0,.29,2.82,3.68,2,4.5-.19.19-1.81-.19-2,0-.23.23-.14,5.44,0,6.5.7,5.44,5.11,12.64,6,18,.25,1.51-.35,3.71,0,5,.15.55,1.85,1.45,2,2,.96,3.5-.95,6.94,0,11,.43,1.84-1.08,5.39-2,7-1.13,1.97-3.49,4.14-5,6-5.21,6.45,2.33,2.37,3,0,1.59-5.59,7.19-10.04,8-13,.68-2.49-1.68-4.16,3-3.5.98-2.86-1.8-1.74-2-2-.12-.16-1.05-3.31-1-3.5.11-.41,1-.67,1-1s-.93-.61-1-1c-.81-4.65.42-2.93,2.5-3.5.39-.11.59-.87,1-1,.59-.19,1.37.18,2,0,1.7-.49,1.24-2.6,1.5-3.5.21-.72,2.81-2.3,3-3,.23-.85-.23-2.15,0-3,.19-.71,2.88-2.52,3.5-3.5,1.94,1.58-2.5,3.87-2.5,4.5,0,.68.69-.08,0,3-.5,2.25,1.3,5.91-2,4-.5-.99-1.92.72-2,1-.73,2.53,1.76,3.16,2,4,.53,1.88-.71,2.83-2,4,.68,1.39-1.66,3.69-1,4.5.47.57,2-1.86,2.5-2,.85-.23,2.15.23,3,0,2.25-.62,1.11-4.07,1.5-5.5.67-2.44,10.15-9.88,7-14l3.5-5.5c1.62.97-1.48,4.13-1.5,4.5,0,.07.41.2.5.5.7,2.24-.65,1.99-.5,4l4-4.5c-.23-1.85,2.51-2.26,2-4.5.83.07,1.88-.44,2,.5.27,2.21-.54,2.05-1,3-1.27,2.62-2.09,2.83-3,6-.11.38-4.43,2.93-5,5-.23.85.23,2.15,0,3-.15.56-3.09,2.27-2,3.5.28.32,2.68-1.92,3-2.5,1.25-2.25,1.08-.8,2-3,.56-1.33,2.39-2.82,2-4.5,1.17.48,3.28-1.7,4-1,.85.83-2.34,4.33-2,5.5.05.17,2.32,2.49,2.5,2.5s1.02-1.55,2.5-1c.78-1.75-1.01-3.32-1-3.5.02-.35.94-.62,1-1,.21-1.27-.29-5.2,0-5.5,2.1-2.16,1.87,1.87,2,2,.19.19,2.19-.12,3,0l1-5c1.79-.4.72,1.74,1,2,1.06.97,4.34-3.45,6-2,1.85,1.62-2.14,2.27-2.5,3-1.55-.27-2.65.17-3.5,1.5-1.05,1.65-.62,3.61-1,5-.35,1.26-4.63,3.18-6,5-1.07,1.42-2.15,2.87-3.5,4.5-3.2,3.85-.29,3.58,4,3,.8-.11,3.65-.71,5-1,1.11-.24,3.65-2.9,4-3,4.51-1.29,8.76-4.91,12-9,.78-.99.99-2.67,2.5-3.5h-4c-1.49.59-6.62,4.86-8,3.5-.71-.7.27-2.55,1-3.5,3.42-4.45,5.46-6.51,8-12,.28-.6,3.93-6.11.5-4.5-1.73.81-1.43,4.55-4.5,4-.19-2.36,5.37-9.58,4-11-1.03-1.07-3.05.69-4,1.5-1.06.9-5.11,5.5-5.5,5.5-.68,0-3.3-4.47-5-4-.3.08-1.47,1.83-1.5.5,0-.24,1.38-.72,1-2-.6-2.04-3.31-1.17-4.5-1.5-2.31-.63-6.49-4.86-7-5-.85-.23-2.15.23-3,0-.68-.19-2.94-3.61-3.5-3-.19.2.26,1.03,0,1.5-.66,1.18-5.57,5.94-7,4.5ZM67.15,18.42c-.76-.64-2.8.33-2,1,.76.64,2.8-.33,2-1ZM48.15,25.42c-.76-.64-2.8.33-2,1,.76.64,2.8-.33,2-1ZM15.15,28.42l4.5,7c.61-1.05-1.01-2.71-1.5-3.5-.82-1.33-1.43-3.1-3-3.5ZM50.15,30.42c-2.09-2.42-2.26,3.18-2,4.5.3,1.48.66,3.15,1,5,.04.2,2.01,2.36,1,3.5-.14.15-3.06-1.94-4-1-1.09,1.08,1.01,3.32,1,3.5-.03.51-2.41,1.47-2,3,.1.37,1.5,1.09,1,1.5-.65.54-5.07-1.17-4,1.5.91,2.28.18.91,0,2-.31,1.87.42,9,0,9.5-1.11,1.32-2.73-.57-2-2.5,1.35-3.57.31-2.27,0-4-.76-4.28,1.56-7,2-10,.36-2.45-.25-5.45,0-8-1.29-.72-.97-4.42-2.5-4.5-1.86-.09-1.31,4.45-1.5,5.5-.07.38-.91.61-1,1-.78,3.35,2.78,5.65,2,9-.09.4-.95.63-1,1-.23,1.53.35,3.72,0,5-.11.39-1.75,1.81-2,1.5-.31-.38.19-4.19,0-5.5-.06-.37-.93-.62-1-1-.37-2,1.01-4.64-2-5.5-.4,2.4,1.59,4.01,1,6.5-1.23,5.16-3.17,8.74-2,13,.36,1.32-.91,1.6-1,2-.4,1.8.28,4.52,0,6.5-1.93.2-.7-2.26-1-3.5-.09-.39-.89-.6-1-1-.35-1.33-.83-2.37-1-3-.36-1.35.72-2.95-1-4-.92-.56-1.87.53-2,1-.29,1.06.84,1.46,1,3,.77,7.55.85,8.91,3,16,.6,1.97-1,2.83-1,3,0,.53,3.78,3.21,4,4,.23.84-.21,2.11,0,3,.09.39.93.62,1,1,.22,1.19-.15,2.72,0,4-.4.84-3.19,4.31-3,4.5,1.99,2,2.78-3.9,3.5-4,1.73,2.68,4.22,4.96,5.5,7.5.24.48-.19,1.33,0,2,.22.77,2.42,1.46,2,3-.77,2.78.44,2.05,1,4,.37,1.29-1.48,2.08-1,2.5,2.21,1.94,1.87-1.87,2-2,.1-.1,2.26-.93,2.5-1,.73-.21,2.29.21,2.5,0,.17-.17-.22-.96,0-1.5.65-1.56,1.54-2.57,1-5,1.22-1.09,3.4-6.17,4.5-6.5,2.79-.83,2.79.55,2.5,3-2.42-1.24-5.87,7-5,8,.11.13,2.89-1.18,3-1.5,1.16-3.34,1.79-2.72,4.5-3.5,2.87-.82.5-3.27.5-3.5,0-.34,2.19-5.32,2-6-1.64-5.96.05-3.54,2-8,.24-.56-.24-1.44,0-2,.81-1.87,3.07-3.28,3-5.5,3.59-.71,2.67,3.6,3,4,.94,1.15,3.62-5.45,4-6.5.66-1.82.59-2.5,1-4,.12-.44,1.92-2.62,2-3,.41-1.87.35-11.95,0-14-.07-.39-1.55-.9-1-2.5-1.63-.29-.79,2.48-2.5,3-.88.27-2.35-.95-2.5-1.5-.84-3.11.4-10.1,0-14-.04-.36-.94-.62-1-1-.23-1.53.35-3.71,0-5-.22-.82-2.69-1.57-2-3.5-3.39-.72-1.21,1.89-2.5,4-.34.55-1.5,1.21-1.5,1.5,0,.33.93.62,1,1,.45,2.65-.53,4.4-3,5.5.34-1.76-1.5-3.31-2-4.5-.23-.54.18-1.32,0-1.5-.92-.92-4.44,1.56-5,1-.22-.22.23-1.8,0-2.5-.37-1.13-2.02-3.1-3-4-.41-.73-.88-3.36-1-3.5ZM33.65,43.42c-.65,0-.65,1,0,1s.65-1,0-1ZM121.15,68.42c.63.69,3.44-.9,3-2.5l2-3.5c-1.88-.35-.3,1.59-1.5,2-.41.14-.67-.1-1.5.5s-2.78,2.64-2,3.5ZM158.15,69.42c.29.36,3.3-1.36.5-3-.74-.44-.69,2.76-.5,3ZM105.15,72.42c.64-.76-.33-2.8-1-2-.64.76.33,2.8,1,2ZM148.15,71.42c-1.09-1.09-3.09.91-2,2s3.09-.91,2-2ZM99.15,97.42c-1.45-1.7,2.37-4.22,2-5.5-.12-.43-2.15-3.5-2.5-3.5-1.6,0-2.23,5.87-4,7-1.23.79-3.95,2.17-5,3-1.22.97-4.27,4.78-5,5-.51.15-2.51.35-2.5-.5.69-1.09,3.77-3.21,4-4,.18-.63-.2-1.42,0-2,.25-.71,1.69-1.55,1-3.5-3.47,2.6-1.4-1.41-2-2-.3-.3-4.64,3.86-5,4.5-.26.47.19,1.31,0,1.5-.27.27-2.59-.25-3.5,0-1.4.38-2.71,5.03-3.5,6.5-2.28,4.26-3.57,6.51-5,11-.4,1.26-1.67,3.78-2,5-.2.74.21,2.29,0,2.5-.19.19-1.03-.26-1.5,0-2.51,1.4-.64,2-.5,2.5.36,1.32-.91,1.6-1,2-.43,1.93.92,4.12-1.5,5.5-.34.19-2.33-.49-1.5,1.5.33.79,1.92,3.54,2,4,.17.94.22,4.22,0,5-.13.46-1.54,1.32-2,2-.15.22.16.76,0,1-.85,1.32-2.58,3.04-3.5,4.5-.84,1.33-.05,2.67,1,3,3.13.98,2.05-1.15,3.5-2.5,3.47-7.84,5.81-16.87,7-24,.25-1.53-.26-3.48,0-5,.07-.39,1.55-.9,1-2.5,1.8-.73,3.01,2,3.5,2,.62,0,1.41-1.53,1.5-2.5.22-2.25-1.81-2.98.5-4.5l1.5,3.5c-.62,6.03,1.45,2.53,2.5,2.5.6-.02,2.1,2.45,1.5,3-.37.34-4.22-.28-5.5,0-.38.08-.6.88-1,1-1.39.4-1.71-1.57-2.5-.5,2.09,1.45-.18,6.74,2.5,7.5,2.35.67,3.46-4.55,5.5-5l-2,7c3.15.27,4.48-4.45,4-6.5-.09-.38-.88-.59-1-1-.6-1.96,1.27-4.52,2.5-2.5l4.5-4c.29,1.68-.44,3.01-1,4.5-1.12,3-2.58,6.57-5,9l-.5,3.5c1.54-2.03,4.15-4.53,5.5-6.5,2.36-3.45,2.36-4.74,5.5-6.5,1.51-.85,1.72-3.51,3.5-4.5.31-1.13-2-3.72-2-4,0-.11,1.48-2.04,2-1,1.56,1.64,2.87-.3,3.5-.5.59-.19,1.37.18,2,0,.17-.05,2.45-2.33,2.5-2.5-.85-1.29,2.55-7.07,4-5.5,1.23,1.33-2.78,3.74-3,4.5-2.41,8.48-9.34,12.23-11,18-.18.64-4.93,4.78-6,6-.58.66-2.96,2.54-2,3.5s2.84-1.42,3.5-2c1.16-1.03,7.47-6.86,8-7,.91-.25,3.23.27,3.5,0,.25-.25-.21-2.56,0-3.5.47-2.05,5.69-10.22,7-12,1.07-1.45,3.35-2.25,3-4.5,2.01-.07.89,1.95.5,3-.87,2.33-3.15,5.73-4.5,7.5-1.17,1.52-3.29,2.64-4,4.5,7.04.45,4.02.06,5-3.5.17-.6,3.36-3.2,3-5,1.62-.75,2.29-4.14,3.5-4.5,2.75-.82,3.18,1.04,2.5,3.5-.14.5-5.4,5.14-4,6.5s8-3.48,8-4.5c0-.17-1.6-1.03-1-3,.12-.38.83-.58,1-1,.95-2.28.8-.92,3-3-1.01-2.1,5.72-7.78,4-9.5-1.57-1.58-4.52,2.2-5.5,3-.16.13-.72-.18-1,0-1.81,1.14-.88,3.1-2.5,3-.04-1.93-1.61-3.32-1-5.5.22-.78,3.32-2.92,4-4-.72-1.63-3.46,1.04-4,2-1.51,2.71-2.45,1.28-4,4-.76,1.34-4.1,2.25-5,1.5-.32-.27,2-3.3,2-3.5,0-.3-1.65-1.89-2.5-1.5l-6.5,6c-.68-2.2,2.7-3.43,3-4.5.19-.66-.23-1.5,0-2,.33-.7,2.78-3.75,2-4.5-.14-.14-3.86-.14-4,0-.16.16.18.92,0,1.5-.44,1.45-1.91,3.78-3,2.5ZM141.15,102.42c-2.03.06-3.77,1.94-5.5,3-1.11.68-2.73,1.61-4,2-.82,2.44-8.09,4.14-7.5,6.5.77,3.05,3.33-.82,4.5-.5,2.65-3.57,9.03-5.36,10.5-9.5.43-1.2,2.35.38,2-1.5ZM24.15,112.42c-.11-.11-2.89-.11-3,0-.54.54.17,5,1.5,5s2.04-4.46,1.5-5ZM48.15,152.42c.43.43,6.02.08,6-1.5,0-.4-2.5-2.16-3-3-1.04-1.75-2.17-7.4-3-10-1.42-4.45-2.75-8.57-2-14l-1.5-3.5-2.5,4.5c.22,1.89-.32,4.22,0,6,.08.42,1.82,3.39,2,4,.29,1-.98.83,0,4,.71,2.29.55,4.91,1,7,.19.85,2.51,3.84,3,5,.23.54-.17,1.33,0,1.5ZM110.15,124.42l-6.5,1c-.17.05-2.45,2.33-2.5,2.5-.21.72.21,2.29,0,2.5s-1.77-.21-2.5,0c-1.21.34-2.08,3.33-1.5,4,.18.2,3.71-2.52,4.5-3,1.11-.68,2.73-1.61,4-2l4.5-5ZM121.15,124.42c-1.08-1.11-3.66,2.35-4.5,3-4.84,3.73-9.5,6.45-15,9-1.51.7-2.2.89-3.5,2.5-3.35,4.15-1.87,4.35,2.5,2.5,1.55-.66,8.18-4,8.5-4.5,3.25-5.09,6.28-4.78,10-9,.59-.67,2.95-2.52,2-3.5ZM59.15,131.42c.64-.76-.33-2.8-1-2-.64.76.33,2.8,1,2ZM38.65,131.42c-.65,0-.65,1,0,1s.65-1,0-1ZM72.15,142.42c.2-.2.48-4.86-1-4,.45,1.2-1.7,3.32-1,4,.07.07,1.93.07,2,0ZM75.15,142.42c-1.08-1.1-7.1,4.88-6,6s7.1-4.88,6-6ZM93.65,143.42c-.65,0-.65,1,0,1s.65-1,0-1ZM32.65,150.42c-.65,0-.65,1,0,1s.65-1,0-1ZM66.15,159.42c.64-.76-.33-2.8-1-2-.64.76.33,2.8,1,2ZM27.15,164.42c.81,1,3.11-3.63,2-5-.81-1-3.11,3.63-2,5ZM33.65,159.42c-.65,0-.65,1,0,1s.65-1,0-1ZM37.15,168.42c.81-1-1.58-3.52-2-3-.81,1,1.58,3.52,2,3Z"/>
      <path d="M56.15,47.42l1,5.5c.71.98,3.25,5.12,3,6-.11.37-1.72,1.8-2,1.5-.5-.54,1.37-3.85-2-3l-1,4.5c.24,1.51-.35,3.7,0,5,.22.82,2.69,1.57,2,3.5-1.2-.45-3.32,1.7-4,1-.37-.38-.2-9.16,0-10.5.65-4.42,2.13-3.35,1-9-.35-1.72-.79-5.46,2-4.5Z"/>
      <path d="M64.15,70.42c.12-1.8.06-3.23-.5-5-.43-1.34.33-.9.5-1.5.39-1.42-3.66-5.65-3-8,.12-.41.98-.66,1-1,.01-.18-2.09-2.38-1-3.5.82-.84,2.37,1.01,2.5,1,.35-.01.67-1,1-1,2.35,0,1.11,6.76,1.5,8.5.09.38.89.6,1,1,.36,1.32-.91,1.6-1,2-.54,2.39,1.42,6.39-2,7.5Z"/>
      <path d="M36.65,75.42c1.27.05,4.49,7.78,3.5,9.5-.79.51-1.88,2.29-2.5,2.5-2.3.77-2.22-2.47-2.5-3.5-.11-.41-1-.67-1-1s.94-.62,1-1c.21-1.22-.52-6.59,1.5-6.5Z"/>
      <path d="M35.15,72.42c-.41-3.03-2.92-5.17-2-8.5.45-1.62,2.87-1.37,3-1.5.5-.49-1.1-4.24,1-4,.27,2.7-.38,5.9,0,8.5.05.37.91.6,1,1,.54,2.28-.24,4.79-3,4.5Z"/>
      <path d="M53.15,90.92l-2,2.5c-.23-1.69.34-3.96,0-5.5-.55-2.46-.28-5.54,0-9,.14-1.7-.13-2.94,2-3.5v15.5Z"/>
      <path d="M45.15,97.42c2.13,2.13-1.86,1.86-2,2-.75.72,1.27,2.77,1,3-2.02,1.74-1.81-1.16-2-1.5-.38-.69-1.85-1.49-2-2-.18-.63.19-1.41,0-2-.13-.4-.88-.6-1-1-.58-1.84,1.3-2.77,1-4.5,2.84.69,1.57,3.02,2,4.5.48,1.63,2.87,1.37,3,1.5Z"/>
      <path d="M68.15,78.42c-.87,1.03-2.04.4-2-1.5.05-2.62,1.46-3.74,2-6l3-5.5c-.05,3.06.8,5.65-2,7.5l-1,5.5Z"/>
      <path d="M48.15,60.42c-.1-1.99-1.52-3.22-1-5.5.07-.33,2.11-3.46,2.5-3.5.55-.06,2.35,1.65.5,3.5-1.72,1.72-.28,1.09,0,2,.46,1.5-.38,3.14-2,3.5Z"/>
      <path d="M47.15,91.42c-1.15,1.37-1.92.13-2-1.5-.12-2.49.09-5.02,0-7.5,2.13.56,1.86,1.8,2,3.5.08,1.04.18,5.29,0,5.5Z"/>
      <path d="M52.15,95.42c.12.12.15,2.92,0,3.5-.33,1.26-3.48,2.04-4,1.5-.59-.61,1.73-3.54,1-5,.81.12,2.81-.19,3,0Z"/>
      <path d="M46.15,74.42c.36.29-1.36,3.3-3,.5-.44-.74,2.76-.69,3-.5Z"/>
      <path d="M42.15,67.42c-.67.8-1.64-1.24-1-2,.67-.8,1.64,1.24,1,2Z"/>
      <path d="M47.15,71.42c-.67.8-1.64-1.24-1-2,.67-.8,1.64,1.24,1,2Z"/>
      <path d="M44.65,110.42c.11,0,1.5,1.39,1.5,1.5,0,1.42-2.92-1.5-1.5-1.5Z"/>
      <path d="M55.65,98.42c.65,0,.65,1,0,1s-.65-1,0-1Z"/>
      <path d="M48.65,63.42c.65,0,.65,1,0,1s-.65-1,0-1Z"/>
      <path d="M116.15,33.42c-2.01,1.1-1.55,1.51-2.5,3-.73,1.15-2.49.94-3.5,2.5l-2.5,3.5c-.79-.95,1.4-3.08,1.5-3.5.21-.93-.25-3.25,0-3.5.19-.19,1.03.26,1.5,0,1.46-.82,2.04-4.06,4-5,2.13-1.03,1.46,2.24,1.5,3,1.16-.63,2.49-1.33,3,.5.44,1.61-2.32,3.18-3,2.5-.15-.15.05-2.16,0-3Z"/>
      <path d="M146.15,56.42c1.16,1.2-3.71,5-4.5,6l-4.5,1c-.32-2.44,1.86-2.95,3.5-4,.24-.15.77.15,1,0,.85-.57,3.38-4.16,4.5-3Z"/>
      <path d="M103.15,39.42l-.5,5-3.5,5,1-4.5c-1.87-1.31-.26-1.18,0-2,.52-1.61-.26-3.8,3-3.5Z"/>
      <path d="M139.15,45.42c-1.09-1.23,1.84-2.93,2-3.5.41-1.46-.74-3.23,1.5-4.5,2.02,1.71,1.72,1.52.5,3.5-.26.43-3.3,5.29-4,4.5Z"/>
      <path d="M117.65,39.42c2.12,0,1.93,5.81-1,5s0-5,1-5Z"/>
      <path d="M107.15,33.42c.54,1.75-2.63.57-2,1.5.47.69,1.31.78,1,2s-3.47,2.04-4,1.5c-.7-.72,1.48-2.83,1-4l4-1Z"/>
      <path d="M134.15,35.42c1.39,1.39-3.35,4.39-5,4,.44-1.42,4.05-4.95,5-4Z"/>
      <path d="M106.15,48.42c-1.06,1.24-2-3.54,1-4l-1,4Z"/>
      <path d="M140.15,41.42c-.18.18-2.42.23-2-.5,1.68-2.89,3.03-.53,2,.5Z"/>
      <path d="M135.15,45.42l-2,2c-.26-2.11-.11-2.26,2-2Z"/>
      <path d="M146.65,44.42c.65,0,.65,1,0,1s-.65-1,0-1Z"/>
      <path d="M148.65,43.42c.65,0,.65,1,0,1s-.65-1,0-1Z"/>
      <path d="M91.65,37.42c.65,0,.65,1,0,1s-.65-1,0-1Z"/>
      <path d="M84.15,109.42c1.73,2.27-3.46,7.65-4,7s1.14-3.08,1.5-4c.78-1.98-.36-3.52,2.5-3Z"/>
      <path d="M89.15,109.42l2.5-6c3.96,1.94-2.26,6.28-2.5,6Z"/>
      <path d="M79.15,111.42c-.28.34-2-1.29-2-1.5,0-.32.85-.57,1-1,.1-.27.1-2.57,1-1.5.13.15.13,3.84,0,4Z"/>
      <path d="M99.15,105.42l-2,2c-.26-2.11-.11-2.26,2-2Z"/>
      <path d="M83.15,121.42c-.67.8-1.64-1.24-1-2,.67-.8,1.64,1.24,1,2Z"/>
      <path d="M74.65,112.42c.65,0,.65,1,0,1s-.65-1,0-1Z"/>
    </g>
  </g>
</svg>