<?xml version="1.0" encoding="UTF-8"?>
<svg id="Layer_2" data-name="Layer 2" xmlns="http://www.w3.org/2000/svg" viewBox="0 0 133.23 160.16">
  <g id="Elements">
    <g id="Element">
      <path d="M30.14,71.13c-.91.91-5.4-2.43-4,4,1.26-.01,2.93-2.96,3.5-3,.18-.01,1.75,1.78,3.5,1,.4,1.79-1.74.72-2,1-.1.11-.1,2.89,0,3,.41.48,1.21-1.37,2.5-1,2.98.87-.41,5.11.5,6,.61.6,3.87-1.67,3,2.5-.08.39-1,.67-1,1,0,.24,2,3.76,2,4,0,.33-.98.65-1,1-.01.18,2.09,2.44,1,3.5-.11.1-2.89.1-3,0-.48-.41,1.37-1.21,1-2.5-.12-.4-.91-.62-1-1-.22-.93.25-3.24,0-3.5-.34-.35-5,1.85-6.5,1v2c2.87-2.32,2.03,1.78,2.5,3.5.09.33,2.65,2.88,3,4l-5,.5c1.98-2.34-.42-3.25,0-6-4.68-1.14-2.39,2.39-3,3-.19.19-1.03-.27-1.5,0-1.84,1.04-1.37,2.87-1.5,3-.11.11-2.89.1-3,0-.13-.13-.58-2.76-1-3.5-1.96-1.51-2.32-3.88-3-6-2.68-8.4-10.84-14.66-8-24,.54-1.76-1.78-4.78-2-6-.29-1.6-.35-11.74,0-13,.45-1.62,2.87-1.37,3-1.5.19-.19-.19-1.81,0-2,.11-.11,2.89-.11,3,0,.6.59-1.92,3.9-1,5,.45.54,2.55-2.54,3-2,.16.2-.33,1.65.5,3,.68,1.11,2.13,1.32,1.5,3.5-.22.78-2.56,1.61-2,3l3,2.5,1-4.5c1.27-.9,4.27-6.02,4-7-.11-.4-.91-.62-1-1-.18-.82-.2-4.25,0-5,.12-.46,1.07-1.55,2-1,2.89,1.72,1.57,3.65,2,6,.24,1.32,1.62,4.58,2,6,.98,3.7.11,8.88,1,13,.33,1.51,1.8,1.1,1,4-.29,1.04,1.76,2.74,1,3.5ZM23.14,56.13c1.19,1.19,3.96-1.99,3-4-1.33.22-3.83,3.17-3,4ZM14.64,59.13c-.65,0-.65,1,0,1s.65-1,0-1ZM21.14,73.13c-.23-2.4.32-5.18,0-7.5-.6-4.33-4.96-2.18-4,1,.27.89,2.89,1.75,2,4l2,2.5ZM18.64,75.13c-.65,0-.65,1,0,1s.65-1,0-1ZM24.14,76.13c-.11-.11-2.89-.11-3,0s-.11,2.89,0,3,2.89.11,3,0,.11-2.89,0-3ZM28.64,77.13c-.65,0-.65,1,0,1s.65-1,0-1ZM25.14,88.13l-4-5c-.93,3.13,2.05,3.78,3,5.5.19.35-.03,3.22,2,1.5.4-.34-.86-1.06-1-2,1.64.49,1.77-.62,2.5-1,.29-.15.78.13,1,0,4.62-2.8-4.16-3.38-3.5,1Z"/>
      <path d="M30.14,24.13c-.36.32-3.76-1.01-6,2.5-.27.43-.74,2.62-1,3-1.42,2.07-6.48,5.99-5,1,.15-.5,1.56-.91,1-2-.71-.35-1.42-4.38-3-2.5-.12.14-.6,2.77-1,3.5-2.52,1.76-2.35,2.75-3,5-.14.48-3.21,2.44-3.5,2.5-1.1.25-4.21-.29-4.5,0-.17.17.22.96,0,1.5-.18.43-.94.65-1,1-.4,2.26-.45,14.92,0,17,.07.34,1.93,2.66,2,3,.79,3.65-.09,8.7,1,13,1.64,6.47,6.66,14.07,9,22,.21.73,2.79,2.28,3,3,.79,2.75,2.33,7.39,4,10,1.4,2.18,2.7,1.66,4,4,.43.78,10.62,10.97,11.5,11.5.22.13.71-.15,1,0,.61.31.72,1.35,2,1,.37-.1.58-.82,1-1,.54-.23,1.32.18,1.5,0,.2-.2-.72-2.58,1.5-4,.22-.14.73.15,1,0,.63-.35,2.82-2,3-2,.4,0,1.44,1.83,2,2,1.87.55,3.06-1.5,5-1,2.03-2.8,6.07-1.94,8-5,.95-1.51-.29-3.22,1.5-3l-1,5.5c-1.38,1.46-6,5.64-6,7,0,.33.88.58,1,1,.4,1.38-1.83,6.59-2,8-.19,1.52.3,7.2,0,7.5-.16.16-3.89.17-4.5,0-3.84-1.06-1.91-7.75-2.5-10.5-.07-.32-2.04-3.37-2.5-3.5-3.42-.93-4.07,1.74-5,2-1.31.36-1.52-.85-2-1-.6-.19-1.39.19-2,0-.9-.28-1.71-.63-3-1-1.38-.4-14.02-13.27-15.5-15.5-3.96-5.97-8.32-13.59-11-20s-5.2-13.46-7-20c-.23-.84-2.76-1.5-2-4,.15-.49,1.59-1.05,1-3-2.05-6.73-.84-14.32,0-21,.26-2.11-.83-6.86,1.5-7.5,1.08-.3,2.83.26,4,0,.12-.03,1.8-.88,2-1,.47-.28,2.21-2.03,2.5-2.5.94-1.56,1.06-4.44,2-6,.25-.42,2.32-2.5,2.5-2.5.22,0,3.16,1.89,3.5,2.5s-.66,2.44,2.5,1.5c.99-.29,3.71-6.71,6-6,.74.23,3.3,3.3,2.5,4Z"/>
      <path d="M92.14,9.13c-.23-1.15.01-4.76-2.5-4-2.2.67-6.68,8.99-9.5,10.5l-1,4.5c-4.59.57,1.36-3.78-3-5,.54,1.96-.83,2.92-1,4.5-.53,4.91-1.8,12.51-1,16,.42,1.81-.69,3.97-1,6-.24,1.57,1.07,3.94-1.5,3.5-1.98-1.31-1.4-2.58-1.5-4.5-.28-5.54,2.19-19.12,4-24,.22-.59,1.82-2.45,2-3,.46-1.4-1.05-3.47,2.5-2.5.37.1.58.82,1,1,1.98.83,1.3-1.15,1.5-1.5.38-.69,1.59-1.3,2-2,.29-.49.72-2.58,1-3,.45-.68,5.13-5.39,5.5-5.5,1.1-.33,2.33-.04,3,1,.95,1.47-.2,2.49,2.5,2l1,4c.67-.54,2.27-.85,2.5-1,2.6-1.73,4.69-6.15,9-5,1.22.33,2.91,4.46,2.5,6-2.93.79-2.83-2.87-3-3-1.68-1.28-3.45,1.29-4.5,2-.24.16-.79-.15-1,0-1.4,1.01-2.6,2.87-4,4-1.05.05-.27-1.76-.5-2-.79-.82-2.37.97-2.5,1-.74.16-1.71-.13-2.5,0,.67,3.3,4.85.43,4,4-1.65.38-1.97-1-3.5-1-.89,0-1.96.62-3,1-.84.31-.69,2.76-.5,3.5.34,1.35,1.21,1.53,2.5.5.84-.67,2.48-2.85,3-3,1.22-.35,4.5,2.81,5.5,2,.15-.12.2-3.76,2.5-3,1.22.4,2.1,3.43,1.5,4-.27.25-2.75-.25-3,0-.17.17.22.96,0,1.5s-1.37.71-1,2c.24.84,2.49,2.06,3,1.5.4-.44-.73-3.55.5-4,.49.78,2.34,1.93,2.5,2.5.19.66-.23,1.5,0,2,.29.62,1.92,2.64,2,3,.65,3-.11,5.31-2,7.5,5.17-.05.29,3.49,0,4.5-.85,2.96-2.35,5.64-3,8-.36,1.31,1,1.74,1,2,0,1.31-1.68-.89-2-.5-.07.08-.07,1.93,0,2,.43.43,2.91-1.31,2,3l2-2.5c-.94-4.92,1.56-3.06,2-3.5.64-.64.71-4.46,1-5.5.19-.7,2.81-2.3,3-3,.24-.86.19-4.95,0-6-.07-.38-.9-.6-1-1-.79-3.19-1.17-6.94-2-10-.12-.43-2-2.82-2-3s1.62-2.36,2-3c.15-.25-.15-.77,0-1,1.08-1.7,3.03-2.32,4.5-3.5,3.48-.56,2,.67,2.5,1.5.56.94,2.81,2.34,3,3,.32,1.1-1.64,3.13-2,4-.23.54.17,1.31,0,1.5-.26.28-2.4-.79-2,1,1.48-.21,3.34,0,4,1.5,1.03,2.34-2.45.68-2,2.5,4.6-.61,2.37.82,3,3.5.1.41,1.36.68,1,2-.14.51-2.57,2.02-2,2.5.17.15,1.95-.31,2.5,1,1.94-.91,1.15-4.45,3-5,.88-.26,2.34.94,2.5,1.5.32,1.13-1.67,2.33-1,4-1.96,1.24,0,1.5,0,2,0,.32-.84.57-1,1-.2.56.17,1.33,0,1.5-.19.19-1.03-.26-1.5,0-.69.39-1.43,1.8-2,2-1.43.51-3.07-1.18-2.5,2l5.5,1c1.42.39,1.57,4.11,2.5,3,.2-.23-.19-1.81,0-2s1.81.19,2,0c.21-.21.21-5.79,0-6-.14-.14-4.13.13-2-2,.19-.19,1.81.19,2,0,.17-.17-.2-.94,0-1.5.16-.43,1-.68,1-1,0-.33-.94-.62-1-1-.25-1.51.35-3.71,0-5s-3.58-4.05-2-8c-1.96-1.23-2.39-4.51-4.5-5.5-1.14-.54-2.04.36-1.5,1.5.83,1.75,3.87,1,3,3-.73,1.68-2.67,1.52-3,0-.45-2.05-.66-3.86-1-6-.18-1.16.43-2.13-1-3,1.55-2.14,3.65-2.1,5,0,.7,1.09,1.31,3.79,2,5,1.85,3.24,3.68,5.32,5,9,1.2,3.32-.23,4.19,0,5,1,3.46,2.47,11.21,2,15-.05.37-.97.64-1,1-.39,4.17.43,8.86,0,13-.04.36-.94.62-1,1-.23,1.55.27,3.49,0,5-.5,2.8-3.86,8.05-5,12-.15.52-5.03,6.61-6,8-.72,1.03-2.65,2.73-3,4-.23.83.19,2.08,0,3-.12.58-2.32,1.34,0,3,.09,2.65,2.5,4.94-1.5,5.5-3.71.52-4.7-2-5-2-.33,0-.59.89-1,1-.63.17-1.39-.17-2,0-.34.1-5.09,3.85-5.5,4.5-2.63,4.14-4.82,8.4-7,13s-4.33,9.57-7,14c-.56.93-2.73,2.8-3,4-.21.94.25,3.25,0,3.5-.19.19-1.81-.19-2,0-.26.26.82,6.99-2.5,6-.45-.14-3.37-2.04-3.5-2.5-.36-1.32.85-1.52,1-2,.37-1.15.61-1.93,1-3,1.83-4.99,3.78-11.09,6-16,1.4-3.1,7.66-12.82,7-15-.12-.41-.93-.63-1-1-.16-.86-.18-3.19,0-4,.08-.36.8-.57,1-1,.14-.31-.13-.78,0-1,2.67-4.49,3.95-.5,4.5-.5.79,0,1.04-1.96,5,0,1.89.94,1.65-1.61,1.5-3,2.86-.98,1.74,1.8,2,2,.42.32,2.85-.6,3.5,1l6.5-2c1.06-2.53-1.77-3.65-2-4.5-.42-1.54,1.78-2.23,2-3,.32-1.12.32-2.86,1-4,1.06-1.79,6.66-5.82,7-7,.18-.63-.2-1.42,0-2,.09-.27,1.82-1.68,1-2.5-.12-.12-1.54.46-2.5-1-3.77-5.74.97-1.16,4-2,2.15-.6,1.21-3.9,1.5-5.5.38-2.08,1.66-5.94,2-8,.29-1.81-.74-3.86,1-5l-3-2.5v4.5c-1.96,2.53-2.44,6.2-3,9-.19.96.25,3.23,0,3.5-.99,1.08-3.58-2.43-4-2-.49.5,1.36,3.86-2,3l-2-2c.78,1.75-1.01,3.32-1,3.5.06.84.64-.33,0,2-.16.57.62,1.23,0,4-.31,1.4.37,6.13,0,6.5-.17.17-.96-.23-1.5,0-1.53.64-2.98,2.56-5,2-.83-.23-2.06-2.49-1.5-3,.34-.31,3.7.3,4,0,.11-.11.11-2.89,0-3-.3-.3-3.7.3-4,0-.34-.34.34-4.66,0-5-.11-.11-2.89-.11-3,0-.19.19.26,1.03,0,1.5-.37.66-2,1.66-2,2s.93.62,1,1c.34,2.01.53,2.46,1,4,.58,1.89-2.29,4.8-3.5,6.5-1.16.32-2-1.58-4-1-1.63.47-1.37,2.87-1.5,3-.19.19-1.81-.19-2,0-.11.11-.1,2.89,0,3,.15.16,3.77-.55,4,2-1.44.73-4.42-1.59-5-1-.25.25.62,5.01-2.5,6-1.13.36-3.75-2.59-4.5-3.5-3.38-4.14-5.76-10.31-8-15l-1-4.5c.8.15,2.88,2.08,3,2.5.5,1.75,1.3,4.43,2,6,.83,1.87,3.06,3.29,3,5.5h3c-.74-2.59,3.73-5.55,4-6.5.38-1.31-1.2-4.77-2.5-5.5-.47-.26-1.3.19-1.5,0-.76-.72,1.64-3.01.5-3-.17,0-1.01,1.58-3,1-.52-.15-.86-1.54-2.5-1-.87-4.33,1.51-2.55,2-3,.45-.41-.74-1.03-1-1.5-.8-1.46-3-3.74-3-4,0-.33,1-.67,1-1,0-1-3.67-1.78-4-3-.23-.84.21-2.11,0-3-.09-.39-.9-.61-1-1-.76-2.99-1.35-7.7-1-11,.25-2.32,1.83-7.76,2-10,.23-3.06-.65-8.63,0-11,.12-.42,4.48-6.34,5-7,.94-1.19,4.81-4.33,5-5,.39-1.42-.15-4.71,2.5-5.5.66-.2,1.7.13,2.5,0ZM95.14,19.13c-.29-.29-3.85-.62-3,1.5,1.22,3.05,3.99-.51,3-1.5ZM119.14,28.13c-.76-.64-2.8.33-2,1,.76.64,2.8-.33,2-1ZM91.64,34.13c-.65,0-.65,1,0,1s.65-1,0-1ZM122.14,37.13c-.11-.11-2.89-.11-3,0-2.66,2.66,5.66,2.66,3,0ZM122.14,47.13c1.03-1.03-.32-3.39-2-.5-.42.73,1.82.68,2,.5ZM92.14,48.13c.64-.76-.33-2.8-1-2-.64.76.33,2.8,1,2ZM115.64,47.13c-.65,0-.65,1,0,1s.65-1,0-1ZM125.64,48.13c-.11,0-1.5,1.39-1.5,1.5,0,1.42,2.92-1.5,1.5-1.5ZM116.14,52.13c.64-.76-.33-2.8-1-2-.64.76.33,2.8,1,2ZM87.14,53.13c.64-.76-.33-2.8-1-2-.64.76.33,2.8,1,2ZM94.64,51.13c-.65,0-.65,1,0,1s.65-1,0-1ZM107.14,54.13c.64-.76-.33-2.8-1-2-.64.76.33,2.8,1,2ZM87.14,56.13c1.03-1.03-.32-3.39-2-.5-.42.73,1.82.68,2,.5ZM92.64,56.13c-.65,0-.65,1,0,1s.65-1,0-1ZM91.14,59.13c-1.42-1.42-3.51,1.24-.5,3,.77.45.65-2.85.5-3ZM102.14,66.13c3.17,1.06,3.73-5.16,3-6-.17-.19-3.31,1.9-5,1l2,5ZM121.64,61.13c-.65,0-.65,1,0,1s.65-1,0-1ZM97.14,66.13c.64-.76-.33-2.8-1-2-.64.76.33,2.8,1,2ZM91.64,65.13c-.65,0-.65,1,0,1s.65-1,0-1ZM87.14,70.13c.64-.76-.33-2.8-1-2-.64.76.33,2.8,1,2ZM99.14,68.13c-.76-.64-2.8.33-2,1,.76.64,2.8-.33,2-1ZM104.64,69.13c-.65,0-.65,1,0,1s.65-1,0-1ZM92.64,71.13c-.65,0-.65,1,0,1s.65-1,0-1ZM96.14,71.13c-2.11-.26-2.26-.11-2,2l2-2ZM98.14,83.13c.68.68,3.44-.89,3-2.5-.11-.41-1-.67-1-1,0-.16,1.85-1.5.5-1.5-.32,0-.57.84-1,1-.56.2-1.33-.17-1.5,0-.14.14-.14,3.86,0,4ZM94.14,83.13c-1.03-1.03-3.39.32-.5,2,.73.42.68-1.82.5-2ZM90.14,93.13l-2-2c-.26,2.11-.11,2.26,2,2Z"/>
      <path d="M70.14,84.13l-3-3.5c.9-2.23-1.77-3.15-2-4-.62-2.26.55-6.54,0-9-.08-.36-.8-.57-1-1s-.5-2.43-1.5-2.5c-.18-.01-1.75,1.78-3.5,1,.14-.8,2.09-2.89,2.5-3,1.31-.36,1.75,1,2,1,1.35,0-.46-1.26-.5-1.5-.21-1.24.25-2.84,0-4-.07-.34-1.92-2.64-2-3-.57-2.5,1.17-5.51-3.5-2.5-.58-1.02.99-1.83.5-3.5-.34-1.15-4.31-2.86-5.5-2.5-.38.12-.58.83-1,1-.54.22-1.33-.17-1.5,0-.23.23.7,4.37-1.5,5-.62.18-1.38-.18-2,0-.24.07-3.34,3.16-3.5,3.5-1.1,2.33,2.76,1.26,3,1.5.11.11.11,2.89,0,3-.19.19-1.03-.26-1.5,0-.84.47-2.29,3.05-3.5,2-.14-.12.05-2.97-2-3-.78,1.75.95,3.18,1,3.5.44,3.06-.5,7.02,0,10,.09.56,1.17,3.37,1,4-.9,3.26,1.55,2.37,2,4,.42,1.53-.18,6.32,1,7.5.64.64,1.49-1.45,3,3.5.6,1.97-1,2.83-1,3,0,.39,1.85,1.45,2,2,.37,1.33-.37,3.67,0,5,.15.55,1.85,1.45,2,2,.19.69.23,6.27,0,6.5-1,1.04-3.15-.91-3.5-1-1.32-.35-2.06,1.46-2.5,1-1.07-1.11,2-3.27,2-3.5,0-.29-2.33-2.92-2-4-1.78-.54.03-5.7-2.5-4.5-2.11,1-1.48,1.92-.5,3.5.39.63,2,2.82,2,3s-2,2.82-2,3c0,.33.89.59,1,1,.17.63-.17,1.39,0,2,.23.81,3.48,3.33,3,5s-2.6,1.24-3.5,1.5c-.69.2-2.53,3-3,3-.18,0-2.28-2.11-2.5-2.5-1.58-2.84-1.41-.16-3-3-.8-1.43-3.79-1.96-5-4-1.14-1.92-2.04-7.1-4.5-8.5-.7-.4-1.92.87-1.5-1.5l3.5-4.5,2.5,4.5c-.52,3.28.53,2.57,3.5,2.5l-.5-3c3.45-1.31.81,4.24,3.5,3,.69-.32.86-1.5,2.5-1-.55-2.07,1.06-3.07,1-5,3.98,2.66,2.58-.33,4-3.5-1.5-1.37-1.43-4.22-2-6-1.32-4.1.11-10.99-1-15-.19-.7-2.81-2.3-3-3-.3-1.07.25-2.82,0-4-.07-.34-1.93-2.66-2-3-.71-3.3-1.21-5.94-2-9-1.24-4.8-.68-9.19-2-14-.45-1.63,3-3.41,3-4,0-.33-.94-.62-1-1-.33-1.96-.34-9.07,0-11,.07-.37.87-.59,1-1,.19-.59-.18-1.37,0-2,.05-.18,2.11-2.27,2.5-2.5.22-.13.69.14,1,0,1.14-.52,1.84-1.6,4-1,.31.08,4.41,4.19,4.5,4.5.18.62-.18,1.38,0,2,.31,1.08,11.88,7.81,11,11-.97,3.53,2.29,2.53,3,5,1.49,5.2,4.6,9.85,6,15,1.05,3.84,2.3,8.33,3,12,.66,3.47,2.11,11.61,1.5,13.5l.5,4ZM54.14,45.13c.12-.13.14-2.84,0-3.5-.31-1.5-3.11-6.6-3-7s1-.67,1-1c0-1.1-9.11-6.71-11-9-.16-.19.17-.79,0-1-.71-.89-1.9-2.16-3-2.5l-2,6c1.83-.75,2.92.85,3.5,1,1.31.35,2.09-1.47,2.5-1,.1.11.11,2.89,0,3-1.04,1.04-6.1-1.74-7-1-.5.41.9,1.13,1,1.5.69,2.6-1.75,3.12-2,4-.58,2,1,2.83,1,3,0,.33-.88.58-1,1-.45,1.57,1.7,5.52,2,7,.19.96-.25,3.22,0,3.5,1.02,1.14,3.05-1.88,3.5-2,1.83-.49,5.04,5.46,6.5,4,.21-.21-.21-1.78,0-2.5.37-1.26,3.16-1.5,4-3,.26-.47-.19-1.31,0-1.5.67-.69,3.33,1.69,4,1ZM42.14,51.13l-5,.5c.2,1.05-.29,4.17,0,4.5,1.01,1.13,6.13-3.96,5-5ZM34.14,106.13c.64-.76-.33-2.8-1-2-.64.76.33,2.8,1,2ZM35.14,105.13c-.68.68.89,3.44,2.5,3,3.39-.93-1.04-4.46-2.5-3Z"/>
      <path d="M59.14,75.13c-2.12,2.26-1.64,2.96-2,5.5-.64,4.57-2.68.95-4.5-.5-1.29-1.02-2.15-.87-2.5.5-.28,1.09,1.51,3.01,2,4,.85,1.71-1.63,1.94-2,1.5-.32-.39.32-3.65,0-4-.11-.12-3.03-.2-3-1.5.02-.92,2.7-2.21,3.5-2.5.9-.32.61-2.89.5-3-1.02-1.02-4.88,1.17-5.5,1-3.21-.9-.06-4.15.5-5.5.23-.54-.17-1.33,0-1.5.21-.21,1.77.2,2.5,0,.4-.11.6-.89,1-1,.68-.19,4.26,1.66,4.5,2.5.18.62-.18,1.38,0,2,.38,1.34,3.44,3.13,5,2.5ZM47.64,72.13c-.65,0-.65,1,0,1s.65-1,0-1Z"/>
      <path d="M52.14,150.13c.43.37,3.13-1.27,2,3.5-.08.36-.8.57-1,1-.24.51-.32,2.17-1.5,2.5-4.92,1.36-2.9-1.34-3.5-3.5-.15-.55-2-1.61-2-2,0-.33.94-.62,1-1,.23-1.41-.32-6.18,0-6.5.18-.18,1.72.13,2.5,0,.5-.09.93-2.04,2.5.5.22.36,1,2.47,1,3,0,1.33-1.32,2.22-1,2.5Z"/>
      <path d="M70.14,154.13c2.04-.03,1.87-2.88,2-3,1.03-.97,3.67,1.32,3,3.5-.11.37-.8.57-1,1-.14.31.13.78,0,1-.27.46-3.26,3.43-3.5,3.5-1.24.38-3.82-2.36-3.5-3.5.11-.39.87-.59,1-1,.19-.6-.19-1.39,0-2,.28-.9.63-1.7,1-3,.11-.4,1.75-1.81,2-1.5.89,1.08-1.25,3.63-1,5Z"/>
      <path d="M53.14,55.13c.3.33-.25,3.38,0,4.5.09.38.89.6,1,1,.36,1.31-.86,1.53-1,2-.37,1.21,2.32,2.41-1,3.5l-1-4.5c-.42-.69-1.87-1.51-2-2-.36-1.32,2.78-5.83,4-4.5Z"/>
      <path d="M61.14,109.13c1.22,3.89-4.97,6.99-6,3.5-.46-1.56,1.44-4.2,2.5-4.5,1.26-.35,1.86,1.51,3.5,1Z"/>
      <path d="M60.14,83.13c.76.83-1.37,2.35-.5,3l1.5,6-5-4.5c1.5-.83.72-2,1-3,.23-.83,2.49-2.06,3-1.5Z"/>
      <path d="M56.14,98.13c-1.11,2.09,3.47,5.5,2,7-.53.54-3.67-.24-4-1.5-.23-.88-.06-2.88,0-4,.08-1.62.83-2.85,2-1.5Z"/>
      <path d="M62.14,66.13l-3,3.5c2.03.99.23,3.52-.5,3.5-1.51-.05-1.53-2.47-1-4,.77-2.24,1.79-3.5,4.5-3Z"/>
      <path d="M55.14,61.13c1.38-.78.16-6.13,2.5-5,.33.16,2.5,2.32,2.5,2.5.02.77-3.44,3.35-5,2.5Z"/>
      <path d="M20.14,42.13c1.23,1.23-1.66,5.34-3,4-.14-.14-.14-3.86,0-4,.11-.11,2.89-.11,3,0Z"/>
      <path d="M74.14,58.13l1.5,7c-1.16-1.55-3.25-3.9-3.5-5.5-.3-1.97.41-1.59,2-1.5Z"/>
      <path d="M99.14,89.13c2.66,2.66-5.66,2.66-3,0,.11-.11,2.89-.11,3,0Z"/>
      <path d="M66.14,107.13c-.19-.24-.24-3.44.5-3,2.8,1.64-.21,3.36-.5,3Z"/>
      <path d="M73.14,47.13c1.09,1.09-.91,3.09-2,2s.91-3.09,2-2Z"/>
      <path d="M73.14,57.13c-.29.36-3.3-1.36-.5-3,.74-.44.69,2.76.5,3Z"/>
      <path d="M55.14,95.13c.18.18.23,2.42-.5,2-2.89-1.68-.53-3.03.5-2Z"/>
      <path d="M55.14,92.13c-2.11.26-2.26.11-2-2l2,2Z"/>
      <path d="M44.64,147.13c.65,0,.65,1,0,1s-.65-1,0-1Z"/>
      <path d="M67.64,101.13c.65,0,.65,1,0,1s-.65-1,0-1Z"/>
      <path d="M59.64,94.13c.65,0,.65,1,0,1s-.65-1,0-1Z"/>
      <path d="M83.64,81.13c.65,0,.65,1,0,1s-.65-1,0-1Z"/>
      <path d="M77.64,22.13c.65,0,.65,1,0,1s-.65-1,0-1Z"/>
      <path d="M41.64,40.13c.11,0,1.5,1.39,1.5,1.5,0,.35-3.28,2.5-3.5,2.5-.11,0-1.5-1.39-1.5-1.5,0-.35,3.28-2.5,3.5-2.5Z"/>
      <path d="M39.14,36.13c2.66,2.66-5.66,2.66-3,0,.11-.11,2.89-.11,3,0Z"/>
      <path d="M48.14,40.13l-2,2c-.26-2.11-.11-2.26,2-2Z"/>
    </g>
  </g>
</svg>