<?xml version="1.0" encoding="UTF-8"?>
<svg id="Layer_2" data-name="Layer 2" xmlns="http://www.w3.org/2000/svg" viewBox="0 0 172.34 153.04">
  <g id="Elements">
    <g id="Element">
      <path d="M118.29,2.04c.19.19.17,4.73,0,5.5-.96,4.27.53,2.28,1,4,.25.9-1.75,4.06-2,5-.23.85.23,2.15,0,3-.52,1.9-6.51,1.85-8.5,1.5-.35-.06-.57-.82-1-1-.54-.22-1.33.17-1.5,0-.25-.25.25-2.74,0-3-.67-.69-3.33,1.69-4,1-.19-.19.26-1.03,0-1.5-.37-.66-2-1.66-2-2s.94-.62,1-1c.25-1.51-.35-3.71,0-5,.38-1.36,4.44-3.66,5.5-4.5,1.05-.05.27,1.78.5,2,1.31,1.28,3.67-2.76,4.5-3,1.03-.3,2.76-.95,3-1,.66-.14,3.38-.12,3.5,0ZM114.29,13.04c.64-.76-.33-2.8-1-2-.64.76.33,2.8,1,2Z"/>
      <path d="M105.29,31.04c-.13.16-3.08-1.94-4-1-.27.27.16,4.24,0,5.5-.66,5.04-1.84,10.25-3,15-.58,2.37.53,6.19-3,7.5l1-5.5c1.27-10.08,3.53-21.29,0-31,.72-1.2-1.22-3.3-1-3.5,1.54-1.4,3.99,2.06,5.5,2,.74.88,1.82,1.61,2.5,2.5.15.19-.17.75,0,1,.46.68,1.87,1.54,2,2,.18.64.18,5.29,0,5.5Z"/>
      <path d="M94.29,66.04c-3.73-1.4-1.43-5.08.5-7l-.5,7Z"/>
      <path d="M83.29,17.04c.18.18.23,2.42-.5,2-2.89-1.68-.53-3.03.5-2Z"/>
      <path d="M111.29,63.04c-.14.16-.86-.16-1,0,.18-.48-.19-1.78,0-2,.67-.8,1.64,1.24,1,2Z"/>
      <path d="M109.29,65.04c-.52-2.09.95-1.88,1-2-.18.22.25,1.01,0,1.5-.37.72-.98.45-1,.5Z"/>
      <path d="M69.29,84.04l1-6.5-2-5c-.66-4.89-1.68-10.38-3-15-.21-.72-2.79-2.27-3-3-2.25-7.61-6.03-11.78-8-19-.61-2.25-2.09-4.66-3-8-.45-1.65-3.55-5.35-4-7-.23-.83-.96-3.74-1-4-.16-1.1-.26-7.23,0-7.5.68-.7,2.8,1.45,4,1,.42.43-.36,6.82,0,8.5.29,1.36,3.28,4.32,4,6l1,5.5,1-6.5c3.36-3.14-1.32-5.49-2-8-.55-2-1.77-6.5-2-8-.26-1.68.18-3.74,0-5.5l6,6.5c1.81,7.72,7.12,14.33,5,22-.1.37,1.62,5.37,2,7,1.32,5.6,3.91,10.89,4,17l3.5,5.5.5-7.5c-1.92-3.32-3.21-7.58-4-11s-.34-7.97-1-11c-.07-.34-1.93-2.66-2-3-.26-1.22-.16-4.6,0-6,.14-1.16,1.55-2.94,1-3.5-.74-.75-2.77,1.27-3,1-.11-.13-.15-2.95,0-3.5s1.85-1.45,2-2c.51-1.87.65-4.96,1-7,.19-1.1.91.27,0-2-.79-1.98.97-1.28,1.5-1.5,1.33-.56,3.97-3.31,5-3,.24.07,3.43,3.26,3.5,3.5.54,1.95-.34,5.66,0,8,.05.37.92.61,1,1,2.25,11.27-.11,22.7,3,34,.36,1.31-1,1.75-1,2,0,.34,1.63,1.34,2,2,.26.47-.19,1.31,0,1.5.11.11,2.89.11,3,0,.34-.34.21-8.35,0-9.5-.36-1.99-2.58-6.4-3-9-.22-1.37.15-3.06,0-4.5l3,2c-.23-1.69.34-3.96,0-5.5-.9-4.03.41-9.48,1-14,.45-3.43-1.67-6.93,3.5-5.5,2.05.57,1.73,7.31,1.5,9.5-.04.36-.94.62-1,1-.23,1.56.25,3.47,0,5-.1.63-1.34.88,0,3,1.51,2.4,1.93,1.27,3,5,.16.56,1.85,1.45,2,2,.29,1.05-.2,2.77,0,4,.06.38,1,.67,1,1s-.94.62-1,1c-.93,5.59.87,11.2-1,17-1.06,3.3,0,2.34,0,3,0,.25-2.75,2.84-3,4-.3,1.38-.9,5.91-1,7-.31,3.38.22,7.08,0,10.5,1.76.23.95-2.26,1-3.5.06-1.5-.32-3.85,0-5,.1-.37,1.69-1.79,2-1.5.32.3-.92,2.91,2,2,.15-1.11-.23-2.52,0-3.5.74-3.11,3.75-7.71,5-11,2.55-6.71,3.03-16.04,7-22,1.13-1.7,3.92-4.06,5-6,.26-.47-.19-1.31,0-1.5s1.03.26,1.5,0c2.69-1.5,2.39-1.96,6-3,.71-.2,6.31-5.81,7-6s5.3-.19,5.5,0c1.4,1.36-3.52,6.72-4.5,7-.63.18-1.41-.19-2,0-.41.13-.63.92-1,1-2.98.62-4.02-.17-7,2-1.88,1.37-7.11,8.17-8.5,10.5-2.65,4.45-2.77,8.55-4,13-2.61,9.45-6.99,17.91-9,28-.08.39-.95.63-1,1-1.04,7.14,1.81,7.57,3,12,.36,1.34-1.37,1.66-1,3,.63,2.29-.4,2.67,0,5,.52,3.06-.65,1.73-1,3-.23.82-.15,3.97,0,5,.05.37.89.59,1,1,.24.9-.28,4.46,2,2.5.33-.28-1.21-.83-.5-3,.39-1.2,1.75-2.58,1.5-3.5-2.1-7.58,1.28-12.52-1-20-.23-.76-1.8-3.29-2-4-.45-1.62,3.38-8.92,4-11,.25-.83-.25-2.17,0-3,1.02-3.43,4.17-6.94,5-10,.79-2.89,2.65-4.26,4-8,1.79-4.98,2.82-8.16,5-13,.23-.51-.19-1.34,0-2,.14-.51,2.88-2.25,3.5-2.5.54-.22,1.35.18,2,0,1.4-.4,4.77-1.8,6-2,5.58-.9,3.79.12,4.5,2.5.81,2.72,7.41-.25,4.5,4.5-1.65,2.7-4.69,5.73-6.5,8.5-2.03,3.11-4.04,8.05-6,11-2.57,3.86-3.18,2.54-5,8-.52,1.56-2.78,5.96-3,7-.49,2.28-.37,4.29-1,7-.75,3.23,2.19,3.69,0,8-.86,1.68,1.6,1.96,2,1.5.28-.32-.61-2.74,1-3.5-.84-8.52,2.69-15.86,6-23,1.26-2.72,6.91-11.32,9-14,6.41-8.23,15.98-9.09,24.5-13.5l5.5-1c-.55,1.6.93,2.11,1,2.5.18,1.07.24,5.12,0,6-.14.51-1.63,1.31-2,2-1.33,2.48-2.6,5.61-4,8-1.31,2.23-5.87,5.53-6,6-.3,1.09.3,2.91,0,4-.15.54-3.85,4.46-4,5-.72,2.62-.28,8.39-1,11-.36,1.32-8.49,7.73-10,10-1.64,2.47-3.37,6.43-5,9-.4.64-3.55,4.03-3,4.5.99.86,6.17-3.21,7.5-4,.9-.54,4.31-1.81,4.5-2s-.26-1.03,0-1.5c.54-.98,2.3-1.96,3-3,.27-.4.74-2.62,1-3,4.61-6.65,9.15-10.38,16.5-12.5.56-.16,1.44-1.84,2-2,2.89-.83,5.02-1.59,8-3,1.53-.72,1.45.4,1.5,1.5.31,7.07-.71,13.06-3,19-.25.64-1.72,2.33-2,3-.23.54.17,1.33,0,1.5-.19.19-2.75-.69-4,1.5-1.68,2.96-6.14,3.64-8,5.5-1.73,1.73,1.97.68-2.5,2-.6.18-4.4,3.82-5,4-.72.21-2.29-.21-2.5,0s.21,1.78,0,2.5c-.15.52-1.62,1.31-2,2-.26.47.19,1.31,0,1.5-.21.21-1.78-.21-2.5,0-.52.15-1.31,1.62-2,2-.47.26-1.31-.19-1.5,0-.25.25.25,2.75,0,3-.27.27-2.59-.25-3.5,0-.55.15-1.61,2-2,2-.21,0-2.43-.84-3-1-.91-.25-8.24,3.92-10,5-3.81,2.34-10.23,7.95-12.5,11.5-1.8,2.82-2.5.82-3.5.5-.6-.19-1.4.2-2,0-.4-.13-.61-.88-1-1-3.5-1.06-6.87,6.55-9.5,8.5.79,2.62-2.54,1.04-3,1.5-.13.13.35,1.82-1.5,3-.4.25-5.67,2.91-6,3-.82.22-2.05-.16-3,0-.38.07-.67,1-1,1s-.62-.94-1-1c-1.24-.21-2.83.24-4,0-.37-.08-.59-.87-1-1-.59-.19-1.37.18-2,0-.52-.15-5.79-5.04-7-6-2.16-1.71-4.83-5.35-6-6-.47-.26-1.31.19-1.5,0s.26-1.03,0-1.5c-1.61-2.89-5.26-6.08-7-9-2.11-3.53-5.18-10.63-6.5-14.5-1.4-4.09-.37-4.97,4-4,3.1.69,8.08,6.14,11,8,.45.29,2.48.71,3,1,.94.54,3.56,4.25,3.5.5-.06-4.02-2.69-6.5-6.5-6.5-15.13-6.45-27.85-16.19-42-25-1.09-.68-3.97-1.32-5-2-.83-.55-5.05-4.74-5.5-5.5-.12-.2-.97-1.88-1-2-.2-.88-.27-7.23,0-7.5.19-.19,1.03.26,1.5,0,.66-.37,1.66-2,2-2,.29,0,3.15,3.3,4,4,2.66,2.19,6.15,5.05,9,7,.68.47,2.47,3.03,3.5,2s-1.48-2.83-2-3.5c-1.86-2.41-8.46-9.12-9-11-.38-1.32,1.38-1.68,1-3-.97-3.36-1.24-5.62-2-9-.09-.4-1.36-.68-1-2,.54-1.97,3.84-1.34,4-1.5.32-.32-.66-2.81.5-3,1.04.77,1.99,2.39,3,3,2.33,1.42,2.11,0,3.5,2.5.72,1.29,3.28,2.71,4,4,.26.47-.19,1.31,0,1.5.11.11,2.89.11,3,0,.96-.96-.69-2.84-1-3.5-1.52-3.23-3.78-4.3-6-7-3.68-4.46-11.43-12.39-14-17-1.51-2.71-1.46-.96-2-1.5-.22-.22-.9-3.43-2-5.5-.43-.81-1.9-2.62-1-3.5.23-.23,5.56-.17,6.5,0,.17.03,2.46.8,3,1,3.19,1.17,9.35,6.54,11.5,9.5,2,2.75,2.8,7.07,5,10,3.1,4.13,9.26,7.04,10,12.5.41.49,2.64-1.75,2-3,1.63.52,2.24-1.36,3.5-1,.61.17,2.05,2.67,2.5,3.5,1.08,2,1.97,4.21,3,6l4,2-3-5c1.45-4.73-8.49-9.22-9-11-1.57-5.47-4.09-7.43-6-12-1.1-2.63-2.56-.78-5-4-1.68-2.22-5.79-5.82-7-8-1.51-2.71-1.46-.96-2-1.5-.3-.3-1.45-5.63-4-6.5.49-1.42-1.91-4.57-1-5.5.84-.86,9.22,2.49,8,5,3.39-.48,1.14,2.59,4.5,4,6.15,2.58,10.76,16.35,14.5,22.5l4,4.5-1-6.5c-2.76-5.16-3.75-11.05-6-16-1.23-2.7-3.37-4.26-5-7-.61-1.02-2.27-3.01-2-4,.11-.39.87-.59,1-1,.19-.59-.18-1.37,0-2,.45-1.59,5.18-4.78,4-7.5,1.22.57,2.72-1.33,3-1,.46.54-.34,11.17,0,13.5.29,1.97,2.57,5.44,3,7,1.53,5.59,2.72,11.67,5,17,5.24,12.24,18.83,21.97,20,36l2,4v6.5ZM77.29,23.04c.1-.12.1-2.88,0-3-1.31-1.57-1.31,4.57,0,3ZM153.79,42.04c-.65,0-.65,1,0,1s.65-1,0-1ZM117.29,43.04c-2.66-2.66-2.66,5.66,0,3,.11-.11.11-2.89,0-3ZM50.29,55.04c-.15-.15-.2-2.83-2-3.5l-2-5.5c-2-.07-.9,1.95-.5,3,2.38,6.21,10.1,13.07,13.5,18.5l2,2.5c1.69-7.48-5.02-8.28-8-12.5-2.05-2.91-2.58-2.08-3-2.5ZM133.79,48.04c-.65,0-.65,1,0,1s.65-1,0-1ZM111.29,63.04c.05-.11,1.76-.62,2-1.5.74-2.71.28-5.33,1-8,.11-.4.92-.62,1-1,.61-2.95-.17-5.02-2-2-3.84,6.32-6.06,12.22-8,19-.1.35-2.76,2.89-3,4s.03,2.74,0,4c-.02,1.17-.71,3.75,1,3.5l1-5.5c1.89-1.43,2.33-2.6,2-5l3-5.5c-.39.83.2,4,0,5.5-.24,1.88-1.64,6.03-2,8-.16.87-.62,3.83,1,3.5-.69-1.93,1.78-2.68,2-3.5.82-3.02.3-13.93,1-15.5ZM148.79,49.04c-.65,0-.65,1,0,1s.65-1,0-1ZM154.29,54.04c.64-.76-.33-2.8-1-2-.64.76.33,2.8,1,2ZM140.29,55.04c.64-.76-.33-2.8-1-2-.64.76.33,2.8,1,2ZM137.79,56.04c-.65,0-.65,1,0,1s.65-1,0-1ZM74.29,63.04c.64-.76-.33-2.8-1-2-.64.76.33,2.8,1,2ZM60.29,83.04c.53-3.55-1.94-6.37-2-9.5l-7-9.5c-.24,3.38,1.64,6.05,1,9.5,2.67,1.8,3.49,4.94,5,7,.64.87,1.94,2.17,3,2.5ZM47.79,66.04c-.65,0-.65,1,0,1s.65-1,0-1ZM62.29,73.04c.64-.76-.33-2.8-1-2-.64.76.33,2.8,1,2ZM63.29,78.04c.13-.15.13-3.85,0-4-1.37-1.64-1.37,5.64,0,4ZM63.29,102.04c-1.05-1.38-6.49-10.71-7-12.5-.33-1.16-5.93-7.24-7.5-8.5-.57-.45-2.82-1.99-3-2-.39-.03-2.26,1.72-.5,2.5,2.29,2.29,4.65,4.3,6,7,2.04,4.07,2.95,3.91,5,7,1.62,2.44,2.27,5.52,5.5,7.5l3.5,1c.98-2.86-1.8-1.74-2-2ZM70.29,101.04c-1.04-1.7-1.2-3.71-2-5.5-1.05-2.36-3.61-5.8-4-8-.48-2.72,1.47-7.24-2-8.5-.4,1.91,1.69,2.13.5,4-.95,1.49-2.15,1.73-1.5,4.5.09.38.87.59,1,1,.19.59-.18,1.37,0,2s3.35,3.18,3,5l5,5.5ZM81.29,82.04c-.28,1.67.44,3.02,1,4.5,2.27,6.06,3.63,12.72,7,19l2.5,3.5-.5-6.5c-3.79-4.23-2.57-11.92-5-16-.8-1.34-3.56-3.56-5-4.5ZM92.29,86.04c.1-.12.1-2.88,0-3-1.31-1.57-1.31,4.57,0,3ZM72.29,87.04c-.39.32,1.81,2,.5,2-1.85,0-.73-4.28-2.5-4,.2,1.74-.29,3.86,0,5.5.06.35.82.57,1,1,.22.54-.17,1.33,0,1.5.28.28,3.08.19,4,3.5,2.58,9.33,4.66,13.15,10,21,.16.24-.15.79,0,1,.48.66,3.69,3.85,4,3.5,1.09-1.24-1.84-2.93-2-3.5-.96-3.4-3.65-5.77-4-7-2.09-7.29-5.56-13.41-8-20-.55-1.49-1.29-2.82-1-4.5-.63.08-1.82-.15-2,0ZM116.79,91.04c-.65,0-.65,1,0,1s.65-1,0-1ZM68.29,107.04c.64-.76-.33-2.8-1-2-.64.76.33,2.8,1,2ZM71.29,113.04c.2-.17-2.34-4.82-3-4-1.16,1.44,1.58,5.21,3,4ZM71.79,110.04c-.65,0-.65,1,0,1s.65-1,0-1ZM120.29,111.04c-1.49-1.4-4.01,2.06-5.5,2-2.11.73-3.27,4.77-3.5,5-.07.07-.94-.23-2,.5-3.83,2.66-2.31,5.05,2,2,2.21-1.56,5.18-3.93,7-6,.56-.64,2.97-2.58,2-3.5ZM72.29,114.04c-.76-.64-2.8.33-2,1,.76.64,2.8-.33,2-1ZM80.29,116.04c-.76-.64-2.8.33-2,1,.76.64,2.8-.33,2-1ZM64.29,119.04c-1.03-1.03-3.39.32-.5,2,.73.42.68-1.82.5-2ZM100.79,119.04c-.65,0-.65,1,0,1s.65-1,0-1ZM86.29,134.04c.37-2.32-.93-2.33-2.5-3-4.61-1.96-8.67-4.65-13-7-.69-.37-1.48-1.85-2-2-1.88-.55-2.75,1.29-4.5,1,.31.99,1.69,2.49,2.5,3,2.26,1.42,5.68,2.34,8,3,1.02.29,5.54,4.87,6,5,1.41.39,3.86-.26,5.5,0ZM70.29,132.04c.64-.76-.33-2.8-1-2-.64.76.33,2.8,1,2ZM94.79,135.04c-.65,0-.65,1,0,1s.65-1,0-1Z"/>
    </g>
  </g>
</svg>