<?xml version="1.0" encoding="UTF-8"?>
<svg id="Layer_2" data-name="Layer 2" xmlns="http://www.w3.org/2000/svg" viewBox="0 0 178.02 182.36">
  <g id="Elements">
    <g id="Element">
      <path d="M169.03,39.36c-.03-.07-1.04.27-1-1,1.33.42.83.77,1,1Z"/>
      <path d="M166.03,37.36c.31-.4,2.56-1.37,3-1s-.97,1.05-1,2c-.56-.18-1.79.18-2,0-.04-.03-.06-.93,0-1Z"/>
      <path d="M68.03,97.36c-.22.22-.62,1.53-1.5,2-.48.26-1.31-.19-1.5,0-.59.59,1.79,4.03-3,3,.14-.45.92-2.37,1-2.5.5-.77,2.71-2.17,3.5-2.5.54-.23,1.32.17,1.5,0Z"/>
      <path d="M120.03,72.36c.1-.81-.19-1.86,0-2.5.14-.49,3.12-2.39,3.5-2.5,1.08-.3,3.2-.83,4-1,4.91-1.01,3.16,1.66,3.5,2,.28.28,4.06-.82,5,1.5s-2.23.56-2,2.5l3-.5c.51.85,3.5-2.1,4-3,.26-.47-.19-1.31,0-1.5.23-.23,2.55.17,3.5,0,.39-.07.67-1,1-1s.62.94,1,1c.95.16,3.07.17,4,0,.35-.06.57-.82,1-1,.54-.22,1.33.17,1.5,0s-.22-.96,0-1.5c.55-1.32.61-1.63,1-3,.21-.72,2.81-2.3,3-3,.23-.84-.21-2.11,0-3,.09-.39.93-.62,1-1,.46-2.53.21-5.79-3-5.5l-2.5,5c-2.21-1.3-1.13-2.92-1.5-4.5-.09-.38-.88-.59-1-1-.75-2.51,1.77-3.16,2-4,.32-1.17-.21-3.13,0-4.5l3,3c-.06-2.76,1.53-4.6,1-7.5-.07-.37-.87-.59-1-1-.19-.59.18-1.37,0-2-.25-.87-3.74-3.12-4-4-.21-.72.21-2.29,0-2.5-.14-.14-2.78-.54-3.5-1-1.87-1.19-2.49-5.55-4-6-.72-.21-2.24.22-2.5,0-.53-.45,3.65-4.81,3-6,.27-.33,5.19,3,5.5,3,.53,0,1.49-1.49,1.5-2.5.01-1.58-1.34-1.81-1-3,.15-.5,1.59-1.31,2-2,.12-.2-.12-.65,0-1,.33-.96,1.85-.16,2.5-1.5.58,1.01-1,1.84-.5,3.5.22.73,1.77,2.8,2.5,3.5l-.5-4c3.48.83,2.78-3.78,3-4,1.12-1.12,3.18,2.61,5,2-3.28-5.8,3.37-6.36,2-.5-.03.14-1.82,1.68-1,2.5.19.19,2.74-.7,4,1.5.26.46-.18,1.27,0,1.5.46.57,2.62-3.6,4-.5-1.95,1.25.41,1.56,0,3-.34,1.19-3.25,2.09-4,1.5-.26-.21,1.93-1.84-.5-3-.51,1.28-2.41.9-2.5,1-.25.26.2,2.55,0,3.5-.08.38-.88.59-1,1-.63,2.07,1.17,3.15,2.5,4.5.54-1.31,2.35-.87,2.5-1,.16-.15-.17-.86,0-1-.15.15-3.45.27-3-.5,1.76-3.01,4.42-.92,3,.5.43-.36,2.62.93,2-1.5l2-2.5c.31,1.6-.86,1.94-1,3.5-.16,1.87,1.14,3.38,1,3.5-.76.67-3.32-1.7-4-1-.34.35.34,4.66,0,5-.19.19-1.77-.19-2,0-.48.41,1.37,1.22,1,2.5-.48,1.63-2.87,1.37-3,1.5-.18.18.23.96,0,1.5-.18.42-.89.62-1,1-.38,1.3,1.46,2.04,1,2.5-.05.05-1-.14-1,.5s.97.45,1,.5c2.89,3.94-1.82.8-2,1-.54.62,1.3,3.96-2,3l2.5,2c.84-2.3,4.31-1.81,4.5-2,.11-.11.14-2.65,0-3,.03.04.85-.17,1,.5v5.5l-3-2-1,5,2-2c.44,1.61-1.98,6.03-1,7,.19.19,1.03-.26,1.5,0,.37.2,2.45,2.33,2.5,2.5.36,1.31-.86,1.53-1,2-.18.61.7,3.96,1,5,.2.69,3,2.53,3,3,0,.64-3.78,2.14-1,4,.05,1.05-1.76.27-2,.5-.81.78,1.8,2.4,0,3.5-5.07,3.09-2.15-4.65-3-5.5-.18-.18-.96.23-1.5,0-1.31-.55-4.65-3.08-5.5-4.5-.2-.33-.04-3.39-2-1.5-.1.09.11,1.08-1,2.5-1.23,1.58-4.81,3.31-5,4-.25.91.27,3.23,0,3.5-.21.21-1.78-.21-2.5,0-1.29.38-1.73,3.65-3,4-.91.25-3.23-.27-3.5,0-.16.16-.17,3.89,0,4.5.15.55,2,1.6,2,2,0,.23-2.31,2.89-2,4,.05.19,1.82,1.68,1,2.5s-2.36-.97-2.5-1c-1.03-.18-4.03-.21-5,0-1.1.24-3.67,2.91-4,3-1.42.39-3.86-.26-5.5,0-.28,1.83,1.52.7,2.5,1,1.62.5,2.56,4.09,4,5,1.08.68,2.91.69,4,1,.99.29,4.02,4.73,5,5,1.31.36,1.54-.87,2-1,1.28-.37,2.09,1.48,2.5,1,.17-.2-.22-.96,0-1.5.48-1.16,2.81-4.14,3-5s.15-3.09,0-4c-.06-.38-1-.67-1-1,0-.25,1.36-.69,1-2-.07-.24-3.03-3.22-3.5-3.5-.2-.12-.65.13-1,0-.9-.32-.61-2.89-.5-3,.67-.67,3.21,1.67,4.5,1,.95,1.2,2.67,1.02,3.5,2.5.26.47-.19,1.31,0,1.5.14.14,4.09-.14,2,2-.22.23-2.05-.55-2,.5.88.65,1.66,2,2.5,2.5.16.1,1.89.96,2,1,.7.23,2.21-.23,2.5,0,.26.21-1.93,1.84.5,3l-.5-4.5-3-4,4.5,3.5c.45-.48,1.92-1.65,1.5-2-.32-.27-1.86.58-2-.5-.46-3.59.64-2.01,1.5-2.5,1.88-1.07,1.91-4.49,2.5-6.5.54-1.83,3.93-.62,3-3.5l2,2.5c-1.8,1.11-.62,3.3-1,5-.09.4-1.36.68-1,2,.55,2.01.59,3.09,1,5,.34,1.59,3.56,4.96,4,8,.22,1.53-.32,7.18,0,7.5.19.19,1.03-.26,1.5,0,3.07,1.71-.22,2.48-.5,3.5-.21.77-.21,6.23,0,7,.12.45,3.07,2.48,1.5,2.5-.25,0-1.09-1.5-1.5-1-.16.19.51,6.74-2,4-.69-.75,1.7-4.79-2-4-1.05,2.55,1.78,3.67,2,4.5.19.73.14,3.14,0,4-.5,3.01-1.16,4.99,0,9,.23.8,1.64,1.66,1,4-.44,1.61-2.87,1.38-3,1.5-.57.52,1.85,1.94,2,2.5.36,1.32-.87,1.55-1,2-.29,1.03,1.75,2.68,1,4.5,1.18.48,3.27-1.7,4-1,.82.79-.96,2.34-1,2.5-.35,1.33.88,1.56,1,2,.36,1.31-1,1.74-1,2s1.5,1.09,1,1.5c-.2.16-.94-.2-1.5,0-.43.15-.68,1-1,1-.25,0-.69-1.36-2-1-.25.07-1.52,1.83-2.5,1-.11-.09.57-3.02-1.5-2-2.5,1.23-.57,2.18-.5,2.5.42,2-.53,4.07,2.5,1.5l2.5,2c-4.56-.6-2.41.8-3,3.5-.11.48-1.77,1.7-1,3.5l-3-2v5c-4.35.54-.7-4.55-1-6.5,1.29-.52.89-2.4,1-2.5.77-.75,2.76,1.28,3,1,.78-.9-2.06-4-2.5-4-1.93,0-.63,5.05-3,4-2.9-1.28-.34-3.87-.5-4-2.32-1.86-1.75,1.57-2,2.5-.11.41-.95.64-1,1-.31,2.08.48,5.26,0,7-.1.36-1.69,1.79-2,1.5-.32-.3.92-2.91-2-2,1.61,4.2-5.88,6.66-6,3.5,0-.21,1.87-2.32,1-4l-2-2.5v5c-1.75.19-3.84-.28-5.5,0-.38.06-.67,1-1,1-.2,0-2.41-2.09-3.5-1-.5.5,1.16,5.07-1.5,4-1.58-.63-2.44-.29-5-1-1.68-.46-5.55,4.01-6.5,3l-2-6-3.5,2c-1.05.05-.27-1.76-.5-2-.8-.82-2.37.98-2.5,1-1.54.27-7.2,1.18-8,1-.37-.08-2.82-2-3-2-1.32.01-1.39,2.86-1.5,3-.41.5-1.13-.9-1.5-1-1.3-.35-1.44.77-2,1-2.18.91-1.29-1.75-1.5-2-1.05-1.25-.9,1.89-1,2-.13.15-2.93.27-3.5,2-3.22.13-6.96.4-10,1-.34.07-1.09,1.5-1.5,1-.28-.35.25-2.58,0-3.5-.11-.4-1.14-.94-1.5-1.5-.55-.86,1.12-2.41.5-4,1.98-.33.6,2.6,1,3,.71.7,2.83-1.48,4-1,.4-1.79-1.74-.72-2-1-.21-.23.2-1.77,0-2.5-.24-.87-2.38-1.66.5-3.5,3.36-2.15,6.23-7.9,10-10,.47-.26,1.31.19,1.5,0,.59-.59-.92-6.41,4-2-.2-1.04.31-3.52,0-4-.29-.44-2.59,2.88-2-1,5.4.65,2-1.81,2-2.5,0-.39,1.85-1.45,2-2,.23-.83-.21-2.1,0-3,.09-.38,1.57-1,1-3-.07-.24-3.25-3.5-3.5-3.5-1.45-.03-1.26,3.83-2.5,4.5,4,3.52-5.41,10-6,12-1.31,4.44-3.35,9.74-6.5,11.5-2.21,1.23-1.25,3.7-1.5,4-.55.68-3.32-3.4-3-4.5.18-.62,2.39-2.08,3-3,.14-.21-.16-.74,0-1,.57-.96,2.71-3.79,2-4.5-.19-.19-1.03.26-1.5,0-1.39-.78-2.38-4.53-4-5-1.28-.37-7.05,3.46-8,5-1.91-.05-2.97,2.37-4.5,3.5-.37.27-2.35,1.5-2.5,1.5-.39,0-5.39-4.94-4.5-6,.08-.1,3,.57,2-1.5-.42-.87-2.39-2.09-3-1.5-.14.14-.27,2.93-2,3.5.54,1.61-4,4.29-4,5,0,.45,3.15,4.52,3,6,1.38.87,4.51,5.22,5.5,5.5.62.18,1.38-.18,2,0,.56.16,1.61,2,2,2,1.7,0,1.34-3.84,1.5-4,.19-.19,1.03.26,1.5,0,2-1.11,3.38-4.11,6.5-.5-1.34.65-.54,2.17-1.5,2.5-1.96.68-1.89,1.38-3,2-.47.26-1.31-.19-1.5,0-.25.25.25,2.75,0,3-1.09,1.09-5.6-3.75-6.5-4-1.09-.3-2.91.3-4,0-.95-.26-1.83-1.26-5-2-.13-.03-1.71-1.82-2.5-1-.7.73,1.48,2.82,1,4-1.2-.45-3.32,1.7-4,1-.12-.13.12-4.11-2-2-.76.75,1.29,2.47,1,3.5-.12.42-2.2,2.35-3,2.5.22-1.24.12-6.08-1.5-6-1.45.07-1.06,4.05-3,3l-4.5,6,2-5.5c.94-1.06,1.5-1.82,3-1.5l-2-2.5-.5-5.5-2.5,4.5.5,1.5-1.5,1,2,1c.4,1.79-1.74.72-2,1-.31.33.83,4.07-1.5,5s-1.06-3.99-3.5-2c-.27.22,1.93,1.84-.5,3l.5-3.5c-1.77-1.29-.3-4.89-2.5-5.5-1.52-.42-2.49,2-3,2-.35,0-2-2.54-2.5-2s1.37,3.85-2,3c-1.24-5.99,2.3-3.3,3-4,.18-.18.16-4.81,0-5-2.28-2.71-1.87,3.06-2,3.5-.5,1.71-2.59,1.24-3.5,1.5-.65.19-2.11,2.44-3,3-1.08-.11-.27-1.72-.5-2.5-.71-2.37-2.19-.58-2.5-.5-1.35.36-2.32.81-3,1-1.54.42-3.08-3.08-4.5-2-.26.2.86,2.98-2,2-.18-2.44.26-5.11,0-7.5-.3-2.83-1.34-7.85-2-11-.31-1.49-1.2-2.02-1-3.5l4,2c-4.81-5.78-2.09-2.91-1-4,.25-.25-.25-2.75,0-3,.6-.61,3.87,1.91,5,1,.54-.43-1.7-1.92-2-2.5-.38-.72,3.41.07,2-2.5l-3,.5c-.66-1.1-3.62-.13-4-.5-.7-.68,1.45-2.8,1-4,4.45.55,2.49-.59,3-3.5.07-.39,1-.66,1-1,0-.18-1.78-2.44-2-3s.2-1.38,0-2c-.15-.48-1.36-.69-1-2,.11-.39,1.75-1.81,2-1.5.64.8-1.3,5.39,1.5,7,.46.26,1.26-.18,1.5,0,.26.2-.86,2.98,2,2l-1-4c-3.86.38-1.26-1.42-1-2.5.32-1.33-.69-2.99,1-4-.64-.87-2.2,1.26-3,.5-.84-.81,1.01-2.37,1-2.5-.01-.35-.99-.66-1-1,0-.25,3.05-2.34,2-3.5-.51-.56-3.51,3.58-4,3-.35-.42-.12-2.99,1-3.5.05-1.04-1.74-.27-2-.5-.48-.42,1.38-1.21,1-2.5-.12-.4-.89-.61-1-1-.31-1.12,1.57-2.96,2-4,.23-.54-.17-1.33,0-1.5.37-.37,3.98.98,3-1.5-.17-.44-.99-.68-1-1-.01-.55,1.97-1.92,3-1.5v4c-1.95-.59-2.32,1.35-3.5,2-.47.26-1.3-.19-1.5,0-.48.44.92,1.14,1,1.5.2.94-.25,3.25,0,3.5,1.73,1.73.68-1.97,2,2.5.11.37,2.76,2.89,3,4,.25,1.18-.3,2.93,0,4,.08.31,4.18,4.5,4.5,4.5.17,0,1.03-1.6,3-1,.41.12.63.93,1,1,1.49.27,5.42.21,7,0,4.16-.57,2.57-6.91,1-7-.38-.02-2.9,4.35-5.5.5-.24-3.11,3.77-2.29,4-2.5.27-.26-1.54-1.73-1-3.5,1.27-4.16.32-5.67,0-10-1.31-.55-.85-2.33-1-2.5-.47-.56-2.16,2-2.5,2-.4,0-.78-1.94-2,0-.67,1.07.49.85.5,2.5,0,1.34-4.6.35-3.5-1.5.51-.86,1.99-1.64,2.5-2.5.13-.22-.14-.69,0-1,.2-.43.92-.64,1-1,1-4.45-2.54-8.28-7-7.5.07,1.04.91.69.5,2-.51,1.63-1.79,3.36-3.5,4,.69-1.94-1.76-2.66-2-3.5-.37-1.29,2.93-4.39,2-6.5l4,2c.3-1.55-.88-2.68-2-3.5-.93-.68-3.65-1.73-4-3-.17-.6-.15-4.33,0-4.5.23-.27,2.28,1.75,3,1,.3-.32-.3-3.7,0-4,.23-.23,5.96.62,6-1.5,0-.3-3.12-2.31-2-4.5-3.64-.64-.2,2.78-4.5,2-1.01-1.94-2.11.45-2.5,0-.11-.13-.15-2.94,0-3.5.69-2.57,2.14-.52,3,0,1.34.81,2.7.05,3-1,.46-1.62-3.7-3.92-3-4.5.38-.32,3.95-.25,4.5,1,1.01,2.07,3.56.15,3.5-.5-.23-2.29-6.42.03-3-4.5l-4,.5c-.63-2.7,2.59-1.06,3-1.5.33-.36-.23-4.75,0-6,1.03-.12,2.07,2,2.5,2s1.47-2.12,2.5-2c0,1.33,0,2.67,0,4-.93.2-1.75-.3-2.5,1-4.2-.32,2.28,3.26,2.5,3,.16-.18,0-3.05,0-4,.63-.13,1.85.15,2,0,.19-.19-.26-1.03,0-1.5.95-1.72,3.81-3.96,4-6,2.47-3.67,4.36-7.92,4-12.5,3.16,1.22,1.1,1.94,1,2.5-.16.95.22,2.18,0,3-.29,1.07-2.51,3.75-3,5-3.66,9.25-9.06,23.9-10,33-.15,1.41-.34,9.16,0,9.5.19.19,1.81-.19,2,0,.3.3-.3,3.7,0,4,.19.19,1.03-.27,1.5,0,1.84,1.04,1.37,2.87,1.5,3,.22.22,1.8-.23,2.5,0,.52.17,2.56,1.88,3,2,2.87.77,2.97-.8,2.5-3.5-.07-.38-.98-.65-1-1-.01-.18,1.78-1.75,1-3.5,1.38.08,2.67,2.76,3.5,3,.66.19,1.5-.23,2,0,.94.44,4.36,3.14,5.5,2,.92-.92-1.57-4.44-1-5,.35-.34,4.66.34,5,0,.17-.17-.23-.96,0-1.5.65-1.55,2.54-2.95,2-5-.1-.37-1.5-1.09-1-1.5.27-.22,1.77.2,2.5,0,.4-.11.6-.89,1-1,1.24-.34,3.76,2.34,5,2,.55-.15.69-1.28,3-1,1.25.15-.26,2.74,1,3l-.5-4c1.63.52,2.25-1.36,3.5-1,.19.05,2.23,2.08,2.5,2.5s.72,2.56,1,3,2.32,2.5,2.5,2.5c.33,0,.62-.93,1-1,.95-.16,2.18.22,3,0,.58-.16,3.59-1.93,4-2,2.04-.36,5.23.49,7,0,.55-.15,1.57-1.97,2-2,.18-.01,1.75,1.78,3.5,1-.51-1.11-2.71-6.3-2-7,.07-.07,2.13-.38,2,.5-3.64,2.74,2.28,3.22,3,2.5,1.68-1.68-2.26-5.79-2-6,1.59-1.31,6.86,5.94,9,1.5-1.07-2.13,3.5-1.99,4-2.5.19-.19-.26-1.03,0-1.5.91-1.64,4.6-5.25,5-7,.21-.94-.25-3.25,0-3.5.19-.19,1.03.26,1.5,0,4.1-2.29,2.96-5.91,4.5-8.5,1.68-2.82,6.86-4.84,6-9.5,4.37-.81-.1,4.91-1,6.5-.35,3.24-3.1,7.67-5,11-.4.7-1.76,1.41-2,2-.88,2.21,1.74,1.28,2,1.5.33.28-1.57,1.78-1,3,3.88.59.56-1.71,1-2,2.14-1.39,1.72.84,2,1.5.18.43.93.64,1,1,.58,2.79-1.54,4.08,3,3.5-.1.85.17,2.83,0,3s-4.82.18-5,0c-.45-.45.76-4.3-.5-5-2.67,2.1-1.82,5.66-4.5,7.5-2.28,6.6.15,1.87,1.5,1.5.6-.17,4.33-.14,4.5,0s-.16.86,0,1c-.29-.29-3.85-.62-3,1.5,1.22,3.05,3.99-.51,3-1.5.19.16,4.26,1.06,4.5,1,1.19-.32,3.64-2.9,4-3,1.29-.37,2.09,1.48,2.5,1,.93-1.08-1.59-4.36-1-5,7.18-.93-.93-6.11-2-5-.3.31.3,3.69,0,4-.68.7-2.8-1.45-4-1ZM163.03,16.36c-2.31.48-2.97-2.33-5-3-.98,2.86,1.8,1.74,2,2,.22.29-.21,1.77,0,2.5.11.38.82.58,1,1,.22.54-.17,1.33,0,1.5.11.11,2.89.1,3,0,.16-.13-1.72-2.56-1-4ZM151.03,18.36c-.15-.15-3.45-.27-3,.5,1.76,3.01,4.42.92,3-.5ZM155.03,24.36c-.13-.13-1.36.07-2,0,.45,1.2-1.7,3.32-1,4,.11.1,2.88.1,3,0,.5-.41-1-1.25-1-1.5,0-.15,1.84-1.66,1-2.5ZM161.03,24.36c-.83.07-1.89-.44-2,.5-.53,4.42.26,2.81,1.5,3.5,1.12.62,2,2.74,3.5,3l-3-7ZM168.53,24.36c-.65,0-.65,1,0,1s.65-1,0-1ZM159.53,40.36c-.65,0-.65,1,0,1s.65-1,0-1ZM16.53,56.36c-.65,0-.65,1,0,1s.65-1,0-1ZM130.03,77.36c.64-.76-.33-2.8-1-2-.64.76.33,2.8,1,2ZM13.53,79.36c-.65,0-.65,1,0,1s.65-1,0-1ZM101.03,83.36c.99.99,4.55-1.78,1.5-3-2.12-.85-1.79,2.71-1.5,3ZM16.03,81.36c-.24-.19-3.44-.24-3,.5,1.64,2.8,3.36-.21,3-.5ZM120.03,86.36c.16-.2-.2-.94,0-1.5.15-.43,1-.68,1-1,0-.21-1.72-1.84-2-1.5-.46.57-.05,5.26,1,4ZM142.03,85.36l-2-2c-.26,2.11-.11,2.26,2,2ZM49.53,85.36c-.65,0-.65,1,0,1s.65-1,0-1ZM53.03,92.36c.79-1.72-.98-3.26-1-3.5-.01-.12,2.66-2.22,0-2.5.73,1.79-2.01,3.02-2,3.5,0,.2,2.21,2.44,3,2.5ZM88.03,88.36c-3.76-.47-6.74,1.6-10.5,1-.84,2.3-4.31,1.81-4.5,2-.11.11-.11,2.89,0,3,.89.9,4.1-1.48,5.5-1,2.17-2.3,3.51-1.3,6-1l3.5-4ZM118.03,94.36c1.8-1.71-4.77-8.82-6-4.5-.58,2.03,5.28,5.19,6,4.5ZM132.53,88.36c-.65,0-.65,1,0,1s.65-1,0-1ZM112.03,109.36c-.27-.36.22-2.54,0-3.5-.58-2.55-4.04-6.61-5-9-.42-1.05-.64-3.78-1-5-.16-.55-2.53-2.79-3.5-2.5-1.64.49-1.38,2.89-1.5,3-.2.19-1.03-.27-1.5,0-1.7.97-1.9,3.63-1.5,5.5.28,1.29,3.42,6.48,3,8-.66,2.38-1.41,3.74-1,7,.05.37.93.62,1,1,.22,1.22-.29,2.94,0,4,.63,2.3,4.86,2.22,6,4l.5,4.5c.5-.78,2.32-1.91,2.5-2.5.5-1.64-1.37-4.15,2-3.5.3,1.73-1.58,2.66-1,4.5.43,1.39,3.22,6.22,3,7s-1.34.88,0,3c.39.61,3.98,4.22,4.5,4.5.72.38-.07-3.41,2.5-2,.29,1.59-.4,8.58,0,9,.09.1,1.99-.28,2.5,1,1.56-3.19,5.7-1,7-3,.69-1.06-.98-1.41-.5-3l-3,2c.55-1.6-.93-2.11-1-2.5-.4-2.31-.32-4.63-1-7-.16-.56-2-1.61-2-2,0-.33.92-.61,1-1,.76-3.64-.86-2.02-2.5-2.5-.49-.14-2.5-3.28-2.5-3.5,0-.33.89-.59,1-1,.29-1.05-4.46-6.33-4-8,.11-.41.98-.66,1-1,.01-.18-2.07-2.3-1-3.5.14-.15,3.08,1.94,4,1,.6-.61-.86-5.02.5-6l3.5,8.5c.76,2.64,7.39,6.01,8,8,.37,1.22-.38,3.04,2,3.5.51-1.63-1.36-2.24-1-3.5.18-.63,1.71-.95,2-3,.25-1.77.96-3.65,1-4,.17-1.38.29-5.94,0-7-.08-.31-4.19-4.42-4.5-4.5-1.3-.36-3.5.27-5,0-.29-.05-1.01-1.57-3-1-1.61.46-1.38,2.86-1.5,3-.41.48-1.21-1.37-2.5-1-2.44.71-.5,2.32-.5,2.5,0,.32-.85.57-1,1-.2.56.16,1.3,0,1.5-.3.37-1.56-2.08-3,.5-.26.47.19,1.31,0,1.5-.25.25-2.75-.25-3,0s.25,2.75,0,3-2.7-.26-3,0c-.52.45,1.66,1.38.5,2-.73-1.18-5.5-6.07-5.5-6.5,0-.17,1.6-1.03,1-3-.12-.38-.83-.58-1-1-.22-.54.17-1.33,0-1.5-.19-.19-1.76.2-2,0-.5-.41,1-1.25,1-1.5,0-.34-1-.67-1-1s.89-.59,1-1c.07-.26-.78-4.1-1-5-.09-.39-.91-.61-1-1-.41-1.71-.07-3.44,1.5-4.5,2.95,1.98-.24,3.8.5,6.5.19.7,2.79,2.28,3,3,.18.62-.18,1.38,0,2,.22.77,2.42,1.45,2,3-.12.46-3.14,2.45-2,3.5.82.76,2.45-1.3,3.5-1,.51.15,2.98,2.99,4.5,3,.98-2.86-1.8-1.74-2-2ZM93.03,90.36c-.44-.43-4.1-.59-3,2l-3,1c1.91-.4,2.12,1.68,4,.5.84-.53,2.77-2.75,2-3.5ZM96.53,90.36c-.65,0-.65,1,0,1s.65-1,0-1ZM94.53,91.36c-.65,0-.65,1,0,1s.65-1,0-1ZM47.03,97.36l-2.5-5,1,4,3.5,2c.39-1.79-1.71-.71-2-1ZM68.03,97.36c.28-.27-.52-2.38.5-3,.99-.5-.74-1.93-1-2-.69-.18-4.32-.19-5,0-.48.13-2.71,2.16-4,2l-5.5,1,2.5,3c2.37-.42,1.1.8,1.5,1.5,1.13,1.99,2.5,1.13,3.5,1.5.34.12.49.78,1.5,1-.21.68.2,1.8,0,2.5-.14.47-3.14,2.46-2,3.5,1,.91,4.04-1.5,5.5-1,3.92-2.33,5.38-6.22,10-2,1.06-.96-1.33-1.86-1.5-2.5-.23-.86.24-2.18,0-3-.11-.38-.82-.58-1-1-.4-.97.73-2.17-2.5-1.5-.39.08-.67,1-1,1-.26,0-1.03-1.46-1.5-1ZM120.03,95.36c-.36-.36-4.28.33-5.5,0-.83-.23-2.13-3.32-3.5-2.5l.5,2.5-.5,3,3-2c-.18.99.27,3.68,0,4-.09.11-2.94-.62-2,1.5,1.28,2.89,3.86.35,4,.5,2.09,2.2-2.55,1.54-2,3,.94.71,6-2.69,6-3.5,0-.33-.88-.58-1-1-.46-1.6,1.92-4.58,1-5.5ZM153.53,93.36c-.65,0-.65,1,0,1s.65-1,0-1ZM80.03,102.36c.1-.09-.14-1.08,1-2.5.7-.87,6.25-3.41,2.5-4.5-3.94-1.15-2.03,2.53-2.5,3-.8.8-3.69-2.3-3,3.5.11.89,1.89.61,2,.5ZM36.03,101.36c-.21-.21.21-1.78,0-2.5-.12-.42-2.74-2.81-3-2.5-1.44,1.69,2.01,4.25,2,4.5-.01.32-.83.56-1,1-.79,1.99,2.18,1.69,3.5,2.5,1.97,1.2,4.3,5.8,5,6,1.26.35,1.87-1.51,3.5-1,.12-1.64,1.03-3.27,1.5-5,.99-.5-.74-1.93-1-2-1.51-.4-4.18.23-6,0-.37-.05-.61-.92-1-1-.95-.19-3.26.24-3.5,0ZM157.03,96.36c-1.15,3.62,3,4.75,3,2.5,0-.2-2.21-2.44-3-2.5ZM89.03,98.36c-1.71-.41-1.98.66-3,1.5-2.79,2.32-4.81,5.26-1.5,8.5l1.5-3.5c-.53-2.13,2.03-1.18,3.5-3.5.68-1.07-.98-1.4-.5-3ZM127.03,98.36c-.76-.64-2.8.33-2,1,.76.64,2.8-.33,2-1ZM164.03,99.36c-2.46-.53-4.73.97-4,3.5.06.2,1.82,1.7,1,2.5s-5.19-2.81-6-2c-.21.21.21,1.78,0,2.5-.17.56-1.84,1.44-2,2-.18.62.18,1.39,0,2-.12.4-.89.6-1,1-.16.56.67,2.06,1,3s1.75,3.17,2,4c.61,2-2,4.63-2,5,.01,1.35,1.34-.5,1.5-.5.11,0,1.5,1.39,1.5,1.5,0,.24-1.38.72-1,2,.75,2.53,2.09.58,3,0,1.87-1.19,2.09.9,4,.5.54-1.75-2.63-.57-2-1.5s2.84-2.41,3-3c.2-.72.18-4.19,0-5-.58-2.58-.85-4.39,0-7,.41-1.25.59-3.75,1-5,.18-.54,1.57-1.02,1-3-.15-.52-1.54-.86-1-2.5ZM96.03,101.36c-2.52-.29-5.71,1.48-7,3.5-.29.45-.71,2.37-1,3-1.12,2.39.39,1.59,0,3-.15.55-1.85,1.45-2,2-.41,1.48.23,4.19,0,6-.05.37-.93.62-1,1-.82,4.52,1.59,4.65,2,6,.2.65.11,3.55,1.5,3.5.18,0,2.25-2.08,2.5-2.5,1.03-1.73,1.36-4.82,2-7,.11-.37,2.76-2.89,3-4,.25-1.18-.3-2.93,0-4,.28-1.02,4.03-2.6,1-5l-1-5.5ZM53.03,103.36c-.12-.1-2.89-.11-3,0s-.11,2.89,0,3c1.89,1.89,1.8-1.05,2-1.5s1.48-1.1,1-1.5ZM148.03,105.36c-7.27-.71.5,4.56,1,4,.7-.8-1.48-2.78-1-4ZM35.03,108.36c1.03-1.03-.32-3.39-2-.5-.42.73,1.82.68,2,.5ZM80.03,107.36l-5-1c-.08,1.43-1.86,5.14-1,6,.13.13.9-.11,1.5,0,1.09.2.24,1.74.5,2,2.57,2.57,1.85-3.94,2-4.5.14-.5,2.57-2.03,2-2.5ZM30.53,107.36c-.65,0-.65,1,0,1s.65-1,0-1ZM144.03,107.36c-1.09-1.09-3.09.91-2,2s3.09-.91,2-2ZM38.03,111.36c.62-.57-.63-2.52-1.5-3-.74.36-.87,2.96-2,3-.13,0-1.59-1.84-2.5-1-.29.27,1.76,2.16,1,3-.5.55-1.52-1.87-2-.5-.38,1.08-.96,1.86-1,2-.37,1.33,1.36,1.66,1,3-.05.19-1.82,1.68-1,2.5s2.3-.94,2.5-1c2.62-.75,2.85,1.4,2.5-4l4,4c.5-2.28-4.5-6.5-3-8,.19-.19,1.79.19,2,0ZM140.03,111.36c.64-.76-.33-2.8-1-2-.64.76.33,2.8,1,2ZM51.03,112.36c1.03-1.03-.32-3.39-2-.5-.42.73,1.82.68,2,.5ZM61.03,111.36c-.72-.79-3.79,1.78-4,2.5s.22,2.23,0,2.5-1.74-1.52-3.5-1c-1.5,1.51-5.47,2.89-6.5,4.5-.29.45-.73,2.31-1,3-.16.42-.89.62-1,1-.36,1.25,1.52,1.87,1,3.5,1.55.25,1.96-.76,3.5-1,1.24-.19,2.96.29,4,0,.44-.12,6.37-6.06,6.5-6.5.18-.63-.19-1.41,0-2,.15-.48,1.36-.69,1-2-.11-.41-.98-.66-1-1-.01-.18,2.07-2.31,1-3.5ZM72.03,113.36c.64-.76-.33-2.8-1-2-.64.76.33,2.8,1,2ZM40.03,112.36c-2.11-.26-2.26-.11-2,2l2-2ZM48.03,114.36c.64-.76-.33-2.8-1-2-.64.76.33,2.8,1,2ZM141.03,112.36l-3,2.5c.39,3.43-2.83,5.61,1,8,1.32.82,2.58.06,3.5,1.5.98-1.01,2.2-1.35.5-2.5-.96-.65-1.64,1.3-3-1-.64-2.41,1.77-1.22,2-1.5.78-.92-1.84-5.22-1-7ZM67.03,119.36c1.62,1.62,4.26-3.46,3-5-.4-.48-1.07.81-1.5,1-.53.23-1.32-.18-1.5,0-.14.14-.14,3.86,0,4ZM72.53,116.36c-.65,0-.65,1,0,1s.65-1,0-1ZM77.03,117.36c-.36-.43-2.78-.28-2,1.5l-1,5.5c4.03.71.78-2.81,1-3s1.81.19,2,0c.14-.14.13-3.85,0-4ZM121.53,117.36c-.65,0-.65,1,0,1s.65-1,0-1ZM29.03,118.36c-.76-.64-2.8.33-2,1,.76.64,2.8-.33,2-1ZM8.53,119.36c-.65,0-.65,1,0,1s.65-1,0-1ZM61.03,134.36c2.23-1.87,1.42-.63,3.5,0,.96.29,2.02-.35,4,0,1,.18,3.08-.27,3.5,0,.44.29-2.88,2.59,1,2,.31-1.6-.86-1.94-1-3.5-.2-2.27,1-2.84,1-3s-1.19-1.81-2-1c-1.61,1.61-.81,3.31-1,3.5-.11.11-2.03.37-2-.5.05-1.58.89-1.62,1-2,.21-.73-.21-2.29,0-2.5.25-.25,2.68.26,3,0,.19-.15-1.61-2.25-1-4.5.22-.82,2.69-1.57,2-3.5-1.09.55-4.81,3.84-5,4.5-.21.72.21,2.29,0,2.5-.25.25-2.56-.21-3.5,0-.36.08-2.66,1.93-3,2-1.45.31-3.68-.36-5,0-.51.14-1.31,1.63-2,2-.56.3-2.54.71-3,1s-2.3,2.1-2.5,2.5c-1,1.95,1.66,1.48,2.5,1.5,1.89.04,8.71-.34,9.5-1-1.09,1.09.91,3.09,2,2s-.91-3.09-2-2ZM125.53,119.36c-.65,0-.65,1,0,1s.65-1,0-1ZM38.03,120.36c-.07-.07-1.93-.07-2,0-.21.21-.21,5.79,0,6,.07.07,1.93.07,2,0,.21-.21.21-5.79,0-6ZM96.03,120.36c-1.03-1.03-3.39.32-.5,2,.73.42.68-1.82.5-2ZM125.03,122.36c-.76-.64-2.8.33-2,1,.76.64,2.8-.33,2-1ZM62.03,123.36c-2.66-2.66-2.66,5.66,0,3,.11-.11.11-2.89,0-3ZM103.53,123.36c-.65,0-.65,1,0,1s.65-1,0-1ZM123.53,124.36c-.65,0-.65,1,0,1s.65-1,0-1ZM140.03,128.36c.14-.14.13-3.85,0-4-1.08-1.29-.84,1.89-1,2.5-.09.37-1.5,1.09-1,1.5.08.07,1.93.07,2,0ZM31.03,128.36c1.43,1.43,5.9-1.99,2.5-3-3.02-.9-3.28,2.22-2.5,3ZM146.03,128.36c.64-.76-.33-2.8-1-2-.64.76.33,2.8,1,2ZM165.03,131.36c.15-1.72,2.03-4.25-.5-5-1.32-.39-1.69.99-2.5,1.5-1,.63-2.12-1.24-3-.5-2.46,2.08,2.15,1.88,2.5,2,.92.32,1.54,2.66,3.5,2ZM102.03,134.36c.16-.16-.48-3.44,1.5-4,1.39-.4,1.71,1.57,2.5.5-1.11-.73-1.23-3.12-2.5-3.5-2.93-.87-5.3,3.8-6.5,5.5,1.62.77.71,3.15,1,3.5.43.53,1.92-1.68,2.5-2,.47-.26,1.31.19,1.5,0ZM154.53,127.36c-.65,0-.65,1,0,1s.65-1,0-1ZM42.03,137.36c-.2-.2-1.79-.74-2-1.5-.3-1.09.3-2.91,0-4-.34-1.25-2.79-1.41-3.5-2.5l-2.5,1.5,4,3.5c-5.47.4-3.18.03-4-2.5-.07-.21-2.11-2.27-2.5-2.5-.2-.12-1.88-.97-2-1-4.79-1.13-3.21,1.71-3.5,2-.17.17-.94-.2-1.5,0-.43.16-.68,1-1,1-.18,0-2.63-1.92-3-2-1.6-.36-6.04.94-6.5,2.5-.58,1.97.91,2.61,1,3,.33,1.46.72,2.83,1,4s-.22,2.78,0,4c.06.35.82.57,1,1,.22.54-.17,1.33,0,1.5s.96-.22,1.5,0c.41.17.61.86,1,1,3.45,1.25,7.69,3.2,11,4,1.13.27,2.82-.25,4,0,.34.07,2.66,1.93,3,2,1.71.37,4.2-.32,6,0,.37.07.59.87,1,1,1.9.58,3.45-1.27,5-2,.76-.36,3.77-1.94,4-2,.92-.25,3.15.28,3.5,0,.49-.41-.99-1.24-1-1.5,0-.13,1.84-1.7,1-2.5-.24-.22-5.41-.12-6.5,0-.37.04-.64.96-1,1-1.22.12-7.23.27-7.5,0s.26-2.68,0-3c-.41-.5-1.24,1-1.5,1-.39,0-3.34-3.15-2.5-4,.16-.16,3.01,1.84,4.5,1,.86,1.32,2.01,1.05,3.5,1-.48-1.16,1.7-3.29,1-4-1.08-1.09-3.32,1.01-3.5,1-.65-.04-1.32-1.82-1.5-2,1.41,1.66,2.24-1.24,2.5-2l-.5-3-3,1.5c1.61.77.72,3.17,1,3.5ZM84.03,132.36c.1-.12.1-2.88,0-3-1.31-1.57-1.31,4.57,0,3ZM110.03,131.36c.64-.76-.33-2.8-1-2-.64.76.33,2.8,1,2ZM158.03,129.36c-.12-.12-2.84-.14-3.5,0-4.01.82-2.73.41-6,0-1.98-.25-6.97-.41-7.5,1.5-.4,1.44.76,4.85-1.5,5.5-.62.18-1.38-.18-2,0-.17.05-2.45,2.33-2.5,2.5-.29,1.04-.36,4.86-1,5.5-.34.34-3.01-1.41-2,3.5.08.39.92.62,1,1,.21,1.03-.13,2.38,0,3.5,1.1.08,1.85-1.81,2.5-2,2.71-.8,5.53-1.29,8-2,.72-.21,2.3-2.81,3-3,1.51-.42,3.21.76,4.5-1.5.27-.47-.19-1.31,0-1.5.14-.14,3.84-.12,4,0,.24.17-3.07,3.64,1,3,.33-1.85-.07-6.24-2.5-4-.88.13-.57-1.93-.5-2,.31-.31,2.65.9,2-1.5,1.73-.57,1.85-3.36,2-3.5.85-.77,2.35,1.38,3,.5-2.6-.91-1.78-5.28-2-5.5ZM139.53,130.36c-.65,0-.65,1,0,1s.65-1,0-1ZM84.03,133.36c-.14-.14-1.67.32-3-.5-.56-.35-1.09-1.39-1.5-1.5-2.15-.59-3.88,3.79-4.5,5.5-.15.41-.9.62-1,1-.23.83.19,2.08,0,3-.08.38-.88.59-1,1-.36,1.25,1.52,1.87,1,3.5,1.48-.55,2.33,1.01,2.5,1,.39-.02,5.39-5.13,5.5-5.5.19-.66-.23-1.5,0-2,.43-.94,3.15-4.36,2-5.5ZM14.03,138.36c.43-.43-1.83-4.48-1-6-1.48,1.03-3.77.67-3,2.5.18.42.88.62,1,1,.17.54-.09,1.31,0,2,.11.89,2.89.61,3,.5ZM110.03,136.36c1.05-1.05-1.36-4.8-2-4-.71.88,0,6,2,4ZM140.03,132.36c-1.63-1.63-2.87,1.92-2,3,.46.57,2.83-2.17,2-3ZM9.03,133.36c-1.09-1.09-3.09.91-2,2s3.09-.91,2-2ZM90.53,133.36c-.65,0-.65,1,0,1s.65-1,0-1ZM87.03,139.36c.42.52,2.81-2,2-3-.42-.52-2.81,2-2,3ZM5.53,137.36c-.65,0-.65,1,0,1s.65-1,0-1ZM164.03,139.36l-2-2c-.26,2.11-.11,2.26,2,2ZM69.03,138.36c-1.19-1.26-6.37,5.72-8.5,5l-2.5,2c1.73-.3,2.66,1.58,4.5,1,.37-.12.57-.8,1-1,.3-.14.78.13,1,0,1.33-.79,5.48-5.96,4.5-7ZM90.03,144.36c.34-.34-1.16-4.2-1.5-4-2.46,1.44-.74,1.84-.5,2.5.21.59.15,3.35,2,1.5ZM108.03,142.36c-2.11-.26-2.26-.11-2,2l2-2ZM108.03,148.36c.49-.4-.81-1.07-1-1.5-.23-.53.17-1.29,0-1.5-1.3-1.55-1.73,5.24,1,3ZM122.03,161.36c1.56-1.61-1.85-6.02-3.5-7-2.25-1.34-6.15-.37-5.5-4.5l-4-4.5c-.3,1.73,1.58,2.66,1,4.5-.13.4-.89.61-1,1-.2.74.21,2.29,0,2.5-.25.25-2.75-.25-3,0-.21.21.21,1.78,0,2.5s-3,2.53-3,3c0,.33,1,.67,1,1,0,.29-4.23,3.42-4.5,3.5-.72.21-2.29-.21-2.5,0-.25.25.25,2.75,0,3s-4.97-.48-6,2.5l3,1c.54,1.01-1.46,2.11-1,2.5.13.11,2.89.14,3.5,0,1.75-.41,4.36-3.82,5-4s1.38.18,2,0c1.57-.45,3.17-5,4-5,.38,0,1.62,2,2,2,1.06,0,3.91-5.8,1.5-6.5,1.6-.74.75-3.24,1-3.5,1.59-1.63,7.75,8.33,10,6ZM159.53,145.36c-.65,0-.65,1,0,1s.65-1,0-1ZM83.53,146.36c-.65,0-.65,1,0,1s.65-1,0-1ZM5.53,147.36c-.65,0-.65,1,0,1s.65-1,0-1ZM9.53,147.36c-.65,0-.65,1,0,1s.65-1,0-1ZM83.53,148.36c-.65,0-.65,1,0,1s.65-1,0-1ZM125.53,149.36c-.65,0-.65,1,0,1s.65-1,0-1ZM10.03,152.36c.64-.76-.33-2.8-1-2-.64.76.33,2.8,1,2ZM172.03,153.36c.58-.58-.88-3-1.5-3-.11,0-1.5,1.39-1.5,1.5,0,.62,2.42,2.08,3,1.5ZM123.53,152.36c-.65,0-.65,1,0,1s.65-1,0-1ZM66.53,153.36c-.65,0-.65,1,0,1s.65-1,0-1ZM25.03,154.36c-2-2-2.71,3.12-2,4,.64.8,3.05-2.95,2-4ZM10.03,157.36c.64-.76-.33-2.8-1-2-.64.76.33,2.8,1,2ZM18.53,155.36c-.65,0-.65,1,0,1s.65-1,0-1ZM28.03,158.36c.15-.15.27-3.45-.5-3-3.01,1.76-.92,4.42.5,3ZM159.53,155.36c-.65,0-.65,1,0,1s.65-1,0-1ZM127.03,160.36c.96-.96-.8-4.87-3-4,.45,1.2-1.7,3.32-1,4,.14.14,3.86.14,4,0ZM165.53,156.36c-.65,0-.65,1,0,1s.65-1,0-1ZM136.03,161.36c-.5-.49,1.1-4.24-1-4,.84,2.28-1.49,4.8-1,6.5.24.84,1.92,1.82,3,1.5-.45-1.2,1.7-3.32,1-4-.19-.19-1.81.19-2,0ZM18.53,158.36c-.65,0-.65,1,0,1s.65-1,0-1ZM130.53,158.36c-.65,0-.65,1,0,1s.65-1,0-1ZM43.03,168.36c1.61-.34,2.48-2.03,2-3.5-.13-.4-.89-.61-1-1-.53-1.86,3.63-2.46.5-4.5-1.36,1.33-4.75,1.74-2.5,3.5l1,5.5ZM51.03,160.36c-.76-.64-2.8.33-2,1,.76.64,2.8-.33,2-1ZM30.03,161.36c-2.11-.26-2.26-.11-2,2l2-2ZM16.03,164.36c.64-.76-.33-2.8-1-2-.64.76.33,2.8,1,2ZM142.03,167.36c.81-1-1.58-3.52-2-3-.81,1,1.58,3.52,2,3ZM54.03,167.36c.64-.76-.33-2.8-1-2-.64.76.33,2.8,1,2ZM12.03,168.36l-2-2c-.26,2.11-.11,2.26,2,2ZM36.03,167.36c-2.11-.26-2.26-.11-2,2l2-2ZM135.53,167.36c-.65,0-.65,1,0,1s.65-1,0-1ZM154.53,167.36c-.65,0-.65,1,0,1s.65-1,0-1ZM45.53,169.36c-.65,0-.65,1,0,1s.65-1,0-1ZM154.03,174.36c.83-.83-1.54-3.57-2-3-.87,1.08.37,4.63,2,3ZM91.53,172.36c-.65,0-.65,1,0,1s.65-1,0-1ZM87.53,175.36c-1.42,0,1.5,2.92,1.5,1.5,0-.11-1.39-1.5-1.5-1.5Z"/>
      <path d="M142.03,42.36c1.72.24,3.14,1.39,4.5,1,.51-.14,2.03-2.57,2.5-2,.7.86-1.49,2.74-1,4-4.68-1.14-2.39,2.39-3,3-.24.24-3.04-1.03-2,2.5.19.65,2.08,1.4,2,2.5-2.89-.83-2.79,2.79-3,3-.17.17-.96-.22-1.5,0-.43.18-.65.94-1,1-2.99.53-5.75.07-9,1-.82.23-3.21,4.29-4.5,3-.13-.13.1-4.16-2-2-.27.28.25,2.59,0,3.5-.33,1.18-4.01,3.49-5,2.5-.86-.86,2.49-9.21,5-8,2.12-6.01,4.74-11.42,6-17.5.59-.76,3.23-5.29,3-5.5s-1.78.21-2.5,0c-.17-.05-2.45-2.33-2.5-2.5-1.03-3.45,2.82-3.31,3-3.5.82-.84-.9-2.22-1-2.5-.32-.92-.32-2.85-1-4-.23-.39-2.32-2.45-2.5-2.5-1.32-.38-4.05-.41-5-2-.56-.93.52-1.86,1-2,2-.58,5.05,2.51,6.5,3.5-.67,2.39,1.68,1.18,2,1.5.19.19.43,4.43,1,5,.16.16,3.43-.48,4,1.5.18.62-.18,1.38,0,2,.32,1.1,4.83,3.96-1,1.5.9,1.7-1.18,4.82-1,5,1.24,1.21,4.51-3.59,5-3,.77.91-1.39,2.33-.5,3,2.15,2.85-3,1.3-2.5,5,1.6.77,3.55-2.53,4-2,.18.22-.26,1.03,0,1.5.46.82,1.66,1.17,2,2.5-.68-.09-2.89-.1-3,0-.82.74,4.06,4.14,3,0ZM134.53,27.36c-.65,0-.65,1,0,1s.65-1,0-1ZM135.03,45.36c-1.09-1.09-3.09.91-2,2s3.09-.91,2-2ZM127.53,54.36c-.65,0-.65,1,0,1s.65-1,0-1Z"/>
      <path d="M59.03,32.36c.5.41-.93,1.16-1,1.5-.22,1.06.44,4.05-.5,3.5-1.67-.97-1.95-3.67-1.5-5.5.17-.68.98-.45,1-.5-.92.92,1.9.92,2,1Z"/>
      <path d="M80.03,21.36c-.22-2.01-1.64-.64-2-1-1.36-1.36,1.82-6.5,3.5-7,.72-.21,2.29.21,2.5,0,.14-.14.14-3.86,0-4-.43-.43-2.91,1.31-2-3,1.29,1.14,2.47.69,3.5,1,.24.07,3.26,3.07,3.5,3.5.26.47-.19,1.31,0,1.5s1.8-.19,2,0c.75.72-1.27,2.77-1,3,.31.27,3.02-.17,4,0-.77,4.72-9.28,2.28-10,3-.25.25.25,2.75,0,3-.16.16-3.02-.04-4,0,.07.66-.13,1.87,0,2,.14.14,4-.19,2,2-.26.28-2.4-.79-2,1,1.41.05,2.68-.33,4,.5,2.36,1.48,0,2.76,0,3,0,.13,1.84,1.59,1,2.5-.14.15-3.08-1.94-4-1-.1.11-.11,2.89,0,3,.31.31,3.61-.32,4,0,.5.41-1,1.25-1,1.5,0,.34.94.62,1,1,.2,1.23-.29,2.95,0,4,.11.39,3.31,3.35,4,5,.23.54-.17,1.32,0,1.5.67.69,3.32-1.68,4-1,.23.23-.55,2.05.5,2,2.31-1.73,3.08-3.56,2.5-6.5-.07-.34-1.5-1.09-1-1.5.32-.26,2.75.25,3,0,.11-.11.1-2.89,0-3-.52-.6-2.73,3.44-4,1.5,1.11-1.53,5.43-4.43,5-6-.11-.41-1-.67-1-1s.92-.61,1-1c.16-.77-.19-2.31,0-2.5.74-.74,6.22,1.74,3-2.5-2.27-3-4.94-4.3-4-9-2.34-3.5-4.85-5.04,0-7.5l-1,4c1.23-.57,2.71,1.33,3,1,.51-.58-1.11-4.23,1-4l-1,4.5c.09,2.05-.67,9.5,1.5,9.5.33,0,.67-1,1-1,.86,0,2.71,4.48,4,2l2.5,1.5c-.68,1.2-1.84,2.46-2.5,3.5s.97,1.4.5,3c-1.82-.02-2.43-4-3.5-4-.96,0-1.3,2.06-1.5,2.5s-.92.64-1,1c-.18.82-.22,6.26,0,6.5.94,1.05,2.86-1.56,3.5-2,.93-.64,3.74-3,4-3,.31,0,.56.82,1,1,1.98.79,1.28-.97,1.5-1.5.27-.63,1.97-3.35,2.5-3.5.62-.18,1.39.18,2,0,.4-.12.6-.89,1-1,1.42-.41,2.89,1.58,2.5,3l1.5-3c.57.94,3.51,1.55,3.5,2.5,0,.25-2.94,3.12-3.5,3.5-.93.63.25-2.54-1.5-2-.4,1.91,1.69,2.13.5,4-.97,1.53-4.35,4.68-4.5,5l-2.5-4c-1.29.78-3.32,5.18-2.5,6,.14.14,3.86.14,4,0-1.31,2.49-2.01,6.05-5.5,8-.47.26-1.29-.18-1.5,0-.48.41,1.37,1.22,1,2.5-.16.56-1.85,1.45-2,2-.26.95,2.22,3.27,0,7l-4,4.5c-.52-1.6,1.81-3.63,2-4.5,1.02-4.69.53-10.34,2-15,.12-.39,1.5-1.09,1-1.5-.41-.33-6.35.15-3-3.5-1.57-.67-.75-3.26-1-3.5-.11-.1-2.89-.11-3,0-.17.17.22.96,0,1.5-.28.67-1.58,1.09-1,3,.2.65,2,3.76,2,4,.01,1.41-4.66,5.81-4,8,1.25,4.1-1,3.12-1,4,0,.39,1.85,1.45,2,2,.67,2.44-1.6,4.4-1,7,.09.38.89.6,1,1,.2.73-1.57,4.04-2.5,4.5-2.07,1.01-1.39-1.9-1.5-2-.36-.3-3.04,1.02-2-2.5.05-.18,2.14-2.3,2.5-2.5.64-.36,2.39.7,1.5-2.5-.11-.4-.93-.63-1-1-.36-1.95.89-4-1.5-5.5l-1.5,3.5c3.53,4.01-1.53,3.28-2,5-.32,1.17.21,3.13,0,4.5l-3-2c.21,1.8.07,2.94-1.5,4-.93.63.25-2.54-1.5-2-.76,1.63,2.52,3.51,2,4-1.12,1.06-2.8-1.61-3.5-2-.47-.26-1.28.18-1.5,0-.27-.22,1.51-1.73,1-3.5-.22-.78-1.89-.7,0-2l.5-3.5-2,3c1.88,1.94-3,.5-3.5,1-.76.75,1.36,2.37.5,3-1.01-.25-5.29-4.26-5.5-4-.27.33.25,2.75,0,3-.19.19-1.81-.19-2,0-.34.34.34,4.66,0,5-.19.19-1.73-.16-2.5,0-.39.08-.67,1-1,1-.85,0-3.75-3-4-3-1.33,0-1.37,2.87-1.5,3-.19.19-1.81-.19-2,0-.16.16.25,3.91-1.5,4-.18,0-1.76-1.78-3.5-1,.36-5.12-.88-1.99-1.5-2-.29,0-.95-1.16-1.5-1.5-1.32-.82-2.58-.06-3.5-1.5-3.11,1.58,1.12,3.47.5,4-.31.26-2.75-.25-3,0-.7.7,2.07,5.54-3.5,4-2.36-.65-.59-2.17-.5-2.5.33-1.19-1.84-3.25-2-4-.31-1.45.36-3.68,0-5-.15-.55-1.92-1.52-2-2-.02-.12,2.65-2.22,0-2.5.17,2.01-1.23,1.77-.5,4,.31.95,1.5,2.35,1.5,2.5,0,.26-1.36.69-1,2,.11.41,1,.67,1,1,0,.9-3.97,4.53-3,5.5.19.19,1.81-.19,2,0,.27.27-.25,2.59,0,3.5.12.45,3.14,2.48,2,3.5-2.4,2.15-4.77-3.9-5.5-4-.69-.09,1.49,3.2-1,2-1.33-.65-1.2-1.84-1.5-2.5-.19-.43-.92-.64-1-1-.26-1.16.25-2.83,0-4-.07-.34-1.93-2.66-2-3-.25-1.16.21-2.76,0-4-.09-.55-2.16-1.28,1-2.5l1,5c.85-.85,2.89-.89,3-1,.17-.17-.2-.94,0-1.5.15-.43,1-.68,1-1s-.89-.59-1-1c-.47-1.71,3.35-4.72,3-6-.37-1.36-.53-2.83,0-5,.13-.54,1.76-1.68,1-3.5l3,5,5-4.5-2,4v5c1.08.53,4.39,5.16,4,5.5-.24.21-2.18-.13-3,0,0,1.51-2.15,4.14.5,5s2.33-3.83,2.5-4c.33-.33,1.73,1.57,3,1-1.79,2.77,4.71,2.29,5,2,.19-.19-.2-1.76,0-2,.15-.19,2.18,1.53,4.5,1,.36-.08.57-.82,1-1,1.39-.58,1.89.84,1.5-3l4-.5-3-3.5-1,3.5c-2.12,1.09-1.26,4.55-4.5,3.5-1.71-.56-1.8-4-1.5-5.5.07-.34,1.48-1.07,1-1.5-.12-.11-2.53.11-3-1.5-.72-2.48,3.61-2.85,5.5-2.5,1.16.21,3.57,1.84,6,1l7,4,2-2c1.17-.62-1.02-1.54-.5-2,.78-.69,3.22,1.69,4,1,.2-.17-.85-1.33-1-2.5-.68-5.26-1.3-6.71-4-11-.48-.76-3-3.28-3-4,0-.18,2.33-2.45,2.5-2.5,1.68-.49,4.72,3.34,6,3,.81-.22,1.57-2.69,3.5-2,.54-1.64-.85-1.99-1-2.5-.21-.73.21-2.29,0-2.5-.17-.17-.96.23-1.5,0-.69-.29-2.31-1.71-3-2-.56-.24-1.42.23-2,0s-2.64-1.92-3-2c-1.1-.24-7.2.75-7.5,1,1.09-1.09-.91-3.09-2-2s.91,3.09,2,2c-.13.11.43,1.87-2.5,1-3.68-1.09.5-4.2.5-4.5,0-1.32-2.87-1.37-3-1.5-.2-.2.73-3.73-2-1,.42-1.2-.76-2.98,2.5-2,.18.05,2.3,2.14,2.5,2.5.26.47-.19,1.31,0,1.5.17.17.94-.2,1.5,0,.43.16.68,1,1,1,.37,0,1.63-2,2-2,.29,0,1.71,2.91,5,2,.75-.21,1.46-2.42,3-2,.19.05,1.68,1.82,2.5,1,1.05-1.05-1.41-5.06-1-6.5.16-.56,1.85-1.45,2-2,.74-2.69-1.63-3.34,2-3.5ZM78.53,27.36c-.65,0-.65,1,0,1s.65-1,0-1ZM82.53,27.36c-.65,0-.65,1,0,1s.65-1,0-1ZM84.53,45.36c-.65,0-.65,1,0,1s.65-1,0-1ZM111.03,47.36c1.03-1.03-.32-3.39-2-.5-.42.73,1.82.68,2,.5ZM74.53,46.36c-.65,0-.65,1,0,1s.65-1,0-1ZM98.03,47.36c-.76-.64-2.8.33-2,1,.76.64,2.8-.33,2-1ZM84.53,48.36c-.65,0-.65,1,0,1s.65-1,0-1ZM89.03,48.36c-1.85.16-3-1.07-3,1.5,0,1.15-2.58.13-3,.5-1.51,1.35,4.84,4.87,4,7,1.98.32.59-2.56,1-3,.94-1.01,5.44,3.91,3,.5-.05-1.05,1.77-.27,2-.5.07-.07.38-2.13-.5-2-.41.86-2.06,1.4-2.5,1-.48-.44,1.96-1.38,0-2.5-1-.57-2.18,1.18-3,.5-.54-.45,2.53-2.53,2-3ZM83.03,56.36c-.24-.19-3.44-.24-3,.5,1.64,2.8,3.36-.21,3-.5ZM86.03,59.36c-.83-.83-3.57,1.54-3,2,1.08.87,4.63-.37,3-2ZM60.03,65.36c.57-.46-2.17-2.83-3-2-1.63,1.63,1.92,2.87,3,2ZM76.53,65.36c-.65,0-.65,1,0,1s.65-1,0-1ZM42.03,68.36c-.11-.11-2.88-.1-3,0-.48.4.81,1.07,1,1.5s.11,3.39,2,1.5c.11-.11.11-2.89,0-3ZM66.03,74.36l-2-2c-.26,2.11-.11,2.26,2,2ZM68.03,74.36c.64-.76-.33-2.8-1-2-.64.76.33,2.8,1,2Z"/>
      <path d="M114.03,44.36c.2-.2-.55-2.14,1-2-.41.88-.67,1.38-1,2Z"/>
      <path d="M60.03,53.36c5.12.95,8.48,6.16,14,7l-3,1,2,2c-1.44-.72-3.87,1.16-4,1-.19-.23.19-1.81,0-2-.17-.17-.96.23-1.5,0-.62-.26-2.54-1.87-3-2-.85-.23-2.15.23-3,0-.98-.27-2.13-2.89-6-4-1.6-.46-1.39-3.55-2.5-5,1.79-.73,3.02,2.01,3.5,2,.22,0,1.84-1.72,1.5-2-.41-.33-2.8.67-3-.5.67-.45,2.17-2.5,2.5-2.5.77,0,2.8,4.04,2.5,5ZM61.53,55.36c-.65,0-.65,1,0,1s.65-1,0-1Z"/>
      <path d="M126.03,7.36c1.33.44,3.28-1.72,4-1,.25.25-.59,2.76,1,3.5.66,2.39-1.68,1.18-2,1.5-.72.72,2.52,3.51-.5,5-1.14-.79-.05-2.45-1-4-.35-.56-1.38-1.09-1.5-1.5-.43-1.49.16-2.72-2-4l2,.5Z"/>
      <path d="M138.03,8.36c.19.19-.26,1.03,0,1.5.23.41,2.09,2.27,2.5,2.5.47.26,1.28-.18,1.5,0,.34.29-3.14,3.11-2,5l-3-2.5c-.38-1.33,1.38-1.68,1-3-.05-.18-1.39-1.49-1.5-1.5-.18-.01-2.24,2.06-3.5,1-1.88-1.58,2.15-2.29,2.5-3,.73.13,2.32-.18,2.5,0Z"/>
      <path d="M54.03,48.36c-.19.19-1.81-.19-2,0s.19,1.81,0,2c-.14.14-2.77.54-3.5,1-1.81,1.15-.88,3.1-2.5,3v-3.5c.87-.62,1.68-2.04,2.5-2.5s1.99.94,1.5-2c1.44.72,3.87-1.16,4-1,.1.11.11,2.89,0,3Z"/>
      <path d="M153.03,56.36c.24.25-.16,3.03,0,4-2.11.39.22-4.06-2.5-3-3.58,1.4.85,4.7.5,5-.15.13-3.85.13-4,0-.45-.39,1.94-1.49,0-2.5-.78-4.3,2.67-.88,2-4.5l4,1Z"/>
      <path d="M67.03,7.36c-.75,1.83,1.29,3.46,1,4.5-.11.38-1.24,1.76-2,1-1.05-1.05-1.48,1.3-3,1.5-1.22-4.62,2.57-2.47,3-3,.8-.99-3.3-4.69,1-4Z"/>
      <path d="M20.03,52.36c-.15-.17.47-1.49-1-2.5-1.18-.81-2.27.05-2-1.5l3.5,1,2.5-3c1.38,1.91-2.29,6.83-3,6Z"/>
      <path d="M62.03,4.36c.19.19-.19,1.81,0,2s1.76-.2,2,0c.22.18-1.71,2.32-1,3.5l-4,3.5c-.12-1.17,2.55-1.95,1.5-3s1.5-1.89,1.5-2.5c0-.12-.62-.88-1-2-.41-1.2-2.35.38-2-1.5.81.12,2.81-.19,3,0Z"/>
      <path d="M98.03,27.36c-2.61.54-2.04-1.04-2.5-3-.53-2.24.54-2.02.5-4l2,7Z"/>
      <path d="M14.03,22.36c.26.28,2.4-.79,2,1-5.33.38-7.03.09-2.5-4,1.16.2.17,2.65.5,3Z"/>
      <path d="M23.03,40.36c-.16-1.01-.96-1.25-1-1.5-.71-4.07,2.05-5.71,2-9.5l-3,4c-1.49.38-1.15-3-2.5-3s-1.01,3.38-2.5,3l.5-3c-1.02-3.19-.7-1.37-3-2-.69-.19-1.42-.64-3-1s-3.61-2.05-2.5-3c1.97-1.68,4.72,2.78,5.5,3,.67.19,1.52-.24,2,0,1.38.69,2.88,1.73,4,3,.76-1,4.19-1.2,2.5-3-.11-.12-2.44.06-3-1.5.82-1.12.79.8,2,0,.54-.36,1.23-1.5,1.5-1.5,1.7,0,1.34,3.84,1.5,4,.87.87,4.4-1.61,6-1,.49-4.02-2.21-1-2.5-1-.22,0-3.5-2.15-3.5-2.5,0-.33.94-.62,1-1,.21-1.26-.29-5.21,0-5.5,1.71-1.71.7,1.98,2-2.5.24-.84,2.68-1.56,2-3.5,4.69,2.07-.61,5.48,0,9-.45.54-2.56-2.54-3-2-.66.81,2.12,3.16,0,5,1.82-.75,3.47,1.29,4.5,1,.17-.05,2.45-2.33,2.5-2.5l-1-6.5,3,4-.5-3c.07-1.35,2.5-3.28,2.5-3.5,0-.3-.79-.56-1-1-.15-.32.13-.8,0-1-1.14-1.81-3.1-.88-3-2.5l3.5-1c2.05-3.16,4.68-1.42,2.5,2,2.9.94,1.7-1.73,2-2,.27-.24,4.28,2.76,5,2s-2.53-3.48.5-5c2.9,1.73.46,3.33.5,3.5.04.16,1.82,1.68,1,2.5-.18.18-2.91-.68-2,1.5.23.56,1.36.7,1,2-.2.73-3.84,2.68-4,2.5-.12-.14-.59-2.77-1-3.5l-2-1.5c.51,1.81-.91,2.02-1.5,3-.82,1.35-.34,2.82-.5,3-.36.42-2.63-2.85-2,1,1.44-.72,3.86,1.15,4,1,.75-.84-1.3-2.75-1-3,2.27-1.95,1.76,1.58,2,2.5.09.37,1.5,1.09,1,1.5-.24.2-1.81-.19-2,0s.27,1.03,0,1.5c-1.29,2.26-2.99,1.08-4.5,1.5-1.69.46-2.29,4.79-2.5,5-.38.38-2.89-1.14-2,2.5-.21,1.42-1.57-.99-2-.5-.77.88,1.38,2.34.5,3l-2.5,5-3-2,2,5c-1.51.48-1.92-.84-3-1,.29,1.85-1,2.35-1,2.5,0,.25,1.5,1.09,1,1.5-.12.1-2.89.11-3,0-.91-.91.35-4.39,3-4ZM44.53,10.36c-.65,0-.65,1,0,1s.65-1,0-1ZM28.53,28.36c-.65,0-.65,1,0,1s.65-1,0-1Z"/>
      <path d="M41.03,53.36c.21.27,2.97-.86,2,2h-4l1-6c2.12-.22.48,3.34,1,4Z"/>
      <polygon points="78.03 74.36 76.03 75.86 72.03 75.36 78.03 74.36"/>
      <path d="M7.03,177.36c-1.46-.72-3.86,1.17-4,1-.13-.15-.14-3.86,0-4,.83-.83,3.78,1.67,4,3Z"/>
      <path d="M62.03,22.36h-3.5c-4.68-3.7,3.14-5.02,3.5,0Z"/>
      <path d="M177.03,130.36c.19.19.23,5.43-.5,5-2.93-1.71-1.48-6.98.5-5Z"/>
      <path d="M57.03,42.36c-.92,1.1-.94-1.39-1-1.5-.43-.78-3.09-2.41-2-3.5,1.63-1.63,4.26,3.49,3,5Z"/>
      <path d="M112.03,7.36c.13.12,2.76.59,3.5,1l2.5,2c-3.28.72-6.64-1.62-7-5,1.79-.39.72,1.73,1,2Z"/>
      <path d="M45.03,181.36c-1.88,1.88-1.79-1.01-2-1.5-.25-.59-1.97-2.34-1-3.5s.94,1.39,1,1.5c.43.78,3.09,2.41,2,3.5Z"/>
      <path d="M174.03,39.36c-.59.74-3.95-2.99-.5-5,.74-.43.68,4.77.5,5Z"/>
      <path d="M23.03,9.36c.5.41-1,1.25-1,1.5,0,.15,1.82,1.5,1,2.5-.4.48-1.07-.81-1.5-1-.53-.23-1.32.18-1.5,0-.95-.95,1.78-4,3-3Z"/>
      <path d="M174.03,43.36c1.14,1.14-1.44,5.28-3,4-.5-.41.91-1.13,1-1.5.2-.78-.17-4.67,2-2.5Z"/>
      <path d="M149.03,12.36c-2.13,2.13-1.81-1.61-2-2.5-.09-.45-2.04-1.02.5-2.5.92-.54.26,1.67.5,2.5.06.2,1.82,1.68,1,2.5Z"/>
      <path d="M79.03,8.36c.31,2.04-3.68.34-3,1.5,1.94,3.31,4.52-1.63,6,2.5h-7l4-4Z"/>
      <polygon points="92.03 4.36 88.03 6.36 87.03 2.86 92.03 4.36"/>
      <path d="M80.03,178.36c-.07.07-1.93.07-2,0-.82-.82.94-2.3,1-2.5.16-.56-.09-3.8,1-2.5.16.19.18,4.82,0,5Z"/>
      <path d="M66.03,17.36c-.48-.4.81-1.07,1-1.5.23-.52-.17-1.29,0-1.5.39-.48,1.21,1.36,2.5,1,.29-.08,1.5-1.84,1.5-.5,0,.72-4.37,3.01-5,2.5Z"/>
      <path d="M75.03,16.36l-1,4.5c-.8.4-1.28,4.29-3,2.5-.35-.36,1.73-1.84,2-3.5.3-1.9-1.2-4.1,2-3.5Z"/>
      <path d="M9.03,60.36c-.46-.41-3.32.98-3-1,1.6.47,2.44-1.82,3.5,0,1,1.73.12,1.9-1,3-1.17-.62,1.02-1.53.5-2Z"/>
      <path d="M10.03,49.36c-.58.58-3-.88-3-1.5,0-.11,1.39-1.5,1.5-1.5.62,0,2.08,2.42,1.5,3Z"/>
      <path d="M120.03,11.36c.15.15.27,3.45-.5,3-3.01-1.76-.92-4.42.5-3Z"/>
      <path d="M52.03,12.36c1.42,1.42-1.24,3.51-3,.5-.45-.77,2.85-.65,3-.5Z"/>
      <path d="M91.03,7.36c1.42,1.42-1.24,3.51-3,.5-.45-.77,2.85-.65,3-.5Z"/>
      <path d="M9.03,45.36c-.9,1.07-.9-1.23-1-1.5-.22-.64-1.97-1.06.5-2.5.76-.44.67,3.8.5,4Z"/>
      <path d="M15.03,43.36c1.42,1.42-1.24,3.51-3,.5-.45-.77,2.85-.65,3-.5Z"/>
      <path d="M33.03,50.36c-.81-1,1.58-3.52,2-3,.81,1-1.58,3.52-2,3Z"/>
      <path d="M133.03,4.36c1.09,1.09-.91,3.09-2,2s.91-3.09,2-2Z"/>
      <path d="M117.03,23.36c1.09,1.09-.91,3.09-2,2s.91-3.09,2-2Z"/>
      <path d="M109.03,6.36c1.09,1.09-.91,3.09-2,2s.91-3.09,2-2Z"/>
      <path d="M7.03,75.36c1.09,1.09-.91,3.09-2,2s.91-3.09,2-2Z"/>
      <path d="M119.03,3.36c.07.07.07,1.92,0,2-.4.49-1.07-.81-1.5-1-.18-.08-2.59-.09-1.5-1,.12-.1,2.89-.11,3,0Z"/>
      <path d="M159.03,175.36c.52.42-2,2.81-3,2-.52-.42,2-2.81,3-2Z"/>
      <path d="M9.03,30.36c.52.42-2,2.81-3,2-.52-.42,2-2.81,3-2Z"/>
      <path d="M82.03,167.36c-.24.19-3.44.24-3-.5,1.64-2.8,3.36.21,3,.5Z"/>
      <path d="M24.03,114.36c-.18.18-2.42.23-2-.5,1.68-2.89,3.03-.53,2,.5Z"/>
      <path d="M135.03,14.36c-.18.18-2.42.23-2-.5,1.68-2.89,3.03-.53,2,.5Z"/>
      <path d="M54.03,10.36c-2.11.26-2.26.11-2-2l2,2Z"/>
      <path d="M57.03,9.36c-2.11.26-2.26.11-2-2l2,2Z"/>
      <path d="M119.03,8.36c-.18.18-2.42.23-2-.5,1.68-2.89,3.03-.53,2,.5Z"/>
      <path d="M100.03,5.36c.96.96-1.8,4-3,3s1.89-.9,2-1c.46-.39-1.46-1.61-1-2,.08-.07,1.93-.07,2,0Z"/>
      <path d="M60.03,23.36l-2,2c-.26-2.11-.11-2.26,2-2Z"/>
      <path d="M52.03,43.36c-2.11.26-2.26.11-2-2l2,2Z"/>
      <path d="M81.03,6.36c-2.11.26-2.26.11-2-2l2,2Z"/>
      <path d="M15.03,42.36c-1.31,1.57-1.31-4.57,0-3,.1.12.1,2.88,0,3Z"/>
      <path d="M114.03,3.36c.18.18.23,2.42-.5,2-2.89-1.68-.53-3.03.5-2Z"/>
      <path d="M157.03,4.36c-.18.18-2.42.23-2-.5,1.68-2.89,3.03-.53,2,.5Z"/>
      <path d="M160.03.36c.18.18.23,2.42-.5,2-2.89-1.68-.53-3.03.5-2Z"/>
      <path d="M34.03,33.36l-2,2c-.26-2.11-.11-2.26,2-2Z"/>
      <path d="M12.03,35.36c-.18.18-2.42.23-2-.5,1.68-2.89,3.03-.53,2,.5Z"/>
      <path d="M175.03,162.36c-.67.8-1.64-1.24-1-2,.67-.8,1.64,1.24,1,2Z"/>
      <path d="M48.03,181.36c-.67.8-1.64-1.24-1-2,.67-.8,1.64,1.24,1,2Z"/>
      <path d="M177.03,142.36c-.67.8-1.64-1.24-1-2,.67-.8,1.64,1.24,1,2Z"/>
      <path d="M4.03,133.36c-.67.8-1.64-1.24-1-2,.67-.8,1.64,1.24,1,2Z"/>
      <path d="M83.03,80.36c.8.67-1.24,1.64-2,1-.8-.67,1.24-1.64,2-1Z"/>
      <path d="M7.03,80.36c-.67.8-1.64-1.24-1-2,.67-.8,1.64,1.24,1,2Z"/>
      <path d="M18.03,53.36c-.67.8-1.64-1.24-1-2,.67-.8,1.64,1.24,1,2Z"/>
      <path d="M148.03,51.36c-.67.8-1.64-1.24-1-2,.67-.8,1.64,1.24,1,2Z"/>
      <path d="M58.03,47.36c-.67.8-1.64-1.24-1-2,.67-.8,1.64,1.24,1,2Z"/>
      <path d="M93.03,45.36c-.67.8-1.64-1.24-1-2,.67-.8,1.64,1.24,1,2Z"/>
      <path d="M25.03,44.36c-.67.8-1.64-1.24-1-2,.67-.8,1.64,1.24,1,2Z"/>
      <path d="M18.03,40.36c-.67.8-1.64-1.24-1-2,.67-.8,1.64,1.24,1,2Z"/>
      <path d="M7.03,40.36c-.67.8-1.64-1.24-1-2,.67-.8,1.64,1.24,1,2Z"/>
      <path d="M150.03,39.36c-.67.8-1.64-1.24-1-2,.67-.8,1.64,1.24,1,2Z"/>
      <path d="M11.03,37.36c.8.67-1.24,1.64-2,1-.8-.67,1.24-1.64,2-1Z"/>
      <path d="M41.03,28.36c.8.67-1.24,1.64-2,1-.8-.67,1.24-1.64,2-1Z"/>
      <path d="M62.03,29.36c-.67.8-1.64-1.24-1-2,.67-.8,1.64,1.24,1,2Z"/>
      <path d="M112.03,26.36c.8.67-1.24,1.64-2,1-.8-.67,1.24-1.64,2-1Z"/>
      <path d="M72.03,26.36c-.67.8-1.64-1.24-1-2,.67-.8,1.64,1.24,1,2Z"/>
      <path d="M65.03,21.36c-.67.8-1.64-1.24-1-2,.67-.8,1.64,1.24,1,2Z"/>
      <path d="M8.03,13.36c.8.67-1.24,1.64-2,1-.8-.67,1.24-1.64,2-1Z"/>
      <path d="M58.03,12.36c.8.67-1.24,1.64-2,1-.8-.67,1.24-1.64,2-1Z"/>
      <path d="M70.03,13.36c-.67.8-1.64-1.24-1-2,.67-.8,1.64,1.24,1,2Z"/>
      <path d="M16.03,11.36c.9-1.07.9,1.23,1,1.5.15.43,1,.68,1,1,0,1.43-2.94-1.37-2-2.5Z"/>
      <path d="M146.03,12.36c-.67.8-1.64-1.24-1-2,.67-.8,1.64,1.24,1,2Z"/>
      <path d="M150.03,8.36c-.67.8-1.64-1.24-1-2,.67-.8,1.64,1.24,1,2Z"/>
      <path d="M104.03,5.36c.8.67-1.24,1.64-2,1-.8-.67,1.24-1.64,2-1Z"/>
      <path d="M73.03,7.36c-.67.8-1.64-1.24-1-2,.67-.8,1.64,1.24,1,2Z"/>
      <path d="M71.03,5.36c1.25,1.05-1.88.9-2,1-.39.32,1.81,2,.5,2-2.61,0-.25-4.46,1.5-3Z"/>
      <path d="M66.03,4.36c.8.67-1.24,1.64-2,1-.8-.67,1.24-1.64,2-1Z"/>
      <path d="M161.03,3.36c.8.67-1.24,1.64-2,1-.8-.67,1.24-1.64,2-1Z"/>
      <path d="M171.03,2.36c.8.67-1.24,1.64-2,1-.8-.67,1.24-1.64,2-1Z"/>
      <path d="M168.03,1.36c.8.67-1.24,1.64-2,1-.8-.67,1.24-1.64,2-1Z"/>
      <path d="M153.03,2.36c-.67.8-1.64-1.24-1-2,.67-.8,1.64,1.24,1,2Z"/>
      <path d="M79.53,181.36c.65,0,.65,1,0,1s-.65-1,0-1Z"/>
      <path d="M79.53,179.36c.65,0,.65,1,0,1s-.65-1,0-1Z"/>
      <path d="M77.53,179.36c.65,0,.65,1,0,1s-.65-1,0-1Z"/>
      <path d="M40.53,178.36c.65,0,.65,1,0,1s-.65-1,0-1Z"/>
      <path d="M176.53,144.36c.65,0,.65,1,0,1s-.65-1,0-1Z"/>
      <path d="M177.53,127.36c.65,0,.65,1,0,1s-.65-1,0-1Z"/>
      <path d="M20.53,109.36c.65,0,.65,1,0,1s-.65-1,0-1Z"/>
      <path d="M5.53,99.36c.65,0,.65,1,0,1s-.65-1,0-1Z"/>
      <path d="M4.53,96.36c.65,0,.65,1,0,1s-.65-1,0-1Z"/>
      <path d="M78.53,78.36c.65,0,.65,1,0,1s-.65-1,0-1Z"/>
      <path d="M3.53,78.36c.65,0,.65,1,0,1s-.65-1,0-1Z"/>
      <path d="M87.53,75.36c.65,0,.65,1,0,1s-.65-1,0-1Z"/>
      <path d="M79.53,72.36c.65,0,.65,1,0,1s-.65-1,0-1Z"/>
      <path d="M30.53,57.36c.65,0,.65,1,0,1s-.65-1,0-1Z"/>
      <path d="M31.53,53.36c.65,0,.65,1,0,1s-.65-1,0-1Z"/>
      <path d="M12.53,48.36c.65,0,.65,1,0,1s-.65-1,0-1Z"/>
      <path d="M44.53,45.36c.65,0,.65,1,0,1s-.65-1,0-1Z"/>
      <path d="M4.53,44.36c.65,0,.65,1,0,1s-.65-1,0-1Z"/>
      <path d="M79.53,43.36c.65,0,.65,1,0,1s-.65-1,0-1Z"/>
      <path d="M45.53,43.36c.65,0,.65,1,0,1s-.65-1,0-1Z"/>
      <path d="M171.53,41.36c.65,0,.65,1,0,1s-.65-1,0-1Z"/>
      <path d="M5.53,41.36c.65,0,.65,1,0,1s-.65-1,0-1Z"/>
      <path d="M16.53,34.36c.11,0,1.5,1.39,1.5,1.5,0,1.42-2.92-1.5-1.5-1.5Z"/>
      <path d="M169.53,33.36c.65,0,.65,1,0,1s-.65-1,0-1Z"/>
      <path d="M125.53,31.36c.65,0,.65,1,0,1s-.65-1,0-1Z"/>
      <path d="M173.53,28.36c.65,0,.65,1,0,1s-.65-1,0-1Z"/>
      <path d="M61.53,24.36c.65,0,.65,1,0,1s-.65-1,0-1Z"/>
      <path d="M95.53,18.36c.65,0,.65,1,0,1s-.65-1,0-1Z"/>
      <path d="M60.53,14.36c1.42,0-1.5,2.92-1.5,1.5,0-.11,1.39-1.5,1.5-1.5Z"/>
      <path d="M6.53,15.36c.65,0,.65,1,0,1s-.65-1,0-1Z"/>
      <path d="M75.53,13.36c.65,0,.65,1,0,1s-.65-1,0-1Z"/>
      <path d="M11.53,11.36c.65,0,.65,1,0,1s-.65-1,0-1Z"/>
      <path d="M142.53,8.36c.65,0,.65,1,0,1s-.65-1,0-1Z"/>
      <path d="M169.53,7.36c.65,0,.65,1,0,1s-.65-1,0-1Z"/>
      <path d="M95.53,5.36c.65,0,.65,1,0,1s-.65-1,0-1Z"/>
      <path d="M149.03,90.36c.8.67-1.24,1.64-2,1-.8-.67,1.24-1.64,2-1Z"/>
      <path d="M33.03,118.36c-.67.8-1.64-1.24-1-2,.67-.8,1.64,1.24,1,2Z"/>
    </g>
  </g>
</svg>