<?xml version="1.0" encoding="UTF-8"?>
<svg id="Layer_2" data-name="Layer 2" xmlns="http://www.w3.org/2000/svg" viewBox="0 0 180.78 184.11">
  <g id="Elements">
    <g id="Element">
      <path d="M58.25,153.8c-3.74,0-1.08-6.36,0-5.02.16.2.03,3.97,0,5.02Z"/>
      <path d="M121.53,57.38c-.21-1.07.2-2.43,0-3.52-.04-.21-.81-.62-1-2.51,2.39.49,1.67,2.23,2.01,3.52.2.76,2.19,1.11-1,2.51Z"/>
      <path d="M43.19,150.78c.14.89.71,2.79,1,4.02-1.07-.09-2.64-.26-3.01-1.51-.95-3.19.6-2.08,2.01-2.51Z"/>
      <path d="M140.61,130.7c.03,1.18.19,5.79,0,6.03-1.29,1.55-.83-3.48-1-4.52-.03-.2-.79-.49-1-1.51.66.05,1.35-.05,2.01,0Z"/>
      <path d="M160.69,145.76c-.12,1.02-.96,1.65-1,4.02-1.49.38-2.08,2.42-3.52,2.01-1.09-.31-1.86-2.33-1.51-3.52.13-.42,1.16-.94,1.51-1.51.83-1.36.33-2.81.5-3.01.45-.56,1.96,1.79,2.51,2.01.45.18,1.04-.1,1.51,0Z"/>
      <path d="M156.68,93.54c.47.1,1.06-.18,1.51,0,.84.34,2.29,2.81,3.01,3.01,2.88.83,4.07-2.92,6.03-4.02.47-.26,1.28.18,1.51,0,.5-.41-.88-1.11-1-1.51-.19-.6.18-1.38,0-2.01-.05-.17-2.34-2.46-2.51-2.51-.65-.19-1.47.22-2.01,0-.4-.16-.6-.84-1-1-.54-.23-1.33.18-1.51,0-.28-.28.19-3.91,0-5.02,1.63-.3.81,2.53,2.51,3.01,1.26.36,1.88-1.52,3.52-1l-2.01-7.03c2.87-.98,1.75,1.81,2.01,2.01,1.05.8,3.52-1.59,3.01-2.01-.34-.28-2.02.57-2.01-.5.02-1.24,1.64-2.81,1-3.52-.31-.35-4.13-.68-3.01,2.01-2.25-.61-2.18-2.46-2.01-4.52l-2.01-3.52c.32,2.65-.45,6.03,0,8.54.05.29,1.58,1.01,1,3.01-.05.17-2.15,2.31-2.51,2.51-.47.26-1.32-.19-1.51,0-.33.32.66,2.82-.5,3.01-.45-.68-2.5-2.17-2.51-2.51-.03-1.31,2.9-1.38,3.01-1.51.27-.3-.19-3.38,0-4.52.06-.38,1-.67,1-1,0-.67-2.45-3.23-3.01-4.02-.14-.2.16-.73,0-1-.97-1.6-2.32-1.74-3.01,0-.91,2.27,1.91.98,2.01,2.01.09.97.02,2.03,0,3.01-.02,1.16.65,2.76-1,2.51.27-1.32-.15-3.64-1.51-4.02-1.71-.48-3.01,1.13-2.51-2.01l-4.02-1,2.01-3.01c-1.01-.72-4.13,1.9-3.01-3.52.08-.38.88-.59,1-1,.11-.36-.79-6.25-1-7.03-.15-.55-1.85-1.45-2.01-2.01-.19-.66.23-1.5,0-2.01-.83-1.8-3.6-4.98-3.01-7.03.14-.48,1.08-1.57,2.01-1,1.56.95.71,2.06,1,3.01.13.41.94.63,1,1,.35,1.98-.84,4.87,1,6.03,1.33.83,2.86.36,3.01.5,2.15,2.12-1.88,1.88-2.01,2.01-1.06,1.06.98,3.32,1,3.52.33,2.27-.96,6.54,1.51,7.53s.56-2.24,2.51-2.01l2.01,3.01c-.84-2.99,1.51-1.6,2.01-2.01s-.88-1.11-1-1.51c-.19-.59.17-1.37,0-2.01-.11-.41-1-.68-1-1s4.15-4.25,3.01-5.52c-.58-.65-2.02,2.59-3.01,1.51.76-.86,2.23-3.22,2.01-4.02-.11-.4-.92-.62-1-1-.5-2.23,1.43-5.26-2.01-4.52-.54-1.76,2.64-.58,2.01-1.51s-2.83-2.39-3.01-3.01c-.56-1.89,1.29-2.76,1-4.52-3.86-.19-2.51,2.68-3.01,4.52-.11.41-.94.63-1,1-.02.12,2.66,2.23,0,2.51v-8.54c1.29-.52.91-2.42,1-2.51.11-.1,2.9-.1,3.01,0,.1.09-.28,1.99,1,2.51l2.51,2.51c2.73-2.58,5.82-2.82,4.52-7.53-.15-.55-1.85-1.45-2.01-2.01-.41-1.45.74-3.24-1.51-4.52l-.5,5.52c-.26,1.01,1.75,2.77,1,3.52-1.85,1.85-5.54-3.22-6.03-4.52v-3.52c-3.33-.66-1.53,1.72-2.01,3.52-.11.4-.93.62-1,1-.58,2.8,1.54,4.1-3.01,3.52.55-1.64-.88-2.03-1-2.51-.35-1.34.91-1.61,1-2.01.32-1.44-.32-3.58,0-5.02.35-1.58,1.28.04,0-3.01-.92-2.19,1.83-1.33,2.01-1.51.47-.47-.45-6.9,0-8.54s3.05-1.24,2.01-5.02c-.36-1.3,1.71-2.85,2.01-2.51.15.17-.47,1.55,1,2.51,3.21,2.09.57-2.37,4.02-1.51.08,1.1-1.83,1.88-2.01,2.51-.36,1.31,1,1.75,1,2.01,0,.29-2.33,1.44,0,3.01-.59,3.12,1.43,5.4,1,8.54l3.01-4.02c-.99,5.49,1.53,3.53,2.01,4.02.18.18-.51,3.86,2.01,4.02l1-4.52c-.48-1.23-1.59,1.01-2.01.5-1.03-1.25.98-3.32,1-3.52.37-2.52.29-6.31-1-8.54,1.62-.77,3.54,2.54,4.02,2.01.13-.15-.31-1.97,1-2.51-1.8-.92-.6-4.05-1-4.52s-2.85-.22-2.01,1.51c.22.45,1,.7,1,1,.02.6-2.46,2.11-3.01,1.51-.77-.83,1.38-2.36.5-3.01-1.22-.79,1.12-4.77,2.01-5.02,2.01-.57,2.56.88,3.01,1,1.31.36,1.75-1,2.01-1,.33,0,.62.94,1,1,1.79.31,3.24-.63,4.52,1.51-.83,1.51,1.52,4.92,1,5.52-1.6,1.89-1.73-.37-2.01-1.51-.22-.9-1.88-.62-2.01-.5-.1.1.28,1.99-1,2.51v2.51c.16-2.02-1.22-1.77-.5-4.02.09-.29.5-.43.5-.5-.02-.64-2.46-2.1-3.01-1.51-1.09,1.15,1.02,3.33,1,3.52-.02.33-2.33,2.89-2.01,4.02.1.36.79.57,1,1s1.17,3.38,2.01,2.51c.23-.24-.61-4.69,3.01-4.02l-1,6.03,3.01-2.01c-.15,1.45.23,3.15,0,4.52-.46,2.76-.93,3.65,0,7.03.36,1.29-1.48,2.12-1,2.51.24.2,1.82-.19,2.01,0,.18.18-.23.97,0,1.51.31.75,2.68,3.51,1.51,3.52-.25,0-1.1-1.5-1.51-1-.17.21.22.97,0,1.51s-1.36.71-1,2.01c.9,3.25,0,2.39,0,3.01,0,3.14.56,12.26,1,16.07.14,1.22,1.55,2.87,1,3.52-.47.56-2.06-2.13-3.01-2.01-.92,2.92,1.71,1.69,2.01,2.01.45.49-.89,1.12-1,1.51-.38,1.34,1.39,1.68,1,3.01-.2.69-3.01,2.54-3.01,3.01s6.62,6.97,1,6.53c-.17,2.11.25,4.46,0,6.53-.11.94-1.17.44-2.01.5-.54,1.76,2.63.57,2.01,1.51-1.23,1.85-2.9,1.38-3.01,1.51-.17.19.22.97,0,1.51-.18.43-.94.65-1,1-.92,5.11,1.45,4.68,4.52,7.53,3.05-.18.63.84.5,1.51-.18.89-.16,3.08,0,4.02.1.63,1.34.89,0,3.01-.79,1.25-3.44,2.47-3.01,4.02.11.4.93.62,1,1,.19.93-.23,2.18,0,3.01.15.55,2.01,1.62,2.01,2.01s-2.01,1.63-2.01,2.01,2.53,1.96,2.01,2.51c-.31.33-2.92-.93-2.01,2.01,5.03-2.64,1.46.18,2.01,4.02l-2.01,2.01c.97.16,2.89-.54,3.01.5.12.98.19,5.32,0,5.52-.99,1.08-3.64-2.46-4.02-2.01-.34.4.3,3.42,0,4.52s-3.24,1.62-1,3.01c-.85,1.48,1.18,4.37,1,4.52-.11.1-2.91.11-3.01,0-.19-.19.19-1.8,0-2.01-.11-.12-2.53.14-3.01-1.51-.64-2.21,3.62-2.62,4.02-4.02.58-2.01-1-2.84-1-3.01,0-.69.69.08,0-3.01-.56-2.5,1.52-7.8-3.01-5.02-.56.34-1.21,1.5-1.51,1.51-1.29.03-1.4-2.89-1.51-3.01-.69-.79-3.04,2.99-2.01,4.02.13.13,2.57-.12,3.01,1.51.36,1.32-.85,1.53-1,2.01-.72,2.23-1.4,4.85-2.01,7.03-1.23,4.4,4.16,1.14,3.01,4.02-.65,1.63-.24,2.39-1,5.02-.38,1.33,1.39,1.68,1,3.01-.07.24-3.15,3.34-3.52,3.52-1.75.86-1.53-.97-1.51-2.01.61-.15,1.85.16,2.01,0,.18-.18-.23-.97,0-1.51.17-.4.84-.6,1-1,.83-1.99-.96-1.29-2.01-1.51.39-3.41-.28-4.92-1-7.53-.25-.92.66-.7,0-3.01-.3-1.03,1.76-2.69,1-4.52-3.38-.86-1.5,2.47-2.01,3.01-.31.33-2.01-1.31-2.01-1.51,0-.34.94-.62,1-1,.16-.95-.22-2.2,0-3.01.38-1.37,1.83-.03,1-3.01-.36-1.3,2.87-4.23,2.01-6.53-2.4.5-1.64,2.24-2.01,3.52-.55,1.91-1.45,3.3-1,5.52-3.37.65-3.5-1.35-5.02-3.52.3-.99,1.6-.09,2.51-1.51.71-1.1,1.58-2.69,1.51-4.02-2.95-.79-2.84,2.88-3.01,3.01-.44.33-3.7-.32-4.02,0-.18.18.23.96,0,1.51-.17.42-.87.61-1,1-.2.58.17,1.36,0,2.01-.11.41-1,.68-1,1s1,.67,1,1c0,.53-.34-.06,0,2.01.42,2.55.69,5.25-2.01,4.52.1,2.33-.07,4.7,0,7.03l2.01-4.02c-.99,5.5,1.49,3.5,2.01,4.02.96.96-1.24,3.67-1,4.52.11.39.87.6,1,1,.69,2.13,1.33,3.89,2.01,6.03.52,1.64.62,2.21,1,4.02.23,1.1,1.48,2.99,1,3.52-.5.56-1.5-1.87-2.01-.5-.39,1.04-.39,2.34-2.01,2.51.15-1.45-.23-3.14,0-4.52.02-.12.75-.51,1-2.01.15-.9.63-3.84-1-3.52-.19,1.11.28,4.74,0,5.02-.19.19-1.03-.26-1.51,0-2.56,1.42-.56,2.15-.5,2.51.14.81.16,4.36,0,4.52-.51.51-2.66-1.42-4.02,2.51-.33.96-1.86.16-2.51,1.51l.5-5.52c-2.24-1.08-1.59-3.12-2.01-4.02-.55-1.17-3.15-4.38-2.01-5.52.19-.19,1.82.19,2.01,0,.43-.43.42-11.62,0-12.05-.72-.76-2.78,1.27-3.01,1-.11-.12-.16-2.16-1-3.01l2.51-1,1,2.01c2.31-.97,1.13-4.57,1.51-5.02.14-.16.87.16,1,0-.67,1.45,1.66,3.44,2.01,3.01.13-.16.13-3.86,0-4.02-.09-.1-1.96.9-2.01,1,.35-.41-1.13-2.94,2.51-2.01.23.06.51.74,1.51,1-.14-3.3-.3-1.34-1.51-2.01-.69-.39-1.49-1.85-2.01-2.01-.63-.19-1.69.07-2.51,0-.02-.83.13-2.88,0-3.01-1.63-1.63-2.43,1.07-2.01,3.01-2.2-.18-3,.15-4.52-2.01-2.07-1.66-3.8-.51-1.51-3.52,1.36-1.79,4.61-4.96,4.02-7.03-.18-.64-1.07-2.45,0-3.52.19-.19,1.77.2,2.01,0,.16-.14-.14-.72,0-1-1.69.27-2.73-.5-4.02,1.51-.16.25.15.8,0,1-.64.91-2.84,2.42-3.01,3.01-.69,2.42-.09,5.41-3.52,4.52-.5.96-3.51,4.23-3.52,4.52,0,.73,2.94,3.75,3.01,4.02.21.76.93,5.34,1,6.03.27,2.39-.19,5.09,0,7.53l-5.02-5.52c.89-3.66-1.61-2.12-2.01-2.51-.7-.69,1.46-2.81,1-4.02l3.01,3.01-1-5.02c-2.16,2.36-3.57-2-4.52-2.01-.18,0-2.58,1.89-3.01,2.01-.26.07-3.68-.77-5.02-1-.39-.07-.67-1-1-1-.18,0-2.46,2.34-2.51,2.51-.18.62.18,1.39,0,2.01-.16.56-1.86,1.46-2.01,2.01-.36,1.32.88,1.56,1,2.01.21.74-.22,2.24,0,2.51.12.15,2.32-1.9,3.01.5.84,2.91.95,2.12,2.01,4.02.26.48-.19,1.32,0,1.51.25.25,2.76-.25,3.01,0s-.19,2.56,0,3.52c.41,2.03,1.43,4.99,2.01,7.03.23.8-1.88,3.67-1,5.52,2.04-.03,1.88-2.88,2.01-3.01.28-.3,1.78,1.03,2.01,1.51.94,2-2.21,1.35-2.51,2.51-3.32-.65-1.9.78-3.52,2.51.63.86,2.26-1.27,3.01-.5.16.16.16,3.81,0,4.52-.57,2.54-.71,6.51,0,9.04.35,1.27-1.49,1.82-1,3.52-.97-.16-3.78.24-4.02,0-.18-.18.23-.97,0-1.51-.24-.58-2.01-2.83-2.01-3.01,0-.75,2.93-3.72,3.01-4.02.18-.64-.2-1.43,0-2.01.14-.39.83-.59,1-1,.92-2.19-1.83-1.33-2.01-1.51-.21-.21.2-1.77,0-2.51-.11-.39-.88-.6-1-1-.6-1.96.94-2.69,1-3.01.96-4.66-.59-2.94-2.51-3.52s-1.34-3.85-1.51-4.02c-.19-.19-1.03.26-1.51,0-1.11-.62-1.04-1.33-3.01-2.01-1.38-.47,1.06-1.52.5-2.01-.8-.71-2.79,1.49-4.02,1-.27,3.33-3.68,5.94-3.01,9.54-5.08,3.31.76,6.53,0,9.04-.3.98-1.45,1.44-1,4.02.53,3.11-1,2.37-1,3.01,0,.33.94.62,1,1,.12.71.12,3.39,0,3.52-.14.14-3.88.14-4.02,0-.12-.12-.15-2.95,0-3.52s2.01-1.62,2.01-2.01c0-.33-.94-.62-1-1-.23-1.41.32-6.21,0-6.53-.43-.43-5.54-.22-6.03,1.51-.34,1.21.96,3.71-1,3.52-.08-2.05-2.07-3.99-.5-6.03,1.42-.89-.59-3.04-1-3.01-.18,0-2.46,2.34-2.51,2.51-.51,1.74,1.35,4.19-2.01,3.52.48-1.23-1.71-3.22-1-4.02.43-.49,1.8,1.93,2.01.5.41-2.38-.79-1.11-1.51-1.51-.94-.52-2.32-2.81-3.01-3.01s-2.3.21-2.51,0c-.2-.2-.12-4.53,0-5.52.14-1.2,1.21-2.33,1-2.51-.67-.58-3.96,1.94-5.02,1-.22-.2,1.72-2.31,1-3.52,1.96-1.25,0-1.51,0-2.01,0-.33,1-.67,1-1,0-.39-1.84-1.44-2.01-2.01-.54-1.84,1.66-3.41,1-5.52l-2.01,3.01c-1.5.38-1.14-3-2.51-3.01-.15,0-1.62,1.35-2.51,1.51-.62,1.17-1.55-1.02-2.01-.5-.68.77,1.71,3.32,1,4.02-.23.23-2.06-.55-2.01.5,2.75,2.02-.56,5.07,0,7.03.12.42,1,.68,1,1s-3.75,3.64-3.01,5.52l-2.01-2.51c1.61-1.2.94-3.5,1-5.52,2.12,0,2.55-4.48,2.01-5.02-.19-.19-1.78.2-2.01,0-.47-.39,1.46-1.6,1-2.01-.86-.76-2.75,1.31-3.01,1-.15-.17-.13-3.71,0-4.52.06-.38.94-.63,1-1,1.08-6.6-.8-3.51-1.51-3.52-.34,0-.62-.94-1-1-.95-.16-2.2.22-3.01,0-1.98-.54-1.34-3.85-1.51-4.02-.81-.81-5.22,2.82-6.03,2.01-.19-.19.27-1.03,0-1.51-.49-.87-2.41-2.13-3.01-1.51-.84.88,2.35,4.33,2.01,5.52-.13.46-3.16,2.49-2.01,3.52.36.32,3.62-.33,4.02,0,.5.41-.9,1.13-1,1.51-.53,1.93,1.28,2.74,1,4.52l2.01-3.52c.38-1.34-1.39-1.68-1-3.01.11-.4,1.75-1.82,2.01-1.51.27.32-.58,1.87.5,2.01.79.1,2.35-.16,2.51,0,.34.34-.34,4.68,0,5.02.56.56.8-1.41,2.01,1.51.18.43.93.64,1,1,.21,1.02-.14,2.39,0,3.52l-3.01-3.01c-.18,1.42.28,3.23,0,4.52-.08.38-1.86,2.53-2.01,3.01-.56,1.88,1.3,2.77,1,4.52l-4.02-4.02,1,4.52c-1.96,1.25,0,1.51,0,2.01,0,.41-2.72,1.53-2.01,4.02.11.4,1.75,1.81,2.01,1.51.55-.66-1.3-5.37,2.01-6.03.07,2.16-.11,4.36,0,6.53.08,1.63.86,2.88,2.01,1.51.31-.37-.25-3.38,0-4.52s2.92-3.69,3.01-4.02c.39-1.42-.43-6.01,0-6.53,1.15-1.37,1.93-.13,2.01,1.51.16,3.32-.57,4.89,2.01,7.53l-4.02-2.01c1.94,2.24.41,5.37,1,7.53.15.54,4.17,3.49-.5,3.52-1.38,0-2.19-1.34-2.51-1-1.12,1.16,1.86,2.98,2.01,3.52.52,1.85-1.45,4.04-2.01,3.52-.33-.31.92-2.93-2.01-2.01.95,4.07-3.33,4.87-6.53,4.02-.26-.07-2-1.5-1-2.01l1.51-6.03c2.98-.6,1.94,1.37,2.01,3.52.04,1.17-.44,1.73,1,1.51-1.03-3.27,2.52-1.51,3.01-2.01.28-.28-.19-3.91,0-5.02l-2.51,3.01-5.02-7.03c-2.25-.24-1.56.28-1,2.01.29.9.43,1.94.5,2.01.4.39,4.72-.8,0,3.52l-1,5.52c-1.22,1.44-1.9.07-2.01-1.51-.29-4.13,1.43-1.94,2.01-2.51.39-.39.12-6.03-1.51-6.03s-1.41,2.7-1,4.02c.17.55,1,.35-.5,1.51l-1,3.52c-1.79.4-.72-1.75-1-2.01-.21-.19-1.77.2-2.01,0-.5-.41.91-1.14,1-1.51.54-2.05-.87-2.54-1-3.01-.36-1.32.91-1.6,1-2.01.16-.71.16-4.36,0-4.52-.19-.19-1.77.2-2.01,0-.5-.41,1-1.25,1-1.51,0-.18-1.93-2.65-2.01-3.01-.27-1.23-.22-5.7,0-7.03.06-.38,1-.67,1-1s-.94-.62-1-1c-.16-.95.22-2.19,0-3.01s-2.7-1.58-2.01-3.52l3.52,4.02,4.52-3.01c-.24,1.04.62,3.61-.5,4.02-.98.35-3.2,1.35-3.52,2.51-.22.8-.31,9.18,0,9.54.37.44,2.86.22,2.01-1.51-.46-.93-1.78-.7,0-2.01l1-6.53c3.17,1.22,1.1,1.96,1,2.51-.21,1.24.26,2.86,0,4.02-.4,1.8-.61,3.22-1,5.02-.16.7-.15,4.35,0,4.52.37.44,2.86.22,2.01-1.51-.22-.45-1-.71-1-1,0-.11,1.4-1.51,1.51-1.51.25,0,1.1,1.5,1.51,1,.27-.32-.26-2.76,0-3.01-3.08,1.49-1.67-2.22,1-3.01.34.69-.82,2.92-1,3.01.19-.19,1.82.19,2.01,0,.22-.22-.23-1.81,0-2.51.17-.51,1.93-2.64,2.01-3.01.52-2.35-.67-3.11-1-4.52.6.05,1.94.07,2.01,0,.18-.18.18-4.84,0-5.02-.63-.63-2.14.74-3.01,1-.26-1.63,1.3-2.72,1-3.01-2.15-2.16-1.58,2.58-3.01,2.01v-7.03l-3.01,4.02c1.1-6.12-2.03-3.21-3.01-4.02-.5-.41.9-1.13,1-1.51.36-1.26-1.52-1.87-1-3.52l4.52,4.02,1.51-2.51v-2.51l-2.01,2.01-2.01-8.03-2.01,2.51-1,5.52c-2.57-.84-1.57-1.77-1-3.52.5-1.54,1.34-2.79,1-4.52l-2.01,3.01-2.01-2.51c.88-.63,1.69-2.05,2.51-2.51.35-.2,2.34.49,1.51-1.51-.18-.43-.94-.65-1-1-.22-1.27.3-5.22,0-5.52-.25-.25-2.76.25-3.01,0-.19-.19.19-1.8,0-2.01-.55-.6-3.02.89-3.01,1.51,0,.18,1.93,2.66,2.01,3.01.24,1.1.24,5.92,0,7.03-.07.32-2.15,3.51-2.51,3.52-1.3.02-1.39-2.89-1.51-3.01,1.03,1.03,3.4-.32.5-2.01-.73-.42-.69,1.82-.5,2.01-.15-.17-.87.17-1,0-.17-.21.22-.96,0-1.51-.18-.43-.94-.65-1-1-.53-2.95.98-4.51,1-6.03s-1.39-1.85-1-3.52c-.81.14-2.9,2.1-3.01,2.51-.36,1.32.86,1.54,1,2.01.6,1.98-1,2.84-1,3.01,0,.33.94.62,1,1,.33,1.96-.23,4.46,0,6.53l-2.01-3.01-1,7.03,2.01-3.01,1,5.02c2.35.53-.44-3.87,2.01-4.02v7.53l-3.01,2.51-2.01-6.03-.5,6.03c-2.21-1.3-1.14-2.93-1.51-4.52-.09-.37-1.6-1.05-1-3.01,4.07-2.81-2.81-7.78-4.02-6.53-.75.78,1.69,6.2-2.01,5.02l-2.01-5.02-2.01,3.01-.5-4.02c1.57-2.47-.33-2.16-2.51-2.01.03-2.06,2.89-1.87,3.01-2.01.82-.95-.97-2.34-1-2.51-.2-.95.24-3.27,0-3.52-.34-.34-3.02,1.42-2.01-3.52.49-2.37.53-3.9,1-6.03.85-3.79-.83-10.23,0-14.06.08-.38,1.88-2.56,2.01-3.01.39-1.36-3.53-4.66-.5-5.52,1.4-.4,1.72,1.58,2.51.5-1.72-1.04-.66-2.76-1-4.02-.12-.44-2.01-2.83-2.01-3.01,0-.27,1.73-2.4,1-5.02-.35-1.28-1.53.06-1-3.01.43-2.54-.71-2.85,0-6.03.38-1.71-.37-4.3,0-6.03.53-2.44,4.24-3.59,3.01-8.03-.15-.55-1.86-1.46-2.01-2.01-1.18-4.29.78-9.21,0-12.05-.15-.55-1.86-1.46-2.01-2.01-.91-3.32.65-10.15,0-14.06-.16-.97-.83-1.86,0-4.02.46-1.2,3.01-3.75,3.01-4.02,0-.18-1.8-2.46-2.01-3.01s.18-1.35,0-2.01c-.11-.41-1-.68-1-1,0-.3.8-.56,1-1,.15-.32-.13-.8,0-1,.31-.5,3.28-3.45,3.52-3.52,2-.58,2.56.88,3.01,1,1.31.36,1.75-1,2.01-1,.39,0,1.45,1.85,2.01,2.01,1.45.41,3.24-.74,4.52,1.51.63,2.71-2.6,1.06-3.01,1.51-.59.64,1.74,3.53,1,5.02l2.01-2.51c-1.75-.78.09-2.53.5-2.51,2.33.13.41,6.25,3.01,5.02.71-.33.86-1.51,2.51-1-1.08-1.02-1.42-6.61-1-7.03.18-.18.96.23,1.51,0,.41-.17.61-.86,1-1,.58-.21,1.38.19,2.01,0,.4-.13.61-.89,1-1,3.02-.84,2.12.63,3.01,2.01.55.85,2.09,1.45,2.51,1,.15-.16-.45-3.49,1.51-4.02.63-.17,4.36-.16,4.52,0,.59.58-1.74,3.57-1,5.02,3.65.87,1.35-3.27,2.01-4.02.27-.3,1.9,1.12,2.01,1.51.23.84.15,3.98,0,5.02-.06.37-.93.62-1,1-.16.87-.62,3.84,1,3.52-.19-3.05,3.82-3.49,3.01-6.53l2.01.5c.93-2.9-2.44-1.66-3.01-3.52-.33-1.08,2.29-3.52,2.51-3.52.34,0,.62.94,1,1,2.71.45,6.33-.45,9.04,0,2.22.37,2.8.37,5.02,0,.81-.14,4.36-.16,4.52,0s-.19,4.03,1.51,4.02c.95,0,1.77-3.45,3.01-4.02l.5,5.52,3.01,2.51c-1.6-1.94-.28-4.18-2.01-5.52,1.6-.74.75-3.27,1-3.52,1.09-1.09,3.33,1.01,3.52,1s2.83-2.01,3.01-2.01c.51,0,1.48,2.43,3.01,2.01,3.01-.83,2.27,1,3.01,1,.38,0,1.63-2.01,2.01-2.01.33,0,.62.94,1,1,.96.17,3.29-.23,3.52,0,.19.19-.2,1.77,0,2.01.41.5,1.25-1.01,1.51-1,.44,0,1.47,2.13,2.51,2.01v-3.01l5.02-1-3.01,4.02c3.28-.72,1.69,2.13,2.01,4.52.2,1.5,1.07,1.71,1,3.01h-2.01l2.51,2.51,2.51-6.53,4.02-3.52c.79-4.32-3.14-.18-4.02-1-.56-.52.68-2.79,1.51-3.01,2.55-.68,5.59-.47,4.52,2.51.21,1.43,1.58-.99,2.01-.5.1.12.38,3.02-.5,3.01-1.55-.02-1.86-1.37-3.52-1-.35,2.96.49,6.74,0,9.54-.06.37-.87.59-1,1-.99,3.11,3.39,5.4,4.02,1,.39-2.7-1.46-4.44-1-6.03.16-.56,2-1.61,2.01-2.01,0-.25-1.5-1.1-1-1.51.32-.27,2.76.26,3.01,0,.18-.18-.23-.97,0-1.51.18-.42.9-.63,1-1,.25-.87-1.96-3.42-1-4.52.29-.33,1.78,1.58,3.01,1,.71,1.93-.81,2.88-1,3.52-.33,1.06-.84,2.4-1,3.01-.26.98.34,4.35-1.51,4.52-.17.02-1.64-2.26-2.51-.5l3.52,4.52c3.18.43.04-1.66.5-2.01,1.88-1.43,1.9,1.01,2.51,2.01,1.07,1.76,2.61-.69,2.51.5-.15,1.77-3.48,1.32-4.52,1.51-.39.07-.67,1-1,1s-.67-1-1-1-.57.85-1,1c-.57.2-1.34-.17-1.51,0-.2.2-.18,4.86,0,5.52.15.55,1.86,1.46,2.01,2.01.36,1.32-.91,1.6-1,2.01-.83,3.51.26,3.41,3.01,4.52-.79-1.76.96-3.19,1-3.52.3-2.02-.22-3.85-.5-5.52-.33-1.93-1.17-2.49,1-4.02l1.51,3.52,4.02,3.52,1-7.03c-.16,2.02,1.21,1.77.5,4.02-.43,1.37,2.97,3.87,2.51,5.52-.11.4-.92.62-1,1-.26,1.16.22,2.79,0,4.02-.06.35-.82.57-1,1-.23.54.18,1.33,0,1.51-.19.19-1.82-.19-2.01,0s.26,1.03,0,1.51c-1.44,2.59-2.71.14-3.01.5-.26.31.19,2.54,0,3.52-.49,2.47-1.36,4.01-1,7.53-.6-.12-2.9-.1-3.01,0-.28.26.79,2.41-1,2.01l1-4.52c1.65-1.78,2.34-4.15,2.01-6.53l-3.52-2.01-1.51,2.51c-.21,1.28.3,5.22,0,5.52-2.11,2.17-1.88-1.88-2.01-2.01-2.14-2.14-1.87,1.87-2.01,2.01-.25.25-2.76-.25-3.01,0-.18.18.23.96,0,1.51-.18.43-.94.65-1,1-.21,1.15.29,4.17,0,4.52-1.71,2.04-2.47-1.91-2.01-3.52.1-.36.78-.57,1-1,.87-1.7-1.63-1.96-2.01-1.51s.29,5.92,0,7.53c-.34,1.92-2.23,5.85-3.01,9.04-.34,1.39-.98,3.01-2.01,4.02.72.9,2.95-1.82,3.01-2.01.49-1.44-1.18-3.06,2.01-2.51.71,1.73-3.1,3.8-2.01,5.02.42.46,2.94-3.08,4.02-2.01.73.73-1.77,4.77,2.01,4.02-.77-1.81.9-3.04,1-3.52.25-1.17-.21-2.78,0-4.02.06-.38,1-.67,1-1s-.92-.61-1-1c-.76-3.62.81-2.05,2.51-2.51.95-.26,4.11-2.26,5.02-2.01.41.11.68,1,1,1,.57,0-.35-.94,2.01,0,2.03.81.92-1.31,2.51-2.01.59,3.06,3.76,1.52,5.52,2.01.51.14,1.32,1.62,2.01,2.01.48.26,1.32-.19,1.51,0s-.26,1.03,0,1.51c.54.98,2.54,2.58,3.01,4.02.6,1.81-1.22,3.48,3.52,2.51.39-.08.63-.94,1-1,.82-.13,4.36-.16,4.52,0,.3.3.21,7.76,0,8.54s-2.44,1.46-2.01,3.01c.21.76,2.44,1.46,2.01,3.01-.54,1.98-3.85,1.34-4.02,1.51-.83.83.95,2.32,1,2.51.3,1.09-1.51,2.96-2.01,4.02-.23.5.19,1.35,0,2.01-.25.87-3.78,3.17-4.02,4.02-.81,2.92-.04,3.61-2.01,7.03-.58,1-1.25,2.13-2.01,3.01,1.7,1.72,3.59-1.07,5.52-.5.46.14,1.33,1.53,2.01,2.01.21.15.75-.16,1,0,2.46,1.57,1.51,2.96.5,5.02.8-.13,1.85.2,2.51,0,.17-.05,2.51-2.33,2.51-2.51,0-.33-1-.67-1-1s.89-.59,1-1c.61-2.3-.26-2.94,3.01-4.02,2.24-.74,2,.67,4.02.5.53-1.77-2.61-.56-2.01-1.51,1.11-1.74,1.26-2.41,1-4.52l2.01,2.01,1-6.03c3.17-.94.95,1.98,3.01,2.01l1-4.02c-.58-.12-1.35.06-2.01,0-1.41-2.58,2.39-1.78,2.01-2.51-1.52-2.9-4.55-1.13-4.02,2.01l-3.01,4.52,1-4.52c-.4-6.32-.48-8.86,1-14.06.23-.8-1.88-3.67-1-5.52l2.01,2.51c.81,2.92,1.76,1.37,1,4.02-.87,3.03,3.61,4.55,4.02,6.03.73,2.66-.61,5.26-1,7.53ZM91.39,11.18c.14-1.4.29-7.15-1.51-7.03s-.52,4.69-3.52,2.01c.13.82-.21,2.77,0,3.01.45.52.83-1.23,2.01-.5.99.61,1.69,2.34,3.01,2.51ZM58.25,17.21c.22-.23-.23-1.81,0-2.51.52-1.57,1.89-3.13,2.51-5.52.54-2.08,1-2.53-1-4.02l-.5,5.02-4.02-3.01c.8,3.31-1.8,6.55-1,9.54.07.26,1.5,2,2.01,1,.45-.93,1.83-.32,2.01-.5ZM84.36,5.15c-.53-.56-2.79.68-3.01,1.51-.2.76-.13,3.08,0,4.02.16,1.18,1.54,2.92,1,3.52-.44.49-1.8-1.93-2.01-.5-.27,1.6.18,2.63,1.51,3.52.48.32.58-2.21,2.01-3.01.89-.5,2.61.51,1.51-3.52-.15-.55-1.98-1.58-2.01-2.01-.01-.18,2.09-2.37,1-3.52ZM32.14,7.16c-1.31-.27-3.65.16-4.02,1.51-.41,1.52,3.2,3.15,2.01,5.52v-6.03l2.01-1ZM70.3,14.19c-.19-.19-1.04.27-1.51,0-1.69-.96-1.73-3.26-2.51-4.52-.5-.81-2.03-2.2-3.01-2.51.2,2.11-2.24,2.96,0,4.52.06,1.05-1.75.27-2.01.5-.21.18.86,1.31,1,2.51.32,2.7.43,8.73-2.51,9.54-.83.23-2.09-.19-3.01,0-.35.07-1.04,1.47-1.51,1-.11-.11.56-3.02-1.51-2.01-.57.28-2.07,2.55-2.51,2.01-.52-.63,1.12-4.24-1-4.02v6.53c-1.19,1.19-1.33,3.02-3.01,4.02-1.34.79-2.36-2.12-3.01-1.51-.91.87,1.2,3.76,3.52,3.01.49-.16,1.32-1.54,2.01-2.01.24-.16.8.15,1,0,.89-.65,2.44-2.85,3.01-3.01,1.21-.35,5.21,1.36,5.52,2.51.19.71.14,3.16,0,4.02-.06.38-1,.67-1,1-.01.94,4.66,6.29,3.01,9.04,1.62.77.73,3.19,1,3.52,1.74,2.01,2.47-1.92,2.01-3.52-.12-.42-1-.68-1-1s.94-.62,1-1c1.06-6.39-.21-9.89,2.01-17.07.13-.41,2.01-2.33,1-3.52-.38-.45-3.03,3.09-4.02,2.01-.14-.15-.14-3.88,0-4.02.45-.45,2.95,1.43,2.01-3.52l2.01-2.51c-.74,1.8,2.02,3.04,2.01,3.52,0,.12-.62.88-1,2.01-.41,1.2-2.37-.38-2.01,1.51,3.86.39,2.43-.11,3.01-1.51.24-.58,2.01-2.83,2.01-3.01,0-.32-.85-.57-1-1-.2-.57.17-1.34,0-1.51ZM8.03,10.18c-.14-.17.08-1.38,0-2.01-1.64-.46-1.12,2.9-1,3.01.73.74,1.96-.64,2.51-1,.94-.62-.26,2.54,1.51,2.01v-4.02c-2.64-1.31-1.93,3.31-3.01,2.01ZM152.16,8.17c-.11,0-1.51,1.4-1.51,1.51,0,1.42,2.93-1.51,1.51-1.51ZM36.16,11.18c1.03-1.03-.32-3.4-2.01-.5-.42.73,1.82.69,2.01.5ZM71.31,12.19c.83-.83-1.54-3.59-2.01-3.01-.87,1.08.37,4.65,2.01,3.01ZM41.18,10.18c-.11-.11-2.91-.11-3.01,0-1.03,1.03,1.99,4.04,3.01,3.01.11-.11.11-2.91,0-3.01ZM108.47,12.19c.64-.77-.33-2.82-1-2.01-.64.77.33,2.82,1,2.01ZM150.65,13.19c.64-.77-.33-2.82-1-2.01-.64.77.33,2.82,1,2.01ZM153.66,13.19c.64-.77-.33-2.82-1-2.01-.64.77.33,2.82,1,2.01ZM47.2,18.21c-.41-.41,1.88-4.83,1-6.03-.79.07-3.01,2.31-3.01,2.51,0,.26,1.36.69,1,2.01-.1.37-1.51,1.1-1,1.51.19.15,1.56-.47,2.51,1s-.3,3.23,1.51,3.01c.99-5.5-1.48-3.49-2.01-4.02ZM76.83,12.19c-.65,0-.65,1,0,1s.65-1,0-1ZM100.43,12.19c-.77-.64-2.82.33-2.01,1,.77.64,2.82-.33,2.01-1ZM14.56,13.19c-1.73,0-1.73,4.02,0,4.02s1.73-4.02,0-4.02ZM74.82,13.19c-.65,0-.65,1,0,1s.65-1,0-1ZM90.39,17.21c.6.74,3.06-2.74,2.01-4.02-.4-.49-1.07.81-1.51,1-.53.23-1.29-.17-1.51,0-.49.4.81,1.07,1,1.51.23.53-.17,1.29,0,1.51ZM40.17,23.23c.26-.28-.6-2.77,1-3.52l-.5-5.52c-2.35,1.89-1.71,5.69-3.52,7.53.49.87,2.42,2.13,3.01,1.51ZM167.72,14.19c-1.63-1.63-2.88,1.93-2.01,3.01.46.58,2.84-2.18,2.01-3.01ZM26.11,18.21c.1-.12.1-2.9,0-3.01-1.32-1.58-1.32,4.59,0,3.01ZM74.32,18.21c.1-.12.1-2.9,0-3.01-1.32-1.58-1.32,4.59,0,3.01ZM77.33,15.2c-.95,1.13,2.01,3.95,2.01,2.51,0-.32-.85-.57-1-1-.1-.28-.1-2.59-1-1.51ZM100.43,15.2c-1.03-1.03-3.4.32-.5,2.01.73.42.69-1.82.5-2.01ZM151.66,18.21c.19-.24.25-3.45-.5-3.01-2.81,1.64.21,3.37.5,3.01ZM10.04,20.22c.2-.2.48-4.88-1-4.02.46,1.2-1.71,3.33-1,4.02.07.07,1.94.07,2.01,0ZM22.1,16.2c-.77-.64-2.82.33-2.01,1,.77.64,2.82-.33,2.01-1ZM36.16,16.2c-2.27-2.27-2.59,4.3-2.01,5.02.87,1.08,3.11-3.93,2.01-5.02ZM61.26,16.2c-2.67-2.67-2.67,5.69,0,3.01.11-.11.11-2.91,0-3.01ZM84.87,16.2c-.65,0-.65,1,0,1s.65-1,0-1ZM86.37,20.22c2.73.12,4.27-2.08,1.51-4.02l-1,3.01c-1.55-2.23-2.36.17-4.52,0-.48,1.2,1.71,3.26,1,4.02-.59.63-2.53-.64-3.01-1.51-.27-.47.19-1.32,0-1.51-.11-.11-2.91-.11-3.01,0-.22.22.42,2.55-.5,2.01-1.84-1.07-.86-3.14-2.51-3.01l1,4.02,2.01,2.01c-.87.19-1.55-1.83-2.01-.5-.28.8-1.11,2.42-1,2.51.23.2,1.82-.19,2.01,0,.18.18-.23.97,0,1.51.45,1.07,2.95,5.36,3.52,5.52.9.26,3.05-.19,3.52,1.51.36,1.32-.91,1.6-1,2.01-.19.83-.23,6.3,0,6.53.19.19,1.82-.19,2.01,0,.31.31.74,3.87,1,4.52.86,2.13,3.16,4.91,4.02,7.03.22.55-.2,1.38,0,2.01.16.48,1.37.69,1,2.01-.11.4-.92.62-1,1-.32,1.44.31,3.57,0,5.02-.18.84-2.83,4.18-3.01,5.02-.66,3.05.66,7.99,0,11.05-.08.37-1.76,2.42-2.01,3.01-.23.54.18,1.33,0,1.51-.13.13-2.57-.12-3.01,1.51-.22.81-.22,7.22,0,8.03.11.39,1.75,1.82,2.01,1.51.12-.14.65-2.71,1-3.52.18-.41.84-.6,1-1,.38-.9-.58-2.36,2.51-1.51.45.12.69,1.37,2.01,1,.41-.11.68-1,1-1s.57.85,1,1c.57.2,1.34-.17,1.51,0,.36.36-.34,4.3,0,5.52.13.49,3.3,2.5,3.52,2.51.78.04,1.62-1.45,1-3.01-1-2.55-3.25-3.38-2.51-6.53.64-1.2,4.91-5.6,5.02-6.03.46-1.66-.32-4.61,0-6.53-1.94-.2-.71,2.27-1,3.52s-2.88,3.25-2.01,5.52c-2.63.59-2.49-1.78-3.01-2.51-1.57-2.2-2.7-2.27-2.01-6.03.07-.38.93-.62,1-1,.22-1.22-.29-2.95,0-4.02.15-.55,1.85-1.45,2.01-2.01.29-1-.33-2.04,0-4.02.22-1.31-.32-5.15,0-5.52.39-.46,1.62,1.47,2.01,1,.31-.36-.2-4.21,0-5.52.09-.57,1.91-4.42,2.01-5.02.32-1.95-.86-4.53,1-6.03-.62-4.12-1.04,1.69-2.01.5-.17-.21.21-.95,0-1.51-.3-.79-1.9-3.47-2.01-4.02-.14-.66-.12-3.39,0-3.52.22-.23,4.15.82,3.01-1.51-1.26-2.56-2.39-.47-2.51-.5-2.28-.64-3.43-4.22-.5-5.52l1-5.52-2.01,3.52v1.51l-3.01.5c2.66-1.88-.28-5.03,0-6.03.3-1.1,1.26-1.19-.5-3.52-.89-.67,1.27-2.1.5-3.01-2.28-2.69-1.87,2.87-2.01,3.01-.13.13-1.37-.07-2.01,0l-.5,5.02c-.66-.93-2.93-2.1-2.51-3.52.15-.52,1.55-.87,1-2.51ZM30.13,17.21c-2.35-2.35-2.49,4.54-2.01,5.02.07.07,1.94.07,2.01,0,.85-.85-1-2.36-1-2.51s1.85-1.66,1-2.51ZM54.74,19.22c-.65,0-.65,1,0,1s.65-1,0-1ZM151.66,19.22c-2.19-2.19-1.8,1.76-2.01,2.51-.12.45-1.37.69-1,2.01.05.17,1.4,1.51,1.51,1.51,1.57,0,1.97-5.57,1.51-6.03ZM166.22,19.22c-.65,0-.65,1,0,1s.65-1,0-1ZM173.25,19.22c-.65,0-.65,1,0,1s.65-1,0-1ZM21.09,22.23c.64-.77-.33-2.82-1-2.01-.64.77.33,2.82,1,2.01ZM46.2,22.23c.64-.77-.33-2.82-1-2.01-.64.77.33,2.82,1,2.01ZM95.41,22.23c.64-.77-.33-2.82-1-2.01-.64.77.33,2.82,1,2.01ZM9.04,26.25c.18-.18.16-4.83,0-5.02-.93-1.11-.94,1.4-1,1.51-.37.66-2.01,1.67-2.01,2.01,0,.62,2.43,2.09,3.01,1.51ZM41.68,21.22c-.65,0-.65,1,0,1s.65-1,0-1ZM57.75,21.22c-.65,0-.65,1,0,1s.65-1,0-1ZM73.32,23.23c.64-.77-.33-2.82-1-2.01-.64.77.33,2.82,1,2.01ZM102.44,23.23c.64-.77-.33-2.82-1-2.01-.64.77.33,2.82,1,2.01ZM156.68,24.24c1.13-1.04-2.21-5-4.02-1.51l1.51,5.52c1.23-.45.1-3.62.5-4.02.19-.19,1.8.19,2.01,0ZM13.06,25.24c.19-.24.25-3.45-.5-3.01-2.81,1.64.21,3.37.5,3.01ZM23.6,22.23c-.65,0-.65,1,0,1s.65-1,0-1ZM160.19,22.23c-.65,0-.65,1,0,1s.65-1,0-1ZM14.56,23.23c-.65,0-.65,1,0,1s.65-1,0-1ZM42.68,23.23c-.65,0-.65,1,0,1s.65-1,0-1ZM107.46,26.25c.1-.12.1-2.9,0-3.01-1.32-1.58-1.32,4.59,0,3.01ZM110.98,23.23c-.65,0-.65,1,0,1s.65-1,0-1ZM169.73,23.23c-1.42-1.42-3.52,1.25-.5,3.01.77.45.65-2.86.5-3.01ZM34.15,33.28c-.71-2.2,1.78-3.62.5-5.02l.5-4.02-2.01,2.51c1.32,2.37.12,2.37,0,3.01-.16.88-.63,3.84,1,3.52ZM37.66,24.24c-.65,0-.65,1,0,1s.65-1,0-1ZM20.59,26.25c-.65,0-.65,1,0,1s.65-1,0-1ZM108.47,34.28l1-8.03-2.01,4.52,1,3.52ZM112.49,28.25c1.03-1.03-.32-3.4-2.01-.5-.42.73,1.82.69,2.01.5ZM163.21,27.25c-.65,0-.65,1,0,1s.65-1,0-1ZM9.54,28.25c-.65,0-.65,1,0,1s.65-1,0-1ZM12.55,28.25c-.65,0-.65,1,0,1s.65-1,0-1ZM25.11,31.27c.6-.57-.91-3.03-1.51-3.01-.39.01-1.63,2.01-2.01,2.01-.18,0-1.81-1.95-2.51.5-.3,1.03,1.76,2.69,1,4.52,3-.47,1.63-4.61,2.01-5.02.26-.28,2.22,1.76,3.01,1ZM30.13,28.25c-.68-.68-3.46.9-3.01,2.51.94,3.4,4.48-1.04,3.01-2.51ZM123.53,31.27c.64-.77-.33-2.82-1-2.01-.64.77.33,2.82,1,2.01ZM110.48,45.33c2.23-2.23-3.81-4.78-4.02-5.52-.29-1.06.23-2.8,0-4.02-.07-.38-.94-.62-1-1-.24-1.36.96-4.6-1-4.52.67,2-1.68,3.42,0,4.52-2.38,1.71-.34,2.96,0,4.02.19.6-.18,1.38,0,2.01.13.45,1.53,1.33,2.01,2.01.15.2-.16.75,0,1,.75,1.19,3.28,2.24,4.02,1.51ZM164.21,30.26c-.65,0-.65,1,0,1s.65-1,0-1ZM124.54,32.27c-1.63-1.63-2.88,1.93-2.01,3.01.46.58,2.84-2.18,2.01-3.01ZM27.12,35.28c1.03-1.03-.32-3.4-2.01-.5-.42.73,1.82.69,2.01.5ZM40.68,33.28c-1.44.41-1.87,3.23-1.51,4.52.08.27,2.52,2.88,3.01,4.02.25.56-.24,1.45,0,2.01.28.64,2.1,3.5,2.51,3.52,1.87.09,1.76-7.15,1.51-8.54-.07-.37-.87-.59-1-1-.19-.6.18-1.38,0-2.01-.32-1.11-2.97-2.95-4.52-2.51ZM98.93,33.28c-.65,0-.65,1,0,1s.65-1,0-1ZM174.25,33.28c-.65,0-.65,1,0,1s.65-1,0-1ZM14.06,38.3c.13-.15.13-3.86,0-4.02-1.38-1.65-1.38,5.67,0,4.02ZM6.03,37.29c.64-.77-.33-2.82-1-2.01-.64.77.33,2.82,1,2.01ZM163.71,41.31c.11.1-.45,1.65,1,2.51.93.56,1.88-.53,2.01-1,.37-1.34-1.39-1.68-1-3.01.12-.4.9-.61,1-1,.38-1.38-1.65-2.44-2.51-3.52-1.12.82.82.8,0,2.01-1.33,1.96-5.07.55-5.52,1-.18.18-.16,4.83,0,5.02.22.26,4.24-2.75,5.02-2.01ZM19.58,36.29c-.11,0-1.51,1.4-1.51,1.51,0,1.42,2.93-1.51,1.51-1.51ZM170.74,39.3c.64-.77-.33-2.82-1-2.01-.64.77.33,2.82,1,2.01ZM17.07,76.46c-.07.06-.14.99-1,1.51-1.36.81-2.84.35-3.01.5-.27.24,3.56,7.19,3.01,2.01,1.47.73,4.41-1.6,5.02-1,.94.92-5.65,9.39,1,4.02l1,5.52c1.81.68,1.85,3.36,2.01,3.52.3.3,3.11-1.33,2.01,3.52-.25,1.12-2.92,3.69-3.01,4.02-.36,1.33.91,1.6,1,2.01.43,1.94-.3,4.89,0,7.03,1.02,1.47,5.55,6.53,6.53,6.53.38,0,2.19-2.49,3.01-3.01,2.12-1.34,2.24-.22,3.01,0,1.77.51,3.3-1.27,3.52-1,.18.22-.26,1.04,0,1.51.14.25,4.24,3.44,4.52,3.52.82.22,2.06-.16,3.01,0,.39.07.67,1,1,1,.43,0,1.47-2.13,2.51-2.01.11.81-.19,1.85,0,2.51.15.5,3.3,2.5,3.52,2.51,1.27.06,1.78-3.32,1.51-4.52-.07-.29-4.11-6.22-.5-4.52.3.14,2.46,2.34,2.51,2.51.18.63-.19,1.41,0,2.01.13.4.88.61,1,1,.44,1.45-.96,3.79-2.01,5.02,1.77.89,4.24,7.15,5.52,7.53.47.14,2.42.09,2.51,0,.23-.22-.55-2.06.5-2.01,3.06,2.22,7.26,1.56,11.05,2.01,1.19.14,2.33,1.21,2.51,1,.13-.15.14-3.88,0-4.02-.19-.19-1.03.26-1.51,0-2.27-1.27-2.33-3.84-2.51-4.02-.62-.62-6.51-.99-9.04-5.52-1.69-3.03-4.81-2.3-5.02-2.51s.21-1.79,0-2.51c-1.07-3.59-6.81-2.11-9.54-2.51-.37-.05-.6-.89-1-1-.74-.2-2.3.21-2.51,0-.18-.18.68-2.92-1.51-2.01-.42.18-.63.9-1,1-1.48.41-2.81-2.16-4.02-3.01-.32-.22-1.56-.03-2.51-1.51-1.47-2.3.28-3,0-4.02-.45-1.63-2.88-1.38-3.01-1.51-.3-.3.25-3.41,0-4.52-.09-.38-.89-.6-1-1-.36-1.32.85-1.53,1-2.01.2-.63-.22-1.45,0-2.01.87-2.16,5.63-6.6,6.03-8.03.23-.83-.19-2.09,0-3.01.08-.38.89-.6,1-1,.5-1.81-3.51-3.22-3.01-5.02,1.36-4.93-.32-2.85-1-6.03-.44-2.05.78-6.59-2.51-7.53s-6.46-3.52-8.54-6.53c-.26-.38-.73-2.59-1-3.01-2.1-3.25-4.83-.27-5.02-.5-.27-.32.26-2.76,0-3.01-.57-.57-2.56,1.86-2.01-3.52.12-1.18,2.41.39,2.01-1.51-3.28-.3-2.49,1.9-3.01,3.52-.13.41-.91.62-1,1-.17.66-.1,2.22,0,3.01.2,1.63,2.42-.82,3.01,0l-5.02-.5c-1.2,2.95,2.65,4.29,3.01,5.52.22.72-.22,2.24,0,2.51-.11-.11-2.98-.39-3.01.5l.5,6.53,2.51-7.03c.14.16.87-.16,1,0,.18.22-.26,1.03,0,1.51.37.66,2.01,1.67,2.01,2.01,0,.39-1.86,1.46-2.01,2.01-.17.61-.16,4.36,0,4.52.19.19,1.8-.19,2.01,0,.57.52-1.84,1.94-2.01,2.51-.51,1.78-.57,4.47-1,6.03-.14.51-1.62,1.32-2.01,2.01-.26.47.18,1.29,0,1.51-.14.17-.83-.16-1,0,.18-.18.23-2.43-.5-2.01-2.9,1.69-.53,3.04.5,2.01ZM98.93,39.3c-.65,0-.65,1,0,1s.65-1,0-1ZM36.16,44.32c.1-.12.1-2.9,0-3.01-1.32-1.58-1.32,4.59,0,3.01ZM8.03,47.34c.2-.24-.16-1.74,0-2.51.08-.4,1-.67,1-1,0-1.15-4.17-3.21-3.01,1,.1.38.83.58,1,1,.08.21.09,2.6,1,1.51ZM111.98,42.32c-.65,0-.65,1,0,1s.65-1,0-1ZM171.74,44.32c.64-.77-.33-2.82-1-2.01-.64.77.33,2.82,1,2.01ZM158.69,46.33c.64-.77-.33-2.82-1-2.01-.64.77.33,2.82,1,2.01ZM106.46,45.33c-2.03-1.67-1.77.97-2.01,1.51-.19.44-1.49,1.11-1,1.51,2.03,1.67,1.77-.97,2.01-1.51.19-.44,1.49-1.11,1-1.51ZM163.71,45.33c-.69-.7-2.81,1.46-4.02,1,.73,1.92-.83,2.93-1,3.52-.18.63.19,1.41,0,2.01-.16.48-1.37.69-1,2.01.15.55,1.86,1.46,2.01,2.01.44,1.59-.94,5.75,1.51,6.53,1.23.39,3.39-1.5,1.51-2.51-1.15-3.42,3.08-8.4-1-7.53.23-1.29-1.88-4.12-1-5.02.73-.75,2.78,1.27,3.01,1,.1-.11.11-2.91,0-3.01ZM168.73,54.37c.79-.06,3.01-2.31,3.01-2.51,0-.32-.87-.58-1-1-.52-1.62.26-3.82-3.01-3.52l1,7.03ZM10.55,49.35c-.65,0-.65,1,0,1s.65-1,0-1ZM62.27,53.36c.68.68,3.46-.9,3.01-2.51-.94-3.4-4.48,1.04-3.01,2.51ZM19.08,53.36l-2.01-2.01c-.26,2.12-.11,2.27,2.01,2.01ZM48.21,66.42c.52.56,2.78-.67,3.01-1.51.18-.63-.19-1.41,0-2.01.13-.42.94-.64,1-1,.2-1.14.18-3.83,0-5.02-.05-.37-.91-.61-1-1-.34-1.46.65-3.5-1.51-4.52-2.32-1.1-.96,3.02-2.51,3.52-.44,1.96.92,5.47,2.01,7.03-1.27.53-1.29,4.21-1,4.52ZM174.76,53.36c.64-.77-.33-2.82-1-2.01-.64.77.33,2.82,1,2.01ZM10.04,55.37c1.03-1.03-.32-3.4-2.01-.5-.42.73,1.82.69,2.01.5ZM168.73,55.37c-2.12-.26-2.27-.11-2.01,2.01l2.01-2.01ZM170.74,57.38c-1.42-1.42-3.52,1.25-.5,3.01.77.45.65-2.86.5-3.01ZM13.06,60.39c.64-.77-.33-2.82-1-2.01-.64.77.33,2.82,1,2.01ZM7.53,59.39c-.65,0-.65,1,0,1s.65-1,0-1ZM167.72,64.41c.64-.77-.33-2.82-1-2.01-.64.77.33,2.82,1,2.01ZM171.74,68.43l-1.51-6.03c-2.18,1.57-.83,1.63-.5,3.52.32,1.83-1,2.96,2.01,2.51ZM127.05,64.41c-.65,0-.65,1,0,1s.65-1,0-1ZM15.07,65.42c-.77-.64-2.82.33-2.01,1,.77.64,2.82-.33,2.01-1ZM18.08,68.43c.64-.77-.33-2.82-1-2.01-.64.77.33,2.82,1,2.01ZM167.22,66.42c-.65,0-.65,1,0,1s.65-1,0-1ZM13.56,68.43c-.65,0-.65,1,0,1s.65-1,0-1ZM6.53,69.43c-.65,0-.65,1,0,1s.65-1,0-1ZM18.08,72.45c.81-1.01-1.59-3.54-2.01-3.01-.81,1.01,1.59,3.54,2.01,3.01ZM5.02,71.44c-.95,1.13,2.01,3.95,2.01,2.51,0-.32-.85-.57-1-1-.1-.28-.1-2.59-1-1.51ZM174.25,71.44c-.65,0-.65,1,0,1s.65-1,0-1ZM101.44,76.46c.83-.83-1.54-3.59-2.01-3.01-.87,1.08.37,4.65,2.01,3.01ZM173.75,75.46c-.07-.07-1.94-.07-2.01,0-.2.2-.48,4.88,1,4.02-.46-1.2,1.71-3.33,1-4.02ZM49.21,87.51c.25-.31-.17-2.54,0-3.52.04-.24,1.86-1.51.5-1.51-.18,0-2.46,2.34-2.51,2.51-.36,1.31,1.73,2.86,2.01,2.51ZM127.05,82.49c-.65,0-.65,1,0,1s.65-1,0-1ZM17.07,85.5c.64-.77-.33-2.82-1-2.01-.64.77.33,2.82,1,2.01ZM8.03,87.51c.29.36,3.31-1.37.5-3.01-.75-.44-.69,2.77-.5,3.01ZM16.07,89.52l-2.01-2.01c-.26,2.12-.11,2.27,2.01,2.01ZM76.33,87.51l-3.01,2.51c.7,1.58-.95,2.72-1,3.01-.41,2.28.11,8.75,2.51,9.54s2.91-3.83,2.51-5.52c-.46-1.97-.75-3.49-1-5.02-.23-1.37.15-3.07,0-4.52ZM8.03,92.53c.64-.77-.33-2.82-1-2.01-.64.77.33,2.82,1,2.01ZM15.07,93.54c.19-.24.25-3.45-.5-3.01-2.81,1.64.21,3.37.5,3.01ZM21.09,91.53c-1.42-1.42-3.52,1.25-.5,3.01.77.45.65-2.86.5-3.01ZM104.45,94.54c-.14-.14-3.88-.14-4.02,0-.2.2-.13,4.56,0,5.52.05.37.97.64,1,1,.19,2.01.31,6.17,0,8.03-.06.38-1,.67-1,1s2.06,1.84,2.51,2.51c1.12-.4.29-2.46.5-3.52.08-.39.96-.64,1-1,.21-1.7.48-13.08,0-13.56ZM11.05,95.55c-.59-.59-3.01.89-3.01,1.51,0,.11,1.4,1.51,1.51,1.51.62,0,2.09-2.43,1.51-3.01ZM18.58,95.55c-.65,0-.65,1,0,1s.65-1,0-1ZM22.1,100.57c.16-.19.16-4.83,0-5.02-1.42-1.7-1.42,6.72,0,5.02ZM38.67,95.55c-.65,0-.65,1,0,1s.65-1,0-1ZM15.07,96.55l-4.02,5.52c-1.02,3.48,2.8,3.3,3.01,3.52.29.29.27,5.19-1,5.52l1,4.52c1.75.23.98-2.29,1-3.52.09-4.21-1.29-7.66-1-11.05.17-1.94.82-2.8,1-4.52ZM18.08,100.57c.19-.24.25-3.45-.5-3.01-2.81,1.64.21,3.37.5,3.01ZM154.17,98.56c-.65,0-.65,1,0,1s.65-1,0-1ZM86.37,101.57c.64-.77-.33-2.82-1-2.01-.64.77.33,2.82,1,2.01ZM84.36,104.58c-2.29,1.17-4.17-5.08-5.02-4.02-.13.16-.37,3.7.5,4.02.35.13.79-.12,1,0,1.6.91,1.85,3.62,3.52,0ZM24.1,105.59c.1-.12.1-2.9,0-3.01-1.32-1.58-1.32,4.59,0,3.01ZM22.1,103.58c-.07-.07-1.92-.07-2.01,0-.5.41.91,1.14,1,1.51.16.62-.08,3.81,1,2.51.13-.15.14-3.88,0-4.02ZM171.74,109.61c.1-.12.1-2.9,0-3.01-1.32-1.58-1.32,4.59,0,3.01ZM21.09,110.61c-.77-.64-2.82.33-2.01,1,.77.64,2.82-.33,2.01-1ZM165.72,112.62c.64-.77-.33-2.82-1-2.01-.64.77.33,2.82,1,2.01ZM168.23,110.61c-.65,0-.65,1,0,1s.65-1,0-1ZM172.24,110.61c-.65,0-.65,1,0,1s.65-1,0-1ZM92.4,113.62c.64-.77-.33-2.82-1-2.01-.64.77.33,2.82,1,2.01ZM4.52,112.62c-.65,0-.65,1,0,1s.65-1,0-1ZM25.61,112.62l-3.52,1.51.5,3.52,3.01-5.02ZM19.08,113.62c-3.95-.4-1.16,1.75-1,2.51.37,1.84.29,4.35-1.51,5.52l-2.51-4.02,1,4.52v5.52c1.49.39,1.16-3.02,2.51-3.01.34,0,.67,1,1,1,.11,0,1.51-1.4,1.51-1.51,0-.22-1.6-1.46-1-4.02.09-.38.88-.6,1-1,.56-1.8-1.64-3.35-1-5.52ZM5.02,117.64c.64-.77-.33-2.82-1-2.01-.64.77.33,2.82,1,2.01ZM95.41,117.64c.64-.77-.33-2.82-1-2.01-.64.77.33,2.82,1,2.01ZM163.71,117.64c.32-.39,2.01,1.82,2.01.5,0-.2-2.22-2.45-3.01-2.51.18.99-.27,3.69,0,4.02,1.05,1.26.91-1.89,1-2.01ZM169.73,115.63c-1.03-1.03-3.4.32-.5,2.01.73.42.69-1.82.5-2.01ZM96.42,121.66c.83-.83-1.54-3.59-2.01-3.01-.87,1.08.37,4.65,2.01,3.01ZM7.03,124.67c.1-.12.1-2.9,0-3.01-1.32-1.58-1.32,4.59,0,3.01ZM27.12,123.67c-1.28-1.28-4.94,2.65-1.51,4.02,2.3.92,1.7-3.82,1.51-4.02ZM37.66,124.67c-.65,0-.65,1,0,1s.65-1,0-1ZM143.12,125.68c-1.42,0,1.51,2.93,1.51,1.51,0-.11-1.4-1.51-1.51-1.51ZM46.2,126.68c-.81.12-2.82-.19-3.01,0-.11.11-.11,2.91,0,3.01.19.19,1.74-.2,2.01,0s-.86,2.99,2.01,2.01l-1-5.02ZM174.76,126.68c-1.03-1.03-3.4.32-.5,2.01.73.42.69-1.82.5-2.01ZM18.58,127.68c-.65,0-.65,1,0,1s.65-1,0-1ZM38.16,129.69c.64-.77-.33-2.82-1-2.01-.64.77.33,2.82,1,2.01ZM146.63,128.69c-1.03-1.03-3.4.32-.5,2.01.73.42.69-1.82.5-2.01ZM17.07,131.7c.64-.77-.33-2.82-1-2.01-.64.77.33,2.82,1,2.01ZM42.68,130.7c-.65,0-.65,1,0,1s.65-1,0-1ZM95.91,135.72c-.65,0-.65,1,0,1s.65-1,0-1ZM169.23,137.73c-.65,0-.65,1,0,1s.65-1,0-1ZM60.26,138.73c-.77-.64-2.82.33-2.01,1,.77.64,2.82-.33,2.01-1ZM87.88,139.74c-.65,0-.65,1,0,1s.65-1,0-1ZM96.42,143.75c.42.53,2.82-2,2.01-3.01-.42-.53-2.82,2-2.01,3.01ZM143.62,140.74c-2.06-2.43-2.32,3.16-2.01,4.52.09.38.88.6,1,1,.4,1.36-2.11,1.88.5,3.52.94-1.42,3.93-3.26,4.52-4.52,1.05-2.23-2.4-1.37-3.52-1.51-1.17-.15-.13-2.58-.5-3.01ZM47.2,155.81c3.52-1.36,1.53-6.2,2.01-9.04l-2.01,3.52v5.52ZM141.61,155.81c1.38,1.5,5.5-3.85,4.02-6.03-1.61.42-5.37,4.56-4.02,6.03ZM77.84,157.81c-1.42,0,1.51,2.93,1.51,1.51,0-.11-1.4-1.51-1.51-1.51ZM146.63,162.84c.64-.77-.33-2.82-1-2.01-.64.77.33,2.82,1,2.01ZM94.41,161.83c-2.67-2.67-2.67,5.69,0,3.01.11-.11.11-2.91,0-3.01ZM115,175.89c-.65,0-.65,1,0,1s.65-1,0-1ZM114.49,181.92c.64-.77-.33-2.82-1-2.01-.64.77.33,2.82,1,2.01Z"/>
      <path d="M131.57,36.29c.23,1.37-2.56,6.48-2.01,7.03s4.05-1.36,4.52-2.01l2.51,1c-.76,1.83.87,2.96,1,3.52.23.93-2.01,4.73-2.01,5.02,0,1.03.84.41,0,4.02-.37,1.58.71,3.22-1.51,4.52-3.32.46-.27-2.82-.5-3.01s-1.82.19-2.01,0c-.25-.25.69-2.44-1-3.52-1.17-.74-1.52,1.01-2.01.5-1.07-1.1,2.01-3.29,2.01-3.52,0-.17-1.59-1.01-1-3.01.08-.27,1.83-1.53,1-2.51-.48-.56-2.17,2.01-2.51,2.01-1.37,0-3.52-4.85-2.51-6.03.41-.48,1.22,1.38,2.51,1,2.81-.81-.27-5.94,3.52-5.02ZM128.05,43.32c-.65,0-.65,1,0,1s.65-1,0-1ZM133.58,55.37c.1-.12.1-2.9,0-3.01-1.32-1.58-1.32,4.59,0,3.01Z"/>
      <path d="M9.04,144.76c.77.76-1.36,2.38-.5,3.01l2.51-.5c-.37,2.35.63,1.12,1.51,1.51.38.17.59.78,1,1,.49.27.59-4.09,2.51-2.01,1.07,1.16-3.04,3.8-2.01,5.02.39.46,1.62-1.47,2.01-1,.13.15.14,3.88,0,4.02-.26.26-2.69-.27-3.01,0-.5.41.9,1.13,1,1.51.36,1.33-.91,1.61-1,2.01-.26,1.17.3,2.94,0,4.02-.05.17-2.33,2.51-2.51,2.51-.25,0-1.07-1.49-1.51-1-.23.25.6,3.74-2.01,4.02.22-1.24-.32-5.7,0-6.03.68-.69,3.31,1.69,4.02,1,.85-.82-1.01-2.38-1-2.51.01-.35.94-.62,1-1,.41-2.48-1.44-6.35,2.01-5.52.35-2.08-3.51-.5-4.02-1-.34-.34,1-5.73-3.01-5.02-.64,1.97,1.02,3.08,1,4.52-.02,1.75-1.31,2.78-3.01,2.51l1-7.53c1.86-.7-.76-2.79,0-3.52.15-.14,3.87-.14,4.02,0Z"/>
      <path d="M12.05,175.89c-.15.16-3.92-.25-4.02,1.51-.05.92,1.92,1.75,3.01.5.39,3.85-.11,2.43-1.51,3.01-.55.23-.73,1.38-2.01,1-1.35-.4-2.86-4.54-6.53-3.01l2.01-3.01-3.01.5v-4.52c1.75.79,3.33-1.02,3.52-1,1.49.1,1.59,5.07,3.01,5.02,1.08-.04,3.48-6.65,5.52-7.03-.79,1.75,1.02,3.33,1,3.52-.02.35-.92.61-1,1-.16.77.19,2.31,0,2.51ZM1.51,172.88c-.65,0-.65,1,0,1s.65-1,0-1ZM7.03,178.91c.64-.77-.33-2.82-1-2.01-.64.77.33,2.82,1,2.01Z"/>
      <path d="M131.57,162.84l-4.02,1,4.02-4.52c-.64-4.12-1.06.79-1.51.5-3.06-2-.44-3.76-.5-6.53.45-.6,2.01-2.83,2.01-3.01,0-.21-1.72-1.85-2.01-1.51-.42.5.99,3.33-1,3.01-.4-2.54.42-6.24,2.51-4.02.74-1.6,3.28-.76,3.52-1,1.25-1.28-2.69-4.63.5-4.02l1.51,3.52c-.45.57-1.95,2.76-2.01,3.01-.31,1.45.39,6.08,0,6.53-.45.52-1.39-1.67-2.01-.5,1.9,1.31.21,1.24,0,2.01-.29,1.04,1.77,2.75,1,3.52-.47.47-2.28-1.4-2.01,2.01,2.62-2.99,2.57,2.32,2.01,3.01-.68.85-1.91-1.82-2.01-3.01Z"/>
      <path d="M71.31,158.82l-4.02,4.52c.93,1.98-1,4.75-1,5.02,0,.21,1.56.99,1,2.51l-4.02,1,1,1.51-3.01,2.51c.27-1.65-.39-4.1,0-5.52.11-.39,1.74-1.81,2.01-1.51.31.35-.8,2.39,1,2.01-.79-2.21,3.24-6.81,2.01-8.03-.19-.19-1.82.19-2.01,0-.14-.14-.14-3.88,0-4.02.19-.19,1.03.26,1.51,0,.66-.37,1.66-2,2.01-2.01.48,0,1.72,2.75,3.52,2.01Z"/>
      <path d="M159.69,168.86l-5.02,1c-.98-2.87,1.81-1.75,2.01-2.01s.15-5.68,0-6.53c-.07-.37-.88-.59-1-1-.47-1.55.34-2.61,1.51-3.52,1.83-1.42,3.38-.88,3.52-1,.29-.27-.79-2.41,1-2.01.38,1.66-1.01,1.97-1,3.52,0,1.59,1.35,1.83,1,3.01-.16.56-1.86,1.46-2.01,2.01-.38,1.37.41,6.12,0,6.53Z"/>
      <path d="M152.66,129.69c.41,1.91-1.71,2.16-.5,4.02.95,1.47,2.39.89,2.51,1,.44.44-1.48,3.42-1,5.52.17.74,3.88,4.44.5,5.52-1.26.4-3.39-1.64-2.01-3.01,1.07-1.07-1.51-1.9-1.51-2.51,0-.26,1.37-.7,1-2.01-.64-2.33-.75-3.76-1-6.03-.23-2.08-.47-2.92,2.01-2.51Z"/>
      <path d="M175.76,167.86c-.13.13-2.32-.24-3.01,1.51-.89,2.22,1.82,1.31,2.01,1.51.21.21-.21,1.79,0,2.51.23.78,2.44,1.46,2.01,3.01-.15.55-1.83,1.44-2.01,2.01-.38,1.23.41,3.02-2.01,3.52l-.5-4.02c1.71-2.49-.17-5.72-.5-7.53-.29-1.58-.29-4.2,1-5.02,1.17-.74,1.54,1.02,2.01.5,1.06-1.15-3.06-3.87-2.01-5.02.27-.29,2.17,1.76,3.01,1,.13-.12-.05-2.98,2.01-3.01l-1,5.52c-1.57.66-.76,3.27-1,3.52Z"/>
      <path d="M133.58,135.72l.5,4.02c-1.13,1.06-1.64,5.97-3.01,6.03-1.51.07-1.79-4.38-1.51-5.52l4.02-4.52ZM132.07,139.74c-.65,0-.65,1,0,1s.65-1,0-1Z"/>
      <path d="M139.6,17.21c-.18.18.43,1.56-.5,2.01l.5,4.02c-3.95-1.52-.56-6.86-3.01-10.04l4.02,3.01-.5-3.01,1.51-3.01c-.12,1.81-.06,3.25.5,5.02.09.29.5.43.5.5-.04,1.36-2.88,1.38-3.01,1.51Z"/>
      <path d="M163.71,169.87c-.39,1.66,1.03,1.98,1,3.52s-.89,1.62-1,2.01c-.3,1.05,1.77,2.71,1,3.52-.68.72-2.4-.72-3.01-1.51-1.33-1.7-.61-2.8-2.01-4.02l3.01.5,1-4.02Z"/>
      <path d="M19.08,167.86c-.73,1.47,1.6,4.4,1,5.02-.81.85-2.38-1.01-2.51-1-1.4.06-1,3.39-2.51,3.01-.06-3.8-.96-7.65,4.02-7.03Z"/>
      <path d="M4.02,156.81c.62,1.59-1.06,3.15-.5,4.02,1.25,1.95,1.59,0,2.01,0,1.36,0-.46,1.27-.5,1.51-.28,1.67.19,3.77,0,5.52l-2.01-3.52c.07-1.99-.87-2.86-1-5.02s-.55-2.91,2.01-2.51Z"/>
      <path d="M171.74,171.88l-5.02,5.02c-.22-2.34-.17-4.16,2.01-5.52,1.08-.68,1.41.98,3.01.5Z"/>
      <path d="M32.14,138.73c.22.19-1.72,2.32-1,3.52l-2.01,2.51c.63-1.54-1.88-5.16-1-6.03.14-.14,3.87-.13,4.02,0Z"/>
      <path d="M124.54,18.21c-.14-.15-.14-3.88,0-4.02.13-.13.91.1,1.51,0,1.16-.2-.14-2.02,1-2.01,1.34,1.23,1.74,1.14,1,3.01-.41,1.03-2.25,4.4-3.52,3.01Z"/>
      <polygon points="171.74 156.81 171.74 161.33 168.73 164.84 169.23 160.83 168.73 159.32 171.74 156.81"/>
      <path d="M143.62,97.55c.18.18-.23.97,0,1.51s1.36.71,1,2.01c-.64,2.31-2.02.68-2.51.5-.57-.2-1.34.17-1.51,0-1.24-1.24,1.67-5.36,3.01-4.02Z"/>
      <path d="M130.56,171.88l-.5,6.03-3.52-4.02c3.4.88.55-2.77,4.02-2.01Z"/>
      <polygon points="133.58 24.24 131.57 21.73 134.08 18.21 133.58 24.24"/>
      <path d="M110.48,171.88c-1.16,1.37-1.93.12-2.01-1.51-.11-2.12-.52-4.13,1.51-5.52l.5,7.03Z"/>
      <path d="M102.44,171.88c-.16-.17,1.84-3.02,1-4.52l2.01-2.51v4.52c.44,1.61-2.37,3.21-3.01,2.51Z"/>
      <path d="M147.64,175.89l-4.02-4.02c1.44.72,3.88-1.16,4.02-1,.31.36-.21,3.88,0,5.02Z"/>
      <path d="M156.68,1.14c.1.11.1,2.9,0,3.01-1.52,1.81-1.76-.26-2.01-1.51s-1.89,1.19-3.01.5l5.02-2.01Z"/>
      <path d="M169.73,177.9l-.5,3.01c.98,1.4-2.06,2.53-2.51,2.01-.83-.95.93-2.24,1-2.51.46-1.54-1.15-3.03,2.01-2.51Z"/>
      <polygon points="178.77 23.23 180.78 26.75 178.27 30.26 178.77 23.23"/>
      <path d="M163.71,133.71l4.52-5.02c.58,1.02-.99,1.85-.5,3.52.1.33,1.86,1.51.5,1.51-.33,0-.59-.88-1-1-1.26-.36-1.88,1.52-3.52,1Z"/>
      <path d="M152.66,182.92c-.19-.23-.24-5.46.5-5.02,3.46,2.02.09,5.76-.5,5.02Z"/>
      <path d="M118.51,146.77c.16.16.26,4.46-.5,4.02-3-1.75-1.24-5.76.5-4.02Z"/>
      <path d="M127.55,165.85c1.05,1.05-1.36,4.82-2.01,4.02-.71-.88,0-6.03,2.01-4.02Z"/>
      <path d="M162.7,13.19c.7.69-1.46,2.81-1,4.02-1.49.86-1.2-3.82-1-4.02.07-.07,1.94-.07,2.01,0Z"/>
      <path d="M9.04,159.82c-.59.74-3.05-2.72-2.01-4.02.59-.74,3.05,2.72,2.01,4.02Z"/>
      <path d="M140.61,59.39c-.83-1.03.92-2.23,1-2.51.16-.57-.09-3.82,1-2.51s-1.19,6.04-2.01,5.02Z"/>
      <path d="M15.07,178.91c-1.42,1.42-3.52-1.25-.5-3.01.77-.45.65,2.86.5,3.01Z"/>
      <path d="M62.27,177.9c.83.83-1.54,3.59-2.01,3.01-.87-1.08.37-4.65,2.01-3.01Z"/>
      <path d="M69.3,173.88c.83.83-1.54,3.59-2.01,3.01-.87-1.08.37-4.65,2.01-3.01Z"/>
      <path d="M20.09,159.82c-1.07,1.24-2.01-3.56,1-4.02l-1,4.02Z"/>
      <path d="M122.53,10.18c.07.07.07,1.92,0,2.01-.41.5-1.25-1-1.51-1s-1.1,1.5-1.51,1c-1.59-1.94,2.28-2.74,3.01-2.01Z"/>
      <path d="M177.77,13.19c-2.14,2.14-1.82-1.62-2.01-2.51-.05-.26-1.86-1.51-.5-1.51.45,0,3.33,3.2,2.51,4.02Z"/>
      <path d="M158.69,180.91c1.1,1.1-.91,3.11-2.01,2.01s.91-3.11,2.01-2.01Z"/>
      <path d="M151.66,175.89c-.19-.24-.25-3.45.5-3.01,2.81,1.64-.21,3.37-.5,3.01Z"/>
      <path d="M169.73,168.86c-.29.36-3.31-1.37-.5-3.01.75-.44.69,2.77.5,3.01Z"/>
      <path d="M126.55,155.81c.53.42-2,2.82-3.01,2.01-.53-.42,2-2.82,3.01-2.01Z"/>
      <path d="M178.77,147.77c1.1,1.1-.91,3.11-2.01,2.01s.91-3.11,2.01-2.01Z"/>
      <path d="M174.76,136.72c1.1,1.1-.91,3.11-2.01,2.01s.91-3.11,2.01-2.01Z"/>
      <path d="M131.57,129.69c1.1,1.1-.91,3.11-2.01,2.01s.91-3.11,2.01-2.01Z"/>
      <path d="M123.53,176.9c1.1,1.1-.91,3.11-2.01,2.01s.91-3.11,2.01-2.01Z"/>
      <path d="M134.58,2.14l-2.01,2.01c-.26-2.12-.11-2.27,2.01-2.01Z"/>
      <path d="M160.69,1.14l-2.01,2.01c-.26-2.12-.11-2.27,2.01-2.01Z"/>
      <path d="M177.77,144.76l-2.01,2.01c-.26-2.12-.11-2.27,2.01-2.01Z"/>
      <path d="M3.01,146.77c.18.18.23,2.43-.5,2.01-2.9-1.69-.53-3.04.5-2.01Z"/>
      <path d="M122.53,147.77l-2.01,2.01c-.26-2.12-.11-2.27,2.01-2.01Z"/>
      <path d="M103.45,162.84c-2.12.26-2.27.11-2.01-2.01l2.01,2.01Z"/>
      <path d="M63.27,164.84c-.18.18-2.43.23-2.01-.5,1.69-2.9,3.04-.53,2.01.5Z"/>
      <path d="M177.77,169.87l-2.01,2.01c-.26-2.12-.11-2.27,2.01-2.01Z"/>
      <path d="M137.59,180.91c-2.12.26-2.27.11-2.01-2.01l2.01,2.01Z"/>
      <path d="M134.58,182.92c-.67.81-1.64-1.24-1-2.01.67-.81,1.64,1.24,1,2.01Z"/>
      <path d="M149.65,182.92c-.67.81-1.64-1.24-1-2.01.67-.81,1.64,1.24,1,2.01Z"/>
      <path d="M162.7,183.93c-.67.81-1.64-1.24-1-2.01.67-.81,1.64,1.24,1,2.01Z"/>
      <path d="M140.61,40.31c-.67.81-1.64-1.24-1-2.01.67-.81,1.64,1.24,1,2.01Z"/>
      <path d="M18.08,176.9c-1.2,1.44-1.29-3.01.5-3.01,1.35,0-.37,1.14-.5,1.51-.2.57.16,1.31,0,1.51Z"/>
      <path d="M22.1,174.89c-.67.81-1.64-1.24-1-2.01.67-.81,1.64,1.24,1,2.01Z"/>
      <path d="M77.33,171.88c-.67.81-1.64-1.24-1-2.01.67-.81,1.64,1.24,1,2.01Z"/>
      <path d="M161.7,165.85c-1.08-.9,1.23-.91,1.51-1,.43-.15.68-1,1-1,1.43,0-1.38,2.96-2.51,2.01Z"/>
      <path d="M169.73,151.79c-.67.81-1.64-1.24-1-2.01.67-.81,1.64,1.24,1,2.01Z"/>
      <path d="M138.6,151.79c-.67.81-1.64-1.24-1-2.01.67-.81,1.64,1.24,1,2.01Z"/>
      <path d="M176.76,141.74c-.67.81-1.64-1.24-1-2.01.67-.81,1.64,1.24,1,2.01Z"/>
      <path d="M13.06,141.74c-1.2,1.44-1.29-3.01.5-3.01,1.35,0-.37,1.14-.5,1.51-.2.57.16,1.31,0,1.51Z"/>
      <path d="M51.22,140.74c-.67.81-1.64-1.24-1-2.01.67-.81,1.64,1.24,1,2.01Z"/>
      <path d="M10.04,139.74c-.67.81-1.64-1.24-1-2.01.67-.81,1.64,1.24,1,2.01Z"/>
      <path d="M140.61,5.15c-.11.13-.67-.08-1,0,.27-1.69-2.47-4.07,0-4.02-.49,1.24,1.71,3.19,1,4.02Z"/>
      <path d="M146.63,17.21c-.67.81-1.64-1.24-1-2.01.67-.81,1.64,1.24,1,2.01Z"/>
      <path d="M159.69,6.16c-.67.81-1.64-1.24-1-2.01.67-.81,1.64,1.24,1,2.01Z"/>
      <path d="M137.09,4.15c.65,0,.65,1,0,1s-.65-1,0-1Z"/>
      <path d="M177.27,15.2c.65,0,.65,1,0,1s-.65-1,0-1Z"/>
      <path d="M137.09,133.71c1.42,0-1.51,2.93-1.51,1.51,0-.11,1.4-1.51,1.51-1.51Z"/>
      <path d="M163.21,91.53c.65,0,.65,1,0,1s-.65-1,0-1Z"/>
      <path d="M174.25,133.71c.65,0,.65,1,0,1s-.65-1,0-1Z"/>
      <path d="M148.14,88.51c.65,0,.65,1,0,1s-.65-1,0-1Z"/>
      <path d="M91.9,176.9c.65,0,.65,1,0,1s-.65-1,0-1Z"/>
      <path d="M156.17,135.72c.65,0,.65,1,0,1s-.65-1,0-1Z"/>
      <path d="M5.52,136.72c.65,0,.65,1,0,1s-.65-1,0-1Z"/>
      <path d="M159.19,83.49c.65,0,.65,1,0,1s-.65-1,0-1Z"/>
      <path d="M136.09,22.23c.65,0,.65,1,0,1s-.65-1,0-1Z"/>
      <path d="M126.04,149.78c.65,0,.65,1,0,1s-.65-1,0-1Z"/>
      <path d="M128.05,25.24c.65,0,.65,1,0,1s-.65-1,0-1Z"/>
      <path d="M151.15,59.39c.65,0,.65,1,0,1s-.65-1,0-1Z"/>
      <path d="M8.54,160.83c.65,0,.65,1,0,1s-.65-1,0-1Z"/>
      <path d="M109.98,161.83c.65,0,.65,1,0,1s-.65-1,0-1Z"/>
      <path d="M17.58,163.84c.65,0,.65,1,0,1s-.65-1,0-1Z"/>
      <path d="M26.11,141.74c.1.12.16,2.16,1,3.01-2.24-1.31-2.65,2.37-2.01,3.01.19.19,1.82-.19,2.01,0,.3.3,1.93,7.02,2.01,7.53.24,1.66-.34,8.19,0,8.54.19.19,1.82-.19,2.01,0,.29.29-.24,3.41,0,4.52.27,1.24,4.52,5.03,0,4.52l-2.01-4.02,1,5.52c2.1,1.54-.83,3.8,0,6.53-1.83.28-.71-1.51-1-2.51-.5-1.65-2.9-1.38-3.01-1.51-.14-.15-.13-3.86,0-4.02.39-.46,1.62,1.47,2.01,1,1.9-2.25-1.87-1.87-2.01-2.01-.18-.18-.63-3.87-2.01-4.52-.05-1.05,1.77-.27,2.01-.5.82-.79-.98-2.38-1-2.51-.8-3.64,1.74-4.03,2.01-5.02.63-2.3.13-5.75-2.01-7.03v-3.52l-2.01,3.52c1.87,1.98,2.59,5.42,2.01,8.03-.08.36-.81.57-1,1-.14.31.13.79,0,1-.28.47-2.23,2.82-3.01,2.01l2.01-5.02c-.56-3.12-1.76-7.56-1-11.05.08-.35,1.91-2.61,2.01-3.01.13-.49-.3-6.15,2.01-3.52ZM28.12,168.86c1.03-1.03-.32-3.4-2.01-.5-.42.73,1.82.69,2.01.5Z"/>
      <path d="M136.09,28.25c.65,0,.65,1,0,1s-.65-1,0-1Z"/>
      <path d="M142.11,28.25c.65,0,.65,1,0,1s-.65-1,0-1Z"/>
      <path d="M100.94,168.86c.65,0,.65,1,0,1s-.65-1,0-1Z"/>
      <path d="M70.81,171.88c.11,0,1.51,1.4,1.51,1.51,0,1.42-2.93-1.51-1.51-1.51Z"/>
      <path d="M81.85,172.88c.65,0,.65,1,0,1s-.65-1,0-1Z"/>
      <path d="M145.13,40.31c.65,0,.65,1,0,1s-.65-1,0-1Z"/>
      <path d="M124.04,181.92c.65,0,.65,1,0,1s-.65-1,0-1Z"/>
      <path d="M165.21,179.91c.65,0,.65,1,0,1s-.65-1,0-1Z"/>
      <path d="M171.24,175.89c.65,0,.65,1,0,1s-.65-1,0-1Z"/>
      <path d="M157.18,176.9c.65,0,.65,1,0,1s-.65-1,0-1Z"/>
      <path d="M104.95,176.9c.65,0,.65,1,0,1s-.65-1,0-1Z"/>
      <path d="M19.08,78.47c-.71-.86,1.49-2.76,1-4.02,2.83-.12-.27,4.91-1,4.02Z"/>
      <path d="M53.73,111.61c.65,0,.65,1,0,1s-.65-1,0-1Z"/>
      <path d="M89.89,26.25c.65,0,.65,1,0,1s-.65-1,0-1Z"/>
    </g>
  </g>
</svg>