<?xml version="1.0" encoding="UTF-8"?>
<svg id="Layer_2" data-name="Layer 2" xmlns="http://www.w3.org/2000/svg" viewBox="0 0 159.43 175">
  <g id="Elements">
    <g id="Element">
      <path d="M157.25,134c.14.16.86-.16,1,0,.13.15.14,3.86,0,4-.72.75-2.77-1.27-3-1-1.74,2.02,1.16,1.81,1.5,2,2.55,1.42.51,2.29.5,2.5,0,.13,1.84,1.68,1,2.5-.24.23-2.05-.55-2,.5,3.04,3.14-.75,2.25-1,2.5-1.09,1.09,1.57,2.72,2,3.5.26.47-.19,1.31,0,1.5s1.81-.19,2,0c.14.14.14,3.86,0,4-.72.75-2.77-1.27-3-1s.21,1.77,0,2.5c-.14.47-3.15,2.48-2,3.5.53.47,6.25-1.16,5,1.5-.31.67-1.84,1.46-2,2-.21.72.21,2.29,0,2.5-.17.17-.96-.22-1.5,0-.43.18-.65.94-1,1-3.23.57-7.73-.54-11,0-.35.06-1.08,2.04-2.5-.5-.26-.47.19-1.31,0-1.5-.36-.36-6.54.26-8,0l2,4-4.5,1c-1.29-.66-4.63-3.75-5.5-3-.13.11,1.87,2.4-.5,3-.99.25-6.94.24-8,0-.38-.09-.6-.89-1-1-1.32-.36-1.6.91-2,1-1.72.39-6.53.58-5.5-1.5l-2.5.5.5-2c-2.86-.98-1.74,1.8-2,2-.22.17-.97-.22-1.5,0-.67.28-1.09,1.58-3,1-4.57-1.39-7.31.19-8,0-5.81-1.6-13.46.18-21-1-1.38-.22-3.05.14-4.5,0,1.06-1.92,3.32-4.63,5.5-4,.19.06,1.73,1.82,2.5,1,.22-.24.18-5.68,0-6.5-.09-.4-1.36-.68-1-2,.05-.17,2.13-2.3,2.5-2.5.47-.26,1.31.19,1.5,0,.48-.48-1.47-2.98,4-2-.24-2.65,1.5-5.25,3-7.5-1.23-.98-2.28-2.64-3.5-3.5-1.83-1.29-2.09.15-2.5-3.5-.11-.94-1.93-.17-2.5-1.5l-1,4c-.48-.04-2.14-2.54-3-3-.54-.28-.48,3.97-2.5,2-.54-.53,1.85-1.97,2-2.5.61-2.21-1.31-6.15-1-6.5.24-.27,2.24,1.75,3,1,.17-.17-.47-3.22,1.5-4l-.5,5.5c1.55,1.19,2.97,3.49,4.5,4.5.2.13,3.78,1.95,4,2,4.82,1.1,3.2-1.7,3.5-2,.19-.19,1.03.27,1.5,0,3.01-1.71.5-3.27.5-3.5,0-.25,3.25-3.48,3.5-3.5.18-.01,1.75,1.78,3.5,1-.47,2.12-2.93,1.83-4,3.5-.17.27-.46,1.82-1,2.5,2.72-.57,4.87,2.04,6.5,4,.53.63,2.38,2.17,1.5,3-1.14,1.08-3.32-1.01-3.5-1-.29.02-.69,1.36-2,1-1.57-.43-1.27-2.81-2-4-.68-1.12-3.08-1.38-3.5-1-1.14,1.05,1.88,3.04,2,3.5.35,1.31-1,1.75-1,2,0,1.34,1.21-.42,1.5-.5,1.3-.36,1.44.77,2,1s1.32-.18,1.5,0c.37.37-.94,5.19,1.5,6,2.28.76,2.36-2.86,2.5-3,.78-.77,4.24,6.46,6,.5.87-2.96,1.48-.98,2-1.5.17-.17.53-2.99,1-4.5.22-.71-.18-1.29.5-2.5,1.11-1.97,2.03.46,2.5,0,.5-.49.16-2.82-1.5-2-.82.4-1.22,1.8-2.5-.5-.26-.47.18-1.29,0-1.5-.17-.19-3.31,1.9-5,1-.69-3.52,2.9-.61,2-4,1.37.08,2.68,2.78,3.5,3,1.36.37,6.1-.4,6.5,0,.18.18-.24.98,0,1.5.2.45,1.47,1.07,1,1.5-.37.33-3.13-1.28-2,3.5.45,1.9.57,3.09,1,5,1.29,5.78-1.68,4.18-2,4.5-.29.29-1.24,5.45-2,7.5-1.26,3.37-2.29,5.49,2.5,4.5,2.85-.59,1.36-1.11,5,0,1.96.59,2.67-.93,3-1,1.55-.32,4.44.85,3.5-1.5-.18-.44-1-.69-1-1,0-.39,1.84-1.44,2-2,1.23-4.29,3.72-7.36,7.5-10.5.12-.1,2.04-.2,2.5-1.5.75-2.13-.37-3.25-2.5-2.5-1.69.59-1.38,2.89-1.5,3-.4.37-4.54-.38-5,0-.54.44,2.54,2.56,2,3-.22.18-1.04-.26-1.5,0-2,1.15-1.2,5.16-4.5,6-.52-1.63,1.36-2.25,1-3.5-.16-.56-1.85-1.45-2-2-.36-1.32.91-1.6,1-2,.28-1.25-.33-5.17,0-5.5.13-.13,2.55.12,3-1.5,1.28-4.65-3.53-4.39-4-6-.21-.72.21-2.29,0-2.5-.14-.14-4.13.13-2-2,.19-.19,1.03.26,1.5,0,4.77-2.66,1.47-8.04.5-7-.5.54,1.37,3.85-2,3-.19-1.11.29-4.71,0-5-.24-.25-2.83.57-3.5-1-1.55,1.29-.34,2.56,1.5,2l-.5,4c-2.02-1.84-6.48-2.08-5.5-5.5.29-1.01,2.83-1.41,2-5-.09-.41-1.36-.68-1-2,.3-1.07,4.25-2.5,2-4,.51-.96,1.8.59,2,1,1,2.07-1.88,1.38-2,1.5-.32.31,1.28,1.99,1.5,2,.17,0,1.01-1.55,2.5-1-2.9-3.03,1-4.99,1-5.5,0-.22-1.92-3.23-2.5-3.5-1.71-.8-1.3.62-1.5,1.5s-1.9.6-2,.5c-.2-.2.44-5-1.5-5-.33,0-.59.89-1,1-1.11.31-3.62-2.21-1.5.5-1.34.91-1.5,1.66-2,3-.34.92-1.91.59-2,.5-.62-.64,1.69-4.13-3-3l1.5-6c1.13-.01-.16,1.73,1,2,2.46.57,1.21-1.76,1.5-2,1.3-1.09,2.86,1.82,3.5,2,1.31.36,1.53-.86,2-1,2.63-.8,8.73,4.99,11,7,.59-1.01-1.01-1.85-.5-3.5.07-.22,1.68-3.46,2-4,.4-.67,2.51-2.03,2-2.5-.21-.19-1.81.19-2,0-.11-.11-.11-2.89,0-3,.25-.25,2.75.25,3,0,.19-.19-.19-1.81,0-2,.67-.69,3.33,1.69,4,1,.16-.17-.2-4,1.5-4,.33,0,.61.93,1,1,5.04.88,3.1-1.6,3.5-2,.28-.28,3.9.19,5,0,.56,1.46-4.09.8-2,3,.49.52,2.55-2.55,3-2,1.37,1.67-1.48,3.56-2,4.5-.26.47.19,1.31,0,1.5s-1.76-.2-2,0c-.5.41.9,1.13,1,1.5.35,1.3-.77,1.44-1,2s.18,1.32,0,1.5c-.19.19-1.03-.27-1.5,0-1.84,1.04-1.37,2.87-1.5,3-.17.17-.94-.2-1.5,0-.43.16-.67.99-1,1-.13,0-1.58-1.84-2.5-1-.34.31,2.24,2.97,1.5,4-1.02-1.63-2.98-.36-4-2-.73-1.17,1.02-1.55.5-2-.11-.1-2.89-.1-3,0-.84.8,1,2.37,1,2.5,0,.26-1.49,1.09-1,1.5.32.26,2.75-.25,3,0,.19.19-.16,1.73,0,2.5.08.39.99.66,1,1,0,.17-1.55,1.02-1,2.5,1.48-.55,2.33,1.01,2.5,1,.4-.02,1.62-2,2-2,.2,0,2.41,2.09,3.5,1,.41-.41-.95-3.4,1-3-.66,2.82,1.1,1.4,2.5,3,1.76.52,3.28-1.27,3.5-1,.33.4-.33,3.62,0,4,.19.22,2.31-1.72,3.5-1l-.5-3,4,2,1-4c1.99,1.64,2.12,0,2.5,0,.32,0,.58.88,1,1,1.28.37,2.09-1.48,2.5-1,.19.23-.19,1.81,0,2,.13.13,3.94-.21,2,2-.42.48-1.21-1.37-2.5-1-.42.12-2.35,2.19-2.5,3l4-1c.39,1.79-1.71.71-2,1-1.07,1.07,2.46,3.59,2,4s-3.32-.98-3,1c4.2-.51-.67,1.72,2,3.5,1.21.81,1.18-1.12,2,0-.95.5-4.21,3.5-4.5,3.5-.25,0-1.09-1.5-1.5-1-.83,1.01.92,2.22,1,2.5.36,1.25-1.52,1.87-1,3.5,2.9.81,2.84-2.85,3-3,.33-.31,1.76,1.06,2,1.5.26.48-.18,1.28,0,1.5-1.03-1.03-3.39.32-.5,2,.73.42.68-1.82.5-2ZM130.75,98c-1.48,0-1.48,3,0,3s1.48-3,0-3ZM112.75,104c-.65,0-.65,1,0,1s.65-1,0-1ZM126.25,114l-8-1c-.31,3.27,1.91,2.47,3.5,3,.68.22,1.56,1.7,3.5,1-.57-1.23,1.33-2.72,1-3ZM117.75,116c-.65,0-.65,1,0,1s.65-1,0-1ZM152.25,119c.15-.15.27-3.45-.5-3-3.01,1.76-.92,4.42.5,3ZM125.25,125c.62-.57-.63-2.52-1.5-3l-4.5-5c-.73,1.79,2.01,3.03,2,3.5,0,.17-1.56.98-1,3,.42,1.53,4.46,2,5,1.5ZM135.75,117c-.65,0-.65,1,0,1s.65-1,0-1ZM140.25,127c-.24-.19-3.44-.24-3,.5,1.64,2.8,3.36-.21,3-.5ZM141.25,140c2.61-1.24,4.26-4.42,6.5-6,.29-.2,1.93-.17,2.5-1.5l.5-3.5c-.77,2.26-4.32,1.82-4.5,2-.21.21.21,1.78,0,2.5-.43,1.45-6.45,2.61-5,6.5ZM135.25,131c-.34.28,1.2,2.36,2.5,2,1.97-.54,1.06-3,0-3-.32,0-.57.85-1,1-.56.2-1.3-.16-1.5,0ZM137.25,134c-1.08-.87-4.63.37-3,2,.83.83,3.57-1.54,3-2ZM154.25,135c-1.08-.87-4.63.37-3,2,.83.83,3.57-1.54,3-2ZM150.25,137c-.21-.17-.97.23-1.5,0-.43-.19-1.1-1.49-1.5-1-2.24,2.73,4.55,2.3,3,1ZM140.25,137c-.76-.64-2.8.33-2,1,.76.64,2.8-.33,2-1ZM128.75,138c-.65,0-.65,1,0,1s.65-1,0-1ZM153.25,139c-1.03-1.03-3.39.32-.5,2,.73.42.68-1.82.5-2ZM141.25,141c-1.09-1.09-3.09.91-2,2s3.09-.91,2-2ZM108.75,144c-.65,0-.65,1,0,1s.65-1,0-1ZM145.75,144c-.65,0-.65,1,0,1s.65-1,0-1ZM136.25,145c-.76-.64-2.8.33-2,1,.76.64,2.8-.33,2-1ZM153.25,146c-.83-.83-3.57,1.54-3,2,1.08.87,4.63-.37,3-2ZM147.25,150c1.03-1.03-.32-3.39-2-.5-.42.73,1.82.68,2,.5ZM91.25,149c-2.11-.26-2.26-.11-2,2l2-2ZM153.75,149c-.65,0-.65,1,0,1s.65-1,0-1ZM139.75,153c-.65,0-.65,1,0,1s.65-1,0-1ZM95.25,157c-.21-.17-.97.23-1.5,0-.43-.19-1.1-1.49-1.5-1-2.24,2.73,4.55,2.3,3,1ZM151.75,157c-.65,0-.65,1,0,1s.65-1,0-1ZM90.25,158c-.76-.64-2.8.33-2,1,.76.64,2.8-.33,2-1ZM129.25,160c-.17-.17-.94.2-1.5,0-.43-.16-.68-1-1-1-1.35,0,.36,1.12.5,1.5.2.56-.17,1.33,0,1.5,1.09,1.09,3.09-.91,2-2ZM97.25,160c-2.86-.98-1.74,1.8-2,2-.61.46-4.38-.73-.5,3,.51-1.28,2.41-.9,2.5-1,.25-.26-.16-3.03,0-4ZM131.25,164l-4-1c-.5,4.45,6.21,3.27,4,1ZM118.25,168c-.76-.64-2.8.33-2,1,.76.64,2.8-.33,2-1ZM75.25,169c-.76-.64-2.8.33-2,1,.76.64,2.8-.33,2-1Z"/>
      <path d="M44.25,115c-.43-1-.82-1.24-1-2.5-.73-5.19,1.53-3.03,2-3.5,1.02-1.02-1.17-4.89-1-5.5.21-.75,2.42-1.46,2-3-.15-.55-2-1.61-2-2s2.31-1.1,2-4c-.13-1.18-2.39.39-2-1.5,1.94-.69,2.67,1.76,3.5,2,1.88.53,2.67-1.24,4.5-1-2-2.43-.25-2.59,0-3.5.98-3.6-1.68-2.18-2-2.5-.19-.19.27-1.03,0-1.5-1.25-2.19-3.81-1.31-4-1.5s.26-1.03,0-1.5c-.37-.67-2.52-2.02-2-2.5.21-.19,1.81.19,2,0,.18-.18-.23-.96,0-1.5s1.35-.7,1-2c-.22-.81-2.69-1.57-2-3.5l5,2c-.33.7.33,2.68-1,4l7,1.5c.62,3.17-2.76-.75-4,.5-.18.18-.17,4.82,0,5,1,1.06,4-3.06,5-2,.17.18.18,4.82,0,5-.19.19-1.03-.27-1.5,0-1.03.59-3.43,5.04-2.5,6,.1.1,1.98-.28,2.5,1l2.5-.5c-.79.59-1.22,1.63-1.5,2.5-.42,1.3.44.96.5,2-1.48-.55-2.33,1.01-2.5,1-.41-.02-1.44-1.84-2-2-.62-.18-1.38.18-2,0s-2.93-3.58-3.5-3c-1.81,1.84,2.66,2.25,3,3.5.28,1.02-1.47,1.7,0,4,1.18,1.85,2.87,1.37,3,1.5,1.49,1.49-1.72,6.01-3.5,7-.47.26-1.31-.19-1.5,0-.14.14.33,2.63-2,3-.21-1.27-.75-1.11-2-1Z"/>
      <path d="M40.25,173c-.17.34.09,1.38,0,2-1.22.07-1.55-1.42-2-2,.07.07,1.93.07,2,0Z"/>
      <path d="M17.25,129c1.76-1.47,2.86-.86,3-1,.19-.19-.19-1.81,0-2,.21-.21,1.77.21,2.5,0,.38-.11.58-.82,1-1,2.18-.91,1.29,1.74,1.5,2,.41.5,1.25-1,1.5-1,.15,0,1.66,1.84,2.5,1,.19-.19-.69-2.75,1.5-4,.47-.27,1.31.19,1.5,0,.11-.11.1-2.89,0-3-.09-.1-1.99.28-2.5-1-3.51.53-2.02-.66-2.5-1.5-1.04-1.84-2.87-1.37-3-1.5-.22-.22.23-1.8,0-2.5-.14-.41-4.04-6.16-.5-4.5.78.37,1.25,1.58,3,1,6.37,5.73,4-.99,4.5-5.5.04-.36.94-.62,1-1,.22-1.37-.15-3.06,0-4.5l-4-1c.5-1.66-1.35-2.23-1-3.5.75-2.71-.27-1.8-1-4-.23-.7.22-2.28,0-2.5s-1.8.23-2.5,0c-.49-.16-2.82-2-3-2-.25,0-1.09,1.5-1.5,1-.22-.27.55-5.09-2.5-6-1.09-.32-3.42.7-2.5-1.5,1.37-3.3-.38-2.65,0-4,.11-.38,1.48-1.07,1-1.5-.12-.11-2.43.05-3-1.5l3-1-3-1,5-.5c-.83,3.48,3.78,2.78,4,3,.19.19-.19,1.81,0,2s1.03-.26,1.5,0c1.86,1.04,2.26,3.01,6,2,2.86-.77.5-3.28.5-3.5,0-.18,2.05-1.07-.5-2.5-.47-.26-1.29.18-1.5,0-.15-.13-.27-2.93-2-3.5.04-.89,2.89-.6,3-.5.28.26-.79,2.4,1,2-.21-1.37.32-3.33,0-4.5-.25-.9-2.58-1.42-1.5-2.5,1.45-1.45-3.5-3.02-3.5-1.5,0,1.71,2.51,3.07,2,3.5-.32.26-2.74-.26-3,0-.71.69,1.87,4.21,2,5-2.97-.84-1.64,1.62-2,2-.56.6-3.01-.9-3-1.5,0-.26,1.49-1.09,1-1.5-1.67-1.41-5.9,4.02-3-2.5,3.17-3.81,2.65-8.81,4-13,.15-.48,1.36-.69,1-2-.1-.37-5.13-5.39-5.5-5.5-.89-.26-3.03.19-3.5-1.5-.36-1.31,1-1.75,1-2,0-1.35-1.34.5-1.5.5-1.96,0-3.01-8.23,2-4,.55-1.31,2.33-.85,2.5-1,.34-.29-3.01-3.14.5-3,2.98,2.01-.22,2.38-.5,3.5-.19.75-.23,6.27,0,6.5.36.36,3.22-.02,4-.5,2.96-1.81,1.1-2.4,1-3-.16-.94.21-2.15,0-3-.1-.39-.89-.6-1-1-.2-.74.21-2.29,0-2.5-.19-.19-1.03.26-1.5,0-.69-.38-1.5-1.86-2-2-1.38-.38-4.5.89-3.5-1.5.29-.69,1.56-1.05,1-3s-3.24-1.21-4.5-1.5c-.39-.09-.62-.93-1-1-.82-.15-3.3-.19-4,0-.45.12-2.47,3.14-3.5,2-.1-.11-.4-2.79.5-3,.78-.18,2.31.26,1.5-1.5s-2.88-1.39-3-1.5c-.26-.23,2.95-4.04-.5-6-.47-.27-1.31.19-1.5,0-.18-.18-.18-4.82,0-5,.19-.19,1.81.19,2,0,.31-.31-.32-3.63,0-4,.13-.16,2.56,1.72,4,1-1.07,3.49,3.83,4.38,3,7.5-.1.39-3.57,2.74-.5,3.5,1.08.27,2.66-1.75,4.5-1,.55-1.52-1-2.29-1-2.5,0-.17,1.54-.95,1-3-.1-.37-1.5-1.09-1-1.5.18-.14,5.38.38,3-2-.26-.26-1.6.61-2-.5-.2-.56-.6-2.5-1.5-2.5-.33,0-3.8,4.78-3.5,0,1.53.62,5.14-1.87,6-1,.25.26-.26,2.69,0,3,.41.48,1.22-1.37,2.5-1,.36.1.57.78,1,1,.59.3,2.55.71,3,1,1.87,1.19,3.11,3.29,2.5,5.5-.19.7-4.27,3.27-3,4.5.26.25,2.47-.69,3.5,1,.56.92.81,3.61.5,4-.46.57-2.16-2-2.5-2-.22,0-2.83,2.43-2.5,3.5.28.9,3.77,3.15,4,4,.3,1.09-.3,2.91,0,4,.15.55,1.83,1.44,2,2,.21.72-.21,2.28,0,2.5.68.7,2.8-1.45,4-1,.54,1.75-2.63.57-2,1.5.29.43,1,.76,1,1,0,.33-1,.67-1,1,0,.31.82.56,1,1,.88,2.21-1.81,1.31-2,1.5-1.29,1.29,2.77,3.68,3,4.5.36,1.25.79,2.26,1,3,.38,1.32-1.38,1.68-1,3,.32,1.11,2.51,4.56,3,7,.31,1.53-.82,4.47,1.5,3.5.42-.18.63-.9,1-1,1.3-.36,1.44.77,2,1s1.32-.18,1.5,0c.16.16-.47,3.46,1.5,4,1.31.36,1.53-.85,2-1,1.75-.55,3.25,1.28,3.5,1,.23-.26-.55-2.05.5-2,.49,1,4.32,3.21,4.5,3,.28-.33-.19-3.36,0-4.5.03-.17,1.92-1.67-.5-2.5-3.4-1.16-2.37,1.9-2.5,2-.16.13-3.02-1.92-4-1-.24.23.82,4.13-1.5,3-2.53-1.23-.2-2.76-.5-3-.34-.27-2.74.26-3,0-.15-.15-.2-2.83-2-3.5,1.57-.67.75-3.26,1-3.5.22-.21,5.77-.19,6,0,.53.45-2.77,2.4-2,4,4.17,1.05,2.63-1.7,3-2,.12-.09,2.89-.11,3,0,.41.41-1.31,2.9,3,2-.21-1.5,1.88-3.85,1-5-.2-.26-2.98.86-2-2,1.76-.28,2.61,1.54,4.5,1,.83-.24,2.06-2.47,1.5-3-.79-.75-2.76,1.28-3,1-1.97-2.3,1.65-1.75,2.5-2,1.83-.54.62-3.93,3.5-3-.28,1.58.82,1.95,1,3.5s.32,6.82,0,8c-.07.24-3.25,3.5-3.5,3.5-.15,0-1.66-1.84-2.5-1-.34.34.34,4.66,0,5-.19.19-1.81-.19-2,0-.29.29.25,3.4,0,4.5-.09.38-.89.6-1,1-.37,1.35,1.95,1.41,0,5.5.83-.77-1.96-4.43-3.5-4-.29.08-1.5,1.84-1.5.5,0-.32,2.64-2.61-.5-4.5-1.42,1.34-.68,4.9-3.5,4-.38,1.8,1.66.7,2,1,.48.43-.93,1.16-1,1.5-.23,1.19.21,2.76,0,4-.06.38-1,.66-1,1,0,.25,1.5,1.09,1,1.5-.32.26-2.75-.25-3,0-.41.41,1.31,2.9-3,2,3.05,2.79,1.46,5.25,2,8.5.06.38,1,.67,1,1,0,.59-3.45,2.37-3,4,.15.55,1.85,1.45,2,2,1.42,5.17-2.54,3.04-3,3.5-.19.19.26,1.03,0,1.5-.47.84-3,2.59-3,3,0,.31,2.62,1.37,2,5-.07.38-1,.66-1,1-.01,1.5,3.14,1.34.5,5.5-.68,1.07.98,1.4.5,3,.38.45,3-3.08,4-2,.1.11.39,2.89-.5,3-.95.11-3.3-.2-3.5,0-.28.28-.28,7.72,0,8,.11.11,2.89.1,3,0,.52-.45-1.23-.83-.5-2,.5-.81,2.35-1.94,2.5-2.5.21-.77-2.34-3.67.5-4.5,1.79-.52,2.09.48,3,1,1.5.86.81,1.41,2.5-.5l-4-5,3-1.5c.49,1.13.47,1.24,2,1,.35,2.08.75,2.52,2.5,4,.83-.48.62-2.61,2-3,2-.57,2.54.87,3,1,3.35.93,2.15-.8,2.5-2.5.15-.7,1.92-.71,0-2l6-8.5c-.53,2.06.94,1.88,1,2,.22.41-.06,2.55,1.5,3,1.02.29,2.76-1.76,3.5-1,.43.45-1.82,4.39-1,6-1.94.23-.08-2.98-2.5-2-1.9.77-1.19,2.82-1.5,3.5-.32.72-2.77,3.71-2,4.5.1.1,1.98-.28,2.5,1,.87-.03,4.22.79,4.5,1,.26.2-.86,2.98,2,2-.35-1.35-1.61-1.23-.5-3,1.48-2.36,3.18.38,3.5,0,.7-.82-1.73-5.25,2.5-4,1.73.51,1.63,3.45,1.5,5l-4,1c.59,1.95-1.34,2.32-2,3.5-.26.47.19,1.31,0,1.5-.23.23-2.55-.17-3.5,0-.39.07-.67,1-1,1-.65,0-1.92-2.14-1.5-3-1.1-.08-1.87,1.83-2.5,2-.91.25-3.23-.27-3.5,0s.21,3.39,0,4.5c-.06.3-1.57,1.01-1,3,.23.82,4.29,3.21,3,4.5-.58.58-4.33-1.39,0,4-1.97-.57-2.38,1.38-3.5,2-1.46.81-.91-.55-2.5,2.5-1.73,3.31-2.6,1.61-5,5-.85,1.2-3.41,2.52-3,4,.11.4.91.62,1,1,.8,3.58-2.19,6.5,3.5,5.5.39-.07.67-1,1-1s.67,1,1,1c.42,0,2.57-2.99,3-3,1.09-.02,4.23,4.29,3.5,0,1.75.28,2.61-1.55,4.5-1,.78.22,2.72,3.77,2.5,4.5-.99,3.31-5.45,2.04-7.5,2.5-1.67.37-9.7,1.51-12,1-.38-.09-.6-.89-1-1-1.3-.36-1.44.77-2,1s-1.32-.18-1.5,0c-.19.19.26,1.03,0,1.5-.6,1.08-2.91,2.32-3,2.5,2.54-2.54-4.54-2.54-2,0-.03-.04-.6.22-1-.5-.13-.23.13-.69,0-1-.31-.71-1.56-1.07-1-3,.06-.2,1.82-1.72,1-2.5-1.57-1.49-4.03,1.87-4.5,2-3.08.85-9.37-.6-13,0-.38.06-.67,1-1,1-.43,0-1.47-2.12-2.5-2,.7,4.2-3.18.98-3.5,1-.35.02-.62.94-1,1-1.35.22-11.06.37-11.5,0-.33-.28,1.57-1.78,1-3,1.52.55,2.29-1,2.5-1,.33,0,.62.94,1,1,4.35.72,12.33-2.18,13-2,4.5,1.24,3.67-.36,6-1,2.64-.73,3.56.83,5.5,2-.33-1.48,1.06-3.46,2-2.5,1.98,1.01-.3-1.24,0-1.5,1.28-1.08,6.18,1.83,7,1,.27-.27-.15-6.01,0-7.5.04-.36.97-.64,1-1,.16-1.67.34-6.74,0-8s-5.28-3.22-6-2.5c-.2.2.44,5-1.5,5-.33,0-.67-1-1-1-1.75,0-1.26,3.62-1.5,4.5-.19.7-2.78,2.27-3,3s.21,2.29,0,2.5-1.76-.2-2.5,0c-.55.15-1.6,1.73-3.5,1,.55-1.49-1.01-2.33-1-2.5.03-.8,2.54-3.23,3-4s-.89-2.04,2-1.5c.64-4.07-2.82-.76-3-1-.89-1.19,1.15-3.86,1-4-1.64-1.46-4.25,2-4.5,2s-1.09-1.5-1.5-1c-.27.33.27,2.69,0,3-.13.16-3.07-1.94-4-1-.56.57,1.92,4.09,1,5-.11.11-2.79.39-3-.5-.59-2.58,2.52-.98,2-2-1.34-2.66-2.39.31-4-1-.62-1.16-1.55,1.02-2,.5-.59-.68.31-3.67,1.5-4,.85-.23,3.54,1.96,4.5,1,.22-.22-.61-4.59,2-5.5.03-3.49-2.37-.49-2.5-.5-1.27-.15.71-.93,0-2-.9-1.37-2.1-1.03-3.5-1-.4-1.79,1.74-.72,2-1,.22-.24-.21-1.78,0-2.5.1-.33.86-.49,1-1.5-.85.05-2.82-.16-3,0-.15.13.09,2.27-2,3.5-1,.59-1.98-.76-2-1-.02-.29,1.4-.24.5-2.5-1.04-2.6,1.5-2.84,1.5-3.5,0-.33-.92-.61-1-1-.16-.77.2-2.29,0-2.5-.26-.28-2.4.79-2-1,4.31.9,2.59-1.59,3-2,.96-.96,3.65,1.23,4.5,1,.51-.14,2.02-2.57,2.5-2,.83.98-1,2.37-1,2.5,0,.21,3.1,2.52,2,3.5-.29.26-2.75-.25-3,0s.17,3.82,0,5c.84-.05,2.85.15,3,0,.3-.3-.3-3.7,0-4,.25-.25,2.69.26,3,0-.19.19.19,1.81,0,2-.11.11-3.26-.05-2,1,1.12.94,4.43-2.61,4-3-.07-.07-1.93-.07-2,0ZM17.25,14c-1.03-1.03-3.39.32-.5,2,.73.42.68-1.82.5-2ZM5.75,16c-.65,0-.65,1,0,1s.65-1,0-1ZM13.75,18c-.65,0-.65,1,0,1s.65-1,0-1ZM4.75,19c-.65,0-.65,1,0,1s.65-1,0-1ZM18.25,24c.64-.76-.33-2.8-1-2-.64.76.33,2.8,1,2ZM15.75,39c-.65,0-.65,1,0,1s.65-1,0-1ZM27.25,56c1.02-1.02-1.98-4.02-3-3-.11.11-.11,2.89,0,3s2.89.11,3,0ZM32.25,67c.14.14.78,2.22,2,1s-.86-1.86-1-2-.78-2.22-2-1,.86,1.86,1,2ZM18.25,76c-.76-.64-2.8.33-2,1,.76.64,2.8-.33,2-1ZM38.75,79c-.65,0-.65,1,0,1s.65-1,0-1ZM32.25,91c-1.06-1.84-2.92-4.23-5-4,1.06,1.84,2.92,4.23,5,4ZM33.75,91c-.65,0-.65,1,0,1s.65-1,0-1ZM32.25,117c.82-.82-2.05-4-2.5-4-.11,0-1.5,1.39-1.5,1.5,0,.32.84.57,1,1,.2.56-.17,1.33,0,1.5.11.11,2.89.11,3,0ZM51.25,121c-.76-.64-2.8.33-2,1,.76.64,2.8-.33,2-1ZM50.25,125c.64-.76-.33-2.8-1-2-.64.76.33,2.8,1,2ZM53.75,124c-.65,0-.65,1,0,1s.65-1,0-1ZM40.75,128c-.65,0-.65,1,0,1s.65-1,0-1ZM29.75,129c-.11,0-1.5,1.39-1.5,1.5,0,1.42,2.92-1.5,1.5-1.5ZM44.25,129c-.07-.07-2.13-.38-2,.5-1.22,2.77-.44,6.46-3.5,3.5l-3.5,2c3.95-.28,2.62-.19,3,2.5.13.89,2.89.6,3,.5.49-.43-1.92-1.79-.5-2,.72-.14,2.27.2,2.5,0,.46-.4-1.34-3.89,2-3-.08.97-1.9,3.02-2,3.5-.6,2.78.06,4.5-1,8-.59,1.96.91,2.63,1,3,.37,1.61-.71,3.24,1.5,4.5.47.27,1.31-.19,1.5,0,.11.11.09,2.88,0,3-.1.14-2.38-2.06-3,1,1.96.77,5.46-1.8,5-3.5-.14-.53-3.11-2.32-2-3.5,1.66-1.77,1.71.32,2,1.5.26,1.05,1.68.33,2.5.5l5.5-8.5c-.48-1.61-2.88-1.39-3-1.5-.48-.43,1-1.25,1-1.5-.02-1.87-5.11-.9-6-3-.05-1.05,1.77-.27,2-.5.7-.7-1.46-2.79-1-4-1.75-.54-.57,2.63-1.5,2-.72-.49-1.33-1.63-2-2-.47-.26-1.31.19-1.5,0-.25-.25.25-2.74,0-3ZM46.75,129c-.65,0-.65,1,0,1s.65-1,0-1ZM54.75,129c-.65,0-.65,1,0,1s.65-1,0-1ZM28.25,133c-.17-.17-.96.22-1.5,0l-4-2c-.86.63,1.26,2.25.5,3-.44.43-4.96-.85-5,2,.97.16,2.85-.54,3,.5.13.9-.51,3.51,1.5,2.5s1.52-4.58,3-6c2.15,1.31,1.2,2.78,1.5,4.5.07.39,1,.67,1,1s-2.56,2.03-2,2.5c1.18.98,3.64-3.1,3,1,1.26-.57,2.68,1.33,3,1,.14-.14.28-2.94,2-3.5l-3.5-.5c-2.05-1.32-1.11-2.55-1.5-3.5-.17-.4-.83-.6-1-1-.22-.54.17-1.33,0-1.5ZM38.75,131c-.65,0-.65,1,0,1s.65-1,0-1ZM31.75,132c-1.42,0,1.5,2.92,1.5,1.5,0-.11-1.39-1.5-1.5-1.5ZM51.75,132c-.65,0-.65,1,0,1s.65-1,0-1ZM34.25,137c1.03-1.03-.32-3.39-2-.5-.42.73,1.82.68,2,.5ZM53.75,135c-.65,0-.65,1,0,1s.65-1,0-1ZM17.25,141l-2-2c-.26,2.11-.11,2.26,2,2ZM24.75,152c-.65,0-.65,1,0,1s.65-1,0-1Z"/>
      <path d="M32.25,67l1-1-1,1Z"/>
      <path d="M62.25,105c-.2-.2-.72-2.17-2-1-.28.26.79,2.4-1,2l-1-4.5c.95-.58,1.55-3.5,2.5-3.5.18,0,2.41,1.73,3,2,5.25,2.36,5.29-.53,2.5,3.5-.17.24.15.81,0,1-.68.88-1.92,2.17-3,2.5.55-1.94-.71-1.71-1-2Z"/>
      <path d="M137.25,50c-.22-2.01-1.64-.64-2-1-.19-.19.2-1.76,0-2-.41-.5-1.25,1-1.5,1-.32,0-.57-.84-1-1-.65-.23-3.17-.05-1.5-2,.28-.33,1.78,1.57,3,1,.95-2.86-2.5-1.69-3-3.5-.42-1.54,1.79-2.25,2-3s.3-8.2,0-8.5c-.21-.21-4.74.54-4-3-1.58-.39-1.2,2.8-1,3.5.64,2.27-.4,2.67,0,4,.23.76,2.28,1.32,0,3l-1,4.5c-3.28.98-1.51-2.51-2-3-.25-.25-2.75.25-3,0s.25-2.75,0-3c-.11-.11-2.89-.11-3,0-.25.25.6,5.07-2.5,6-2.62.79-4.05-1.74-3.5-4-1.28.23-4.1-1.88-5-1-.75.73,1.27,2.77,1,3-.23.19-1.81-.19-2,0-.27.27.25,2.59,0,3.5-.37,1.35-3.51,2.52-4.5,3.5-2.37.83-1.64-3.84-1.5-4,.17-.19,3.31,1.9,5,1,.4-1.79-1.74-.72-2-1-.78-.85,1.09-2.79,2-3.5.05-1.05-1.78-.27-2-.5-.15-.16-.22-2.58.5-3l-.5-4,1,3c1.78.31.6-3.94,2.5-4,1.65-.06,1.36,3.84,1.5,4,.29.33,3.09-1.91,3.5-2,2.44-.53,7.66,1.81,8.5,1,1.05-1.02-.97-3.32-1-3.5-.19-1.26.28-5.22,0-5.5-.19-.19-1.03.26-1.5,0-3.01-1.68-1.3-5.86,2-5,2.55,1.15-.21,3.3.5,4,.18.17.96-.22,1.5,0,.41.17.61.85,1,1,.83.31,2.21-.17,3.5,1l1-4,2,.5c-2.21-1.49,1.42-2.42,2-4.5-1.59-.48-1.94,1.19-3,.5-1.84-1.19-.64-4.14-1-4.5-.18-.18-2.91.68-2-1.5.23-.56,1.36-.7,1-2-.14-.5-2.57-2.03-2-2.5.81-.66,3.31,1.71,4,1,.19-.19-.19-1.81,0-2s1.03.26,1.5,0c1.16-.65,3.18-3.76,4-4,1.39-.4,1.71,1.57,2.5.5-2.91-2.84.6-2.98,3.5-2.5.38.06.67,1,1,1,.37,0,1.63-2,2-2,.33,0,.67,1,1,1s.59-.89,1-1c.59-.16,1.93.62,3,1,1.37.48-1.06,1.51-.5,2,1.14,1.02,3.32-.97,3.5-1,.81-.13,4.34-.16,4.5,0,.19.19-.2,1.77,0,2,.39.46,1.61-1.46,2-1,.26.3-.2,2.54,0,3.5.08.38.88.59,1,1,.59,1.95-.95,2.72-1,3-.48,2.68,1.37,6.55-3,6.5l3,1-3,2.5c.82,1.31,4.87,6.61,4,7.5-1.36,1.4-4.75-2.29-5-2-.1.11-.4,2.84.5,3,1.43.26,2.21-.16,1.5,2.5-.12.43-1.88,2.56-2,3-.3,1.1,2.32,4.23,2,4.5-.12.1-2.89.39-3-.5-.09-.7.17-1.47,0-2-.65-2.01-3.84-1.34-4-1.5-.19-.19-.15-4.61,0-5.5.06-.38,1-.67,1-1s-.94-.62-1-1c-.19-1.1.41-5.48-1.5-5.5-1.32-.01-1.38,2.89-1.5,3-.17.16-3.45-.46-4,1.5-.35,1.24.72,2.97-1,4l3,1.5-7-1c.75,1.84-1.28,3.43-1,4.5.15.57,1.75,1.67,1,3.5l2-2c1.74.78,3.32-1.01,3.5-1,1.71.09,1.66,4.55,1.5,6,1.46-.23,1.98-2.42,3.5-2,.5.14.86,1.54,2.5,1-.25,1.35,1.89,3.95,1,5-.28.33-3-1.85-3.5-2-2.3-.67-4.34,1.83-6,3-.21.15-.75-.16-1,0-1.82,1.17-1.38,2.85-1.5,3-.3.36-1.09-.78-2-1,.07.62.09,1.4,0,2,.65.07,1.84-.14,2,0,.28.23-.7,1.22-1,2,1.47-.24,3.37,1.64,4,1,.32-.33-.66-2.81.5-3,.86,1.07,2.88,2.13,2.5,3.5-.11.41-1,.67-1,1,0,1.35,1.33-.5,1.5-.5.24,0,.72,1.38,2,1,.69-.2,2.44-3.76,4-5s1.03-.97,2.5.5c-1.66.96-2.93,5.07-4.5,5.5s-3.21-.76-4.5,1.5c-.19.34.49,2.33-1.5,1.5-3.26-1.36-2.33,0-3,0-.32,0-.58-.88-1-1-1.29-.38-2.08,1.47-2.5,1-.27-.31.61-2.74-1-3.5,1.88-1.07,1.56-2.34,2-3.5-1.29.21-2.13,2-2.5,2-1.55,0,1.29-1.98,1.5-2.5.17-.42-.07-1,0-1.5-.66-.08-1.87.13-2,0-1.09-1.09.1-2.45,2-2ZM140.25,7c.83-.83-1.54-3.57-2-3-.87,1.08.37,4.63,2,3ZM141.75,4c-.65,0-.65,1,0,1s.65-1,0-1ZM145.25,8c-.21-.17-.97.23-1.5,0-.43-.19-1.1-1.49-1.5-1-2.24,2.73,4.55,2.3,3,1ZM154.25,8c-.76-.64-2.8.33-2,1,.76.64,2.8-.33,2-1ZM141.25,9c-.76-.64-2.8.33-2,1,.76.64,2.8-.33,2-1ZM150.75,13c-.65,0-.65,1,0,1s.65-1,0-1ZM138.25,17c-1.88-1.88-1.79,1.01-2,1.5-.23.55-1.99,2.51-1,3.5.11.11,2.89.11,3,0,.18-.18.18-4.82,0-5ZM137.25,26c.15-.15.27-3.45-.5-3-3.01,1.76-.92,4.42.5,3ZM140.75,24c-.65,0-.65,1,0,1s.65-1,0-1Z"/>
      <path d="M70.25,2c1.2,1.3-3,4.05-3,4.5,0,.5,4.12,2.43.5,4.5-.46.26-1.28-.18-1.5,0-.48.41,1.37,1.21,1,2.5-.15.5-1.9,3.16-2.5,3.5-.47.26-1.31-.19-1.5,0-1.92,1.92,1.22,1.84,1.5,2,1.18.67,3.34,5.05,2.5,6-.23.26-2.28-1.75-3-1-.18.19.68,2.91-1.5,2-.41-.17-.61-.87-1-1-2.3-.78-4.4,2.17-3.5,3,.18.16,1.23-1.36,4-.5,1.33.41,1.17-.5,1.5-.5.11,0,1.45,1.32,1.5,1.5.38,1.28-1.01,1.76-1,2,.03,1.34,1.32-.5,1.5-.5s2.42,1.76,3,2c.54.23,1.33-.17,1.5,0,.19.19-.19,1.81,0,2,.81.81,5.19-2.81,6-2,.21.21-.21,1.78,0,2.5.05.18,1.58,2.34,2,3,.99,1.56,2.78,1.35,3.5,2.5s-1.02,1.54-.5,2c.66.59,4.5-1.61,5-2.5-.87-1.63,3.01-5.91,4.5-5.5,3.29.91-.99,3.66-1.5,4.5-.3.49-.7,2.44-1,3-1.12,2.07-2.76,1.82-2,6,.07.37.87.59,1,1,.35,1.11-.45,2.39,1.5,3.5.47.27,1.31-.19,1.5,0s-.16,1.73,0,2.5c.08.39.99.66,1,1,0,.13-1.84,1.68-1,2.5,2.14,2.07,1.87-1.87,2-2,1.52-1.52,4.23,2,4.5,2,1.34,0,1.01-3.38,2.5-3-.9,4.31,1.59,2.59,2,3,.21.21-.2,1.77,0,2.5.12.44,1.36.68,1,2-.25.91-2,1.07,0,3.5l-4,1c-.38,1.8,1.66.7,2,1,.48.43-.9,1.12-1,1.5-.18.66,2.02,4.26,1,5.5-.41.5-1.25-1-1.5-1-1.34.01.41,1.2.5,1.5.51,1.71-1.66,3.8-1,4.5.26.28,2.4-.79,2,1-2.65-.18-5.4.87-7-1.5l-1-5c-1.1-1.55-2.17-1.73-4-1.5.55,1.5-1,2.31-1,2.5.02,1.34,2.89,1.38,3,1.5.84.91-1,2.35-1,2.5,0,.25,1.5,1.09,1,1.5-.32.26-2.75-.25-3,0-.19.19.19,1.81,0,2s-1.03-.26-1.5,0c-1.26.7-2.66,3.05-4,4-.91-.3-.6-2.65-.5-3.5.13-1.03,2.04-.34,3-.5.4-1.79-1.74-.72-2-1-.12-.13-.07-2.7,0-3.5.05-.51,1.63-.51,0-2.5l4,1-2-2.5-2-.5c-.33-1.98,2.6-.6,3-1,.77-.78-1.56-4.48-1-6.5.15-.55,1.85-1.45,2-2,.36-1.32-.91-1.6-1-2-.44-1.99.99-6.79-1.5-7.5-2-.58-2.83,1-3,1-.85,0-3.64-3.18-5-3-1.39-1.64-5.3-6.07-2-7,1.44-.41,1.97.46,3.5-1.5,2.69-3.45-1.25-5.31-2-4.5-.25.27.45,2.48-.5,4-1.05,1.69-3.25.75-3.5,1-.34.34.94,2.89-2,2,2.04,2.87,3.43,3.63-.5,5-1.16.41.12,2.01-1,2-1.35-1.37-3.1-2.39-2.5-4.5.18-.62.93-.16.5-1.5-.56-1.77-.62-3.2-.5-5,1.98-.32.6,2.59,1,3,.61.61,4.04-.51,4-1.5-.01-.25-3-3.16-3-4,0-.39,1.85-1.45,2-2,.94-3.41-.4-8.69-4.5-5.5-3.25,2.53,1.29,3.54-2,6l-1-4-4.5,3c-.19-1.63-.07-3.12,1.5-4,.47-.26,1.3.19,1.5,0,.59-.54-.62-2.59-1.5-3-2.34-1.1-1.23,2.7-1.5,3-.43.48-1.25-1-1.5-1-.34,0-.62.93-1,1-.95.16-2.18-.22-3,0-.48.13-3.2,2.32-3.5,2-1.05-1.14,2.49-3.59,2-4-.22-.18-1.03.26-1.5,0-1.1-.62-3.52-3.27-3.5-4.5l-2-2.5c-.19,1.1.28,4.72,0,5-.16.16-3.89.17-4.5,0-.5-.14-2.03-2.57-2.5-2-.91,1.13,1.61,4.4,1,5-.18.18-2.91-.68-2,1.5.23.56,1.36.7,1,2-.15.55-1.84,1.44-2,2-.23.8,1.87,3.65,1,5.5l-1-3-4-1c2.81-3.51-1.49-4.98-2-8.5,1.74-1.61,1.93-3.11,4-1.5-.78-1.74,1.01-3.32,1-3.5-.1-1.98-4.81-1.31-5-1.5-.21-.21.2-1.76,0-2.5-.5-1.86-1.49-3.05-1-6,.06-.38,1-.67,1-1,0-.29-2.89-1.7-2-5,.07-.26,1.5-1.99,2-1,2.5,1.53-.25-2.09,0-3,.11-.41.99-.67,1-1,0-.47-2.73-1.71-2-3.5l4.5,4c1.12-.17,5.05,3.5,5.5,3,.19-.21-.19-1.81,0-2,.21-.21,1.77.2,2.5,0,.4-.11.6-.89,1-1,1.31-.36,1.52.85,2,1,2.36.76,4.2.5,6,1,1.3.36.58-.97,3,0,2.21.88,1.31-1.81,1.5-2,2.13-2.13,1.86,1.86,2,2,2.13,2.13,1.86-1.86,2-2,.57-.57,4.81-.81,5-1,.25-.25-.25-2.75,0-3,.17-.17.94.2,1.5,0,.43-.16.68-1,1-1,.39,0,1.44,1.83,2,2,1.78.53,3.25-1.27,3.5-1ZM62.25,13c.11-.11.1-2.88,0-3-.4-.48-1.07.81-1.5,1s-3.39.11-1.5,2c.11.11,2.89.11,3,0ZM29.75,11c-.65,0-.65,1,0,1s.65-1,0-1ZM40.75,12c-.65,0-.65,1,0,1s.65-1,0-1ZM52.75,12c-.65,0-.65,1,0,1s.65-1,0-1ZM47.75,14c-.65,0-.65,1,0,1s.65-1,0-1ZM62.25,17c.1-.12.1-2.88,0-3-.4-.49-1.07.81-1.5,1-.18.08-2.59.09-1.5,1,.21.17.97-.23,1.5,0,.43.19,1.1,1.49,1.5,1ZM39.75,18c-.65,0-.65,1,0,1s.65-1,0-1ZM40.25,26c.27-.31-.61-2.74,1-3.5-5.48-5.93-3.41-.13-4,.5-.25.26-2.28-1.75-3-1-.14.14-.14,3.86,0,4,1,1.04,3.15-.91,3.5-1,1.31-.35,2.08,1.47,2.5,1ZM43.75,20c-.65,0-.65,1,0,1s.65-1,0-1ZM57.75,23c-.65,0-.65,1,0,1s.65-1,0-1ZM60.75,23c-.65,0-.65,1,0,1s.65-1,0-1ZM53.25,28c-1.89-1.89-1.8,1.05-2,1.5s-1.48,1.1-1,1.5c.12.1,2.89.11,3,0s.11-2.89,0-3ZM32.75,32c-.65,0-.65,1,0,1s.65-1,0-1ZM74.25,35c-1.09-1.09-3.09.91-2,2s3.09-.91,2-2ZM73.25,44c.64-.76-.33-2.8-1-2-.64.76.33,2.8,1,2ZM82.25,43c-1.03-1.03-3.39.32-.5,2,.73.42.68-1.82.5-2ZM67.75,47c-.65,0-.65,1,0,1s.65-1,0-1ZM84.75,48c-.65,0-.65,1,0,1s.65-1,0-1ZM89.25,54c-2.17-1.78-2.69,3.17-2,4,1.08,1.29.84-1.89,1-2.5.09-.37,1.5-1.09,1-1.5ZM90.25,64c-.29.32-1.26,1.61-1.5,2-.6.98-.79,4.65-.5,5,.13.15,3.1-1.39,3.5-2,.7-1.08.43-1.93.5-2,.73-.71,5.54,2.07,4-3.5-.05-.17-2.32-2.5-2.5-2.5-.23,0-3.18,2.65-3.5,3,.11-.11.11-2.89,0-3-.18-.18-.97.23-1.5,0-.43-.19-1.1-1.48-1.5-1-1.23,1.5,1.75,5.25,3,4ZM94.75,70c-.65,0-.65,1,0,1s.65-1,0-1ZM86.75,79c-.65,0-.65,1,0,1s.65-1,0-1Z"/>
      <path d="M24.25,103c.19.19-.19,1.81,0,2,.48.49,2.82-1.2,4.5-1,.94.11.17,1.93,1.5,2.5l-3.5.5c-.87-.52-4.71-3-5-3-.33,0-.58.88-1,1-1.25.36-1.87-1.52-3.5-1-.98,2.86,1.8,1.74,2,2,.79,1.03-.19,3.2-1.5,1-1.17.62,1.01,1.53.5,2-.14.13-1.55-.47-2.5,1-1.88,2.9,1.76,1.2,2.5,4-1.63.51-2.24-1.36-3.5-1-.48.13-2.38,1.74-3,2-.54.23-1.32-.17-1.5,0-.94.92,1.15,3.86,1,4-.59.56-2.78-.7-3-1.5-.18-.66.23-1.49,0-2-.35-.77-1.84-3.19-2.5-3.5-1.71-.8-1.3.62-1.5,1.5s-1.85.63-2,.5c-.52-.46,1.23-.83.5-2-.55-.89-1.87-1.15-1.5-2.5.15-.55,2-1.61,2-2,0-.33-.94-.62-1-1-.13-.81-.16-4.34,0-4.5.19-.19,1.03.26,1.5,0,1-.56,3.52-4,4-4,.42,0,2.58,3,3,3,.25,0,.69-1.36,2-1,2.98.82,4.58.48,7,1,.36.08,2.41,1.75,3,2,.54.23,1.33-.17,1.5,0ZM9.25,107c-1.09-1.09-3.09.91-2,2s3.09-.91,2-2Z"/>
      <path d="M76.25,2c.14.15,2.96-1.92,4-1,.27.24-1.53,1.73-1,3.5.17.56,1.84,1.44,2,2,.59,2.04-2,4.63-2,5,.01,1.33,2.87,1.38,3,1.5.33.3-1.9,3.05-2,3.5-.25,1.16.21,2.76,0,4-.06.38-1,.67-1,1,0,.35,2.05,1.76,2.5,2.5.57.94.78,3.71.5,4-1.49,1.52-4.05-1.88-4.5-2-1.31-.36-1.75,1-2,1-.18,0-2.45-2.33-2.5-2.5-.19-.66.23-1.49,0-2-.27-.59-2-2.82-2-3,0-.33.88-.58,1-1,.57-2.01-1-2.83-1-3,0-.42,3-2.58,3-3,0-.33-1-.67-1-1,0-.64,3.78-2.14,1-4-.05-1.05,1.77-.27,2-.5,1-.97-4.06-5.56-.5-7,1.05-.05.27,1.74.5,2ZM77.25,14c-.76-.64-2.8.33-2,1,.76.64,2.8-.33,2-1ZM79.25,17c-.76-.64-2.8.33-2,1,.76.64,2.8-.33,2-1Z"/>
      <path d="M69.25,62c.82.82-.97,2.36-1,2.5-.24,1.01-1,3.78-1,4,0,.32.88.58,1,1,.38,1.32-1.38,1.68-1,3,.21.72,2.81,2.3,3,3,.45,1.65-.31,4.59,0,6.5-1.38-.09-2.67-2.76-3.5-3-1.33-.38-1.68,1.38-3,1-.7-.2-2.09-2.55-3-3-1.72-.85-1.94,1.63-1.5,2,.23.2,1.81-.19,2,0,.11.11.11,2.89,0,3s-2.89.11-3,0-.25-1.9-.5-3c-.23-1.03-1.12-1.45.5-2.5l-5,.5c-.77-3.53,3.79-2.79,4-3,.11-.11.1-2.89,0-3-.18-.19-5.07.4-5-1.5.03-.86,3.45-3.31,5-2.5l1,4,5,.5-3,1,3,2.5c-.27-3.88.98-1,1.5-1,.11,0,1.3-1.16,1.5-1.5.54-.92-1.78-.28-2-.5-.16-.16-.13-3.68,0-4.5.06-.38.93-.62,1-1,.38-2.06-.86-4.08,1.5-5.5.52,1.29,2.39.89,2.5,1ZM64.75,76c-.65,0-.65,1,0,1s.65-1,0-1Z"/>
      <path d="M92.25,91c.6.6,4.12-1.94,3,3.5-.12.59-1.58,1.52-1,4,1.36,5.81-1.01,5.61-1,7,0,.34,1,.66,1,1,0,.18-1.76,2.42-2,3-.58,1.39.84,1.89-3,1.5l3-5c-1.72,1.6-2.34-.03-2.5,0-.34.06-.56.79-1,1-.31.15-.8-.13-1,0-3.48,2.2,1.39,5.3,2.5,8h-5c.23-2.35-.91-8.31,1.5-9,.62-.18,1.38.18,2,0,1.82-.52.63-3.94,3.5-3l-3.5-3-.5,1.5c.13.88-1.93.57-2,.5-.17-.18-.16-4.81,0-5,.41-.5,1.25,1,1.5,1,1.34-.01-.42-1.21-.5-1.5-.71-2.64-1.86-3.47-2-4-.18-.67-.18-4.33,0-5,.44-1.62,2.87-1.37,3-1.5.23-.22-.55-2.05.5-2,.65.88,2,1.66,2.5,2.5.09.16.96,1.89,1,2,.23.7-.22,2.28,0,2.5ZM88.75,92c-.65,0-.65,1,0,1s.65-1,0-1ZM88.75,94c-1.42,0,1.5,2.92,1.5,1.5,0-.11-1.39-1.5-1.5-1.5Z"/>
      <path d="M87.25,11c.32.26,2.75-.25,3,0,.17.17-.22.96,0,1.5.17.42.88.62,1,1,.6,1.96-1.84,5.12-3.5,6.5-.51-1.28-2.41-.9-2.5-1-.22-.23.21-1.78,0-2.5-.17-.56-1.83-1.44-2-2-.94-3.16.9-2.16,1.5-2.5,1.43-.81,1.21-1.97,1.5-2.5.35-.63,2-2.82,2-3,0-.44-2.12-1.46-2-2.5,3.18.92.91-1.92,3-2l1,4.5c-.38.82-3.21,4.33-3,4.5ZM88.25,14c1.03-1.03-.32-3.39-2-.5-.42.73,1.82.68,2,.5Z"/>
      <path d="M107.25,65c.41.5,1.25-1,1.5-1,1.41.01,4.42,7.1,6,8,.97.55,2.04-1.03,1.5,3l2-2-1,4c-1.66-2.1-4.28.64-5,0-.26-.23,1.75-2.28,1-3-.21-.2-2.75.7-4-1.5-.43-.76.93-1.99-2-1.5l2-4.5-2.5.5c-.76-1.61-3.18-.72-3.5-1-2.42-2.09,2.14-1.88,2.5-2,.41-.14,1.06-1.48,1.5-1,.19.21-.2,1.76,0,2Z"/>
      <path d="M67.25,86c.13.13,2.55-.12,3,1.5.81,2.94-1.81,6.22-1,9.5-1.03.12-2.07-2-2.5-2s-1.53,2.71-4,2c-3.83-1.11,1.61-3.4,2-4,.67-1.03,2.21-4.26,1.5-5-.38-.4-3.33.98-3-1,1.1.06,3.89.57,3-1.5-.55-1.27-1.72-.7.5-2.5,1.16.19.18,2.68.5,3Z"/>
      <path d="M115.75,44c1.09-.32,2.34-.04,3,1,.57.9.45,1.44.5,1.5.98,1.37,2.65,1.72,2,4-.05.17-2.33,2.45-2.5,2.5-1.32.36-1.59-.9-2-1-1.58-.37-3.25.69-4.5-1.5.58-1.89,1.6-5.94,3.5-6.5Z"/>
      <path d="M109.25,13c.12.13.15,2.95,0,3.5s-3.39,2.67-2,4.5c.2.26,2.98-.86,2,2l-4.5,1-.5-4.5c2.63-1.35-1.01-4.2-1-5,0-.08.71-.82,1-1,1.17-.73,1.14.89,2.5.5v-2c.51,1.28,2.41.9,2.5,1Z"/>
      <path d="M114.25,57c.48.41-1.37,1.22-1,2.5.19.66,2.44,2.11,3,3l-4,4.5c1.06-2.52-1.77-3.66-2-4.5-.29-1.07.32-4.18,0-4.5-.84-.84-3.9,2.68-4,0,1.93.69,2.67-1.77,3.5-2,1.97-.55,2.31.72,3,1,.54.22,1.3-.17,1.5,0Z"/>
      <path d="M8.25,30c.22-.87-.11-3.78,2-2,.47.4-1.43,1.55-1,2-.13-.16-.71.14-1,0Z"/>
      <path d="M8.25,30c-.29,1.13-2.46,2.62-2,3,1.15.94,3.94-1.88,3-3,.06.06.99.15,1.5,1,.81,1.33.07,2.58,1.5,3.5l-4.5-.5-.5,3.5c.74,1.76-1.55,1.97-2,1.5-.27-.28,1.53-1.7,1-3.5-.17-.56-1.84-1.44-2-2-.41-1.44,1.95-1.75,0-3,1.78-2.3,2.04-1.43,4-.5Z"/>
      <path d="M75.25,151c.27.28,2.4-.79,2,1l-5-1-1-2c-.56,1.38,2,4.16,2,4.5,0,.62-2.06,1.92-3,1.5l-2-2c-2.12-2.12,1.91-1.89,2-2,.14-.16-1.71-2.54-1-4,2.6-.15,2.9-2.22,5,.5,1.41,1.82.88,3.37,1,3.5Z"/>
      <path d="M130.25,81l1,5c-1.98.33-.6-2.62-1-3-.11-.1-2.89-.11-3,0-.13.13.13,2.52-1.5,3-1.28.37-2.09-1.48-2.5-1-.83.97,1,2.35,1,2.5,0,.37-4.24,4.14-3,6.5-.85-.85-2.89-.89-3-1-.52-.54.86-6.39-1-8l5,2,1-5c1.81-.45.17,3.04,2.5,2,1.75-.78,1.39-2.88,1.5-3,.24-.26,1.62,1.62,3,0ZM119.75,90c-.65,0-.65,1,0,1s.65-1,0-1Z"/>
      <path d="M69.25,137c-.19.19-1.81-.19-2,0-.31.31.32,3.62,0,4-.34.4-.73-.4-1-.5-1.34-.51-1.58.97-2,.5-.75-.84,1.3-2.75,1-3-.35-.3-3.05,1.01-2-2.5.67-2.23,4.18-.71,5.5-2.5l.5,4Z"/>
      <path d="M49.25,37c.85,3.37-2.45,1.5-3,2s1.86,1.98,2,2.5c.43,1.55-3.25,4.33-4,3.5-.27-.3.61-2.75-1-3.5-.32-1.3,1.49-1.83,1-3.5l5-1Z"/>
      <path d="M83.25,124c.16.16.12,3.64,0,4.5-.25,1.83-1.38,2.31-2.5,3.5l.5-4-4-.5c1.09-.71,1.25-3.16,2.5-3.5.56-.15,3.38-.12,3.5,0Z"/>
      <path d="M111.25,82c-.48.43,1,1.25,1,1.5,0,1-2.3,1.37-2.5,1.5-1.81,1.14-.88,3.1-2.5,3,.05-1.42,1.88-5.04,1-6-.26-.28-2.4.79-2-1,.97-.17,3.72.25,4,0,.12-.11.2-3.03,1.5-3,.18,0,2.5,2.32,2.5,2.5.03,1.29-2.88,1.39-3,1.5ZM109.75,83c-.65,0-.65,1,0,1s.65-1,0-1Z"/>
      <path d="M9.25,83c-.34.34-4.81-.93-2.5,2,2.74-3.64,3.22,2.28,2.5,3-.14.14-3.86.14-4,0-.21-.21.2-1.77,0-2.5-.12-.44-1.35-.68-1-2,.49-1.82,3.6-1.04,4.5-2.5.88-.13.57,1.93.5,2Z"/>
      <path d="M123.25,62c-.79-.74,1.44-6.75,3.5-6,1.33.48,1.56,1.57,1,3-.62,1.57-2.83,4.56-4.5,3Z"/>
      <path d="M109.25,26c.23.24-.55,2.05.5,2,.71-1.55,2.26-.38,2.5.5.35,1.27-1.51,1.86-1,3.5l-5-4.5c.48-.87,2.42-2.12,3-1.5Z"/>
      <path d="M101.25,111c.11.11.4,2.67-.5,3-1.62.6-2.2,1.31-3,0-1.69,2.25-2.72.53-4,0-.57-.24-3.18,0-1.5-2,.38-.45,3.01,3.08,4,2,.15-.16-.09-2.18,2-3.5l3,.5Z"/>
      <path d="M95.25,1c.64.77-1.32,6.13,1.5,5,.44-.18.69-1,1-1,.82,0,3.75,4.79,3.5,5-.35.3-3.08.07-4-.5-1.58-.96-1.54-2.23-2-3-.82-1.37-1.76-2.42-2-4-.32-2.09,1.59-1.99,2-1.5Z"/>
      <path d="M130.25,80l-2-3-2,3c.77-1.6-2.53-3.55-2-4,1.3-1.1,7.61.19,6,4Z"/>
      <path d="M155.25,97c.27.31,2.93-.9,2,2-1.48-.55-2.33,1.01-2.5,1-.41-.02-1.44-1.84-2-2-.12-.03-1.07,1.94-2.5-.5.41-1.15,2.5-.23,3.5-.5.82-.22,1.83-1.93,1.5-3,2.58.02-.27,2.7,0,3Z"/>
      <path d="M11.25,58c.14.14.14,3.86,0,4-.57.57-3.66-.26-4-1.5-.55-2.01,3.24-3.26,4-2.5Z"/>
      <path d="M87.25,29c.26.26-.62,1.57.5,2,1.01.39,2.33.38,2.5,2-4.39-.08-5.58,1.36-5-3.5.11-.9,1.9-.6,2-.5Z"/>
      <path d="M154.25,101c-.89,1.7,1.18,4.82,1,5-.78.77-3.74-1.75-4-2.5-.99-2.84.9-2.8,3-2.5Z"/>
      <path d="M85.25,28l2-7c-.75,1.82,1.29,3.47,1,4.5-.12.42-2.2,2.35-3,2.5Z"/>
      <path d="M149.25,94c-.41.49-1.24-.99-1.5-1-.18,0-1.01,1.55-2.5,1l3,4-5-3.5c.76-.87,2.16-.5,3-2,.26-.47-.19-1.31,0-1.5.25-.25,2.68.26,3,0,.47-.38-4.06-3.2-.5-5l.5,3.5c2.21,1.67.4,2.05,0,3-.22.54.17,1.29,0,1.5Z"/>
      <path d="M97.25,36c.18-.18.97.23,1.5,0,.43-.19,1.1-1.48,1.5-1,.59.72-.24,5-1.5,5-1.01,0-2.11-3.39-1.5-4Z"/>
      <path d="M107.25,119c.5.5.48,5.63-2,4,.45-1.2-1.7-3.32-1-4,.11-.1,2.89-.11,3,0Z"/>
      <path d="M58.25,105l-2,4c1.43-3.16-3.12-4.26-3-4.5,1.58-3.12,2.83,1.07,5,.5Z"/>
      <path d="M113.25,95c-.78.97-4.01-3.95-.5-6,.72-.42.7,5.75.5,6Z"/>
      <path d="M122.25,81c-2.13.04-4.33-2.64-4,.5l-2-1,6,.5Z"/>
      <path d="M146.25,71c.13.15.39,1.78-.5,2-1.14.28-3.35.38-1.5,2,1.65,1.45,4.96-2.97,6-2,1.14,1.06-1.86,3.02-2,3.5-.17.61.17,1.37,0,2-.11.41-1,.67-1,1,0,.18,1.82,1.41.5,1.5-.18.01-2.42-2.09-3.5-1-.23.23.55,2.05-.5,2-.51-1.28-2.39-.89-2.5-1-.19-.19.26-1.02,0-1.5-1.7-3.14-1.8-.76-3,1,.98,4.64-1.87,3.64-3,4.5-.26.2.86,2.98-2,2-.66-3.01,3.47-2.92,4-4.5,1.03-3.09-1.19-2.08-2.5-3.5l-2.5,4c.63-1.11-2.53-6.16.5-5,.7.27,1.9,1.74,2.5-.5.89-3.3-2-4.71-2-5,0-1.32,2.87-1.37,3-1.5.35-.35-.36-4.58,0-5,.23-.27,2.26,1.75,3,1,.23-.23-.55-2.05.5-2l4.5,6.5c.62,1.17,1.54-1.02,2-.5ZM141.75,71c-.65,0-.65,1,0,1s.65-1,0-1Z"/>
      <polygon points="102.25 90 100.25 87.5 100.75 84 102.25 90"/>
      <path d="M10.25,64c.17.17-.2.94,0,1.5.16.43,1,.68,1,1,0,1.35-1.26-.46-1.5-.5-1.01-.18-5.85.35-3.5-2,.14-.14,3.86-.14,4,0Z"/>
      <path d="M100.25,92c-1.85,1.85-1.79-.91-2-1.5-.24-.66-1.96-1.06.5-2.5.34-.2,1.84,3.66,1.5,4Z"/>
      <path d="M65.25,153c.05-.05,1.19-.12,1.5,0,.54.22,2.5,3.28,2.5,3.5,0,1.32-1.06-.29-1.5-.5-.7-.32-4.01-1.49-2.5-3Z"/>
      <path d="M111.25,48c.82.82-.94,2.3-1,2.5-.16.56.09,3.8-1,2.5-.56-.67-.28-7.28,2-5Z"/>
      <path d="M120.25,8c-.58.58-3-.88-3-1.5,0-.18,2.32-2.5,2.5-2.5,1.35,0-.5,1.34-.5,1.5,0,.15,1.84,1.66,1,2.5Z"/>
      <path d="M119.25,69c.11.11.11,2.89,0,3-2.66,2.66-2.66-5.66,0-3Z"/>
      <path d="M152.25,74c.58-.58,3,.88,3,1.5,0,.11-1.39,1.5-1.5,1.5-.62,0-2.08-2.42-1.5-3Z"/>
      <path d="M82.25,108c1.7,1.7-1.88,3.26-3,.5s.92-.76,1.5-.5c.53.23,1.32-.18,1.5,0Z"/>
      <path d="M105.25,79c.48.4-.81,1.07-1,1.5-.23.53.18,1.31,0,1.5-.51.56-2.81-2.19-2-3,.11-.11,2.88-.1,3,0Z"/>
      <path d="M6.25,158c-.74.89-3.81-4.12-1-4-.49,1.25,1.7,3.15,1,4Z"/>
      <path d="M75.25,90c1.63,1.63-1.92,2.87-3,2-.57-.46,2.17-2.83,3-2Z"/>
      <path d="M14.25,88c.83.83-1.54,3.57-2,3-.87-1.08.37-4.63,2-3Z"/>
      <path d="M153.25,90c-1,.81-3.52-1.58-3-2,1-.81,3.52,1.58,3,2Z"/>
      <path d="M2.25,143c-.34,1.34-1.62,1.24-.5,3,.99,1.56,2.78.28,2.5,2-1.3.43-3.74-1.72-4-2.5-.59-1.75-.19-3.05,2-2.5Z"/>
      <path d="M147.25,82c1.85,1.85-.91,1.79-1.5,2-.43.16-.68,1-1,1-1.35,0,.36-1.12.5-1.5.21-.59.15-3.35,2-1.5Z"/>
      <path d="M74.25,117c-1.37,1.64-1.37-5.64,0-4,.13.15.13,3.85,0,4Z"/>
      <path d="M88.25,116c1.09,1.09-.91,3.09-2,2s.91-3.09,2-2Z"/>
      <path d="M12.25,94c1.09,1.09-.91,3.09-2,2s.91-3.09,2-2Z"/>
      <path d="M65.25,156l-2,2c-.26-2.11-.11-2.26,2-2Z"/>
      <path d="M68.25,144c.18.18.23,2.42-.5,2-2.89-1.68-.53-3.03.5-2Z"/>
      <path d="M106.25,32c-2.11.26-2.26.11-2-2l2,2Z"/>
      <path d="M102.25,52c-.18.18-2.42.23-2-.5,1.68-2.89,3.03-.53,2,.5Z"/>
      <path d="M107.25,52l-2,2c-.26-2.11-.11-2.26,2-2Z"/>
      <path d="M102.25,57c-2.11.26-2.26.11-2-2l2,2Z"/>
      <path d="M96.25,24c-1.31,1.57-1.31-4.57,0-3,.1.12.1,2.88,0,3Z"/>
      <path d="M99.25,117l-2,2c-.26-2.11-.11-2.26,2-2Z"/>
      <path d="M17.25,89c-2.11.26-2.26.11-2-2l2,2Z"/>
      <path d="M104.25,117l-2,2c-.26-2.11-.11-2.26,2-2Z"/>
      <path d="M106.25,131c-.18.18-2.42.23-2-.5,1.68-2.89,3.03-.53,2,.5Z"/>
      <path d="M73.25,3c-.18.18-2.42.23-2-.5,1.68-2.89,3.03-.53,2,.5Z"/>
      <path d="M84.25,104c-2.11.26-2.26.11-2-2l2,2Z"/>
      <path d="M71.25,109c.18.18.23,2.42-.5,2-2.89-1.68-.53-3.03.5-2Z"/>
      <path d="M98.25,13c-.67.8-1.64-1.24-1-2,.67-.8,1.64,1.24,1,2Z"/>
      <path d="M120.25,13c-.67.8-1.64-1.24-1-2,.67-.8,1.64,1.24,1,2Z"/>
      <path d="M73.25,30c-.67.8-1.64-1.24-1-2,.67-.8,1.64,1.24,1,2Z"/>
      <path d="M159.25,157c.8.67-1.24,1.64-2,1-.8-.67,1.24-1.64,2-1Z"/>
      <path d="M44.25,35c.8.67-1.24,1.64-2,1-.8-.67,1.24-1.64,2-1Z"/>
      <path d="M51.25,46c1.2-1.43,1.29,3-.5,3-1.35,0,.37-1.13.5-1.5.2-.56-.16-1.3,0-1.5Z"/>
      <path d="M63.25,144c1.2-1.43,1.29,3-.5,3-1.35,0,.37-1.13.5-1.5.2-.56-.16-1.3,0-1.5Z"/>
      <path d="M150.25,51c-.67.8-1.64-1.24-1-2,.67-.8,1.64,1.24,1,2Z"/>
      <path d="M93.25,50c.8.67-1.24,1.64-2,1-.8-.67,1.24-1.64,2-1Z"/>
      <path d="M16.25,60c.8.67-1.24,1.64-2,1-.8-.67,1.24-1.64,2-1Z"/>
      <path d="M91.25,75c.8.67-1.24,1.64-2,1-.8-.67,1.24-1.64,2-1Z"/>
      <path d="M102.25,123c-.67.8-1.64-1.24-1-2,.67-.8,1.64,1.24,1,2Z"/>
      <path d="M5.25,98c.8.67-1.24,1.64-2,1-.8-.67,1.24-1.64,2-1Z"/>
      <path d="M150.75,107c.65,0,.65,1,0,1s-.65-1,0-1Z"/>
      <path d="M100.75,108c.65,0,.65,1,0,1s-.65-1,0-1Z"/>
      <path d="M119.75,98c.65,0,.65,1,0,1s-.65-1,0-1Z"/>
      <path d="M5.75,92c.65,0,.65,1,0,1s-.65-1,0-1Z"/>
      <path d="M9.75,89c.65,0,.65,1,0,1s-.65-1,0-1Z"/>
      <path d="M3.75,88c.65,0,.65,1,0,1s-.65-1,0-1Z"/>
      <path d="M142.75,86c.65,0,.65,1,0,1s-.65-1,0-1Z"/>
      <path d="M15.75,118c.65,0,.65,1,0,1s-.65-1,0-1Z"/>
      <path d="M5.75,121c.65,0,.65,1,0,1s-.65-1,0-1Z"/>
      <path d="M10.75,81c.65,0,.65,1,0,1s-.65-1,0-1Z"/>
      <path d="M27.75,72c.65,0,.65,1,0,1s-.65-1,0-1Z"/>
      <path d="M102.75,131c.65,0,.65,1,0,1s-.65-1,0-1Z"/>
      <path d="M12.75,67c.65,0,.65,1,0,1s-.65-1,0-1Z"/>
      <path d="M129.75,60c.65,0,.65,1,0,1s-.65-1,0-1Z"/>
      <path d="M86.75,136c.65,0,.65,1,0,1s-.65-1,0-1Z"/>
      <path d="M116.75,136c.65,0,.65,1,0,1s-.65-1,0-1Z"/>
      <path d="M102.75,59c.65,0,.65,1,0,1s-.65-1,0-1Z"/>
      <path d="M66.75,56c.65,0,.65,1,0,1s-.65-1,0-1Z"/>
      <path d="M34.75,52c.65,0,.65,1,0,1s-.65-1,0-1Z"/>
      <path d="M99.75,49c.65,0,.65,1,0,1s-.65-1,0-1Z"/>
      <path d="M104.75,48c.65,0,.65,1,0,1s-.65-1,0-1Z"/>
      <path d="M35.75,46c.11,0,1.5,1.39,1.5,1.5,0,1.42-2.92-1.5-1.5-1.5Z"/>
      <path d="M62.75,41c.65,0,.65,1,0,1s-.65-1,0-1Z"/>
      <path d="M40.75,41c.65,0,.65,1,0,1s-.65-1,0-1Z"/>
      <path d="M19.75,40c.11,0,1.5,1.39,1.5,1.5,0,1.42-2.92-1.5-1.5-1.5Z"/>
      <path d="M18.75,148c.65,0,.65,1,0,1s-.65-1,0-1Z"/>
      <path d="M16.75,153c.65,0,.65,1,0,1s-.65-1,0-1Z"/>
      <path d="M109.75,19c.65,0,.65,1,0,1s-.65-1,0-1Z"/>
      <path d="M110.75,14c.65,0,.65,1,0,1s-.65-1,0-1Z"/>
      <path d="M68.75,13c.11,0,1.5,1.39,1.5,1.5,0,1.42-2.92-1.5-1.5-1.5Z"/>
      <path d="M15.75,3c.65,0,.65,1,0,1s-.65-1,0-1Z"/>
      <path d="M41.25,114c-1.42,1.42-3.51-1.24-.5-3,.77-.45.65,2.85.5,3Z"/>
      <path d="M42.25,109c-.42.52-2.81-2-2-3,.42-.52,2.81,2,2,3Z"/>
      <path d="M50.75,141c.65,0,.65,1,0,1s-.65-1,0-1Z"/>
    </g>
  </g>
</svg>