<?xml version="1.0" encoding="UTF-8"?>
<svg id="Layer_2" data-name="Layer 2" xmlns="http://www.w3.org/2000/svg" viewBox="0 0 119.53 170.33">
  <g id="Elements">
    <g id="Element">
      <path d="M66.37,110.31l4.5-4c4.91-3,10.09-11.3,12.5-16.5,1.77-3.83,5.69-13.38,9.5-15.5.47-.26,1.31.19,1.5,0s-.26-1.03,0-1.5c1.68-3.02,4.79-2.29,5-2.5.19-.19-.19-1.81,0-2,.33-.33,4.24.27,5.5,0,.29-.06,4.49-2.65,5-3,1-.69,1.61-2.38,3-2,.4.11.62.92,1,1,.92.19,2.18-.23,3,0,1.94.54,3.08,6.39,2.5,8.5-.13.46-1.54,1.32-2,2-.98,1.44-4.89,5.61-5,6-2.79,9.45-7.1,10.04-13,17-.68.81-1.87,2.63-3,4-5.37,6.53-9.3,13.39-14,20-.48.67-5.06,6.38-5.5,6.5-1.34.37-3.67-.37-5,0-.82.22-4.39,5-6,5-.17,0-1-1.58-3-1-.47.13-1.32,1.54-2,2-.24.16-.79-.15-1,0-.66.48-4.41,4.19-4.5,4.5-.19.66.23,1.5,0,2-.3.65-1.87,2.54-2,3-.73,2.68-1.27,6.32-2,9-.61,2.25-4.09,6.52-5,9-.6,1.64-.58,4.49-1,6-.05.17-2.33,2.45-2.5,2.5-1.03.29-2.68-1.75-4.5-1,1.77-2.04.54-4.44,1-6.5.08-.38.87-.59,1-1,1.96-6.04,4.04-14.92,3-22-.05-.37-.91-.6-1-1-.21-.89.23-2.16,0-3-.14-.5-1.62-1.31-2-2-.26-.47.19-1.31,0-1.5-.39-.39-.98,1.08-3-2.5-2.09-3.69-4.56-8.18-7-12-.85-1.33-4-2.13-4-3,0-.33.94-.62,1-1,.35-2.1-.27-4.8,0-7,.1-.78,1.9-5.22,2-6,.3-2.43.12-9.76-2.5-10.5-1.12-.32-2.33,1.67-4,1-1.47,2.12-3.46,2.42-6,2-.38-.06-.67-1-1-1-.15,0-1.66,1.84-2.5,1-.13-.13.13-2.53-1.5-3-4.99-1.43-4.88-4.54-7.5-8.5-2.13-3.22-5.51-3.53-4-9,.52-1.88,6.59-4.51,7-6,.29-1.07-.25-2.81,0-4,.6-2.89,1.04-3.17,1-6-.01-.74,3.65-4.76,3-7-.16-.56-2-1.61-2-2,0-.33.93-.62,1-1,.16-.95-.22-2.19,0-3,.19-.68,4.06-3.8,5-5,.16-.2-.17-.78,0-1,1.45-1.92,3.01-3.07,5.5-2.5.39.09.6.89,1,1,.93.26,4.08-1.79,5-2,2.61-.61,5.07,1.34,6.5,3.5.27.41.72,2.57,1,3,1.83,2.86,3.05,2.08,5.5,2.5.38.07.66,1,1,1,.45,0,1.52-2.45,3-2,2.43.73,1.06,4.9,1.5,6.5.13.48,3.1,2.38,3.5,2.5,1.32.38,1.68-1.38,3-1,.57.17,1.68,2,2.5,2.5,3.95,2.42,2.59-.95,3-3,1.16-5.79.83-12.19,2-18,.08-.39,1.36-.68,1-2-.12-.45-1.67-1.34-1-3-2.32-2.15-1.04-6.3-4.5-3.5-2.79,2.26-.93,6.43-1.5,7-.11.11-2.89.1-3,0-.1-.09.28-1.99-1-2.5,3.06-3.1,1.64-7.1,2-11,.03-.36.97-.64,1-1,.39-4.25-1.51-8.94,2.5-11.5.44-.28,2.52-.71,3-1,.92-.55,2.82-2.75,4-3,6.81-1.47,4.86,2.63,5.5,6.5.32,1.94-.28,3.09,0,4,.4,1.32,1.57,3.67,2,5,.19.59-.18,1.37,0,2,.58,2.03,3.32,1.18,4.5,1.5,1.57.43,5.57,3.69,7,4s3.47-.25,5,0c.38.06.67,1,1,1,1.41,0,1.3-2.8,1.5-3.5.3-1.08,2.92-2.93,4.5-2.5,2.44.66.24,2.63.5,3.5.12.42,1,.68,1,1s-.94.62-1,1c-.78,4.72,3.3,7.91,3,9-.11.4-.91.62-1,1-.37,1.67.27,4.16,0,6-.05.37-.92.61-1,1-1.05,5.25-2.5,9.77-4,15-.46,1.58-7.33,6.01-8,9-.61,2.72-.16,6.91-1,10-.69,2.53-6.22,9.97-8,13-1.49,2.53-4.6,7.78-5,10-.44,2.48-.26,5.5,0,7,.49,2.87-.65,3.39-2,5.5ZM50.37,74.31l-4,3.5c-.96,2.4-.4,6.08-2,8l-1,7.5c2.7.35,3.62-2.35,3-4.5-.12-.42-1-.68-1-1s.89-.59,1-1c.31-1.16.32-2.86,1-4s3.76-3.18,4-4c.55-1.88-1.29-2.75-1-4.5ZM48.37,125.31c.16.16,3.89.17,4.5,0,.17-.05,2.27-2.11,2.5-2.5.13-.22-.14-.69,0-1,.19-.43.9-.63,1-1,1.09-3.95.94-9.01,2-13,1.03-3.87,4.47-9.36,5-13,.3-2.04.17-5.84,0-8-.39-4.94-3.43-4.41-6-1-.43.57-2.68,4.21-3,5-2.38,5.96-1.42,12.2-3,18-.12.44-1.92,2.62-2,3-.63,2.93-.25,6.35-1,10-.14.66-.12,3.38,0,3.5ZM41.37,95.31c-1.82-1.86-5.54,3.22-6,4.5,1.59.73.76,3.26,1,3.5.58.56,3.64-.26,4-1.5-.24-1.51,1.96-5.52,1-6.5Z"/>
    </g>
  </g>
</svg>