<?xml version="1.0" encoding="UTF-8"?>
<svg id="Layer_2" data-name="Layer 2" xmlns="http://www.w3.org/2000/svg" viewBox="0 0 173.13 149.05">
  <g id="Elements">
    <g id="Element">
      <path d="M95,28l-4-4.5c.91-2.02-.94-4.55-1-5-.57-4.61.37-7.21-1-12-.36-1.25,1.52-1.87,1-3.5,1.8-.38.7,1.66,1,2,.43.48,1.08-.84,1.5-1,2.06-.77,1.28,1.11,1.5,1.5.69,1.22,6.48,4.12,7,6,.23.85-.23,2.15,0,3,.15.55,1.85,1.45,2,2,.23.82-.19,2.08,0,3,.08.38.89.6,1,1,.36,1.32-.91,1.6-1,2-.55,2.47.44,6.34,0,9-.34,2.06,0,1.47,0,2,0,.65-3.58,1.78-.5,3.5.35.2,2.33-.48,1.5,1.5-1.27,3.04-.35,1.42,0,3,.52,2.32-.37,5.95,0,8.5l3-2.5c.1-3.3.44-6.84,1-10,1-5.64,3.31-12.04,3-18-.1-1.82.24-2.86-1-4.5l3,3.5c.54,6.23,4.67,7.86,6,.5,1.07-.33,2.78.68,3,1.5.48,1.78.18,9.61,0,12-.03.36-.96.64-1,1-.24,2.41.17,5.06,0,7.5,3.26.3,2.48-1.88,3-3.5.28-.88,4.79-6.24,5-7,.27-.96.16-4.76,0-6-.05-.37-.92-.61-1-1-.14-.66-.12-3.38,0-3.5.11-.11,2.89-.11,3,0,.26.26-.19,3.38,0,4.5.06.38,1,.66,1,1,0,.25-1.5,1.09-1,1.5.14.11,3,.19,3,1.5,0,.18-2.05,1.08.5,2.5.64.35,2.39-.7,1.5,2.5-1.32,4.74-.3,8.83-2,13l.5,9.5,2.5-4.5c.91-4.18,1.11-8.87,2-13,.24-1.11,2.9-3.65,3-4,.56-1.95,1.78-5.17,3-7,.74-1.11,10.69-11.5,11.5-11.5.4,0,3.04,3.35,4,4s-.25-2.54,1.5-2c-.71,1.45,1.15,3.86,1,4-.28.27-4.1-.84-3,1.5,1,2.13,4.15.4,3,4.5l-2-2c-.16,2.33,2.63,4.36,2,6.5-.14.47-1.88,2.56-2,3-1.51,5.53-2.62,13.89-6,19-.9,1.35-3.29,2.73-4,4-.26.47.19,1.31,0,1.5-.21.21-3.77-.03-5.5,1-.39.23-2.45,2.32-2.5,2.5-.18.63.19,1.41,0,2-.13.41-.93.63-1,1-1.21,6.81-.56,8.88-5,15-1.13,1.55-7.79,8.28-8,9-.66,2.31-.6,5.75-4,5.5.48,1.18-1.7,3.26-1,4,1.46,1.53,4.04-1.87,4.5-2,.73-.21,2.29.21,2.5,0,.27-.27-.25-2.59,0-3.5.17-.61,2.4-2.08,3-3,.27-.41.73-2.6,1-3,.7-1.04,2.46-2.02,3-3,.21-.37-.52-2.3,1.5-1.5.55.22,2.05,2.56,2.5,2,1.02-1.26-1.19-4.84-1-5.5.16-.56,1.84-1.44,2-2,1.02-3.54,3.09-7.52,5-11,.77-1.4,2.83-1.74,2-4.5l2,2-.5-3c1.55.27,2.65-.17,3.5-1.5.56-.87,2.51-4.8,3-6,.23-.56-.22-1.4,0-2,.14-.39.83-.59,1-1,.22-.54-.17-1.33,0-1.5.12-.12,2.94-.15,3.5,0,.5.14,5.45,3.84,6,4,.72.21,2.29-.21,2.5,0,.25.25-.21,2.56,0,3.5.08.36,1.93,2.66,2,3,.18.83.16,3.13,0,4-.07.37-.89.6-1,1-.2.74.21,2.29,0,2.5-.19.19-1.81-.19-2,0-.28.28,1.71,4.94,1,7.5-.15.55-1.84,1.44-2,2-.19.66.23,1.5,0,2-1.92,4.1-2.82,5.71-4,10-.2.73-3.77,2.37-5,4-4,5.31-7.18,11.24-11,17-.9,1.35-3.29,2.73-4,4-1.38,2.48-1,.64-2,4-.09.31-4.19,4.41-4.5,4.5-1.29.37-2.09-1.48-2.5-1-.18.21.42,5-1.5,5-.31,0-.56-.82-1-1-2.21-.88-1.31,1.81-1.5,2-.33.33-4.25-.28-5.5,0-.38.09-.6.89-1,1-1.36.37-1.61-.96-2.5-1.5-1.67-1.02-4.82.28-2.5-3.5,1.2-1.95.95-2.26,1.5-3.5.38-.85,3.21-4.33,3-4.5-.17-.14-3.9-.17-4.5,0-.7.19-2.28,2.79-3,3-.62.18-1.38-.17-2,0-.49.14-2.91,3.48-4.5,2-.82-.77,2.54-4.45,3-5.5.24-.55-.23-1.42,0-2,.49-1.22,3.74-4.5.5-5.5-1.99-.61-3.23,4.28-5,5-.65.81-2.59,2.8-3.5,2-.68-.6,3.45-2.87,3-4.5s-2.87-1.37-3-1.5c-1.14-1.14,1.2-4.83,1-5-.18-.15-4,.18-4-1.5,0-.33.93-.62,1-1,.16-.94-.18-2.1,0-3,.58-2.83,2.64-7.53,3-10,.24-1.62.34-8.73,0-10-.22-.83-2.49-2.06-3-1.5-.29.31-.19,7.38,0,8.5.06.38,1,.66,1,1,0,.18-1.84,2.5-2,3-.23.7.22,2.28,0,2.5-.31.31-3.65-.31-4,0-1.14,1.02,1.88,3.05,2,3.5.59,2.17-.93,5.27,1,7.5-1.45,1.37-6.68-7.22-8-2.5-.29,1.03,2.41,3.68,3,5,.23.51-.19,1.34,0,2,.37,1.29,3.63,1.71,4,3,.19.66-.23,1.49,0,2,.93,2.06,2.66,3.13,2,6-.09.39-.89.6-1,1-.17.61,2.02,4.48,1,5.5-.37.37-3.76-.74-4.5,1-2.03,0-5.74,1.03-5.5,4l4.5-1c2.83.48,7.55-.67,10,0,.24.07,3.43,3.26,3.5,3.5.5,1.83.13,4.46-1.5,5.5-2.12,1.35-4.81,2.66-7,4-5.47,3.36-5.2,3.87-12,5-.38.06-.67,1-1,1s-.59-.89-1-1c-1.3-.36-1.44.77-2,1-2.18.91-1.32-1.82-1.5-2-.83-.83-2.36.97-2.5,1-3.06.54-6.73.34-10,1-.38.08-.6.89-1,1-2.07.57-5.17-3.77-6-4s-2.15.23-3,0c-2.1-.58-3.27-4.77-3.5-5-.14-.15-3.83-.85-4-1-.48-.42,1.38-1.21,1-2.5-.16-.56-1.84-1.44-2-2-.18-.62.18-1.38,0-2-.22-.77-2.42-1.46-2-3,.28-1.02,5.68-2.73,4-4.5-.14-.15-3.08,1.94-4,1-.5-.51,1.27-4.01-2-3l-2,3,3,2-6-3,4,4.5c.38,1.37.03,6.85-2,4.5-.12-.14.41-1.67-1-3.5-7.54-9.8-17.98-19.18-27.5-26.5-3.32-2.55-6.1-4.88-10-6-.31-.09-4.5-4.18-4.5-4.5,0-.17,1.58-1,1-3-.47-1.63-2.87-1.37-3-1.5-.15-.15-.2-2.83-2-3.5.42-.74.87-3.37,1-3.5.57-.57,5.6,2.19,6.5,3,2.08-.92,6.44,1.15,7,1,6.62-1.82,6.48,2.49,12,4,.85.23,2.15-.23,3,0,4.3,1.17,9.49,4.7,14,6,1.32.38,1.67-1.38,3-1,.51.15,4.95,4.69,6,5,1.36.4,3.64.6,5,1,1.73.51,1.23,2.65,1.5,3.5.13.41.93.63,1,1,.38,2.13-.71,6.58,2.5,7.5.62.18,1.4-.19,2,0,.39.12,1.09,1.5,1.5,1,.2-.24-.19-1.77,0-2,.45-.52,1.38,1.66,2,.5-1.44-.57-.56-2.21.5-2.5.81-.22,7.19-.22,8,0,.33.09,2.9,2.76,4,3,2.95.63,4-.18,7,2,2.18,1.59,3.1,3.72,4.5,5.5.83,1.05,1.54,1.79,3,1.5.31-2.15,1.63-4.21,1-6.5-.08-.31-3.97-4.18-4.5-4.5-1.14-.68-2.88-.68-4-1-4.62-1.32-8.07-2.12-13-3-.38-.07-.63-.95-1-1-1.71-.21-8.07.35-8.5,0-.5-.41.9-1.13,1-1.5.37-1.39-1.17-4.66-2.5-5.5-1.13-.71-5.62-4-6-4-.19,0-.77,1.41-3,0-1.49-.94-6.54-5.87-7-6-2-.57-2.83,1-3,1-.2,0-3.23-2.32-3.5-2-.91,1.08,2.33,5.2-3.5,4-.42-.09-7.2-2.7-7.5-3-.19-.19.27-1.03,0-1.5-.82-1.45-10.88-4.84-13.5-6.5-1.75-1.11-1.71-3.9-5-5-.7-.23-2.28.22-2.5,0-.25-.25.56-2.85-1-3.5l2-1c-.56-1.56-2.89-1.38-3-1.5-.22-.24.21-1.78,0-2.5-.24-.81-3.3-2.9-4-4,.5-.84,2.57-.6,3-2,.5-1.61-2.57-2.93-3-4-.88-2.21,1.81-1.31,2-1.5.16-.16.17-3.89,0-4.5-.15-.55-2-1.61-2-2,0-.33.93-.62,1-1,.16-.95-.22-2.18,0-3,.1-.39.87-.59,1-1,.27-.84-.22-3,1.5-3.5,1.96-.56,2.33.73,3,1,4.81,1.94,5.41,3.89,9,7,4.3,3.72,8.65,8.11,10.5,14.5l6,5.5c.26-2.04-.2-3.68-1-5.5-1.93-4.37-5.73-7.57-7-12-.51-1.77-11.57-11.94-14-15-.57-.72-1.27-3.15-3-4l-1-6,5.5-.5c.74,1.74,4.13.63,4.5,1,.18.18.24,2.72,2.5,4,.46.26,1.26-.18,1.5,0,.17.13.07,3.79,3,3,0-1.5-2.86-3.99-3-4.5-.19-.67.24-1.52,0-2-1.35-2.68-4.04-4.17-3-8,.68-2.5,3.32-.66,5-.5-.5,1.65.68,1.81,1,2.5.29.62.72,2.58,1,3,.61.92,5.09,5.49,6,4.5.25-.28.12-6.29,0-7.5-.16-1.54-1.3-1.94-1-3,.79-2.82,3.29-.54,3.5-.5,4.81.81,3.06-.49,3.5-3.5.57-3.88,4.36-3,4,1-.14,1.55-1.31,1.93-1,3,.14.5,1.56.91,1,2l3,2.5c.62-2.35-3.47-7.45-2-9,.77-.82,3.09,2.02,4,.5.62-1.17,1.54,1.02,2,.5,1.07-1.2-1.01-3.32-1-3.5.02-.34.88-.59,1-1,.29-1.03-1.75-2.68-1-4.5l4,5.5c-1.05,5.08,1.06,4.76,2,7,.69,1.65,3.89,4.61,4,5,.58,2.09.3,6.45,1,9,.1.35,3.61,4.29,4.5,5.5,3.23,4.4,4.51,1.43,3-3-1.67-4.9-1.53-6.99-2.5-11.5-.07-.34-1.93-2.66-2-3-.34-1.58-.17-6.15,0-8,.03-.36.96-.63,1-1,.24-2.17-.41-5.09,0-7,.2-.93,2.57-2.97,2-4.5,1.1-.08,1.87,1.83,2.5,2,2.26.62,4.81-1.58,8-1,.37.07.59.87,1,1,.59.19,1.37-.18,2,0,.54.15,2.2,2.83,2.5,3.5.24.55-.24,1.43,0,2,2.49,5.94,2.91,6.38,4,13,.52,3.13,3.35,6.62,4,9,1.18,4.31-.15,10.82,1,15,.15.55,1.84,1.44,2,2,.52,1.79-.86,4.7,3,4.5l-1-4.5c-1.44-5.17,2.93-11.86,2-16-.74-3.3.73-5.72,0-9-.23-1.03-1.32-4.94-1-6,.15-.51,1.56-.91,1-2l-2-2.5v17ZM93,12c.82-1.02-.92-2.22-1-2.5-.16-.56.09-3.81-1-2.5s1.18,6.01,2,5ZM82,42c-1.77-2.36-.65-4.97-1-7.5-.62-4.49-2.71-12.28-4-17-.11-.4-2.11-3.46-2.5-3.5-3.83,2.69,1.1,4.06,1.5,5.5.78,2.82-1.47,5.46-1,7,.65,2.14,3.74,5.77,4,7,.61,2.85-1.84,8.48,3,8.5ZM115,37c.15-.15.27-3.45-.5-3-3.01,1.76-.92,4.42.5,3ZM62,48c1.04-1-1.55-2.83-2-3.5-.16-.24.15-.8,0-1-.65-.87-1.94-2.17-3-2.5.12,1.68-.43,3.46.5,5,.75,1.25,3.52,2.94,4.5,2ZM41,47c1.24-1.24-1.28-6.72-3-5-1.24,1.24,1.28,6.72,3,5ZM50.5,44c-.65,0-.65,1,0,1s.65-1,0-1ZM68,73c-.2-.2-2.58.72-4-1.5-4.02-6.3-10.81-13.08-16-19-.16-.19.17-.81,0-1-.71-.83-4.07-4.53-5-3.5-1.04,1.16.69,3.04,1.5,4,1.57,1.85,8.14,8.2,8.5,9.5s-.37,3.67,0,5c.5,1.82,7.19,6.34,8.5,7.5,5.56,4.95,7.65,11.82,13.5,16.5-.73,1.74,4.45,4.06,5,3.5.91-.92-1.49-4.08-1-5.5-3.25-3.84-7.7-8.94-10-13-.7-1.23-.9-2.4-1-2.5ZM81,62c.79-2.36-1.57-4.11-2-5.5-.57-1.84,1.55-3.11,1-5-.22-.74-3.85-2.68-4-2.5-.63.76.22,7.28,1,8.5l4,4.5ZM110,76l3-4.5c.36-3.85,2.7-7.82,2-12-.06-.38-1-.67-1-1s.94-.62,1-1c.42-2.53-.3-5.84,0-8.5l-3,3.5c.76,1.59-1.34,2.78-1,4,1.47,5.32-.23,10.09-1.5,15.5l.5,4ZM37,50c-.76-.64-2.8.33-2,1,.76.64,2.8-.33,2-1ZM68,59l-5-1c2.92,5.19,4.23,12.02,11,13v-6.5c-1.62-.77-.71-3.15-1-3.5-.46-.56-2.16,2-2.5,2-.18,0-2.28-2.11-2.5-2.5-.26-.47.19-1.31,0-1.5ZM78,65c-1.27-1.27-4.92,2.63-1.5,4,2.29.92,1.69-3.81,1.5-4ZM99.5,66c-.65,0-.65,1,0,1s.65-1,0-1ZM11,67c-.76-.64-2.8.33-2,1,.76.64,2.8-.33,2-1ZM106,71l-2-2c-.26,2.11-.11,2.26,2,2ZM154.5,71c-.65,0-.65,1,0,1s.65-1,0-1ZM127.5,75c-.65,0-.65,1,0,1s.65-1,0-1ZM147.5,78c-.65,0-.65,1,0,1s.65-1,0-1ZM149,81c-1.44.72-3.87-1.16-4-1-.4.47.77,3.72-1,4.5.45,3.04,1.27,6.29,3.5,8.5l1.5-3.5c.81-2.16-3.42-4.63-2-6.5.2-.26,2.98.86,2-2ZM91,98c.66-.65-3.97-9.95-4-11.5l-4-3.5,3,8.5c.5.76,2.98,2.61,3,3,0,.16-1.29.75-1,3,.12.89,2.89.61,3,.5ZM116,91c-4.25-.13-2.42,3.39-3,5.5-.18.66-4.29,3.32-3,4.5.26.24,6.75.25,7,0,.23-.23.13-5.41,0-6.5-.18-1.55-1.28-1.92-1-3.5ZM151,98c1.04-1.29-1.41-4.73-2-4-1.04,1.29,1.41,4.73,2,4ZM83,97c-.55-.6-3.02.9-3,1.5,0,.35,1.63,1.34,2,2,.29.52,2.18,6.47,4,4.5,1.23-1.33-2.8-3.75-3-4.5-.25-.92.27-3.2,0-3.5ZM92.5,98c-.65,0-.65,1,0,1s.65-1,0-1ZM120,110c.64-.76-.33-2.8-1-2-.64.76.33,2.8,1,2ZM51,115c-1.09-1.09-3.09.91-2,2s3.09-.91,2-2ZM95,125c1.03-1.03-.32-3.39-2-.5-.42.73,1.82.68,2,.5ZM129,124c-.12-.1-2.88-.1-3,0-1.57,1.31,4.57,1.31,3,0ZM56,132c-1.14,1.14,2.12,4.48,3,1.5,1.07-3.59-.13-2.11-1.5-1.5-.53.23-1.32-.18-1.5,0ZM70,135c-1.09-1.09-3.09.91-2,2s3.09-.91,2-2ZM85,136c-2.66-2.66-2.66,5.66,0,3,.11-.11.11-2.89,0-3Z"/>
      <path d="M54,139l-3-3c1.9-.29,3.29,1.1,3,3Z"/>
      <path d="M172,52c-.67.8-1.64-1.24-1-2,.67-.8,1.64,1.24,1,2Z"/>
      <path d="M44.5,91c.65,0,.65,1,0,1s-.65-1,0-1Z"/>
    </g>
  </g>
</svg>