<?xml version="1.0" encoding="UTF-8"?>
<svg id="Layer_2" data-name="Layer 2" xmlns="http://www.w3.org/2000/svg" viewBox="0 0 187.09 171.02">
  <g id="Layer_1-2" data-name="Layer 1">
    <g id="Element">
      <path d="M162,5c.17.17.96-.22,1.5,0,.43.18.65.94,1,1,2.45.43,6.32-1.46,5.5,2,1.79.4.72-1.74,1-2,.9-.82,2.33.96,2.5,1,2.29.53,4.35-1.18,4.5-1,.3.35-.21,3.45,0,4.5-1.16,2.55-3.29-.21-4,.5-1.78,1.77,2.79,4.78,3,5.5.17.61-.17,1.37,0,2,.11.41,1,.67,1,1,0,.73-2.92,3.71-3,4-.52,1.81-1.41,5.14-1,7,.08.38.88.6,1,1,.38,1.32-1.38,1.68-1,3,1.28,4.44,2.91,8.53,2,14-.48,2.92.61,2.18,1,4,.73,3.37-.27,5.81,1,10,.74,2.43-2,3.6-2,4,0,.29,2.06,1.26,0,3.5,1.63-.55,2.02.87,2.5,1,1.16.3,3.64-1.98,4-2,.18-.01,1.76,1.78,3.5,1-.62,2.18,1.53,3.67,1,5.5-.07.25-2.46,2.93-3,4-.24.48.19,1.33,0,2-.45,1.57-4.14,1.92-3,7,.08.35.8.57,1,1,.24.52.3,2.14,1.5,2.5,1.46.43,3.5-.97,2.5,2.5-.47,1.63-2.89,1.38-3,1.5-.53.58,1.71,5.92,1,8.5-.15.55-1.83,1.44-2,2-.21.72.21,2.29,0,2.5-.19.19-1.03-.27-1.5,0-2.5,1.42-1.09,4.21-1.5,6.5-.03.17-.79,2.43-1,3-.14.39-.83.59-1,1-.22.54.17,1.33,0,1.5-.25.25-2.72-.26-3,0-.6.55.89,3.01,1.5,3,.26,0,1.09-1.5,1.5-1,.3.37.2,8.31,0,9.5-.06.38-1,.67-1,1,0,.47,2.81,2.32,3,3,1.18,4.28-.75,13.8,0,19,.06.43,1.64,1.66,1,4-.44,1.61-4.1,1.89-5.5,1.5-.55-.15-1.44-1.84-2-2-2.54-.73-3.15,1.77-4,2-2.1.58-4.31.33-3.5-2-1.1-.08-1.87,1.83-2.5,2-.97.27-4.56-2.92-6.5.5-1.53,2.69-1.47.97-2,1.5-.19.19.19,1.81,0,2s-1.81-.19-2,0,.19,1.81,0,2c-.25.25-3.38-.18-4.5,0-2.59.41-6.4,1.47-9,2-.66.14-3.38.12-3.5,0-.49-.49,1.26-4.02-2-3l-2,3c3.46-3.45-2.2-3.8-3-3-.13.13.12,2.55-1.5,3-.73.2-7.21.24-7.5,0-.5-.41,1-1.25,1-1.5-.02-1.57-2.05,1.38-2.5,1.5-2.26.62-6.34-1.61-5.5,2-1.62.3-.82-2.54-2.5-3-2.49-.68-4.28,1.52-6,1-9.35-2.84-14,2.57-21,1-.96-.21-8.4-2.18-9-2-1.93.59-3.09,1.48-6,1-.69-.11-5.2-1.23-6-1s-1.46,2.42-3,2c-2.55-.7-3.4-.62-6-1-.18-.03-2.27-2.01-3.5-1-.34.28,3.01,3.15-.5,3-2.43-1.16-.24-2.79-.5-3-.66-.52-6.78.48-8.5,0-.84-.23-1.5-2.76-4-2s-4.72.38-7,0c-1.12-.19-4.24.26-4.5,0-.49-.49,1.48-4.11-2.5-3-.41.11-.63.93-1,1-3.63.66-6.41-1.75-10-2-.77-1.14-5.37-6.02-5.5-6.5-.5-1.82-.5-5.18-1-7-.16-.58-4-4.68-4-5,0-.38,2-1.62,2-2,0-.43-2.12-1.47-2-2.5,2.1.79,3.35-2.66,4.5-3,.72-.21,2.29.21,2.5,0,.19-.19-.26-1.03,0-1.5,1.05-1.88,4.65-1.13,2.5-3.5-1.11.54-1.53-.88-2-1-1.52-.4-2.89,3.06-5.5,2l-1-3.5c-.06-1.04,1.73-.27,2-.5.32-.27-2-3.3-2-3.5.01-.7,4.47-3.29,4-5-.15-.55-1.84-1.44-2-2-.73-2.54,1.77-3.15,2-4,.62-2.23-2.73-.82,1.5-3.5.63-.4,2.5-3.28,2.5-3.5,0-.39-1.84-1.44-2-2-.45-1.56,1.07-2.16,0-6s1.9-2.08,4.5-2.5c.38-.06.62-.94,1-1,6.11-.99,4.01,1.51,4.5,2,.16.16,3.78.16,4.5,0,.4-.09,3.22-2.33,3.5-2,.3.36.07,3.08-.5,4-.7,1.14-2.91,2-2.5,3.5.16.57,1,2.79,1,3,0,.33-.89.59-1,1-.17.63.17,1.39,0,2-.09.31-3.76,3.86-4.5,4.5-.2.17-.83-.16-1,0-1.12,1.01-7.35,6.99-7.5,7.5-.27.88.93,2.33,1.5,2.5,1.99.58,2.84-1.01,3-1,.34.02.59.88,1,1,3.8,1.07,5.73-4.66,9-6l.5,6c1.11-1.2,3.85-.86,4-1,.33-.29-2.52-2.08.5-4,.24-.15.76.15,1,0,1.99-1.27,1.48-4.97,5.5-4,.98,2.86-1.8,1.74-2,2-.74.97-.68,4.33-1,5.5-.3,1.08-4.56,2.39-5,4-.18.66-.19,5.31,0,5.5.17.17.96-.22,1.5,0,.41.17.61.86,1,1,.59.22,1.42-.22,2,0s2.51,1.86,3,2c1.35.39,6.32-2.03,9-1l4.5-1c.98,2.86-1.8,1.74-2,2-.71.93-.72,4.23-1,5.5-.09.39-.94.63-1,1-.89,5.8.04,6.91,5.5,4.5,1.7-.75,6.58-3.06,8-4,1.13-.75,3.28-3.8,4-4,.66-.18,5.31-.19,5.5,0,.33.33-.25,5.09,0,6.5.06.35.82.57,1,1,.22.54-.17,1.33,0,1.5.19.19,1.03-.26,1.5,0,.92.51,10.75,10.37,11.5,11.5.27.41.73,2.59,1,3,1.12,1.69,4.66,4.62,6.5,5.5,2.09,1,1.67-2.71,1.5-3.5-.5-2.29-1.32-5.52-2-8-.12-.44-1.91-2.61-2-3-.4-1.79,1.1-5.5,2.5-5.5.39,0,5.4,5.13,5.5,5.5.22.81-.15,2.05,0,3,1.25.68,1.03,4.5,2.5,4.5s1.25-3.82,2.5-4.5c.21-.56-.18-1.36,0-2,.13-.44,6.06-6.38,6.5-6.5.33-.09,2.65.79,3,1,1.33.8,2.63,3.09,4,4,.22.15.75-.16,1,0,.86.53,2.17,1.6,3,2,2.58,1.23.78-3.67,2-4,1.35,1.37,3.1,2.39,2.5,4.5-.18.63-2.01.91.5,2.5.26.16.8-.14,1,0,.67.48,1.55,1.87,2,2,.62.18,1.38-.18,2,0,.72.21,2.45,2.86,3.5,3.5.94.57,3.71.78,4,.5.52-.51-.83-2.38-1-3.5-.19-1.25.26-2.86,0-4-.08-.36-.8-.57-1-1-.14-.31.13-.78,0-1-.29-.49-1.98-2.17-2.5-2.5-.43-.28-5.67-2.93-6-3-1.26-.27-5.17.33-5.5,0-.19-.19.19-1.81,0-2-.27-.27-2.59.25-3.5,0-1.9-.52-2.98-5.98-2.5-8,1.96-.2.66,2.29,1,3.5.16.58,2.7,2.09,3.5,2.5,1.93.99,1.52-1.63,1.5-2.5-.02-.95.2-2.28,0-3-.62-2.23-6.38-4.23-8-6,1.2-.88,4.57-3.76,5.5-3.5.55.15,1.44,1.84,2,2,1.32.38,1.68-1.38,3-1,2.31.67,1.18,4.65,1.5,6.5.06.35.82.57,1,1,.91,2.18-1.82,1.32-2,1.5-.11.11-.11,2.89,0,3,.25.25,2.75-.25,3,0,.19.19-.19,1.81,0,2,.17.17.96-.22,1.5,0s2.51,1.99,3.5,1c.3-.3.19-7.38,0-8.5-.06-.38-1-.67-1-1,0-.18,2.08-2.25,2.5-2.5.22-.13.69.14,1,0,1.22-.56,1.72-1.51,4-1,1.59.35,2.83,2.74,6,2,4.62-1.08,10.45-1.69,16,0,1.42.43,5.43-2.06,6.5-1,.59.58-1.92,3.95-1,5,.14.16,2.56-1.72,4-1,.02-2-.69-3.47,1.5-3l3.5-4-4.5-1c-2.59-4-5.2-.15-9-1-4.27-.96-2.27.52-4,1-1.28.35-3.82-2.63-6-2-.93.27-2.44,3.27-5.5,2-.72-3.52,3.19-.5,2-4.5-.56-1.88-4.37-1.45.5-5.5,1.6-1.33,3.24-2.87,5-4,2.38-1.52.18-2.43,3-4,.39-.22,2.49-2.32,2.5-2.5s-1.55-1.02-1-2.5c-2.22-.66-3.3,2.57-4.5,3-1.91.69-3.83-.84-2.5-2,.14-.12,1.67.41,3.5-1,3.81-2.93,2.33-.19,5-1s5.38-3,9-2c1.39.38,1.29,3.7,4,0,3.46.35,7.23-2.18,9.5-5-3.2.55-8.71-.77-11.5,0-.55.15-1.45,1.85-2,2-3.34.92-7.64,1.33-11,2-2.01.4-5.13.48-7,1-.51.14-1.31,1.63-2,2-3.15,1.7-2.41.54-4.5,3.5-1.8,2.55-6.69,5.65-8,8-.26.47.19,1.31,0,1.5-.17.17-.96-.22-1.5,0-.43.18-.65.94-1,1-1.79.32-4.12-.25-6,0-.37.05-.63.95-1,1-3,.41-3.89.06-7,1-1.91.58-2.33-.72-3-1-.54-.22-1.33.17-1.5,0-.34-.34.24-5.65,0-7l3,2.5c-.49,1.03.7,3.5,1.5,3.5.33,0,.62-.94,1-1,1.24-.21,2.85.25,4,0,.37-.08.57-.83,1-1,2.3-.91,4.83-1.7,6.5-3.5-.38-.98,2-3.72,2-4,0-.15-1.84-1.66-1-2.5.49-.49,3.4,1.58,5.5,1,.24-.07,3.43-3.26,3.5-3.5.51-1.77-1.27-3.28-1-3.5.99-.81,2.34.97,2.5,1,2.79.5,3.8-.88,6,0s1.31-1.81,1.5-2c.87-.87,5.07,1.86,6,1,1.1-1.01-1.64-2.84-2-3.5-.26-.47.19-1.31,0-1.5-.14-.15-3.86-.85-4-1-.19-.19.19-1.81,0-2s-1.81.19-2,0c-.92-.92,1.97-6.33,3-7.5-.39-.59-2-1.7-2-2,0-.61,4.03-2.25,3-6-.34-1.24-5.28-3.22-6-2.5-.14.14.27,5.68-2,3-1.02-1.2,1.19-4.85,1-5.5-.46-1.63-2.87-1.37-3-1.5-.18-.18-.18-4.82,0-5,.19-.19,1.03.26,1.5,0,.93-.52,2.32-2.81,3-3,1.77-.51,5.23,2,7.5,2l-3.5-4c-.52-1.28-2.4-.9-2.5-1-.14-.14-.39-1.68.5-2,1.57-.56,2.3-.99,3.5-2.5.24-1.35,3.04-7.44,2-8.5-.54-.55-3.65.23-4,1.5-.2.73.21,2.29,0,2.5-.19.19-1.03-.26-1.5,0-1.69.94-3.92,3.46-4.5,4.5-.2.37-2.33,2.45-2.5,2.5-.61.17-4.34.16-4.5,0-.19-.19.2-1.77,0-2-.38-.45-2.99,3.07-4,2-.69-.74,1.68-3.23,1-4-.14-.15-3.04,1.93-4,1-.54-.53.24-3.67,1.5-4,2.52-.66,4.26,1.51,6,1,.44-.13,3.36-2.03,3.5-2.5,1.04-3.48-1.11-2.05-2.5-2.5-2.17-.7-2.96-4.37-2.5-6.5.24-1.1,2.91-3.67,3-4,.23-.85-.23-2.15,0-3,.12-.44,1.92-2.62,2-3,.19-.9.25-7.22,0-7.5-.72-.8-2.94,1.17-3.5,2-.86-.63,1.26-2.25.5-3-2.14-2.11-1.86,1.86-2,2-.25.25-2.75-.25-3,0-.14.14-.14,3.86,0,4,.96.97,3.53-2.76,3,.5-3.3,1.12-2.73,6.23-3,6.5-.19.19-1.81-.19-2,0-.29.29.24,3.39,0,4.5-.07.32-2.04,3.37-2.5,3.5-.93.25-3.12-.29-3.5,0-.26.2.86,2.98-2,2l1-4.5c.78-.5,3-3.69,3-4,0-.95-2.92-1.55-3.5-2.5l-.5,4c-4.95-1.33-4.27,2.57-6.5,4l-6.5,1c.49-2.41,2.28-1.62,3.5-2,.5-.15,4.66-5.31,7-7,3.63-2.62-.33-1.83-.5-2-.16-.16-.16-3.79,0-4.5.38-1.72,3.83-4.39,4-5,.37-1.35-.69-3.08,1-4l-1.5-7.5c-2.24,1.27-1.09,3.05-1.5,4.5-.14.49-5.66,6.76-6,8-.3,1.09.34,4.11,0,4.5-.41.48-1.21-1.37-2.5-1-.3.09-3.27,3-4,3-.45,0-4.86-4.79-5-6-2.91-2.87-2.39.46-3.5,2.5-.39.72-1.85,3.35-2,3.5-.19.19-1.81-.19-2,0-.8.8,1.58,4.4,1,6.5-.07.24-3.26,3.43-3.5,3.5-.84.23-2.12-.22-3,0-.39.1-.6.89-1,1-3.2.89-2.15-.86-2.5-1.5-.45-.81-1.99-1.37-2-2.5,6.16,1,7.17-5.37,10-9.5-1.02-1.12-4.54-8.48-5.5-8.5-1.3-.03-1.38,2.89-1.5,3-.58.53-6.12-1.31-1,3.5-.41.73-.88,3.36-1,3.5-.14.15-2.56-1.72-4-1-.89,3.34,2.6,1.54,3,2,.81.94-.97,2.36-1,2.5-.33,1.85.39,5.7-2.5,6.5-4.83,1.33-2.96-1.2-3.5-3.5-.09-.38-.87-.59-1-1-.19-.59.18-1.37,0-2-.05-.17-2.33-2.45-2.5-2.5-.62-.18-1.38.18-2,0-1.91-.55-1.85-6.5-1.5-8.5.06-.37.87-.59,1-1,.37-1.18-.42-3.18-1.5-3.5-1-.3-4.35,2.96-4.5,3.5-.2.69-.08,3.5-1.5,3.5-.18,0-1.83-1.93-2.5.5-.36,1.32.91,1.6,1,2,.66,2.96-.5,4.99-1,7-.45,1.79-1.46,8.96-2,9.5-.19.19-1.03-.26-1.5,0-.45.25-3.5,3.25-3.5,3.5,0,.39,1.85,1.45,2,2,.36,1.31-.85,1.52-1,2-.95,3,3.01,5.14,5,2,.16-.26-.15-.79,0-1,3.1-4.39,3.08-.92,4.5-.5.6.18,1.51.24,2.5.5,2.07.54,2.52.99,4-1l-3.5-1.5-3.5-4,4.5,1c.81,1.87,5.04.54,5.5,1,.22.22-.68,4.4,1.5,5,.61.17,4.34.16,4.5,0,.22-.22-.42-2.54.5-2,1.66.97,1.14,3.87,3,3,3.21-1.51,2.88-4.24,0-6-.18-.11-1.65-.85-2-1-1.02-.43-2.08.83-1.5-2.5.47-2.75,4.17-3.33,5-2.5.19.19-.26,1.03,0,1.5,1.71,3.07,2.48-.22,3.5-.5.89-.25,3.68,1.51,4.5,2.5l-6-.5c.12.81-.19,2.81,0,3,.26.26,6.29-.91,5,3.5-.48,1.64-2.89,1.38-3,1.5-.19.21.2,1.76,0,2-.21.26-3.62-2.75-5.5,1-1.89,1.38-3.88.93-2,4,1.29,2.11,3.35,1.85,3.5,2,.84.84-1,2.35-1,2.5,0,.33.92.61,1,1,.16.77-.19,2.31,0,2.5.32.32,2.67-.89,2,1.5-1.52.46-.23,4.64-2.5,3.5-.77-.38-2.29-1.7-3-2-.54-.23-1.33.17-1.5,0-.75-.75,1.5-4.38,1-6.5-.09-.39-.93-.62-1-1-.47-2.65.8-4.53-2.5-6.5-.22-.13-.69.14-1,0-.43-.2-.64-.92-1-1-.72-.16-3.35-.18-4,0-.33.09-2.89,2.75-4,3-2.49.55-4.13-1.24-5-1-1.22.33-2,4-3,4-.17,0-1.51-1.72-3-1-.54-1.3-2.36-.87-2.5-1-.51-.47,1.67-1.38.5-2-1.39,1.42-1.5,1.69-1.5-.5,0-5.34-4-2.74-5-3.5-.26-.2.86-2.98-2-2l6.5-5c2.58.54,1.08-1.65,1.5-3.5.27-1.17,3-3.75,3-4,0-.18-2-2.82-2-3,0-.17,1.6-1.03,1-3-1.06-3.49-2.79-2.29-3-2.5-.27-.27-.16-6.4,0-7.5.05-.37.9-.6,1-1,.29-1.2-.23-4.53-1.5-4.5-.81.02-1.5,2.25-2,3-.7,1.05-4.07,1.92-4.5,3.5-.23.84.21,2.11,0,3-.09.4-.95.63-1,1-.32,2.16.35,4.89,0,7-.38,2.28-.05,3.88-1,7-.44,1.44.96,3.77,2,5-.95,1.09-2.01-1.51-2.5-1.5-.18,0-2.45,2.33-2.5,2.5-.73,2.54,1.77,3.15,2,4,.65,2.34-4.65,3.79-5,5-.57,1.99.94,2.7,1,3,.14.77.15,4.34,0,4.5-.51.54-3.67-.23-4-1.5-.22-.84-.17-4,0-5,.06-.38,1-.67,1-1s-1-.67-1-1c0-.43,3.59-2.96,3-3.5-.21-.19-1.81.19-2,0s.26-1.03,0-1.5c-.37-.66-2-1.66-2-2s.89-.59,1-1c.17-.65-.21-1.45,0-2,.23-.6,1.84-2.49,2-3,.47-1.53-.34-2.6-1.5-3.5-1.12-.01.16,1.59-1,2-3.6,1.26-3.39,3.57-5.5,6.5l.5,14.5c-.67-1.57-3.26-.75-3.5-1s.19-2.55,0-3.5c-.08-.38-.91-.61-1-1-.26-1.1-.38-4.88-1-5.5-.19-.19-1.03.27-1.5,0-2.44-1.39-1.17-4.67-1.5-5-.25-.25-2.56.21-3.5,0-.7-.16-3.65-2.85-4.5-2-.25.25.22,2.57,0,3.5-.03.12-.88,1.8-1,2-1.15,1.94-3.28,3.01-5.5,2.5-.36-.08-.57-.82-1-1-.54-.22-1.33.17-1.5,0-.25-.25.25-2.75,0-3-.19-.19-1.03.26-1.5,0-.39-.22-2.5-2.32-2.5-2.5,0-.25,3.26-3.43,3.5-3.5,1.16-.32,3.94.52,4.5-1.5.87-3.14-.69-5.13-3-7-.42-3.17,1.63-.04,2-.5.15-.19-.32-1.94,1-2.5l-3-1.5c-.36-1.82,1.67-.69,2-1,.51-.48-1.23-.83-.5-2s2.12-1.34,1.5-3.5c-.18-.64-2.08-1.4-2-2.5.81-.12,2.8.19,3,0,.91-.89-1.47-3.97-1-5.5.12-.4.89-.61,1-1,.36-1.3-.77-1.44-1-2-.91-2.18,1.82-1.32,2-1.5.19-.19-.26-1.03,0-1.5.34-.61,3.28-2.5,3.5-2.5.34,0,.67,1,1,1s.62-.94,1-1c2.83-.47,5.61,1,6,1,.28,0,2.4-1.73,4-2,2.93-.49,7.59,1.11,8,1,.75-.21,1.46-2.42,3-2,2.53.7,3.85.54,6,1,1.51.33,2.98,2.83,6,2,1.37-.38.04-1.86,3-1,1.29.37,2.09-1.48,2.5-1,.14.17-.17,4.02,1.5,4,.47,0,2.32-2.81,3-3,2.21-.61,5.57,1.77,9,1,.38-.09.6-.89,1-1,1.55-.43,3.83,2.3,5,3,.48.29,2.56.72,3,1s2.45,2.31,2.5,2.5c.18.63-.19,1.41,0,2,.13.4.88.6,1,1,.59,1.95-3.37,5.61,1.5,6.5.94-1.43,2.68-3.2,3.5-4.5.49-.77,2.91-4.71,3-5,.21-.72-.21-2.29,0-2.5s1.76.2,2.5,0c.39-.11.61-.89,1-1,1.59-.43,4.2-.52,6-1,.31-.08,1.82-1.87,2.5.5.28.98-1.99,2.83.5,3.5,4.48,1.2,2.98-.74,3.5-2.5.14-.47,3.18-2.43,3.5-2.5,1.72-.37,4.3.38,6,0,1.23-.28,2.96-.83,4-1,2.91-.48,6.92,1.06,9-1l1,4,.5-5c1.48-.55,2.33,1.01,2.5,1,.72-.03-.36-.67,2,0,.87.25,3.41-1.96,4.5-1,.21.19-3.07,4.36,1.5,3,.56-.17,1.44-1.84,2-2,3.82-1.1,7.66-1.16,12-1C153.61,2.68,156.25,0,156.5,0c.3,0,.56.79,1,1,1.47.69,3.63.96,4.5,2.5.27.47-.19,1.31,0,1.5ZM65,7c-1.09-1.09-3.09.91-2,2s3.09-.91,2-2ZM33.5,8c-.65,0-.65,1,0,1s.65-1,0-1ZM127,10l-2-2c-.26,2.11-.11,2.26,2,2ZM143,13c.64-.76-.33-2.8-1-2-.64.76.33,2.8,1,2ZM169,11c-.76-.64-2.8.33-2,1,.76.64,2.8-.33,2-1ZM30,12c-1.09-1.09-3.09.91-2,2s3.09-.91,2-2ZM127.5,13c-.65,0-.65,1,0,1s.65-1,0-1ZM23.5,14c-.65,0-.65,1,0,1s.65-1,0-1ZM158,14c-2.11-.26-2.26-.11-2,2l2-2ZM106.5,15c-.65,0-.65,1,0,1s.65-1,0-1ZM56.5,16c-.65,0-.65,1,0,1s.65-1,0-1ZM36,17c-.11-.11-2.89-.11-3,0-2.66,2.66,5.66,2.66,3,0ZM10.5,19c-.65,0-.65,1,0,1s.65-1,0-1ZM145.5,19c-.65,0-.65,1,0,1s.65-1,0-1ZM14,20c-1.42-1.42-3.51,1.24-.5,3,.77.45.65-2.85.5-3ZM109,21c-.76-.64-2.8.33-2,1,.76.64,2.8-.33,2-1ZM159,22c-2.66-2.66-2.66,5.66,0,3,.11-.11.11-2.89,0-3ZM35,25c-.76-.64-2.8.33-2,1,.76.64,2.8-.33,2-1ZM145,25c-1.03-1.03-3.39.32-.5,2,.73.42.68-1.82.5-2ZM13,27c-1.09-1.09-3.09.91-2,2s3.09-.91,2-2ZM125,31c1.75-1.75-2.21-5.35-5-4,.44,1.42,4.05,4.95,5,4ZM164,27c-.29-.29-3.85-.62-3,1.5,1.22,3.05,3.99-.51,3-1.5ZM147,32c.19-.24.24-3.44-.5-3-2.8,1.64.21,3.36.5,3ZM38,33c.64-.76-.33-2.8-1-2-.64.76.33,2.8,1,2ZM156.5,31c-.65,0-.65,1,0,1s.65-1,0-1ZM164,35c.64-.76-.33-2.8-1-2-.64.76.33,2.8,1,2ZM35,35c-1.03-1.03-3.39.32-.5,2,.73.42.68-1.82.5-2ZM174,40c.64-.76-.33-2.8-1-2-.64.76.33,2.8,1,2ZM168,43c-2.11-.26-2.26-.11-2,2l2-2ZM174,46l-2-2c-.26,2.11-.11,2.26,2,2ZM163,55c.64-.76-.33-2.8-1-2-.64.76.33,2.8,1,2ZM162,61c1-1-.62-4.83-3.5-4-1.24.36-2.07,3.43-1.5,4,.18.18,4.82.18,5,0ZM156,61c-.76-.64-2.8.33-2,1,.76.64,2.8-.33,2-1ZM174,65l-2-2c-.26,2.11-.11,2.26,2,2ZM152,66c-.25-.21-1.75.19-2.5,0-.37-.09-1.09-1.5-1.5-1-.1.12-.1,2.88,0,3,.41.5,1.13-.91,1.5-1,.61-.16,3.79.08,2.5-1ZM156,71c.64-.76-.33-2.8-1-2-.64.76.33,2.8,1,2ZM175.5,73c-.65,0-.65,1,0,1s.65-1,0-1ZM155.5,78c-1.48,0-1.48,3,0,3s1.48-3,0-3ZM164,81c1.03-1.03-.32-3.39-2-.5-.42.73,1.82.68,2,.5ZM178,79c-1.09-1.09-3.09.91-2,2s3.09-.91,2-2ZM170.5,83c-.65,0-.65,1,0,1s.65-1,0-1ZM156,87c-1.24.24-4.12-1.88-5-1-1.85,1.85,2.86,6.85,5,1ZM158,88c.64-.76-.33-2.8-1-2-.64.76.33,2.8,1,2ZM176.5,86c-.65,0-.65,1,0,1s.65-1,0-1ZM177,91c-1.09-1.09-3.09.91-2,2s3.09-.91,2-2ZM163,95c.81-1-1.58-3.52-2-3-.81,1,1.58,3.52,2,3ZM173,92c-.11-.11-2.89-.11-3,0-2.66,2.66,5.66,2.66,3,0ZM160.5,105c-.65,0-.65,1,0,1s.65-1,0-1ZM164,105c-1.09-1.09-3.09.91-2,2s3.09-.91,2-2ZM172,109c-.11-.11-2.89-.11-3,0-2.66,2.66,5.66,2.66,3,0ZM176,109c-.11-.11-2.89-.11-3,0-2.66,2.66,5.66,2.66,3,0ZM11.5,110c-.65,0-.65,1,0,1s.65-1,0-1ZM164.5,120c-.65,0-.65,1,0,1s.65-1,0-1ZM6,128c.64-.76-.33-2.8-1-2-.64.76.33,2.8,1,2ZM143.5,134c-.65,0-.65,1,0,1s.65-1,0-1ZM175,136c.51-.41-2.1-3.75-4-.5-.44.75,3.78.68,4,.5ZM18.5,136c-.65,0-.65,1,0,1s.65-1,0-1ZM11.5,137c-.65,0-.65,1,0,1s.65-1,0-1ZM27,140l-.5-3c-2.12,1.63-4.04,4.08-1,6,.26.16.8-.14,1,0,.67.48,1.56,1.88,2,2,4.83,1.33,2.96-1.2,3.5-3.5.09-.39.89-.6,1-1,.47-1.71-3.52-4.57-5-3.5-.14.1,2.06,2.38-1,3ZM155,142c.15-1.61.18-4.54-1.5-5-.61-.17-4.34-.16-4.5,0-.95.95.9,5.99,2.5,7,.27.17,1.51-.12,2,1l6.5,1c.29-2.83-3.11-3.8-5-4ZM36.5,142c-.65,0-.65,1,0,1s.65-1,0-1ZM24.5,152c-.65,0-.65,1,0,1s.65-1,0-1ZM19,154c-.76-.64-2.8.33-2,1,.76.64,2.8-.33,2-1ZM62.5,156c-.65,0-.65,1,0,1s.65-1,0-1ZM174,158c1.03-1.03-.32-3.39-2-.5-.42.73,1.82.68,2,.5ZM58.5,157c-.65,0-.65,1,0,1s.65-1,0-1ZM156.5,157c-.65,0-.65,1,0,1s.65-1,0-1ZM62,160c.64-.76-.33-2.8-1-2-.64.76.33,2.8,1,2ZM139,162c-.58-.58-3,.88-3,1.5,0,.11,1.39,1.5,1.5,1.5.62,0,2.08-2.42,1.5-3ZM145,164c-1.09-1.09-3.09.91-2,2s3.09-.91,2-2Z"/>
      <path d="M14,73c.54,1.64-.85,1.98-1,2.5-.66,2.27,1.03,2.64,2,4,.13.18.26,2.16,1.5,2.5,1.89.52,6.49-.88,7.5,2.5.47,1.56-.24,2.02-1,3-2.15,2.76-4.77.89-7.5,1.5-.4.09-.68,1.36-2,1-.45-.13-1-1.57-3-1-1.69.48-.88,3.3-2.5,3,.69-1.93-1.78-2.68-2-3.5-.64-2.36,1.2-5.19-2-7,1.78-2.5,1.89-.59,2.5-.5,1.91.27,4.93-.6,5.5-2.5.95-3.16-.87-2.12-1.5-2.5-.71-.42-1.31-1.61-2-2-.47-.26-1.28.18-1.5,0-.17-.14,1.94-3.06,1-4-.24-.24-3.05,1.02-2-2.5.23-.78,2.42-1.46,2-3-1.17-4.23.92-5.43,2-9,.53-1.77-1.27-3.26-1-3.5,1.11-.97,5.78,1.67,6.5,3,2.67.44,4.31,3.52,5.5,5.5.38.64,2,2.82,2,3,0,.34-.94.62-1,1-.33,1.98.86,9.5-1.5,9.5-.33,0-.62-.94-1-1-1.66-.28-3.75.19-5.5,0ZM13,62c-1.63-1.63-2.87,1.92-2,3,.46.57,2.83-2.17,2-3ZM16,67c-1.09-1.09-3.09.91-2,2s3.09-.91,2-2Z"/>
      <path d="M109,70c-.82.82.94,2.3,1,2.5.21.73-.21,2.29,0,2.5s1.76-.2,2.5,0c.4.11.62.92,1,1,.95.2,3.24-.25,3.5,0,.1.09-.28,1.99,1,2.5-1.28.51-.9,2.41-1,2.5-.2.19-1.81-.19-2,0-.26.26.19,3.38,0,4.5-.06.38-.92.61-1,1-.21,1.02.13,2.38,0,3.5l6,1.5c.28.99-1.78,3.16-2.5,3.5-.86.4-2.44-.16-1-1,1.78.78,1.93-1.64,1.5-2-.34-.28-2.58.25-3.5,0-.78-.21-2.85-3.31-4-4-.22-.13-.69.14-1,0-.75-.35-1.08-1.55-3-1-1.82.52-.63,3.94-3.5,3,.19-1.41-.28-3.23,0-4.5.09-.38.89-.6,1-1,.17-.61-2.02-4.48-1-5.5.13-.13,2.55.12,3-1.5.68-2.46-1-3.78-1-4,0-.43,4.85-5.44,2-7,1.61-.76.72-3.17,1-3.5.15-.18,3.42,1.6,4,2.5.18.28,1.09,2.68,1,3-.56,1.97-3.84,1.34-4,1.5ZM113,79c-.14-.11-2.68-.39-3,.5-.37,1.04-1.59,3.92-1,4.5.11.11,2.89.1,3,0,.48-.41-1.37-1.21-1-2.5.15-.5,2.57-2.04,2-2.5Z"/>
      <path d="M73,108c.38.45,3.01-3.08,4-2,.39.43-.28,6.51,0,8-2.01-.25-1.76-2.74-3-3.5-3.77-2.32-2.48.84-3.5,2.5-.75,1.23-4.26,4.25-5.5,3-.88-.9,1.89-7.12,1-9,1.54-.74,4.27,1.59,5,1,.57-.47-1.86-2-2-2.5-.23-.85.23-2.15,0-3-.13-.47-2.33-3.22-2-3.5,1.66.38,1.97-1.01,3.5-1,4.61.04,1.48,8.79,2.5,10Z"/>
      <path d="M135,72c.24.25-.16,3.03,0,4-3.36-.87-1.93,4.15-4.5,6-1.89-1.42.92-6.53.5-7-.73-.83-4.43,1.94-4,3.5.83,3-1.48,2.59-2,5-.34,1.57.7,4.27-.5,5.5-1.64-1.13-1.82-2.67-1.5-4.5.07-.39,1-.67,1-1s-.89-.59-1-1c-.36-1.31.85-1.52,1-2,.19-.59-.18-1.37,0-2,.08-.28,2.5-2.81,3-4,.23-.54-.17-1.33,0-1.5s.96.23,1.5,0,.7-1.36,2-1c.41.11.66.98,1,1,.18.01,2.44-2.09,3.5-1Z"/>
      <path d="M100,58c.11.11-.28,1.99,1,2.5l-1,6.5c-1.96.2-.66-2.29-1-3.5-1.03-3.66-4.09.39-4.5.5-.55.15-3.37.11-3.5,0-.32-.27,2-3.3,2-3.5,0-.22-1.67-1.55-1-4,.05-.17,2.3-2.43,2.5-2.5,2.02-.67,2.52,3.17,4,4,.47.26,1.31-.19,1.5,0Z"/>
      <path d="M123,97c1.22,1.22-.97,3.16-1.5,4-.83,1.33-.04,2.7,1,3,1.52.44,3.27-2.7,4.5-3.5,1.58-1.04,2.68-.42,2,1-.81,1.69-4.35,1.56-4,4l-2.5,3.5c-4.18-.85.47-.95.5-1,.26-.39-1.08-1.81-1.5-2-2.03-.94-1.39,3.07-3.5,3,.19-1.41-.28-3.23,0-4.5.09-.38.89-.6,1-1,.36-1.32-.91-1.6-1-2-.34-1.54.23-3.8,0-5.5l5,1Z"/>
      <path d="M131,59c.27.27-.25,2.59,0,3.5.27.98,3.77,2.88,4,4.5-1.6-.48-1.93,1.18-3,.5-1.41-.9-3.89-4.96-5.5-4.5-.51.15-.86,1.54-2.5,1,.2,1.21-.02,1.79-1,2.5.58,1.48-1.19,7.11-3.5,6.5-2.55-.67-.54-2.12,0-3,.79-1.28,2.2-4.41,2.5-5.5.2-.74-.21-2.29,0-2.5.29-.29,3.39.24,4.5,0,.12-.03.98-.63,2-1,1.11-.4.24-1.75.5-2,.07-.07,1.93-.07,2,0Z"/>
      <path d="M115,45c1.14,1.05-1.88,3.04-2,3.5-.41,1.5.43,7.07,0,7.5-.25.25-2.57-.22-3.5,0-.36.08-2.68,2.28-3.5-.5-1.05-3.52,1.76-2.26,2-2.5.27-.27-.25-2.59,0-3.5.22-.8,3.74-3.5,3-5.5l4,1Z"/>
      <path d="M73,33c.12.12.15,2.94,0,3.5-.43,1.57-4.54,2.84-5.5,4.5l-.5-4c-1.24-.57-2.71,1.33-3,1-.79-.88,2.93-5.11,2-7,.47-.57,2,1.86,2.5,2,1.07.29,4.18-.32,4.5,0Z"/>
      <path d="M50,106c-2.18-1.14-4.15,2-4.5,2-.44,0-4.67-3.38-7-2l-5.5-4c3.22.33,6.16,1.56,9.5,1,.38-.06.67-1,1-1s.59.89,1,1c1.82.49,4.68.42,5.5,3Z"/>
      <path d="M58,68c1.38,1.26-3.76,4.68-4,5.5-1.3,4.38-1.13,1.37-2.5,3.5-.85,1.32-.18,3.02-2,4-4.04-2.79,2.02-4.84,2.5-6.5.19-.66-.23-1.5,0-2,.35-.74,1.7-2.29,2-3,.23-.54-.17-1.33,0-1.5.14-.14,3.85-.14,4,0Z"/>
      <path d="M64,87c.14.15-.32,1.66.5,3,.98,1.6,3.24.06,2.5,3-1.68-.82-6.24,1.76-7,1-.16-.16-.17-3.89,0-4.5.2-.71,3.26-3.28,4-2.5Z"/>
      <path d="M75,68c.81.81-.16,5.95-3,5,.17-2.03-4.5-6.3-3-8,1.09-1.23,3.7,2.56,4.5,3,.47.26,1.31-.19,1.5,0Z"/>
      <path d="M66,77c-.19.15-1.95-.31-2.5,1-1.2-.72-3.3,1.22-3.5,1-.81-.9,1.88-3.95,2-4.5.25-1.12-.3-4.17,0-4.5.51-.56,2.78.67,3,1.5.29,1.08-.24,2.8,0,4,.07.34,1.5,1.09,1,1.5Z"/>
      <path d="M100,106c1.64,1.38-.1,1.81-1.5,2-2.63.36-4.76,1.44-7.5,2-.98-2.86,1.8-1.74,2-2,.29-.38-.19-3,0-4,1.1-.08,1.87,1.83,2.5,2,1.1.3,4.1-.34,4.5,0Z"/>
      <path d="M99,90l-3-2.5-1-2.5c1.53.46,5.52-3.54,6-3,1.19,1.34-.97,3.11-1.5,4-.8,1.34-.47,2.58-.5,4Z"/>
      <path d="M79,47c-1.22-.57-2.72,1.33-3,1-.36-.42.35-4.65,0-5-.19-.19-1.03.26-1.5,0-4.01-2.24-.18-6.74,2.5-2.5.13.2-.15.68,0,1,.2.44,1,.7,1,1,0,.25-1.36.69-1,2,.14.5,2.57,2.03,2,2.5Z"/>
      <path d="M133,89c-.13,1.74-5.28,4.72-6,4-1.05-1.05,1.84-4.04.5-5l.5-3c2.03-.18.1,2.32,2,3.5,1.08.67,1.84.57,3,.5Z"/>
      <path d="M75,75c.34.4-.24,4.3,0,5.5l-2,2.5-2-6.5,4-1.5Z"/>
      <path d="M30,71c-1.22-.57-2.72,1.33-3,1-.11-.13-.15-2.95,0-3.5.07-.24,3.25-3.49,3.5-3.5.47-.03,1.98,1.46,1,3-.65,1.03-2.01,1.21-1.5,3Z"/>
      <path d="M99,92c-.83,2.15,5.5,5.63,4,7-.77.7-2.8-1.48-4-1,.47-2.06-4.61-6.52,0-6Z"/>
      <polygon points="46 125 39 128.5 42.5 125 43 121 46 125"/>
      <path d="M121,55c-1.1-.7-2.87-1-3.5-2-1.9-2.99,3.77-4.2,4.5-1.5.35,1.27-1.51,1.86-1,3.5Z"/>
      <path d="M109,59c.56.51-.67,2.77-1.5,3s-3.64-1.87-5.5-1c-1.36-1.16-.12-1.92,1.5-2,1.09-.05,5.3-.19,5.5,0Z"/>
      <path d="M89,118c.34-1.1,1.61-2.29,2.5-3,1.28-1.02,2.13-.88,2.5.5.33,1.2-.41,3.2-1.5,3.5-1.27.35-1.86-1.51-3.5-1Z"/>
      <path d="M80,120l3.5-6c3.55,2.73.08,6.55-3.5,6Z"/>
      <path d="M31,76c1.1,9.15-5.19.12-4-1,.75-.7,2.81,1.48,4,1Z"/>
      <path d="M80,88c-.27.22-1.77-.2-2.5,0-.58.16-2.37,2.32-3.5-.5-.8-2.01,2.8-1.97,4.5-1.5.39.11,1.81,1.75,1.5,2Z"/>
      <polygon points="45 113 47 116 41 117 45 113"/>
      <path d="M111,109c-.98.88-3.68-1.24-5-1l2-4,3,5Z"/>
      <path d="M52,90c-.11.11-2.88.1-3,0-.19-.16,2.27-3,0-5,2.84-.95,3.81,4.19,3,5Z"/>
      <path d="M102,134c.31.25-1.11,1.89-1.5,2-1.93.53-6.48-.02-4.5-2,.21-.21,5.77-.19,6,0Z"/>
      <path d="M31,91c1.88,1.88-1.01,1.79-1.5,2-.55.23-2.51,1.99-3.5,1-1.88-1.88,1.01-1.79,1.5-2,.55-.23,2.51-1.99,3.5-1Z"/>
      <path d="M93,86c.11.11.11,2.89,0,3-.17.17-.94-.2-1.5,0-.43.16-.68,1-1,1-.11,0-1.5-1.39-1.5-1.5,0-.45,3.18-3.32,4-2.5Z"/>
      <path d="M92,69c-.45,1.2,1.7,3.32,1,4-.11.1-2.89.11-3,0-.5-.5-.48-5.63,2-4Z"/>
      <path d="M52,98c.25-.31,1.89,1.1,2,1.5.82,2.88-2.33,4.44-3,2-.36-1.3.77-1.45,1-2s-.17-1.29,0-1.5Z"/>
      <path d="M77,63c.11.11.11,2.89,0,3-.98.98-4.47-2.57-4-3,.15-.13,3.86-.14,4,0Z"/>
      <path d="M65,63c.11.11.11,2.89,0,3s-2.89.11-3,0-.11-2.89,0-3,2.89-.11,3,0Z"/>
      <path d="M100,73c-.11.11-2.89.11-3,0-.98-.98,2.57-4.47,3-4,.13.15.14,3.86,0,4Z"/>
      <path d="M127,58c.23,1.75-2.28.97-3.5,1-1.83.04-3.68-.03-5.5,0-.23-1.75,2.28-.97,3.5-1,1.83-.04,3.68.03,5.5,0Z"/>
      <path d="M66,81c.18.18-.23.97,0,1.5.61,1.37,2.09,2.57-1.5,1.5-2.98-.88.36-4.14,1.5-3Z"/>
      <path d="M67,129c-3.1-.98-1.78-4.48-2-7l1,2.5,1,4.5Z"/>
      <path d="M41,119c2.17,2.17-1.72,1.8-2.5,2-.37.09-1.09,1.5-1.5,1-1.28-1.56,2.86-4.14,4-3Z"/>
      <path d="M63,102c-.82.82-2.15-.86-2.5-1-.54-.23-2,.36-1.5-.5.68-1.17,4-2.78,4-2,0,.33-1,.67-1,1,0,.15,1.84,1.66,1,2.5Z"/>
      <path d="M55,67c-.88.71-6,0-4-2,1.05-1.05,4.8,1.36,4,2Z"/>
      <path d="M45,65c.11.11.11,2.89,0,3s-2.88.1-3,0c-.48-.4.81-1.07,1-1.5s.11-3.39,2-1.5Z"/>
      <path d="M143,116c.8.64-2.95,3.05-4,2-2-2,3.12-2.71,4-2Z"/>
      <path d="M30,103c-.17.86-2.38,4.76-3,4-.97-1.21.85-4.78,3-4Z"/>
      <path d="M82,136c.11.11.1,2.89,0,3-.39.43-3.93-2.87-3-4,.4-.48,1.07.81,1.5,1,.53.23,1.32-.18,1.5,0Z"/>
      <path d="M75,129c.07.07.07,1.93,0,2-.68.7-2.8-1.45-4-1-.86-1.48,3.8-1.2,4-1Z"/>
      <path d="M131,98c-.22.17-.98-.23-1.5,0-.43.19-1.1,1.48-1.5,1-.1-.12-.11-2.89,0-3,.83-.83,3.57,1.54,3,2Z"/>
      <path d="M146,84c.73.59-2.71,3.04-4,2-.73-.59,2.71-3.04,4-2Z"/>
      <path d="M140,73c.11.11.11,2.89,0,3-2.66,2.66-2.66-5.66,0-3Z"/>
      <path d="M105,109c.11.11.1,2.89,0,3-.32.35-2.89-1.99-3-3,.81.12,2.81-.19,3,0Z"/>
      <path d="M87,78c1.42,1.42-1.24,3.51-3,.5-.45-.77,2.85-.65,3-.5Z"/>
      <path d="M81,73c.48.4-.81,1.07-1,1.5-.24.53.02,3.16-2,1.5-.48-.4.81-1.07,1-1.5.24-.53-.02-3.16,2-1.5Z"/>
      <path d="M60,82c1.63,1.63-1.92,2.87-3,2-.57-.46,2.17-2.83,3-2Z"/>
      <path d="M26,65c-1.42,1.42-3.51-1.24-.5-3,.77-.45.65,2.85.5,3Z"/>
      <path d="M51,97c.57.46-2.17,2.83-3,2-1.63-1.63,1.92-2.87,3-2Z"/>
      <path d="M84,108c.15.15.27,3.45-.5,3-3.01-1.76-.92-4.42.5-3Z"/>
      <path d="M82,115c-1.42,1.42-3.51-1.24-.5-3,.77-.45.65,2.85.5,3Z"/>
      <path d="M106,123c1.09,1.09-.91,3.09-2,2s.91-3.09,2-2Z"/>
      <path d="M57,80c.52.42-2,2.81-3,2-.52-.42,2-2.81,3-2Z"/>
      <path d="M59,116c.07.07.07,1.92,0,2-.4.49-1.07-.81-1.5-1-.18-.08-2.59-.09-1.5-1,.12-.1,2.89-.11,3,0Z"/>
      <path d="M98,118c-.19-.24-.24-3.44.5-3,2.8,1.64-.21,3.36-.5,3Z"/>
      <path d="M90,133c-1,.81-3.52-1.58-3-2,1-.81,3.52,1.58,3,2Z"/>
      <path d="M103,53c1.09,1.09-.91,3.09-2,2s.91-3.09,2-2Z"/>
      <polygon points="92 97 90.5 95 92.5 91 92 97"/>
      <path d="M79,93l-2,2c-.26-2.11-.11-2.26,2-2Z"/>
      <path d="M106,117c-1.31,1.57-1.31-4.57,0-3,.1.12.1,2.88,0,3Z"/>
      <path d="M137,62c-2.11.26-2.26.11-2-2l2,2Z"/>
      <path d="M45,64c-2.11.26-2.26.11-2-2l2,2Z"/>
      <path d="M127,126l-2,2c-.26-2.11-.11-2.26,2-2Z"/>
      <path d="M61,63c-.67.8-1.64-1.24-1-2,.67-.8,1.64,1.24,1,2Z"/>
      <path d="M29,84c-.67.8-1.64-1.24-1-2,.67-.8,1.64,1.24,1,2Z"/>
      <path d="M59,63c.8.67-1.24,1.64-2,1-.8-.67,1.24-1.64,2-1Z"/>
      <path d="M73,94c-.67.8-1.64-1.24-1-2,.67-.8,1.64,1.24,1,2Z"/>
      <path d="M85,98c.8.67-1.24,1.64-2,1-.8-.67,1.24-1.64,2-1Z"/>
      <path d="M90,105c-.67.8-1.64-1.24-1-2,.67-.8,1.64,1.24,1,2Z"/>
      <path d="M145,111c-.67.8-1.64-1.24-1-2,.67-.8,1.64,1.24,1,2Z"/>
      <path d="M142,126c.8.67-1.24,1.64-2,1-.8-.67,1.24-1.64,2-1Z"/>
      <path d="M37,130c.8.67-1.24,1.64-2,1-.8-.67,1.24-1.64,2-1Z"/>
      <path d="M109,132c.8.67-1.24,1.64-2,1-.8-.67,1.24-1.64,2-1Z"/>
      <path d="M162,164c-.67.8-1.64-1.24-1-2,.67-.8,1.64,1.24,1,2Z"/>
      <path d="M155.5,166c.65,0,.65,1,0,1s-.65-1,0-1Z"/>
      <path d="M76.5,134c.65,0,.65,1,0,1s-.65-1,0-1Z"/>
      <path d="M.5,133c.65,0,.65,1,0,1s-.65-1,0-1Z"/>
      <path d="M85.5,130c.65,0,.65,1,0,1s-.65-1,0-1Z"/>
      <path d="M156.5,129c.65,0,.65,1,0,1s-.65-1,0-1Z"/>
      <path d="M100.5,125c.65,0,.65,1,0,1s-.65-1,0-1Z"/>
      <path d="M101.5,104c.65,0,.65,1,0,1s-.65-1,0-1Z"/>
      <path d="M113.5,100c.65,0,.65,1,0,1s-.65-1,0-1Z"/>
      <path d="M34.5,92c.65,0,.65,1,0,1s-.65-1,0-1Z"/>
      <path d="M107.5,90c.65,0,.65,1,0,1s-.65-1,0-1Z"/>
      <path d="M11.5,90c.65,0,.65,1,0,1s-.65-1,0-1Z"/>
      <path d="M5.5,54c.65,0,.65,1,0,1s-.65-1,0-1Z"/>
      <path d="M71.5,58c.65,0,.65,1,0,1s-.65-1,0-1Z"/>
      <path d="M115.5,61c.11,0,1.5,1.39,1.5,1.5,0,1.42-2.92-1.5-1.5-1.5Z"/>
      <path d="M183.5,66c.65,0,.65,1,0,1s-.65-1,0-1Z"/>
      <path d="M45.5,70c.65,0,.65,1,0,1s-.65-1,0-1Z"/>
    </g>
  </g>
</svg>