<?xml version="1.0" encoding="UTF-8"?>
<svg id="Layer_2" data-name="Layer 2" xmlns="http://www.w3.org/2000/svg" viewBox="0 0 174 177.23">
  <g id="Layer_1-2" data-name="Layer 1">
    <g id="Element">
      <path d="M157,18.13c.21.21-.2,1.76,0,2.5.18.65.65,1.78,1,3,.1.35,2.65,2.8,3,4,.74,2.53-1.77,3.15-2,4-.17.61-.17,3.39,0,4,.22.79,4,3.47,4,4,0,.17-1.6,1.03-1,3,.12.38.83.58,1,1,.22.54-.17,1.33,0,1.5.21.21,1.76-.2,2.5,0,.4.11.61.9,1,1,.88.22,2.16-.23,3,0,2.81.78,2.96,6.91,2.5,9.5-.03.17-.72,2.11-1,3-.12.4-.89.61-1,1-.89,3.2.88,2.15,1.5,2.5,4.28,2.44-2.04,4.82-2.5,6.5-1.11,4.02.64,3.01,1.5,3.5,1.95,1.11,1.14,2.4,1.5,3.5.13.41.89.61,1,1,.43,1.57-2.25,2.75-3,4-1.02,1.71-.67,3.34-1,5-.53,2.61-.21,4.81-1,8-1.96,7.87-1.53,16.94-3,25-.67,3.65,1.31,5.77,3.5,8.5,1.7-.68,4.92,1.96,4.5,3.5-.12.44-1.88,2.56-2,3-.23.85.23,2.15,0,3-.15.55-1.85,1.45-2,2-.28,1.02.97.8,0,4-.39,1.28,1.67,4.88,1,8-.08.38-1.88,2.56-2,3-.64,2.35,4.65,3.78,5,5,.17.61-.17,1.37,0,2,.11.41,1,.67,1,1s-.93.62-1,1c-.31,1.83.67,3.12-1.5,4.5-.25.16-.79-.15-1,0-1.05.74-2,2.4-3,3-1.72,1.02-3.4.64-5,1-.39.09-.62.93-1,1-.86.16-3.19.18-4,0-.36-.08-.57-.8-1-1-.31-.14-.78.13-1,0-1.02-.61-2.01-2.45-3-3-.47-.26-1.31.19-1.5,0s.19-1.81,0-2c-.14-.14-3.86-.14-4,0-.19.19.19,1.81,0,2-.21.21-1.76-.2-2.5,0-.4.11-.61.91-1,1-2.27.53-7.06-1.85-11-1-.34.07-2.66,1.93-3,2-3.81.82-9.13-1.07-12,3-5.31,2.1-8.22,5.55-12.5-.5.49-1.03-.7-3.5-1.5-3.5-.33,0-.67,1-1,1-.17,0-1.88-.68-3-1-.69-.2-3.29-4.54-3.5-5.5-1.68-.49-1.64-4.33-3.5-3.5-3.26,1.46-.49,4.99,2.5,4-.3.96-1.72,2.54-2.5,3-1.14.68-2.91.65-4,1-.48.15-.69,1.36-2,1-.4-.11-.6-.89-1-1-3.58-.99-2.23,1.73-2.5,2-.92.92-3.89-1.46-5.5-1-.61.17-2.06,2.67-2.5,3.5-.39.72,3.41-.07,2,2.5-1.48-.55-2.33,1.01-2.5,1s-2.5-2.32-2.5-2.5c0-.12.93-.46,1-2,.04-.9-1.99-.18-2.5-1.5-2.23.81-1.17,4.67-1.5,5-.19.19-1.03-.26-1.5,0-.69.38-1.48,1.85-2,2-1.87.55-3.06-1.5-5-1-.92-1.7-2.67-.62-4-1-1.47-.42-4.25-2.5-6-2-.56.16-1.44,1.84-2,2-.63.18-1.41-.19-2,0-.41.13-.62.91-1,1-4.06.95-4.62-2.62-6-3-3.17-.87-9.83.87-13,0-.7-.19-2.3-2.81-3-3-.81-.22-2.05.16-3,0-.38-.07-.67-1-1-1-.11,0-1.5,1.39-1.5,1.5,0,.33,1,.67,1,1,0,1.89-4.27,1.3-5.5,1.5-.38.06-.66.99-1,1-.6.02-2.1-2.44-1.5-3,.24-.23,2.06.55,2-.5l-3-4c-.14-1.29.2-2.78,0-4-.06-.38-1-.67-1-1,0-.21,1.72-1.84,2-1.5.27.32-.58,1.87.5,2,.78.09,3.38.12,3.5,0,.11-.11.11-2.89,0-3-.24-.24-2.55.19-3.5,0-.38-.08-.61-.91-1-1-.89-.21-2.16.23-3,0-1.57-.43-2.84-4.54-4.5-5.5-.76-2.64,2.44-3.39,2-5-.7-2.56-.57-3.59-1-6-.95-5.33-2.54-14.41-3-20-.31-3.75.58-8.53,0-12-.06-.38-1-.67-1-1,0-.18,2.33-2.45,2.5-2.5,2.4-.66,4.55,1.61,3.5-3.5-.74-3.58-.74-7.74-2-11,.5-1.94-1.55-3.13-1-5,.07-.24,3.07-3.26,3.5-3.5.47-.26,1.31.19,1.5,0,.21-.21-.2-1.76,0-2.5.11-.41.95-.63,1-1,.23-1.55-.25-3.47,0-5,.06-.38,1-.66,1-1,0-.18-1.92-2.64-2-3-.51-2.37-.43-5.16-1-8-1.51-7.57-3.03-18.68-2-27,.05-.37.93-.62,1-1,.62-3.49.94-6.41,2-10,.15-.52,1.62-1.31,2-2,.3-.54.71-2.55,1-3,.41-.64,3.28-2.5,3.5-2.5.31,0,.56.83,1,1,1.98.79,1.28-.97,1.5-1.5.17-.4.84-.6,1-1,.22-.54-.19-1.35,0-2,.07-.24,3.26-3.43,3.5-3.5.85-.23,2.15.23,3,0,1.38-.38,2.44-6.08,6-5,.41.12.62.91,1,1,4.37,1.02,5.26-3.52,7-4,1.22-.34,8.41-.23,10,0,5.68.83,3.41.07,8-1,3-.7,5.54,2,6,2,1.12-.01,5.01-1.82,8-1,.55.15,1.45,1.85,2,2,4.19,1.15,9.74-2.78,14-2,2.8.51,7.97,2.68,11,2,.4-.09.68-1.36,2-1,11.85,3.27,14.33-4.21,24-3,3.74.47,4.6,2.34,9,1,1.96-.59,2.63.91,3,1,.9.21,2.17-.23,3,0,.37.1.57.81,1,1,.31.14.78-.13,1,0,3.05,1.82,1.93,3.44,2.5,5.5.19.7,2.81,2.3,3,3,.39,1.42.48,2.38,1,4,.27.85-.23,2.99,1.5,3.5,1.87.55,3.06-1.5,5-1,1.31-1.85,1.15-.31,2,0,.56.2,1.33-.17,1.5,0ZM113.5,9.13c-.65,0-.65,1,0,1s.65-1,0-1ZM87,24.13c-2-2-2.71,3.12-2,4,.64.8,3.05-2.95,2-4ZM122,37.13c.37-.33,3.41.3,4.5,0,.24-.07,3.09-2.93,3.5-3.5.15-.21-.16-.76,0-1,.46-.68,1.87-1.54,2-2,.69-2.51.12-7.59-3.5-6.5-.6.18-4.44,3.85-5,4-1.22.34-5.14-.36-5.5,0-.21.21.21,1.78,0,2.5-.14.46-5.09,7.27-5.5,7.5-.47.27-1.31-.19-1.5,0-.27.27-.2,6.6,0,7.5.25,1.17,3.36,4.69,3,6-.11.4-.91.62-1,1-.32,1.42.27,3.49,0,5-.03.17-.84,2.61-1,3-.91,2.3-4.6,5.14-5,7-.7,3.27.97,6.01-3.5,8.5-.47.26-1.31-.19-1.5,0-.21.21.2,1.76,0,2.5-.11.41-.95.63-1,1-.23,1.55.27,3.5,0,5-.07.41-1.84,3.42-2,4-.43,1.61.79,3.04-1.5,4.5-3.55,2.27-9.18,8.52-10.5,12.5-.31.94.15,2.23-1,3.5l5-1c-.74-3.01,1.53-3.58,3-5.5.17-.22-.16-.8,0-1,1.31-1.64,6.82-6.57,8.5-7.5.47-.26,1.31.19,1.5,0,.24-.24-.19-2.55,0-3.5.59-2.94,2.85-6.14,2-10l4-4.5-2,7c1.33.27,2.33-.44,3-1.5s.69-2.92,1-4c.16-.56,1.85-1.45,2-2,.23-.85-.23-2.15,0-3,.32-1.17,2.91-3.67,3-4,.3-1.11.79-4.69,1-6,.38-2.4-1.14-6.59,3-4,.97.61,1.21,4.28,3,2.5.18-.18.72-4.05,2-4.5-3.21-2.92,2.78-4.07,4-6,3.09-4.88,4.37-4.03,9.5-5.5.57-.16,1.72-2.01,2.5-2.5.62-2.23-2.43-1.75-3.5-1.5-3.9.92-1.64,2.75-8,1-1.52-.42-2.5,2-3,2-.34,0-1.34-1.63-2-2-.47-.26-1.31.19-1.5,0s.26-1.02,0-1.5c-.36-.64-3.1-2.51-2-3.5ZM103,40.13c5.61.17,6.3-4.57,2.5-8-1.39.53-2.49-1.99-3-2-1.48-.04-1.79,4.2-1.5,5.5.19.83,2.49,2.87,2,4.5ZM88,41.13c5.1,1.68,5.05-7.3,2.5-8-.56-.15-3.38-.12-3.5,0-.19.19-.15,4.62,0,5.5.07.39,1.55.9,1,2.5ZM143,36.13c-1.03-1.03-3.39.32-.5,2,.73.42.68-1.82.5-2ZM101,43.13c-.21-.18-1,.25-1.5,0-1.06-.52-4.41-3.13-5.5-2-1.66,1.73,2.23,5.77,2,6-.38.38-4.34-1.28-3,2.5.28.8,3.15,2.86,4,4,.45.61,1.24,1.93,2,3,.05.06-.07.6.5,1.5,1.47,2.32,5.08.01,5.5-1.5.29-1.07-.32-4.18,0-4.5.19-.19,1.81.19,2,0,.64-.64.23-4.3-2-3l-1-4-2-.5-3,.5c-.48-1.57,3.37-.86,2-2ZM160,62.13c1.05-.97-1.56-2.85-2-3.5-.16-.24.15-.8,0-1-.42-.57-3.26-3.43-3.5-3.5-.63-.18-1.41.19-2,0-.41-.13-.63-.93-1-1-1.49-.27-3.41.18-5,0-.91,1.8-4.03.6-4.5,1-.5.43-.57,2.32,1.5,2,2.2-.34,2.78-2.88,6-2,.46.13,2.42,3.17,2.5,3.5.21.94-.25,3.25,0,3.5s3.38-.18,4.5,0c.18.03,2.39,2.02,3.5,1ZM137,56.13l-9,7.5c-.64,2.32.73,3.14,1,4,.58,1.84-1.3,2.77-1,4.5,3.26-.48,2.71-6.71,3-7,.19-.19,1.03.26,1.5,0,1.18-.66,1.55-2.59,3.5-2l1-7ZM72.5,59.13c-.65,0-.65,1,0,1s.65-1,0-1ZM80,59.13c-1.09-1.09-3.09.91-2,2s3.09-.91,2-2ZM143,62.13c-.67-.58-3.67.29-4,1.5-.17.63.18,1.39,0,2-.2.69-9.56,10.77-10.5,7.5-1.45.79-4.62,5.78-3.5,7,1.64,1.8,4.77-4.79,5.5-5,3.61-1.04,3.31-1.5,6-3,.47-.26,1.31.19,1.5,0,.22-.22,1.45-4.44,2-5.5.44-.84,3.2-4.32,3-4.5ZM122,67.13c-.12-.1-2.89-.11-3,0-.18.18-.18,4.82,0,5,2.38,2.38,1.8-2.57,2-3.5.07-.34,1.5-1.09,1-1.5ZM120,76.13c-.72-.81-3.81,1.82-4,2.5-.33,1.16,1.77,3.23,2,4,.39,1.29-1.21,4.78-2.5,5.5-.47.26-1.31-.19-1.5,0-.21.21.21,1.78,0,2.5-.15.52-3.3,4.08-4,5-.2,1.58-.08,1.71,1.5,1.5,1.39-.18,1.82-1.24,2.5-.5-2.94,2.15-1.13,2.21-1,3,.36,2.14-.04,5.38-1,7-1.36,2.29-4.91,3.83-6,6.5,1.75.78,3.32-1.01,3.5-1s2.5,2.32,2.5,2.5c0,.25-3.26,3.43-3.5,3.5-.83.23-4.47-.27-4.5,1.5,0,.3,3.12,2.31,2,4.5,1.68-.1,1.61-1.69,2-2.5.62-1.28,6.91-10.16,7.5-10.5.7-.4,2.21.88,1.5-2.5-.08-.39-1-.67-1-1,0-.17.8-2.47,1-3,.22-.58,2.32-3.24,2-3.5-.91-.76-5.53,2.07-4-3.5.21-.75,2.42-1.46,2-3-.23-.84-2.76-1.5-2-4,.12-.38.83-.58,1-1,.22-.54-.17-1.33,0-1.5.25-.25,2.75.25,3,0,.17-.17-.22-.96,0-1.5.17-.42.88-.62,1-1,.64-2.09-1.38-2.99,3-2.5l-2-1-1-6ZM81,91.63c-.85,3.91.61,10.25,0,14.5,3.77.15,2.54-2.5,3-4.5.96-4.16.89-8.92,2-13,.33-1.23,2.75-4.6,3-6,.15-.86.18-5.29,0-5.5-.75-.85-3.5,1.66-4,2.5-.67,1.13-.69,3.25-1,4-.42,1.04-2.31,2.87-2,4,.8,2.9-.67,2.49-1,4ZM149,78.13l-6.5,1c-2.39,2.36-8.22,3.32-8.5,5.5l-4,4.5c1.6-.48,1.93,1.18,3,.5,2.46-1.56,1.82-5.02,3.5-5.5.66-.19,1.49.23,2,0,3.18-1.44,4.56-1.99,8-3,.43-.13,2.35-2.19,2.5-3ZM72,79.13c-2.08-2.48-1.88,2.18-2,2.5-.16.42-.92.63-1,1-.3,1.35-.23,7.58,1.5,7.5.67-.03,2.7-3.78,2.5-4.5-.11-.4-.91-.62-1-1-.29-1.3.36-5.07,0-5.5ZM45,92.13c1.9-2.09-3.64-5.41-4-5-.7.8,1.48,2.78,1,4,1.24-.57,2.7,1.33,3,1ZM125,91.13c1.44,1.16,5.21-1.58,4-3-.17-.2-4.82,2.34-4,3ZM147,89.13l-11,.5c2.2,2.82,4.76,4.52,8.5,3.5.68-.18,3.31-3.29,2.5-4ZM66,109.13c-1.02,1.02.82,5.49,2.5,6,2.74.83,2.24-3.37,2.5-4.5.76-3.28,1.2-5.01,1-9-.1-1.92.48-3.19-1.5-4.5-2.41-.47-1.48,1.96-1.5,3.5-.03,2.67.82,7.18-1.5,8.5-.47.27-1.31-.19-1.5,0ZM15.5,98.13c-.65,0-.65,1,0,1s.65-1,0-1ZM56,104.13c-.11-.11-2.96-.39-3,.5,1.5.85.74,2.01,1,3,.68,2.55,1.27,5.35,2,8,.15.55,1.85,1.45,2,2,.39,1.43-.04,3.26,1,5,2.26,3.8,6.02,2.39,5-1-.25-.83-4-3.47-4-4,0-.17,1.58-1,1-3-.47-1.63-2.87-1.37-3-1.5-.21-.21-.67-4.42-1-5.5-.12-.4-.89-.61-1-1-.2-.74.21-2.29,0-2.5ZM150.5,106.13c-.65,0-.65,1,0,1s.65-1,0-1ZM126.5,107.13c-.65,0-.65,1,0,1s.65-1,0-1ZM39,118.13c.13-2.01.3-2.81-1-4.5-1.45-1.88-4.02-4.11-6-5.5l2,5.5,5,4.5ZM125,108.13c-1.9-.29-3.29,1.1-3,3l3-3ZM144.5,108.13c-.65,0-.65,1,0,1s.65-1,0-1ZM148.5,110.13c-.65,0-.65,1,0,1s.65-1,0-1ZM87,116.13c-.73-.73-3.25.31-4,1.5-.14.22.15.73,0,1-.38.69-2.27,3.26-2,3.5,1.88,1.69,7.69-4.31,6-6ZM147,116.13c-.11-.11-2.89-.11-3,0-1.02,1.02,1.98,4.02,3,3,.11-.11.11-2.89,0-3ZM18,120.13c-.76-.64-2.8.33-2,1,.76.64,2.8-.33,2-1ZM136,121.13c-.76-.64-2.8.33-2,1,.76.64,2.8-.33,2-1ZM43,122.13c-1.34,1.38,2.88,5.98,3.5,6,.49.02,1.97-1.47,1-3-.48-.77-3.62-3.91-4.5-3ZM71,122.13l-3,2.5c-.87,2.13-1.39,4.38-1,7,.05.37.91.6,1,1,.21.89-.23,2.16,0,3,.14.51,1.63,1.31,2,2,.3.56.71,2.54,1,3,1.16,1.83,4.73,3.06,5,4,.18.62-.18,1.38,0,2,.16.56,1.85,1.45,2,2,.41,1.48-2.15,2.8-3,4-.15.22.16.77,0,1-.55.79-3.52,4.03-3,4.5.13.12,2.54-.12,3,1.5.57,2-.87,2.55-1,3-.36,1.31.99,1.73,1,2s-3.12,2.33-2,4.5l4-3.5c-.52-2.41,2.84-2.34,3-2.5.25-.25-.26-2.69,0-3,.41-.48,1.21,1.37,2.5,1,.31-.09,4.42-4.19,4.5-4.5.94-3.41-1.72-4.04-2-5-.56-1.95.71-2.31,1-3,.22-.54-.17-1.33,0-1.5s.96.23,1.5,0c1.44-.6,2.98-2.86,4-1,.32-1.28,3.71-2.19,3.5-2.5-.23-.34-1.83-2.27-2-1,1.31,2.03-3.7,1.8-4,1.5-.92-.9,1.56-4.45,1-5-.41-.4-6.6.4-7,0-.17-.17.23-.96,0-1.5-.25-.59-1.92-2.63-2-3-.56-2.5.83-3.29,1-4,.3-1.26-.24-4.5-1.5-4.5-1.72,0-1.3,3.63-1.5,4.5-.09.37-1.59,1.04-1,3,.12.38.83.58,1,1,.22.54-.17,1.32,0,1.5.22.23,2.05-.55,2,.5-1.55,2.47-2.25.47-2.5.5-1.81.2-1.34,3.84-1.5,4-.11.11-2.89.11-3,0-.19-.19.26-1.03,0-1.5-.47-.84-3-2.59-3-3v-14.5ZM99,124.13c-.86-.7-2.74,1.49-4,1,.55,1.53-.99,2.26-1,2.5,0,.07.41.21.5.5.56,1.77.62,3.2.5,5l2-2.5c.21-1.23-.29-2.95,0-4,.14-.5,2.57-2.03,2-2.5ZM152,124.13c-.76-.64-2.8.33-2,1,.76.64,2.8-.33,2-1ZM128.5,125.13c-.65,0-.65,1,0,1s.65-1,0-1ZM34,129.13c.29-1.9-1.1-3.29-3-3l3,3ZM130.5,127.13c-1.48,0-1.48,3,0,3,1.35,0-.5-1.34-.5-1.5s1.85-1.5.5-1.5ZM45,134.13c.73-.67-.73-2.39-1.5-3-.64-.51-3.76-2.93-4-3-.61-.17-4.33-.15-4.5,0-1.22,1.12,2.55,3.69,3,4.5.26.47-.19,1.31,0,1.5.25.25,6.74.24,7,0ZM166.5,129.13c-.65,0-.65,1,0,1s.65-1,0-1ZM110,133.13c.68-.68-.89-3.44-2.5-3-3.39.93,1.04,4.46,2.5,3ZM55,138.13c2-2-5.37-4.92-4-1.5.51,1.27,3.4,2.1,4,1.5ZM104.5,135.13c-.65,0-.65,1,0,1s.65-1,0-1ZM93,136.13c-2.11-.26-2.26-.11-2,2l2-2ZM23,139.13c-.76-.64-2.8.33-2,1,.76.64,2.8-.33,2-1ZM51,144.13l-3.5-4-4.5-1,3.5,4,4.5,1ZM120.5,139.13c-.65,0-.65,1,0,1s.65-1,0-1ZM163.5,139.13c-.65,0-.65,1,0,1s.65-1,0-1ZM152,143.13c.64-.76-.33-2.8-1-2-.64.76.33,2.8,1,2ZM143,152.13c1.63-.52,2.25,1.36,3.5,1,.5-.14.91-1.56,2-1,.71-1.43,4.81-5.41,4.5-6.5-.79-2.77-6.31-1.41-7,1-.18.62.18,1.38,0,2-.52,1.82-3.94.63-3,3.5ZM65,146.13c-2.11-.64-3.66,1.53-5.5,1-.48-.14-2.45-3.14-3.5-2s5.19,8.59,6.5,9c.96.3,3.36-1.98,3.5-2.5.59-2.17-.93-3.5-1-5.5ZM75,145.13c-.12-.1-2.88-.1-3,0-1.57,1.31,4.57,1.31,3,0ZM122,149.13c-1.09-1.09-3.09.91-2,2s3.09-.91,2-2ZM162.5,149.13c-.65,0-.65,1,0,1s.65-1,0-1ZM134,157.13c.18-.15-1.77-3.79-2.5-4-1.11-.31-3.13,1.63-4,2-.54.23-1.32-.18-1.5,0-.11.11-.1,2.89,0,3,1.01,1.04,3.32-.97,3.5-1,1.15-.19,4.16.28,4.5,0ZM151,153.13c-5.62-1.2-4.33,6.33-2,4,.19-.19-.26-1.03,0-1.5.45-.81,1.99-1.37,2-2.5ZM7.5,154.13c-.65,0-.65,1,0,1s.65-1,0-1ZM27.5,156.13c-.65,0-.65,1,0,1s.65-1,0-1ZM52,165.13c.21.21,3.36-1.7,4-2.5,1.01-1.27.94-2.01-.5-2.5-3.4-1.15-4.34,4.14-3.5,5ZM89,160.13c-1.08-.87-4.63.37-3,2,.83.83,3.57-1.54,3-2ZM72,163.13c.64-.76-.33-2.8-1-2-.64.76.33,2.8,1,2ZM84,162.13c-.11-.11-2.89-.11-3,0-2.66,2.66,5.66,2.66,3,0ZM88,165.13c-.96-.8-4.51.16-3,2,.4.49,1.07-.81,1.5-1,.18-.08,2.59-.09,1.5-1ZM154,166.13c-.76-.64-2.8.33-2,1,.76.64,2.8-.33,2-1Z"/>
      <path d="M118.5,40.13c1.32.09,5.73,5.92,2,7-4.81,1.39-4.01-7.14-2-7Z"/>
    </g>
  </g>
</svg>