<?xml version="1.0" encoding="UTF-8"?>
<svg id="Layer_2" data-name="Layer 2" xmlns="http://www.w3.org/2000/svg" viewBox="0 0 169.21 153.3">
  <g id="Elements">
    <g id="Element">
      <path d="M138.21,2.14c.25.25-.25,2.75,0,3,.27.27,2.59-.25,3.5,0,.55.15,1.45,1.85,2,2,2.72.75,5.35-1.91,4.5,3,2.86.98,1.74-1.8,2-2,2.31-1.76,1.86,1.86,2,2,.16.16,3.43-.48,4,1.5.69,2.4-3.52,5.21-3,7,.45,1.57,5,3.17,5,4,0,.71-4.54,3.39-4,5-1.14.77-6.02,5.37-6.5,5.5-.93.25-4.83.17-6,0-.37-.05-.6-.91-1-1-3.17-.74-4.39,1.63-6,2-.94.21-3.25-.25-3.5,0-.19.19.27,1.03,0,1.5-1.07,1.89-4.36,1.82-6.5,1.5-3.15-.47-1.86-1.14-6,0-1.05.29-5.77-2.88-9-2-.33.09-2.88,2.75-4,3-3.01.68-4.51-1.59-3.5,4.5.06.38,1,.67,1,1s-.89.59-1,1c-.17.65.21,1.46,0,2-.15.39-.81.59-1,1-.14.31.13.78,0,1-.32.54-4.18,4.48-4.5,4.5-.47.03-1.98-1.46-1-3,.66-1.04,3.31-2.81,3.5-3.5.23-.83-.2-2.09,0-3,.23-1.06,1.47-3.04,1-3.5-.11-.11-2.88-.39-3,.5-.2,1.51-.4,3.33-1.5,4.5l-.5-4.5c.83-.57,2.8-2.77,2-3.5-1.19-1.09-4.11,3.77-6,1.5.82-.86,2.5-2.08,3.5-2.5s1.9.91,1.5-2c2.86,2.97,4.82,1.79,7-1.5.14-.22-.16-.74,0-1,.61-1.02,2.27-3.01,2-4-.1-.37-.82-.58-1-1-.23-.54.18-1.32,0-1.5-.7-.7-5.19,1.78-4-2.5.13-.45,1.59-1.04,1-3-.95-3.14.28-3.04,0-4-.13-.45-1.36-.69-1-2,.65-2.36,2.18-.59,2.5-.5.51.14,7.54-3.68,9-4s6.14.36,6.5,0c.22-.22-.23-1.8,0-2.5.04-.11.91-1.84,1-2,.23-.39,2.32-2.45,2.5-2.5,1.93-.55,5.5,3.02,7.5-.5.27-.47-.19-1.31,0-1.5s4.84-.18,5.5,0c.5.14,1.31,1.62,2,2,.47.26,1.31-.19,1.5,0ZM115.21,14.14c-.76-.64-2.8.33-2,1,.76.64,2.8-.33,2-1ZM122.21,14.14c-.76-.64-2.8.33-2,1,.76.64,2.8-.33,2-1ZM112.71,16.14c-.65,0-.65,1,0,1s.65-1,0-1ZM110.21,17.14c-.88-.71-6,0-4,2,1.05,1.05,4.8-1.36,4-2ZM122.71,18.14c-.65,0-.65,1,0,1s.65-1,0-1ZM120.21,21.14c.64-.76-.33-2.8-1-2-.64.76.33,2.8,1,2ZM118.21,26.14c-1.09-1.09-3.09.91-2,2s3.09-.91,2-2ZM131.71,30.14c-.65,0-.65,1,0,1s.65-1,0-1ZM127.71,35.14c-.65,0-.65,1,0,1s.65-1,0-1Z"/>
      <path d="M98.21,126.14c.27.27,2.59-.25,3.5,0,.66.18,2.07,2.48,3,3,.47.26,1.31-.19,1.5,0s-.16,1.73,0,2.5c.08.39,1,.67,1,1,0,.45-3.15,4.52-3,6-1.64,2.57-2.2.5-2.5.5-.32,0-1.83,2.05-2.5,2.5-.05,1.05,1.77.27,2,.5.11.11.4,1.84-.5,2-3.24.59.07.55-.5,2.5-.05.17-2.18,2.34-2.5,2.5-2.07,1.02-1.39-1.91-1.5-2-2.24-1.88-1.86,1.86-2,2-1.25,1.25-5.22-2.09-6-3.5-.26-.47.19-1.31,0-1.5s-1.81.19-2,0c-.3-.3.2-5.1,0-6.5-.28-1.88-.61-5.16-1-6-.28-.59-1.12-2.58-1-3,.05-.18,2.1-2.26,2.5-2.5.18-.11,1.65-.85,2-1,.54-.23,1.32.18,1.5,0,.42-.42-.42-7.58,0-8,.32-.32,7.46-.46,8,1.5.66,2.4-1.25,4.09-1,5,.1.37.82.58,1,1,.23.54-.18,1.32,0,1.5ZM96.21,129.14c-1.82.52-2.03-.93-3-1.5-1.03-.6-2,.85-2,1,.02.68,3.78,2.12,1,4-.05,1.04,1.73.27,2,.5.48.41-3.06,2.9-2,4,.76.79,3.82-1.83,4-2.5.39-1.42-.26-3.86,0-5.5ZM88.21,128.14c-.76-.64-2.8.33-2,1,.76.64,2.8-.33,2-1ZM101.21,129.14c-6.03-.82-1.54,3.64,1,5l-1-5ZM89.21,131.14c-.76-.64-2.8.33-2,1,.76.64,2.8-.33,2-1ZM91.21,133.14c-.76-.64-2.8.33-2,1,.76.64,2.8-.33,2-1ZM87.71,136.14c-.65,0-.65,1,0,1s.65-1,0-1ZM95.21,139.14c-.41-.48-1.22,1.37-2.5,1-.42-.12-.68-1-1-1-1.35,0,.5,1.34.5,1.5,0,.25-1.5,1.09-1,1.5,1.41,1.16,5.22-1.57,4-3ZM97.21,144.14c-1-.81-3.52,1.58-3,2,1,.81,3.52-1.58,3-2Z"/>
      <path d="M46.21,11.14c-1.23,1.25-9.22-4.7-4.5-6,2.43-.67,3.79,1.01,4,1,.13,0,1.64-1.84,2.5-1,.97.94-1.13,2.39-1.5,3-.81,1.34-.36,2.86-.5,3,4.69.65,2.3-.97,3-3.5.45-1.62,2.87-1.37,3-1.5.14-.14-.29-5.64,2-3,.76.88-1.3,2.42-1,3.5.14.49,3.14,2.42,2,3.5-.88.84-2.37-1-2.5-1-.21,0-3.49,2.13-3.5,2.5-.01.55,1.97,1.92,3,1.5.22,2.11-3.38.48-4,1-.31.25,1.09,1.87,1.5,2,1.65.52,4.32-4,5-4,.18,0,2.76,1.62,3,2,.68,1.07-.98,1.4-.5,3,2.86.98,1.74-1.8,2-2,1.07-.81,2.25.94,2.5,1,1.33.32,2.99-.69,4,1,1.09-.95-1.51-2.01-1.5-2.5,0-.34,1-.67,1-1,0-.25-1.36-.69-1-2,.19-.68,1.51-.49.5-1.5-1.28-1.28.66-3.02,1-3,1.04.05,1.76,3.65,3,4,2.31.66,3.76,1.11,6,0,.57,1.73,3.36,1.85,3.5,2,.7.77-1.48,2.8-1,4-1.7-.67-2.95.84-2,2,.41.5,1.25-1,1.5-1,.33,0,4.05,3.28,5,4,.5.38,2.44,2.27,2.5,2.5.36,1.32-.88,1.56-1,2-.97,3.5,1.02,2.06,2.5,2.5,1.98.59,1.34,3.83,1.5,4,.11.12,2.18-.28,3,1.5l-4,4c-.2,1.23.29,2.95,0,4-.08.27-3.86,3.11-4.5,3.5s-2.44-.66-1.5,2.5c.38,1.26,3.16,1.5,4,3,.88,1.57-.49.79,2.5,2.5.9.51,3.46,2.15,4,2,.39-.11.6-.88,1-1,2.41-.73,2.75,1.32,4,2,.55.3,2.56.72,3,1,2.89,1.86.84,7.34,1.5,8,.19.19,1.03-.26,1.5,0,1.54.86,1.46,3.14,3,4,.47.26,1.31-.19,1.5,0,.13.13-.13,2.52,1.5,3,1.28.37,2.09-1.48,2.5-1,.54.63-1.47,2.57,2.5,4,1.11.4.25,1.71.5,2,.39.45,2.84.21,2-1.5-.59-1.2-4.94-4.33-5-5,2.02-3.01,2.89.61,4.5,1.5,2.71,1.51.96,1.46,1.5,2,.22.22,2.84-.75,2,1.5-.15.41-1.49,1.1-1,1.5.24.2,1.81-.19,2,0s-.26,1.03,0,1.5c.55.98,2.31,1.96,3,3,.52.79,1.33,4.5,2.5,4.5.25,0,.69-1.36,2-1,.89.25,2.41,3.27,5.5,2,.39,1.79-1.71.71-2,1-.6.6.91,3.01,1.5,3,.39,0,3.38-4.27,4.5-3s-1.19,4.83-1,5c.21.18,1.03-.26,1.5,0,1,.55,2,2.44,3,3,.47.26,1.29-.18,1.5,0,.16.13-1.94,3.08-1,4,.26.25,2.75-.25,3,0,.21.21-.21,1.78,0,2.5.52,1.76,6,4.35,6,5,0,.31-.82.56-1,1-.89,2.23,1.42,1.18,2.5,1.5.73.22,2.27,2.78,3,3,2.07.62,3.8-1.18,1.5,3,1.63-.55,2.02.88,2.5,1,1.32.34,1.75-1,2-1,1.35,0-.5,1.34-.5,1.5,0,.18,2.33,2.45,2.5,2.5,4.47,1.33.76.26,2.5,2,.21.21,1.78-.21,2.5,0,1.44.43,1.8,3.93,2.5,5.5l-3.5.5c-.62-1.46-2.64-1.73-3-2-10.98-8.35-18.1-23.02-32-27-1.21-.35-4.19-4.91-6-2-1.74.56-4.45.57-6,1-2.19.6-6.83,2.56-9,4-3.57,2.37-6.51,7.8-10.5,10,.14-2.34,1.69-4.63,3.5-6,5.84-4.41,10.87-10.35,19-10,.67-1.57,3.26-.75,3.5-1,.16-.16.16-3.8,0-4.5-.08-.36-.8-.57-1-1-1.58-3.47-4.9-6.71-7-10-2.49-3.9-5.15.5-5.5.5-.25,0-3.09-2.92-3.5-3.5-2.98-4.22-8.17-6.97-13.5-8.5-.72-.21-2.3-2.81-3-3-.92-.25-3.15.28-3.5,0-.5-.41.89-1.12,1-1.5.09-.33-.8-2.67-1-3-.81-1.34-5.14-4.89-6.5-4.5-.56.16-1.44,1.84-2,2-2,.57-10.43,2.27-12,2-.38-.07-.67-1-1-1s-.59.89-1,1c-.63.17-1.39-.17-2,0-.31.09-4.41,4.2-4.5,4.5-.83,2.77,2.92,4.19,4,6,.13.22-.14.69,0,1,2.48,5.36,6.19,7.25,9,12,.89,1.5,3.74,6.82,4,8s-.21,2.77,0,4c.07.38.95.63,1,1,.21,1.69.32,6.53,0,8-.07.34-1.93,2.66-2,3-.31,1.45.36,3.68,0,5-.15.55-1.85,1.45-2,2-.41,1.48-.34,2.17-1,4s-7.75,14.07-8.5,14.5c-.47.27-1.31-.19-1.5,0-.26.26-2.31,5.42-3,6.5-2.27,3.56-4.05,1.82-6.5,2.5-.69.19-4.2,6.5-6,7-.65.18-3.26.16-4,0-.36-.08-2.82-2-3-2-.32,0-4.08,3.45-5,4-.21.13-.69-.14-1,0-.43.2-.64.92-1,1-3.59.83-4.02-1.73-5-2-1.07-.3-2.82.25-4,0-1.1-.24-3.67-2.91-4-3-2.1-.57-5.01,1.49-5.5,1-.2-.2.18-1.75,0-2.5-.09-.39-.88-.6-1-1-.38-1.32,1.38-1.68,1-3-.69-2.4-5.64-1.14-6-1.5-.63-.63,1.5-5.1-2-4-.89-3.35,2.59-1.54,3-2,1.95-2.2-1.87-1.87-2-2-.24-.24.16-3.04,0-4-4.15-1.06-2.66,1.74-3,2-.9.7-2.93-3.07-2-4,.19-.19,1.76.2,2,0,.5-.41-.93-1.16-1-1.5-.78-3.96,1.02-4.7,3-7.5-2.91.4-1.58-.49-2-1.5-.31-.75-1.78-3.09-2.5-3.5-.46-.26-1.28.18-1.5,0-1.11-.93,2.61-1.08,3-2.5.87-3.17,1.16-5.63,3-9,.38-.69,1.84-1.48,2-2,1.05-3.52-1.76-2.26-2-2.5-.17-.17.2-.94,0-1.5-.16-.43-1-.68-1-1,0-.41,2.53-2.16,3-3,.26-.47-.19-1.31,0-1.5.17-.17.96.22,1.5,0,.43-.18.64-.93,1-1,.94-.2,3.26.24,3.5,0,.35-.35-.94-4.02,1.5-3,.56.23.7,1.36,2,1,.52-.14,2.15-2.34,3-3,.2-.15.77.17,1,0,2.03-1.47,2.18-2.4-.5-2-.12-2.98-3.22-5.43-3-8.5,2.21-1.68,4.33-5.06,6.5-6.5,2.29-1.52,4.83-1.4,7-2,1.63-.45,1.16-5.13,6-4,1.02.24,3.92,1.7,5,2,.21.06,3.28-.79,4-1,.46-.13,2.48-3.07,2.5-1.5,0,.25-1.5,1.09-1,1.5s4.23-.35,5.5,0c.54.15,1.37,1.75,2,2,2.21.88,1.31-1.81,1.5-2s1.03.26,1.5,0c2.44-1.36,2.93-5.86,6-6l5-3c.89,1.07-2.69,2.87-1.5,4,.6.57,6.79-.77,8,.5l3-.5c-.07-3.88-4.89-4.25-8-4l3-4c-1.75-.19-3.84.28-5.5,0-.38-.06-.66-.99-1-1-.75-.01-7.47,4.79-10,4-4.21-1.31-6.11-.43-10-1-.37-.05-.6-.91-1-1-2.13-.49-4.69.72-4.5-3-3.63.52-6.58-.88-9.5-3l-1,2c-.71-1.09-3.16-1.25-3.5-2.5-.25-.91.27-3.23,0-3.5-.25-.25-2.75.25-3,0-.19-.19.26-1.03,0-1.5-.69-1.23-5.11-4.04-6.5-4.5-.7-.23-2.28.22-2.5,0-.19-.19.26-1.03,0-1.5-1.42-2.55-3.46-1.5,0-5.5-5.51.46-1.2-.81-2-3.5-.42-1.43-4.92-1.58-3-3.5.19-.19,1.03.26,1.5,0,1.67-.93,3.44-4,3.5-6l-3,3c-.27-2.7.38-5.9,0-8.5-.05-.37-.73-2.84-1-4-.03-.13-1.82-1.73-1-2.5.16-.15,3.73-.14,4.5,0,.37.07.59.88,1,1,2.28.69,6.61-3.41,8-3,.56.16,1.44,1.83,2,2,1.35.4,3.65.6,5,1,.24.07,3.22,3.03,3.5,3.5.94,1.56,1.06,4.44,2,6,.33.54,4.18,4.5,4.5,4.5.37,0,3.62-5.07,4.5-6ZM56.21,16.14c.64-.76-.33-2.8-1-2-.64.76.33,2.8,1,2ZM71.21,19.14c-.83-.83-3.57,1.54-3,2,1.08.87,4.63-.37,3-2ZM28.71,20.14c-.65,0-.65,1,0,1s.65-1,0-1ZM74.21,25.14c-1.61,1.23-3.16-3.73-5-.5l4.5,1.5,2.5-3c-2.86-.98-1.74,1.8-2,2ZM27.21,24.14c-1.09-1.09-3.09.91-2,2s3.09-.91,2-2ZM38.21,28.14c.64-.76-.33-2.8-1-2-.64.76.33,2.8,1,2ZM68.21,27.14c-1.03-1.03-3.39.32-.5,2,.73.42.68-1.82.5-2ZM76.21,28.14c-.27-.22-6.73-.22-7,0-.04.03-.04.97,0,1,.27.22,6.73.22,7,0,.04-.03.04-.97,0-1ZM52.71,29.14c-.65,0-.65,1,0,1s.65-1,0-1ZM31.71,31.14c-2.46.71-.85,3.82,2,3,2.46-.71.85-3.82-2-3ZM46.21,31.14c-.76-.64-2.8.33-2,1,.76.64,2.8-.33,2-1ZM79.21,35.14c.25.31,1.89-1.11,2-1.5.42-1.53-2.17-3.19-3-2.5-1.25,1.05,1.88.9,2,1,.33.27-1.75,2.07-1,3ZM22.71,32.14c-.65,0-.65,1,0,1s.65-1,0-1ZM53.21,32.14c-1.09-1.09-3.09.91-2,2s3.09-.91,2-2ZM72.21,33.14c-.76-.64-2.8.33-2,1,.76.64,2.8-.33,2-1ZM42.21,34.14c-.12-.1-2.88-.1-3,0-1.57,1.31,4.57,1.31,3,0ZM45.21,35.14c-.76-.64-2.8.33-2,1,.76.64,2.8-.33,2-1ZM77.21,38.14c.36-.29-1.36-3.3-3-.5-.44.74,2.76.69,3,.5ZM60.21,38.14c-.76-.64-2.8.33-2,1,.76.64,2.8-.33,2-1ZM40.21,41.14c.57-.46-2.17-2.83-3-2-1.63,1.63,1.92,2.87,3,2ZM49.71,39.14c-.65,0-.65,1,0,1s.65-1,0-1ZM43.21,42.14c1.03-1.03-.32-3.39-2-.5-.42.73,1.82.68,2,.5ZM53.71,41.14c-.65,0-.65,1,0,1s.65-1,0-1ZM18.21,92.14c.64-.76-.33-2.8-1-2-.64.76.33,2.8,1,2ZM40.71,101.14c-.65,0-.65,1,0,1s.65-1,0-1ZM6.71,105.14c-.65,0-.65,1,0,1s.65-1,0-1ZM16.21,110.14c.07-.07.38-2.13-.5-2l-3.5,5c3.34.89,1.54-2.6,2-3,.22-.19,1.81.19,2,0ZM9.21,109.14c-.76-.64-2.8.33-2,1,.76.64,2.8-.33,2-1ZM10.21,111.14c-1.09-1.09-3.09.91-2,2s3.09-.91,2-2ZM7.21,113.14c-2.11-.26-2.26-.11-2,2l2-2ZM19.21,113.14c-1.09-1.09-3.09.91-2,2s3.09-.91,2-2ZM33.21,117.14c-.76-.64-2.8.33-2,1,.76.64,2.8-.33,2-1ZM13.21,120.14c-1.6.61-5.13-1.87-6-1-.19.19.3,3.66-2,4.5,1.28.51.9,2.41,1,2.5.26.25,3.03-.16,4,0l-4-3c1.66.26,3.03-.4,4.5-1,.97-.39,2.35-.36,2.5-2ZM14.71,122.14c-.65,0-.65,1,0,1s.65-1,0-1ZM39.21,122.14c-.76-.64-2.8.33-2,1,.76.64,2.8-.33,2-1ZM30.21,125.14c.36-.29-1.36-3.3-3-.5-.44.74,2.76.69,3,.5ZM23.21,124.14c-.76-.64-2.8.33-2,1,.76.64,2.8-.33,2-1ZM18.21,130.14l-3-3c-.29,1.9,1.1,3.29,3,3ZM47.21,130.14c.52-.42-2-2.81-3-2-.52.42,2,2.81,3,2ZM13.21,131.14c.36-.29-1.36-3.3-3-.5-.44.74,2.76.69,3,.5ZM26.21,131.14c.64-.76-.33-2.8-1-2-.64.76.33,2.8,1,2ZM20.21,131.14c-.15-.15-3.45-.27-3,.5,1.76,3.01,4.42.92,3-.5ZM25.21,133.14c-2.11-.26-2.26-.11-2,2l2-2ZM49.71,133.14c-.65,0-.65,1,0,1s.65-1,0-1ZM17.21,135.14c-.76-.64-2.8.33-2,1,.76.64,2.8-.33,2-1ZM34.71,136.14c-.65,0-.65,1,0,1s.65-1,0-1Z"/>
      <path d="M60.21,11.14c1.41-2.57-2.38-1.78-2-2.5s2.08-2.22,3-2.5l-1,5Z"/>
      <path d="M73.21,8.14c.8.67-1.24,1.64-2,1-.8-.67,1.24-1.64,2-1Z"/>
      <path d="M104.71,65.14c.65,0,.65,1,0,1s-.65-1,0-1Z"/>
      <path d="M88.71,39.14c.65,0,.65,1,0,1s-.65-1,0-1Z"/>
      <path d="M56.71,4.14c.65,0,.65,1,0,1s-.65-1,0-1Z"/>
    </g>
  </g>
</svg>