<?xml version="1.0" encoding="UTF-8"?>
<svg id="Layer_2" data-name="Layer 2" xmlns="http://www.w3.org/2000/svg" viewBox="0 0 179.02 160.35">
  <g id="Layer_1-2" data-name="Layer 1">
    <g id="Element">
      <path d="M41,153.21c-.15.11-2.55-.07-3,1.5-.18.63,2.02,4.4,1,5.5-.52.56-2.78-.68-3-1.5s-.17-4.05,0-5c.39-2.16,3.61-6.3,4-8,.21-.94-.25-3.25,0-3.5.3-.3,3.7.3,4,0,.5-.5-1.43-1.5,1.5-2,.68-.12.78-2.14,1.5-3l-4.5,3c-3.41-1.95-1.87-4.21-2.5-6.5-.32-1.17-4.99-2.95-6.5-3.5-1.11-.4-.25-1.69-.5-2-.28-.34-2,1.28-2,1.5,0,.25,1.5,1.09,1,1.5-1.23,1.01-5.27-1.47-7-1,.48,1.2-1.7,3.23-1,4,.14.15,2.93.27,3.5,2,3.96-1.13,1.94,2.44,2.5,3,.17.17.96-.22,1.5,0,.43.18.65.94,1,1,1.28.23,5.18-.31,5.5,0,.62.59-2.07,3.42,0,5l-4,1c-.15,1.44.23,3.13,0,4.5-.06.38-1,.67-1,1s.93.61,1,1c.12.7.12,3.37,0,3.5-.54.57-4.09-1.91-5-1-.14.14.38,5.42-2,3-.53-.54,1.72-.78,0-2.5-.9-.9-3.23,1.87-4.5,1.5-.82-.24-3.21-4.29-4.5-3-.19.19.27,1.03,0,1.5-1.4,2.45-4.61,1.14-5,1.5-.28.26.79,2.4-1,2v-5l-3,3,1-4.5c-2.56-3.51-3.29.17-4.5.5-2.37.65-2.34-2.84-2.5-3-.19-.19-1.81.19-2,0s.16-1.73,0-2.5c-.08-.39-1-.67-1-1s.94-.62,1-1c.21-1.24-.22-2.79,0-4,.07-.37.89-.6,1-1,.2-.74-.21-2.29,0-2.5.13-.13,2.53.13,3-1.5.62-2.15-.77-2.34-1.5-3.5-.68-1.07.98-1.4.5-3l3,2c-.62-2.54,2.23-3.95,0-5.5l3-1c-.4-1.16-2.5-.22-3.5-.5-.16-.04-1.45-1.34-1.5-1.5-.57-1.99.95-2.7,1-3,.94-5.17,1.17-12.77,0-18-.51-2.29-2.04-6.29,0-9-1.29-.66-4.62-6.89-4-7.5s2.3.98,3.5,1c.88.01.61-1.89.5-2-.26-.26-1.6.61-2-.5-.62-1.73-1.9-2.65-2-3-.36-1.31,1-1.74,1-2,0-.23-2.3-2.88-2-4,.12-.44,1.88-2.57,2-3,.11-.41-1.65-5.12-1-8,.96-4.27-.53-2.28-1-4-.53-1.93.48-9.51,2.5-9.5.16,0,1.5,1.85,1.5.5,0-.33-.89-.59-1-1-.17-.62.17-1.38,0-2-.11-.41-1-.67-1-1,0-1.12,3.7-3.7,3-6-.36-1.19-1.41-5.5-1-7,.47-1.72,1.98.26,1-4-.53-2.31,2.28-5.73-.5-6.5-1.31-.36-1.74,1-2,1-.89,0-2.88-4.27-2.5-5.5.11-.37.8-.57,1-1,.14-.31-.13-.78,0-1,.7-1.18,5.27-4.23,4-5.5-.19-.19-1.81.19-2,0-.86-.86,3.44-6.33,3-8,4.03.53,2.45-.51,3-1.5,1.42-2.55,2.32-.5,2.5-.5.33,0,.62-.94,1-1,2.98-.5,7.06.52,10,0,.37-.07.59-.87,1-1,2.62-.8,5.65,3,6,3,.27,0,2.24-1.5,5-1,3.57.65,9.04-.09,13,1,.96.26,2.44,4.13,4.5.5.27-.47-.19-1.31,0-1.5,1.19-1.19,5.08.85,6,2.5.06.11.08,2.6,1,1.5.18-.22-.26-1.04,0-1.5,1.41-2.48,3.69-1,5.5-1.5.3-.08,3.78-3,5-3,.33,0,.62.94,1,1,2.33.39,6.02-.55,8,0,.55.15,1.45,1.85,2,2,1.8.49,3.39.21,6,1,2,.61,4.63-2,5-2,1.29.01,6.53,3.13,7,3,.4-.11.6-.89,1-1,1.3-.36,1.44.77,2,1,2.18.91,1.32-1.82,1.5-2,.61-.61,4.37-.75,5.5-1,.39-.09.63-.95,1-1,1.49-.22,7.84-.32,9,0,.82.22,2.13,2.92,3.5,3-.32-1.01.63-2.76,1.5-3,1.21-.33,9.46-.26,11,0,4.61.77,9.99-1.73,14-1,5.16.94,4.63.37,9,0,1.86-.16,7.62-.38,9,0,.17.05,2.27,2.11,2.5,2.5.13.22-.14.69,0,1,.2.43.92.64,1,1,.17.77.17,3.22,0,4-.08.36-2,2.82-2,3,0,.4,1.85,1.45,2,2,.18.66.19,5.31,0,5.5-.16.16-5.4-.4-3,2,.26.26,1.87-.58,2,.5.23,1.9-.3,4.19,0,6,.47,2.81-.73,2.91,0,7,.5,2.82-1,5.61-1,6,0,.26,2.2,2.24,3,4,.41.9,2,4.71,2,5,0,.17-1.58,1-1,3,.81,2.82.16,5.16,0,8,0,.16,1.58,1.01,1,3-.5,1.71-3.95,1.76-5.5,1.5-.38-.06-.67-1-1-1s-.58.88-1,1c-1.05.3-3.22-2.31-4.5-.5,1.19,3.35,6.52,2.1,7,2.5s-1,1.25-1,1.5c0,.86,3.11,1.69,4,3,.63.93-2.54-.25-2,1.5l5.5,2c.84,1.14,3.76,4.56,3.5,5.5-.11.41-1,.67-1,1s1,.67,1,1c0,.18-2.33,2.45-2.5,2.5-.62.18-1.38-.18-2,0-1.7.49-1.24,2.6-1.5,3.5-.74,2.58-6.4.98-7,1.5-.27.23,1.75,2.26,1,3-.25.25-2.76-.59-3.5,1-.65-1.37-4.32-1.82-4.5-2-.13-.13.12-2.55-1.5-3-.69-.19-6.25-.21-6.5,0-2.87,2.41,4.03,1.89,4.5,2,.36.08.57.82,1,1,.54.22,1.29-.17,1.5,0s-2.14,3.86-1,5c.23.23,5.31.08,6.5,0,.15,0,1.8-1.92,2.5.5s-3.23,6.04-3,8.5c-6.15-.88-.09,2.37-1,5.5-.67,2.32-5.97,1.32-8,1.5l2,5.5c.97,1.95,4.5,1.18,5,3,.46,1.68-2.73,3.01-3,4-.29,1.05.2,2.77,0,4-.06.38-1,.67-1,1s.94.62,1,1c.42,2.55.26,5.46,0,7-.44,2.58.73,3.07,1,4,.39,1.34-1.37.71,0,4,.91,2.2-1.41,1.18-2.5,1.5-1.24.36-2,4-3,4-.33,0-.67-1-1-1-.4,0-1.57,2.74-4,2-4.15-1.26-5.18.23-6,0-7.72-2.13-18.24.16-25-1-3.03-.52-5.82,1.96-9,2-.82-.38-4.33-3.21-4.5-3s.22.96,0,1.5c-.14.33-.89,1.82-1,2-3.02,4.95-4.3.83-5.5.5-1.6-.44-4.41,4.71-6.5,3-.15-.12,1.89-2.34-.5-3-1.31-.36-1.75,1-2,1-.37,0-1.63-2-2-2-.34,0-1.78,2.91-6,2-.34-.07-2.66-1.93-3-2-3.04-.66-5.07.6-7,1-.66.14-3.37.12-3.5,0s-.17-3-1.5-3-1.38,2.89-1.5,3c-1.17,1.07-3.21-2-3.5-2-.99,0-3.02,3.67-5,0l-6.5,2-1-5c-.42,2.49,1.49,6.85-2,6,.66-2.07-2.47-2.88-2-4.5.4-1.36,3.55-1.99,4.5-2.5,1.27-.69,1.55-2.7,4-2,.64.18,1.4,2.08,2.5,2-1.05-2.54,1.76-3.64,2-4.5.17-.61.16-4.34,0-4.5-.74-.76-2.48,1.29-3.5,1-.56-.16-1.61-2-2-2-.11,0-1.5,1.39-1.5,1.5,0,.33,1,.67,1,1,0,.3-2.92,4.5-3.5,4.5-.15,0-1.66-1.84-2.5-1s1,2.35,1,2.5c0,1.32-2.87,1.37-3,1.5-.17.17-.58,2.95-2,4l3,2.5-1.5,4.5-1.5-7ZM163,3.21c-1-.81-3.52,1.58-3,2,1,.81,3.52-1.58,3-2ZM97.5,9.21c-.65,0-.65,1,0,1s.65-1,0-1ZM62,10.21c-.24-.19-3.44-.24-3,.5,1.64,2.8,3.36-.21,3-.5ZM164.5,11.21c-.65,0-.65,1,0,1s.65-1,0-1ZM152,12.21c-.15-.15-3.45-.27-3,.5,1.76,3.01,4.42.92,3-.5ZM71.5,15.21c-.65,0-.65,1,0,1s.65-1,0-1ZM141.5,16.21c-.65,0-.65,1,0,1s.65-1,0-1ZM68,21.21c-.42.94.89,3,1.5,3s2.73-3.73,2.5-4.5c-.3-1.02-4.53-2.97-5-2.5-.19.19.26,1.03,0,1.5-.54.97-2.27,1.97-3,3l4-.5ZM107,24.21c-.5-1.48,2.8-5.09,2-6-.11-.13-2.97,1.22-3,1.5.32,2.47-3,4.98,1,4.5ZM31,22.21c.81-1-1.58-3.52-2-3-.81,1,1.58,3.52,2,3ZM86,19.21c-2.79-.32-1.57.17-2,1.5-.35,1.08-1.61,3.88-1,4.5.5.51,5.04-.16,5-1.5-.01-.38-3.12-2.26-2-4.5ZM162,19.21c-.76-.64-2.8.33-2,1,.76.64,2.8-.33,2-1ZM133,23.21c-.15-.11,2.07-2.38-1-3,.51,1.63-1.36,2.24-1,3.5.12.43,2.14,3.49,2.5,3.5.71.01,3.04-4.43,2.5-5-.31-.33-2.01,1.76-3,1ZM11,23.21c.64-.76-.33-2.8-1-2-.64.76.33,2.8,1,2ZM77.5,21.21c-.65,0-.65,1,0,1s.65-1,0-1ZM49.5,24.21c-.65,0-.65,1,0,1s.65-1,0-1ZM114,29.21c.21.24,5-2.67,5-3.5,0-1.18-2.76,1.19-3.5,1.5-.56.23-3.2.02-1.5,2ZM9.5,26.21c-.65,0-.65,1,0,1s.65-1,0-1ZM76,29.21c-.11-.1.45-1.64-1-2.5-.93-.55-1.87.53-2,1-.59,2.2.95,3.56,1,5.5,2.93-.66,2.67,2.97,4.5,4,.47.26,1.31-.19,1.5,0,.18.18-.23.96,0,1.5s1.36.7,1,2c-.29,1.06-3.72,2.34-3,4.5,1.59-.48,1.94,1.19,3,.5,1.46-.95.88-2.38,1-2.5.22-.22,1.8.23,2.5,0,1.43-.47,3.13-2.77,5.5-2l-5.5-1c-2.22-1.24-1.08-2.98-1.5-4.5-.15-.55-1.85-1.45-2-2-.39-1.41.27-3.86,0-5.5-1.03-.12-2.07,2-2.5,2-.32,0-.57-.85-1-1-.56-.2-1.32.17-1.5,0ZM112.5,26.21c-.65,0-.65,1,0,1s.65-1,0-1ZM123,29.21c.81-1-1.58-3.52-2-3-.81,1,1.58,3.52,2,3ZM38,29.21c-.24-.24-2.56.2-3.5,0-.43-.09-.88-1.55-2.5-1,.57,1.23-1.33,2.71-1,3,1.27,1.11,4.83-1.19,5-1,1.35,1.45-3.83,3.68-3,6.5.08.28,1.5,1.99,2,1,2.27-2.04,3.63,1.26,4.5,1.5,1.14.32,3.88-2.26,3.5-3.5s-3.05-1.5-4-3c-.46-.73-.86-3.36-1-3.5ZM168.5,28.21c-.65,0-.65,1,0,1s.65-1,0-1ZM47.5,29.21c-.65,0-.65,1,0,1s.65-1,0-1ZM99,31.21c.64-.76-.33-2.8-1-2-.64.76.33,2.8,1,2ZM140,31.21c.36-.29-1.36-3.3-3-.5-.44.74,2.76.69,3,.5ZM134,30.21c-.76-.64-2.8.33-2,1,.76.64,2.8-.33,2-1ZM137,36.21c.19-.19-.16-1.73,0-2.5.05-.26,1.85-1.5.5-1.5-2.39,0-3.38,6.88-.5,4ZM165.5,32.21c-.65,0-.65,1,0,1s.65-1,0-1ZM129,33.21c-.76-.64-2.8.33-2,1,.76.64,2.8-.33,2-1ZM95.5,36.21c-.65,0-.65,1,0,1s.65-1,0-1ZM101,36.21c-.11-.11-2.89-.11-3,0-2.66,2.66,5.66,2.66,3,0ZM63.5,37.21c-.65,0-.65,1,0,1s.65-1,0-1ZM10,40.21l-2-2c-.26,2.11-.11,2.26,2,2ZM121,38.21c-2.11-.26-2.26-.11-2,2l2-2ZM92.5,39.21c-.65,0-.65,1,0,1s.65-1,0-1ZM124,39.21c-2.11-.26-2.26-.11-2,2l2-2ZM131.5,40.21c-.65,0-.65,1,0,1s.65-1,0-1ZM110,45.21c1.84.91,7.91-.91,6-3-.14-.16-2.97,1.43-4,1.5l-2,1.5ZM56,44.21c-1.09-1.09-3.09.91-2,2s3.09-.91,2-2ZM35.5,45.21c-.65,0-.65,1,0,1s.65-1,0-1ZM66,53.21c.24-2.4,2.33-3.76-1-5,1.35,4.66-4.45,3.51-5,5.5-.46,1.68,2.73,3.01,3,4,.38,1.36-.4,6.1,0,6.5.22.22,1.8-.23,2.5,0,.58.19,3.09,1.83,3.5,2.5.18.29.07,3.45,2,1.5.14-.14-.32-1.67.5-3,2.2-3.59,1.51-5.9,2.5-9.5.14-.5,1.62-1.31,2-2,.26-.47-.19-1.31,0-1.5.33-.33,5.19.69,4-4-3.45-1.31-.81,4.24-3.5,3-1.82-.84-.84-3.2-2.5-3l-1,7c-3,.6-2.71-3.07-4.5-4-.73-.38.07,3.4-2.5,2ZM26.5,49.21c-1.48,0-1.48,3,0,3s1.48-3,0-3ZM110.5,49.21c-.65,0-.65,1,0,1s.65-1,0-1ZM57,53.21c2-2-5.37-4.92-4-1.5.51,1.27,3.4,2.1,4,1.5ZM144.5,50.21c-.65,0-.65,1,0,1s.65-1,0-1ZM120,53.21c.64-.76-.33-2.8-1-2-.64.76.33,2.8,1,2ZM131.5,52.21c-.65,0-.65,1,0,1s.65-1,0-1ZM89,55.21c1.03-1.03-.32-3.39-2-.5-.42.73,1.82.68,2,.5ZM158,54.21c-.76-.64-2.8.33-2,1,.76.64,2.8-.33,2-1ZM31,72.21c.17-.17-.22-.96,0-1.5s1.38-.72,1-2c-.11-.36-.78-.57-1-1-.15-.29.13-.78,0-1-1.22-2.01-3.76-4.21-5-6-.26-.38-.72-2.56-1-3-.5-.8-2.02-2.19-3-2.5l1,5c2.31-.27,6.34,6.37,7,8.5.54,1.75-1.28,3.26-1,3.5.08.07,1.93.07,2,0ZM131,56.21c-3.26-.3-3.3-.26-3,3l3-3ZM59,57.21c-.76-.64-2.8.33-2,1,.76.64,2.8-.33,2-1ZM55,58.21c-1.16-1.01-3.1.89-3.5,1-1.11.3-3.41-.68-2.5,1.5.17.42.88.62,1,1,.55,1.77-1.28,3.24-1,3.5,1.68,1.59,2.81-2.23,3-2.5.46-.66,3.52-4.04,3-4.5ZM85,59.21c-.6-.6-3.49.23-4,1.5-1.37,3.42,6,.5,4-1.5ZM110,59.21c-.29-.27-7.72-.28-8,0-.19.19.19,1.81,0,2-.21.21-3.9.57-5,2.5-1.59,2.8-.95.84-4.5,1.5-2.48.46-6.03,3.71-7,4-.72.21-2.29-.21-2.5,0-.25.25.25,2.75,0,3-.17.17-.94-.2-1.5,0-.43.16-.68,1-1,1-.29,0-.55-.78-1-1-1.71-.84-1.95,1.62-1.5,2s2.86-.67,3,.5c.42,3.46-1.07,4.43,4.5,3.5.38-.06.66-1,1-1,.25,0,1.09,1.5,1.5,1,.32-.39-.31-3.69,0-4,.17-.17.96.22,1.5,0,.42-.18.62-.89,1-1,2.35-.69,4.3-1.81,5-2,1.33-.37,3.67.37,5,0,.5-.14,1.31-1.62,2-2,.47-.26,1.31.19,1.5,0s-.19-1.81,0-2,1.81.19,2,0-.19-1.81,0-2,1.76.2,2,0c.5-.41-1-1.25-1-1.5,0-.39,4.26-3.35,3-4.5ZM118.5,60.21c-.65,0-.65,1,0,1s.65-1,0-1ZM129,60.21c-.43-.49-4.93,1.38-5,3,1.26-.22,4.14,1.87,5,1,.14-.14.13-3.85,0-4ZM172,62.21c.64-.76-.33-2.8-1-2-.64.76.33,2.8,1,2ZM44,66.21c-.17-.17.23-.96,0-1.5-.3-.73-1.85-3.18-2.5-3.5-2.32-1.13-1.1,4.01-3,4-.33,0-.61-.92-1-1-3.65-.76-2.02.87-2.5,2.5-.17.56-1.85,1.45-2,2-.36,1.32.88,1.56,1,2,.3,1.1-.69,3.41,1.5,2.5.56-.23.7-1.35,2-1,1.93.53.88,4.63,3.5,5,.88-1.2-1.41-5.59-1-6,.2-.19,4.59-.14,5.5,0,.37.06.61.91,1,1,1.81.4,1.94.06,4,1,.8.36,3.05.66,2.5,2.5-.14.46-2.02,3.36-2.5,3.5-3.44,1.02-3.44-3.5-5-4-1.18-.37-3.16,1.87-3.5,3,3.07-.24,4.61,2.75,6.5,4,1.21.8,3.44.76,4.5,2.5.59.97-1.02,2.07,3,1.5-1.17-2.67-2.48-5.59-2-8.5.06-.38,1-.67,1-1,0-.67-1.36.26,0-3,1.02-2.44-2.65-1.15-3-1.5-.19-.19.26-1.03,0-1.5-2.14-3.84-7.25-3.75-8-4.5ZM78.5,61.21c-.65,0-.65,1,0,1s.65-1,0-1ZM166.5,62.21c-.65,0-.65,1,0,1s.65-1,0-1ZM123,67.21c.68-.68-.89-3.44-2.5-3-3.39.93,1.04,4.46,2.5,3ZM154,64.21c-2.1-1.1-6.09,2.72-5,4,.21.25,4.99-2.44,5-4ZM113,69.21c-.12-.1-2.88-.1-3,0-1.57,1.31,4.57,1.31,3,0ZM70,72.21c-.97-.83-2.25.93-2.5,1-1.65.45-2.77-2.63-4.5-3-1.27,2.27,2.35,6.31,2,7.5-.16.56-1.84,1.44-2,2-.39,1.35.6,1.74,0,4-.17.65.21,1.45,0,2-.23.6-1.99,3.35-2.5,3.5-.61.18-2.29.36-2.5-.5-.28-1.13-.39-3.36-2-1.5-.99,1.14,3.18,6.12,4.5,7,.86-.63-1.26-2.25-.5-3,.32-.32,3.99-.04,3-3.5,1.6-.73,2.33-4.18,3.5-4.5.81-.22,2.05.16,3,0,.38-.07.66-1,1-1,.18,0,2.4,1.73,3,2,1.41.63,2.9,1.23,4.5,1-.37-1.88,2.35-4.24,2-5.5-.05-.17-2.33-2.45-2.5-2.5-1.32-.38-1.68,1.38-3,1-.4-.11-.6-.88-1-1-.61-.18-1.38.18-2,0-.17-.05-2.45-2.33-2.5-2.5-.37-1.28,1.48-2.09,1-2.5ZM125.5,70.21c-.65,0-.65,1,0,1s.65-1,0-1ZM136.5,73.21c-.65,0-.65,1,0,1s.65-1,0-1ZM141.5,73.21c-.65,0-.65,1,0,1s.65-1,0-1ZM5.5,74.21c-.65,0-.65,1,0,1s.65-1,0-1ZM102,75.21c-.76-.64-2.8.33-2,1,.76.64,2.8-.33,2-1ZM167,75.21c-2.11-.26-2.26-.11-2,2l2-2ZM84.5,79.21c-.65,0-.65,1,0,1s.65-1,0-1ZM17,88.21c-.19-.19.26-1.03,0-1.5-.39-.71-2.68-2.83-3.5-3.5-.54-.44-3.15-.38-2.5-3-1.91-.2-.74,2.24-1,3.5-.08.38-.89.6-1,1-1.1,3.98,2.5,2,3,2.5.17.17-.22.96,0,1.5.18.43.94.65,1,1,.67,3.71.78,5.48,3,9,1.65,2.63,8.01,10.76,10.5,11.5.72.21,2.23-.22,2.5,0,.5.41-1,1.25-1,1.5,0,.34.93.62,1,1,.18,1.05-.17,4.5,1.5,4.5.17,0,1-1.58,3-1,1.52.44,3.81,6.74,5.5,5,.76-.79-1.81-5.88,2-5-1.4,6.43,3.09,3.09,4,4,.3.3-.31,3.66,0,4,1.24,1.35,4.09-3.81,6-3,.4-1.79-1.74-.72-2-1-1.16-1.27,2.6-4-.5-6-.44-.29-2.45-.7-3-1-.69-.37-1.49-1.86-2-2-1.06-.29-2.78.22-4,0-.38-.07-.61-.91-1-1-3.43-.8-4.7,2-5,2-2.11,0-1.27-5.77-1.5-6-.19-.19-1.81.19-2,0-.14-.14-.14-3.85,0-4,.26-.28,2.4.79,2-1-1.6-.48-1.93,1.18-3,.5-3.93-2.49-.76-5.29-1-5.5-1.05-.92-4.42,1.59-5,1-.27-.28.21-3.38,0-4.5-.06-.35-.82-.57-1-1-.22-.54.17-1.33,0-1.5-.13-.13-2.94-.13-3-1.5,0-.17,1.55-1.02,1-2.5-3.88-.59-.56,1.71-1,2-.14.09-1.93.07-2,0ZM20,82.21l-2-2c-.26,2.11-.11,2.26,2,2ZM94,82.21c-.76-.64-2.8.33-2,1,.76.64,2.8-.33,2-1ZM112,82.21c-.76-.64-2.8.33-2,1,.76.64,2.8-.33,2-1ZM78,91.21l-.5-5c-.57,1.33-2.4.56-2.5,1.5-.09.79-.12,3.38,0,3.5.11.11,2.89.1,3,0ZM170,86.21c-1.09-1.09-3.09.91-2,2s3.09-.91,2-2ZM113,88.21c-.76-.64-2.8.33-2,1,.76.64,2.8-.33,2-1ZM52,93.21c.64-.76-.33-2.8-1-2-.64.76.33,2.8,1,2ZM149.5,91.21c-.65,0-.65,1,0,1s.65-1,0-1ZM110,99.21c-1.34,1.47-4.08-2.66-3-4.5l-1.5-2.5c-1.05,2.22-3.18,1.59-4,2-1.07.53-3.75,2.93-4,3-.46.14-2.41.08-2.5,0-.52-.45,1.66-1.38.5-2-2.47,1.55-.47,2.25-.5,2.5-.25,2.27-5.06,1.1-6.5,1.5-1.27.35.06,1.52-3,1-5.07-.87-3.92,3.17-7,5-1.13.67-3.24.69-4,1-.68.27-2.27,1.44-3,2-.89-.04-.61-2.89-.5-3,.19-.19,1.79.19,2,0,.6-.55-.62-2.58-1.5-3-2.07-1-1.41,1.92-1.5,2-.79.68-3.28-1.7-4-1-.1.1.28,1.98-1,2.5-.17,2.12,1.59,5.36,3.5,6.5.22.13.7-.14,1,0,.74.35,2.41,1.94,3.5,1,.19-.17-2.11-3.72-1-5,.15-.18,2.21,1.54,4.5,1,.64-.15,1.33-2.31,3,0l3.5,1-3,3c4.03.53,2.45-.51,3-1.5.39-.69,1.61-1.31,2-2,.26-.47-.19-1.31,0-1.5.11-.11,2.89-.11,3,0,.19.19-.71,2.88,1.5,2,.63-.25,1.46-1.85,2-2,1.2-.33,9.98-1.23,11-1,4.22.95,3.35-1.45,5-1,2.98.82,2.29-1.26,5-2,1.09-.3,3.22-.84,4-1,3.27-.66,3.44,1.32,4.5-3.5l5-5.5c-3.09-.47-5.46,1.66-8.5,1-.75-.16-2.74-2.03-3.5-2.5-3.08-1.88-2.62.11-4,2-.2,1.13.28,4.2,0,4.5ZM153,93.21c-.76-.64-2.8.33-2,1,.76.64,2.8-.33,2-1ZM139,94.21c-1.09-1.09-3.09.91-2,2s3.09-.91,2-2ZM61,100.21l-.5-5-3.5,4c1.2-.45,3.31,1.7,4,1ZM147,96.21c-.15-.14-3.86-.14-4,0-.25.25.25,2.75,0,3-.21.21-1.78-.21-2.5,0-.66.19-3.95,3.91-4.5,5,1.85-.16,3,1.07,3-1.5,0-.76,4.46-.96,5-1.5.19-.19-.19-1.81,0-2s1.03.26,1.5,0c.87-.49,2.13-2.43,1.5-3ZM38.5,99.21c-.65,0-.65,1,0,1s.65-1,0-1ZM53.5,102.21c-.65,0-.65,1,0,1s.65-1,0-1ZM122.5,102.21c-.65,0-.65,1,0,1s.65-1,0-1ZM63,115.21c-.19-.19-1.03.26-1.5,0-2.77-1.54-.12-2.73,1.5-4.5-2.15-3.07-2.53,1.29-5.5.5-.78-.21-2.09-1.73-.5-2.5,1.73-2.05,2.85-4.08-.5-4.5-2.44-.3-1.06.71-1.5,1.5-.37.66-2,1.66-2,2s.93.62,1,1c.23,1.33-.55,4.71-1,6-.14.39-.83.59-1,1-.83,1.99,1.16,1.31,1.5,1.5,1.84,1.04,1.37,2.87,1.5,3,.23.23,2.55-.17,3.5,0,.39.07.67,1,1,1,.18,0,2.24-2.07,2.5-2.5.14-.22-.15-.71,0-1,.23-.44,1.79-1.71,1-2.5ZM62,105.21c-2.11-.26-2.26-.11-2,2l2-2ZM137,109.21c.81-1-1.58-3.52-2-3-.81,1,1.58,3.52,2,3ZM158,109.21c.64-.76-.33-2.8-1-2-.64.76.33,2.8,1,2ZM77.5,110.21c-.65,0-.65,1,0,1s.65-1,0-1ZM132,113.21c-.11-.11-2.89-.11-3,0-2.66,2.66,5.66,2.66,3,0ZM136.5,114.21c-.65,0-.65,1,0,1s.65-1,0-1ZM26,115.21c-.76-.64-2.8.33-2,1,.76.64,2.8-.33,2-1ZM141.5,115.21c-.65,0-.65,1,0,1s.65-1,0-1ZM72,116.21c-.14-.14-3.85-.13-4,0-.33.28,1.57,1.78,1,3l-4-.5c4.02,2.35.37,4.86,1,7,.67,2.27,2.25.54,3.5.5,1.14-.04.14,2.58.5,3,1.71,2.01,1.69-.56,2-1.5.49-1.5,1.16-3.74,2.5-4.5.47-.27,1.31.19,1.5,0,.11-.11.11-2.89,0-3-.16-.16-3.41.49-4-1.5-.21-.72.21-2.29,0-2.5ZM18,118.21c-3.36-.87-1.51,2.51-2,3-.35.35-3.05-3.14-5-2-.3,1.62,2.54.82,3,2.5,1.41,5.14-2.59,5.35-5,8.5,3.21.55,8.71-.77,11.5,0,.5.14,2.03,2.57,2.5,2,.42-.51.09-2.8-1-3.5s-1.93-.43-2-.5c-.94-.96,2.15-5.4-2.5-7-1.19-.41,1.17-1.71.5-3ZM51.5,118.21c-.65,0-.65,1,0,1s.65-1,0-1ZM123.5,119.21c-.65,0-.65,1,0,1s.65-1,0-1ZM145,120.21c-.76-.64-2.8.33-2,1,.76.64,2.8-.33,2-1ZM36,124.21c-.14-.14-1.67.32-3-.5-.99-.6-1.68-2.33-3-2.5l-1,4,6.5,1c.88.13.57-1.93.5-2ZM129.5,121.21c-.65,0-.65,1,0,1s.65-1,0-1ZM112,125.21c.64-.76-.33-2.8-1-2-.64.76.33,2.8,1,2ZM77,124.21c-2.11-.26-2.26-.11-2,2l2-2ZM43,125.21c-.82-.82-2.3.94-2.5,1-.56.16-3.8-.09-2.5,1,.67.56,7.28.28,5-2ZM96.5,125.21c-.65,0-.65,1,0,1s.65-1,0-1ZM116.5,125.21c-.65,0-.65,1,0,1s.65-1,0-1ZM83.5,126.21c-.65,0-.65,1,0,1s.65-1,0-1ZM88.5,126.21c-.65,0-.65,1,0,1s.65-1,0-1ZM127.5,126.21c-.65,0-.65,1,0,1s.65-1,0-1ZM52.5,127.21c-.65,0-.65,1,0,1s.65-1,0-1ZM155.5,127.21c-.65,0-.65,1,0,1s.65-1,0-1ZM52,131.21c.59-.58-.89-3-1.5-3-.22,0-3.1,1.88-3.5,2.5l-1,5.5c3.33.57.99-1.98,3.5-4,1.42-1.14,2.4-.91,2.5-1ZM76,128.21c-2.11-.26-2.26-.11-2,2l2-2ZM60,129.21c-.56-.59-3.66.28-4,1.5-.53,1.91,1.28,2.74,1,4.5,1.17.07,1.92.16,3-.5,1.94-1.19.09-1.47,0-2-.17-.96.23-3.26,0-3.5ZM148.5,129.21c-.65,0-.65,1,0,1s.65-1,0-1ZM87,135.21c-.48-1.6,1.18-1.93.5-3-1.3-2.04-3.67-2.5-6-2-.36.08-2.42,1.77-3,2-1.58.64-4.14,1-6,2-.72.39-3.48,2.03-3.5,2.5-.08,1.71,3.75,1.29,4.5,1.5,1.7.48-.1,2.25,4,1,2.5-.76,3.12,1.74,4,2,.72.21,2.29-.21,2.5,0,.25.25-.25,2.75,0,3,.11.11,2.89.11,3,0,.19-.19-.19-1.81,0-2,.68-.68,4.79,2.63,7.5,2,.38-.09.59-.87,1-1,1.72-.53,3.73,1.66,4.5,1,2.43-2.1-2.16-1.88-2.5-2-.3-.11-4.24-4.03-4.5-4.5s.19-1.31,0-1.5c-.62-.62-4.16,1.67-3-3l-3,2ZM118,131.21c-.76-.64-2.8.33-2,1,.76.64,2.8-.33,2-1ZM119.5,131.21c-.65,0-.65,1,0,1s.65-1,0-1ZM141.5,131.21c-.65,0-.65,1,0,1s.65-1,0-1ZM7.5,133.21c-.65,0-.65,1,0,1s.65-1,0-1ZM15.5,134.21c-.65,0-.65,1,0,1s.65-1,0-1ZM121,135.21c-.76-.64-2.8.33-2,1,.76.64,2.8-.33,2-1ZM128,137.21c.64-.76-.33-2.8-1-2-.64.76.33,2.8,1,2ZM14.5,136.21c-.65,0-.65,1,0,1s.65-1,0-1ZM101.5,136.21c-.65,0-.65,1,0,1s.65-1,0-1ZM143.5,137.21c-.65,0-.65,1,0,1s.65-1,0-1ZM152,137.21c-.76-.64-2.8.33-2,1,.76.64,2.8-.33,2-1ZM7.5,139.21c-.65,0-.65,1,0,1s.65-1,0-1ZM17,139.21c-.76-.64-2.8.33-2,1,.76.64,2.8-.33,2-1ZM70,139.21c-.76-.64-2.8.33-2,1,.76.64,2.8-.33,2-1ZM71,144.21c.34-.28-1.29-2-1.5-2-.33,0-.61.93-1,1-.92.16-4.92-.19-3.5,1,.23.19,5.77.19,6,0ZM152.5,143.21c-.65,0-.65,1,0,1s.65-1,0-1ZM61,144.21c-.99-.99-4.55,1.78-1.5,3,2.12.85,1.79-2.71,1.5-3ZM107.5,145.21c-.65,0-.65,1,0,1s.65-1,0-1ZM24.5,146.21c-.65,0-.65,1,0,1s.65-1,0-1ZM70,147.21c-.76-.64-2.8.33-2,1,.76.64,2.8-.33,2-1ZM99.5,147.21c-.65,0-.65,1,0,1s.65-1,0-1ZM19,151.21c.07-.07.07-1.93,0-2-.44-.48-1.14.92-1.5,1-1.1.24-5.56-.52-3.5,2,.41.5,1.16-.93,1.5-1,.94-.2,3.26.24,3.5,0ZM60.5,149.21c-.65,0-.65,1,0,1s.65-1,0-1ZM26.5,150.21c-.65,0-.65,1,0,1s.65-1,0-1ZM102,153.21c-.76-.64-2.8.33-2,1,.76.64,2.8-.33,2-1Z"/>
      <path d="M36,71.21c-.81-1,1.58-3.52,2-3,.81,1-1.58,3.52-2,3Z"/>
    </g>
  </g>
</svg>