<?xml version="1.0" encoding="UTF-8"?>
<svg id="Layer_2" data-name="Layer 2" xmlns="http://www.w3.org/2000/svg" viewBox="0 0 164.62 136.76">
  <g id="Elements">
    <g id="Element">
      <path d="M160.15,78.5c.36.55,1.27,1.39,1.25,1.56-.04.38-2.77,1.95-3.52,2.8-.25.29.09,1.09-.16,1.41-.57.72-1.84,1.17-2.35,1.87-.68.94-.4,7.9-1.11,9.84-.09.24-.65.33-.78.62-.73,1.59-.02,2.51-3.05,1.79-.34-3.05,1.62-1.42,2.43-2.57.32-.46.56-4.35.24-5.31-1.68.85-1.85,4.48-3.05,4.99-.4.17-1.15-.36-1.41-.16-.33.26-.14,3.93-.48,4.22-.99.83-2.88-1.38-3.04-1.41-.21-.04-1.02,3.24-2.5,3.28-.33,0-1.19-2.86-2.81-.32l5.78-.77c2.42,1.62-.69,5.48-2.04,5.46-.2,0,.04-2.99-2.26-2.03-1.27.53-.45,2.13-1.72,2.65-2.31.96-1.86-1.49-1.95-1.64-1.29-2.34-3.14-2.33-3.28-2.5-.11-.14.29-3.37.4-3.51,1.69-2.33,5.25-1.11,5.86-4.67,2.54,1.66-.31,2.44-.32,2.81-.02.93,2.63,1.76,3.04,1.41.2-.17.04-4.39,2.27-4.37.47,0,.98,3.11,3.59-.31-2.35-1.07-5.63.46-8.12-.56-.38-.15-1.06-2.12-2.11-.24-.22.39.07,1.07-.16,1.41-.71,1.05-3.2,1.64-3.67,1.01-.83-1.11,2.02-2.89.79-3.82l-1.41,3.04c.31,3.25-1.4,3.95-2.82,6.09l-2.66,1.48c.76,1.38,1.07.03,2.5-.07,5.06-.37.03,2.92,0,3.2-.12.97,2.88,1.29,3.28,2.5-1.27.39-1.42,3.31-2.5,3.28-.42-.01-.49-3.83-.62-3.98-.85-1.03-3.1.71-3.28.7-.13-.01-1.02-1.73-2.34-1.33l.94-2.03c-3.29-1.12-2.8,1.6-3.05,1.79-.2.16-4.55.06-4.77,1.24-.03.16,2.49,1.26,3.04,1.41,1.69.45,5.13.14,6.32.71,2.03.98-.99,3.08-1.41,3.04s.07-2.73-1.09-2.97c-.72-.15-.44,2.9-.71,3.12-1.07.88-3.78-1.83-4.29-2.97-1.23,1.31-2.94.42-4.14,2.02-.92,1.22-.24,2.82,1.79,3.05,1.41.16.61-1.91,1.02-2.73,1.38-2.77,2.91,2.1,1.71,3.75-.37.51-3.3,2.83-3.52,2.8s-2.34-3.25-3.67-2.19c-.13.11.2,1.85-1.72,2.65-.26.11-2.83-.26-3.51-.4-.2-.04-.3-.67-.62-.78-1.09-.38-4.6.19-5.08.85-.24.34.09,1.1-.16,1.41-.56.7-5.49,4.71-5.86,4.67-.52-.04-1.22-1.72-.78-2.58-1.34-.36-.12,1.14-1.56,1.25-2.07.16-2-2.74-4.69.54,1.17,2.78,4,.44,4.22.48.42.06.3,2.19.07,2.5-.4.55-4.03,3.45-4.3,3.43-2.59-.22,0-7-2.64-8.13-2.76,1.3-.11,4.67-1.03,5.93-1.04,1.42-4.67,4.26-6.8,3.5l3.83-2.41.08-3.9-6.26,4.99c.54.98,3.16,3.52,3.12,3.91-.02.15-2.2,1.89-2.35,1.87-.35-.04-1.52-2.31-1.87-2.35s-1.88,1.75-2.74,2.18c-.33.17-.96-.29-1.41-.16-.56.16-.93.96-1.17.93s-.42-.89-.93-1.17c-.65-.36-1.87.15-2.65-1.72-.99-2.37,4.34-3.28.32-6.01-.82,1.36-2.45.66-2.58.78-1.48,1.27,2.68,4.44.15,5-.34.07-3.37-.3-3.51-.4-3.02-2.09-.06-2.79,0-3.2.11-.68-3.58-.59-4.53-.87-.22-.06-1.55-1.53-2.73-1.02-1.25.54-.66,1.61-.94,2.03-.34.51-1.17.72-1.56,1.25-.25.34.1,1.2-.16,1.41-.17.14-4.08.5-4.3.23-.24-.31.47-6.47.17-7.81-1.04-2.51-4.41-.9-5.62-3.84-2.84,1.54-.49,1.77,0,3.2.57,1.68-1.98,5.09,2.34,1.33.5,1.5,2.24,1.2,2.34,1.33s-.26,3.4-.4,3.51c-1.05.84-2.9-2.02-3.82-.79l3.35,5c-1.42.27-2.72,1.29-3.75,1.71-.95.39-5.15-1.67-5.07-2.35.03-.23,2.98-1.76,2.19-3.67-.53-1.27-2.12-.45-2.65-1.72-.33-.8.96-3.48.16-4.61-3.81,1.13-2.39,5.16-3.21,6.4-2.55,3.85-3.65-1.53-2.49-3.13.48-.66,3.87-3.34,4.69-3.74,2.87-1.41,1.54-1.22,3.13-2.49.96-.77,3.19-.45,3.36-1.4.08-.45-4.38-.46-4.68-2.66-1.75.98,1.16,2.42,1.09,2.97-.02.17-2.14,1.88-2.74,2.18-.86.44-4.56.73-5.16,1.55-.34.46.02,2.35-.32,2.81-.52.71-1.83,1.16-2.35,1.87-.34.46-.01,2.56-.32,2.81-.56.45-4.74.04-5,.15-1.12.48-2.32,2.12-3.52,2.8l.95-5.23-4.22,2.73c-.88-1.35-.43-6.95-.92-7.58-.22-.28-5.86-1.27-6.95-1.5-.81-.17-3.21-.21-3.04-1.41.16-1.1,2.73-.52,3.36-1.4.24-.34-.08-1.07.16-1.41.61-.86,3.26-.35,3.36-1.4.21-2.16-7.3-4.24-6.17,1.08-1.5-.81-3.02,1.44-3.36,1.4-.2-.03-2.52-2.93-2.49-3.13.03-.29,1.5-.94,1.95-1.56.25-.34-.09-1.13.16-1.41.81-.87,2.9-2.57,3.91-3.12.33-.18,1,.31,1.41.16.58-.22.96-1,1.56-1.25.83-.34,5.92,1.13,7.19-.61.59-.82-.65-3.1,2.66-4.68.36-.17,1.02.32,1.41.16,3.35-1.39,3.52-1.98,7.34-2.02,2.15-.02,2.56-1.26,4.37-.93-.23-1.15-2.4-1.56-3.35-1.8-.88-.22-1.91-.13-2.81-.32l1.41-3.04c-2.48,2.81-4.7-1.91-6.64-1.1s-1.37,2.02-1.72,2.65c-1.81,3.21-3.22,6.72-6.34,8.89-.62-1.6-2.45-.91-2.96-2.11-1.09-2.58,5.75-5.85,7.28-7.72.22-.27.88-3.16,1.1-3.43.72-.88,3.47-2.4,3.52-2.8.03-.3-1.28-1.26-1.56-1.95-1.04-2.58,1.93-4.22,2.74-5.38.23-.32-.06-1.01.16-1.41.28-.51,1.15-.69,1.17-.93.04-.31-1.31-1.27-1.56-1.95-.41-1.13-.44-5.69.09-7.11.9-2.4,3-3.05,4.07-4.52.34-.46-.02-2.35.32-2.81.67-.91,2.46-1.58,3.13-2.49.85-1.17-.96-4.24,2.82-6.09.36-.17,3.17-.12,3.59-.31.81-.35,1.54-1.52,2.35-1.87,2.26-.97,6.58-1.7,8.28-4.05.34-.46-.02-2.35.32-2.81,1.9-2.61,5.39-3.82,7.98-7.64,1.08-1.6,3.45-.73,4.53-2.33.24-.35-.08-1.1.16-1.41.57-.72,1.84-1.17,2.35-1.87.23-.32,1.06-6.29,1.58-7.65,1.05-2.79,3.58-3.4,4.85-5.15.34-.46-.02-2.35.32-2.81.56-.77,4.48-1.19,5.16-1.55,3.69-1.98,4.81-7.3,9.7-10.29.32-.19,1.06.34,1.41.16,1.09-.59,2.06-1.95,3.13-2.49,2.37-1.2,8.54-1.01,10.15-1.7.86-.37,2.36-2.22,2.74-2.18.25.03.42.89.93,1.17,1.36.75,4.12,1.29,5.46,2.04,2.53,1.42,1.54,2.47,4.76,1.96,1.34-.21,6.46,3.91,6.63,4.31s-.36,1.15-.16,1.41c.3.38,6.73.42,7.03.79.19.24-.59,3.6,3.2,3.21.85-.09,3.17-1.42,3.36-1.4.25.03.42.89.93,1.17.39.21,1.05-.06,1.41.16.52.32.71,1.21,1.25,1.56.42.28,1.49-.31,2.03.94.22.52-.54,2.29-.32,2.81.66,1.55,5.37,5.99,5.3,6.65-.03.26-1.53.98-1.56,1.25s.85.64.93,1.17c.37,2.21,0,3.57-.56,4.92-1.47,3.59-.46,6.31-3.3,10.3-.86,1.2.23,3.8.23,4.3.01,3.72-1.31,4.35,2.33,7.73-1.02.12-3.58.75-3.75,1.71-.06.36,2.27.4,2.96,2.11.25.63-.75,2.39,0,3.2.83-.94,4.64-3.3,4.69-3.74.03-.25-.79-.61-.93-1.17-.13-.49.42-1.02-.15-1.8,1.35.03,5.81-.26,6.71.4.7.51,1.15,1.78,1.87,2.35.32.25,1.13-.1,1.41.16,1.37,1.28,2.37,3.36,3.74,4.69.27.26,1.15-.1,1.41.16,1.16,1.2,4.48,5.07,4.99,6.26.21.48-.45,2.03-.32,2.81s2.06,1.18-1.02,2.73c-1.92.97-1.09.87-2.74,2.18-1.08-1.64-1.53-2.84-2.33-4.53v3.2c2.62,2.04-2.62,1.1-2.82,2.88-.04.36,2.7,1.74-.71,3.12-3.07,1.25-3.23-3.59-3.51-3.6-.3-.01-1.3,1.28-1.56,1.25-.23-.03-.99-1.41-1.56-1.95-.64-.62-2.64,1.33-2.66,1.48-.2,1.6,5.4,2.16,5.77,2.43.76.54,1.74,2.49,3.35,1.8,3.29-1.41,2.04-4.7,3.45-5.3.44-.19.98.49,2.58-.78ZM148.72,91.45c-.01.1,1.14,1.54,1.25,1.56.61.13.33-1.3.55-1.72.09-.17,1.97-1.68.55-1.72-.15,0-2.33,1.72-2.35,1.87ZM148.26,89.26l.63-2.42c-2.06.43-.97-2.48-2.18-2.74-2.14-.45-.97,2.39-.71,3.12l2.26,2.03ZM142.64,88.62c-.02.99,2,1.99,2.03.94.02-.99-2-1.99-2.03-.94ZM105.58,114.33c.33.22.49.86.93,1.17l3.35,1.8c1.18-3.41-1.91-2.59-2.41-3.83-.96-2.35,3.63-4.27,3.76-4.91s-.98-2.17-2.42-.63c-1.03,1.09-.79,2.26-1.72,2.65-.22.09-2.13.66-2.58.78-.05.01-.38-.77-1.01-.47-2.08.96-.59,6.47,2.1,3.44ZM130.91,97.97c.61.07,1.44-1.34,1.33-2.34-.11-1.05-.54-1.41-.54-1.48-.22-2.13,1.87-2.62.79-3.82l-4.23,5.93c1.19.14,2.49,1.7,2.65,1.72ZM112.92,112.31c1.29,0,1.77-3.43,1.1-3.43-1.29,0-1.77,3.43-1.1,3.43ZM111.75,113.25c.51-.4-.12-1.19-.62-.78s.12,1.19.62.78ZM123.25,102.8l4.23-5.93c-1.13,1.72-3.03,1.11-4.14,2.02-1.53,1.25-1,3.88-.08,3.9ZM116.68,104.2c.21,0,2.43,2.92,4.22.48-1.66-3.82-2.95-.72-5.15-1.65-.5-.21-.66-1.13-.93-1.17-.8-.13-1.8,2.56-1.41,3.04.81,1.02,3.11-.7,3.28-.7ZM142.95,85.81c1.44.16,2.45-2.36-.86-1.88-.83.12.6,1.85.86,1.88ZM93.08,117.9c1.68,1.04,3.58.73,5.31.24l2.03-2.26c.35-1.76-1.1-1.57-2.42-.63-1.79,1.28-2.99,1.8-4.92,2.65ZM150.86,75.68c.51-.4-.12-1.19-.62-.78s.12,1.19.62.78ZM117.62,102.17c1.44.16,1.91-4.05.48-4.22-.15-.02-2.33,1.72-2.35,1.87s1.72,2.33,1.87,2.35ZM133.81,87.98c.51-.4-.12-1.19-.62-.78s.12,1.19.62.78ZM122.63,95.62l2.9-3.59.87-4.53c-1.3.8-1.49,2.36-2.19,3.67-.83,1.54-2.54,2.38-1.57,4.45ZM150.01,67.4c.71.88,2.27.36,3.12.71.12.05,1.68,1.99,1.72.55,0-.2-2.29-3.11-2.49-3.13-.27-.03-1.64,1.46-2.35,1.87ZM112.63,102.31c.15,0,2.32-1.72,2.35-1.87.41-2.01-4.39,1.82-2.35,1.87ZM73.92,133.17c.51-.4-.12-1.19-.62-.78s.12,1.19.62.78ZM88.54,120.23c.15.02,1.8-.95,1.25-1.64-.9-1.11-3.18-1.24-3.9-3.29-1.12-.34-8.6-3.9-8.74-1.34-.06,1,3.28,1.43,3.59,2.9,1.75.2,3.92.75,5.54,1.34,1.47.53,2.06,2.01,2.26,2.03ZM74.86,131.14c.51-.4-.12-1.19-.62-.78s.12,1.19.62.78ZM120.62,88.27c-.58.54-.91,3.67-.79,3.82,1.41,1.76,3.94-1.71.79-3.82ZM116.07,97.01c.99.02,1.99-2,.94-2.03-.99-.02-1.99,2-.94,2.03ZM97.3,111.97c.3,0,2.84-1.95,2.03-2.26-3.02-1.17-2.49,2.26-2.03,2.26ZM109.51,98.4l2.81.32c-1.11-1.81-1.32-1.83-2.81-.32ZM146.9,63.49c-.02.99,2,1.99,2.03.94.02-.99-2-1.99-2.03-.94ZM88.32,112.74c.51-.4-.12-1.19-.62-.78s.12,1.19.62.78ZM122.27,83.12c.51-.4-.12-1.19-.62-.78s.12,1.19.62.78ZM108.35,92.94c.51-.4-.12-1.19-.62-.78s.12,1.19.62.78ZM109.06,89.81c1.44.16,2.45-2.36-.86-1.88-.83.12.6,1.85.86,1.88ZM94.2,101.66c3.17-1.39-.42-2.99-.31-3.59.2-1.1,4.28-.15,3.6-3.51-2.25-.54-2.55-.18-3.75,1.71-1.27,2-1.63,3.58.46,5.39ZM64.09,125.65c.51-.4-.12-1.19-.62-.78s.12,1.19.62.78ZM58.94,127.21c.51-.4-.12-1.19-.62-.78s.12,1.19.62.78ZM66.28,84.27c-.1.63,1.83.09,2.34,1.33.56,1.36,1.76,5.69,2.02,7.34.21,1.33-.55,4.82.77,5.78.59.43,3.63.05,4.22.48,1.23.89,2.44,3.41,3.74,4.69,1.13,1.13,2.78,1.04,3.59,2.9,1.5-.87-.65-2.46-1.4-3.36-1.79-2.15-2.57-2.24-3.9-3.29-1.47-1.16-6.61-11.93-7.63-14.38-.22-.54.56-2.48.32-2.81-.57-.79-3.92.42-4.06,1.32ZM105.24,82.62c.51-.4-.12-1.19-.62-.78s.12,1.19.62.78ZM93.28,90.88c.99.02,1.99-2,.94-2.03-.99-.02-1.99,2-.94,2.03ZM49.65,124.38c.99.02,1.99-2,.94-2.03-.99-.02-1.99,2-.94,2.03ZM123.01,60.79c.34,0,1.26-1.27,1.95-1.56.27-.11,2.29.5,2.58-.78.09-.39-2.05-.79-2.42-.63-1.4.6-3.51,2.93-2.11,2.96ZM47,122.66c1.81-1.11,1.83-1.32.32-2.81l-.32,2.81ZM132,53.62c.51-.4-.12-1.19-.62-.78s.12,1.19.62.78ZM108.93,72.01c.58.07,5.86-4,2.66-4.68-.32-.07-.42,2.22-2.11,2.96-.35.15-1.79-.49-1.8.15,0,.11,1.15,1.55,1.25,1.56ZM98.62,75.12c-.11.6,3.03.62,3.82.79l5.71-3.27-5.55,1.86c-1.01-.23-3.78-.57-3.98.62ZM49.27,118.29c.51-.4-.12-1.19-.62-.78s.12,1.19.62.78ZM128.42,47.53c.51-.4-.12-1.19-.62-.78s.12,1.19.62.78ZM24.81,130.11c.15,0,2.32-1.72,2.35-1.87.41-2.01-4.39,1.82-2.35,1.87ZM29.43,123.88c.51-.4-.12-1.19-.62-.78s.12,1.19.62.78ZM21.69,126.2c.17.02,2.05,2.24,3.04,1.41.17-.14.37-2.48-.07-2.5-.17,0-2.32,1.72-3.28.7-.46-.49.35-3.55,2.43-2.57.77-.44-.75-1.86-.86-1.88-1.23-.14-2.01,3.14-2.82,2.88l-2.03,2.26c1.3,1.58,3.41-.33,3.59-.31ZM137.89,36.14c3.74.42-1.45-6.09-1.87-2.35-.02.15,1.72,2.33,1.87,2.35ZM37.17,115.14c1.41.16,2.71-4.65-1.32-4.06-.98.14.38.92.54,1.48.1.36-.37,2.45.78,2.58ZM33.26,118.26c.1.01,1.55-1.15,1.56-1.25.08-.4-1.5-.32-2.34-1.33-.73-.88,1.91-1.7,2.03-2.26.3-1.37-5.88-.34-5,3.35.54,2.24,2.38-.1,2.5-.07.3.06.98,1.53,1.25,1.56ZM133.05,34.88c1.29,0,1.77-3.43,1.1-3.43-1.29,0-1.77,3.43-1.1,3.43ZM127.27,35.65c-.02.99,2,1.99,2.03.94.02-.99-2-1.99-2.03-.94ZM82.38,73.99c.99.02,1.99-2,.94-2.03-.99-.02-1.99,2-.94,2.03ZM29.91,113.26c.51-.4-.12-1.19-.62-.78s.12,1.19.62.78ZM20.15,114.65c-.25,2.1,6.15,3.13,6.24,1.42.06-.98-3.65-1.2-3.12-3.91-.66.72-3.09,2.15-3.13,2.49ZM89.5,64.48c.51-.4-.12-1.19-.62-.78s.12,1.19.62.78ZM19.91,119.95c.51-.4-.12-1.19-.62-.78s.12,1.19.62.78ZM137.45,21.15c-.82-.09-1.8,2.56-1.41,3.04.07.08,2.02.3,2.11.24.48-.38.12-3.19-.7-3.28ZM31.79,109.2c.51-.4-.12-1.19-.62-.78s.12,1.19.62.78ZM129.31,30.19l3.52-2.8-1.48-2.66-2.04,5.46ZM124.93,31.12l2.81.32c-1.11-1.81-1.32-1.83-2.81-.32ZM54.24,90.03c.99.02,1.99-2,.94-2.03-.99-.02-1.99,2-.94,2.03ZM39.7,99.06c-.16,1.44,2.36,2.45,1.88-.86-.12-.83-1.85.6-1.88.86ZM60.65,83.64c1.54.17,1.85-2.64.32-2.81s-1.85,2.64-.32,2.81ZM41.42,96.41l2.81.32c-1.11-1.81-1.32-1.83-2.81-.32ZM15.3,119.79c1.54.17,1.85-2.64.32-2.81s-1.85,2.64-.32,2.81ZM36.89,98.74c.45.45,1.04,1.53,1.25,1.56.27.04,2.3-4.82,1.26-4.84-1.11-.02-1.22,2.87-2.5,3.28ZM121.57,32.52c.51-.4-.12-1.19-.62-.78s.12,1.19.62.78ZM71.69,71.01c.51-.4-.12-1.19-.62-.78s.12,1.19.62.78ZM49.79,88.46c.51-.4-.12-1.19-.62-.78s.12,1.19.62.78ZM45.1,92.2c.51-.4-.12-1.19-.62-.78s.12,1.19.62.78ZM72.24,69.29c1.44.16,2.45-2.36-.86-1.88-.83.12.6,1.85.86,1.88ZM34.31,99.52c.51-.4-.12-1.19-.62-.78s.12,1.19.62.78ZM12.81,116.66c1.44.16,2.45-2.36-.86-1.88-.83.12.6,1.85.86,1.88ZM38.38,95c.51-.4-.12-1.19-.62-.78s.12,1.19.62.78ZM42.69,85.17c1.85.21.69,5.78,3.28,2.5-1.1-.65-.74-3.65-1.71-3.75-.27-.03-1.3,1.28-1.56,1.25-.66-.07-1.48-4.15-3.82-.79-.11.16-.46,3.07-.4,3.51.18,1.22,3.72-2.78,4.22-2.73ZM55.12,79.1c.51-.4-.12-1.19-.62-.78s.12,1.19.62.78ZM51.99,81.59c.51-.4-.12-1.19-.62-.78s.12,1.19.62.78ZM46.91,85.64c1.44.16,2.45-2.36-.86-1.88-.83.12.6,1.85.86,1.88ZM39.09,91.88c1.81-1.11,1.83-1.32.32-2.81l-.32,2.81ZM34.55,94.21c.27.03,1.25-1.21,1.95-1.56.23-.12,2.32.51,1.48-.54-1.49-1.87-7.49,1.64-3.44,2.1ZM62.71,71.77c.99.02,1.99-2,.94-2.03-.99-.02-1.99,2-.94,2.03ZM30.02,96.55c.3,0,2.84-1.95,2.03-2.26-3.02-1.17-2.49,2.26-2.03,2.26ZM79.76,53.06c-.02.99,2,1.99,2.03.94.02-.99-2-1.99-2.03-.94ZM47.43,55.82c-.03.23,3.32,1.21,3.59,2.9,6.02-1.57,7.32,3.34,11.39,6.27l3.12.71c-1.07-2.24-1.85-4.83-3.89-6.49-.65-.53-4.32-1.47-5.46-2.04-.49-.25-.69-1.17-1.25-1.56-.51-.36-7.33-1.09-7.5.22ZM31.67,91.4c.51-.4-.12-1.19-.62-.78s.12,1.19.62.78ZM48.18,74.4c.32.03.85,1.95,1.64,1.25l.08-3.9-6.88,4.2c1.54,3.55,4.11-1.66,5.16-1.55ZM24.56,94.51c1.54.17,1.85-2.64.32-2.81s-1.85,2.64-.32,2.81ZM51.7,71.6c.51-.4-.12-1.19-.62-.78s.12,1.19.62.78ZM27.06,91.23c.99.02,1.99-2,.94-2.03-.99-.02-1.99,2-.94,2.03ZM24.25,90.91c1.36.17,2.06-3.24,2.9-3.59,2.69-1.12,2.95-1.86,5.32-2.96.98-.45,3.68-2.01,1.8-3.35-2.54-.75-2.45.25-3.75,1.71-1.64,1.84-3.52,3.3-4.77,4.44-.13.12-3.21-.12-3.36,1.4-.01.15,1.72,2.33,1.87,2.35ZM118.64,14.4c.51-.4-.12-1.19-.62-.78s.12,1.19.62.78ZM44.67,70.8c1.11-.88-2.99-1.35-2.11-.24.07.08,2.02.3,2.11.24ZM27.07,84.83c.95.11,2.13-2.85.79-3.82-1.87-1.36-3.94,1.47-3.13,2.49.2.25,1.01-.08,1.41.16.51.31.7,1.15.93,1.17ZM34.27,77.81c1.54.17,1.85-2.64.32-2.81s-1.85,2.64-.32,2.81ZM43.35,66.74l2.81.32c-1.11-1.81-1.32-1.83-2.81-.32ZM60.78,54.12c.51-.4-.12-1.19-.62-.78s.12,1.19.62.78ZM35.37,74.38c1.17.13,1.84-3.43,1.1-3.43-1.39,0-3.39,3.18-1.1,3.43ZM37.87,71.1c2.06.23,3.32-5.29.08-3.9-1.53.65-1.04,3.8-.08,3.9ZM28.34,73.59c0,.31,1.2,1.25,1.56,1.95.12.23-.51,2.32.54,1.48,1.53-1.22-2.06-5.41-2.1-3.44ZM71.58,40.4c.51-.4-.12-1.19-.62-.78s.12,1.19.62.78ZM63.37,46.94c.99.02,1.99-2,.94-2.03-.99-.02-1.99,2-.94,2.03ZM32.88,71.25c2.41.27.97-5.58-.77-5.78-2.64-.3-.78,1.91-.63,2.42.16.57,0,3.2,1.4,3.36ZM24.28,78.11c1.79-.53,1.94-5.47.63-5.62-2.69-.3-.68,2.09-.63,2.42.15.91-.7,2.31,0,3.2ZM40.46,63.92c.51-.4-.12-1.19-.62-.78s.12,1.19.62.78ZM64.33,38.51c-.81-.02-4.69,3.74-3.76,4.91.84,1.06.7-1.15.86-1.33.71-.79,4.9-3.54,2.9-3.59ZM56.58,47.24c.51-.4-.12-1.19-.62-.78s.12,1.19.62.78ZM28.04,69.99c1.54.17,1.85-2.64.32-2.81s-1.85,2.64-.32,2.81ZM57.52,45.21c.51-.4-.12-1.19-.62-.78s.12,1.19.62.78ZM42.27,57.37c.99.02,1.99-2,.94-2.03-.99-.02-1.99,2-.94,2.03ZM33.99,61.41c-.02.99,2,1.99,2.03.94.02-.99-2-1.99-2.03-.94ZM37.12,58.92c.99.02,1.99-2,.94-2.03-.99-.02-1.99,2-.94,2.03ZM97.88,9.21c.51-.4-.12-1.19-.62-.78s.12,1.19.62.78ZM99.13,4.37c.51-.4-.12-1.19-.62-.78s.12,1.19.62.78ZM80.68,16.52c.51-.4-.12-1.19-.62-.78s.12,1.19.62.78ZM75.21,20.88c.51-.4-.12-1.19-.62-.78s.12,1.19.62.78Z"/>
      <path d="M141.29,56.45c.93-.11.74-.04,1.41.16-.28.02-.43.75-1.41-.16Z"/>
      <path d="M142.69,56.61c.24-.02.66-.85,1.41.16-.52-.01-.47.13-1.41-.16Z"/>
      <path d="M104.49,111.36c.52.11,2,1.94,1.09,2.97-.83-.54-1.66-.48-1.72-.55-.13-.17.2-2.52.63-2.42Z"/>
    </g>
  </g>
</svg>