<?xml version="1.0" encoding="UTF-8"?>
<svg id="Layer_2" data-name="Layer 2" xmlns="http://www.w3.org/2000/svg" viewBox="0 0 174.16 167.02">
  <g id="Elements">
    <g id="Element">
      <path d="M114,76.02c1.46.31,2.56.91,4,1-1.12-1.31-.7-2.39-1-3.5-.11-.41-1-.67-1-1s.89-.59,1-1c.89-3.34.55-7.17,3-10-1.12-1.92,3-5.65,3-6s-.92-.61-1-1c-.34-1.64.9-2.93-1.5-2.5l-3.5-4c.28,1.58-.82,1.95-1,3.5-.22,1.91.37,10.13,0,10.5-.55.56-3.67-.26-4-1.5-.64-2.4.95-3.63,1-4,.15-1.01.21-6.25,0-6.5-.39-.46-1.61,1.46-2,1-.32-.38.23-4.19,0-5.5-.07-.37-.87-.59-1-1-.61-2,2-4.63,2-5,0-.58-.36.08,0-2,.23-1.36-.43-3.95,1.5-4.5,4.09-1.16,5.11,2.15,4.5,5.5-.25,1.36-.94,2.25-1,5-.02,1.17-.71,3.75,1,3.5-.52-1.95.79-2.9,1-4.5s-.35-3.74,0-5c.15-.55,1.84-1.44,2-2,.13-.44-.28-6.21,2-3.5.32.38-.31,3.69,0,4,.19.19,1.81-.19,2,0,.23.23.19,5.81,0,6.5-.22.82-2.92,2.13-3,3.5l4.5,1c.49,1.85,3.24-.6,3.5-1.5.18-.63-.19-1.41,0-2,1.06-3.3,0-2.36,0-3,0-.74,5.57-5.11,6.5-5.5.53-.22,1.28.17,1.5,0,.26-.2-.86-2.98,2-2-.15,1.44.22,3.13,0,4.5-.06.38-.94.62-1,1-.23,1.49.54,6.5-1.5,6.5-.31,0-.56-.82-1-1-2.21-.88-1.19,1.36-1.5,2.5-.11.4-.93.63-1,1-.22,1.21.22,2.78,0,4-.06.35-.82.57-1,1-.22.54.17,1.33,0,1.5,3.05-3.69,8.78-6.62,12.5-9,1.84-1.18,1.46-4.45,4.5-4-.28,1.58.82,1.95,1,3.5s.2,4.41,0,6c-.05.37-.93.62-1,1-.22,1.22.29,2.94,0,4-.34,1.23-5.85,7.51-6,8-1.01,3.41-1.19,4.75-3,8-.88,1.58-1.78,5.28-2,5.5-.19.19-1.81-.19-2,0-.25.25.22,2.57,0,3.5-.09.39-.89.6-1,1-.36,1.31.85,1.52,1,2,.27.84-.23,3,1.5,3.5,2.54.73,3.11-1.73,4-2,.94-.28,2.15.52,3-1,2.75,1.16.86,7.36,1.5,8s2.78-1.5,4.5-1c.52.15.86,1.54,2.5,1,.66,1.55-1.88,5.02-1,6,1.03,1.14,3.05-1.88,3.5-2,1.06-.29,2.77.2,4,0,1.53-.25,3.97-.7,6-1,1.02-.15,6.27-.23,6.5,0s-.19,2.55,0,3.5c.08.38.88.59,1,1,.69,2.28-1.08,2.65-2,4-.16.24.15.79,0,1-1.48,2.03-4.26,3.97-6,6-1.43,1.66-3.29,3.73-4,5-.85,1.51-3.51,1.72-4.5,3.5-2.28-2.73-5.24.76-8,0-.55-.15-1.45-1.85-2-2-3.03-.83-6.33-.41-9-1-3.91-.86-10.59.36-13,1-.62.17-1.38-.17-2,0-.41.11-.67,1-1,1-1.7,0-1.34-3.83-1.5-4-.68-.69-3.28,1.68-4,1-.28-.27.79-2.4-1-2-.23,1.29,1.88,4.08,1,5-.1.1-1.98-.28-2.5,1-2.84-2.76-2.01-.38-2.5.5-.37.66-2,1.66-2,2,0,.65,3.58,1.78.5,3.5-.47.26-1.31-.19-1.5,0-.82.82,1.54,6.08,1,8.5-.09.38-.89.6-1,1-.36,1.32.88,1.56,1,2,.08.28-1.55,3.43-2,5-.29,1.01-2.84,1.43-2,5,.09.39.92.62,1,1,1.05,5.11-1.1,2.84-3.5,3.5-1.82.5-.7,4.05-3.5,3,.73-2.15-2.71-3.43-3-4.5-.91-3.29,2-4.71,2-5,0-.55.09-5.69,0-6-.12-.42-1-.68-1-1,0-.35,2.5-2.26,3-3l-1-4.5,2.5,3c1.05.05.27-1.76.5-2,.92-.98,2.42,1.16,3,1.5.94.55,1.87-.53,2-1,.64-2.37-1.25-4.12-1-5,.12-.4.92-.62,1-1,.17-.76.18-5.29,0-5.5-.41-.48-1.21,1.37-2.5,1-.24-.07-3.43-3.26-3.5-3.5-.27-.97-.16-4.75,0-6,.05-.37.96-.64,1-1,.48-4.5-2.17-11.38-2-12,1.58-5.73,2.49-6.46,1-13-.09-.39-1.57-1.01-1-3,.71-2.47,3.14-.48,4,1,.67,1.16.69,3.2,1,4,.22.55,2,2.82,2,3,0,.25-2.31,2.88-2,4,.46,1.65,5.9,3.71,4,8,.77.39,1.32,4.31,3,2.5.27-.29-1.54-1.69-1-3.5.19-.66,3.5-3.2,4-5,.57-2.06.36-3.72,0-5-.18-.66,4.41-9.44,5-11,.73-1.93.59-3.5,1-5,.55-1.99,3.36-.53,2-5-1.01-3.34,4.03-8.29,6-11,.72-1,2.69-5.13,3-5.5-.18.18-.96-.23-1.5,0-3.34,1.4-8.2,6.98-9.5,10.5-1.54,4.16-1.17,9.38-3,14-.84,2.11-3.03,4.84-4,7-.52,1.15.39,3.91-3,3.5.41-2.43-1.65-4.11-1-6.5.39-1.42,2.56-2.13,3-6.5-2.11-.44-2.71.49-2-3.5.09-.5,1.68-.85.5-1.5l.5-4c1.85.51,2.17,1.76,2,3.5-.15,1.49-.77,3.19-1,5.5ZM132,95.02c.19-.19,1.03.26,1.5,0,1.31-.73,4.84-5.11,4.5-6.5-.51-2.06-2.33-.74-3.5-.5-.6.45-2.82,2-3,2-.38,0-1.62-2-2-2-1.21,0-5.86,7.44-7.5,8.5-.09,1.32.13,2.7,0,4-.12,1.18-2.4-.39-2,1.5,2.33.16,4.35-2.62,6.5-2,1.69.49.98,3.95,3,3,3.88-1.83,2.04-7.54,2.5-8ZM121,92.02c.64-.76-.33-2.8-1-2-.64.76.33,2.8,1,2ZM119.5,97.02c-.65,0-.65,1,0,1s.65-1,0-1ZM139,100.02c3.62,1.15,4.75-3,2.5-3-.2,0-2.44,2.21-2.5,3ZM148.5,98.02c-.65,0-.65,1,0,1s.65-1,0-1ZM151.5,98.02c-.65,0-.65,1,0,1s.65-1,0-1ZM135,105.02c.13-.15.13-3.85,0-4-1.37-1.64-1.37,5.64,0,4ZM122.5,105.02c-.65,0-.65,1,0,1s.65-1,0-1ZM126.5,106.02c-.65,0-.65,1,0,1s.65-1,0-1ZM110.5,107.02c-.65,0-.65,1,0,1s.65-1,0-1ZM123,112.02c-.76-.64-2.8.33-2,1,.76.64,2.8-.33,2-1ZM107,134.02l-3,4.5v1.5l-4,1c.16.81,2.06,2.87,2.5,3,2.5.75,2.23-3.58,3.5-4.5l1-5.5Z"/>
      <path d="M80,11.02c-.76,1.81.96,3.21,1,3.5.23,1.53.3,6.65,0,8-.32,1.42-3.65,6.38-4,8-.85,3.93,1.41,4.82,2,7,1.02,3.73,2.63,10.29,2,13-.83,3.59,1.71,3.99,2,5,.36,1.26-.45,2.25,1.5,3.5,3.29,2.1,2.76-.56,4.5,4.5.33.96,1.85.16,2.5,1.5,2.22.4,1.47-.97,1.5-2.5.03-1.31-.23-6.27,0-6.5.11-.11,2.89-.11,3,0,.25.25-.25,2.74,0,3,.67.69,3.33-1.69,4-1,.17.18-.23.96,0,1.5.26.62,1.87,2.53,2,3,.41,1.46-.74,3.23,1.5,4.5,2.41.47,1.48-1.96,1.5-3.5.02-2-.01-4,0-6l1.5-3.5c1.98,1.31,1.4,2.58,1.5,4.5.11,2.23.34,5.98,0,8-.06.38-1,.67-1,1,0,.53,3.78,3.21,4,4s.21,6.23,0,7c-.05.17-2.32,2.5-2.5,2.5-1.3.03-1.38-2.89-1.5-3-.13-.12-2.38.09-3-1.5l-1-5.5c-.72-.81-3.81,1.82-4,2.5-.25.9.19,3.04-1.5,3.5-1.53.42-2.1-1.64-3-2-2.21-.88-1.31,1.81-1.5,2-.11.11-2.89.11-3,0-.28-.28.16-6,0-7.5-.1-.94-1.93-.17-2.5-1.5l-2.5,2.5c1.06,4.97-1.74,9.37-5,4-.13-.22.15-.71,0-1-.22-.43-.89-.64-1-1-.37-1.29,1.48-2.09,1-2.5-.26-.22-1.78.21-2.5,0-1.96-.58-6.39-8.58-7.5-10.5-1.87-3.24-4.62-7.69-6-11-.23-.54.17-1.33,0-1.5-.22-.22-1.8.23-2.5,0-2.84-.95-6.83-6.18-10-8-.41-.24-3.78-1.94-4-2-1.07-.3-2.64,1.76-3.5,1-.33-.29,2.52-2.08-.5-4-1.37-.87-4.68-3.91-5-4-2.83-.78-5.37.3-9-2-4.43-2.8-.83-3.32-.5-4.5.36-1.32-.9-1.59-1-2-.43-1.83,1.09-4.05-1.5-3.5l-2.5-2c3.39-.77,3.61.71,5.5,2,.25.17.8-.15,1,0,2.57,1.94,3.02,4.47,6.5,6.5,1.18.69,2.62,1.59,4,1.5l-5-4.5c-.14-1.96-2.58-3.96-2-6,.34-1.19,3.76-1.89,4.5-3.5,1.97-.54,2.11,1.88,2.5,2.5.96,1.52,3.78,1.95,5,4,.13.22-.14.69,0,1,.2.43.92.64,1,1,.83,3.59-1.71,3.98-2,5-.36,1.25,2.34,4.62,3.5,5.5,2.85,2.16,10.16,6.4,14,8,.54.23,1.33-.17,1.5,0,.19.19-.26,1.03,0,1.5.55.98,2.33,1.96,3,3,.28.44.7,2.47,1,3,1.12,1.99,9.56,14.96,10.5,15.5.47.27,1.31-.19,1.5,0,.17.17-.22.96,0,1.5.18.43.93.65,1,1,.24,1.31-.65,3.69.5,4.5l.5-5.5c-1.84-.87-1.78-5.28-2-5.5-.25-.25-2.75.25-3,0-.27-.27.21-3.39,0-4.5-.03-.17-.7-1.9-1-3-.99-3.65-3.01-5.55-4-9-.29-1.02-2.8-1.37-2-5,.03-.13,1.82-1.73,1-2.5-.37-.35-4.66.34-5,0-.21-.21.21-1.78,0-2.5s-3.46-3.33-3-5c.21-.75,2.42-1.46,2-3-.89-3.24,0-2.38,0-3,0-.33-1-.67-1-1,0-.67,2.44-3.21,3-4,.16-.23-.16-.79,0-1,.91-1.23,2.49-2.27,3.5-3.5,1.23.46.09,3.51.5,4,2.08,2.46,1.88-2.16,2-2.5.08-.22,2.33-2.45,2.5-2.5,1.87-.54,2.68,1.24,4.5,1Z"/>
      <path d="M89,85.02c.17.17-.22.96,0,1.5.17.41.86.61,1,1,.21.58-.19,1.38,0,2,2.26,7.25,4.61,15,5,23,.1,1.95-.14,1.59,2,1.5-.11,2.61-2.74-.31-3,0-1.44,1.72,1.83,3.93,2,4.5.41,1.38.62,3.59,1,5,.11.41,1,.67,1,1s-.89.59-1,1c-.65,2.44-2,3.76-2,4,0,.33.94.62,1,1,.18,1.09.24,5.12,0,6-.15.55-1.84,1.44-2,2-.18.62.18,1.38,0,2-.49,1.7-2.6,1.24-3.5,1.5-.56.16-1.45,1.85-2,2-.81.22-2.05-.16-3,0-.38.07-.67,1-1,1s-1.34-1.63-2-2c-4.18-2.35-9.31-3.13-14-4-.37-.07-.6-.89-1-1-.74-.2-2.29.21-2.5,0-.19-.19.26-1.03,0-1.5-.57-1.02-2.06-2.53-3-4-1.58-2.47-4.66-1.16-5-1.5-.19-.19.19-1.81,0-2-.16-.16-3.68-.15-3-2.5.47-1.62,2.88-1.38,3-1.5.15-.14-1.94-3.08-1-4,.33-.32,5.09.23,6.5,0,3.21-.53,10.4-.7,15,1,2.2.81,4.73,2.53,7,3,.65.13,3.37.11,3.5,0,.15-.13-.81-1.4-1-2.5-.63-3.64-.09-6.79-1-10-.12-.41-.93-.63-1-1-.66-3.58-.1-6.4,3.5-3.5l3.5,4c.26-2.05-.2-3.68-1-5.5-.75-1.7-3.72-5.7-4-7-.25-1.16.21-2.77,0-4-.07-.38-.95-.63-1-1-.17-1.34-.34-9.16,0-9.5.11-.11,2.89-.11,3,0ZM94,128.02c-1.22.48-3.2-1.7-4-1-.34.3,3.38,7.46,4,1Z"/>
      <path d="M85,100.02c-1.35,1.28-4.54-3.8-6-4l2,5.5c4.02,2.33.35,4.92,1,7,.68,2.19.64,2.67,1,5,.21,1.38.81,1.64,1,3,.17,1.19-.15,2.14-1.5,1.5-1.53-.73-3.49-2.33-5-3-3.64-1.61-8.13-3.89-12-5-.29-.08-3.27-3-4-3-.31,0-.56.83-1,1-2.21.88-1.31-1.81-1.5-2s-1.81.19-2,0c-.21-.21.21-1.78,0-2.5-.34-1.15-5.69-4.89-6-6-.34-1.2.22-4.45,1.5-4.5.16,0,.73,1.22,3,1,1.83-.18,1.85-1.69,3,0l5.5,1c-1.77-3.63-8.19-6.17-7-10.5.15-.55,1.85-1.45,2-2,.19-.68-1.71-3.41-1-6,.54-1.97,3.84-1.34,4-1.5.17-.17-.22-.96,0-1.5.55-1.32.61-1.63,1-3,.05-.17,2.32-2.5,2.5-2.5.39,0,4.9,4.7,5.5,5.5,4.11,5.48,6.61,14.65,12,20l2,6.5ZM61,80.02c.64-.76-.33-2.8-1-2-.64.76.33,2.8,1,2ZM68,82.02c-.94,1.13,2,3.93,2,2.5,0-.32-.85-.57-1-1-.1-.27-.1-2.57-1-1.5ZM79,95.02c.32-1.75-1.41-3.2-2-4.5-.38-.85.56-2.18-1.5-3.5-.25-.16-.79.15-1,0-.66-.47-2.53-3.03-3.5-2-1.38,1.46,6.06,9.19,8,10ZM72,94.02c-.76-.64-2.8.33-2,1,.76.64,2.8-.33,2-1ZM65.5,99.02c-1.46,0,2.5,3.96,2.5,2.5,0-.18-2.32-2.5-2.5-2.5Z"/>
      <path d="M134,141.02c.23.23,2.05-.55,2,.5-1.12.48-.84,1.76-1,2-.7,1.04-2.45,2.02-3,3-.51.91.85,2.08-1,1-1.39-.81-1.4.14-1,1,.17.37,4.19,4.41,4.5,4.5.12.03,1.07-1.94,2.5.5-1.28.52-.9,2.4-1,2.5-1.19,1.14-4.55-1.57-5.5-2-.8-.36-2.35.53-3.5-1.5-.27-.47.19-1.31,0-1.5s-1.03.26-1.5,0c-.54-.3-5.39-5.13-5.5-5.5-1.63-5.67-3.04-2.54-4-3.5-.17-.17.23-.96,0-1.5-.25-.59-1.92-2.64-2-3-.26-1.22-.29-9.96,0-11,.67-2.43,2.32-.5,2.5-.5.95,0-.96-1.9-.5-3.5.85-2.98,4.74-2.11,6.5-2.5.4-.09.68-1.36,2-1,.24.07,3.17,3,3.5,3.5.27.41.73,2.59,1,3,.76,1.14,3.79,3.26,4,4,.66,2.31.54,4.93,1,7,.08.38.88.6,1,1,.29,1.02-1.76,2.75-1,3.5ZM119,132.02c.7-.82-1.48-2.77-1-4-2.45-.05.27,2.31,0,4,.33-.08.89.13,1,0ZM117.5,139.02c-.65,0-.65,1,0,1s.65-1,0-1Z"/>
      <path d="M97,47.02c-2.72.39-1.95-.44-2-2.5-.07-2.9-.79-4.43-1-6-.13-.96-.19-5.31,0-5.5.48-.48,3.01,1.59,2-4.5-.06-.38-1-.67-1-1,0-.39,1.84-1.44,2-2,.34-1.19-.42-2.41,1.5-3.5.37-.21,3.1.1,1.5-2-.13-.17-3.79-.07-3-3,3.25-.95,1.04,3.01,3.5,2,1.33-.55,3.81-5.62,4.5-.5.3,2.22.37,8.91,0,11-.07.41-1.85,3.43-2,4-1.27,4.76-.85,10.09-2,15-.84,3.57,2.4,4.53,2,6-.22.82-1.6,2.04-2.5.5-.35-.61-1.47-2.36-1.5-2.5-.54-2.5.59-6.61,0-9-.77-3.11-4.98.39-2,3.5ZM98.5,26.02c-.65,0-.65,1,0,1s.65-1,0-1ZM97.5,35.02c-.65,0-.65,1,0,1s.65-1,0-1ZM99,38.02c-1.09-1.09-3.09.91-2,2s3.09-.91,2-2Z"/>
      <path d="M59,11.02c.18.18-.23.96,0,1.5s1.36.7,1,2c-.8,2.9.67,2.49,1,4,.54,2.52-1.07,6.22,1,8-.67,1.28,1.67,3.84,1,4.5-.16.16-3.79.16-4.5,0-.37-.08-.57-.83-1-1-1.58-.63-3.55-1.01-4.5-2.5-.46-.72-.86-3.36-1-3.5-.19-.19-1.81.19-2,0-.32-.32.29-3.43,0-4.5-.15-.55-1.85-1.45-2-2-.34-1.24,2.34-3.76,2-5-.24-.85-2.38-1.66.5-3.5.14-.09,2.17-.98,2.5-.5,1.64.15,2.87,2.31,3.5,2.5.72.21,2.29-.21,2.5,0Z"/>
      <path d="M20,3.02c-.21,1.67-1.55,1.66-2.5,2-.86.31-.65,2.8-.5,3,.12.17,4.88-3.48,4,1.5-2.55,3.5-3.29-.15-4.5-.5-1.76-.51-3.28,1.27-3.5,1-.28-.35.25-2.58,0-3.5-.15-.55-1.85-1.45-2-2-.32-1.17.21-3.13,0-4.5,1.62-.3.82,2.54,2.5,3,1.53.42,2.48-1.99,3-2,.47,0,1.71,2.73,3.5,2Z"/>
      <path d="M104,125.02c.18.18.17,4.82,0,5-.57.63-2.51-.63-3-1.5-.26-.47.19-1.31,0-1.5-.41-.41-2.9,1.31-2-3l5,1Z"/>
      <path d="M19,162.02c.1.12.39,2.68-.5,3s-2.45,1.16-3,1c-1.34-.39-1.77-2.64-1.5-4h5Z"/>
      <path d="M12,158.02c-.96-.16-3.76.24-4,0-.19-.19.16-1.73,0-2.5-.05-.26-1.85-1.5-.5-1.5.38,0,4.38,2.61,4.5,4Z"/>
      <path d="M56,164.02c-1.02,1.02-4.02-1.98-3-3s4.02,1.98,3,3Z"/>
      <path d="M7,157.02c.61.61.25,5.85-2,4-.5-.41.89-1.12,1-1.5.37-1.29-1.48-2.09-1-2.5.08-.06,1.93-.07,2,0Z"/>
      <path d="M34,11.02c-.11-.11-.1-2.89,0-3,.57-.63,3,3.26,3,3.5,0,1.34-1.12-.36-1.5-.5-.56-.2-1.33.17-1.5,0Z"/>
      <path d="M112,53.02c.83.83-1.54,3.57-2,3-.87-1.08.37-4.63,2-3Z"/>
      <path d="M15,22.02c-.48-.4.81-1.07,1-1.5.23-.53-.36-2,.5-1.5,2.99,1.75-.57,3.76-1.5,3Z"/>
      <path d="M106,45.02c1.09,1.09-.91,3.09-2,2s.91-3.09,2-2Z"/>
      <path d="M29,147.02c1.09,1.09-.91,3.09-2,2s.91-3.09,2-2Z"/>
      <path d="M15,156.02c-.11.11-2.88.1-3,0-1.09-.91,1.32-.92,1.5-1,.43-.19,1.1-1.49,1.5-1,.07.08.07,1.93,0,2Z"/>
      <path d="M23,161.02c.07.07.07,1.92,0,2-.4.49-1.07-.81-1.5-1-.18-.08-2.59-.09-1.5-1,.12-.1,2.89-.11,3,0Z"/>
      <path d="M6,165.02c-.42.52-2.81-2-2-3,.42-.52,2.81,2,2,3Z"/>
      <path d="M17,14.02c-1,.81-3.52-1.58-3-2,1-.81,3.52,1.58,3,2Z"/>
      <path d="M20,99.02c-.18.18-2.42.23-2-.5,1.68-2.89,3.03-.53,2,.5Z"/>
      <path d="M66,12.02c.18.18.23,2.42-.5,2-2.89-1.68-.53-3.03.5-2Z"/>
      <path d="M86,121.02l-2,2c-.26-2.11-.11-2.26,2-2Z"/>
      <path d="M15,16.02c-2.11.26-2.26.11-2-2l2,2Z"/>
      <path d="M21,14.02l-2,2c-.26-2.11-.11-2.26,2-2Z"/>
      <path d="M23,133.02l-2,2c-.26-2.11-.11-2.26,2-2Z"/>
      <path d="M7,146.02l-2,2c-.26-2.11-.11-2.26,2-2Z"/>
      <path d="M25,3.02c.18.18.23,2.42-.5,2-2.89-1.68-.53-3.03.5-2Z"/>
      <path d="M68,157.02c-2.11.26-2.26.11-2-2l2,2Z"/>
      <path d="M110,34.02c-.18.18-2.42.23-2-.5,1.68-2.89,3.03-.53,2,.5Z"/>
      <path d="M15,34.02c-2.11.26-2.26.11-2-2l2,2Z"/>
      <path d="M2,165.02c-.9,1.07-.9-1.23-1-1.5-.15-.43-1-.68-1-1,0-1.43,2.94,1.37,2,2.5Z"/>
      <path d="M39,163.02c-.67.8-1.64-1.24-1-2,.67-.8,1.64,1.24,1,2Z"/>
      <path d="M44,160.02c-.67.8-1.64-1.24-1-2,.67-.8,1.64,1.24,1,2Z"/>
      <path d="M13,151.02c.8.67-1.24,1.64-2,1-.8-.67,1.24-1.64,2-1Z"/>
      <path d="M6,151.02c.8.67-1.24,1.64-2,1-.8-.67,1.24-1.64,2-1Z"/>
      <path d="M106,48.02c.8.67-1.24,1.64-2,1-.8-.67,1.24-1.64,2-1Z"/>
      <path d="M31,62.02c.8.67-1.24,1.64-2,1-.8-.67,1.24-1.64,2-1Z"/>
      <path d="M30,11.02c.8.67-1.24,1.64-2,1-.8-.67,1.24-1.64,2-1Z"/>
      <path d="M81,5.02c-.67.8-1.64-1.24-1-2,.67-.8,1.64,1.24,1,2Z"/>
      <path d="M32,2.02c.8.67-1.24,1.64-2,1-.8-.67,1.24-1.64,2-1Z"/>
      <path d="M69.5,166.02c.65,0,.65,1,0,1s-.65-1,0-1Z"/>
      <path d="M25.5,166.02c.65,0,.65,1,0,1s-.65-1,0-1Z"/>
      <path d="M10.5,164.02c.65,0,.65,1,0,1s-.65-1,0-1Z"/>
      <path d="M67.5,162.02c.65,0,.65,1,0,1s-.65-1,0-1Z"/>
      <path d="M16.5,160.02c.65,0,.65,1,0,1s-.65-1,0-1Z"/>
      <path d="M.5,159.02c.65,0,.65,1,0,1s-.65-1,0-1Z"/>
      <path d="M53.5,158.02c.65,0,.65,1,0,1s-.65-1,0-1Z"/>
      <path d="M20.5,152.02c.65,0,.65,1,0,1s-.65-1,0-1Z"/>
      <path d="M46.5,151.02c.65,0,.65,1,0,1s-.65-1,0-1Z"/>
      <path d="M15.5,151.02c.65,0,.65,1,0,1s-.65-1,0-1Z"/>
      <path d="M7.5,151.02c.65,0,.65,1,0,1s-.65-1,0-1Z"/>
      <path d="M1.5,151.02c.65,0,.65,1,0,1s-.65-1,0-1Z"/>
      <path d="M48.5,147.02c.65,0,.65,1,0,1s-.65-1,0-1Z"/>
      <path d="M110.5,146.02c.65,0,.65,1,0,1s-.65-1,0-1Z"/>
      <path d="M39.5,145.02c.65,0,.65,1,0,1s-.65-1,0-1Z"/>
      <path d="M8.5,143.02c.65,0,.65,1,0,1s-.65-1,0-1Z"/>
      <path d="M5.5,143.02c.65,0,.65,1,0,1s-.65-1,0-1Z"/>
      <path d="M18.5,137.02c.65,0,.65,1,0,1s-.65-1,0-1Z"/>
      <path d="M5.5,127.02c.65,0,.65,1,0,1s-.65-1,0-1Z"/>
      <path d="M27.5,120.02c.65,0,.65,1,0,1s-.65-1,0-1Z"/>
      <path d="M16.5,61.02c.65,0,.65,1,0,1s-.65-1,0-1Z"/>
      <path d="M26.5,49.02c.65,0,.65,1,0,1s-.65-1,0-1Z"/>
      <path d="M171.5,46.02c.65,0,.65,1,0,1s-.65-1,0-1Z"/>
      <path d="M23.5,44.02c.65,0,.65,1,0,1s-.65-1,0-1Z"/>
      <path d="M23.5,37.02c.65,0,.65,1,0,1s-.65-1,0-1Z"/>
      <path d="M8.5,27.02c.65,0,.65,1,0,1s-.65-1,0-1Z"/>
      <path d="M21.5,22.02c.65,0,.65,1,0,1s-.65-1,0-1Z"/>
      <path d="M21.5,19.02c.65,0,.65,1,0,1s-.65-1,0-1Z"/>
      <path d="M14.5,18.02c.65,0,.65,1,0,1s-.65-1,0-1Z"/>
      <path d="M24.5,8.02c.65,0,.65,1,0,1s-.65-1,0-1Z"/>
      <path d="M108.5,5.02c.65,0,.65,1,0,1s-.65-1,0-1Z"/>
      <path d="M50.5,5.02c.65,0,.65,1,0,1s-.65-1,0-1Z"/>
    </g>
  </g>
</svg>