<?xml version="1.0" encoding="UTF-8"?>
<svg id="Layer_2" data-name="Layer 2" xmlns="http://www.w3.org/2000/svg" viewBox="0 0 174.07 187.18">
  <g id="Elements">
    <g id="Element">
      <path d="M8.04,134c.29.29.62,3.85-1.5,3-3.05-1.22.51-3.99,1.5-3Z"/>
      <path d="M145.04,3c.23.24-.55,2.05.5,2,1.17-1.55,2.78-2.21,4.5-3l1,5c2.55,1.05,3.61-1.75,4.5-2,2-.57,2.55.87,3,1,1.47.41,1.99-1.44,3-2,.47-.26,1.31.19,1.5,0,.18-.18-.68-2.91,1.5-2,.41.17.61.87,1,1,.62.21,3.5.05,3.5,1.5,0,.33-1,.67-1,1s.89.59,1,1c.71,2.65,1.86,3.47,2,4,.81,2.94-.19,11.1,0,15,.36,7.24,1.01,18.07,2,24,1.34,8.07-.88,14.78,0,23,.68,6.39.8,14.62,0,21-.43,3.43,1.29,14.04,1,15-1.11,3.64-1.11,9.99,0,14,.11.39-1.31,3.46-1,6,.14,1.19,1.21,2.32,1,2.5-.26.23-2.06-.54-2,.5.7.62,1.27,1,1,2-1.18,4.3.89,11.02,0,16-.05.29-1.57,1.01-1,3,1.73,6.03-3.15,13.09-2,20,.18,1.07.7,2.73,1,4,1.13,4.79-1.71,3.21-2,3.5-.17.17.22.96,0,1.5-.29.71-1.53,1-1,3,.1.37,1.5,1.09,1,1.5-.67.55-9.35-.48-11.5,0-.38.09-.6.89-1,1-1.27.35-4.32-3.49-6-3-.41.12-.62.92-1,1-.92.19-2.18-.23-3,0-.55.15-1.61,2-2,2-.59,0-4.1-4.75-5-5-1.48-.41-4.19.23-6,0s-4.85-.62-7-1c-.14-.03-1.64-1.82-2.5-1-.75.72,1.26,2.76,1,3-.91.84-2.37-1.01-2.5-1-.18,0-2.28,2.11-2.5,2.5-.36.64.7,2.38-2.5,1.5-.44-.12-.68-1.36-2-1-2.97.82-1.64-.62-3-1-1.04-.29-2.74,1.76-3.5,1-.45-.45.76-4.3-.5-5-.62.47-2.62,1.9-3,2-2.17.59-6.08.47-8,1-.3.08-2.83,2.55-4,3-.54.21-1.35-.17-2,0-.41.11-.67,1-1,1-1.18,0-2.98-4.69-4-5-1.91-.59-5.09,5.59-7,5-.53-.16-2.22-2.84-2.5-3.5-.23-.54.17-1.33,0-1.5s-.94.2-1.5,0c-.43-.16-.68-1-1-1-.33,0-.67,1-1,1s-.62-.94-1-1c-1.43-.24-5.6-.25-7,0-2.76.49-4.43,2.76-9,2-.38-.06-.67-1-1-1s-.61.93-1,1c-.97.17-3.21-.24-3.5,0-.66.56,2.58,2.02,1.5,3l-4-2c-1.98-.58-2.71.95-3,1-1.29.23-11.09.41-11.5,0-.25-.25.25-2.75,0-3-.72-.72-17.64.54-20.5,0-.55-.81-3.5-3.13-3.5-3.5s2-1.63,2-2c0-.18-2.33-2.45-2.5-2.5-.53-.17-1.3.08-2,0-.28-.03-1.62-2.89-1.5-3,1.14-1.05,3.57,2.48,4,2-.54-1.64.85-1.98,1-2.5.58-2-1-2.83-1-3,0-.11,1.39-1.5,1.5-1.5.37,0,1.63,2,2,2,.18,0,2.5-2.32,2.5-2.5,0-.46-2.82-2.12-3.5-2.5-.27-.15-.78.14-1,0-1.86-1.19-1.57-4.99-3-5-.25,0-1.09,1.5-1.5,1-.18-.22.26-1.03,0-1.5-.8-1.43-4.55-4-4-6,.11-.41,1-.67,1-1,0-.36-2.55-2-2-2.5.28-.26,2.75.25,3,0,.31-.31-.32-3.62,0-4,.39-.46,1.59,1.45,2,1,.13-.15-.3-1.96,1-2.5-.93-2.28,2.44-3.42,2-5-.65-2.35,0-1.48,0-2,0-.28-2.72-2.67.5-4.5.44-.25,2.01.38,1.5-.5l-3.5-4.5c-3.71,2.51.94,1.89.5,2.5-.61.86-1.96,2.17-3,2.5l.5-3c-1.15-.64.27-.87.5-1.5.21-.56-.17-1.33,0-1.5.35-.35,2.93.91,2-2l-5-1c2.17-2.33-.64-3.4,0-5.5s.49-4.18,0-7c-.02-.13-1.82-1.7-1-2.5.24-.23,2.05.55,2-.5-2.32-1.57,0-2.71,0-3,0-.11-1.39-1.48-1.5-1.5-.16-.02-1.5,2.15-2.5-1,5.36.34,3.26.16,4-2.5.11-.4.89-.6,1-1,.36-1.3-.77-1.44-1-2s.18-1.32,0-1.5c-1.15-1.15-1.56,1.28-3-4.5-.25-1.02.49-2.14-1-3,.45-1.22,3.58-.1,4-.5,1.28-1.21-2.81-3.82-3-4.5-.36-1.3.77-1.44,1-2,.91-2.18-1.82-1.32-2-1.5-2.13-2.13,1.86-1.86,2-2,.25-.25-.26-2.72,0-3,.11-.12,2.18.28,3-1.5.93-2.02-2.99-1.59-3-3,0-.2,1.69-1.83,2-1.5.12.13-.03,2.97,2,3,1.19-2.93-2.64-4.27-3-5.5-.54-1.83,1.65-3.4,1-5.5l5,.5c-.88-1.92-4.51-1.18-5-3-.42-1.55,1.79-2.24,2-3,.62-2.22-1.18-4.35-1-4.5,1.05-.92,3.87,1.16,4,1,.57-.66-1.46-4.8,3-2.5,3.86,1.02,3.07-1.93.5-3.5-.18-.11-1.65-.85-2-1-.54-.23-1.32.18-1.5,0-.16-.16-.13-3.69,0-4.5.06-.37.89-.59,1-1,.85-3.07-.6-2.12-1.5-2.5-.41-.17-.61-.86-1-1-.56-.2-2.83-.97-3-1-1.12-.21-4.22.27-4.5,0-.7-.68,1.45-2.8,1-4,.78-.79,3.82,1.71,4.5,2,.53.22,1.28-.17,1.5,0,.26.2-.86,2.98,2,2,.52-2.36-1.71-4.91-3.5-6-.75-.45-3.36-.86-3.5-1-.19-.19.19-1.81,0-2s-1.81.19-2,0c-.23-.23-.19-5.81,0-6.5.38-1.37,1.85-.04,1-3-.57-1.99.95-2.7,1-3,.29-1.61-.66-4.88,1.5-5.5.63-.18,1.41.19,2,0,.41-.13.61-.89,1-1,3.2-.89,2.15.88,2.5,1.5,2.36,4.16,4.57-2.09,6.5-1.5s1.34,3.84,1.5,4c.33.33,3.61-.94,5,1.5.26.46-.18,1.28,0,1.5.92,1.11,1.32-3.03,2.5-3,.34,0,.61.92,1,1,.77.16,2.29-.2,2.5,0,.28.26-.79,2.4,1,2-.11-1.47.17-3.06,0-4.5-.18-1.52-1.29-1.97-1-3,.79-2.79,3.22-.56,3.5-.5,1.14.25,4.13-.31,4.5,0,2.69,2.25-2.85,1.87-3,2-.5.41.98,1.22,1,1.5-2.12,1.4-1.02,6.4,1,4.5.12-.11.2-3.03,1.5-3,.17,0,1.04,1.6,3,1,.38-.12.58-.83,1-1,.54-.22,1.33.17,1.5,0,.8-.8-1.96-4.93,2.5-4,.39.08.67,1,1,1,.39,0,1.45-1.85,2-2,.61-.17,4.34-.15,4.5,0,.82.77-.97,2.37-1,2.5-.21.89.21,2.11,0,3-.09.38-.88.59-1,1-1.04,3.43,3.49,3.42,4,5,.17.53-.09,1.3,0,2,.11.89,2.89.61,3,.5.51-.51-1.82-4.07-1-5.5-2.3-1.68-.2-2.29,0-3s-.21-2.29,0-2.5c.52-.52,2.99,1.47,2-4,4.46,1.51-.47,4.61,0,5,.12.1,2.89.11,3,0,.19-.19-.2-1.76,0-2,.14-.17,2.98,1.93,4,1,.12-.11-.34-1.78,1.5-3,.93-.62-.26,2.53,1.5,2l1-4c1.52-.55,2.29,1,2.5,1,.25,0,.69-1.36,2-1,.43.12,2.56,1.88,3,2,1.12.3,4.46-2.98,8-2,.17.05,2.3,2.13,2.5,2.5.26.47-.19,1.31,0,1.5s3.43.51,4,2.5c.41,1.45-.74,3.23,1.5,4.5l-.5-6c1.03-.12,2.07,2,2.5,2,.38,0,1.63-2,2-2,.33,0,2.21,2.44,3,3,.21.15.74-.16,1,0,2.22,1.4,1.3,3.8,1.5,4,.1.11,2.02.38,2-.5-.04-1.71-2.49-3.09-2-3.5.14-.12,2.54.1,3-1.5.3-1.04-1.76-2.71-1-3.5,1.11-1.15,3.09,2.41,4.5,2,2.2-.63,1.27-4.77,1.5-5,.16-.16,3.78-.16,4.5,0,.34.07,2.66,1.93,3,2,1.17.25,2.83-.25,4,0,.34.07,2.65,1.92,3,2,.62.14,2.44.15,3,0C129.29,5.79,132.32,0,133.54,0c1,0,1.77,3.65,3,4,2.48.71,3.59-2,4-2,.38,0,1.6,1.98,2,2,.13,0,1.68-1.84,2.5-1ZM73.04,7c.81-1-1.58-3.52-2-3-.81,1,1.58,3.52,2,3ZM148.54,5c-.65,0-.65,1,0,1s.65-1,0-1ZM134.54,7c-.65,0-.65,1,0,1s.65-1,0-1ZM63.04,9c-.76-.64-2.8.33-2,1,.76.64,2.8-.33,2-1ZM15.54,10c-.65,0-.65,1,0,1s.65-1,0-1ZM20.04,12l-2-2c-.26,2.11-.11,2.26,2,2ZM46.04,12c.64-.76-.33-2.8-1-2-.64.76.33,2.8,1,2ZM39.54,11c-.65,0-.65,1,0,1s.65-1,0-1ZM121.54,12c-.65,0-.65,1,0,1s.65-1,0-1ZM81.04,16c.17.17.94-.2,1.5,0,.38.14,1.5,1.85,1.5.5,0-.2-2.69-2.84-3-2.5-.07.07-.07,1.93,0,2ZM44.54,15c-.65,0-.65,1,0,1s.65-1,0-1ZM76.54,16c-.65,0-.65,1,0,1s.65-1,0-1ZM19.54,17c-.65,0-.65,1,0,1s.65-1,0-1ZM3.04,20c.64-.76-.33-2.8-1-2-.64.76.33,2.8,1,2ZM61.04,21c.94-1.13-2-3.93-2-2.5,0,.32.85.57,1,1,.1.27.1,2.57,1,1.5ZM32.04,20c-.31-.25-2.53.17-3.5,0-.18-.03-1.52-1.95-2.5.5-.8,2.01,2.8,1.97,4.5,1.5.39-.11,1.81-1.75,1.5-2ZM141.54,19c-.65,0-.65,1,0,1s.65-1,0-1ZM56.04,20c-2.18-2.18-3.37,4.33-.5,6,.7.41.73-5.77.5-6ZM8.04,22c-1.74-1.74-3.49,2.25-.5,4,.76.44.66-3.84.5-4ZM33.54,22c-.65,0-.65,1,0,1s.65-1,0-1ZM85.54,22c-.65,0-.65,1,0,1s.65-1,0-1ZM104.04,24c-.76-.64-2.8.33-2,1,.76.64,2.8-.33,2-1ZM100.04,27c.64-.76-.33-2.8-1-2-.64.76.33,2.8,1,2ZM54.04,28c.64-.76-.33-2.8-1-2-.64.76.33,2.8,1,2ZM10.54,27c-.65,0-.65,1,0,1s.65-1,0-1ZM124.04,31c-.13-.13.13-2.53-1.5-3-2.54-.73-3.15,1.77-4,2-1.61.44-2.38-2.77-5-2-.79.23-4.7,3-5,3-.26,0-1.09-1.49-1.5-1-.7.84,1.49,2.75,1,4-1.79.4-.71-1.73-1-2-.11-.11-2.15-.16-3-1,.48,1.17-1.7,3.29-1,4,.18.19,5.11-.38,5,1.5-.02.38-4.86,3.68-5.5,3.5s-4.15-5.58-5.5-1.5c-.91,2.72,3.84,2.32,4,2.5.31.35-1.08,2.99,2.5,2,.4-.11.6-.89,1-1,1.12-.31,2.96,1.57,4,2,.54.23,1.33-.17,1.5,0,.19.19-.26,1.03,0,1.5.91,1.64,3.81,2.34,3,5-.07.22-1.82,1.68-1,2.5.35.35,2.79-1.26,2,2.5-.08.39-1,.67-1,1,0,.23,2.01,3.36,2.5,3.5,1.51.43,3.84-.82,4.5,2-2.86-.98-1.74,1.8-2,2-.16.12-3.86.14-4,0-.13-.13.11-.9,0-1.5-.16-.86-2.77-.92-3,0,1.38,1.65,4.49,4.08,6.5,3.5.51-.15,1.31-1.62,2-2,.24-.14.73.14,1,0,.44-.23,1.71-1.79,2.5-1,.15.15.29,3.83,2,2.5l3,.5c.68-3.54-2.37-.59-2-3.5.59-4.62,2.75-.71,3.5-.5.61.17,1.37-.17,2,0,.41.11.67,1,1,1,.39,0,1.45-1.85,2-2,.9-.25,4.05,1.74,5,2,1.69.46,2.98-2.7,4-3,.72-.21,2.17.23,2.5,0,.13-.09-.96-3.11,2.5-2,4.72,1.51-3.33,7.88-3.5,8.5-.44,1.6,2.29,2.73,3,4,.49.87-1.08,1.96,2.5,1.5,1.08-.14.23-1.68.5-2,.65-.79,3.04,2.93,2,4-.67.69-3.33-1.69-4-1-.37.38.26,6.53,0,8,1.98.33.6-2.62,1-3,.36-.35,4.64.35,5,0,.75-.72-1.27-2.77-1-3,1.31-1.13,4.71.91,6,2v-2l4-1c-1.28-2.92,3.49-4.69,3-6.5-.12-.44-1.88-2.56-2-3-.23-.85.23-2.15,0-3-.3-1.1-7.36-8.69-7-10,.11-.41,1-.67,1-1,0-1.39-6.28-6.64-7.5-7.5-.95-.67-4.5-3.86-5-4-1.02-.29-2.76,1.76-3.5,1-.34-.36.34-4.66,0-5-.26-.26-3.38.18-4.5,0-.38-.06-.62-.94-1-1-.82-.13-4.34-.16-4.5,0-.19.19.19,1.81,0,2s-1.03-.26-1.5,0c-.81.45-1.37,1.99-2.5,2,.19-1.1-.28-4.72,0-5,.32-.32,2.81.66,3-.5-.95-.5-4.21-3.5-4.5-3.5-.26,0-2.41,3.09-3.5,2ZM18.54,29c-.65,0-.65,1,0,1s.65-1,0-1ZM25.04,31c.64-.76-.33-2.8-1-2-.64.76.33,2.8,1,2ZM46.54,30c-.65,0-.65,1,0,1s.65-1,0-1ZM100.04,36c.81-1-1.58-3.52-2-3-.81,1,1.58,3.52,2,3ZM90.04,34c-.76-.64-2.8.33-2,1,.76.64,2.8-.33,2-1ZM22.04,35c-.07-.07-1.92-.07-2,0-.49.4.81,1.07,1,1.5.08.18.09,2.59,1,1.5.1-.12.11-2.89,0-3ZM96.04,39c.64-.76-.33-2.8-1-2-.64.76.33,2.8,1,2ZM15.04,38c-1.03-1.03-3.39.32-.5,2,.73.42.68-1.82.5-2ZM49.54,38c-.65,0-.65,1,0,1s.65-1,0-1ZM12.54,41c-.65,0-.65,1,0,1s.65-1,0-1ZM95.04,42c-.58-.63-4.01.24-4,2l4,2c-.17-.97.25-3.72,0-4ZM93.04,47l-2-2c-.26,2.11-.11,2.26,2,2ZM85.04,53c.77-.9-1.39-2.33-.5-3,.16-.88,1.5-2.35,1.5-2.5.03-1.01-3.41-2.11-4-1.5-.74.77.62,4.32,1,5.5.3.94.3,3.51,2,1.5ZM105.04,47c-1.63-1.63-2.87,1.92-2,3,.46.57,2.83-2.17,2-3ZM75.04,48l-3,1.5,1,3.5c1.08.32,2.77-.67,3-1.5.35-1.27-1.51-1.86-1-3.5ZM22.04,49c-1.09-1.09-3.09.91-2,2s3.09-.91,2-2ZM71.04,51c.64-.76-.33-2.8-1-2-.64.76.33,2.8,1,2ZM19.04,56c1.85-1.85-3.75-6.79-6.5-6-1.11.32-1.25,1.79-1.5,2.5-.4,1.11-1.74.24-2,.5-.11.11-.38,2.01.5,2,1.46,0,2.56-1.57,5-1,.51.12,3.68,2.82,4.5,2ZM61.04,51c-.84-.84-2.35,1-2.5,1-.33,0-.59-.89-1-1s-4.31,1.28-5,2c-.73.4-3.36.88-3.5,1-.58.48,3.57,3.51,3,4-.47.4-4.51-1-5,2,1.85-.87,4.7,1.23,5.5,1,.4-.11.61-.9,1-1,1.67-.41,3.57.95,2-2-.99-.5.74-1.93,1-2,.63-.17,3.37-.17,4,0,2.42.65.51,2.35.5,2.5-.1,1.49.07,3.02,0,4.5-1.79.4-.72-1.74-1-2-.17-.15-3.7-.13-4.5,0-.66.11-.72,1.93-2,0-3.31,2.96-.95,3.02,2,4,4.52,1.5,5.75.6,10.5,3.5.93.56,3.64.8,4,.5.13-.11-1.16-2.54-1.5-3-1.83-2.46-5.2-3.04-1.5-5.5,1.21-.8,1.18,1.12,2,0-.86-.42-1.4-2.05-1-2.5.25-.29,2.63.91,2-1.5-1.28-.51-.9-2.41-1-2.5-.26-.24-2.55.19-3.5,0-.39-.08-.61-.92-1-1-.95-.19-3.26.24-3.5,0-.19-.19.19-1.81,0-2ZM102.54,52c-.65,0-.65,1,0,1s.65-1,0-1ZM78.54,53c-.65,0-.65,1,0,1s.65-1,0-1ZM82.04,54c-1.09-1.09-3.09.91-2,2s3.09-.91,2-2ZM43.04,57c.64-.76-.33-2.8-1-2-.64.76.33,2.8,1,2ZM167.04,57c.64-.76-.33-2.8-1-2-.64.76.33,2.8,1,2ZM25.54,56c-.65,0-.65,1,0,1s.65-1,0-1ZM18.54,57c-.65,0-.65,1,0,1s.65-1,0-1ZM45.54,57c-.65,0-.65,1,0,1s.65-1,0-1ZM74.54,59c-.65,0-.65,1,0,1s.65-1,0-1ZM89.04,60c-1.03-1.03-3.39.32-.5,2,.73.42.68-1.82.5-2ZM100.04,63c-.07-.79-2.3-3-2.5-3-1.35,0,.36,1.12.5,1.5.41,1.13-.88,1.86,2,1.5ZM10.04,64c1.03-1.03-.32-3.39-2-.5-.42.73,1.82.68,2,.5ZM81.54,62c-.65,0-.65,1,0,1s.65-1,0-1ZM99.04,74c-.3-.31.21-4.22,0-5.5-.06-.38-1-.67-1-1,0-.37,2-1.62,2-2,0-.35-3.05-2.37-3.5-2.5-2.77-.83-3.24,3.06-5,1-.88,1.31,2.5,2.89,2.5,3.5,0,.34-1,.66-1,1,0,.95,4,2.05,4,3,0,1.5-5.29,1.34,2.5,4.5.42.17.62.89,1,1,.94.28,3.38.3,2.5-1.5-1.05-2.14-3.85-1.34-4-1.5ZM129.54,63c-.65,0-.65,1,0,1s.65-1,0-1ZM21.54,64c-.65,0-.65,1,0,1s.65-1,0-1ZM38.04,66c-2.52.55-4.16-.99-6.5-1-1.75-.01-2.66,1.02-1.5,2,.15.13,2.43-.04,4,.5,2.34.8,3.58,2.79,4-1.5ZM86.54,65c-1.42,0,1.5,2.92,1.5,1.5,0-.11-1.39-1.5-1.5-1.5ZM39.54,66c-.65,0-.65,1,0,1s.65-1,0-1ZM61.54,68c-.65,0-.65,1,0,1s.65-1,0-1ZM136.54,68c-.65,0-.65,1,0,1s.65-1,0-1ZM51.04,69c-3.65-.86-1.35,3.37-2,4-.45.44-4.82-2.01-6-1-.48.41,1.37,1.22,1,2.5-.33,1.15-1.23,1.17.5,3.5l-.5,3c-2.04.8-4.53-4.28-6-3-.56.49,1.86,1.99,2,2.5.25.91-.27,3.23,0,3.5.24.24,2.56-.2,3.5,0,.43.09.88,1.55,2.5,1l1,4c4.15.31.98-2.24,0-4,2.48,1.36,2.11-3.04,3.5-3,.31,0,1.4,1.61,2,2l1-4c1.03.19,4.23-.27,4.5,0,.3.3-.3,3.7,0,4,.18.18,4.82.18,5,0,.55-.55-1.4-.78,1.5-2,.56-.23.7-1.36,2-1,.55.15,1.61,2,2,2,.78,0,1.51-2.23,2-3,.96-1.51,4.47-.52,1-3-.21-.15-.77.16-1,0-1.86-1.28-1.62-2.58-5-2-.38.07-.67,1-1,1-.73,0-3.69-2.91-4-3-1.5-.44-5.67-2-6-2-.17,0-.73,1.28-3,1-1.03-.13-.34-2.04-.5-3ZM54.54,69c-.65,0-.65,1,0,1s.65-1,0-1ZM144.04,71c.64-.76-.33-2.8-1-2-.64.76.33,2.8,1,2ZM77.04,70c-.11-.1-2.89-.1-3,0-.8.75,1.52,5.96,2.5,6,1.63.06,1.36-2.73,1-4-.23-.81-.43-1.93-.5-2ZM119.54,70c-.65,0-.65,1,0,1s.65-1,0-1ZM40.04,71c-.76-.64-2.8.33-2,1,.76.64,2.8-.33,2-1ZM108.04,73l-2-2c-.26,2.11-.11,2.26,2,2ZM134.54,71c-.65,0-.65,1,0,1s.65-1,0-1ZM38.04,75c-.8-.76-2.46,1.3-3.5,1-1.23-.35-2-4-3-4-.22,0-3.18,1.9-3.5,2.5-.54,1.03,2.4-.94,2,2.5l-2,2c1.48.55,2.33-1.01,2.5-1,.41.02,1.45,1.85,2,2,.84.23,3.09-1.27,4-2,.77-.61,2.23-2.31,1.5-3ZM146.04,73c-.76-.64-2.8.33-2,1,.76.64,2.8-.33,2-1ZM95.04,77c.68-.62-.87-3.45-2.5-3-.41.11-.67,1-1,1-.22,0-1.45-1.59-4-1-.38.09-.6.89-1,1-.96.27-3.47-2.05-4.5-1-1.51,1.54,2,4.24,2,4.5,0,.33-3.14,2.33-2,4.5l5-.5c-.57-1.55-2.88-1.39-3-1.5-1.05-.97,1.38-.93,1.5-1,1.5-.84,1.74-3.63,3-4,1.46-.43,5.36,2.05,6.5,1ZM136.54,74c-.65,0-.65,1,0,1s.65-1,0-1ZM121.04,77l-2-2c-.26,2.11-.11,2.26,2,2ZM136.04,78c.64-.76-.33-2.8-1-2-.64.76.33,2.8,1,2ZM7.04,80l-2-2c-.26,2.11-.11,2.26,2,2ZM120.04,79c-.57-.57-3.64.26-4,1.5-.18.63.2,1.42,0,2-.13.39-.83.59-1,1-.91,2.18,1.79,1.31,2,1.5.28.26-.79,2.4,1,2-.07-3.52-.92-4.56,3-4-.45,1.2,1.7,3.32,1,4-.27.26-1.86-.58-2,.5-.18,1.39.17,2.89,1.5,3.5,2.02.92,1.59-3,3-3,.33,0,.67,1,1,1s.62-.94,1-1c1.92-.32,5.32-.57,4.5,1.5,1.6.73,2.33,4.18,3.5,4.5,1.31.36,1.75-1,2-1s.68,1.34,2,1c.17-.04,1.68-1.82,2.5-1,.11.11-.29,1.98,1,2.5-.72,1.95-3.83,1.33-4,1.5-.31.31.32,3.62,0,4-.39.46-1.61-1.46-2-1-.2.23.19,1.81,0,2-.25.25-2.75-.25-3,0-.19.19.71,2.88-1.5,2-1.4-.56-1.71-3.63-3-4s-1.87,1.52-3.5,1c-.82,2.8,2.1,4.95,0,6.5-2.85,6.91,1.56.99,2,1.5.61.7-.53,4.04-1.5,4-.18,0-2.45-2.33-2.5-2.5-.41-1.47.72-3.27-1.5-4.5l-.5,2-4,1c-1.01,3.27,2.49,1.5,3,2,.7.68-1.67,3.24-1,4,.23.26,2.28-1.75,3-1,.18.18-.26,3.73,2,4.5-.96,1.06-1.86-1.33-2.5-1.5-4.65-1.26-3.27,1.77-3.5,2-.82.82-5.06-2.77-6-2-.53.44,3.84,3.06,1,4.5l-1,5.5c-.46.57-2-1.86-2.5-2-1.33-.38-1.68,1.38-3,1-1.63-.47-1.37-2.87-1.5-3-.18-.18-.96.23-1.5,0-.36-.15-1.66-1.82-2.5-1-.23.22.55,2.05-.5,2-7.31-4.86-.51-7.42-.5-8.5,0-.18-2-2.82-2-3,0-.35,2.56-2.03,2-2.5-.17-.15-1.95.31-2.5-1-4.92.94-3.06-1.56-3.5-2-.6-.6-3.46,1.71-5,1-.32.28,2,3.3,2,3.5,0,.33-.89.59-1,1-.17.63.17,1.39,0,2-.15.53-3.12,2.35-2,3.5.26.27,1.71-1.53,3.5-1s1.23,2.64,1.5,3.5c.54,1.71.96,1.57,1.5,2.5s-.53,1.87-1,2c-1.9.51-4.45-.81-6.5,1-.97-2.66,1.57-3.39,2-4.5.8-2.03-1.12-1.29-1.5-1.5-1.66-.92-2.3-3.78-5-3-.35.1-1.85,1.85-2.5-.5-.32-1.15,1.58-2,1-4-.15-.52-1.54-.86-1-2.5-.28-.32-3.3,2-3.5,2-.67-.01-1.78-3.58-3.5-.5-.26.47.19,1.31,0,1.5-.68.7-2.8-1.45-4-1l4,4c-2.29-.33-6.87.28-8,2.5s3.38,1.44,4.5,1.5c1.62.08,2.87.85,1.5,2-.4.34-3.4-.3-4.5,0-3.17.87-1.28,3.04-8,1-2.39-.73-4.22,2-5,4-1.17.62,1.01,1.53.5,2-.95.87-3.38-1.7-4-2.5-1.17-1.51-1.08-3.91-3-2,1.59,1.12.73,1.3-.5,2.5l-3.5,1c.04,2.85,4.57,1.57,5,2,.18.18.49,3.57,2,4.5,1.33.82,2.59.46,4,.5l-4,4c1.82.75,3.47-1.29,4.5-1,.44.12,2.63,1.92,3,2,.94.21,3.25-.25,3.5,0s-.25,2.75,0,3c.19.19,1.03-.26,1.5,0,1.61.9,2.11,3.99,4.5,2,.81,4.43-4.32.3-5,1-.25.25.2,2.55,0,3.5-.07.34-1.5,1.09-1,1.5.27.22,1.78-.21,2.5,0,.6.18,4.4,3.82,5,4,1.58.46,4.58-1.91,5.5-1,.23.22-.55,2.05.5,2,5.22-3.97,4.18,3.68,4.5,4,.21.21,1.76-.2,2.5,0,2.73.74,5.6,2.06,9,3,.55.15,1.45,1.85,2,2,2.57.71,7.34-1.3,5.5-3-.26-.24-2.47.43-4-.5-.74-.45-3-3.7-3-4,0-.26,2.48-2.84,3-4,.27-.59-.27-3.01,1.5-3.5,2.38-.66,3.45.89,4,1,1.02.21,2.38-.13,3.5,0-.54-1.64.85-1.98,1-2.5.58-1.98-.83-2.46-1-3-.19-.59.18-1.37,0-2-.72-2.52-3.92-2.18-5.5-2.5-.38-.08-.6-.89-1-1-.95-.26-2.28,1.13-3.5,1.5l-3-1.5c-.94,2.9,1.73,1.7,2,2,.44.5-1.38,1.19-1,2.5.14.48,3.51,2.96,2,4.5-1.07,1.09-3.32-1.01-3.5-1-1.41.09-2.26,5.74-4.5,6-1.05-4.17,1.7-2.63,2-3,.13-.16.14-3.86,0-4-.11-.11-2.89-.11-3,0-.32.32.66,2.81-.5,3-.69-1.7-4.06-4.5-4.5-5.5-.19-.44-.25-1.65.5-1.5l2.5,2-2-2c-.16-1.75,1.57-3.02,1-5.5-.12-.51-1.77-1.69-1-3.5,1.37.08,2.68,2.78,3.5,3,1.32.36,1.61-.92,2-1,1.35-.27,3.78-.99,4-1,.18-.01,2.22,2.06,3.5,1,.56-.46-2-2.16-2-2.5s.93-.62,1-1c.35-2.06-.98-4.66,2-5.5l1,4c4.03-.6.18,2.02-1,4.5,2.64,2.62,2.37,5.47,7,4.5l2-8c.75-.13,3.85-.86,4-1s-.2-3.99,1.5-4,1.28,3.72,1.5,4.5c.19.69,3,2.53,3,3,0,.27-2.99,3.74,1.5,2.5.58-.16,1.53-2.35,3,0,2.83,4.51-2.99,2.49-3.5,3-.24.24.16,3.04,0,4-4.07.63-.76-2.82-1-3-.15-.11-2.78-.61-3.5-1-.55,1.31-2.31.85-2.5,1-.27.22,1.51,1.73,1,3.5-.11.37-2.72,3.44-3,5-.15.86-.19,5.31,0,5.5.34.34,3.01-1.41,2,3.5-.08.38-.89.6-1,1-.2.74.21,2.29,0,2.5-.32.32-3.43-.29-4.5,0-.68.18-3.31,3.29-2.5,4,.24.21,5.54.16,6.5,0,1.94-.32,3.09.28,4,0,1.9-.58,10.03-4.28,11-4,3.64,1.04,5.29-1.25,9-3,1.8-.85,4.36-.73,5.5-2.5.27-.42.74-2.62,1-3,2.56-3.7,6.35-7.1,9-11,.46-.68,1.87-1.54,2-2,.29-1.06-.22-2.78,0-4,.07-.38.95-.63,1-1,.75-6.1-.97-14.17,0-20,.25-1.5.41-3.54,0-6-.53-3.18.1-5.37,1-9,.55-2.21.65-9.15,1-9.5.22-.22,3.28,1.14,2-3.5-.15-.55-1.83-1.44-2-2-.21-.72.21-2.29,0-2.5-.19-.19-1.03.26-1.5,0-.97-.54-1.97-2.27-3-3l1.5,4.5c1.95.79.68,4.54-.5,4.5-.41-.01-1.45-1.85-2-2-1.08-.3-2.83.26-4,0-.4-.09-.68-1.36-2-1-2.19.6-.64,5.16-3,4-.32-.16-2.36-2.2-2.5-2.5-1.06-2.31,2.46-.7,2-2.5-5.55-.86-3.32,1.18-4,2-.41.5-1.11-.88-1.5-1-1.12-.35-2.39.45-3.5-1.5-1.55-2.73-2.02-.92-4.5-2.5-1.85-1.18-1.37-2.87-1.5-3ZM15.54,80c-.65,0-.65,1,0,1s.65-1,0-1ZM30.04,80c-.58-.58-3,.88-3,1.5,0,.33.92.61,1,1,.16.77-.2,2.26,0,2.5.91,1.09.92-1.29,1-1.5.28-.69,2-2.5,1-3.5ZM76.54,80c-.65,0-.65,1,0,1s.65-1,0-1ZM10.04,90c1.17-1.2-2.01-5.54-.5-7,.89-1.01-1.1-2.29-2-2-2.53.8-.56,5.34-2.5,6.5,1.04,1.73.66,3.52,1,5,.13.57,2.49,2.91,2,0-2.46-2.19,1.86-2.35,2-2.5ZM12.54,82c-.65,0-.65,1,0,1s.65-1,0-1ZM57.04,84c-4.35-.84-2.51,1.42-3,2-.09.11-3.02-.57-2,1.5.15.31,2.33,2.45,2.5,2.5.72.21,2.29-.21,2.5,0,.3.3-.3,3.7,0,4,.91.92,3.95-1.48,5.5-1,.38.12.58.83,1,1,.53.22,2.29-.47,1.5,1.5-.22.56-1.77,1.88.5,2.5,1.48.41,1.76-1.97,3,0,1.24-.61,5.07-1.02,5.5-2.5,1.38-4.71-5.09-1.69-7.5-1.5-1.42-.42-1.77-4.62-4-4-.39.11-.6.88-1,1-1.53.47-2.6-.33-3.5-1.5l-1-5.5ZM68.04,85c.2.16.94-.2,1.5,0,.37.13,1.5,1.85,1.5.5,0-1.79-4.43-1.7-3-.5ZM105.04,84c-2.66-2.66-2.66,5.66,0,3,.11-.11.11-2.89,0-3ZM31.04,88c-.15-1.05-1.44-2.33-2.5-2-.86.27-2.69,3.81-2.5,4.5.11.4.91.62,1,1,.38,1.65-.61,5.73-1,7-.6,1.97,1.32,2.85,1,4-.21.77-1.89.7,0,2-.83,1.55,4.63,9.5,5.5,9.5s2.1-3.93,3.5-4.5c-.61-1.75,1.99-6.51,1-7.5-.18-.18-4.82-.18-5,0-.49.49,1.28,3.98-2,3,.48-1.22-1.7-3.2-1-4,.43-.49,1.79,1.92,2,.5-.83-2.33,1.57-2.93,2-4,.81-2.02-1.13-1.29-1.5-1.5-2.76-1.54-2.85-4.57-2.5-7.5.11-.94,1.17-.43,2-.5ZM87.04,89c.17.17.94-.2,1.5,0,.38.14,1.49,1.84,1.5.5,0-.24-2.43-4.13-3-3.5-.1.11-.11,2.89,0,3ZM82.54,87c-.65,0-.65,1,0,1s.65-1,0-1ZM155.54,87c-.65,0-.65,1,0,1s.65-1,0-1ZM95.04,89c-.76-.64-2.8.33-2,1,.76.64,2.8-.33,2-1ZM102.04,93c.36-.36.14-2.81-1-3.5-.78-.48-3.63-.87-4-.5-.11.11-.4,2.68.5,3,1.05.38,3.9,1.59,4.5,1ZM109.04,93c.94-1.13-2-3.93-2-2.5,0,.32.85.57,1,1,.1.27.1,2.57,1,1.5ZM119.04,92c.64-.76-.33-2.8-1-2-.64.76.33,2.8,1,2ZM33.04,93c.64-.76-.33-2.8-1-2-.64.76.33,2.8,1,2ZM54.04,95c-1.83-.28-4.08.19-6,0l-1-4c-3.29-.65-3.98,2.91-7.5,2-.74.41-3.37.88-3.5,1-.95.9,1.2,3.66,3.5,3,1.16-.33.84-1.76,3,1l3.5,1-3.5,1-3.5,2c3.94-.34.53,1.03,1,2.5.06.19,2.33,2.45,2.5,2.5,2.61.78,3.41-2.46,5-2,.55.16,2.16,2.77,2.5,3.5,1.07,2.3-2.47.7-2,2.5l3.5,2c1.13-.81.28-3.18.5-4.5.06-.38.92-.61,1-1,.19-.95-.24-3.26,0-3.5.31-.31,4.13.74,5-1.5-.79-2.1-.58-4.22-3-3.5.08-1.65-.87-2.18-1-4,.94.15,1.66,1.4,2,1,.78-.92-2.33-5.44-2-1ZM126.04,92c-1.09-1.09-3.09.91-2,2s3.09-.91,2-2ZM83.04,93c-1.19-1.19-3.96,1.99-3,4,1.33-.22,3.83-3.17,3-4ZM89.04,93c-2.4-2.4-2.67,4-.5,4,.11,0,1.5-1.39,1.5-1.5,0-.32-.84-.57-1-1-.2-.56.17-1.33,0-1.5ZM78.54,94c-.65,0-.65,1,0,1s.65-1,0-1ZM119.04,97c-.19-.19-1.73.16-2.5,0-.39-.08-.67-1-1-1-.27,0-2.36,1.7-5,1-.83-.22-1.95-3.05-4.5-2l8.5,8c1.09.56,1.49-.85,2-1,2.02-.61,5.68,2.84,6.5,2,.49-.5.05-4.56-1.5-5-4.48-1.29-.8-.3-2.5-2ZM135.04,98c.29.36,3.3-1.36.5-3-.74-.44-.69,2.76-.5,3ZM9.04,96c-1.03-1.03-3.39.32-.5,2,.73.42.68-1.82.5-2ZM133.04,97c-.11-.11-2.89-.11-3,0-.69.69.27,3.28,1.5,4,.85.5.27-.96.5-1.5.14-.35,1.82-1.68,1-2.5ZM8.54,100c-.65,0-.65,1,0,1s.65-1,0-1ZM106.54,100c-.65,0-.65,1,0,1s.65-1,0-1ZM59.54,102c-.65,0-.65,1,0,1s.65-1,0-1ZM80.04,105c1.27-1.27-2.63-4.92-4-1.5-.92,2.29,3.81,1.69,4,1.5ZM15.54,103c-.65,0-.65,1,0,1s.65-1,0-1ZM68.04,108l-.5-4-4.5,2.5,5,1.5ZM115.04,104c-.07-.07-1.93-.07-2,0-.34.31,2.3,3,2.5,3,1.35,0-.36-1.12-.5-1.5-.2-.56.17-1.33,0-1.5ZM106.04,105c-2.66-2.66-2.66,5.66,0,3,.11-.11.11-2.89,0-3ZM108.54,105c-.65,0-.65,1,0,1s.65-1,0-1ZM111.04,107c-.76-.64-2.8.33-2,1,.76.64,2.8-.33,2-1ZM57.54,109c-.65,0-.65,1,0,1s.65-1,0-1ZM77.54,109c-.65,0-.65,1,0,1s.65-1,0-1ZM110.54,109c-.65,0-.65,1,0,1s.65-1,0-1ZM41.04,113c.5-.41-1-1.25-1-1.5,0-.16,1.85-1.5.5-1.5-1.9,0-1.98,5.03.5,3ZM64.54,111c-.65,0-.65,1,0,1s.65-1,0-1ZM67.04,113c.64-.76-.33-2.8-1-2-.64.76.33,2.8,1,2ZM5.54,112c-.65,0-.65,1,0,1s.65-1,0-1ZM38.04,113c-.76-.64-2.8.33-2,1,.76.64,2.8-.33,2-1ZM39.54,115c-1.42,0,1.5,2.92,1.5,1.5,0-.11-1.39-1.5-1.5-1.5ZM86.54,115c-.65,0-.65,1,0,1s.65-1,0-1ZM104.04,118c.49-.4-.81-1.07-1-1.5-.23-.53.17-1.29,0-1.5-1.3-1.55-1.73,5.24,1,3ZM14.04,120c.29.36,3.3-1.36.5-3-.74-.44-.69,2.76-.5,3ZM40.04,119c-.14-.14-3.86-.14-4,0-.15.15-.2,2.83-2,3.5.41.73.88,3.36,1,3.5,1.14,1.32,3.45-1.06,1-2.5,1.29-.52.89-2.4,1-2.5.77-.75,2.76,1.28,3,1,.1-.11.11-2.89,0-3ZM63.54,119c-.65,0-.65,1,0,1s.65-1,0-1ZM8.54,120c-.65,0-.65,1,0,1s.65-1,0-1ZM24.04,123c.64-.76-.33-2.8-1-2-.64.76.33,2.8,1,2ZM64.54,121c-.65,0-.65,1,0,1s.65-1,0-1ZM111.54,121c-.65,0-.65,1,0,1s.65-1,0-1ZM28.54,128c-.65,0-.65,1,0,1s.65-1,0-1ZM40.04,128c-.56-.56-2.78.69-3,1.5-.18.69-.19,4.32,0,5,.14.51,1.63,1.31,2,2,.61,1.14,1.14,4.1,2.5,4.5.72.21,2.29-.21,2.5,0,.54.54-1.21.49,1.5,2,.93.52,2.34,2.82,3,3,2.01.55,4.15-1.33,3.5,2,1.03.12,2.07-2,2.5-2,.39,0,3.13,3.4,4,4l-.5-5c-3.11,1.36-4.97-3.56-6.5-4-.62-.18-1.38.18-2,0-.87-.25-3.12-3.74-4-4-.72-.21-2.23.22-2.5,0-.5-.41,1-1.25,1-1.5,0-.17-1.57-1-1-3,.12-.42.99-.67,1-1,0-.47-2.73-1.71-2-3.5l-1,2c-1.79.39-.71-1.71-1-2ZM18.04,132c-.25-.31-1.89,1.1-2,1.5-.17.61.17,1.37,0,2-.08.28-1.84,1.5-.5,1.5.83,0,3.49-3.77,2.5-5ZM48.04,135c-.76-.64-2.8.33-2,1,.76.64,2.8-.33,2-1ZM106.04,137c-1.09-1.09-3.09.91-2,2s3.09-.91,2-2ZM63.04,158c.64-.76-.33-2.8-1-2-.64.76.33,2.8,1,2ZM54.54,158c-.65,0-.65,1,0,1s.65-1,0-1ZM74.54,167c-.65,0-.65,1,0,1s.65-1,0-1ZM14.54,173c-.65,0-.65,1,0,1s.65-1,0-1ZM111.54,173c-.65,0-.65,1,0,1s.65-1,0-1Z"/>
      <path d="M3.04,123c-1.9.29-3.29-1.1-3-3l3,3Z"/>
      <path d="M9.04,36c.36.29-1.36,3.3-3,.5-.44-.74,2.76-.69,3-.5Z"/>
      <path d="M4.04,134c1.09,1.09-.91,3.09-2,2s.91-3.09,2-2Z"/>
      <path d="M107.04,187c-.67.8-1.64-1.24-1-2,.67-.8,1.64,1.24,1,2Z"/>
      <path d="M2.54,97c.65,0,.65,1,0,1s-.65-1,0-1Z"/>
      <path d="M2.54,59c.65,0,.65,1,0,1s-.65-1,0-1Z"/>
      <path d="M71.54,183c.65,0,.65,1,0,1s-.65-1,0-1Z"/>
      <path d="M71.04,141c-.73,2.15,2.7,3.43,3,4.5.61,2.18-.96,3.57-1,5.5-1.45.14-2.44.39-2-1.5.27-1.16,2.01.13,2-1-2.39-2.5-4.45-3.21-4-7,.11-.94,1.17-.43,2-.5Z"/>
      <path d="M120.54,146c1.88,0,1.88,5,0,5s-1.88-5,0-5Z"/>
      <path d="M65.04,136c-.72.58-7.26.26-5-2,1.09-1.09,6.07,1.14,5,2Z"/>
      <path d="M97.04,113c.18.18-.23.97,0,1.5.19.43,1.48,1.1,1,1.5-1.18.97-4.97-2.82-4-4,.4-.48,1.07.81,1.5,1,.53.23,1.32-.18,1.5,0Z"/>
      <path d="M144.04,102c.29.29.62,3.85-1.5,3-3.05-1.22.51-3.99,1.5-3Z"/>
      <path d="M66.04,137c1.66,2.02-.97,1.76-1.5,2-.43.19-1.1,1.48-1.5,1-.1-.12-.1-2.88,0-3,.41-.5,1.25,1,1.5,1s1.09-1.5,1.5-1Z"/>
      <path d="M117.04,149c-1.08.87-4.63-.37-3-2,.83-.83,3.57,1.54,3,2Z"/>
      <path d="M111.04,149c-.42.52-2.81-2-2-3,.42-.52,2.81,2,2,3Z"/>
      <path d="M63.04,127c1.09,1.09-.91,3.09-2,2s.91-3.09,2-2Z"/>
      <path d="M100.04,134c.07.07.07,1.92,0,2-.41.5-1.25-1-1.5-1-.2,0-2.58,2.51-2.5,0,1.2.45,3.32-1.7,4-1Z"/>
      <path d="M93.04,109c.8.67-1.24,1.64-2,1-.8-.67,1.24-1.64,2-1Z"/>
      <path d="M141.04,124c.8.67-1.24,1.64-2,1-.8-.67,1.24-1.64,2-1Z"/>
      <path d="M121.04,145c-.67.8-1.64-1.24-1-2,.67-.8,1.64,1.24,1,2Z"/>
      <path d="M121.04,152c.8.67-1.24,1.64-2,1-.8-.67,1.24-1.64,2-1Z"/>
      <path d="M119.54,121c.65,0,.65,1,0,1s-.65-1,0-1Z"/>
      <path d="M71.54,124c.65,0,.65,1,0,1s-.65-1,0-1Z"/>
      <path d="M128.54,126c.65,0,.65,1,0,1s-.65-1,0-1Z"/>
      <path d="M54.54,133c.65,0,.65,1,0,1s-.65-1,0-1Z"/>
      <path d="M72.54,135c.65,0,.65,1,0,1s-.65-1,0-1Z"/>
      <path d="M124.04,57c-.46.51-.83-1.23-2-.5-.99.61-1.68,2.33-3,2.5-.06-.51.2-1.15,0-1.5-.68-1.2-4.34-4.72-4-6,.83-3.06,3.1.4,3.5.5.87.22,2.16-.23,3,0,.89.24,3.02,4.42,2.5,5Z"/>
      <path d="M110.04,41l.5-4c.88.67,1.64,1.96,2.5,2.5,1.34.84,2.98.17,4,2l-7-.5Z"/>
      <path d="M125.04,42c1.35,1.17.12,1.92-1.5,2-1.49.07-3.01-.05-4.5,0l2.5-3c.73.41,3.36.88,3.5,1Z"/>
      <path d="M137.04,44c-1.74,1.74-3.49-2.25-.5-4,.76-.44.66,3.84.5,4Z"/>
      <path d="M127.54,58c.65,0,.65,1,0,1s-.65-1,0-1Z"/>
      <path d="M138.54,36c.65,0,.65,1,0,1s-.65-1,0-1Z"/>
      <path d="M56.04,73c1.09,1.09-.91,3.09-2,2s.91-3.09,2-2Z"/>
      <path d="M34.04,110c-2.88.36-1.59-.37-2-1.5-.14-.38-1.85-1.5-.5-1.5.2,0,2.43,2.21,2.5,3Z"/>
    </g>
  </g>
</svg>