<?xml version="1.0" encoding="UTF-8"?>
<svg xmlns="http://www.w3.org/2000/svg" version="1.1" viewBox="0 0 1024 1024">
  <!-- Generator: Adobe Illustrator 29.7.1, SVG Export Plug-In . SVG Version: 2.1.1 Build 8)  -->
  <defs>
    <style>
      .st0 {
        fill: #131051;
      }
    </style>
  </defs>
  <g id="Sparks">
    <g id="Sparks1" data-name="Sparks">
      <path class="st0" d="M282.05,614.83c26.78,27.82,44.1,62.48,62.16,96.06,4.27,7.28,16.41,4.3,16.1-4.36-17.1-80.48-.29-156.51,74.61-200.47,9.29-2.84,55.98-6.97,39.67-23.08-25.05-7.47-52.18,13.42-77.84,8.86-16.67-9.87-39.18-8.68-52.92-23.07-2.75-6.8-9.67-9.78-14.9-14.32-4.89-6.38-14.1-16.6-17.96-21.83-1.01-15.21-11.13-27.42-16.06-41.37-3.38-9.57-4.62-20.04-6.3-30.02-14.06-13.39-2.46,64.97-.22,69.9-.58,9.77,4.35,17.89,10.31,25.22,14.4,27.17,46.04,31.99,72.54,40.12,11.5,3.26,21.2,11.86,33.46,12.29-57.06,39.31-77.87,95.08-69.75,162.88-17.83-28.09-35.27-58.9-61.62-79.79-29.95-16.18-69.55-30.23-103.84-25.41,11.46-7.17,25.68-7.96,35.85-17.56,19.3-17.35,40.14-36.98,47.57-62.57,20.38-48.41,35.7-104.84,25.41-157.25-30.57-29.3-.67,119.08-42.42,149.89-21.52,17.83-31.9,47.21-56.14,61.82-13.03,6.6-21.98,18.22-31.62,28.91-10.04,3.28-28.76-1.35-29.93,13.14,0,5.24,4.78,10.91,10.4,10.4,19.37-1.74,38.28-7.09,57.72-8.1,27.15,1.2,76.26,10.39,95.7,29.72ZM311.13,433.26c-.99-1.15-.23-.7,0,0h0Z"/>
      <path class="st0" d="M882.82,664.37c-42.6-16.1-86.05-60.69-74.36-109.51,1.08-10.63,13.42-39.75,1.24-45.32-4.6-1.75-8.28,2.88-11.87,5.85-3.3-2.05-5.2,3.48-3.07,5.67-26.24,32.75-56.21,77.27-104.22,69.82-16.97-1.43-33.94-4.86-50.74-7.55-2.98-.48-4.33,3.81-1.28,4.64,4.89,1.33,9.68,2.92,14.46,4.56,3.83,6.67,9.21,12.79,13.36,19.43,5.11,5.47,11.6,9.21,16.18,15.29,8.94,13.55,18.45,26.62,27.6,40.04,14.21,19.78,4.8,26.43.63,46.23-3.29,17.91-7.75,35.58-11.28,53.44-.93,4.7,5.42,9.97,9.07,5.28,19.14-30.34,39.02-62.21,68.08-84.03,2.47,3.38,5.75-1.48,7.73-3.21,1.86-1.86,2.37-1.75,4.94-1.86,16.76-1.66,32.47-9.85,49.14-11.79,12.55-2.33,17.97,4.21,28.58,8.23,6.73.32,12.04,4.93,18.7,5.42,11.76-1.68,5.82-18.26-2.9-20.61ZM742.32,708.86c-6.48,8.46-12.34,17.21-19.14,25.39,8.48-18.52,10.39-29.06,6.47-49.04.74-13.44-1.65-27.91-9.9-38.93-9.04-9.95-16.37-21.4-26.09-30.64-7.38-7.47-19.21-8.16-24.64-17.73,51.81,20.98,103.99-14.87,135.25-54.61-14.29,45.81-9.62,74.2,24.29,109.48-29.67-.83-19.91,5.49-40.11,17.91-17.98,8.85-33.41,22.79-46.13,38.17Z"/>
      <path class="st0" d="M596.03,408.47c12.86,19.26,20.23-8.35,25.78-18.01,7.52-11.85,10.78-25.39,14.97-38.51,18.03-36.02,63.26-28.09,96.41-29.3,7.17-3.55-1.86-10.21-6.42-10.58-1.96-4.62-8.29-6.77-12.03-9.68-8.4-6.54-15.08-14.87-23.24-21.65-7.04-5.85-15.24-11.23-20.46-18.91-6.26-10.2-6.53-22.78-10.91-33.63-3.28-5.67-.26-11.22,1.38-17.11.65-4.39,4.53-20.91-.89-21.7-2.09-1.35-5.21-1.17-6.98,1.43-10.99,13.78-16.68,30.91-26.86,45.06-8.95,9.47-18.09,18.69-27.72,27.47-8.36,9.87-22.32,11.53-34.27,13.4-7.4-6.26-16.91-7.93-25.96-10.42-7.02-2.03-10,8.85-3.01,10.93,3.72,1.45,8.73,1.36,11.91,3.91,15.62,5.17,24.69,19.68,36,30.71,6.02,6.48,3.98,16.29,7.53,24.05,1.71,4.83,1.97,8.88,2.38,13.92.41,4.97,2.56,9.35,2.32,14.37-.09,1.91.94,3.07,2.28,3.52.51,9.37-3.44,19.65-1.09,28.58-1.93,3.72-2.68,7.84-1.11,12.15ZM583.35,293.14c-2.59-2.82-5.28-5.47-8.11-7.98,19.99-2.73,27.2-12.39,40.8-25.12,9.65-9.81,20.78-18.63,27.39-30.94,3.38-6.13,6.65-11.79,11.06-17.24-2.25,5.94-5.37,12.45-3.27,18.87-3.84,44.27,21.16,53.47,48.15,80.86-28.72.72-60.63,11.86-76.59,36.9-4,9.43-7.26,18.93-13.7,27.15-.41-.66-1.37-1.13-2.32-.95-.64-10.55,5.91-21.31.84-31.14-6.55-23.7-1.12-35.15-24.25-50.42Z"/>
    </g>
  </g>
  <g id="Circles">
    <g id="Circles1" data-name="Circles">
      <path class="st0" d="M486.34,702.56c-10.77,43.9,40.27,63.36,69.01,31.95,14.82-11.73,2.34-29.36-.72-43.85-9.05-19.31-33.54-15.35-50.61-11.64-3.15.52-4.1,3.12-3.51,5.52-8.6,1.74-11.92,10.53-14.17,18.02ZM497.07,710.22c1.11-9.53,4.32-21.14,15.77-21.67.93-.18,1.51-.79,1.78-1.54,17.18-6.51,34.07-2.87,35.62,17.97.78,5.02,3.02,11.94-.8,16.19-14.59,14.15-52.04,15.31-52.38-10.95Z"/>
      <path class="st0" d="M429.06,280.6c-2.52.44-3.63,2.21-3.67,4.13-23.24,13.97-2.19,53.53,24.16,41.09,16.12-8.77,20.44-15.82,12.28-32.92-3.55-15.69-20.14-14.48-32.77-12.3ZM454.43,304.35c-8.38,8.24-33.27,5.83-24.56-10.34,1.84-5.87,9.62-5.14,14.51-6.87,8.42-1.06,12.41,10.72,10.05,17.2Z"/>
    </g>
  </g>
  <g id="Dots">
    <g id="Dots1" data-name="Dots">
      <path class="st0" d="M790.6,414.4c-13.58,6.83-1.57,25.61,10.91,18.45,12.34-6.89,1.16-26.19-10.91-18.45Z"/>
      <path class="st0" d="M276.67,760.79c5.3-8.89,1.83-23.86-10.82-18.53-2.71-1.15-4.95-1.27-7.49.88-14.26,11.11,8.55,33.14,18.31,17.65Z"/>
    </g>
  </g>
</svg>