<?xml version="1.0" encoding="UTF-8"?>
<svg id="Arrow" xmlns="http://www.w3.org/2000/svg" version="1.1" viewBox="0 0 1024 1024">
  <!-- Generator: Adobe Illustrator 29.7.1, SVG Export Plug-In . SVG Version: 2.1.1 Build 8)  -->
  <defs>
    <style>
      .st0 {
        fill: #131051;
      }
    </style>
  </defs>
  <path id="Arrow1" data-name="Arrow" class="st0" d="M878.31,384.25c-15.07-9.24-33.42-10.16-50.03-15.3-3.08-.22-7.05-1.58-9.69-3.83-14.89-10.32-33.93-8.59-51.15-9.76-22.42-3.45-33.44-21.64-57.33-22.3-13.68-1.47-61.04-10.4-92.61-14.98-27.53-5.14-54.92-7.1-85.27,2.14-4.13-1.02-8.85,3.83-6,7.8,3.83,5.34,7.51,6.38,13.92,6.82,55.88,7.48,133.03,40.3,180.47,47.18,6.23.93,13.18,1.74,18.51,5.77,14.03,9.16,29.71,14.06,46.02,17.32-1.08.13-2.15.24-3.22.28.06,0,.1,0,.16,0-40.85,4.83-97.29,6.68-140.28,28.66-10.67,4.37-21.52,8.17-32.63,11.27-11.79,3.29-24.2,2.31-35.8,6.85-75.1,34.12-164.51,26.2-236.91,65.7.15-.04.31-.07.47-.11-60.19,21.18-146.78,50.12-187.72,100.08,1.97-2.5-4.71,4.87-5.88,5.21.66-.45-2.92,1.62-1.65,1.01-30.93,18.95,5.73,62.12,51.79,13.92.2-.9,2.99-2.1,3.63-3.16-.4.44-.75.8-1.07,1.13,8.84-5.8,18.53-9.88,28.48-13.35,21.36-8.25,41.11-19.81,61.87-29.37,31.58-13.95,68.4-19.77,92.89-46.14,58.89-27.49,121.75-46.48,184-65.02,10.73-4.58,21.52-9.33,33.46-8.67,53.96-2.71,106.03-22.24,160.5-20.55-19.04,17.35-134.31,101.41-109.14,124.83,14.08,17.58,33.03-1.69,47.7-8.3,36.27-18.66,61.58-52.67,93.8-77.03,10.14-8.63,53.49-34.67,72.61-51.43,9.66-9.48,23.94-3.32,29.46-22.54,3.23-13.79-1.3-26.16-13.35-34.11ZM767.55,355.39c.1.01.19.02.31.04,2.28.78,1,.38-.31-.04ZM821.31,367.44c-.58-.23-1.08-.49-1.43-.81.02.02.69.4,1.43.81Z"/>
</svg>