<?xml version="1.0" encoding="UTF-8"?>
<svg id="Arrows" xmlns="http://www.w3.org/2000/svg" version="1.1" viewBox="0 0 1024 1024">
  <!-- Generator: Adobe Illustrator 29.7.1, SVG Export Plug-In . SVG Version: 2.1.1 Build 8)  -->
  <defs>
    <style>
      .st0 {
        fill: #131051;
      }
    </style>
  </defs>
  <path id="Arrow_2" class="st0" d="M740.51,675.35c-38.1-11.76-146.31,11.85-184.21,27.65-3.05-6.15-11.07-5.94-16.87-5.58-34.92-2.56-3.71,27.79,12.85,19.77,35.11-16.51,78.31-.16,116.34-4.23,14.24-.26,28.82,2.72,43.12,3.42-1.51,4.33-2.77,8.69-3.86,13.08-2.88-5.06-9.82-8.73-16.92-5.14-5.63.32-10.19,3.58-14.36,6.99-11.87,4.54-20.52,14.28-31.92,19.38-13.87,3.37-25.72,11.97-39.56,15.07-7.58.84-15.48-.07-23,1.65-12.79,2.57-22.63,10.48-34.41,15.29-29.3,10.53-62.99,11.78-93.43,5-17.06-5.24-34.83-7.76-51.76-13.36-19.93-8.92-41.49-12.84-61.35-21.92-1.68-.77-7.36-4.18-.7-.22-48.07-24.05-81.93-66.99-109.03-112.05-21.74-35.21-28.27-83.78-17.44-122.51,1.11-1.18,1.38-1.72,2.46-3.17,4.24-4.31,12.01-8.74,12.92-15.74.19-5.32-5-5.96-9.16-6.39-7.52.54-13.64,9.69-10.8,16.86-18.18,3.74-14.92,44.5-17.62,59.59-6.61,45.36,18.83,79.59,31.97,120.87,2.56,7.96,6.84,13.68,13.35,19.26,5.07,4.08,5.5,11.54,8.93,16.71,50.3,87.67,199.17,130.65,293.21,114.17,20.95-4.02,39.67-14.05,56.73-26.02,18.03-3.75,35.48-9.11,49.67-21.21,16.25-8.41,31.12-18.11,42-33.07.19-.1,2.26-2.14,2.22-2.1,4.56-4.29,9.13-8.9,11.7-14.71,1.52-.42,2.78-.98,3.82-1.64-2.33,12.91-3.45,26.05-4.47,39.38-7.04,22.19-17.98,47.42-23.48,71.57-1.38,7.1-1.57,8.07-.59,2.93-17.31,40.55,27.05,49.16,45.1,16.2,9.46-18.35,15-38.68,22.28-57.99,7.42-22.29,6.54-45.92,9.73-68.99,6.77-24.15,16.67-54.62-13.48-68.78ZM541.11,697.46s0,0,0,0c-.54.05-.55.05,0,0ZM591.92,815.92c.23-.17.46-.34.69-.51,3.06-2.27.46-.2-.69.51ZM594.62,814.09c.34-.35,1.01-.59,1.77-.77-.81.33-1.74.74-1.77.77Z"/>
  <path id="Arrow_1" class="st0" d="M812.06,425.97c-9.45-23.65-15.82-48.55-26.19-71.94-24.27-42.45-58.43-79.95-101.11-104.84-130.77-116.91-340.17-38.25-417.92,98.12,4.3-19.29,7.05-38.67,4.37-58.59-.38-17.7,2.82-35.04,5.49-52.4,2.71-16.1,1.83-33.11,7.69-48.45,2.17-5.03-5.53-8.47-8.5-4.27-16.54,23.58-25.68,89.78-24.02,119.57-.35,22.85-10.5,43.93-9.59,67.02-1.29,4.77-5.86,8.16-6.95,13.31-2.95,10.75,3.83,22.95,15.93,23.76,14.1,1.29,29.63-7.92,37.21-7.4,15.61.6,29.42-5.02,43.87-9.72,30.31-5.25,61.22-8.15,91.66-11.95,29.72,7.21,41.52-32.57,13.55-44.58-15.74-7.16-32.61.35-48.72.96-20.39,1.07-39.95,6.89-59.89,10.45,37.45-44.18,87.19-95.07,150.32-92.83,56.75-3.4,117.81-12.47,170.65,13.88,15.03,8.52,30.8,15.88,44.58,26.43,10.37,8,17.94,20.99,28.68,29.12,5.58,4.41,11.83,7.81,17.32,12.38,19.13,34.34,33.87,71.3,52.26,106.11,4.57,18.49,10.18,37.93,10.16,57-.17,14.03-3.62,27.7-3.13,41.78,1.65,19.24,2.59,39.03-6.04,56.64-1.68,4.24-5.76,5.13-8.39,8.72-2.05,2.8-2.43,5.25-4.77,7.46-12.12,8.9-4.39,29.57,9,20.48,5.19-5.74,11.45-11.19,11.3-19.56,6.15-6.25,5.71-14.94,6.21-23.15,7.81-15.27,9.59-32.15,8.88-49.21.39-14.6,4.78-28.66,5.42-43.22-.75-23.73-4.14-47.88-9.33-71.06ZM335.7,336.63c-.88.99-1.84,2.01,0,0h0Z"/>
</svg>