<?xml version="1.0" encoding="UTF-8"?>
<svg id="Line" xmlns="http://www.w3.org/2000/svg" version="1.1" viewBox="0 0 1024 1024">
  <!-- Generator: Adobe Illustrator 29.7.1, SVG Export Plug-In . SVG Version: 2.1.1 Build 8)  -->
  <defs>
    <style>
      .st0 {
        fill: #131051;
      }
    </style>
  </defs>
  <path id="Line1" data-name="Line" class="st0" d="M907.69,516.05c-6.05,1.69-11.96,3.82-17.75,6.25-3.17-17.18-30.22-2.87-41.96-3.18,3.96-3.42,7.92-6.86,12.04-10.09,4.88-3.83,5.45-12.09,3.27-17.25-5.52-13.27-21.94-10.64-31.76-4.03-36.07,25.15-78.29,36.23-119.76,49.37,27.05-15.96,54.28-31.64,80.57-48.83,18.04-8.56,18.29-34.23-.98-41.42-47.61-9.89-128.67,21.74-175.93,36.89-33.54,14.28-70.16,24.85-98.7,48.28-4.82,4.34-11.19,6.39-17.27,8.39-17.11,5.61-33.9,12.2-51.2,17.22,36.72-29.03,76.44-53.74,115.4-79.55,14.28-11.15,36.42-17.99,37.76-38.87.78-12.3-12.9-21.98-24.27-18.49-125.43,39.2-239.91,105.34-360.19,156.9,20.13-25.06,41.05-53.33,60.49-80.46-.08.11-1.02,1.33-.31.38,4.39-5.68,8.61-11.53,11.39-18.19,6.43-11.46.85-31.12-15.06-26.01-12.12,3.06-23.26,9.14-35.69,11.34-62.06,17.92-116.79,55.71-170.09,91.22-4.69,3.4-.35,11.23,4.62,7.91,61.12-39.55,125.88-74.65,197.36-90.25-18.86,34.76-106.11,93.08-81.08,132.22,18.89,14.51,112.27-34.89,138.45-42.55-.49.2,4.24-1.61,4-1.59,37.64-13.17,73.21-31.4,109.93-46.86-23.18,17.77-47.53,34.37-65.45,57.79-16.15,58.41,91.28,21.68,117.1,11.78,18.91-6.58,39.44-11.28,53.9-25.96,45.6-26.1,96.17-42.8,146.58-57.02-24.81,17.44-128.16,68.02-116.76,101.34,2.94,9.92,13.59,16.53,23.79,13.51,58.56-22.28,111.66-43.1,167.46-61.46-2.56,2.92-5,5.85-7.35,8.96.06-.09.1-.16.16-.24-9.14,7.51-8.09,25.8,6.28,25.62,6.73-.31,12.51-3.86,17.84-7.68,31.46-23.09,30.87-33.06,72.16-41.22-5.29,3.98-9.48,8.8-14.38,13.17-6.45,5.76-2.56,15.9,4.83,18.3,24.01,5.92,48.5-28.17,66.63-41.27,7.59-4.56,2.6-16.79-6.06-14.38Z"/>
</svg>