<?xml version="1.0" encoding="UTF-8"?>
<svg id="Wiggle" xmlns="http://www.w3.org/2000/svg" version="1.1" viewBox="0 0 1024 1024">
  <!-- Generator: Adobe Illustrator 29.7.1, SVG Export Plug-In . SVG Version: 2.1.1 Build 8)  -->
  <defs>
    <style>
      .st0 {
        fill: #131051;
      }
    </style>
  </defs>
  <path id="Wiggle1" data-name="Wiggle" class="st0" d="M158.53,633.85c15.24,8.02,32.91,13.81,49.68,17.69,16.84,4.79,35.2,1.65,49.21,13.35-33.51,54.41,1.24,94.51,61.12,88.56,2.49,15.72,9.43,30.21,15.26,44.67-2.01,15.56,11.86,25.1,22.96,33.02,15.56,15.77,34.54,27.48,56.87,30.21,29.13,6.52,58.67.09,81.06-19.91,25.26-12.25,48.72-28.82,69-48.35,19.33,14.74,30.99,39.3,59.3,34.49,16.45.37,30.24-6.99,36.52-22.65,20.27-28.78,34.12-45.93,31.65-83.64,89.26,23.59,119.97-24.9,81.13-104.3,15.12-4.32,27.58-13.52,40.49-22.02,7.32-4.4,14.51-8.85,19.98-15.56,24.42-24.53,19.72-57.8-10.17-75.01,28.6-28.46,33.16-63.72,14.65-99.29-1.5-6.45-5.08-11.71-10.16-15.86-8.4-7.47-15.44-17.13-24.51-23.74-10.29-5.01-21.88-7.83-32.46-12.27-8.04-4.17-16.78-3.75-25.54-3.24-14.79-34.95-33.35-67.93-61.58-93.3-30.55-20.39-67.63-41.55-105.49-31.49-20.13,7.8-28.58,4.81-48.28-.47-59.44-65.08-147.66-69.3-171.93,28.13-4.81,4.01-4.56,8.46-3.23,13.39-1.78,8.58-3.41,17.22-4.55,25.96-65.06-15.81-123.97,16.79-88.1,87.83-36.99,28.44-63.52,83.31-39.51,127.45-55.8,19.74-143.81,72.95-63.37,126.34ZM253.54,481.12c-1.76-6.33,6.53-7.78,10.63-10.43,5.26,11.07,26.64,12.55,37.76,15.74-16.26,2.21-32.34,5.45-48.09,10.17-.55-4.16.03-10.52-.3-15.47ZM358.7,315.87c-.02-.96-.03-1.92-.03-2.89,3.69.97,7.36,2.03,11.02,3.15-3.6,1.77-7.17,3.58-10.72,5.44-.13-1.9-.22-3.8-.27-5.71ZM549.3,764.01c-2.12-2.91-3.95-6.07-4.87-9.54,29.4-15.37,54.14-39.07,68.1-69.3,3.19,1.77,6.4,3.52,9.61,5.25-21.35,27.39-46.29,51.39-72.85,73.59ZM396.28,761.34c-5.05-2.16-8.26-5.03-10.56-10.04,41.3.73,78.42-21.86,112.61-42.61,8.47,9.27,17.82,17.75,25.74,27.5-47.68,26.58-74.36,30.53-127.79,25.14ZM336.72,458.67c-4.01-4.12-7.91-8.36-11.71-12.69,12.47-5.8,24.77-11.96,37.02-18.18,3.19,7.94,6.97,15.56,10.96,23.16-9.86,4.46-19.4,9.59-28.69,15.19-2.57-2.44-5.1-4.92-7.58-7.47ZM299.27,413.27c19.12-14.48,37.5-30.13,56.9-44.18.54,13.02-3.53,26.54.1,39.67-15.44,6.39-30.67,13.25-46.31,18.9-3.66-4.73-7.22-9.53-10.69-14.4ZM498.08,691.95c-1.73-2.06-3.44-4.14-5.11-6.25,17.44-10.98,34-23.23,49.62-36.84,3.48.19,7.73-1.87,10.74,0-17.43,15.62-35.87,30.14-55.25,43.09ZM278.9,528.33c26.15-26.65,36.91-22.13,70.85-30.14-6.88,16.27-12.5,33.13-17.04,50.21-13.21-4.01-26.41-10.76-40.49-10.85-4.66-2.71-9.1-5.88-13.32-9.22ZM412.32,331.98c2.63,1.11,5.24,2.25,7.85,3.4-11.2,3.84-22,8.81-33.14,12.8,3.63-13.29,10.44-25.53,25.3-16.2ZM584.74,328.29c.7,1.3,1.42,2.58,2.16,3.86-24.76,8.87-49,19.75-71.99,32.54-14.24-9.36-28.82-18.19-43.82-26.24,21.29-19.4,84.06-10.32,113.65-10.16ZM587.03,315.81c-7.7-12.54-15.88-24.76-24.41-36.73,32.14,2.87,56.57,27,79.77,46.35-.37-.26,2,1.68,2.99,2.51-18.57-4.06-37.38-6.83-56.32-8.75-.67-1.13-1.34-2.26-2.03-3.38ZM727.74,402.81c2.92,26.73-.36,53.75-6.24,79.77-7.91-.69-15.82-1.31-23.73-1.86,12.65-24.74,25.62-50.19,29.98-77.92ZM419.94,689.61c-12.54,5.16-25.04,10.37-37.72,15.27,1.61-8.89,4.3-17.62,7.72-26,1.49-3.65-.45-7.96-3.41-10.42,10.08-3.13,20-6.86,29.76-10.9,14.23-.67,28.46-1.5,42.68-2.42,2.46,4.08,4.98,8.13,7.58,12.12-15.14,8.29-30.72,15.6-46.61,22.36ZM379.57,385.02c.45-8.41,1.86-16.83,3.95-25.05,16.84-5.63,32.9-13.34,49.9-18.45,3.68,1.77,7.33,3.58,10.97,5.44-11.26,14.09-21.69,28.82-31.83,43.8-10.96,2.05-21.73,4.99-32.24,8.72-.75-4.63-1.02-9.4-.75-14.46ZM658.37,340.76c5.08,5.43,9.58,11.46,13.15,18.03-2.57.59-5.14,1.18-7.71,1.77-6.35-9.5-14.54-18.13-24.24-24.11,6.29,1.33,12.56,2.77,18.81,4.31ZM388.25,422.54c-1.1-2.15-2.1-4.28-3-6.41,4.89-2.33,9.84-4.53,14.89-6.48-3.44,5.35-6.84,10.73-10.2,16.12-.56-1.08-1.13-2.15-1.68-3.23ZM447.01,394.83c11.4-3,23.09-4.31,34.77-5.64-48.99,47.41-16.43,31.3-83.41,51.78,8.28-13.22,16.73-26.35,25.39-39.3,7.72-2.46,15.49-4.8,23.24-6.84ZM552.38,420.4c6.05,5.18,12.03,10.44,17.94,15.78-10.48-3.74-21.12-7.01-31.99-9.6,4.62-2.18,9.33-4.24,14.05-6.18ZM621.17,347.38c9.87,2.82,17.72,9.68,24.17,17.48-7.19,1.77-14.33,3.73-21.42,5.83-4.42-8.74-9.64-17.13-15.98-24.68,4.39-.26,8.81.11,13.22,1.37ZM419.68,536.22c19.82,7.14,29.78,26.23,44.82,39.94-12.61-1.91-25.22-3.98-37.8-6.23-4.67-10.47-9.11-21.05-13.31-31.72,2.1-.67,4.19-1.34,6.29-1.99ZM548.68,581.15c6.29-6.43,16.18.11,24.16.15-.26.27-.52.53-.78.8-6.65-1.98-15.23-1.86-23.37-.95ZM520.08,582.85c-8.61-.28-13.76-9.81-20.5-14.57,10.47,2.63,21.17,4.5,31.88,6.21-3.76,2.84-7.55,5.62-11.38,8.37ZM585.72,563.72c3.76-2.34,7.25-4.7,10.25-6.7-2.21,2.4-4.44,4.79-6.68,7.17-1.19-.15-2.38-.31-3.57-.46ZM585.8,528.49c-11.07,10.41-22.49,20.47-34.23,30.13-26.68-4.01-53.62-7.26-78.94-17.1-4.95-5.33-9.79-10.78-14.48-16.26,49.93-12.98,101.05-20.95,152.65-21.96-7.98,8.75-16.4,17.11-25,25.19ZM403.76,541.4c3.49,8.84,7.14,17.61,10.94,26.33-8.82-1.67-17.62-3.43-26.39-5.3,4.68-7.44,5.51-19.48,15.45-21.03ZM476.75,598.52c-10.68,3.04-21.39,6.11-32.18,8.79-2.48-4.86-4.92-9.74-7.3-14.65,13.13,2.18,26.3,4.16,39.48,5.86ZM615.47,479.21c-57.88,2.17-115.23,13.17-170.62,29.89-4.24-5.34-8.2-10.5-12.03-15.71,4.68-3.9,9.43-7.71,14.25-11.43,53.26-5.41,106.66-9.19,160.15-10.96,2.77,2.72,5.52,5.46,8.26,8.21ZM425.09,590.58c3.02,6.4,6.12,12.77,9.29,19.1-23.31,5.13-45.83,7.97-69.77,10.45,4.62-12.89,9.62-25.65,15-38.25,15.09,3.08,30.25,6.02,45.47,8.69ZM625.78,565.94c-.67.02-1.33.04-2,.05,11.82-13.8,23.18-27.95,33.58-42.84.14.15.27.3.41.44-8.9,14.44-18.35,28.55-28.41,42.14-1.21-.13-2.42-.07-3.58.2ZM688.85,379.02c.16.11.32.21.48.32-5.68,20.08-10.18,40.88-17.87,60.22,7.06-18.2,9.1-38.63,3.01-57.15,4.79-1.13,9.59-2.26,14.38-3.39ZM661.05,399.38c1.47,12.35-1.24,24.94-5.93,36.91-6.44-14.88-14.01-29.22-20.96-43.85,7.75-2.54,15.73-4.38,23.71-6.18,1.55,4.24,2.64,8.64,3.18,13.12ZM623.82,395.8c8.3,18.37,17.17,36.51,24.43,55.34-2.08,3.93-4.28,7.74-6.52,11.4-2.09-.05-4.18-.1-6.27-.15-18.41-17.82-37.04-35.51-56.91-51.75,14.99-5.11,30.19-9.91,45.27-14.84ZM528.44,431.31c24.72,6.89,52.51,10.4,69.69,30.86-43.69.33-87.32,2.59-131.01,5.14,19.46-13.45,40.1-25.48,61.32-36ZM415.07,468.11c-4.39-6.63-8.64-13.36-12.72-20.18,12.05-4.58,24.23-8.28,36.64-11.63-8.24,10.46-16.27,20.93-23.92,31.81ZM387.69,496.75c-.68.63-1.37,1.26-2.05,1.89-3-1.97-5.96-3.98-8.89-6.05,3.01-.6,6.01-1.19,9.02-1.76.63,1.98,1.27,3.95,1.91,5.92ZM584.43,608.67c3.66-5.53,8.76-6.07,14.96-6.09-3.3,5.76-9.01,5.55-14.96,6.09ZM674.24,545.79c.66,4.38,1.24,8.74,1.64,13.1-9.38,2.37-18.9,4.25-28.51,5.43,6.94-9.86,13.6-19.93,19.99-30.17,3.14,3.56,7.04,6.49,6.87,11.65ZM597.62,347.66c6.46,8.04,11.92,16.84,16.31,26.06-19.41,6.17-39.1,12.12-58.15,19.26-7.6-5.62-15.31-11.09-23.1-16.42,20.94-10.96,42.32-21.89,64.94-28.89ZM531.15,402.92c-22.3,9.8-43.97,21.11-64.72,33.87,14.3-16.95,28.39-34.65,46.51-47.71,6.16,4.49,12.22,9.12,18.2,13.84ZM492.52,380.06c-19.32.41-39.05,1.81-58.04,5.86,7.47-10.75,15.27-21.41,23.5-31.75,13.02,7.17,25.78,14.83,38.12,23.11-1.2.91-2.39,1.84-3.57,2.78ZM379.85,471.22c.39,1.35.8,2.7,1.19,4.05-1.27.17-2.54.35-3.82.53.86-1.53,1.73-3.06,2.62-4.58ZM374.82,508.91c-7.25,7.02-14.33,14.23-21.29,21.55,3.29-9.85,6.94-19.55,11.06-29.05,3.36,2.56,6.77,5.07,10.22,7.51ZM351.84,575.69c.77.19,1.54.37,2.31.56-7.06,15.47-13.69,31.24-19.44,47.28-.36,0-.72,0-1.08,0,2.15-22.07,2.09-31.22,18.22-47.84ZM352.13,659.31c4.01-.04,8.02-.08,12.03-.15-4.18.94-8.38,1.73-12.6,2.32.19-.73.38-1.45.57-2.18ZM470.86,654.34c6.59-.45,13.18-.89,19.76-1.37-4.86,3.13-9.82,6.15-14.81,9.05-1.68-2.54-3.33-5.1-4.96-7.69ZM707.26,425.55c-.11-2.6-.83-3.9-2.92-4.62,3.96-14.86,8.34-29.65,11.7-44.66-.19,17.14-3.46,33.45-8.77,49.28ZM358.94,478.41c-.5.17-.87.02-1.21-.37.4-2.22-2.07-4.46-4.36-3.71-.53-.46-1.06-.92-1.59-1.38,4.88-3.06,9.84-6,14.88-8.77-2.7,4.66-5.28,9.41-7.72,14.23ZM348.07,676.62c7.69-.73,15.08-2.08,22.55-3.83-6.57,12.71-10.81,25.86-11.71,40.15-4.95,1.51-9.95,2.82-15.01,3.89-.04-13.58,1.52-26.97,4.18-40.22ZM395.22,733.48c30.11-12.59,60.47-25.33,88.49-42.12,1.72,2.2,3.47,4.37,5.25,6.53-30.93,18.43-64.9,40.22-102.26,39.07,2.85-1.14,5.68-2.3,8.51-3.48ZM644.22,612.4c-4.33-4.22-2.85-9.4-3.7-15,11.38-2.2,22.93-3.56,34.25-6.05-.9,4.96-2.03,9.87-3.23,14.76-9.14,1.61-18.24,4.1-27.32,6.29ZM760.83,525.65c-7.95,4.9-15.41,11.65-24.51,14.28,3.07-9.56,5.99-19.28,8.65-29.13,10.51,1.17,20.87,2.68,31.31,5.05-5.15,3.27-10.3,6.53-15.46,9.8ZM714.3,510.69c-2.41,8.57-5,17.08-7.82,25.52-8.14-8.85-16.36-17.62-24.6-26.34.84-1.47,1.68-2.94,2.51-4.41,10.24.7,20.47,1.54,30.68,2.49-.25.91-.5,1.83-.76,2.74ZM697.67,332.9c-.13,1.57-.37,3.13-.64,4.69-15.28-24.62-40.12-39.9-62.08-57.4,19.51,2.18,31.15,4,45.26,19,10.35,10.26,20.42,18.62,17.46,33.72ZM534.85,283.38c6.67-1.51,13.3-2.7,20.01-3.52,8.6,12.51,16.82,25.31,24.4,38.47-30.3-2.4-60.83-2.04-90.94,1.76,14.22-13.66,29.26-27.22,46.53-36.7ZM480.57,302.96c-21.5,25.14-20.62,30.41-52.94,14.59,20.15-7.8,40.28-15.15,60.61-22.51-2.63,2.56-5.19,5.2-7.67,7.92ZM269.28,520.3c-.96-.83-1.89-1.67-2.8-2.55,2.98-.93,5.98-1.83,8.98-2.68-2.09,1.71-4.15,3.45-6.18,5.23ZM531.78,728.17c-7.47-9.08-16.24-16.99-24.27-25.57,20.26-13.86,39.56-29.24,57.82-45.77,7.28,4.76,14.66,9.36,22.11,13.85-10.71,25.7-29.37,45.52-53.76,59.84-.62-.79-1.25-1.58-1.89-2.35ZM627.89,658.19c3.37-6.25,6.82-12.78,7.45-19.93,7.79-4.53,17.34-3.57,26.13-5.25-6.48,10.96-13.36,21.67-20.59,32.11-4.35-2.28-8.69-4.58-12.99-6.93ZM716.89,590.67c2.4,2.83,4.78,5.66,7.15,8.51-3.95.66-7.91,1.26-11.88,1.81,1.61-3.43,3.2-6.87,4.74-10.33ZM793.69,445.61c-.54,15.14.2,31.42-3.41,46.22-12.82-3.21-26.03-5-39.19-6.41,7.57-35.78,9.81-72.38,1.62-108.06,23.74,20.32,46.28,32.67,40.98,68.25ZM526.79,241.06c3.91,5.16,7.78,10.34,11.61,15.56-32.75,6.39-64.71,15.94-95.79,28.63,25.73-18.36,52.2-38.54,84.19-44.19ZM353.12,353.49c.36,1.89.72,3.78,1.09,5.66-21.32,13.3-40.21,31.17-60.31,46.4-2.93-4.29-5.79-8.61-8.59-12.97,21.21-15.64,46.51-23.57,67.82-39.1ZM293.75,426.93c1.23,1.69,2.48,3.37,3.72,5.05-6.28,2.06-12.58,4.01-18.9,5.94,3.18-5.77,7.14-11.06,11.61-15.92,1.19,1.64,2.37,3.28,3.57,4.92ZM287.93,461.65c8.37-3.12,16.62-6.52,24.79-10.11,6.29,7.62,12.88,14.97,19.86,21.97-10.06,9.68-21.11,6.59-33.79,4.8-7.87-3.17-22.15-4.33-27.06-10.82,5.15-1.97,10.46-3.69,16.21-5.83ZM261.67,553.14c18.26,13.93,28.58.16,55.79,12.64-17.59,14.5-36.11,33.25-38.56,57.06-14.55-.33-29.1-.87-43.56-2.53-16.02-32.56,4.51-45.98,22.91-69.69,1.13.86,2.27,1.71,3.42,2.53ZM308.91,720.32c-8.66.01-17.34-.83-25.45-4.04,4.32,1.64-3.31-1.53-3.97-2.29,1.01.38-2.36-1.73-2.45-2.14-.45-1.02-1.05-3.55-.33-.4-1.08-12.5,5.27-25.01,10.54-35.94,7.66.93,21.27,8.24,24.91-1.98,1.26.43,2.53.81,3.82,1.15,1.84,15.29-.69,30.29-.85,45.59-2.07.05-4.14.07-6.22.05ZM364.21,798.49s-.05-.06-.04-.1c.08.09.36.36.97.93-.31-.28-.62-.55-.93-.83ZM538.32,775.68c-.33.34-3.67,3.25-3.03,2.81-11.45,8.7-23.88,16.29-35.07,25.62-32.77,12.93-36.83,32.91-74.02,27.68-15.1-1.95-30.23-6.31-41.38-17.22,1.33.95,1.29.85-.11-.3-6.05-6.17-13.73-10.75-20.53-15.92-.9-17.5-14.01-31.22-16.48-48.98,5.21-.8,10.14-3.84,15.24-1.37,4.15,19.57,21.72,31.7,41.44,29.07,43.81,15.14,90.07,3.12,130.16-17.44,1.25,4.39,3.86,8.85,6.87,12.54-1.01,1.19-1.98,2.4-3.08,3.51ZM674.32,740.59c-1.69,24.23-19.99,40.71-31.36,60.71-4.05,12.84-35.11,14.15-43.82,6.61-9.1-7.68-17.32-16.38-26.99-23.44,28.72-23.71,54.74-50.16,77.15-80.05,8.34,4.05,16.8,7.82,25.42,11.2.96,8.28.63,16.77-.39,24.97ZM756.42,690.32c.24-.28.39-.54.62-.74-.19.36-.4.66-.62.74ZM757.04,689.54s.03-.04.05-.07c-.01.03-.02.05-.05.07ZM743.31,624.32c7.56,12.95,24.7,57,10.57,67.08-21.07,7.6-48.9,3.11-71.71-6.47-2.24-6.17-4.85-12.16-6.29-18.7,7.62-11.9,14.84-23.95,21.6-36.35,15.39-1.24,30.5-2.88,45.78-5.65.02.03.04.05.05.08ZM817.42,553.39c-4.93,8.85-13.04,14.27-21.81,18.79-12.58,8.94-25.33,16.09-40.65,19.99-7.53-9.4-15.29-18.65-23.21-27.77,27.21-6.52,48.94-25.6,73-39.08,8.97,3.67,16.52,13,16.78,19.47.29,3.15-2.61,5.89-4.1,8.59ZM789.65,386.29c7.8,7.77,15.58,15.57,23.37,23.36,16.64,39.13,15.81,52.7-12.8,85-.38-.12-.77-.24-1.15-.36,4.71-20.76,3.56-42.11,4.04-63.22,1.43-23.84-18.47-39.78-35.43-53.15,7.32,2.8,14.64,5.6,21.97,8.37ZM615.43,237.88c2.25.46,4.39,1.15,6.49,1.96-10.27-2.3-20.86-3.18-31.32-2.3,8.21-1.27,16.59-1.34,24.83.34ZM555,245.75c1.9-.07,3.78-.29,5.64-.59-2.69,1.11-5.35,2.31-7.97,3.59-1.07-1.08-2.14-2.16-3.2-3.24,1.83.21,3.67.32,5.53.24ZM369.26,249.99c20.51-78.76,97.13-76.28,146.08-23.85-25.04,8.24-49.66,17.59-70.15,34.52-20.09,12.63-42.84,22.85-57.87,41.69-9.11-3.01-18.34-5.71-27.66-7.92,1.65-15.13,5.18-30.31,9.59-44.44ZM271.41,324.61c14.54-24.94,52.68-18.41,76.77-14.15-.04,5.54.26,11.07.81,16.57-24.35,16.44-51.48,27.54-75.64,44.17-6.58-14.8-9.38-30.61-1.93-46.59ZM254.17,422.24c4.97-7.42,12.81-15.71,20.42-21.78,3.36,4.67,6.74,9.33,10.11,13.99-7.33,7.8-13.44,16.89-17.35,26.91-9.25,2.85-20.37,6.47-28.82,12.47,3.16-11.21,9.13-21.98,15.64-31.58ZM160.04,579.92c14.1-23.4,48.96-38.15,75.71-51.02,3.85,4.73,8.06,9.19,12.53,13.33-20.47,24.58-41.56,39.56-30.44,75.05-16.78-5.43-58.2-11.56-58.66-34.02.11.36.69-2.55.87-3.34Z"/>
</svg>