<?xml version="1.0" encoding="UTF-8"?>
<svg id="Circle" xmlns="http://www.w3.org/2000/svg" version="1.1" viewBox="0 0 1024 1024">
  <!-- Generator: Adobe Illustrator 29.7.1, SVG Export Plug-In . SVG Version: 2.1.1 Build 8)  -->
  <defs>
    <style>
      .st0 {
        fill: #131051;
      }
    </style>
  </defs>
  <path id="Circle1" data-name="Circle" class="st0" d="M934.4,463.07c-25.35-75.14-102.07-110.33-173.74-127.83-115.69-60.63-247.58-54.98-368.32-11.61-72.48,21.79-143.91,51.78-200.22,103.73-13.61,2.82-24.44,11.51-35.84,18.69-10.65,3.68-18.42,11.52-28.02,16.78-7.55,2.74-13.42,8.07-20.76,11.21-19.48,14.74-41.97,49.33-40.62,74.16,18.22,57.72,70.49,94.11,127.95,106.07,17.86,14.9,15.87,24.06,42.99,21.74,9.46,6.63,24.9-2.86,21.62-14.15,218.29,9.17,451.6,2.75,643.3-114.77-15.9,20.58-41.39,29.52-63.35,41.93-37.2,21.12-77.92,35.87-118.62,48.81-43.88,12.8-86.64,31.07-132.12,37.45-31.35,2.84-62.83,4.41-94.11,8.19-52.74,7.94-106.74,13.11-158.97,1.03-17.55-3.28-35.47-2.88-53.07-5.14-5.56-9.08-22.54-6.33-24.54,4.6-3.18,31.24,41.67,23.38,61.18,26.76,22.7,2.73,45.42,6.46,68.38,2.9,139.22-6.08,276.36-22.47,405.4-78.17,85.86-30.53,172.08-64.34,141.5-172.38ZM886.92,427.25c-9.63-7.96-22.52-12.11-26.16-25.27,9.57,7.55,18.49,15.96,26.16,25.27ZM845.82,403.12c-94.88-44.75-205.44-51.66-308.73-43.36,67.79-17.65,141.68-14.76,210.91-6.34,34.04,13.12,77.46,15.05,97.83,49.7ZM253.88,410.82c125.56-67.34,302.09-126.69,441.99-77.71-45.12-2.35-90.46.09-135.44,3.64-30.3,6.26-59.87,19.96-91.27,19.37-48.42-6.49-68.95,12.2-110.83,23.98-17.05.54-20.7,7.44-34.31,13.42-12.06,3.88-23.08,10.72-34.82,14.97-4.84.9-7.34,7.2-5.28,11.39-33.31,14.39-63.84,35.15-92.3,57.7,3.98-33.88,36.59-49.37,62.25-66.76ZM461.16,372.07c-21.12,3.68-42.27,7.11-63.24,11.55,19.56-9.31,41.68-13.27,63.24-11.55ZM217.82,651.03c-.11.03-.17.08-.27.07.2-.07.5-.16.82-.23-.19.05-.37.1-.55.16ZM219.97,651.3c-.3-.03-.51-.32-.93-.56.62-.07,1.11.02.93.56ZM269.99,655.84c-5-.44-9.99-.97-14.97-1.51-10.53-9.28-25.32-3.35-37.18-4.39-20.5-10.83-10.07-10.13-35.69-13.59-14.58-3.27-28.52-8.78-43.15-11.79-5.74.24-16.47-12.72-19.03-9.06-1.25-.91-2.48-1.86-3.68-2.83,4.53-5.45-1.68-8.99-5.16-12.26-3.26-3.56-8.28-12.14-12.95-12.71-4.72-14.3-10.43-29.66-8.69-44.7,5.08-11.09,8.68-23.87,17.23-32.78,7.22-7.8,11.93-17.27,21.19-23.13,15.31-15.6,33.01-28.17,50.53-41.17-7.66,13.86-7.23,30.99-6.24,46.35-38.81,40.92-42.1,72.24-9.46,119.65,35.28,38.3,120.26,40.91,170.3,45.69-21.01.51-41.96.06-63.06-1.78ZM180.37,524.93c1.54,9.85,3.72,19.73,10.93,27.16,14.11,14.63,25.23,31.32,40.99,44.43,8.59,5.14,15.82,9.11,22.14,16.83,14.56,14.03,33.13,25.67,53.19,29.46-44.35-6.25-102.89-4.69-137.14-36.75-25.56-34.88-31.16-69.82,3.27-101.27,1.12,6.96,4.6,13.4,6.62,20.13ZM440.12,635.99c-17.57-1.01-35.6.1-52.94-3.22-37.26-8.76-76.76-12.88-109.26-34.3,1.58,1.87-1.91-1.97-2.49-2.24-6.23-6.84-15.89-7.96-21.3-14.75-7.58-9.15-20.13-13.34-27.72-22.37-19.66-15.74-29.19-10.02-30.12-40.18-2.59-9.26-8.67-21.14-4.54-30.1,20.96-17.22,43.42-32.92,66.85-46.56,170.75-76.69,407.66-101.93,579.07-16.59,16.25,8.53,27.11,10.11,25.62,31.94,1.1,44.37-31.13,77.47-66.24,99.82-97.53,78.4-227.74,86.73-348.13,87.83.08-4.44-2.85-8.93-8.8-9.28ZM881.38,536.43c-36.19,20.76-71.88,42.18-112.41,53.55,51.26-31.04,112.87-71.27,106.88-139.42,11,10.03,22.15,20.26,30.96,32.3-7.16,3.82-4.74,17.07,5.04,15.9-5.76,15.91-15.57,29.37-30.46,37.67Z"/>
</svg>