<?xml version="1.0" encoding="UTF-8"?>
<svg id="Heart" xmlns="http://www.w3.org/2000/svg" version="1.1" viewBox="0 0 1024 1024">
  <!-- Generator: Adobe Illustrator 29.7.1, SVG Export Plug-In . SVG Version: 2.1.1 Build 8)  -->
  <defs>
    <style>
      .st0 {
        fill: #131051;
      }
    </style>
  </defs>
  <path id="Heart1" data-name="Heart" class="st0" d="M843.85,359.55c-46.5-152.19-229.75-161.51-318.52-40.63-8.09-11.22-18.63-19.88-30.59-26.65-29.81-30.34-64.09-62.14-108.93-64.54-25.94-5.9-51.77-9.46-77.17.96-37.2,12.33-77.82,29.84-98.77,64.8-8,7.71-17.31,14.31-22.14,24.83-5.57,10.24-13.09,19.27-16.01,30.8-1.96,10.65-3.94,21.25-7.55,31.52-5.75,19.35-2.73,41.36,8.87,58.29,1.63,2.78,1.33,2.17,1.38,4.79-2.24,59.95,23.69,109.34,67.94,148.5,25.84,29.9,40.13,47.84,74.98,56.55,9.3,9.91,18.56,20.19,32.43,23.27-.16-.09-.33-.2-.53-.32.71.36,2.9,1.6.63.37,19.25,11.05,33.43,28.9,53.3,39.08,8.22,7.06,14.6,15.53,24.68,20.29,22.73,8.27,38.39,29.64,54.75,41.41-20.5,6.45.43,48.37,19.57,16.7,16.35,12.84,44.72,32.46,65.75,46.82,11.19,7.76,25.27,10.87,34.73,21.34,3.49,3.5,8.6-.92,6.57-5.07-3.71-7.61-9.01-14.79-14.57-21.14-19.1-21.18-46.43-33.5-63.78-56.94,13.04-16.45,27.75-31.46,39.06-49.15,78.58-84.88,208.21-124.52,252.2-239.43,6.95-15.85,5.23-33.53,11.91-49.19,8.87-24.49,21.83-51.59,9.78-77.27ZM505.06,411.92c-1.7-8.44,1.3-16.28,2.99-24.4.37-12.55,7.94-23.5,13.52-34.37,1.84,9.04,7.01,20.12,9.05,28.59-.31,9.17.77,18.72-1.48,27.66-2.3,6.12-9.76,7.01-10.48,15.11-5.25-1.04-8.62-4.49-13.39-7.14.27-1.81,0-3.95-.2-5.46ZM226.57,323.44c-.21.17-.44.34-.65.5.22-.16.43-.34.65-.5ZM814.93,396.08c-.05.68-.46,4.46-.35,3.8-10.6,106.59-88.24,160.48-162.67,219.66-43.2,49.18-102.17,82.43-142.46,134.41-21.92-19.75-44.85-39.31-71.71-52.26-8.43-10.22-18.53-19.66-29.86-26.4-13.77-12.79-26.47-28.07-44.09-35.69-4.28-1.97-9.33-2.39-12.28-6.44-22.22-27.91-47.98-15.65-70.07-50.29-19.19-21.14-44.4-37.72-55.78-64.94-5.07-13.46-13.86-25.05-18.92-38.43-7.83-17.14-3.36-38.2-14.42-53.7,1.28-21.7-4.6-23.4,6.55-45.9,3.78-8.62,3.03-18.37,7.2-26.82,8.12-11.12,12.15-25.23,24.44-32.67,24.37-37.41,66.32-53.08,107.67-65.1,0-.08,5.47-.9,5.57-.82,68.52,3.62,85.78,6.01,136.56,54.01,13.08,7.84,26.42,15.01,32.34,30.15-4.63,9.82-9.76,20.64-10.95,31.57-.26,7.41-2.41,14.58-5.4,21.38-4.18,9.22-3.69,19.25-6.23,28.83.39,5.23,3.54,9.71,6.44,13.89.14,5.07,2.15,7.82,4.9,11.47-2.18-3.36,3.49,4.81,2.92,4.14,8.62,12.43,32.53,7.23,32.67-8.69,37.6-18.52,26.4-79.75,1.78-105.31,8.29-8.13,16.38-16.13,24.03-24.98,7.37-6.38,15.81-10.65,25.09-13.77,9.04-3.55,16.6-9.95,25.58-13.7,14.95-4.71,29.25-12.31,44.12-16.05,48.91-3.15,99.53,15.76,129.94,55.73,13.08,14.62,28.22,47.82,27.38,72.94Z"/>
  <path id="Spot" class="st0" d="M455.06,794.86c-19.72.13-13.47,39.3,5.28,30.35-.13.01-.27.03-.4.04,8.5-3.64,12.28-29.44-4.88-30.39Z"/>
</svg>