<?xml version="1.0" encoding="UTF-8"?>
<svg id="Circle" xmlns="http://www.w3.org/2000/svg" version="1.1" viewBox="0 0 1024 1024">
  <!-- Generator: Adobe Illustrator 29.7.1, SVG Export Plug-In . SVG Version: 2.1.1 Build 8)  -->
  <defs>
    <style>
      .st0 {
        fill: #131051;
      }
    </style>
  </defs>
  <path id="Circle1" data-name="Circle" class="st0" d="M919.6,371.74c-18.35-31.45-21.32-60.61-47.16-86.17-33.26-32.12-68.82-57.1-109.83-78.1-17.87-22.28-42.08-29.19-66.12-41.75-2.79-11.7-26.61-19.24-36.5-25.62-50.96-24.34-108.58-31.59-164.55-32.09-17.08-.21-34.19.57-51.06,3.44-22.79,5.86-44.49,15.87-68.28,17.68-40.45,3-74.21,28.72-104.97,53.05-38.13,29.54-74.98,68.04-81.8,117.55-70.71,91.42-110.03,216.19-77.26,329.88,25.93,79.45,79.15,151.61,139.15,209,63.97,56.64,150.77,64.65,232.56,79.26,42.94,5.87,85.23,1.38,126.14-9.66,23.76-6.43,47.68-13.02,69.88-23.82,66.25-30.83,105.89-97.11,141.07-158.15,3.69-6.22,5.81-13.48,11.44-18.27,34.26-35.24,58.15-76.26,77.74-121.35,14.21-36.52,22.21-69.83,28.45-108.98,3.86-35.42-.97-73.77-18.9-105.92ZM743.84,237.05c6.04,4.04,14.49,5.39,17.76,12.36,8.51,14.94,16.04,30.56,23.06,46.29-36.09-37.91-79.69-68.14-126.07-92.09.06.02.13.04.19.05-8.97-4.82-18.1-9.35-27.34-13.66,39.18,11.23,76.22,28.5,112.4,47.04ZM543.93,142.69c15.55.21,31.25,1.97,46.04,6.97-20.12-3.24-40.48-4.66-60.78-6.34,4.9-.41,9.83-.58,14.75-.62ZM210.01,263.89c21.45-43.41,97.31-96.84,144.15-111.28,24.2-5.18,49.29-5.42,72.77-14.12,14.02-5.26,28.63-7.87,43.57-8.4-24.62,3.69-47.97,14.23-69.54,26.32-18.36,5.34-37.18,9.32-54.99,16.36-57.99,23.66-106.08,65.29-145.58,113.21,2.71-7.57,5.91-14.96,9.63-22.1ZM236.42,247.32s0,0,0,0c-.63.62-1.27,1.24-1.9,1.87.63-.62,1.27-1.25,1.9-1.87ZM337.23,207.36c-32.54,29.47-60.48,63.63-84.94,99.99-11.01,18.01-18.01,37.99-26.27,57.31-33.98,70.71-43.95,154.87-16.27,229.33-.84-1.39-1.67-2.79-2.49-4.2-78.17-131.93-8.75-322.61,129.97-382.43ZM322.09,237.35c-.27.27-.18.18,0,0h0ZM722.26,809.55c-41.44,53.3-112.11,56.64-173.08,76.21-32.51,9.98-66.57,9.24-99.48,1.65-45.85-10.02-92.26-9.59-134.41-30.95-78.32-39.25-150.51-142.04-180.54-223.09-25.18-73.13-13.59-154.78,14.99-225.23-17.33,73.34-2.81,152.54,39.17,215.1,8.3,13.08,17.39,25.64,26.82,37.92,6.01,8.41,13.71,19.14,25.58,15.07,7.41,7.58,13.06,18.29,23,22.74,10.8,6.21,14.19,22.87,26.37,25.41,1.86.11,7.57,5.89,10.48,7.98.44,1.51,1.73,2.24,3.09,2.24,36.42,26.86,77.5,45.19,119.17,62.39,39.78,19.15,90.37,22.5,135.17,21.96-101.84,25.58-219.34,8.95-294.45-69.36-17.84-17.71-40.12-48.49-53.4-74.68-7.15-13.72-13.53-27.82-19.27-42.19-2.87-4.14-2.98-16.41-9.61-14.8-7.96,1.68,17.93,54.31,20.4,61.65,68.21,152.48,229.3,203.86,384.24,164.26,33.49-8.27,65.88-21.38,94.69-40.47,23.4-6.15,45.77-15.81,66.73-27.87-8.1,11.68-16.63,23.05-25.64,34.05ZM262.49,697.9c.58.35,1.17.68,1.75,1.01-.6-.29-1.17-.69-1.75-1.01ZM746.04,749.89c-3.68,2.44-7.41,4.79-11.19,7.07,21.14-22.06,43.45-43.1,62.5-67.07-15.8,34.1-19.63,39.25-51.31,60ZM790.2,631.67s.01-.05.02-.07c-20.4,38.74-52.03,69.78-81.44,101.64.02-.04.04-.07.06-.11-21.94,24.23-47.37,48.47-78.24,60.2-71,11.91-92.94,17.93-158.61.59-81.7-29.91-123.66-40.73-189.6-101.42-70.53-61.24-89.49-183.11-65.85-268.46.32-1.43.84-2.83,1.2-4.25-.01.04-.03.07-.04.1.11-.35.17-.55.2-.64,5.54-19.81,14.13-38.55,22.03-57.49,6.5-16.26,12.68-32.75,21.51-47.92,14.4-21.17,34.71-49.7,52.74-68.46,17.13-17.59,35.54-33.96,54.96-48.98,25.58-10.75,55.3-13.19,82.96-15.97,61.48-5.07,121.82,12.28,175.75,40.99,45.16,22.69,87.58,51.55,123.39,87.37,33.02,33.56,55.37,74.31,68.88,119.62,4.21,68.97,2.32,141.06-29.93,203.27ZM889.66,540.81c-7.56,20.5-10.41,40.72-19.66,60.55-3.34,7.12-6.91,14.13-10.7,21.02,15.03-62.38,15.13-128.9-.62-191.15-.64-40.46-14.74-73.9-31.5-109.85,17.73,18.57,32.12,40.12,40.98,64.33,5.12,14.55,4.14,28.6,10.18,42.74,1.12,6.57-.51,13.33.28,19.91,6.07,30.17,16.21,61.6,11.03,92.44ZM905.99,492.29c-1.49,5.07-3.26,10.04-5.18,14.96-.4-19.21-.72-38.4-2.46-57.53.31-10.65,6.06-20.69,3.87-31.49-6.75-22.64-16.16-44.89-27.49-65.68,13.07,16.57,23.42,33.29,29.28,54,5.82,28.18,7.76,57.72,1.98,85.75Z"/>
</svg>