<?xml version="1.0" encoding="UTF-8"?>
<svg id="Shine" xmlns="http://www.w3.org/2000/svg" version="1.1" viewBox="0 0 1024 1024">
  <!-- Generator: Adobe Illustrator 29.7.1, SVG Export Plug-In . SVG Version: 2.1.1 Build 8)  -->
  <defs>
    <style>
      .st0 {
        fill: #131051;
      }
    </style>
  </defs>
  <g id="Shine1" data-name="Shine">
    <path class="st0" d="M330.35,406.97c16.71,14.1,34.35,27.22,53.18,38.26,7.93,5.07,15.81,14.62,26.13,12.7,2.79,2.36,5.67,4.57,8.68,6.71,2.94,2.09,5.74-2.76,2.82-4.83-2.83-2.09-5.67-4.03-8.62-5.84.18-1.8-.7-3.6-3.04-4.13-9.72-5.01-18.22-12.65-26.83-19.41-13.2-11.73-23.25-26.45-35.35-39.27-12.31-13.61-27.15-24.03-41.42-35.43,2.62-11.74-20.93-23.23-27.45-32.16-6.73-7.81-19.35-22.21-30.67-13.6-6.69-5.46-13.62-13.27-22.83-13.4-9.11,1.57-2.72,12.01,1.14,16.01,28.01,38.07,69.49,62.97,104.26,94.4Z"/>
    <path class="st0" d="M516.41,428.47c1.27-12.94-4.36-25.15-4.41-38.18-2.47-14.36-.66-29.41-5.24-43.38-1.28-3.78-1.2-7.03-.65-10.95,2.27-14.51-2.97-28.07-.29-42.71-1.32-19.92-8.06-43-10.22-60.55-.57-13.79-4.81-27.27-8.6-40.38,8.92-3.77,1.54-16.2.99-23.07,1.78-8.13,6.45-19.6-4.17-23.9-.9-3.97-1.9-7.93-2.68-11.88-1.52-7.7-12.02-9.74-17.15-4.53-14.44,22.42.2,50.65,3.44,74.42,4.11,9.98.42,20.88,1.83,31.48.8,24.8,11.55,47.26,11.66,72.05-.05,9.81,6,17.67,6.55,27.29-.81,9.78,3.6,18.16,6.19,27.26,3.16,21.31,6.94,42.55,13.1,63.11-1.85,16.39,16.26,14.57,9.65,3.9Z"/>
    <path class="st0" d="M514.37,449.25c.04,6.84,2.99,13.44,2.79,20.38,6.81,10.68,6.36-18.13,4.85-21.42-.87-4.63-7.21-2.99-7.64,1.03Z"/>
    <path class="st0" d="M306.52,572.98c5.88-2.81,17.41-1.8,20.6-7.57,5.53,2.44,3.59-7.46-.55-3.13-4.42-5.51-30.66,2.66-39.77-.4-37.07-3.51-74.41,1.59-109.83,12.82-33.08,29.6,83.14,13.71,93.67,8.88,12.39-2.18,23.68-7.67,35.88-10.6Z"/>
    <path class="st0" d="M373.94,550.8c-12.83-.59-24.18,5.03-36.01,8.66-3.37.27-3.48,5.36,0,5.33,8.39-.06,16.57,1.44,24.97.83,4.61.82,35.74-5.37,24.81-12.15-4.6-.69-9.27-1.85-13.78-2.67Z"/>
    <path class="st0" d="M876.82,460.1c-5.89.04-12.62,4.62-12.04,10.99-1.43.1-2.83.41-4.24.65-2.31-29.13-81.23,15.53-99.27,17.01-26.5,9.07-55.64,8.61-81.22,20.63-12.74,5.07-31.28,4.86-38.73,17.94-.13,7.66,15.44-2.19,19.82-1.91,18.28-1.97,36.61-2.34,54.72-5.85,8.73-.32,18.31-.71,25.18-6.81,2.47-1.01,5.01-.63,7.54-.37,8.36,1.09,16.04-2.51,24.01-4.27,12.28-.97,24.71-1.45,35.21-8.69,12.14,3.41,21.82-2.13,32.25-7.44,8.66-6.17,31.32-1.5,32.99-13.14,12.49,2.95,18.57-19.26,3.77-18.73ZM741.21,512.62c1-.8.44-.31,0,0h0ZM806.59,499.01c.11.08.29.15.53.22-.22-.02-.4-.1-.53-.22Z"/>
    <path class="st0" d="M816.08,699.61c-8.17-8.43-20.04-12.43-31.65-12.34-17.52-20.51-42.78-32.42-65.75-46.71-9.62-5.97-21.47-6.01-31.13-11.86-5.55-3.29-11.38-5.22-17.15-8-12.37-4.81-22.8-14.84-36.71-12.04-3.08-.42-4.49,4.24-1.31,4.77,2.74.46,6.58-.13,9.05,1.11,9.9,10.84,22.51,18.61,34.43,27.11,8.12,8.71,20.01,10.86,30.14,15.69,10.84,7.58,21.22,17.3,33.13,22.89-.58,1.34-.29,2.98,1.41,4.1,7.6,5.14,14.49,11.2,22.65,15.48,12.33,6.87,35.13,34.81,47.97,17.22,8.25,4.33,21.54,3.97,19.55-8.45-1.41-6.89-9.7-6.41-14.64-8.96Z"/>
    <path class="st0" d="M705.07,301.09c10.74-11.56,17.41-26.53,24.11-40.67,3.73-18.73,19.39-31.73,25.96-49.36,2.34-6-7.92-10.4-10.49-4.42-9.02,14.92-28.08,23.17-35.13,39.83-3.89,11.16-12.72,19.24-17.88,29.76-11.08,12.82-21.57,29.36-26.67,45.89-1.88,13.87-8.21,26.44-14.21,38.91-8.76,18.22-20.64,34.73-27.25,53.96-3.66,9.89-7.04,19.68-13.9,27.91-2.61,3.13,1.82,7.67,4.53,4.53,5.75-6.66,9.32-14.23,13.14-22.07,16.54-35.2,45.02-63.84,61.55-98.74,6.92-7.52,10.61-17.16,16.25-25.53Z"/>
    <path class="st0" d="M584.23,812.18c-.41-17.05-4.9-33.37-7.4-50.12-1.86-17.63-3.11-35.41-6.45-52.85-1.03-4.4-18.12-74.37-21.06-56.9,3.16,17.02,6.48,33.98,7.47,51.3.79,63.5,4.94,128.61,16.26,190.9-5.55,18.92,24.16,22.88,25.22,3.82,1.84-7.62-2.06-16.81-3.32-23.92-.94-21.12-6.95-41.69-10.71-62.23ZM573.02,893.89c-.31-1.95,0-.65,0,0h0Z"/>
    <path class="st0" d="M441.77,636.96c-3.83-2.86-11.26-1.18-10.76,4.64-4.45,2.47-6.92,8.65-10.78,12.23-4.55,4.26-9.38,7.78-11,14.12-26.15,20.69-51.59,43.68-71.43,70.69-7.28,7.95-16.52,14.03-23.23,22.61-6.33,4.04-12.6,9.96-15.66,17.17-10.44,14.28-25.83,27.27-33.46,44.04-.78,2.23-.82,4.56-1.49,6.83-1.85,6.24,6.11,13.62,11.93,9.17,11.06-7.18,21.57-16.06,29.48-26.79,11.53-6.39,15.05-19.43,21.64-29.8,9.66-9.4,13.33-23.74,24.7-31.58,17.66-13.95,27.23-35.23,42.49-51.19,9.39-11.53,25.01-17.45,29.95-32.18,5.56-8,23.17-16.99,19.02-28.43,4.69,4.02,12.78,1.53,14.31-4.52-.66,2.26.14.46.62-.25,13.9-20.48-27.22-12.87-16.34,3.22Z"/>
  </g>
</svg>