<?xml version="1.0" encoding="UTF-8"?>
<svg id="LIne" xmlns="http://www.w3.org/2000/svg" version="1.1" viewBox="0 0 1024 1024">
  <!-- Generator: Adobe Illustrator 29.7.1, SVG Export Plug-In . SVG Version: 2.1.1 Build 8)  -->
  <defs>
    <style>
      .st0 {
        fill: #131051;
      }
    </style>
  </defs>
  <path id="LIne1" data-name="LIne" class="st0" d="M417.47,378.71c-39.1,10.12-76,30.32-97.65,59.77-13.5,16.67-15.39,37.63-27.82,54.6-121.52-28.74-197.68,221.44-170.93,294.77,1.42,3.36,7.77,1.99,6.47-1.48-16.07-73.48,29.55-198.42,90.69-253.25,17.66-12.8,37.25-38.09,63.82-26.66-48.73,62.74-68.03,146.72-40.58,218.81,6.01,19.9,11.98,42.42,33.26,54.99,37.93,19.01,69.53-21.05,79.05-47.47,14.28-35.05,8.06-72.92,8.97-109.18-.75-26.54-14.22-51.21-27.32-74.89-8.31-15.69-11.75-34.39-26.74-46.9,18.49-29.88,11.93-49.98,46.02-76.68,65.01-44.86,107.9-53.18,159.07,9.52-27.04,61.22-45.68,128.48-29.89,193.62,11.12,70.95,71.14,69.59,89.98,1.54,17.32-61.73,18.01-134.2-31.05-186.24,19.76-32.52,46.67-60.7,76.71-86.91-.4.48,2.76-1.44.66-.61,39.72-15.71,51.12-64.28,109.92-42.18-47.52,45.65-90.32,258.04,43.44,216.01,78.1-46.45,64.29-172.27-.59-222.69,49.74-49.06,69.59-74.17,142.16-104.34,19.15-9.48,2.3-33.79-17.31-24.7-27.65,12.89-54.23,27.9-77.62,45.76-28.44,19.79-45.99,47.65-71.3,69.94-52.78-27.67-97.88-8.68-132.97,29.04-39.55,25.53-70.46,60.84-94.27,97.9-24.57-28.02-59.14-57.51-104.17-42.11ZM284.89,745.22c.14.26.11.21,0,0h0ZM294.07,756.69c.09.02.16.07.21.12-.1.02-.13-.07-.21-.12ZM294.41,756.97s.03-.01.04-.02c0,0,0,0,0,0-.01,0-.03.01-.04.02,0,0,0,0,0,0ZM294.48,757.03s.03,0,.04-.01c.21.19.26.26-.04.01ZM305.34,532.67c13.25,41.64,32.08,83.19,29.58,127-2.18,33.51-5.07,69.9-34.76,94.48.15-.08.31-.17.5-.28-.3.16-1.73,1.03-1.41.8-1.37.77-2.79,1.54-4.31,2.08,1.66-.81-.72.39-1.33-.45.11.08.23.17.34.26-.29-.16-.53-.4-.87-.52.05-.03.21.05.39.17-14.5-13.46-15.51-33.15-21.5-49.86-12.74-34.02-10.14-69.18-1.32-102.94,7.85-29.18,8.45-60.59,27.99-86.62,3.55,4.68,5.01,10.68,6.68,15.91ZM776.6,346.26c22.41,34.97,27.02,76.34,23.99,115.28-7.71,26.85-47.65,81.79-80.85,44.13-34.39-44.45-3.02-141.46,34.46-180.54,9.03,5.61,16.79,12.52,22.4,21.13ZM610.46,328.32c.61-.26,1.57-.52,0,0h0ZM565.24,521.66c4.65,46.12,7.05,108.22-31.31,145.01.46-.28-3.21,1.43-2.24,1.11-.57.19-3.27.64-2.64.63-23.42-3.69-25.84-31.22-27.61-47.34-12.29-56.08,13.67-110.34,33.22-163.2,16.32,19.26,26.69,40.38,30.57,63.79Z"/>
</svg>