<?xml version="1.0" encoding="UTF-8"?>
<svg id="Arrow" xmlns="http://www.w3.org/2000/svg" version="1.1" viewBox="0 0 1024 1024">
  <!-- Generator: Adobe Illustrator 29.7.1, SVG Export Plug-In . SVG Version: 2.1.1 Build 8)  -->
  <defs>
    <style>
      .st0 {
        fill: #131051;
      }
    </style>
  </defs>
  <path id="Arrow1" data-name="Arrow" class="st0" d="M277.43,875.1c11.12,25.44,30.43,15.26,35.33-7.52,8.36-23.75,19.19-46.7,28.01-70.3,3.21,18.44,3.68,38.05,9.34,55.73,5.07,7.92,16.37,6.12,19.35-2.53,7.23-21.02,5.98-44.23,8.65-66.09,35.22-164.41,124.13-328.98,265.34-424.4-13.06,18.82-30.04,35.59-38.98,56.82-4.35,13.42-11.71,25.3-18.55,37.59-4.34,9.52-18.01,23.47-8.86,33.31,8.04,6.06,21.23,2.25,26.66-6.31,0,0-1.12.67-1.12.67.37-.22.74-.47,1.1-.73,0,.02.02.04.03.06,7.54-6.19,8.9-16.03,14.76-23.39,8.96-14.66,22.11-25.59,33.96-37.76,60.53-64.65,107.95-141.66,165.63-208.52,11.11-15.78-12.21-21.56-23.93-16.22-9.99,2.35-24.21-.32-34.94,3.29-10.74-8.54-23.16,11.68-36.3,10.34-60.46,10.48-123.5,14.57-180.83,36.9-26.03,2.24-51.4,9.95-76.89,15.61-34.85,5.92-54.86,5.66-84.98,27.71.33-8.66-11.98-6.73-14.98-1.01-1.46,5.13-5.31,9.55-5.42,15.05-.12,8.88,11.64,14.07,17.25,6.45,14.64,6.62,30.92,5.89,46.53,5.63,31.92.8,63.81.02,94.78-8.42-5.78,3.25-10.73,7.31-16.98,9.64-9.19,5.31-6.81,20.48,3.04,22.57-49.43,53.5-108.94,101.85-142.77,167.2-13.52,31.39-21.72,64.72-32.58,97.06-37.14,90.42-82.95,170.43-51.62,271.58ZM368.44,842.54c.12.72.18,2.71,0,0h0ZM528.48,440.02c-81.26,84.92-130.38,196.37-163.9,307.79,10.56-85.67,37.82-222.33,107.1-278.52.03,5.33,7.26,9.72,11.61,4.92,20.79-22.47,45.19-41.19,67.5-62.09-7.29,9.41-14.7,18.74-22.31,27.9ZM780.01,223.24c-.24-.88-.64-1.72-1.13-2.5,1.53-.14,3.06-.27,4.59-.4-1.13,1-2.28,1.97-3.46,2.91ZM645.19,305.54c1.93,2.77,5.01,4.83,8.36,5.71.13.67.37,1.31.68,1.89-21.73,15.98-44.36,30.77-65.72,47.23,18.48-18.78,37.31-37.11,56.67-54.84ZM557.02,336.29c.64-1.58.73-3.25.44-4.88,3.85-1.97,7.77-3.89,11.52-5.92-7.89,2.8-6.88,12.4,1.51,10.11,13.74-6.53,27.98-11.89,41.97-17.85-18.96,18.62-34.91,38.95-58.73,51.05-10.3,8.69-19.95,18.07-31.09,25.76-10.99,9.27-19.25,21.52-29.27,31.64,23.22-28.47,50.98-54.47,63.64-89.92ZM722.61,257.82c-10.29,10.02-25.58,14.18-35.34,25.53,1.29-4.89,3.74-10.33,1.83-15.09,10.68-3.47,31.56-7.05,26.35-22.57,1.58-1.3,3.16-2.6,4.74-3.89,12.89,4.23,6.13-10.74,23.14-2.7-8.5,4.77-14.73,11.33-20.72,18.71ZM501.61,379.94c.46-.45.94-.88,1.4-1.32-20.78,28.51-39.07,58.59-56.82,89.08-18.14,16.31-34.06,34.86-52.12,51.21,30.63-50.1,64.79-98.42,107.54-138.98ZM747.32,275.05c-10.45,12.64-20.95,25.24-31.36,37.9,17.64-24.82,26.7-60.05,58.19-70.01-9.15,10.54-17.92,21.39-26.83,32.11ZM614.12,227.09s.02,0,0,0h0ZM594.64,262.06c-.22.04-.28.05,0,0h0ZM435.38,304.19c-17.9,1.25-35.07,3.38-52.41-.46,31.8-14.88,67.37-9.62,101.02-17.53,21.35-4.65,42.88-7.68,64.51-10.52,18.1-6.62,36.57-12.58,55.75-15.33.12.18.24.36.37.53-14.25,10.83-29.79,21.35-47.96,23.43-40.53,7.1-79.79,19.54-121.27,19.88ZM387.34,484.14c16.31-24.02,36.96-44.6,55.91-66.48-27.58,40.13-56.88,79.2-80.57,121.85,6.1-19.38,13.33-38.36,24.65-55.37ZM283.73,749.19c7.62-28.74,21.7-55.09,32.86-82.5,10.27-3.56,11.39-18.49,15.39-27.4,20.92-55.7,35.79-82.34,83.77-118.44-20.95,47.13-49.28,92.78-54.25,144.65-10.38,37.65-19.59,76.17-21.27,115.38-9.45,23.34-19.61,46.4-29.4,69.61-5.19,9.4-6.29,25.72-16.37,30.74-19.45-2.25-18.56-115.79-10.73-132.04Z"/>
</svg>