<?xml version="1.0" encoding="UTF-8"?>
<svg id="Burst" xmlns="http://www.w3.org/2000/svg" version="1.1" viewBox="0 0 1024 1024">
  <!-- Generator: Adobe Illustrator 29.7.1, SVG Export Plug-In . SVG Version: 2.1.1 Build 8)  -->
  <defs>
    <style>
      .st0 {
        fill: #131051;
      }
    </style>
  </defs>
  <g id="Burst1" data-name="Burst">
    <path class="st0" d="M315.18,224.54c6.11,16.5,17.41,30.17,25.44,45.5,2.25,8.03,4.68,16.04,8.71,23.43,24.55,43.1,45.73,87.65,65.66,133.03,1.14,2.4,4.8.58,3.7-1.84-13.53-34.97-22.3-71.73-40.36-104.96-7.31-16.67-16.97-32.5-21.63-50.19-2.07-8.39-6.34-14.95-11.04-22.07-8.95-14.18-15.05-29.98-21.58-45.37,33.71,30.69,62.69,65.89,97.35,95.66,32.43,28.66,61.51,60.32,90.43,92.31,13.11,8.85,22.19-16.87,6.81-19.16-43.02-54.45-103.49-91.52-148.77-143.6-13.01-15.8-29.52-28.1-42.24-44.19-5-6.87-12.92-11.75-18.45-17.5-4.86-10.09-20.65-2.41-15.63,7.78,7.47,16.94,14.02,34.28,21.61,51.18Z"/>
    <path class="st0" d="M530.21,403.2c36.51-76.02,72.81-152.12,110.81-227.4-10.73,70.89-36.93,139.05-39.34,211.07-8.21,16.35,20.3,19.66,18.82,1.93,6.1-15.96,2.48-33.85,7.02-50.35,5.17-36,16.5-70.54,22.36-106.39,6.7-26.81,5.11-54.99,12.93-81.38,3.16-9.38,6.34-18.61,6.73-28.6.22-5.82-7.06-8.15-10.48-3.61-5.02,6.66-6.28,15.65-10.15,22.99-9.61,18.62-20,36.84-28.72,55.9-33.51,66.94-66.2,134.2-94.25,203.69-1.22,2.42,2.94,4.53,4.27,2.15Z"/>
    <path class="st0" d="M359.67,513.43c66.25-17.37-54.96-65.04-71.22-81.38,19.7,8.02,40.72,4.12,61.05,7.59,14.39,5,29.56,6.35,44.38,9.22,4.95,1.41,9.95,3.69,15.02,1.43,6.45,1.13,2.94-7.85,7.64-12.82,2.59-17.26-24.51-12.53-12.14,6.77-11.51-4.06-23.62-5.23-35.58-7.49-13.64-3.95-26.92-8.7-41.37-7.97-29.72-2.89-57.28-16.47-85.67-24.96-7.4-2.76-11.79,7.36-5.97,11.87,10.82,8.41,22.72,14.76,34.47,21.72,28.68,19.57,58.88,37.23,86.41,58.34-32.85,17.15-61.93,41.66-97.25,54.34-22.03,7.99-39.52,23.89-60.68,33.72-30.86,16.73-63.6,32.24-92.15,52.52-5.5,3.24-22.02,10.24-11.72,17.3,1.87.67,4.55-.07,5.73-1.82,10.03-3.86,19.91-8.09,28.99-13.99,74.06-46.87,156.77-76.48,230.08-124.4ZM100.42,651.93c-.25.24-.37.23,0,0h0Z"/>
    <path class="st0" d="M882.38,648.61c-2.35-.79-4.63-1.75-6.48-3.46-.21-.17-1.42-1.24-1.31-1.12-10.71-10.12-22.93-18.43-34.14-27.95-14.52-12.46-27.18-27.43-43.81-37.29-52.23-28.82-100.55-63.75-147.42-100.51,42.28-24.06,79.03-56.6,120.25-82.34,34.03-18.98,68.26-38.23,102.56-56.43,10.16-2.26,7.14-17.02-3.14-15.57-50.57,15.86-101.87,29.16-152,46.29-16.51,6.33-34.55,7.09-51.09,13.16-8.32,4.12-17.46,5.42-26.16,8.36-7.4,2.85-13.21,6.31-18.21,12.48-1.63,2.01,1.45,4.62,3.36,2.97,8.24-7.04,18.77-10.56,29.34-12.29,19.86-7.42,40.71-10.31,61.39-14.9,27.49-6.49,54.14-16.04,81.79-21.76-47.27,21.74-88.05,54.27-130.56,83.73-15.13,12.54-36.67,17.54-47.19,34.83-5.95,8.94,5.09,20,13.93,13.86,29.19,27.29,61.65,50.52,94.86,72.72,16.92,10.81,34.95,19.72,52.25,29.92,20.13,11.06,34.13,29.32,51.88,43.44-78.71-19.25-154.85-49.13-233.62-68.61-.22-5.86-8.45-6.21-9.2-.85-8.27,1.21-7.26,7.98,1.19,6.63,22.26,89.37,47.64,178.42,78.06,265.65-55.01-71.92-110.1-145.23-155.69-223.32-8.01-10.9-14.75.8-19.73,7.69-28.84,80.2-70.54,155.39-107.17,232.11,14.65-68.23,42.16-133.4,51.71-203.1-.14-16.88,4.03-33.1,10.26-48.71,3.62-8.03,3.06-17.11,5.46-25.31,1.67-2.91,4.07-7.74-.16-9.57-4.14-16.69-21.56-2.12-31.96-1.82-23.31,6.99-45.89,15.95-70.23,19-68.05,18.55-138.04,29.49-205.51,50.11-12.57,3.84-23.74,12.97-37.18,13.33-2.86-.08-3.17,4.2-.3,4.45,11,.97,21.41-5.06,31.59-8.34,10.98-3.53,22.05-6.69,33.35-9.06,45.94-10.72,93.22-12.82,138.95-23.96,21.58-6.06,43.58-8.89,65.55-13.01,18.1-4.16,35.3-11.59,53.54-15.29-1.34,7.45,9.47,3.32,12.6.84-5.55,19.7-18.77,37.58-18.15,58.89-14.15,71.13-38.35,140.54-53.39,211.58-1.95,9.35-6.9,19.71-3.1,29.15,2.12,5.28,9.13,1.81,8.71-3-.13-5.14,4.49-9.37,5.61-14.22,11.39-14.22,16.99-32.55,28-47.33,25.57-37.31,42.42-79.98,61.63-120.78,11.06-21.26,22.98-42.26,31.26-64.78,43.74,74.78,91.08,147.93,145.52,215.5,3.36,17.8,22.27,8.66,20.92-5.36,1.56,4.61,2.74,9.29,3.01,14.36-2.29.83-2.07,4.48.74,4.07,13.5-3.22-3.35-35.64-3.57-45.36-.79-10.31-4.38-19.9-6.99-29.81-15.87-71.46-40.39-140.73-62.02-210.38,91.76,27.63,181.36,62.77,272.8,90.98,13.68,4.11,21.03-15.07,7.43-20.46ZM650.71,851.3c.2.23.36.4.36.39-.09.06-.22-.12-.36-.39Z"/>
  </g>
</svg>