<?xml version="1.0" encoding="UTF-8"?>
<svg id="b" data-name="Layer 1" xmlns="http://www.w3.org/2000/svg" width="1000" height="1000" viewBox="0 0 1000 1000">
  <g id="c" data-name="T3e9m1">
    <g>
      <path d="M547.673,980.403c-29.134-20.516-66.746-20.192-95.474.056-26.489,18.669-61.927,11.968-79.839-14.919-19.545-29.339-54.653-43.17-89.03-34.552-31.339,7.857-62.163-11.062-69.131-42.597-7.715-34.915-35.692-60.207-71.246-64.704-31.063-3.929-53.078-32.228-48.41-63.435,5.309-35.492-10.74-69.717-42.588-86.791-27.88-14.947-38.551-49.636-22.579-77.367,18.047-31.334,14.582-69.117-8.927-96.654-20.787-24.35-16.742-60.302,7.936-80.227,27.696-22.362,37.837-58.672,26.087-92.325-10.377-29.722,5.135-62.146,35.275-71.84,34.56-11.116,57.576-41.086,58.78-77.729,1.007-30.647,26.954-55.363,58.066-53.605,36.145,2.043,68.916-17.02,83.126-50.573,12.527-29.58,46.281-42.744,75.703-29.278,31.611,14.468,68.768,8.192,93.105-16.898,22.798-23.504,59.137-24.288,82.156-.599,24.619,25.337,61.857,32.265,94.099,17.45,28.695-13.186,62.66-.628,75.006,28.487,14.456,34.09,47.099,53.517,83.855,51.438,31.821-1.8,57.092,23.87,58.062,54.818,1.122,35.812,24.417,65.38,58.045,76.246,30.6,9.888,46.313,42.362,35.703,72.528-11.904,33.844-.998,70.029,26.646,92.409,24.779,20.06,27.8,55.961,7.173,80.134-22.887,26.822-26.793,64.375-9.113,95.058,16.181,28.082,6.597,63.011-22.034,78.452-31.155,16.803-48.08,50.579-42.665,85.738,4.842,31.441-16.575,60.541-48.28,64.515-35.786,4.485-63.797,30.058-71.581,65.284-6.872,31.097-37.779,49.825-68.661,42.096-34.38-8.604-69.636,4.983-89.198,34.41-17.851,26.854-53.299,33.823-80.067,14.974ZM499.944,919.353c-.546-163.264-60.875-318.894-168.341-440.17,64.878-67.092,144.623-115.309,232.972-141.231,72.236,140.689,191.579,251.192,337.168,312.182,7.893-6.44,15.948-11.953,24.462-17.082,5.234-2.296,7.427-8.005,5.169-13.186l-9.278-19.43c-129.456-54.316-236.829-151.734-303.485-275.233l28.904-4.4c60.759,108.057,154.102,194.302,266.38,245.968-1.569-19.679.509-38.141,7.057-56.148-87.562-43.958-161.223-110.781-213.518-194.122,64.839-.92,127.158,9.571,187.583,31.15,1.083-12.398,3.397-23.771,7.2-35.627,2.384-5.317-.854-13.003-7.013-14.022-13.392-2.214-23.035-12.618-35.282-16.508-59.193-17.015-120.485-20.576-181.496-17.888l-11.695-26.45c52.905-4.136,105.143-1.492,156.983,7.746.401.071,2.156.199,1.979-.121l-.928-1.681c-9.303-16.854-16.157-34.123-18.026-53.567-.132-1.368-1.993-2.045-3.755-2.273-51.349-6.651-102.795-7.456-154.936-2.468-8.856-29.958-14.715-59.892-18.369-91.028-17.843,4.198-35.603,4.574-53.87,1.311,3.502,33.5,9.626,65.009,18.418,97.202l-26.884,5.474c-10.228-37.17-16.627-73.854-19.934-111.741-15.255-6.892-28.015-16.216-39.558-27.785-2.205-2.21-5.403-3.655-8.107-3.616-2.682.039-6.362,1.541-7.651,4.387,1.707,51.844,9.622,102.07,23.342,152.823-108.189,33.865-204.991,94.467-283.264,176.003-42.481-31.471-86.326-57.236-135.052-78.183,6.666,20.627,9.846,40.833,6.722,62.128,32.439,16.313,63.062,34.603,92.61,56.565l-16.861,21.572c-26.423-19.287-53.053-35.757-82.395-50.688-6.494,17.453-16.405,32.283-28.798,45.634,29.165,14.615,55.465,30.629,80.864,49.524-28.374,45.264-50.649,92.379-67.806,143.402,17.47,11.078,31.485,25.573,42.63,43.882,15.673-54.37,37.729-105.111,67.068-152.769l20.077,19.438c-33.407,57.294-58.531,118.216-70.324,183.037-2.124,11.674,2.378,23.51-1.236,35.22-1.724,5.588,4.055,11.576,9.398,11.75,12.786,1.933,24.411,5.066,36.583,10.044,8.067-70.081,29.215-136.262,63.379-197.753,70.627,88.523,110.511,195.659,115.512,307.604,18.469,9.856,33.547,24.033,45.195,41.038,2.578,3.18,4.537,6.512,10.05,5.578.155.144-.482-.447-1.369-1.272,5.455-146.326-44.177-289.345-139.316-400.93l16.92-22.382c99.139,114.106,152.49,259.852,150.072,411.035,17.377-7.905,35.307-11.764,53.847-11.942Z" fill="#f9ff00"/>
      <path d="M294.517,440.228l-20.492-18.323c71.497-73.605,159.387-128.101,257.673-158.878l9.967,25.585c-93.846,29.363-177.643,80.343-247.148,151.616Z" fill="#f9ff00"/>
      <path d="M620.01,270.248l-25.734,4.792-10.256-25.78,27.184-5.373,9.307,22.355c.536,1.286.47,3.075-.5,4.006Z" fill="#f9ff00"/>
      <polygon points="241.75 502.339 221.51 483.774 238.406 462.091 258.491 480.691 241.75 502.339" fill="#f9ff00"/>
    </g>
  </g>
</svg>